<svg xmlns="http://www.w3.org/2000/svg" xmlns:xlink="http://www.w3.org/1999/xlink" version="1.1" class="marks" width="1008" height="471" viewBox="0 0 1008 471"><rect width="1008" height="471" fill="white"/><g fill="none" stroke-miterlimit="10" transform="translate(58,27)"><g class="mark-group role-frame root" role="graphics-object" aria-roledescription="group mark container"><g transform="translate(0,0)"><path class="background" aria-hidden="true" d="M0.5,0.5h845v400h-845Z" stroke="#ddd"/><g><g class="mark-group role-axis" aria-hidden="true"><g transform="translate(0.5,0.5)"><path class="background" aria-hidden="true" d="M0,0h0v0h0Z" pointer-events="none"/><g><g class="mark-rule role-axis-grid" pointer-events="none"><line transform="translate(0,400)" x2="845" y2="0" stroke="#ddd" stroke-width="1" opacity="1"/><line transform="translate(0,369)" x2="845" y2="0" stroke="#ddd" stroke-width="1" opacity="1"/><line transform="translate(0,338)" x2="845" y2="0" stroke="#ddd" stroke-width="1" opacity="1"/><line transform="translate(0,308)" x2="845" y2="0" stroke="#ddd" stroke-width="1" opacity="1"/><line transform="translate(0,277)" x2="845" y2="0" stroke="#ddd" stroke-width="1" opacity="1"/><line transform="translate(0,246)" x2="845" y2="0" stroke="#ddd" stroke-width="1" opacity="1"/><line transform="translate(0,215)" x2="845" y2="0" stroke="#ddd" stroke-width="1" opacity="1"/><line transform="translate(0,185)" x2="845" y2="0" stroke="#ddd" stroke-width="1" opacity="1"/><line transform="translate(0,154)" x2="845" y2="0" stroke="#ddd" stroke-width="1" opacity="1"/><line transform="translate(0,123)" x2="845" y2="0" stroke="#ddd" stroke-width="1" opacity="1"/><line transform="translate(0,92)" x2="845" y2="0" stroke="#ddd" stroke-width="1" opacity="1"/><line transform="translate(0,62)" x2="845" y2="0" stroke="#ddd" stroke-width="1" opacity="1"/><line transform="translate(0,31)" x2="845" y2="0" stroke="#ddd" stroke-width="1" opacity="1"/><line transform="translate(0,0)" x2="845" y2="0" stroke="#ddd" stroke-width="1" opacity="1"/></g></g><path class="foreground" aria-hidden="true" d="" pointer-events="none" display="none"/></g></g><g class="mark-group role-axis" role="graphics-symbol" aria-roledescription="axis" aria-label="X-axis titled 'Time Step (hours)' for a discrete scale with 168 values: 1, 2, 3, 4, 5, ending with 168"><g transform="translate(0.5,400.5)"><path class="background" aria-hidden="true" d="M0,0h0v0h0Z" pointer-events="none"/><g><g class="mark-rule role-axis-tick" pointer-events="none"><line transform="translate(58,0)" x2="0" y2="5" stroke="#888" stroke-width="1" opacity="1"/><line transform="translate(118,0)" x2="0" y2="5" stroke="#888" stroke-width="1" opacity="1"/><line transform="translate(179,0)" x2="0" y2="5" stroke="#888" stroke-width="1" opacity="1"/><line transform="translate(239,0)" x2="0" y2="5" stroke="#888" stroke-width="1" opacity="1"/><line transform="translate(299,0)" x2="0" y2="5" stroke="#888" stroke-width="1" opacity="1"/><line transform="translate(360,0)" x2="0" y2="5" stroke="#888" stroke-width="1" opacity="1"/><line transform="translate(420,0)" x2="0" y2="5" stroke="#888" stroke-width="1" opacity="1"/><line transform="translate(480,0)" x2="0" y2="5" stroke="#888" stroke-width="1" opacity="1"/><line transform="translate(541,0)" x2="0" y2="5" stroke="#888" stroke-width="1" opacity="1"/><line transform="translate(601,0)" x2="0" y2="5" stroke="#888" stroke-width="1" opacity="1"/><line transform="translate(661,0)" x2="0" y2="5" stroke="#888" stroke-width="1" opacity="1"/><line transform="translate(722,0)" x2="0" y2="5" stroke="#888" stroke-width="1" opacity="1"/><line transform="translate(782,0)" x2="0" y2="5" stroke="#888" stroke-width="1" opacity="1"/><line transform="translate(842,0)" x2="0" y2="5" stroke="#888" stroke-width="1" opacity="1"/></g><g class="mark-text role-axis-label" pointer-events="none"><text text-anchor="end" transform="translate(57.84226190476186,7) rotate(270) translate(0,3)" font-family="sans-serif" font-size="10px" fill="#000" opacity="1">12</text><text text-anchor="end" transform="translate(118.19940476190473,7) rotate(270) translate(0,3)" font-family="sans-serif" font-size="10px" fill="#000" opacity="1">24</text><text text-anchor="end" transform="translate(178.5565476190476,7) rotate(270) translate(0,3)" font-family="sans-serif" font-size="10px" fill="#000" opacity="1">36</text><text text-anchor="end" transform="translate(238.91369047619045,7) rotate(270) translate(0,3)" font-family="sans-serif" font-size="10px" fill="#000" opacity="1">48</text><text text-anchor="end" transform="translate(299.2708333333333,7) rotate(270) translate(0,3)" font-family="sans-serif" font-size="10px" fill="#000" opacity="1">60</text><text text-anchor="end" transform="translate(359.62797619047615,7) rotate(270) translate(0,3)" font-family="sans-serif" font-size="10px" fill="#000" opacity="1">72</text><text text-anchor="end" transform="translate(419.98511904761904,7) rotate(270) translate(0,3)" font-family="sans-serif" font-size="10px" fill="#000" opacity="1">84</text><text text-anchor="end" transform="translate(480.34226190476187,7) rotate(270) translate(0,3)" font-family="sans-serif" font-size="10px" fill="#000" opacity="1">96</text><text text-anchor="end" transform="translate(540.6994047619048,7) rotate(270) translate(0,3)" font-family="sans-serif" font-size="10px" fill="#000" opacity="1">108</text><text text-anchor="end" transform="translate(601.0565476190477,7) rotate(270) translate(0,3)" font-family="sans-serif" font-size="10px" fill="#000" opacity="1">120</text><text text-anchor="end" transform="translate(661.4136904761904,7) rotate(270) translate(0,3)" font-family="sans-serif" font-size="10px" fill="#000" opacity="1">132</text><text text-anchor="end" transform="translate(721.7708333333333,7) rotate(270) translate(0,3)" font-family="sans-serif" font-size="10px" fill="#000" opacity="1">144</text><text text-anchor="end" transform="translate(782.1279761904761,7) rotate(270) translate(0,3)" font-family="sans-serif" font-size="10px" fill="#000" opacity="1">156</text><text text-anchor="end" transform="translate(842.485119047619,7) rotate(270) translate(0,3)" font-family="sans-serif" font-size="10px" fill="#000" opacity="1">168</text></g><g class="mark-rule role-axis-domain" pointer-events="none"><line transform="translate(0,0)" x2="845" y2="0" stroke="#888" stroke-width="1" opacity="1"/></g><g class="mark-text role-axis-title" pointer-events="none"><text text-anchor="middle" transform="translate(422.5,36.6845703125)" font-family="sans-serif" font-size="11px" font-weight="bold" fill="#000" opacity="1">Time Step (hours)</text></g></g><path class="foreground" aria-hidden="true" d="" pointer-events="none" display="none"/></g></g><g class="mark-group role-axis" role="graphics-symbol" aria-roledescription="axis" aria-label="Y-axis titled 'Load (MW)' for a linear scale with values from 0 to 26,000"><g transform="translate(0.5,0.5)"><path class="background" aria-hidden="true" d="M0,0h0v0h0Z" pointer-events="none"/><g><g class="mark-rule role-axis-tick" pointer-events="none"><line transform="translate(0,400)" x2="-5" y2="0" stroke="#888" stroke-width="1" opacity="1"/><line transform="translate(0,369)" x2="-5" y2="0" stroke="#888" stroke-width="1" opacity="1"/><line transform="translate(0,338)" x2="-5" y2="0" stroke="#888" stroke-width="1" opacity="1"/><line transform="translate(0,308)" x2="-5" y2="0" stroke="#888" stroke-width="1" opacity="1"/><line transform="translate(0,277)" x2="-5" y2="0" stroke="#888" stroke-width="1" opacity="1"/><line transform="translate(0,246)" x2="-5" y2="0" stroke="#888" stroke-width="1" opacity="1"/><line transform="translate(0,215)" x2="-5" y2="0" stroke="#888" stroke-width="1" opacity="1"/><line transform="translate(0,185)" x2="-5" y2="0" stroke="#888" stroke-width="1" opacity="1"/><line transform="translate(0,154)" x2="-5" y2="0" stroke="#888" stroke-width="1" opacity="1"/><line transform="translate(0,123)" x2="-5" y2="0" stroke="#888" stroke-width="1" opacity="1"/><line transform="translate(0,92)" x2="-5" y2="0" stroke="#888" stroke-width="1" opacity="1"/><line transform="translate(0,62)" x2="-5" y2="0" stroke="#888" stroke-width="1" opacity="1"/><line transform="translate(0,31)" x2="-5" y2="0" stroke="#888" stroke-width="1" opacity="1"/><line transform="translate(0,0)" x2="-5" y2="0" stroke="#888" stroke-width="1" opacity="1"/></g><g class="mark-text role-axis-label" pointer-events="none"><text text-anchor="end" transform="translate(-7,403)" font-family="sans-serif" font-size="10px" fill="#000" opacity="1">0</text><text text-anchor="end" transform="translate(-7,372.2307692307692)" font-family="sans-serif" font-size="10px" fill="#000" opacity="1">2,000</text><text text-anchor="end" transform="translate(-7,341.46153846153845)" font-family="sans-serif" font-size="10px" fill="#000" opacity="1">4,000</text><text text-anchor="end" transform="translate(-7,310.6923076923077)" font-family="sans-serif" font-size="10px" fill="#000" opacity="1">6,000</text><text text-anchor="end" transform="translate(-7,279.9230769230769)" font-family="sans-serif" font-size="10px" fill="#000" opacity="1">8,000</text><text text-anchor="end" transform="translate(-7,249.15384615384616)" font-family="sans-serif" font-size="10px" fill="#000" opacity="1">10,000</text><text text-anchor="end" transform="translate(-7,218.3846153846154)" font-family="sans-serif" font-size="10px" fill="#000" opacity="1">12,000</text><text text-anchor="end" transform="translate(-7,187.6153846153846)" font-family="sans-serif" font-size="10px" fill="#000" opacity="1">14,000</text><text text-anchor="end" transform="translate(-7,156.84615384615384)" font-family="sans-serif" font-size="10px" fill="#000" opacity="1">16,000</text><text text-anchor="end" transform="translate(-7,126.07692307692308)" font-family="sans-serif" font-size="10px" fill="#000" opacity="1">18,000</text><text text-anchor="end" transform="translate(-7,95.30769230769229)" font-family="sans-serif" font-size="10px" fill="#000" opacity="1">20,000</text><text text-anchor="end" transform="translate(-7,64.53846153846155)" font-family="sans-serif" font-size="10px" fill="#000" opacity="1">22,000</text><text text-anchor="end" transform="translate(-7,33.769230769230745)" font-family="sans-serif" font-size="10px" fill="#000" opacity="1">24,000</text><text text-anchor="end" transform="translate(-7,3)" font-family="sans-serif" font-size="10px" fill="#000" opacity="1">26,000</text></g><g class="mark-rule role-axis-domain" pointer-events="none"><line transform="translate(0,400)" x2="0" y2="-400" stroke="#888" stroke-width="1" opacity="1"/></g><g class="mark-text role-axis-title" pointer-events="none"><text text-anchor="middle" transform="translate(-41.5859375,200) rotate(-90) translate(0,-2)" font-family="sans-serif" font-size="11px" font-weight="bold" fill="#000" opacity="1">Load (MW)</text></g></g><path class="foreground" aria-hidden="true" d="" pointer-events="none" display="none"/></g></g><g class="mark-group role-scope layer_0_pathgroup" role="graphics-object" aria-roledescription="group mark container"><g transform="translate(0,0)"><path class="background" aria-hidden="true" d="M0,0h845v400h-845Z"/><g><g class="mark-area role-mark layer_0_marks" role="graphics-object" aria-roledescription="area mark container"><path aria-label="Time Step (hours): 1; Load (MW): 0; Resource_Type: Solar; Resource_Type:n: undefined" role="graphics-symbol" aria-roledescription="area mark" d="M2.515,400L7.545,400L12.574,400L17.604,400L22.634,400L27.664,400L32.693,400L37.723,400L42.753,305.045L47.783,220.863L52.812,174.519L57.842,161.832L62.872,126.76L67.902,139.595L72.932,165.007L77.961,235.106L82.991,339.618L88.021,400L93.051,400L98.08,400L103.11,400L108.14,400L113.17,400L118.199,400L123.229,400L128.259,400L133.289,400L138.318,400L143.348,400L148.378,400L153.408,400L158.437,400L163.467,320.438L168.497,229.645L173.527,178.812L178.557,160.479L183.586,105.348L188.616,31.823L193.646,123.161L198.676,203.716L203.705,320.473L208.735,400L213.765,400L218.795,400L223.824,400L228.854,400L233.884,400L238.914,400L243.943,400L248.973,400L254.003,400L259.033,400L264.062,400L269.092,400L274.122,400L279.152,400L284.182,317.526L289.211,233.41L294.241,176.851L299.271,137.489L304.301,120.037L309.33,131.115L314.36,177.164L319.39,249.748L324.42,346.86L329.449,400L334.479,400L339.509,400L344.539,400L349.568,400L354.598,400L359.628,400L364.658,400L369.688,400L374.717,400L379.747,400L384.777,400L389.807,400L394.836,400L399.866,400L404.896,312.109L409.926,216.405L414.955,158.065L419.985,119.883L425.015,108.756L430.045,109.121L435.074,146.484L440.104,218.67L445.134,338.719L450.164,400L455.193,400L460.223,400L465.253,400L470.283,400L475.313,400L480.342,400L485.372,400L490.402,400L495.432,400L500.461,400L505.491,400L510.521,400L515.551,400L520.58,400L525.61,399.976L530.64,398.405L535.67,371.047L540.699,354.009L545.729,345.194L550.759,310.015L555.789,265.277L560.818,295.879L565.848,369.818L570.878,400L575.908,400L580.938,400L585.967,400L590.997,400L596.027,400L601.057,400L606.086,400L611.116,400L616.146,400L621.176,400L626.205,400L631.235,400L636.265,400L641.295,400L646.324,397.428L651.354,344.959L656.384,232.203L661.414,184.891L666.443,140.512L671.473,135.089L676.503,191.761L681.533,253.863L686.563,345.48L691.592,400L696.622,400L701.652,400L706.682,400L711.711,400L716.741,400L721.771,400L726.801,400L731.83,400L736.86,400L741.89,400L746.92,400L751.949,400L756.979,400L762.009,400L767.039,316.697L772.068,219.758L777.098,156.006L782.128,114.657L787.158,92.574L792.188,92.538L797.217,128.712L802.247,205.334L807.277,308.751L812.307,400L817.336,400L822.366,400L827.396,400L832.426,400L837.455,400L842.485,400L842.485,400L837.455,400L832.426,400L827.396,400L822.366,400L817.336,400L812.307,400L807.277,400L802.247,400L797.217,400L792.188,400L787.158,400L782.128,400L777.098,400L772.068,400L767.039,400L762.009,400L756.979,400L751.949,400L746.92,400L741.89,400L736.86,400L731.83,400L726.801,400L721.771,400L716.741,400L711.711,400L706.682,400L701.652,400L696.622,400L691.592,400L686.563,400L681.533,400L676.503,400L671.473,400L666.443,400L661.414,400L656.384,400L651.354,400L646.324,400L641.295,400L636.265,400L631.235,400L626.205,400L621.176,400L616.146,400L611.116,400L606.086,400L601.057,400L596.027,400L590.997,400L585.967,400L580.938,400L575.908,400L570.878,400L565.848,400L560.818,400L555.789,400L550.759,400L545.729,400L540.699,400L535.67,400L530.64,400L525.61,400L520.58,400L515.551,400L510.521,400L505.491,400L500.461,400L495.432,400L490.402,400L485.372,400L480.342,400L475.313,400L470.283,400L465.253,400L460.223,400L455.193,400L450.164,400L445.134,400L440.104,400L435.074,400L430.045,400L425.015,400L419.985,400L414.955,400L409.926,400L404.896,400L399.866,400L394.836,400L389.807,400L384.777,400L379.747,400L374.717,400L369.688,400L364.658,400L359.628,400L354.598,400L349.568,400L344.539,400L339.509,400L334.479,400L329.449,400L324.42,400L319.39,400L314.36,400L309.33,400L304.301,400L299.271,400L294.241,400L289.211,400L284.182,400L279.152,400L274.122,400L269.092,400L264.062,400L259.033,400L254.003,400L248.973,400L243.943,400L238.914,400L233.884,400L228.854,400L223.824,400L218.795,400L213.765,400L208.735,400L203.705,400L198.676,400L193.646,400L188.616,400L183.586,400L178.557,400L173.527,400L168.497,400L163.467,400L158.437,400L153.408,400L148.378,400L143.348,400L138.318,400L133.289,400L128.259,400L123.229,400L118.199,400L113.17,400L108.14,400L103.11,400L98.08,400L93.051,400L88.021,400L82.991,400L77.961,400L72.932,400L67.902,400L62.872,400L57.842,400L52.812,400L47.783,400L42.753,400L37.723,400L32.693,400L27.664,400L22.634,400L17.604,400L12.574,400L7.545,400L2.515,400Z" fill="#beaed4"/></g></g><path class="foreground" aria-hidden="true" d="" display="none"/></g><g transform="translate(0,0)"><path class="background" aria-hidden="true" d="M0,0h845v400h-845Z"/><g><g class="mark-area role-mark layer_0_marks" role="graphics-object" aria-roledescription="area mark container"><path aria-label="Time Step (hours): 1; Load (MW): 0; Resource_Type: Natural_Gas; Resource_Type:n: undefined" role="graphics-symbol" aria-roledescription="area mark" d="M2.515,400L7.545,400L12.574,400L17.604,400L22.634,400L27.664,400L32.693,400L37.723,400L42.753,305.045L47.783,220.863L52.812,174.519L57.842,161.832L62.872,126.76L67.902,139.595L72.932,165.007L77.961,235.106L82.991,339.618L88.021,392.225L93.051,387.851L98.08,387.851L103.11,391.068L108.14,394.314L113.17,394.314L118.199,372.739L123.229,366.288L128.259,366.288L133.289,366.288L138.318,366.288L143.348,366.288L148.378,366.288L153.408,366.288L158.437,366.288L163.467,295.5L168.497,226.282L173.527,178.812L178.557,160.479L183.586,105.348L188.616,31.823L193.646,123.161L198.676,203.716L203.705,320.473L208.735,376.758L213.765,366.298L218.795,363.684L223.824,363.684L228.854,363.684L233.884,363.684L238.914,363.684L243.943,363.684L248.973,363.684L254.003,363.684L259.033,368.52L264.062,363.684L269.092,363.684L274.122,363.684L279.152,376.758L284.182,317.526L289.211,233.41L294.241,176.851L299.271,137.489L304.301,120.037L309.33,131.115L314.36,177.164L319.39,249.748L324.42,346.86L329.449,400L334.479,400L339.509,400L344.539,400L349.568,400L354.598,400L359.628,400L364.658,400L369.688,400L374.717,399.972L379.747,399.907L384.777,399.907L389.807,399.907L394.836,399.907L399.866,399.742L404.896,312.016L409.926,216.377L414.955,158.037L419.985,119.856L425.015,108.728L430.045,109.094L435.074,146.456L440.104,218.642L445.134,320.512L450.164,371.595L455.193,371.595L460.223,371.595L465.253,371.595L470.283,372.98L475.313,390.96L480.342,400L485.372,400L490.402,400L495.432,400L500.461,400L505.491,400L510.521,400L515.551,400L520.58,398.872L525.61,398.213L530.64,396.643L535.67,369.285L540.699,353.184L545.729,343.431L550.759,308.252L555.789,264.452L560.818,295.054L565.848,354.31L570.878,367.645L575.908,367.645L580.938,367.645L585.967,367.645L590.997,367.645L596.027,367.645L601.057,367.645L606.086,367.645L611.116,367.645L616.146,367.645L621.176,384.858L626.205,367.645L631.235,367.645L636.265,367.645L641.295,367.645L646.324,365.073L651.354,324.252L656.384,232.203L661.414,184.891L666.443,140.512L671.473,135.089L676.503,191.761L681.533,253.863L686.563,345.48L691.592,400L696.622,400L701.652,400L706.682,400L711.711,400L716.741,400L721.771,400L726.801,400L731.83,400L736.86,400L741.89,400L746.92,400L751.949,400L756.979,400L762.009,400L767.039,316.697L772.068,219.758L777.098,156.006L782.128,114.657L787.158,92.574L792.188,92.538L797.217,128.712L802.247,205.334L807.277,308.751L812.307,400L817.336,400L822.366,400L827.396,400L832.426,400L837.455,400L842.485,400L842.485,400L837.455,400L832.426,400L827.396,400L822.366,400L817.336,400L812.307,400L807.277,308.751L802.247,205.334L797.217,128.712L792.188,92.538L787.158,92.574L782.128,114.657L777.098,156.006L772.068,219.758L767.039,316.697L762.009,400L756.979,400L751.949,400L746.92,400L741.89,400L736.86,400L731.83,400L726.801,400L721.771,400L716.741,400L711.711,400L706.682,400L701.652,400L696.622,400L691.592,400L686.563,345.48L681.533,253.863L676.503,191.761L671.473,135.089L666.443,140.512L661.414,184.891L656.384,232.203L651.354,344.959L646.324,397.428L641.295,400L636.265,400L631.235,400L626.205,400L621.176,400L616.146,400L611.116,400L606.086,400L601.057,400L596.027,400L590.997,400L585.967,400L580.938,400L575.908,400L570.878,400L565.848,369.818L560.818,295.879L555.789,265.277L550.759,310.015L545.729,345.194L540.699,354.009L535.67,371.047L530.64,398.405L525.61,399.976L520.58,400L515.551,400L510.521,400L505.491,400L500.461,400L495.432,400L490.402,400L485.372,400L480.342,400L475.313,400L470.283,400L465.253,400L460.223,400L455.193,400L450.164,400L445.134,338.719L440.104,218.67L435.074,146.484L430.045,109.121L425.015,108.756L419.985,119.883L414.955,158.065L409.926,216.405L404.896,312.109L399.866,400L394.836,400L389.807,400L384.777,400L379.747,400L374.717,400L369.688,400L364.658,400L359.628,400L354.598,400L349.568,400L344.539,400L339.509,400L334.479,400L329.449,400L324.42,346.86L319.39,249.748L314.36,177.164L309.33,131.115L304.301,120.037L299.271,137.489L294.241,176.851L289.211,233.41L284.182,317.526L279.152,400L274.122,400L269.092,400L264.062,400L259.033,400L254.003,400L248.973,400L243.943,400L238.914,400L233.884,400L228.854,400L223.824,400L218.795,400L213.765,400L208.735,400L203.705,320.473L198.676,203.716L193.646,123.161L188.616,31.823L183.586,105.348L178.557,160.479L173.527,178.812L168.497,229.645L163.467,320.438L158.437,400L153.408,400L148.378,400L143.348,400L138.318,400L133.289,400L128.259,400L123.229,400L118.199,400L113.17,400L108.14,400L103.11,400L98.08,400L93.051,400L88.021,400L82.991,339.618L77.961,235.106L72.932,165.007L67.902,139.595L62.872,126.76L57.842,161.832L52.812,174.519L47.783,220.863L42.753,305.045L37.723,400L32.693,400L27.664,400L22.634,400L17.604,400L12.574,400L7.545,400L2.515,400Z" fill="#fdc086"/></g></g><path class="foreground" aria-hidden="true" d="" display="none"/></g><g transform="translate(0,0)"><path class="background" aria-hidden="true" d="M0,0h845v400h-845Z"/><g><g class="mark-area role-mark layer_0_marks" role="graphics-object" aria-roledescription="area mark container"><path aria-label="Time Step (hours): 1; Load (MW): 3210.78642588; Resource_Type: Battery; Resource_Type:n: undefined" role="graphics-symbol" aria-roledescription="area mark" d="M2.515,350.603L7.545,360.962L12.574,332.836L17.604,336.478L22.634,307.958L27.664,288.41L32.693,345.648L37.723,259.939L42.753,208.764L47.783,197.461L52.812,136.691L57.842,104.743L62.872,110.823L67.902,93.936L72.932,116.054L77.961,164.418L82.991,226.088L88.021,320.437L93.051,358.27L98.08,344.673L103.11,333.169L108.14,358.561L113.17,362.203L118.199,356.973L123.229,348.673L128.259,323.398L133.289,312.579L138.318,299.847L143.348,299.251L148.378,308.133L153.408,285.706L158.437,250.938L163.467,245.939L168.497,226.282L173.527,178.812L178.557,160.479L183.586,105.348L188.616,31.823L193.646,117.688L198.676,175.589L203.705,311.092L208.735,365.852L213.765,360.352L218.795,310.063L223.824,295.874L228.854,301.145L233.884,329.557L238.914,326.821L243.943,327.029L248.973,312.59L254.003,339.935L259.033,355.626L264.062,321.889L269.092,318.611L274.122,311.967L279.152,279.083L284.182,289.399L289.211,166.267L294.241,123.928L299.271,137.489L304.301,120.037L309.33,78.441L314.36,127.191L319.39,174.137L324.42,320.886L329.449,309.758L334.479,357.745L339.509,283.74L344.539,352.412L349.568,365.325L354.598,400L359.628,349.68L364.658,400L369.688,371.873L374.717,354.782L379.747,320.219L384.777,361.165L389.807,399.907L394.836,349.369L399.866,281.737L404.896,237.608L409.926,216.377L414.955,158.037L419.985,119.856L425.015,108.728L430.045,109.094L435.074,146.456L440.104,218.642L445.134,231.782L450.164,297.856L455.193,325.553L460.223,291.529L465.253,330.049L470.283,333.117L475.313,362.426L480.342,382.13L485.372,400L490.402,397.963L495.432,400L500.461,400L505.491,338.443L510.521,400L515.551,391.433L520.58,282.732L525.61,382.542L530.64,294.191L535.67,252.25L540.699,331.577L545.729,252.05L550.759,203.736L555.789,264.452L560.818,295.054L565.848,337.166L570.878,348.976L575.908,298.87L580.938,263.102L585.967,259.083L590.997,275.973L596.027,274.493L601.057,359.324L606.086,340.065L611.116,361.023L616.146,365.87L621.176,384.858L626.205,355.865L631.235,350.182L636.265,357.4L641.295,288.761L646.324,295.903L651.354,287.474L656.384,232.203L661.414,178.05L666.443,140.512L671.473,89.594L676.503,133.652L681.533,181.874L686.563,218.726L691.592,365.187L696.622,257.836L701.652,369.202L706.682,360.055L711.711,365.451L716.741,371.282L721.771,279.044L726.801,359.222L731.83,283.736L736.86,385.782L741.89,301.084L746.92,355.153L751.949,298.353L756.979,340.45L762.009,281.077L767.039,191.844L772.068,187.458L777.098,115.547L782.128,70.906L787.158,86.336L792.188,73.979L797.217,82.669L802.247,144.533L807.277,206.206L812.307,337.516L817.336,340.987L822.366,274.407L827.396,343.041L832.426,265.197L837.455,343.843L842.485,382.868L842.485,400L837.455,400L832.426,400L827.396,400L822.366,400L817.336,400L812.307,400L807.277,308.751L802.247,205.334L797.217,128.712L792.188,92.538L787.158,92.574L782.128,114.657L777.098,156.006L772.068,219.758L767.039,316.697L762.009,400L756.979,400L751.949,400L746.92,400L741.89,400L736.86,400L731.83,400L726.801,400L721.771,400L716.741,400L711.711,400L706.682,400L701.652,400L696.622,400L691.592,400L686.563,345.48L681.533,253.863L676.503,191.761L671.473,135.089L666.443,140.512L661.414,184.891L656.384,232.203L651.354,324.252L646.324,365.073L641.295,367.645L636.265,367.645L631.235,367.645L626.205,367.645L621.176,384.858L616.146,367.645L611.116,367.645L606.086,367.645L601.057,367.645L596.027,367.645L590.997,367.645L585.967,367.645L580.938,367.645L575.908,367.645L570.878,367.645L565.848,354.31L560.818,295.054L555.789,264.452L550.759,308.252L545.729,343.431L540.699,353.184L535.67,369.285L530.64,396.643L525.61,398.213L520.58,398.872L515.551,400L510.521,400L505.491,400L500.461,400L495.432,400L490.402,400L485.372,400L480.342,400L475.313,390.96L470.283,372.98L465.253,371.595L460.223,371.595L455.193,371.595L450.164,371.595L445.134,320.512L440.104,218.642L435.074,146.456L430.045,109.094L425.015,108.728L419.985,119.856L414.955,158.037L409.926,216.377L404.896,312.016L399.866,399.742L394.836,399.907L389.807,399.907L384.777,399.907L379.747,399.907L374.717,399.972L369.688,400L364.658,400L359.628,400L354.598,400L349.568,400L344.539,400L339.509,400L334.479,400L329.449,400L324.42,346.86L319.39,249.748L314.36,177.164L309.33,131.115L304.301,120.037L299.271,137.489L294.241,176.851L289.211,233.41L284.182,317.526L279.152,376.758L274.122,363.684L269.092,363.684L264.062,363.684L259.033,368.52L254.003,363.684L248.973,363.684L243.943,363.684L238.914,363.684L233.884,363.684L228.854,363.684L223.824,363.684L218.795,363.684L213.765,366.298L208.735,376.758L203.705,320.473L198.676,203.716L193.646,123.161L188.616,31.823L183.586,105.348L178.557,160.479L173.527,178.812L168.497,226.282L163.467,295.5L158.437,366.288L153.408,366.288L148.378,366.288L143.348,366.288L138.318,366.288L133.289,366.288L128.259,366.288L123.229,366.288L118.199,372.739L113.17,394.314L108.14,394.314L103.11,391.068L98.08,387.851L93.051,387.851L88.021,392.225L82.991,339.618L77.961,235.106L72.932,165.007L67.902,139.595L62.872,126.76L57.842,161.832L52.812,174.519L47.783,220.863L42.753,305.045L37.723,400L32.693,400L27.664,400L22.634,400L17.604,400L12.574,400L7.545,400L2.515,400Z" fill="#ffff99"/></g></g><path class="foreground" aria-hidden="true" d="" display="none"/></g><g transform="translate(0,0)"><path class="background" aria-hidden="true" d="M0,0h845v400h-845Z"/><g><g class="mark-area role-mark layer_0_marks" role="graphics-object" aria-roledescription="area mark container"><path aria-label="Time Step (hours): 1; Load (MW): 13811.3928691; Resource_Type: Wind; Resource_Type:n: undefined" role="graphics-symbol" aria-roledescription="area mark" d="M2.515,138.12L7.545,134.765L12.574,167.026L17.604,165.463L22.634,192.844L27.664,207.992L32.693,141.901L37.723,219.063L42.753,162.883L47.783,80.569L52.812,89.303L57.842,104.743L62.872,63.004L67.902,93.936L72.932,98.085L77.961,116.507L82.991,140.503L88.021,102.202L93.051,65L98.08,89.243L103.11,114.685L108.14,99.756L113.17,101.36L118.199,217.26L123.229,227.628L128.259,232.645L133.289,234.937L138.318,233.931L143.348,228.14L148.378,210.475L153.408,179.66L158.437,161.369L163.467,160.389L168.497,160.088L173.527,126.366L178.557,124.632L183.586,81.453L188.616,21.424L193.646,30.89L198.676,81.966L203.705,137.969L208.735,59.766L213.765,96.953L218.795,114.274L223.824,137.085L228.854,154.239L233.884,175.804L238.914,195L243.943,207.586L248.973,214.142L254.003,217.3L259.033,217.489L264.062,212.707L269.092,196.738L274.122,166.461L279.152,150.532L284.182,78.059L289.211,83.954L294.241,70.638L299.271,19.683L304.301,23.759L309.33,78.441L314.36,77.541L319.39,101.445L324.42,35.867L329.449,86.942L334.479,42.172L339.509,126.976L344.539,113.544L349.568,136.751L354.598,157.924L359.628,128.609L364.658,180.691L369.688,213.099L374.717,204.656L379.747,205.303L384.777,226.855L389.807,199.643L394.836,179.597L399.866,163.521L404.896,163.676L409.926,159.491L414.955,130.373L419.985,103.221L425.015,103.728L430.045,98.362L435.074,113.037L440.104,163.693L445.134,159.021L450.164,140.587L455.193,105.997L460.223,147.88L465.253,157.295L470.283,173.74L475.313,195.113L480.342,212.666L485.372,165.988L490.402,123.025L495.432,121.274L500.461,113.272L505.491,160.399L510.521,79.227L515.551,79.441L520.58,161.676L525.61,52.658L530.64,133.48L535.67,155.458L540.699,57.964L545.729,128.072L550.759,146.612L555.789,17.043L560.818,26.428L565.848,52.916L570.878,41.248L575.908,136.971L580.938,118.943L585.967,155.375L590.997,146.306L596.027,193.474L601.057,186.356L606.086,219.069L611.116,212.222L616.146,237.316L621.176,208.485L626.205,233.672L631.235,218.879L636.265,142.482L641.295,171.974L646.324,168.889L651.354,167.282L656.384,46.412L661.414,28.628L666.443,24.08L671.473,70.645L676.503,83.848L681.533,94.126L686.563,133.655L691.592,27.406L696.622,137.095L701.652,32.268L706.682,49.707L711.711,56.681L716.741,67.434L721.771,176.226L726.801,108.94L731.83,192.576L736.86,94.15L741.89,180.186L746.92,125.557L751.949,175.133L756.979,122.846L762.009,170.753L767.039,164.209L772.068,61.624L777.098,65.666L782.128,70.906L787.158,36.932L792.188,53.548L797.217,82.669L802.247,95.56L807.277,122.094L812.307,62.185L817.336,58.776L822.366,130.986L827.396,70.43L832.426,157.32L837.455,89.857L842.485,63.848L842.485,382.868L837.455,343.843L832.426,265.197L827.396,343.041L822.366,274.407L817.336,340.987L812.307,337.516L807.277,206.206L802.247,144.533L797.217,82.669L792.188,73.979L787.158,86.336L782.128,70.906L777.098,115.547L772.068,187.458L767.039,191.844L762.009,281.077L756.979,340.45L751.949,298.353L746.92,355.153L741.89,301.084L736.86,385.782L731.83,283.736L726.801,359.222L721.771,279.044L716.741,371.282L711.711,365.451L706.682,360.055L701.652,369.202L696.622,257.836L691.592,365.187L686.563,218.726L681.533,181.874L676.503,133.652L671.473,89.594L666.443,140.512L661.414,178.05L656.384,232.203L651.354,287.474L646.324,295.903L641.295,288.761L636.265,357.4L631.235,350.182L626.205,355.865L621.176,384.858L616.146,365.87L611.116,361.023L606.086,340.065L601.057,359.324L596.027,274.493L590.997,275.973L585.967,259.083L580.938,263.102L575.908,298.87L570.878,348.976L565.848,337.166L560.818,295.054L555.789,264.452L550.759,203.736L545.729,252.05L540.699,331.577L535.67,252.25L530.64,294.191L525.61,382.542L520.58,282.732L515.551,391.433L510.521,400L505.491,338.443L500.461,400L495.432,400L490.402,397.963L485.372,400L480.342,382.13L475.313,362.426L470.283,333.117L465.253,330.049L460.223,291.529L455.193,325.553L450.164,297.856L445.134,231.782L440.104,218.642L435.074,146.456L430.045,109.094L425.015,108.728L419.985,119.856L414.955,158.037L409.926,216.377L404.896,237.608L399.866,281.737L394.836,349.369L389.807,399.907L384.777,361.165L379.747,320.219L374.717,354.782L369.688,371.873L364.658,400L359.628,349.68L354.598,400L349.568,365.325L344.539,352.412L339.509,283.74L334.479,357.745L329.449,309.758L324.42,320.886L319.39,174.137L314.36,127.191L309.33,78.441L304.301,120.037L299.271,137.489L294.241,123.928L289.211,166.267L284.182,289.399L279.152,279.083L274.122,311.967L269.092,318.611L264.062,321.889L259.033,355.626L254.003,339.935L248.973,312.59L243.943,327.029L238.914,326.821L233.884,329.557L228.854,301.145L223.824,295.874L218.795,310.063L213.765,360.352L208.735,365.852L203.705,311.092L198.676,175.589L193.646,117.688L188.616,31.823L183.586,105.348L178.557,160.479L173.527,178.812L168.497,226.282L163.467,245.939L158.437,250.938L153.408,285.706L148.378,308.133L143.348,299.251L138.318,299.847L133.289,312.579L128.259,323.398L123.229,348.673L118.199,356.973L113.17,362.203L108.14,358.561L103.11,333.169L98.08,344.673L93.051,358.27L88.021,320.437L82.991,226.088L77.961,164.418L72.932,116.054L67.902,93.936L62.872,110.823L57.842,104.743L52.812,136.691L47.783,197.461L42.753,208.764L37.723,259.939L32.693,345.648L27.664,288.41L22.634,307.958L17.604,336.478L12.574,332.836L7.545,360.962L2.515,350.603Z" fill="#7fc97f"/></g></g><path class="foreground" aria-hidden="true" d="" display="none"/></g></g><g class="mark-line role-mark layer_1_marks" role="graphics-object" aria-roledescription="line mark container"><path aria-label="Hour: 1; Demand_Total: 10105" role="graphics-symbol" aria-roledescription="line mark" d="M2.515,244.538L2.515,244.538L2.515,244.538L2.515,244.538L7.545,248.031L7.545,248.031L7.545,248.031L7.545,248.031L12.574,248.569L12.574,248.569L12.574,248.569L12.574,248.569L17.604,245.892L17.604,245.892L17.604,245.892L17.604,245.892L22.634,240.154L22.634,240.154L22.634,240.154L22.634,240.154L27.664,234.969L27.664,234.969L27.664,234.969L27.664,234.969L32.693,226.185L32.693,226.185L32.693,226.185L32.693,226.185L37.723,217.554L37.723,217.554L37.723,217.554L37.723,217.554L42.753,212.369L42.753,212.369L42.753,212.369L42.753,212.369L47.783,210.446L47.783,210.446L47.783,210.446L47.783,210.446L52.812,209.523L52.812,209.523L52.812,209.523L52.812,209.523L57.842,211.231L57.842,211.231L57.842,211.231L57.842,211.231L62.872,213.092L62.872,213.092L62.872,213.092L62.872,213.092L67.902,212.015L67.902,212.015L67.902,212.015L67.902,212.015L72.932,193.692L72.932,193.692L72.932,193.692L72.932,193.692L77.961,176.323L77.961,176.323L77.961,176.323L77.961,176.323L82.991,177.631L82.991,177.631L82.991,177.631L82.991,177.631L88.021,184.431L88.021,184.431L88.021,184.431L88.021,184.431L93.051,192.4L93.051,192.4L93.051,192.4L93.051,192.4L98.08,203.508L98.08,203.508L98.08,203.508L98.08,203.508L103.11,217.277L103.11,217.277L103.11,217.277L103.11,217.277L108.14,232.708L108.14,232.708L108.14,232.708L108.14,232.708L113.17,245.769L113.17,245.769L113.17,245.769L113.17,245.769L118.199,253.677L118.199,253.677L118.199,253.677L118.199,253.677L123.229,257.477L123.229,257.477L123.229,257.477L123.229,257.477L128.259,258.338L128.259,258.338L128.259,258.338L128.259,258.338L133.289,255.231L133.289,255.231L133.289,255.231L133.289,255.231L138.318,247.323L138.318,247.323L138.318,247.323L138.318,247.323L143.348,235.446L143.348,235.446L143.348,235.446L143.348,235.446L148.378,225.708L148.378,225.708L148.378,225.708L148.378,225.708L153.408,213.769L153.408,213.769L153.408,213.769L153.408,213.769L158.437,201.554L158.437,201.554L158.437,201.554L158.437,201.554L163.467,192.585L163.467,192.585L163.467,192.585L163.467,192.585L168.497,188.908L168.497,188.908L168.497,188.908L168.497,188.908L173.527,189.246L173.527,189.246L173.527,189.246L173.527,189.246L178.557,190.6L178.557,190.6L178.557,190.6L178.557,190.6L183.586,191.262L183.586,191.262L183.586,191.262L183.586,191.262L188.616,188.092L188.616,188.092L188.616,188.092L188.616,188.092L193.646,168.215L193.646,168.215L193.646,168.215L193.646,168.215L198.676,148.092L198.676,148.092L198.676,148.092L198.676,148.092L203.705,150.308L203.705,150.308L203.705,150.308L203.705,150.308L208.735,156.338L208.735,156.338L208.735,156.338L208.735,156.338L213.765,166.2L213.765,166.2L213.765,166.2L213.765,166.2L218.795,181.708L218.795,181.708L218.795,181.708L218.795,181.708L223.824,200.923L223.824,200.923L223.824,200.923L223.824,200.923L228.854,218.338L228.854,218.338L228.854,218.338L228.854,218.338L233.884,229.892L233.884,229.892L233.884,229.892L233.884,229.892L238.914,235.662L238.914,235.662L238.914,235.662L238.914,235.662L243.943,238.431L243.943,238.431L243.943,238.431L243.943,238.431L248.973,238.092L248.973,238.092L248.973,238.092L248.973,238.092L254.003,232.292L254.003,232.292L254.003,232.292L254.003,232.292L259.033,215.062L259.033,215.062L259.033,215.062L259.033,215.062L264.062,184.569L264.062,184.569L264.062,184.569L264.062,184.569L269.092,167.492L269.092,167.492L269.092,167.492L269.092,167.492L274.122,164.6L274.122,164.6L274.122,164.6L274.122,164.6L279.152,162.985L279.152,162.985L279.152,162.985L279.152,162.985L284.182,160.862L284.182,160.862L284.182,160.862L284.182,160.862L289.211,160.462L289.211,160.462L289.211,160.462L289.211,160.462L294.241,161.431L294.241,161.431L294.241,161.431L294.241,161.431L299.271,161.769L299.271,161.769L299.271,161.769L299.271,161.769L304.301,162.677L304.301,162.677L304.301,162.677L304.301,162.677L309.33,159.4L309.33,159.4L309.33,159.4L309.33,159.4L314.36,140.615L314.36,140.615L314.36,140.615L314.36,140.615L319.39,120.077L319.39,120.077L319.39,120.077L319.39,120.077L324.42,119.538L324.42,119.538L324.42,119.538L324.42,119.538L329.449,124.246L329.449,124.246L329.449,124.246L329.449,124.246L334.479,133.215L334.479,133.215L334.479,133.215L334.479,133.215L339.509,148.954L339.509,148.954L339.509,148.954L339.509,148.954L344.539,169.969L344.539,169.969L344.539,169.969L344.539,169.969L349.568,188.369L349.568,188.369L349.568,188.369L349.568,188.369L354.598,199.815L354.598,199.815L354.598,199.815L354.598,199.815L359.628,205.831L359.628,205.831L359.628,205.831L359.628,205.831L364.658,208.892L364.658,208.892L364.658,208.892L364.658,208.892L369.688,208.554L369.688,208.554L369.688,208.554L369.688,208.554L374.717,203.323L374.717,203.323L374.717,203.323L374.717,203.323L379.747,187.077L379.747,187.077L379.747,187.077L379.747,187.077L384.777,157.523L384.777,157.523L384.777,157.523L384.777,157.523L389.807,141.431L389.807,141.431L389.807,141.431L389.807,141.431L394.836,141.108L394.836,141.108L394.836,141.108L394.836,141.108L399.866,141.8L399.866,141.8L399.866,141.8L399.866,141.8L404.896,142.385L404.896,142.385L404.896,142.385L404.896,142.385L409.926,144.908L409.926,144.908L409.926,144.908L409.926,144.908L414.955,148.554L414.955,148.554L414.955,148.554L414.955,148.554L419.985,150.708L419.985,150.708L419.985,150.708L419.985,150.708L425.015,152.677L425.015,152.677L425.015,152.677L425.015,152.677L430.045,150.123L430.045,150.123L430.045,150.123L430.045,150.123L435.074,132.646L435.074,132.646L435.074,132.646L435.074,132.646L440.104,118.431L440.104,118.431L440.104,118.431L440.104,118.431L445.134,120.615L445.134,120.615L445.134,120.615L445.134,120.615L450.164,127.123L450.164,127.123L450.164,127.123L450.164,127.123L455.193,137.569L455.193,137.569L455.193,137.569L455.193,137.569L460.223,154.831L460.223,154.831L460.223,154.831L460.223,154.831L465.253,176.831L465.253,176.831L465.253,176.831L465.253,176.831L470.283,197.2L470.283,197.2L470.283,197.2L470.283,197.2L475.313,210.215L475.313,210.215L475.313,210.215L475.313,210.215L480.342,217.154L480.342,217.154L480.342,217.154L480.342,217.154L485.372,220.677L485.372,220.677L485.372,220.677L485.372,220.677L490.402,221.308L490.402,221.308L490.402,221.308L490.402,221.308L495.432,216.723L495.432,216.723L495.432,216.723L495.432,216.723L500.461,201.692L500.461,201.692L500.461,201.692L500.461,201.692L505.491,173.123L505.491,173.123L505.491,173.123L505.491,173.123L510.521,156.385L510.521,156.385L510.521,156.385L510.521,156.385L515.551,154.6L515.551,154.6L515.551,154.6L515.551,154.6L520.58,153.523L520.58,153.523L520.58,153.523L520.58,153.523L525.61,154.631L525.61,154.631L525.61,154.631L525.61,154.631L530.64,158.062L530.64,158.062L530.64,158.062L530.64,158.062L535.67,161.062L535.67,161.062L535.67,161.062L535.67,161.062L540.699,162.231L540.699,162.231L540.699,162.231L540.699,162.231L545.729,164.108L545.729,164.108L545.729,164.108L545.729,164.108L550.759,162.585L550.759,162.585L550.759,162.585L550.759,162.585L555.789,147.508L555.789,147.508L555.789,147.508L555.789,147.508L560.818,131L560.818,131L560.818,131L560.818,131L565.848,131.969L565.848,131.969L565.848,131.969L565.848,131.969L570.878,138.062L570.878,138.062L570.878,138.062L570.878,138.062L575.908,147.846L575.908,147.846L575.908,147.846L575.908,147.846L580.938,164L580.938,164L580.938,164L580.938,164L585.967,185.738L585.967,185.738L585.967,185.738L585.967,185.738L590.997,204.492L590.997,204.492L590.997,204.492L590.997,204.492L596.027,216.785L596.027,216.785L596.027,216.785L596.027,216.785L601.057,223.446L601.057,223.446L601.057,223.446L601.057,223.446L606.086,226.862L606.086,226.862L606.086,226.862L606.086,226.862L611.116,227.708L611.116,227.708L611.116,227.708L611.116,227.708L616.146,223.508L616.146,223.508L616.146,223.508L616.146,223.508L621.176,208.585L621.176,208.585L621.176,208.585L621.176,208.585L626.205,180.538L626.205,180.538L626.205,180.538L626.205,180.538L631.235,163.723L631.235,163.723L631.235,163.723L631.235,163.723L636.265,161.785L636.265,161.785L636.265,161.785L636.265,161.785L641.295,161.538L641.295,161.538L641.295,161.538L641.295,161.538L646.324,162.585L646.324,162.585L646.324,162.585L646.324,162.585L651.354,166.108L651.354,166.108L651.354,166.108L651.354,166.108L656.384,169.969L656.384,169.969L656.384,169.969L656.384,169.969L661.414,172L661.414,172L661.414,172L661.414,172L666.443,175.169L666.443,175.169L666.443,175.169L666.443,175.169L671.473,174.077L671.473,174.077L671.473,174.077L671.473,174.077L676.503,160.908L676.503,160.908L676.503,160.908L676.503,160.908L681.533,148.277L681.533,148.277L681.533,148.277L681.533,148.277L686.563,152.308L686.563,152.308L686.563,152.308L686.563,152.308L691.592,159.462L691.592,159.462L691.592,159.462L691.592,159.462L696.622,168.969L696.622,168.969L696.622,168.969L696.622,168.969L701.652,181.354L701.652,181.354L701.652,181.354L701.652,181.354L706.682,198.215L706.682,198.215L706.682,198.215L706.682,198.215L711.711,215.538L711.711,215.538L711.711,215.538L711.711,215.538L716.741,228.938L716.741,228.938L716.741,228.938L716.741,228.938L721.771,236.369L721.771,236.369L721.771,236.369L721.771,236.369L726.801,240.415L726.801,240.415L726.801,240.415L726.801,240.415L731.83,242.031L731.83,242.031L731.83,242.031L731.83,242.031L736.86,240.462L736.86,240.462L736.86,240.462L736.86,240.462L741.89,234.385L741.89,234.385L741.89,234.385L741.89,234.385L746.92,223.415L746.92,223.415L746.92,223.415L746.92,223.415L751.949,211.846L751.949,211.846L751.949,211.846L751.949,211.846L756.979,199.985L756.979,199.985L756.979,199.985L756.979,199.985L762.009,192.831L762.009,192.831L762.009,192.831L762.009,192.831L767.039,190.815L767.039,190.815L767.039,190.815L767.039,190.815L772.068,192.492L772.068,192.492L772.068,192.492L772.068,192.492L777.098,196.308L777.098,196.308L777.098,196.308L777.098,196.308L782.128,200.615L782.128,200.615L782.128,200.615L782.128,200.615L787.158,203.631L787.158,203.631L787.158,203.631L787.158,203.631L792.188,201.554L792.188,201.554L792.188,201.554L792.188,201.554L797.217,187.015L797.217,187.015L797.217,187.015L797.217,187.015L802.247,172.446L802.247,172.446L802.247,172.446L802.247,172.446L807.277,175.108L807.277,175.108L807.277,175.108L807.277,175.108L812.307,182.323L812.307,182.323L812.307,182.323L812.307,182.323L817.336,189.169L817.336,189.169L817.336,189.169L817.336,189.169L822.366,199.031L822.366,199.031L822.366,199.031L822.366,199.031L827.396,211.938L827.396,211.938L827.396,211.938L827.396,211.938L832.426,226.123L832.426,226.123L832.426,226.123L832.426,226.123L837.455,238.031L837.455,238.031L837.455,238.031L837.455,238.031L842.485,244.938L842.485,244.938L842.485,244.938L842.485,244.938" stroke="#386cb0" stroke-width="2"/></g><g class="mark-group role-legend" role="graphics-symbol" aria-roledescription="legend" aria-label="Symbol legend titled 'Resource_Type' for fill color and stroke color with 5 values: Wind, Solar, Natural_Gas, Battery, Demand"><g transform="translate(863,0)"><path class="background" aria-hidden="true" d="M0,0h82v93h-82Z" pointer-events="none"/><g><g class="mark-group role-legend-entry"><g transform="translate(0,16)"><path class="background" aria-hidden="true" d="M0,0h0v0h0Z" pointer-events="none"/><g><g class="mark-group role-scope" role="graphics-object" aria-roledescription="group mark container"><g transform="translate(0,0)"><path class="background" aria-hidden="true" d="M0,0h72.1376953125v12.5h-72.1376953125Z" pointer-events="none" opacity="1"/><g><g class="mark-symbol role-legend-symbol" pointer-events="none"><path transform="translate(6,6)" d="M5,0A5,5,0,1,1,-5,0A5,5,0,1,1,5,0" fill="#7fc97f" stroke="#7fc97f" stroke-width="1.5" opacity="1"/></g><g class="mark-text role-legend-label" pointer-events="none"><text text-anchor="start" transform="translate(16,9)" font-family="sans-serif" font-size="10px" fill="#000" opacity="1">Wind</text></g></g><path class="foreground" aria-hidden="true" d="" pointer-events="none" display="none"/></g><g transform="translate(0,16)"><path class="background" aria-hidden="true" d="M0,0h72.1376953125v12.5h-72.1376953125Z" pointer-events="none" opacity="1"/><g><g class="mark-symbol role-legend-symbol" pointer-events="none"><path transform="translate(6,6)" d="M5,0A5,5,0,1,1,-5,0A5,5,0,1,1,5,0" fill="#beaed4" stroke="#beaed4" stroke-width="1.5" opacity="1"/></g><g class="mark-text role-legend-label" pointer-events="none"><text text-anchor="start" transform="translate(16,9)" font-family="sans-serif" font-size="10px" fill="#000" opacity="1">Solar</text></g></g><path class="foreground" aria-hidden="true" d="" pointer-events="none" display="none"/></g><g transform="translate(0,32)"><path class="background" aria-hidden="true" d="M0,0h72.1376953125v12.5h-72.1376953125Z" pointer-events="none" opacity="1"/><g><g class="mark-symbol role-legend-symbol" pointer-events="none"><path transform="translate(6,6)" d="M5,0A5,5,0,1,1,-5,0A5,5,0,1,1,5,0" fill="#fdc086" stroke="#fdc086" stroke-width="1.5" opacity="1"/></g><g class="mark-text role-legend-label" pointer-events="none"><text text-anchor="start" transform="translate(16,9)" font-family="sans-serif" font-size="10px" fill="#000" opacity="1">Natural_Gas</text></g></g><path class="foreground" aria-hidden="true" d="" pointer-events="none" display="none"/></g><g transform="translate(0,48)"><path class="background" aria-hidden="true" d="M0,0h72.1376953125v12.5h-72.1376953125Z" pointer-events="none" opacity="1"/><g><g class="mark-symbol role-legend-symbol" pointer-events="none"><path transform="translate(6,6)" d="M5,0A5,5,0,1,1,-5,0A5,5,0,1,1,5,0" fill="#ffff99" stroke="#ffff99" stroke-width="1.5" opacity="1"/></g><g class="mark-text role-legend-label" pointer-events="none"><text text-anchor="start" transform="translate(16,9)" font-family="sans-serif" font-size="10px" fill="#000" opacity="1">Battery</text></g></g><path class="foreground" aria-hidden="true" d="" pointer-events="none" display="none"/></g><g transform="translate(0,64)"><path class="background" aria-hidden="true" d="M0,0h72.1376953125v12.5h-72.1376953125Z" pointer-events="none" opacity="1"/><g><g class="mark-symbol role-legend-symbol" pointer-events="none"><path transform="translate(6,6)" d="M5,0A5,5,0,1,1,-5,0A5,5,0,1,1,5,0" fill="#386cb0" stroke="#386cb0" stroke-width="1.5" opacity="1"/></g><g class="mark-text role-legend-label" pointer-events="none"><text text-anchor="start" transform="translate(16,9)" font-family="sans-serif" font-size="10px" fill="#000" opacity="1">Demand</text></g></g><path class="foreground" aria-hidden="true" d="" pointer-events="none" display="none"/></g></g></g><path class="foreground" aria-hidden="true" d="" pointer-events="none" display="none"/></g></g><g class="mark-text role-legend-title" pointer-events="none"><text text-anchor="start" transform="translate(0,9)" font-family="sans-serif" font-size="11px" font-weight="bold" fill="#000" opacity="1">Resource_Type</text></g></g><path class="foreground" aria-hidden="true" d="" pointer-events="none" display="none"/></g></g><g class="mark-group role-title"><g transform="translate(422.5,-22)"><path class="background" aria-hidden="true" d="M0,0h0v0h0Z" pointer-events="none"/><g><g class="mark-text role-title-text" role="graphics-symbol" aria-roledescription="title" aria-label="Title text 'Resource Capacity per Hour with Load Demand Curve, all Zones'" pointer-events="none"><text text-anchor="middle" transform="translate(0,10)" font-family="sans-serif" font-size="13px" font-weight="bold" fill="#000" opacity="1">Resource Capacity per Hour with Load Demand Curve, all Zones</text></g></g><path class="foreground" aria-hidden="true" d="" pointer-events="none" display="none"/></g></g></g><path class="foreground" aria-hidden="true" d="" display="none"/></g></g></g></svg>