<svg version="1.1" id="Layer_1" xmlns="http://www.w3.org/2000/svg" xmlns:xlink="http://www.w3.org/1999/xlink" x="0px" y="0px"
	 width="100%" viewBox="0 0 2307 692" enable-background="new 0 0 2307 692" xml:space="preserve">
<path fill="#FFFFFF" opacity="1.000000" stroke="none" 
	d="
M1466.000000,693.000000 
	C977.333313,693.000000 489.166656,693.000000 1.000000,693.000000 
	C1.000000,462.333344 1.000000,231.666672 1.000000,1.000000 
	C770.000000,1.000000 1539.000000,1.000000 2308.000000,1.000000 
	C2308.000000,231.666672 2308.000000,462.333344 2308.000000,693.000000 
	C2027.500000,693.000000 1747.000000,693.000000 1466.000000,693.000000 
M1368.867065,418.145508 
	C1367.155396,417.714844 1365.364990,417.478882 1363.744751,416.822449 
	C1352.062744,412.088837 1340.100586,411.146606 1328.111938,415.016449 
	C1309.009888,421.182495 1296.695435,434.190216 1292.395142,453.812012 
	C1288.043579,473.667328 1293.817505,491.004578 1309.093140,504.249634 
	C1325.368286,518.361389 1344.429199,521.303528 1364.100220,512.653992 
	C1383.906128,503.945099 1394.873657,488.153473 1395.033936,466.120148 
	C1395.086060,458.940552 1393.206665,451.746948 1392.771484,444.155090 
	C1416.724854,417.976990 1440.678223,391.798920 1464.493164,365.772034 
	C1476.465698,378.098450 1487.317505,390.567810 1499.519775,401.534760 
	C1518.539795,418.629181 1538.476318,434.704010 1558.046631,452.035736 
	C1558.062378,452.366394 1558.146362,452.710541 1558.084229,453.025787 
	C1550.147095,493.200836 1583.891724,525.294739 1623.377075,515.116760 
	C1648.767822,508.571930 1665.911011,480.324860 1660.115112,454.583344 
	C1653.787354,426.479553 1627.032837,407.795349 1600.337769,413.621277 
	C1592.388672,415.356049 1584.957886,419.464813 1576.720337,422.021057 
	C1544.349976,397.835510 1515.028931,370.413605 1488.664429,339.642761 
	C1489.642822,338.422058 1490.314331,337.481262 1491.088013,336.633820 
	C1524.630127,299.895172 1558.204224,263.185699 1591.711060,226.414871 
	C1598.058960,219.448593 1604.143799,212.242462 1611.099609,205.281723 
	C1612.861328,205.648361 1614.681030,205.842346 1616.375244,206.410522 
	C1625.304443,209.405182 1634.379395,209.621735 1643.475952,207.629303 
	C1669.507935,201.927582 1687.649902,175.905121 1683.889771,150.188889 
	C1679.593384,120.805412 1654.522095,102.398087 1627.734009,104.763176 
	C1591.907837,107.926239 1570.111206,143.949951 1583.979614,177.212982 
	C1584.597900,178.696075 1584.744873,180.375748 1584.448486,182.167770 
	C1583.468506,183.498245 1582.600098,184.930573 1581.492188,186.144302 
	C1550.207153,220.420700 1518.901489,254.678223 1487.589722,288.930298 
	C1480.673950,296.495453 1473.723145,304.028625 1466.161133,312.259430 
	C1457.769897,299.759521 1449.625732,288.027283 1441.895386,276.028412 
	C1425.739624,250.951767 1412.495117,224.334381 1401.019287,196.330765 
	C1401.622070,195.553970 1402.155884,194.710037 1402.837524,194.010178 
	C1419.171753,177.238968 1423.104614,154.243149 1413.317383,133.703201 
	C1405.125977,116.512505 1384.825195,101.970428 1359.822388,104.850258 
	C1325.795410,108.769508 1304.335449,145.877594 1318.531738,177.421356 
	C1328.157227,198.808472 1345.554932,208.572968 1368.727295,209.860718 
	C1386.944824,254.217224 1410.549072,295.513245 1439.529175,333.696930 
	C1442.314941,337.367493 1441.695435,339.285675 1438.936279,342.285461 
	C1415.758057,367.485016 1392.717773,392.811493 1368.867065,418.145508 
M390.498505,448.194214 
	C366.356750,454.422302 342.007507,454.702515 317.707123,449.747803 
	C258.692078,437.715057 207.943832,384.960663 205.964233,319.492432 
	C204.373505,266.884949 225.537292,225.621384 269.712921,198.334106 
	C320.158966,167.173630 372.565857,169.967712 424.116760,197.379410 
	C440.230499,205.947739 453.832001,218.042313 466.489685,231.031158 
	C484.437195,212.729797 502.221527,194.594833 520.287659,176.172516 
	C505.128784,159.566666 487.764587,143.761688 467.303589,131.934967 
	C415.295837,101.873795 359.168854,95.196053 300.736572,104.815903 
	C255.525269,112.259148 217.399597,133.499634 185.967743,166.815292 
	C157.221252,197.284637 138.119995,232.746429 131.383377,274.276550 
	C123.762123,321.260223 129.519958,366.513794 150.677048,409.472168 
	C176.045715,460.981964 215.633347,496.557465 270.071442,515.087891 
	C306.502838,527.489014 343.977264,529.977234 382.010437,525.043030 
	C422.937531,519.733337 458.938019,503.518250 488.159058,474.238403 
	C527.443909,434.874542 548.755920,387.237366 550.404846,331.307281 
	C550.602600,324.600861 549.844421,317.866302 549.530151,311.162964 
	C548.020752,311.036591 547.366089,310.933838 546.711365,310.933777 
	C481.045441,310.926819 415.379456,310.961884 349.713745,310.843933 
	C345.724823,310.836792 345.096283,312.337219 345.118561,315.831085 
	C345.253540,336.996643 345.178986,358.163513 345.198883,379.329926 
	C345.200226,380.756439 345.401367,382.182770 345.541809,384.033142 
	C384.579803,384.033142 423.146790,384.033142 462.490295,384.033142 
	C447.370911,415.794922 425.298676,438.504974 390.498505,448.194214 
M599.149597,385.375854 
	C600.061462,391.463379 600.654724,397.618774 601.935364,403.627716 
	C612.596741,453.652679 641.375488,489.529266 687.610901,510.928436 
	C718.075378,525.028259 750.519470,526.988464 783.482178,523.450500 
	C813.279480,520.252197 840.499512,510.563721 863.894836,491.327606 
	C875.245789,481.994537 885.035034,471.251801 893.605408,458.876556 
	C892.899902,458.391144 892.525574,458.050232 892.087646,457.844330 
	C872.226440,448.508240 852.385315,439.128265 832.433289,429.990204 
	C831.174133,429.413513 828.562500,430.196716 827.393921,431.250122 
	C802.645325,453.559814 773.669556,461.688812 740.968628,457.016022 
	C712.802368,452.991211 691.785034,438.622040 679.090393,412.863800 
	C675.446106,405.469360 672.859863,397.672577 671.968567,388.730896 
	C752.787842,388.730896 832.987427,388.730896 913.462952,388.730896 
	C914.015320,370.861145 913.757690,353.613220 910.665771,336.490448 
	C903.402222,296.265930 884.484985,262.898163 851.295654,238.655243 
	C810.959167,209.191727 765.307434,203.215515 717.621277,212.864502 
	C670.739624,222.350723 637.233398,250.750107 615.349121,292.725494 
	C600.386475,321.424713 596.740112,352.487091 599.149597,385.375854 
M974.213562,218.834793 
	C974.213562,318.114471 974.213562,417.394165 974.213562,516.945557 
	C999.530762,516.945557 1024.272217,516.945557 1049.697144,516.945557 
	C1049.697144,514.737427 1049.686401,512.793335 1049.698608,510.849335 
	C1050.020020,459.202484 1050.152832,407.553375 1050.768066,355.910004 
	C1050.992310,337.085938 1055.793945,319.287109 1066.920776,303.731384 
	C1079.840210,285.669312 1097.424438,276.995209 1119.759766,278.415344 
	C1142.314697,279.849457 1159.434326,296.333435 1162.246704,321.468933 
	C1164.481323,341.440491 1165.533203,361.620697 1165.767944,381.723969 
	C1166.275879,425.216553 1165.973389,468.719330 1165.836426,512.217468 
	C1165.824097,516.153748 1166.814575,517.346497 1170.852905,517.309631 
	C1192.516968,517.111877 1214.184082,517.181946 1235.849731,517.255493 
	C1238.866577,517.265747 1240.787109,517.126709 1240.771729,513.124573 
	C1240.509644,444.472809 1240.626465,375.818604 1240.081787,307.169525 
	C1239.920776,286.896942 1235.272095,267.171143 1222.935791,250.651474 
	C1198.410400,217.809326 1164.719971,205.572784 1124.627930,209.847961 
	C1099.967285,212.477615 1079.135132,224.063309 1059.903442,238.984909 
	C1056.815430,241.380859 1053.725708,243.774490 1049.700439,246.895050 
	C1049.700439,237.627319 1049.505127,229.534210 1049.785645,221.457596 
	C1049.919067,217.614273 1048.592529,216.691071 1044.927734,216.716721 
	C1022.929565,216.870651 1000.929688,216.772095 978.930664,216.842270 
	C977.409424,216.847122 975.890442,217.533478 974.213562,218.834793 
M1955.821411,465.500031 
	C1955.821411,382.752777 1955.821411,300.005493 1955.821411,217.157928 
	C1930.390137,217.157928 1905.678101,217.157928 1880.500732,217.157928 
	C1880.500732,219.322647 1880.500732,221.125626 1880.500732,222.928589 
	C1880.501343,325.233917 1880.524780,427.539246 1880.445679,529.844482 
	C1880.440918,535.983582 1879.953979,542.169739 1879.100342,548.251038 
	C1877.207764,561.733826 1870.924316,569.388489 1859.224365,571.347534 
	C1853.615723,572.286621 1847.526367,572.017395 1841.924927,570.918335 
	C1834.857666,569.531738 1828.066162,566.738953 1821.131714,564.545227 
	C1820.987671,564.784058 1820.679199,565.057373 1820.678223,565.331787 
	C1820.613403,583.822327 1820.521362,602.313293 1820.653931,620.802673 
	C1820.662354,621.967834 1822.219482,623.782043 1823.424194,624.180420 
	C1844.570435,631.172180 1866.067017,636.515259 1888.574829,633.970947 
	C1913.455933,631.158203 1933.029541,619.890686 1944.755127,596.883789 
	C1952.118530,582.436157 1954.579102,566.755249 1955.033447,550.941223 
	C1955.841919,522.809875 1955.615112,494.648743 1955.821411,465.500031 
M2081.495605,517.213318 
	C2086.420654,517.213318 2091.345947,517.213318 2096.389648,517.213318 
	C2096.389648,378.097168 2096.389648,239.696671 2096.389648,101.252151 
	C2071.145508,101.252151 2046.235840,101.252151 2021.234131,101.252151 
	C2021.234131,239.974121 2021.234131,378.357147 2021.234131,517.213318 
	C2041.236084,517.213318 2060.866943,517.213318 2081.495605,517.213318 
M1917.571411,191.162811 
	C1946.305542,190.953171 1966.875977,169.959183 1966.562866,140.738388 
	C1966.363647,122.135925 1957.479004,108.105881 1941.550781,99.161934 
	C1925.904785,90.376427 1909.545532,90.604858 1893.896606,99.513412 
	C1874.986572,110.278351 1866.120239,132.026917 1871.430420,153.667664 
	C1876.220581,173.189621 1893.821411,190.347198 1917.571411,191.162811 
M1737.181152,448.666504 
	C1728.549072,456.235535 1723.328247,465.611450 1722.447876,477.147583 
	C1721.048340,495.488129 1728.375122,509.594055 1743.975464,519.070129 
	C1758.464478,527.871277 1777.941406,526.690613 1791.069580,516.854004 
	C1805.670776,505.914093 1812.354736,488.219757 1808.204346,471.493500 
	C1800.359497,439.878143 1763.490356,427.696747 1737.181152,448.666504 
z"/>
<path fill="#020202" opacity="1.000000" stroke="none" 
	d="
M390.882629,448.064514 
	C425.298676,438.504974 447.370911,415.794922 462.490295,384.033142 
	C423.146790,384.033142 384.579803,384.033142 345.541809,384.033142 
	C345.401367,382.182770 345.200226,380.756439 345.198883,379.329926 
	C345.178986,358.163513 345.253540,336.996643 345.118561,315.831085 
	C345.096283,312.337219 345.724823,310.836792 349.713745,310.843933 
	C415.379456,310.961884 481.045441,310.926819 546.711365,310.933777 
	C547.366089,310.933838 548.020752,311.036591 549.530151,311.162964 
	C549.844421,317.866302 550.602600,324.600861 550.404846,331.307281 
	C548.755920,387.237366 527.443909,434.874542 488.159058,474.238403 
	C458.938019,503.518250 422.937531,519.733337 382.010437,525.043030 
	C343.977264,529.977234 306.502838,527.489014 270.071442,515.087891 
	C215.633347,496.557465 176.045715,460.981964 150.677048,409.472168 
	C129.519958,366.513794 123.762123,321.260223 131.383377,274.276550 
	C138.119995,232.746429 157.221252,197.284637 185.967743,166.815292 
	C217.399597,133.499634 255.525269,112.259148 300.736572,104.815903 
	C359.168854,95.196053 415.295837,101.873795 467.303589,131.934967 
	C487.764587,143.761688 505.128784,159.566666 520.287659,176.172516 
	C502.221527,194.594833 484.437195,212.729797 466.489685,231.031158 
	C453.832001,218.042313 440.230499,205.947739 424.116760,197.379410 
	C372.565857,169.967712 320.158966,167.173630 269.712921,198.334106 
	C225.537292,225.621384 204.373505,266.884949 205.964233,319.492432 
	C207.943832,384.960663 258.692078,437.715057 317.707123,449.747803 
	C342.007507,454.702515 366.356750,454.422302 390.882629,448.064514 
z"/>
<path fill="#020202" opacity="1.000000" stroke="none" 
	d="
M599.144531,384.908081 
	C596.740112,352.487091 600.386475,321.424713 615.349121,292.725494 
	C637.233398,250.750107 670.739624,222.350723 717.621277,212.864502 
	C765.307434,203.215515 810.959167,209.191727 851.295654,238.655243 
	C884.484985,262.898163 903.402222,296.265930 910.665771,336.490448 
	C913.757690,353.613220 914.015320,370.861145 913.462952,388.730896 
	C832.987427,388.730896 752.787842,388.730896 671.968567,388.730896 
	C672.859863,397.672577 675.446106,405.469360 679.090393,412.863800 
	C691.785034,438.622040 712.802368,452.991211 740.968628,457.016022 
	C773.669556,461.688812 802.645325,453.559814 827.393921,431.250122 
	C828.562500,430.196716 831.174133,429.413513 832.433289,429.990204 
	C852.385315,439.128265 872.226440,448.508240 892.087646,457.844330 
	C892.525574,458.050232 892.899902,458.391144 893.605408,458.876556 
	C885.035034,471.251801 875.245789,481.994537 863.894836,491.327606 
	C840.499512,510.563721 813.279480,520.252197 783.482178,523.450500 
	C750.519470,526.988464 718.075378,525.028259 687.610901,510.928436 
	C641.375488,489.529266 612.596741,453.652679 601.935364,403.627716 
	C600.654724,397.618774 600.061462,391.463379 599.144531,384.908081 
M727.365417,277.730286 
	C701.518311,285.979309 685.636353,304.234528 675.573975,328.952545 
	C729.715759,328.952545 783.368774,328.952545 837.343628,328.952545 
	C837.038818,327.564697 836.933472,326.584320 836.609375,325.682556 
	C829.100952,304.792938 814.739014,290.123291 794.864014,280.920502 
	C773.180908,270.880554 750.757629,270.837982 727.365417,277.730286 
z"/>
<path fill="#020202" opacity="1.000000" stroke="none" 
	d="
M974.291992,218.368851 
	C975.890442,217.533478 977.409424,216.847122 978.930664,216.842270 
	C1000.929688,216.772095 1022.929565,216.870651 1044.927734,216.716721 
	C1048.592529,216.691071 1049.919067,217.614273 1049.785645,221.457596 
	C1049.505127,229.534210 1049.700439,237.627319 1049.700439,246.895050 
	C1053.725708,243.774490 1056.815430,241.380859 1059.903442,238.984909 
	C1079.135132,224.063309 1099.967285,212.477615 1124.627930,209.847961 
	C1164.719971,205.572784 1198.410400,217.809326 1222.935791,250.651474 
	C1235.272095,267.171143 1239.920776,286.896942 1240.081787,307.169525 
	C1240.626465,375.818604 1240.509644,444.472809 1240.771729,513.124573 
	C1240.787109,517.126709 1238.866577,517.265747 1235.849731,517.255493 
	C1214.184082,517.181946 1192.516968,517.111877 1170.852905,517.309631 
	C1166.814575,517.346497 1165.824097,516.153748 1165.836426,512.217468 
	C1165.973389,468.719330 1166.275879,425.216553 1165.767944,381.723969 
	C1165.533203,361.620697 1164.481323,341.440491 1162.246704,321.468933 
	C1159.434326,296.333435 1142.314697,279.849457 1119.759766,278.415344 
	C1097.424438,276.995209 1079.840210,285.669312 1066.920776,303.731384 
	C1055.793945,319.287109 1050.992310,337.085938 1050.768066,355.910004 
	C1050.152832,407.553375 1050.020020,459.202484 1049.698608,510.849335 
	C1049.686401,512.793335 1049.697144,514.737427 1049.697144,516.945557 
	C1024.272217,516.945557 999.530762,516.945557 974.213562,516.945557 
	C974.213562,417.394165 974.213562,318.114471 974.291992,218.368851 
z"/>
<path fill="#020202" opacity="1.000000" stroke="none" 
	d="
M1955.821411,466.000061 
	C1955.615112,494.648743 1955.841919,522.809875 1955.033447,550.941223 
	C1954.579102,566.755249 1952.118530,582.436157 1944.755127,596.883789 
	C1933.029541,619.890686 1913.455933,631.158203 1888.574829,633.970947 
	C1866.067017,636.515259 1844.570435,631.172180 1823.424194,624.180420 
	C1822.219482,623.782043 1820.662354,621.967834 1820.653931,620.802673 
	C1820.521362,602.313293 1820.613403,583.822327 1820.678223,565.331787 
	C1820.679199,565.057373 1820.987671,564.784058 1821.131714,564.545227 
	C1828.066162,566.738953 1834.857666,569.531738 1841.924927,570.918335 
	C1847.526367,572.017395 1853.615723,572.286621 1859.224365,571.347534 
	C1870.924316,569.388489 1877.207764,561.733826 1879.100342,548.251038 
	C1879.953979,542.169739 1880.440918,535.983582 1880.445679,529.844482 
	C1880.524780,427.539246 1880.501343,325.233917 1880.500732,222.928589 
	C1880.500732,221.125626 1880.500732,219.322647 1880.500732,217.157928 
	C1905.678101,217.157928 1930.390137,217.157928 1955.821411,217.157928 
	C1955.821411,300.005493 1955.821411,382.752777 1955.821411,466.000061 
z"/>
<path fill="#020202" opacity="1.000000" stroke="none" 
	d="
M2080.996582,517.213318 
	C2060.866943,517.213318 2041.236084,517.213318 2021.234131,517.213318 
	C2021.234131,378.357147 2021.234131,239.974121 2021.234131,101.252151 
	C2046.235840,101.252151 2071.145508,101.252151 2096.389648,101.252151 
	C2096.389648,239.696671 2096.389648,378.097168 2096.389648,517.213318 
	C2091.345947,517.213318 2086.420654,517.213318 2080.996582,517.213318 
z"/>
<path fill="#030303" opacity="1.000000" stroke="none" 
	d="
M1610.349976,205.147034 
	C1604.143799,212.242462 1598.058960,219.448593 1591.711060,226.414871 
	C1558.204224,263.185699 1524.630127,299.895172 1491.088013,336.633820 
	C1490.314331,337.481262 1489.642822,338.422058 1488.664429,339.642761 
	C1515.028931,370.413605 1544.349976,397.835510 1576.830933,422.524933 
	C1574.984985,425.034790 1572.608032,426.776489 1571.149658,429.095764 
	C1566.588257,436.350311 1562.373535,443.822784 1558.024536,451.210876 
	C1538.476318,434.704010 1518.539795,418.629181 1499.519775,401.534760 
	C1487.317505,390.567810 1476.465698,378.098450 1464.493164,365.772034 
	C1440.678223,391.798920 1416.724854,417.976990 1392.193726,444.126648 
	C1386.415894,434.769470 1380.368774,426.203461 1370.914429,420.596558 
	C1370.234009,420.193054 1370.050415,418.951569 1369.635864,418.099731 
	C1392.717773,392.811493 1415.758057,367.485016 1438.936279,342.285461 
	C1441.695435,339.285675 1442.314941,337.367493 1439.529175,333.696930 
	C1410.549072,295.513245 1386.944824,254.217224 1369.083008,209.414490 
	C1374.531128,207.758392 1379.834839,207.088074 1384.660278,205.197159 
	C1390.238159,203.011368 1395.395020,199.750610 1400.734619,196.956573 
	C1412.495117,224.334381 1425.739624,250.951767 1441.895386,276.028412 
	C1449.625732,288.027283 1457.769897,299.759521 1466.161133,312.259430 
	C1473.723145,304.028625 1480.673950,296.495453 1487.589722,288.930298 
	C1518.901489,254.678223 1550.207153,220.420700 1581.492188,186.144302 
	C1582.600098,184.930573 1583.468506,183.498245 1585.052246,182.251862 
	C1590.949341,187.915588 1596.086548,193.656326 1601.605835,199.002625 
	C1604.133057,201.450745 1607.411865,203.122971 1610.349976,205.147034 
z"/>
<path fill="#399847" opacity="1.000000" stroke="none" 
	d="
M1400.876953,196.643677 
	C1395.395020,199.750610 1390.238159,203.011368 1384.660278,205.197159 
	C1379.834839,207.088074 1374.531128,207.758392 1369.014404,209.036987 
	C1345.554932,208.572968 1328.157227,198.808472 1318.531738,177.421356 
	C1304.335449,145.877594 1325.795410,108.769508 1359.822388,104.850258 
	C1384.825195,101.970428 1405.125977,116.512505 1413.317383,133.703201 
	C1423.104614,154.243149 1419.171753,177.238968 1402.837524,194.010178 
	C1402.155884,194.710037 1401.622070,195.553970 1400.876953,196.643677 
z"/>
<path fill="#CA3E33" opacity="1.000000" stroke="none" 
	d="
M1558.035645,451.623291 
	C1562.373535,443.822784 1566.588257,436.350311 1571.149658,429.095764 
	C1572.608032,426.776489 1574.984985,425.034790 1577.115479,422.757324 
	C1584.957886,419.464813 1592.388672,415.356049 1600.337769,413.621277 
	C1627.032837,407.795349 1653.787354,426.479553 1660.115112,454.583344 
	C1665.911011,480.324860 1648.767822,508.571930 1623.377075,515.116760 
	C1583.891724,525.294739 1550.147095,493.200836 1558.084229,453.025787 
	C1558.146362,452.710541 1558.062378,452.366394 1558.035645,451.623291 
z"/>
<path fill="#4E65AF" opacity="1.000000" stroke="none" 
	d="
M1369.251465,418.122620 
	C1370.050415,418.951569 1370.234009,420.193054 1370.914429,420.596558 
	C1380.368774,426.203461 1386.415894,434.769470 1391.913330,444.328979 
	C1393.206665,451.746948 1395.086060,458.940552 1395.033936,466.120148 
	C1394.873657,488.153473 1383.906128,503.945099 1364.100220,512.653992 
	C1344.429199,521.303528 1325.368286,518.361389 1309.093140,504.249634 
	C1293.817505,491.004578 1288.043579,473.667328 1292.395142,453.812012 
	C1296.695435,434.190216 1309.009888,421.182495 1328.111938,415.016449 
	C1340.100586,411.146606 1352.062744,412.088837 1363.744751,416.822449 
	C1365.364990,417.478882 1367.155396,417.714844 1369.251465,418.122620 
z"/>
<path fill="#945AA3" opacity="1.000000" stroke="none" 
	d="
M1610.724854,205.214386 
	C1607.411865,203.122971 1604.133057,201.450745 1601.605835,199.002625 
	C1596.086548,193.656326 1590.949341,187.915588 1585.383789,182.149902 
	C1584.744873,180.375748 1584.597900,178.696075 1583.979614,177.212982 
	C1570.111206,143.949951 1591.907837,107.926239 1627.734009,104.763176 
	C1654.522095,102.398087 1679.593384,120.805412 1683.889771,150.188889 
	C1687.649902,175.905121 1669.507935,201.927582 1643.475952,207.629303 
	C1634.379395,209.621735 1625.304443,209.405182 1616.375244,206.410522 
	C1614.681030,205.842346 1612.861328,205.648361 1610.724854,205.214386 
z"/>
<path fill="#030303" opacity="1.000000" stroke="none" 
	d="
M1917.095703,191.153152 
	C1893.821411,190.347198 1876.220581,173.189621 1871.430420,153.667664 
	C1866.120239,132.026917 1874.986572,110.278351 1893.896606,99.513412 
	C1909.545532,90.604858 1925.904785,90.376427 1941.550781,99.161934 
	C1957.479004,108.105881 1966.363647,122.135925 1966.562866,140.738388 
	C1966.875977,169.959183 1946.305542,190.953171 1917.095703,191.153152 
z"/>
<path fill="#030303" opacity="1.000000" stroke="none" 
	d="
M1737.451416,448.436401 
	C1763.490356,427.696747 1800.359497,439.878143 1808.204346,471.493500 
	C1812.354736,488.219757 1805.670776,505.914093 1791.069580,516.854004 
	C1777.941406,526.690613 1758.464478,527.871277 1743.975464,519.070129 
	C1728.375122,509.594055 1721.048340,495.488129 1722.447876,477.147583 
	C1723.328247,465.611450 1728.549072,456.235535 1737.451416,448.436401 
z"/>
<path fill="#FCFCFC" opacity="1.000000" stroke="none" 
	d="
M727.727539,277.560974 
	C750.757629,270.837982 773.180908,270.880554 794.864014,280.920502 
	C814.739014,290.123291 829.100952,304.792938 836.609375,325.682556 
	C836.933472,326.584320 837.038818,327.564697 837.343628,328.952545 
	C783.368774,328.952545 729.715759,328.952545 675.573975,328.952545 
	C685.636353,304.234528 701.518311,285.979309 727.727539,277.560974 
z"/>
</svg>