<svg xmlns="http://www.w3.org/2000/svg" xmlns:xlink="http://www.w3.org/1999/xlink" version="1.1" class="marks" width="971" height="477" viewBox="0 0 971 477"><rect width="971" height="477" fill="white"/><g fill="none" stroke-miterlimit="10" transform="translate(53,27)"><g class="mark-group role-frame root" role="graphics-object" aria-roledescription="group mark container"><g transform="translate(0,0)"><path class="background" aria-hidden="true" d="M0.5,0.5h845v400h-845Z" stroke="#ddd"/><g><g class="mark-group role-axis" aria-hidden="true"><g transform="translate(0.5,0.5)"><path class="background" aria-hidden="true" d="M0,0h0v0h0Z" pointer-events="none"/><g><g class="mark-rule role-axis-grid" pointer-events="none"><line transform="translate(0,400)" x2="845" y2="0" stroke="#ddd" stroke-width="1" opacity="1"/><line transform="translate(0,350)" x2="845" y2="0" stroke="#ddd" stroke-width="1" opacity="1"/><line transform="translate(0,300)" x2="845" y2="0" stroke="#ddd" stroke-width="1" opacity="1"/><line transform="translate(0,250)" x2="845" y2="0" stroke="#ddd" stroke-width="1" opacity="1"/><line transform="translate(0,200)" x2="845" y2="0" stroke="#ddd" stroke-width="1" opacity="1"/><line transform="translate(0,150)" x2="845" y2="0" stroke="#ddd" stroke-width="1" opacity="1"/><line transform="translate(0,100)" x2="845" y2="0" stroke="#ddd" stroke-width="1" opacity="1"/><line transform="translate(0,50)" x2="845" y2="0" stroke="#ddd" stroke-width="1" opacity="1"/><line transform="translate(0,0)" x2="845" y2="0" stroke="#ddd" stroke-width="1" opacity="1"/></g></g><path class="foreground" aria-hidden="true" d="" pointer-events="none" display="none"/></g></g><g class="mark-group role-axis" role="graphics-symbol" aria-roledescription="axis" aria-label="X-axis titled 'Time Step (hours)' for a discrete scale with 1031 values: 467, 468, 469, 470, 471, ending with 1497"><g transform="translate(0.5,400.5)"><path class="background" aria-hidden="true" d="M0,0h0v0h0Z" pointer-events="none"/><g><g class="mark-rule role-axis-tick" pointer-events="none"><line transform="translate(3,0)" x2="0" y2="5" stroke="#888" stroke-width="1" opacity="1"/><line transform="translate(23,0)" x2="0" y2="5" stroke="#888" stroke-width="1" opacity="1"/><line transform="translate(42,0)" x2="0" y2="5" stroke="#888" stroke-width="1" opacity="1"/><line transform="translate(62,0)" x2="0" y2="5" stroke="#888" stroke-width="1" opacity="1"/><line transform="translate(82,0)" x2="0" y2="5" stroke="#888" stroke-width="1" opacity="1"/><line transform="translate(101,0)" x2="0" y2="5" stroke="#888" stroke-width="1" opacity="1"/><line transform="translate(121,0)" x2="0" y2="5" stroke="#888" stroke-width="1" opacity="1"/><line transform="translate(141,0)" x2="0" y2="5" stroke="#888" stroke-width="1" opacity="1"/><line transform="translate(160,0)" x2="0" y2="5" stroke="#888" stroke-width="1" opacity="1"/><line transform="translate(180,0)" x2="0" y2="5" stroke="#888" stroke-width="1" opacity="1"/><line transform="translate(200,0)" x2="0" y2="5" stroke="#888" stroke-width="1" opacity="1"/><line transform="translate(219,0)" x2="0" y2="5" stroke="#888" stroke-width="1" opacity="1"/><line transform="translate(239,0)" x2="0" y2="5" stroke="#888" stroke-width="1" opacity="1"/><line transform="translate(259,0)" x2="0" y2="5" stroke="#888" stroke-width="1" opacity="1"/><line transform="translate(278,0)" x2="0" y2="5" stroke="#888" stroke-width="1" opacity="1"/><line transform="translate(298,0)" x2="0" y2="5" stroke="#888" stroke-width="1" opacity="1"/><line transform="translate(318,0)" x2="0" y2="5" stroke="#888" stroke-width="1" opacity="1"/><line transform="translate(337,0)" x2="0" y2="5" stroke="#888" stroke-width="1" opacity="1"/><line transform="translate(357,0)" x2="0" y2="5" stroke="#888" stroke-width="1" opacity="1"/><line transform="translate(377,0)" x2="0" y2="5" stroke="#888" stroke-width="1" opacity="1"/><line transform="translate(396,0)" x2="0" y2="5" stroke="#888" stroke-width="1" opacity="1"/><line transform="translate(416,0)" x2="0" y2="5" stroke="#888" stroke-width="1" opacity="1"/><line transform="translate(436,0)" x2="0" y2="5" stroke="#888" stroke-width="1" opacity="1"/><line transform="translate(455,0)" x2="0" y2="5" stroke="#888" stroke-width="1" opacity="1"/><line transform="translate(475,0)" x2="0" y2="5" stroke="#888" stroke-width="1" opacity="1"/><line transform="translate(495,0)" x2="0" y2="5" stroke="#888" stroke-width="1" opacity="1"/><line transform="translate(514,0)" x2="0" y2="5" stroke="#888" stroke-width="1" opacity="1"/><line transform="translate(534,0)" x2="0" y2="5" stroke="#888" stroke-width="1" opacity="1"/><line transform="translate(554,0)" x2="0" y2="5" stroke="#888" stroke-width="1" opacity="1"/><line transform="translate(573,0)" x2="0" y2="5" stroke="#888" stroke-width="1" opacity="1"/><line transform="translate(593,0)" x2="0" y2="5" stroke="#888" stroke-width="1" opacity="1"/><line transform="translate(613,0)" x2="0" y2="5" stroke="#888" stroke-width="1" opacity="1"/><line transform="translate(632,0)" x2="0" y2="5" stroke="#888" stroke-width="1" opacity="1"/><line transform="translate(652,0)" x2="0" y2="5" stroke="#888" stroke-width="1" opacity="1"/><line transform="translate(672,0)" x2="0" y2="5" stroke="#888" stroke-width="1" opacity="1"/><line transform="translate(691,0)" x2="0" y2="5" stroke="#888" stroke-width="1" opacity="1"/><line transform="translate(711,0)" x2="0" y2="5" stroke="#888" stroke-width="1" opacity="1"/><line transform="translate(731,0)" x2="0" y2="5" stroke="#888" stroke-width="1" opacity="1"/><line transform="translate(750,0)" x2="0" y2="5" stroke="#888" stroke-width="1" opacity="1"/><line transform="translate(770,0)" x2="0" y2="5" stroke="#888" stroke-width="1" opacity="1"/><line transform="translate(790,0)" x2="0" y2="5" stroke="#888" stroke-width="1" opacity="1"/><line transform="translate(809,0)" x2="0" y2="5" stroke="#888" stroke-width="1" opacity="1"/><line transform="translate(829,0)" x2="0" y2="5" stroke="#888" stroke-width="1" opacity="1"/></g><g class="mark-text role-axis-label" pointer-events="none"><text text-anchor="end" transform="translate(2.868574199806029,7) rotate(270) translate(0,3)" font-family="sans-serif" font-size="10px" fill="#000" opacity="1">470</text><text text-anchor="end" transform="translate(22.53879728419012,7) rotate(270) translate(0,3)" font-family="sans-serif" font-size="10px" fill="#000" opacity="1">494</text><text text-anchor="end" transform="translate(42.209020368574215,7) rotate(270) translate(0,3)" font-family="sans-serif" font-size="10px" fill="#000" opacity="1">518</text><text text-anchor="end" transform="translate(61.879243452958306,7) rotate(270) translate(0,3)" font-family="sans-serif" font-size="10px" fill="#000" opacity="1">542</text><text text-anchor="end" transform="translate(81.5494665373424,7) rotate(270) translate(0,3)" font-family="sans-serif" font-size="10px" fill="#000" opacity="1">566</text><text text-anchor="end" transform="translate(101.2196896217265,7) rotate(270) translate(0,3)" font-family="sans-serif" font-size="10px" fill="#000" opacity="1">590</text><text text-anchor="end" transform="translate(120.8899127061106,7) rotate(270) translate(0,3)" font-family="sans-serif" font-size="10px" fill="#000" opacity="1">614</text><text text-anchor="end" transform="translate(140.56013579049468,7) rotate(270) translate(0,3)" font-family="sans-serif" font-size="10px" fill="#000" opacity="1">638</text><text text-anchor="end" transform="translate(160.2303588748788,7) rotate(270) translate(0,3)" font-family="sans-serif" font-size="10px" fill="#000" opacity="1">662</text><text text-anchor="end" transform="translate(179.90058195926287,7) rotate(270) translate(0,3)" font-family="sans-serif" font-size="10px" fill="#000" opacity="1">686</text><text text-anchor="end" transform="translate(199.57080504364697,7) rotate(270) translate(0,3)" font-family="sans-serif" font-size="10px" fill="#000" opacity="1">710</text><text text-anchor="end" transform="translate(219.24102812803105,7) rotate(270) translate(0,3)" font-family="sans-serif" font-size="10px" fill="#000" opacity="1">734</text><text text-anchor="end" transform="translate(238.91125121241515,7) rotate(270) translate(0,3)" font-family="sans-serif" font-size="10px" fill="#000" opacity="1">758</text><text text-anchor="end" transform="translate(258.58147429679923,7) rotate(270) translate(0,3)" font-family="sans-serif" font-size="10px" fill="#000" opacity="1">782</text><text text-anchor="end" transform="translate(278.25169738118336,7) rotate(270) translate(0,3)" font-family="sans-serif" font-size="10px" fill="#000" opacity="1">806</text><text text-anchor="end" transform="translate(297.92192046556744,7) rotate(270) translate(0,3)" font-family="sans-serif" font-size="10px" fill="#000" opacity="1">830</text><text text-anchor="end" transform="translate(317.5921435499515,7) rotate(270) translate(0,3)" font-family="sans-serif" font-size="10px" fill="#000" opacity="1">854</text><text text-anchor="end" transform="translate(337.2623666343356,7) rotate(270) translate(0,3)" font-family="sans-serif" font-size="10px" fill="#000" opacity="1">878</text><text text-anchor="end" transform="translate(356.9325897187197,7) rotate(270) translate(0,3)" font-family="sans-serif" font-size="10px" fill="#000" opacity="1">902</text><text text-anchor="end" transform="translate(376.6028128031038,7) rotate(270) translate(0,3)" font-family="sans-serif" font-size="10px" fill="#000" opacity="1">926</text><text text-anchor="end" transform="translate(396.2730358874879,7) rotate(270) translate(0,3)" font-family="sans-serif" font-size="10px" fill="#000" opacity="1">950</text><text text-anchor="end" transform="translate(415.943258971872,7) rotate(270) translate(0,3)" font-family="sans-serif" font-size="10px" fill="#000" opacity="1">974</text><text text-anchor="end" transform="translate(435.6134820562561,7) rotate(270) translate(0,3)" font-family="sans-serif" font-size="10px" fill="#000" opacity="1">998</text><text text-anchor="end" transform="translate(455.28370514064017,7) rotate(270) translate(0,3)" font-family="sans-serif" font-size="10px" fill="#000" opacity="1">1022</text><text text-anchor="end" transform="translate(474.9539282250243,7) rotate(270) translate(0,3)" font-family="sans-serif" font-size="10px" fill="#000" opacity="1">1046</text><text text-anchor="end" transform="translate(494.6241513094084,7) rotate(270) translate(0,3)" font-family="sans-serif" font-size="10px" fill="#000" opacity="1">1070</text><text text-anchor="end" transform="translate(514.2943743937924,7) rotate(270) translate(0,3)" font-family="sans-serif" font-size="10px" fill="#000" opacity="1">1094</text><text text-anchor="end" transform="translate(533.9645974781765,7) rotate(270) translate(0,3)" font-family="sans-serif" font-size="10px" fill="#000" opacity="1">1118</text><text text-anchor="end" transform="translate(553.6348205625607,7) rotate(270) translate(0,3)" font-family="sans-serif" font-size="10px" fill="#000" opacity="1">1142</text><text text-anchor="end" transform="translate(573.3050436469448,7) rotate(270) translate(0,3)" font-family="sans-serif" font-size="10px" fill="#000" opacity="1">1166</text><text text-anchor="end" transform="translate(592.9752667313289,7) rotate(270) translate(0,3)" font-family="sans-serif" font-size="10px" fill="#000" opacity="1">1190</text><text text-anchor="end" transform="translate(612.6454898157128,7) rotate(270) translate(0,3)" font-family="sans-serif" font-size="10px" fill="#000" opacity="1">1214</text><text text-anchor="end" transform="translate(632.315712900097,7) rotate(270) translate(0,3)" font-family="sans-serif" font-size="10px" fill="#000" opacity="1">1238</text><text text-anchor="end" transform="translate(651.9859359844811,7) rotate(270) translate(0,3)" font-family="sans-serif" font-size="10px" fill="#000" opacity="1">1262</text><text text-anchor="end" transform="translate(671.6561590688652,7) rotate(270) translate(0,3)" font-family="sans-serif" font-size="10px" fill="#000" opacity="1">1286</text><text text-anchor="end" transform="translate(691.3263821532494,7) rotate(270) translate(0,3)" font-family="sans-serif" font-size="10px" fill="#000" opacity="1">1310</text><text text-anchor="end" transform="translate(710.9966052376335,7) rotate(270) translate(0,3)" font-family="sans-serif" font-size="10px" fill="#000" opacity="1">1334</text><text text-anchor="end" transform="translate(730.6668283220174,7) rotate(270) translate(0,3)" font-family="sans-serif" font-size="10px" fill="#000" opacity="1">1358</text><text text-anchor="end" transform="translate(750.3370514064015,7) rotate(270) translate(0,3)" font-family="sans-serif" font-size="10px" fill="#000" opacity="1">1382</text><text text-anchor="end" transform="translate(770.0072744907857,7) rotate(270) translate(0,3)" font-family="sans-serif" font-size="10px" fill="#000" opacity="1">1406</text><text text-anchor="end" transform="translate(789.6774975751698,7) rotate(270) translate(0,3)" font-family="sans-serif" font-size="10px" fill="#000" opacity="1">1430</text><text text-anchor="end" transform="translate(809.3477206595539,7) rotate(270) translate(0,3)" font-family="sans-serif" font-size="10px" fill="#000" opacity="1">1454</text><text text-anchor="end" transform="translate(829.0179437439378,7) rotate(270) translate(0,3)" font-family="sans-serif" font-size="10px" fill="#000" opacity="1">1478</text></g><g class="mark-rule role-axis-domain" pointer-events="none"><line transform="translate(0,0)" x2="845" y2="0" stroke="#888" stroke-width="1" opacity="1"/></g><g class="mark-text role-axis-title" pointer-events="none"><text text-anchor="middle" transform="translate(422.5,42.24609375)" font-family="sans-serif" font-size="11px" font-weight="bold" fill="#000" opacity="1">Time Step (hours)</text></g></g><path class="foreground" aria-hidden="true" d="" pointer-events="none" display="none"/></g></g><g class="mark-group role-axis" role="graphics-symbol" aria-roledescription="axis" aria-label="Y-axis titled 'Emmissions (Tons)' for a linear scale with values from 0 to 4,000"><g transform="translate(0.5,0.5)"><path class="background" aria-hidden="true" d="M0,0h0v0h0Z" pointer-events="none"/><g><g class="mark-rule role-axis-tick" pointer-events="none"><line transform="translate(0,400)" x2="-5" y2="0" stroke="#888" stroke-width="1" opacity="1"/><line transform="translate(0,350)" x2="-5" y2="0" stroke="#888" stroke-width="1" opacity="1"/><line transform="translate(0,300)" x2="-5" y2="0" stroke="#888" stroke-width="1" opacity="1"/><line transform="translate(0,250)" x2="-5" y2="0" stroke="#888" stroke-width="1" opacity="1"/><line transform="translate(0,200)" x2="-5" y2="0" stroke="#888" stroke-width="1" opacity="1"/><line transform="translate(0,150)" x2="-5" y2="0" stroke="#888" stroke-width="1" opacity="1"/><line transform="translate(0,100)" x2="-5" y2="0" stroke="#888" stroke-width="1" opacity="1"/><line transform="translate(0,50)" x2="-5" y2="0" stroke="#888" stroke-width="1" opacity="1"/><line transform="translate(0,0)" x2="-5" y2="0" stroke="#888" stroke-width="1" opacity="1"/></g><g class="mark-text role-axis-label" pointer-events="none"><text text-anchor="end" transform="translate(-7,403)" font-family="sans-serif" font-size="10px" fill="#000" opacity="1">0</text><text text-anchor="end" transform="translate(-7,353)" font-family="sans-serif" font-size="10px" fill="#000" opacity="1">500</text><text text-anchor="end" transform="translate(-7,303)" font-family="sans-serif" font-size="10px" fill="#000" opacity="1">1,000</text><text text-anchor="end" transform="translate(-7,253)" font-family="sans-serif" font-size="10px" fill="#000" opacity="1">1,500</text><text text-anchor="end" transform="translate(-7,203)" font-family="sans-serif" font-size="10px" fill="#000" opacity="1">2,000</text><text text-anchor="end" transform="translate(-7,153)" font-family="sans-serif" font-size="10px" fill="#000" opacity="1">2,500</text><text text-anchor="end" transform="translate(-7,103)" font-family="sans-serif" font-size="10px" fill="#000" opacity="1">3,000</text><text text-anchor="end" transform="translate(-7,53)" font-family="sans-serif" font-size="10px" fill="#000" opacity="1">3,500</text><text text-anchor="end" transform="translate(-7,3)" font-family="sans-serif" font-size="10px" fill="#000" opacity="1">4,000</text></g><g class="mark-rule role-axis-domain" pointer-events="none"><line transform="translate(0,400)" x2="0" y2="-400" stroke="#888" stroke-width="1" opacity="1"/></g><g class="mark-text role-axis-title" pointer-events="none"><text text-anchor="middle" transform="translate(-36.0244140625,200) rotate(-90) translate(0,-2)" font-family="sans-serif" font-size="11px" font-weight="bold" fill="#000" opacity="1">Emmissions (Tons)</text></g></g><path class="foreground" aria-hidden="true" d="" pointer-events="none" display="none"/></g></g><g class="mark-group role-scope pathgroup" role="graphics-object" aria-roledescription="group mark container"><g transform="translate(0,0)"><path class="background" aria-hidden="true" d="M0,0h845v400h-845Z"/><g><g class="mark-line role-mark marks" role="graphics-object" aria-roledescription="line mark container"><path aria-label="Time Step (hours): 467; Emmissions (Tons): 0; Zone: Zone 1" role="graphics-symbol" aria-roledescription="line mark" d="M0.41,400L1.229,400L2.049,400L2.869,400L3.688,400L4.508,400L5.327,331.24L6.147,324.371L6.967,324.371L7.786,324.371L8.606,324.371L9.425,324.371L10.245,324.371L11.065,324.526L11.884,324.371L12.704,324.371L13.523,324.371L14.343,324.371L15.162,324.371L15.982,324.371L16.802,324.371L17.621,324.371L18.441,351.598L19.26,400L20.08,400L20.9,400L21.719,400L22.539,400L23.358,400L24.178,400L24.998,395.834L25.817,395.418L26.637,395.418L27.456,395.418L28.276,397.856L29.096,397.856L29.915,397.856L30.735,400L31.554,400L32.374,400L33.194,400L34.013,400L34.833,400L35.652,400L36.472,400L37.291,400L38.111,400L38.931,400L39.75,400L40.57,400L41.389,400L42.209,400L43.029,400L43.848,400L44.668,400L45.487,400L46.307,400L47.127,400L47.946,400L48.766,400L49.585,400L50.405,400L51.225,400L52.044,400L52.864,400L53.683,400L54.503,400L55.323,400L56.142,400L56.962,400L57.781,400L58.601,400L59.42,400L60.24,400L61.06,400L61.879,400L62.699,400L63.518,400L64.338,400L65.158,400L65.977,400L66.797,400L67.616,400L68.436,400L69.256,400L70.075,400L70.895,400L71.714,400L72.534,400L73.354,400L74.173,400L74.993,400L75.812,400L76.632,400L77.452,400L78.271,400L79.091,400L79.91,400L80.73,400L81.549,400L82.369,400L83.189,400L84.008,400L84.828,400L85.647,400L86.467,400L87.287,400L88.106,400L88.926,400L89.745,400L90.565,400L91.385,400L92.204,400L93.024,400L93.843,400L94.663,400L95.483,400L96.302,400L97.122,400L97.941,400L98.761,400L99.581,400L100.4,400L101.22,400L102.039,400L102.859,400L103.678,400L104.498,400L105.318,400L106.137,400L106.957,400L107.776,400L108.596,400L109.416,400L110.235,400L111.055,400L111.874,400L112.694,400L113.514,400L114.333,400L115.153,400L115.972,400L116.792,400L117.612,400L118.431,400L119.251,400L120.07,400L120.89,400L121.71,400L122.529,400L123.349,400L124.168,400L124.988,400L125.807,400L126.627,400L127.447,400L128.266,400L129.086,400L129.905,400L130.725,400L131.545,400L132.364,400L133.184,400L134.003,400L134.823,400L135.643,400L136.462,400L137.282,400L138.101,400L138.921,400L139.741,400L140.56,400L141.38,400L142.199,400L143.019,365.962L143.839,362.562L144.658,362.562L145.478,362.562L146.297,362.562L147.117,362.562L147.936,362.562L148.756,374.621L149.576,382.479L150.395,382.479L151.215,382.479L152.034,371.254L152.854,362.562L153.674,362.562L154.493,362.562L155.313,362.562L156.132,382.479L156.952,382.479L157.772,382.479L158.591,382.479L159.411,382.479L160.23,382.479L161.05,382.479L161.87,382.479L162.689,362.562L163.509,362.562L164.328,362.562L165.148,362.562L165.968,362.562L166.787,386.522L167.607,400L168.426,400L169.246,400L170.065,400L170.885,400L171.705,400L172.524,400L173.344,400L174.163,400L174.983,400L175.803,400L176.622,400L177.442,400L178.261,400L179.081,400L179.901,400L180.72,400L181.54,400L182.359,400L183.179,400L183.999,400L184.818,400L185.638,400L186.457,400L187.277,400L188.097,400L188.916,400L189.736,400L190.555,400L191.375,400L192.194,400L193.014,400L193.834,400L194.653,400L195.473,400L196.292,400L197.112,400L197.932,400L198.751,400L199.571,400L200.39,400L201.21,400L202.03,400L202.849,400L203.669,400L204.488,400L205.308,400L206.128,400L206.947,400L207.767,400L208.586,400L209.406,400L210.226,400L211.045,400L211.865,400L212.684,400L213.504,400L214.323,400L215.143,400L215.963,400L216.782,400L217.602,400L218.421,400L219.241,400L220.061,400L220.88,400L221.7,400L222.519,400L223.339,400L224.159,400L224.978,400L225.798,400L226.617,400L227.437,400L228.257,400L229.076,400L229.896,400L230.715,400L231.535,400L232.355,400L233.174,400L233.994,400L234.813,400L235.633,400L236.452,400L237.272,400L238.092,400L238.911,400L239.731,400L240.55,400L241.37,400L242.19,400L243.009,400L243.829,400L244.648,400L245.468,400L246.288,400L247.107,400L247.927,400L248.746,400L249.566,400L250.386,400L251.205,400L252.025,400L252.844,400L253.664,400L254.484,400L255.303,400L256.123,400L256.942,400L257.762,400L258.581,400L259.401,400L260.221,400L261.04,400L261.86,400L262.679,400L263.499,400L264.319,400L265.138,400L265.958,400L266.777,400L267.597,400L268.417,400L269.236,400L270.056,400L270.875,400L271.695,400L272.515,400L273.334,400L274.154,400L274.973,400L275.793,400L276.613,400L277.432,400L278.252,400L279.071,400L279.891,400L280.71,400L281.53,400L282.35,400L283.169,400L283.989,400L284.808,400L285.628,400L286.448,400L287.267,400L288.087,400L288.906,400L289.726,400L290.546,400L291.365,400L292.185,400L293.004,400L293.824,400L294.644,400L295.463,400L296.283,400L297.102,400L297.922,400L298.742,400L299.561,400L300.381,400L301.2,400L302.02,400L302.839,400L303.659,400L304.479,400L305.298,400L306.118,400L306.937,400L307.757,400L308.577,400L309.396,400L310.216,400L311.035,400L311.855,400L312.675,400L313.494,400L314.314,400L315.133,400L315.953,400L316.773,400L317.592,400L318.412,400L319.231,400L320.051,400L320.871,400L321.69,400L322.51,400L323.329,400L324.149,400L324.968,400L325.788,400L326.608,400L327.427,400L328.247,400L329.066,400L329.886,400L330.706,400L331.525,400L332.345,400L333.164,400L333.984,400L334.804,400L335.623,400L336.443,400L337.262,400L338.082,400L338.902,400L339.721,382.777L340.541,388.358L341.36,381.057L342.18,381.057L343,381.057L343.819,391.134L344.639,381.057L345.458,388.039L346.278,388.026L347.097,381.057L347.917,381.057L348.737,381.057L349.556,381.057L350.376,381.057L351.195,381.057L352.015,391.134L352.835,391.134L353.654,391.134L354.474,391.134L355.293,391.134L356.113,391.134L356.933,391.134L357.752,384.909L358.572,380.522L359.391,380.635L360.211,380.635L361.031,380.635L361.85,380.635L362.67,380.635L363.489,380.635L364.309,387.607L365.129,400L365.948,400L366.768,400L367.587,400L368.407,400L369.226,400L370.046,400L370.866,400L371.685,400L372.505,400L373.324,400L374.144,400L374.964,400L375.783,400L376.603,400L377.422,400L378.242,400L379.062,358.654L379.881,354.524L380.701,354.524L381.52,354.524L382.34,354.524L383.16,354.524L383.979,354.524L384.799,354.524L385.618,379.284L386.438,379.284L387.258,355.734L388.077,370.799L388.897,399.129L389.716,398.139L390.536,398.809L391.355,400L392.175,400L392.995,400L393.814,400L394.634,400L395.453,400L396.273,400L397.093,400L397.912,400L398.732,376.827L399.551,374.512L400.371,374.512L401.191,374.512L402.01,374.512L402.83,374.512L403.649,374.512L404.469,374.512L405.289,374.512L406.108,374.512L406.928,374.512L407.747,374.512L408.567,388.715L409.387,375.887L410.206,384.567L411.026,400L411.845,400L412.665,400L413.484,400L414.304,400L415.124,400L415.943,400L416.763,400L417.582,400L418.402,400L419.222,400L420.041,376.602L420.861,374.264L421.68,374.264L422.5,374.264L423.32,374.264L424.139,374.264L424.959,374.264L425.778,374.264L426.598,374.264L427.418,374.264L428.237,374.264L429.057,374.264L429.876,387.167L430.696,400L431.516,400L432.335,400L433.155,400L433.974,400L434.794,400L435.613,400L436.433,400L437.253,400L438.072,400L438.892,400L439.711,400L440.531,400L441.351,400L442.17,400L442.99,400L443.809,230.067L444.629,239.964L445.449,239.964L446.268,239.964L447.088,239.964L447.907,239.964L448.727,239.964L449.547,241.34L450.366,298.472L451.186,325.103L452.005,325.103L452.825,325.103L453.645,325.103L454.464,325.103L455.284,321.813L456.103,241.712L456.923,197.689L457.742,85.956L458.562,53.745L459.382,65.602L460.201,65.602L461.021,65.602L461.84,65.602L462.66,65.602L463.48,144.363L464.299,262.486L465.119,262.486L465.938,262.486L466.758,226.3L467.578,106.167L468.397,106.167L469.217,106.167L470.036,199.118L470.856,303.531L471.676,303.531L472.495,303.531L473.315,303.531L474.134,303.531L474.954,303.531L475.774,286.428L476.593,194.978L477.413,193.87L478.232,193.87L479.052,193.87L479.871,193.87L480.691,201.715L481.511,251.901L482.33,301.732L483.15,310.309L483.969,310.309L484.789,310.309L485.609,310.309L486.428,310.309L487.248,310.309L488.067,310.309L488.887,310.309L489.707,310.309L490.526,310.309L491.346,310.309L492.165,310.309L492.985,310.309L493.805,310.309L494.624,310.309L495.444,235.095L496.263,208.352L497.083,208.352L497.903,208.352L498.722,208.352L499.542,208.352L500.361,208.352L501.181,208.352L502,208.352L502.82,231.268L503.64,250.438L504.459,215.383L505.279,318.764L506.098,318.764L506.918,294.007L507.738,226.419L508.557,265.356L509.377,318.764L510.196,318.764L511.016,318.764L511.836,318.764L512.655,318.764L513.475,318.764L514.294,318.764L515.114,318.764L515.934,318.764L516.753,218.054L517.573,215.029L518.392,215.029L519.212,215.029L520.032,215.029L520.851,215.029L521.671,215.029L522.49,265.151L523.31,322.778L524.129,322.778L524.949,322.778L525.769,322.778L526.588,322.778L527.408,234.995L528.227,234.995L529.047,234.995L529.867,279.858L530.686,322.778L531.506,322.778L532.325,322.778L533.145,322.778L533.965,322.778L534.784,298.689L535.604,238.746L536.423,234.995L537.243,234.995L538.063,234.995L538.882,234.995L539.702,234.995L540.521,234.995L541.341,234.995L542.161,234.995L542.98,234.995L543.8,234.995L544.619,242.018L545.439,307.49L546.258,291.235L547.078,234.995L547.898,290.631L548.717,396.234L549.537,396.234L550.356,396.234L551.176,396.234L551.996,396.234L552.815,396.234L553.635,396.234L554.454,396.234L555.274,396.234L556.094,391.954L556.913,391.954L557.733,391.954L558.552,391.954L559.372,394.713L560.192,391.954L561.011,391.954L561.831,391.954L562.65,391.954L563.47,391.954L564.29,391.954L565.109,391.954L565.929,391.954L566.748,391.954L567.568,397.103L568.387,400L569.207,400L570.027,400L570.846,400L571.666,400L572.485,400L573.305,400L574.125,400L574.944,400L575.764,400L576.583,341.032L577.403,296.592L578.223,301.558L579.042,353.929L579.862,270.048L580.681,342.31L581.501,261.728L582.321,261.728L583.14,261.728L583.96,261.728L584.779,261.728L585.599,261.728L586.419,261.728L587.238,261.728L588.058,310.51L588.877,335.289L589.697,335.289L590.516,335.289L591.336,335.289L592.156,335.289L592.975,335.289L593.795,335.289L594.614,319.437L595.434,261.728L596.254,261.728L597.073,261.728L597.893,261.728L598.712,261.728L599.532,261.728L600.352,271.774L601.171,294.594L601.991,261.728L602.81,261.728L603.63,261.728L604.45,283.289L605.269,314.963L606.089,284.102L606.908,372.596L607.728,376.154L608.548,376.154L609.367,376.154L610.187,376.154L611.006,376.154L611.826,376.154L612.645,376.154L613.465,376.154L614.285,232.56L615.104,226.976L615.924,226.976L616.743,226.976L617.563,226.976L618.383,226.976L619.202,226.976L620.022,226.976L620.841,226.976L621.661,253.875L622.481,226.976L623.3,279.075L624.12,319.254L624.939,237.467L625.759,227.466L626.579,250.186L627.398,358.304L628.218,358.304L629.037,358.304L629.857,358.304L630.677,358.304L631.496,358.304L632.316,358.304L633.135,358.304L633.955,310.906L634.774,310.906L635.594,310.906L636.414,310.906L637.233,310.906L638.053,310.906L638.872,323.711L639.692,380.73L640.512,380.73L641.331,380.73L642.151,380.73L642.97,380.73L643.79,380.73L644.61,358.826L645.429,358.826L646.249,380.73L647.068,358.826L647.888,376.661L648.708,380.73L649.527,380.73L650.347,380.73L651.166,380.73L651.986,380.73L652.806,380.73L653.625,339.359L654.445,223.86L655.264,227.542L656.084,227.542L656.903,227.542L657.723,227.542L658.543,227.542L659.362,319.29L660.182,319.29L661.001,319.29L661.821,319.29L662.641,253.025L663.46,227.542L664.28,227.542L665.099,227.542L665.919,247.462L666.739,300.035L667.558,319.29L668.378,319.29L669.197,319.29L670.017,319.29L670.837,319.29L671.656,317.779L672.476,230.335L673.295,172.651L674.115,176.783L674.935,176.783L675.754,176.783L676.574,176.783L677.393,176.783L678.213,176.783L679.032,176.783L679.852,176.783L680.672,178.853L681.491,221.737L682.311,207.571L683.13,176.783L683.95,184.75L684.77,211.44L685.589,247.935L686.409,339.483L687.228,400L688.048,400L688.868,400L689.687,400L690.507,400L691.326,400L692.146,400L692.966,400L693.785,387.373L694.605,386.111L695.424,386.111L696.244,386.111L697.064,386.111L697.883,386.111L698.703,386.111L699.522,386.111L700.342,386.111L701.161,386.111L701.981,386.111L702.801,386.111L703.62,386.111L704.44,391.111L705.259,400L706.079,400L706.899,400L707.718,400L708.538,400L709.357,400L710.177,400L710.997,400L711.816,400L712.636,400L713.455,274.286L714.275,261.728L715.095,261.728L715.914,261.728L716.734,335.289L717.553,335.289L718.373,261.728L719.193,106.852L720.012,117.223L720.832,128.307L721.651,139.276L722.471,140.464L723.29,106.852L724.11,106.852L724.93,146.322L725.749,333.937L726.569,400L727.388,400L728.208,400L729.028,400L729.847,400L730.667,400L731.486,400L732.306,400L733.126,400L733.945,400L734.765,400L735.584,400L736.404,400L737.224,400L738.043,400L738.863,400L739.682,400L740.502,400L741.322,400L742.141,400L742.961,400L743.78,400L744.6,400L745.419,400L746.239,400L747.059,400L747.878,400L748.698,400L749.517,400L750.337,400L751.157,400L751.976,148.946L752.796,123.867L753.615,270.77L754.435,270.77L755.255,123.867L756.074,123.867L756.894,123.867L757.713,123.867L758.533,123.867L759.353,123.867L760.172,123.867L760.992,123.867L761.811,123.867L762.631,123.867L763.451,123.867L764.27,123.867L765.09,286.833L765.909,400L766.729,400L767.548,400L768.368,400L769.188,400L770.007,400L770.827,232.786L771.646,27.772L772.466,65.602L773.286,153.352L774.105,243.502L774.925,65.602L775.744,65.602L776.564,65.602L777.384,65.602L778.203,65.602L779.023,65.602L779.842,65.602L780.662,65.602L781.482,65.602L782.301,65.602L783.121,65.602L783.94,65.602L784.76,217.012L785.58,243.502L786.399,243.502L787.219,243.502L788.038,243.502L788.858,243.502L789.677,243.502L790.497,243.502L791.317,65.602L792.136,65.602L792.956,65.602L793.775,65.602L794.595,65.602L795.415,65.602L796.234,65.602L797.054,65.602L797.873,65.602L798.693,78.122L799.513,87.08L800.332,87.546L801.152,76.09L801.971,65.602L802.791,65.602L803.611,65.602L804.43,155.469L805.25,243.502L806.069,243.502L806.889,243.502L807.709,243.502L808.528,243.502L809.348,243.502L810.167,112.542L810.987,65.602L811.806,65.602L812.626,65.602L813.446,65.602L814.265,65.602L815.085,65.602L815.904,65.602L816.724,65.602L817.544,65.602L818.363,70.882L819.183,84.347L820.002,91.011L820.822,76.812L821.642,66.252L822.461,65.602L823.281,120.413L824.1,334.427L824.92,395.624L825.74,395.624L826.559,395.624L827.379,395.624L828.198,395.624L829.018,395.624L829.838,327.66L830.657,100.547L831.477,92.84L832.296,92.84L833.116,92.84L833.935,92.84L834.755,92.84L835.575,92.84L836.394,92.84L837.214,92.84L838.033,92.84L838.853,92.84L839.673,92.84L840.492,92.84L841.312,92.84L842.131,92.84L842.951,139.58L843.771,336.163L844.59,353.121" stroke="#4c78a8" stroke-width="2"/></g></g><path class="foreground" aria-hidden="true" d="" display="none"/></g><g transform="translate(0,0)"><path class="background" aria-hidden="true" d="M0,0h845v400h-845Z"/><g><g class="mark-line role-mark marks" role="graphics-object" aria-roledescription="line mark container"><path aria-label="Time Step (hours): 467; Emmissions (Tons): 0; Zone: Zone 2" role="graphics-symbol" aria-roledescription="line mark" d="M0.41,400L1.229,400L2.049,400L2.869,400L3.688,400L4.508,400L5.327,400L6.147,400L6.967,400L7.786,400L8.606,400L9.425,400L10.245,400L11.065,400L11.884,400L12.704,400L13.523,400L14.343,400L15.162,400L15.982,400L16.802,400L17.621,400L18.441,400L19.26,400L20.08,400L20.9,400L21.719,400L22.539,400L23.358,400L24.178,400L24.998,400L25.817,400L26.637,400L27.456,400L28.276,400L29.096,400L29.915,400L30.735,400L31.554,400L32.374,400L33.194,400L34.013,400L34.833,400L35.652,400L36.472,400L37.291,400L38.111,400L38.931,400L39.75,400L40.57,400L41.389,400L42.209,400L43.029,400L43.848,400L44.668,400L45.487,400L46.307,400L47.127,400L47.946,400L48.766,400L49.585,400L50.405,400L51.225,400L52.044,400L52.864,400L53.683,400L54.503,400L55.323,400L56.142,400L56.962,400L57.781,400L58.601,400L59.42,400L60.24,400L61.06,400L61.879,400L62.699,400L63.518,400L64.338,400L65.158,400L65.977,400L66.797,400L67.616,400L68.436,400L69.256,400L70.075,400L70.895,400L71.714,400L72.534,400L73.354,400L74.173,400L74.993,400L75.812,400L76.632,400L77.452,400L78.271,400L79.091,400L79.91,400L80.73,400L81.549,400L82.369,400L83.189,400L84.008,400L84.828,400L85.647,400L86.467,400L87.287,400L88.106,400L88.926,400L89.745,400L90.565,400L91.385,400L92.204,400L93.024,400L93.843,400L94.663,400L95.483,400L96.302,400L97.122,400L97.941,400L98.761,400L99.581,400L100.4,400L101.22,400L102.039,400L102.859,400L103.678,400L104.498,400L105.318,400L106.137,400L106.957,400L107.776,400L108.596,400L109.416,400L110.235,400L111.055,400L111.874,400L112.694,400L113.514,400L114.333,400L115.153,400L115.972,400L116.792,400L117.612,400L118.431,400L119.251,400L120.07,400L120.89,400L121.71,400L122.529,400L123.349,400L124.168,400L124.988,400L125.807,400L126.627,400L127.447,400L128.266,400L129.086,400L129.905,400L130.725,400L131.545,400L132.364,400L133.184,400L134.003,400L134.823,400L135.643,400L136.462,400L137.282,400L138.101,400L138.921,400L139.741,400L140.56,400L141.38,400L142.199,358.296L143.019,320.132L143.839,317.45L144.658,317.45L145.478,317.45L146.297,317.45L147.117,317.45L147.936,317.45L148.756,319.266L149.576,372.098L150.395,372.098L151.215,372.098L152.034,319.266L152.854,317.45L153.674,317.45L154.493,317.45L155.313,317.45L156.132,320.125L156.952,371.564L157.772,372.098L158.591,372.098L159.411,372.098L160.23,372.098L161.05,372.098L161.87,329.096L162.689,317.45L163.509,317.45L164.328,317.45L165.148,317.45L165.968,330.818L166.787,350.188L167.607,400L168.426,400L169.246,400L170.065,400L170.885,400L171.705,400L172.524,400L173.344,400L174.163,400L174.983,400L175.803,400L176.622,400L177.442,400L178.261,400L179.081,400L179.901,400L180.72,400L181.54,400L182.359,400L183.179,400L183.999,400L184.818,400L185.638,400L186.457,400L187.277,400L188.097,400L188.916,400L189.736,400L190.555,400L191.375,400L192.194,400L193.014,400L193.834,400L194.653,400L195.473,400L196.292,400L197.112,400L197.932,400L198.751,400L199.571,400L200.39,400L201.21,393.888L202.03,396.662L202.849,375.929L203.669,358.114L204.488,384.921L205.308,385.843L206.128,389.18L206.947,389.18L207.767,400L208.586,400L209.406,400L210.226,400L211.045,400L211.865,400L212.684,400L213.504,400L214.323,400L215.143,400L215.963,400L216.782,400L217.602,400L218.421,400L219.241,400L220.061,400L220.88,400L221.7,400L222.519,373.767L223.339,371.514L224.159,371.514L224.978,371.514L225.798,389.745L226.617,390.372L227.437,390.372L228.257,389.745L229.076,371.514L229.896,371.514L230.715,371.514L231.535,371.514L232.355,371.514L233.174,381.769L233.994,400L234.813,400L235.633,400L236.452,400L237.272,400L238.092,400L238.911,400L239.731,400L240.55,400L241.37,400L242.19,400L243.009,400L243.829,400L244.648,400L245.468,400L246.288,400L247.107,400L247.927,400L248.746,400L249.566,400L250.386,400L251.205,400L252.025,400L252.844,400L253.664,400L254.484,400L255.303,400L256.123,400L256.942,400L257.762,400L258.581,400L259.401,400L260.221,400L261.04,400L261.86,400L262.679,400L263.499,400L264.319,400L265.138,400L265.958,400L266.777,400L267.597,400L268.417,400L269.236,400L270.056,400L270.875,400L271.695,400L272.515,400L273.334,400L274.154,400L274.973,400L275.793,400L276.613,400L277.432,400L278.252,400L279.071,400L279.891,400L280.71,400L281.53,400L282.35,400L283.169,400L283.989,400L284.808,400L285.628,400L286.448,400L287.267,400L288.087,400L288.906,400L289.726,400L290.546,400L291.365,400L292.185,400L293.004,400L293.824,400L294.644,400L295.463,400L296.283,400L297.102,400L297.922,400L298.742,400L299.561,400L300.381,400L301.2,400L302.02,400L302.839,400L303.659,400L304.479,400L305.298,400L306.118,400L306.937,400L307.757,400L308.577,400L309.396,400L310.216,400L311.035,400L311.855,400L312.675,400L313.494,400L314.314,400L315.133,400L315.953,400L316.773,400L317.592,400L318.412,400L319.231,400L320.051,400L320.871,400L321.69,400L322.51,400L323.329,400L324.149,400L324.968,400L325.788,400L326.608,400L327.427,400L328.247,400L329.066,400L329.886,400L330.706,400L331.525,400L332.345,400L333.164,400L333.984,400L334.804,400L335.623,400L336.443,400L337.262,400L338.082,400L338.902,400L339.721,400L340.541,400L341.36,359.659L342.18,356.194L343,356.842L343.819,384.878L344.639,356.842L345.458,384.878L346.278,384.23L347.097,356.194L347.917,356.194L348.737,356.194L349.556,356.194L350.376,356.194L351.195,357.158L352.015,385.194L352.835,385.194L353.654,385.194L354.474,385.194L355.293,385.194L356.113,385.194L356.933,385.194L357.752,384.23L358.572,356.194L359.391,356.194L360.211,356.194L361.031,356.194L361.85,356.194L362.67,356.194L363.489,356.194L364.309,371.964L365.129,400L365.948,400L366.768,400L367.587,400L368.407,400L369.226,400L370.046,400L370.866,400L371.685,400L372.505,400L373.324,400L374.144,400L374.964,400L375.783,400L376.603,400L377.422,400L378.242,400L379.062,400L379.881,400L380.701,400L381.52,400L382.34,400L383.16,400L383.979,400L384.799,400L385.618,400L386.438,400L387.258,400L388.077,400L388.897,400L389.716,400L390.536,400L391.355,400L392.175,400L392.995,400L393.814,400L394.634,400L395.453,400L396.273,400L397.093,400L397.912,400L398.732,400L399.551,400L400.371,400L401.191,400L402.01,400L402.83,400L403.649,400L404.469,400L405.289,400L406.108,400L406.928,400L407.747,400L408.567,400L409.387,400L410.206,400L411.026,400L411.845,400L412.665,400L413.484,400L414.304,400L415.124,400L415.943,400L416.763,400L417.582,400L418.402,400L419.222,400L420.041,400L420.861,400L421.68,400L422.5,400L423.32,400L424.139,400L424.959,400L425.778,400L426.598,400L427.418,400L428.237,400L429.057,400L429.876,400L430.696,400L431.516,400L432.335,400L433.155,400L433.974,400L434.794,400L435.613,400L436.433,400L437.253,400L438.072,400L438.892,400L439.711,400L440.531,400L441.351,400L442.17,400L442.99,400L443.809,400L444.629,400L445.449,400L446.268,400L447.088,400L447.907,400L448.727,400L449.547,400L450.366,400L451.186,400L452.005,400L452.825,400L453.645,400L454.464,400L455.284,400L456.103,400L456.923,400L457.742,400L458.562,374.684L459.382,372.51L460.201,372.51L461.021,372.51L461.84,372.51L462.66,372.51L463.48,390.103L464.299,398.06L465.119,398.06L465.938,398.06L466.758,397.934L467.578,394.261L468.397,394.261L469.217,394.261L470.036,397.934L470.856,400L471.676,400L472.495,400L473.315,400L474.134,400L474.954,400L475.774,400L476.593,400L477.413,400L478.232,400L479.052,400L479.871,400L480.691,400L481.511,400L482.33,400L483.15,400L483.969,400L484.789,400L485.609,400L486.428,400L487.248,400L488.067,400L488.887,400L489.707,400L490.526,400L491.346,400L492.165,400L492.985,400L493.805,400L494.624,400L495.444,371.572L496.263,338.376L497.083,345.12L497.903,345.12L498.722,345.12L499.542,345.12L500.361,345.12L501.181,345.12L502,345.12L502.82,380.243L503.64,381.451L504.459,381.451L505.279,381.451L506.098,381.451L506.918,381.451L507.738,381.451L508.557,381.451L509.377,381.451L510.196,381.451L511.016,381.451L511.836,381.451L512.655,381.451L513.475,381.451L514.294,381.451L515.114,381.451L515.934,381.451L516.753,381.451L517.573,372.739L518.392,381.451L519.212,370.282L520.032,309.677L520.851,370.282L521.671,372.098L522.49,372.098L523.31,372.098L524.129,372.098L524.949,372.098L525.769,372.098L526.588,372.098L527.408,319.266L528.227,317.45L529.047,317.45L529.867,370.282L530.686,372.098L531.506,372.098L532.325,372.098L533.145,372.098L533.965,372.098L534.784,372.098L535.604,370.282L536.423,317.45L537.243,317.45L538.063,317.45L538.882,317.45L539.702,317.45L540.521,317.45L541.341,317.45L542.161,317.45L542.98,317.45L543.8,322.991L544.619,372.098L545.439,372.098L546.258,372.098L547.078,359.38L547.898,367.916L548.717,372.098L549.537,372.098L550.356,372.098L551.176,372.098L551.996,372.098L552.815,372.098L553.635,372.098L554.454,372.098L555.274,372.098L556.094,319.266L556.913,317.45L557.733,331.306L558.552,372.098L559.372,370.282L560.192,317.45L561.011,317.45L561.831,317.45L562.65,325.416L563.47,317.45L564.29,317.45L565.109,317.45L565.929,317.45L566.748,340.95L567.568,393.782L568.387,400L569.207,400L570.027,400L570.846,400L571.666,400L572.485,400L573.305,400L574.125,400L574.944,400L575.764,400L576.583,400L577.403,400L578.223,400L579.042,400L579.862,400L580.681,400L581.501,346.167L582.321,346.167L583.14,346.167L583.96,346.167L584.779,346.167L585.599,346.167L586.419,346.167L587.238,346.167L588.058,380.62L588.877,381.804L589.697,381.804L590.516,381.804L591.336,381.804L592.156,381.804L592.975,381.804L593.795,381.804L594.614,380.62L595.434,346.167L596.254,346.167L597.073,346.167L597.893,346.167L598.712,346.167L599.532,346.167L600.352,380.62L601.171,380.62L601.991,346.167L602.81,346.167L603.63,346.167L604.45,380.62L605.269,381.804L606.089,365.547L606.908,400L607.728,400L608.548,400L609.367,400L610.187,400L611.006,400L611.826,400L612.645,400L613.465,400L614.285,350.335L615.104,309.411L615.924,317.45L616.743,317.45L617.563,317.45L618.383,317.45L619.202,317.45L620.022,317.45L620.841,338.256L621.661,372.098L622.481,360.971L623.3,372.098L624.12,372.098L624.939,372.098L625.759,341.738L626.579,372.098L627.398,372.098L628.218,372.098L629.037,372.098L629.857,372.098L630.677,372.098L631.496,372.098L632.316,372.098L633.135,372.098L633.955,338.055L634.774,317.45L635.594,317.45L636.414,317.45L637.233,317.45L638.053,317.45L638.872,330.041L639.692,372.098L640.512,372.098L641.331,372.098L642.151,372.098L642.97,372.098L643.79,372.098L644.61,319.266L645.429,319.266L646.249,372.098L647.068,337.819L647.888,372.098L648.708,372.098L649.527,372.098L650.347,372.098L651.166,372.098L651.986,372.098L652.806,372.098L653.625,372.098L654.445,319.266L655.264,317.45L656.084,317.45L656.903,317.45L657.723,317.45L658.543,319.266L659.362,372.098L660.182,372.098L661.001,372.098L661.821,372.098L662.641,370.282L663.46,317.45L664.28,317.45L665.099,317.45L665.919,370.282L666.739,372.098L667.558,372.098L668.378,372.098L669.197,372.098L670.017,372.098L670.837,372.098L671.656,372.098L672.476,372.098L673.295,370.282L674.115,317.45L674.935,317.45L675.754,317.45L676.574,317.45L677.393,317.45L678.213,317.45L679.032,317.45L679.852,340.402L680.672,372.098L681.491,372.098L682.311,372.098L683.13,361.058L683.95,326.059L684.77,338.264L685.589,372.098L686.409,372.098L687.228,372.098L688.048,372.098L688.868,372.098L689.687,372.098L690.507,372.098L691.326,372.098L692.146,372.098L692.966,372.098L693.785,368.79L694.605,317.45L695.424,317.45L696.244,317.45L697.064,317.45L697.883,317.45L698.703,317.45L699.522,317.45L700.342,317.45L701.161,317.45L701.981,317.45L702.801,317.45L703.62,317.45L704.44,328.972L705.259,381.804L706.079,381.804L706.899,381.804L707.718,381.804L708.538,381.804L709.357,381.804L710.177,381.804L710.997,381.804L711.816,381.804L712.636,381.804L713.455,347.351L714.275,346.167L715.095,346.167L715.914,355.834L716.734,381.804L717.553,381.804L718.373,347.351L719.193,358.538L720.012,358.538L720.832,358.538L721.651,358.538L722.471,358.538L723.29,358.538L724.11,358.538L724.93,373.464L725.749,400L726.569,400L727.388,400L728.208,400L729.028,400L729.847,400L730.667,400L731.486,400L732.306,400L733.126,400L733.945,400L734.765,400L735.584,400L736.404,400L737.224,400L738.043,400L738.863,400L739.682,400L740.502,400L741.322,400L742.141,400L742.961,400L743.78,400L744.6,400L745.419,400L746.239,400L747.059,400L747.878,400L748.698,400L749.517,400L750.337,400L751.157,400L751.976,400L752.796,400L753.615,400L754.435,400L755.255,400L756.074,400L756.894,400L757.713,400L758.533,400L759.353,400L760.172,400L760.992,400L761.811,400L762.631,400L763.451,400L764.27,400L765.09,400L765.909,400L766.729,400L767.548,400L768.368,400L769.188,400L770.007,400L770.827,400L771.646,400L772.466,400L773.286,400L774.105,400L774.925,359.173L775.744,355.667L776.564,355.667L777.384,355.667L778.203,355.667L779.023,355.667L779.842,355.667L780.662,355.667L781.482,355.667L782.301,355.667L783.121,355.667L783.94,355.667L784.76,384.04L785.58,385.015L786.399,385.015L787.219,385.015L788.038,385.015L788.858,385.015L789.677,385.015L790.497,385.015L791.317,334.902L792.136,332.059L792.956,332.059L793.775,332.059L794.595,332.059L795.415,332.059L796.234,332.059L797.054,332.059L797.873,332.059L798.693,332.059L799.513,332.059L800.332,332.059L801.152,332.059L801.971,332.059L802.791,332.059L803.611,332.059L804.43,375.541L805.25,383.51L806.069,383.51L806.889,383.51L807.709,383.51L808.528,383.51L809.348,383.51L810.167,382.437L810.987,351.214L811.806,351.214L812.626,351.214L813.446,351.214L814.265,351.214L815.085,351.214L815.904,351.214L816.724,351.214L817.544,351.214L818.363,351.214L819.183,351.214L820.002,351.214L820.822,351.214L821.642,351.214L822.461,351.214L823.281,354.763L824.1,385.986L824.92,385.986L825.74,385.986L826.559,385.986L827.379,385.986L828.198,385.986L829.018,385.986L829.838,385.986L830.657,359.45L831.477,358.538L832.296,358.538L833.116,358.538L833.935,358.538L834.755,358.538L835.575,358.538L836.394,358.538L837.214,358.538L838.033,358.538L838.853,358.538L839.673,358.538L840.492,358.538L841.312,358.538L842.131,358.538L842.951,359.45L843.771,385.986L844.59,385.986" stroke="#f58518" stroke-width="2"/></g></g><path class="foreground" aria-hidden="true" d="" display="none"/></g><g transform="translate(0,0)"><path class="background" aria-hidden="true" d="M0,0h845v400h-845Z"/><g><g class="mark-line role-mark marks" role="graphics-object" aria-roledescription="line mark container"><path aria-label="Time Step (hours): 467; Emmissions (Tons): 0; Zone: Zone 3" role="graphics-symbol" aria-roledescription="line mark" d="M0.41,400L1.229,400L2.049,400L2.869,400L3.688,400L4.508,400L5.327,400L6.147,400L6.967,400L7.786,400L8.606,400L9.425,400L10.245,400L11.065,400L11.884,400L12.704,400L13.523,400L14.343,400L15.162,400L15.982,400L16.802,400L17.621,400L18.441,400L19.26,400L20.08,400L20.9,400L21.719,400L22.539,400L23.358,400L24.178,400L24.998,400L25.817,400L26.637,400L27.456,400L28.276,400L29.096,400L29.915,400L30.735,400L31.554,400L32.374,400L33.194,400L34.013,400L34.833,400L35.652,400L36.472,400L37.291,400L38.111,400L38.931,400L39.75,400L40.57,400L41.389,400L42.209,400L43.029,400L43.848,400L44.668,400L45.487,400L46.307,400L47.127,400L47.946,400L48.766,400L49.585,400L50.405,400L51.225,400L52.044,400L52.864,400L53.683,400L54.503,400L55.323,400L56.142,400L56.962,400L57.781,400L58.601,400L59.42,400L60.24,400L61.06,400L61.879,400L62.699,400L63.518,400L64.338,400L65.158,400L65.977,400L66.797,400L67.616,400L68.436,400L69.256,400L70.075,400L70.895,400L71.714,400L72.534,400L73.354,400L74.173,400L74.993,400L75.812,400L76.632,400L77.452,400L78.271,400L79.091,400L79.91,400L80.73,400L81.549,400L82.369,400L83.189,400L84.008,400L84.828,400L85.647,400L86.467,400L87.287,400L88.106,400L88.926,400L89.745,400L90.565,400L91.385,400L92.204,400L93.024,400L93.843,400L94.663,400L95.483,400L96.302,400L97.122,400L97.941,400L98.761,400L99.581,400L100.4,400L101.22,400L102.039,400L102.859,400L103.678,400L104.498,400L105.318,400L106.137,400L106.957,400L107.776,400L108.596,400L109.416,400L110.235,400L111.055,400L111.874,400L112.694,400L113.514,400L114.333,400L115.153,400L115.972,400L116.792,400L117.612,400L118.431,400L119.251,400L120.07,400L120.89,400L121.71,400L122.529,400L123.349,400L124.168,400L124.988,400L125.807,400L126.627,400L127.447,400L128.266,400L129.086,400L129.905,400L130.725,400L131.545,400L132.364,400L133.184,400L134.003,400L134.823,400L135.643,400L136.462,400L137.282,400L138.101,400L138.921,400L139.741,400L140.56,400L141.38,400L142.199,400L143.019,400L143.839,400L144.658,400L145.478,400L146.297,400L147.117,400L147.936,400L148.756,400L149.576,400L150.395,400L151.215,400L152.034,400L152.854,400L153.674,400L154.493,400L155.313,400L156.132,400L156.952,400L157.772,400L158.591,400L159.411,400L160.23,400L161.05,400L161.87,400L162.689,400L163.509,400L164.328,400L165.148,400L165.968,400L166.787,400L167.607,400L168.426,400L169.246,400L170.065,400L170.885,400L171.705,400L172.524,400L173.344,400L174.163,400L174.983,400L175.803,400L176.622,400L177.442,400L178.261,400L179.081,400L179.901,400L180.72,400L181.54,400L182.359,400L183.179,400L183.999,400L184.818,400L185.638,400L186.457,400L187.277,400L188.097,400L188.916,400L189.736,400L190.555,400L191.375,400L192.194,400L193.014,400L193.834,400L194.653,400L195.473,400L196.292,400L197.112,400L197.932,400L198.751,400L199.571,400L200.39,400L201.21,400L202.03,400L202.849,400L203.669,400L204.488,400L205.308,400L206.128,400L206.947,400L207.767,400L208.586,400L209.406,400L210.226,400L211.045,400L211.865,400L212.684,400L213.504,400L214.323,400L215.143,400L215.963,400L216.782,400L217.602,400L218.421,400L219.241,400L220.061,400L220.88,400L221.7,400L222.519,400L223.339,400L224.159,400L224.978,400L225.798,400L226.617,400L227.437,400L228.257,400L229.076,400L229.896,400L230.715,400L231.535,400L232.355,400L233.174,400L233.994,400L234.813,400L235.633,400L236.452,400L237.272,400L238.092,400L238.911,400L239.731,400L240.55,400L241.37,400L242.19,400L243.009,400L243.829,400L244.648,400L245.468,400L246.288,400L247.107,400L247.927,400L248.746,400L249.566,400L250.386,400L251.205,400L252.025,400L252.844,400L253.664,400L254.484,400L255.303,400L256.123,400L256.942,400L257.762,400L258.581,400L259.401,400L260.221,400L261.04,400L261.86,400L262.679,400L263.499,400L264.319,400L265.138,400L265.958,400L266.777,400L267.597,400L268.417,400L269.236,400L270.056,400L270.875,400L271.695,400L272.515,400L273.334,400L274.154,400L274.973,400L275.793,400L276.613,400L277.432,400L278.252,400L279.071,400L279.891,400L280.71,400L281.53,400L282.35,400L283.169,400L283.989,400L284.808,400L285.628,400L286.448,400L287.267,400L288.087,400L288.906,400L289.726,400L290.546,400L291.365,400L292.185,400L293.004,400L293.824,400L294.644,400L295.463,400L296.283,400L297.102,400L297.922,400L298.742,400L299.561,400L300.381,400L301.2,400L302.02,400L302.839,400L303.659,400L304.479,400L305.298,400L306.118,400L306.937,400L307.757,400L308.577,400L309.396,400L310.216,400L311.035,400L311.855,400L312.675,400L313.494,400L314.314,400L315.133,400L315.953,400L316.773,400L317.592,400L318.412,400L319.231,400L320.051,400L320.871,400L321.69,400L322.51,400L323.329,400L324.149,400L324.968,400L325.788,400L326.608,400L327.427,400L328.247,400L329.066,400L329.886,400L330.706,400L331.525,400L332.345,400L333.164,400L333.984,400L334.804,400L335.623,400L336.443,400L337.262,400L338.082,400L338.902,400L339.721,400L340.541,400L341.36,400L342.18,400L343,400L343.819,400L344.639,400L345.458,400L346.278,400L347.097,400L347.917,400L348.737,400L349.556,400L350.376,400L351.195,400L352.015,400L352.835,400L353.654,400L354.474,400L355.293,400L356.113,400L356.933,400L357.752,400L358.572,400L359.391,400L360.211,400L361.031,400L361.85,400L362.67,400L363.489,400L364.309,400L365.129,400L365.948,400L366.768,400L367.587,400L368.407,400L369.226,400L370.046,400L370.866,400L371.685,400L372.505,400L373.324,400L374.144,400L374.964,400L375.783,400L376.603,400L377.422,400L378.242,400L379.062,400L379.881,400L380.701,400L381.52,400L382.34,400L383.16,400L383.979,400L384.799,400L385.618,400L386.438,400L387.258,400L388.077,400L388.897,400L389.716,400L390.536,400L391.355,400L392.175,400L392.995,400L393.814,400L394.634,400L395.453,400L396.273,400L397.093,400L397.912,400L398.732,371.195L399.551,363.925L400.371,363.925L401.191,363.925L402.01,363.925L402.83,363.925L403.649,363.925L404.469,363.925L405.289,381.229L406.108,382.9L406.928,382.9L407.747,363.925L408.567,382.9L409.387,363.925L410.206,376.912L411.026,400L411.845,400L412.665,400L413.484,400L414.304,400L415.124,400L415.943,400L416.763,400L417.582,400L418.402,394.697L419.222,396.852L420.041,369.099L420.861,363.925L421.68,382.9L422.5,370.54L423.32,364.993L424.139,363.925L424.959,363.925L425.778,363.925L426.598,363.925L427.418,363.925L428.237,363.925L429.057,363.925L429.876,376.912L430.696,400L431.516,400L432.335,400L433.155,400L433.974,400L434.794,400L435.613,400L436.433,400L437.253,400L438.072,400L438.892,400L439.711,400L440.531,400L441.351,400L442.17,400L442.99,400L443.809,371.195L444.629,363.925L445.449,363.925L446.268,363.925L447.088,363.925L447.907,363.925L448.727,363.925L449.547,363.925L450.366,363.925L451.186,374.16L452.005,382.9L452.825,382.9L453.645,382.9L454.464,382.9L455.284,363.925L456.103,363.925L456.923,363.925L457.742,363.925L458.562,363.925L459.382,363.925L460.201,363.925L461.021,363.925L461.84,363.925L462.66,363.925L463.48,363.925L464.299,382.9L465.119,382.9L465.938,382.9L466.758,363.925L467.578,363.925L468.397,363.925L469.217,363.925L470.036,363.925L470.856,382.9L471.676,382.9L472.495,382.9L473.315,382.9L474.134,382.9L474.954,382.9L475.774,363.925L476.593,363.925L477.413,363.925L478.232,363.925L479.052,363.925L479.871,371.991L480.691,395.079L481.511,400L482.33,400L483.15,400L483.969,400L484.789,400L485.609,400L486.428,400L487.248,400L488.067,400L488.887,400L489.707,400L490.526,400L491.346,400L492.165,400L492.985,400L493.805,400L494.624,400L495.444,400L496.263,400L497.083,400L497.903,400L498.722,400L499.542,400L500.361,400L501.181,400L502,400L502.82,400L503.64,400L504.459,400L505.279,400L506.098,400L506.918,400L507.738,400L508.557,400L509.377,400L510.196,400L511.016,400L511.836,400L512.655,400L513.475,400L514.294,400L515.114,400L515.934,400L516.753,400L517.573,400L518.392,400L519.212,400L520.032,400L520.851,400L521.671,400L522.49,400L523.31,400L524.129,400L524.949,400L525.769,400L526.588,400L527.408,371.195L528.227,363.925L529.047,363.925L529.867,363.925L530.686,382.9L531.506,382.9L532.325,382.9L533.145,382.9L533.965,382.9L534.784,363.925L535.604,363.925L536.423,363.925L537.243,363.925L538.063,363.925L538.882,363.925L539.702,363.925L540.521,363.925L541.341,363.925L542.161,363.925L542.98,363.925L543.8,363.925L544.619,363.925L545.439,363.925L546.258,363.925L547.078,363.925L547.898,376.912L548.717,400L549.537,400L550.356,400L551.176,400L551.996,400L552.815,400L553.635,400L554.454,400L555.274,400L556.094,400L556.913,400L557.733,400L558.552,400L559.372,400L560.192,400L561.011,400L561.831,400L562.65,400L563.47,400L564.29,400L565.109,400L565.929,400L566.748,400L567.568,400L568.387,400L569.207,400L570.027,400L570.846,400L571.666,400L572.485,400L573.305,400L574.125,400L574.944,400L575.764,400L576.583,400L577.403,400L578.223,400L579.042,400L579.862,400L580.681,400L581.501,371.195L582.321,363.925L583.14,363.925L583.96,363.925L584.779,363.925L585.599,363.925L586.419,363.925L587.238,363.925L588.058,363.925L588.877,382.9L589.697,382.9L590.516,382.9L591.336,382.9L592.156,382.9L592.975,382.9L593.795,382.9L594.614,363.925L595.434,363.925L596.254,363.925L597.073,382.9L597.893,368.632L598.712,363.925L599.532,363.925L600.352,363.925L601.171,363.925L601.991,363.925L602.81,363.925L603.63,363.925L604.45,363.925L605.269,363.925L606.089,363.925L606.908,382.9L607.728,382.9L608.548,382.9L609.367,382.9L610.187,382.9L611.006,382.9L611.826,382.9L612.645,382.9L613.465,375.423L614.285,363.925L615.104,363.925L615.924,363.925L616.743,363.925L617.563,363.925L618.383,363.925L619.202,363.925L620.022,363.925L620.841,363.925L621.661,363.925L622.481,363.925L623.3,363.925L624.12,363.925L624.939,363.925L625.759,363.925L626.579,363.925L627.398,373.824L628.218,382.9L629.037,382.9L629.857,382.9L630.677,382.9L631.496,382.9L632.316,382.9L633.135,382.9L633.955,363.925L634.774,363.925L635.594,363.925L636.414,376.912L637.233,400L638.053,400L638.872,400L639.692,400L640.512,400L641.331,400L642.151,400L642.97,400L643.79,400L644.61,400L645.429,400L646.249,400L647.068,400L647.888,400L648.708,400L649.527,400L650.347,400L651.166,400L651.986,400L652.806,400L653.625,400L654.445,400L655.264,400L656.084,400L656.903,400L657.723,400L658.543,400L659.362,400L660.182,400L661.001,400L661.821,400L662.641,371.195L663.46,363.925L664.28,363.925L665.099,363.925L665.919,363.925L666.739,363.925L667.558,382.9L668.378,382.9L669.197,382.9L670.017,382.9L670.837,382.9L671.656,363.925L672.476,363.925L673.295,363.925L674.115,363.925L674.935,363.925L675.754,363.925L676.574,363.925L677.393,363.925L678.213,363.925L679.032,363.925L679.852,363.925L680.672,363.925L681.491,363.925L682.311,363.925L683.13,363.925L683.95,363.925L684.77,363.925L685.589,363.925L686.409,372.683L687.228,395.771L688.048,400L688.868,400L689.687,400L690.507,400L691.326,400L692.146,400L692.966,400L693.785,400L694.605,400L695.424,400L696.244,400L697.064,400L697.883,400L698.703,400L699.522,400L700.342,400L701.161,400L701.981,400L702.801,400L703.62,400L704.44,400L705.259,400L706.079,400L706.899,400L707.718,400L708.538,400L709.357,400L710.177,400L710.997,400L711.816,400L712.636,400L713.455,400L714.275,400L715.095,400L715.914,400L716.734,400L717.553,400L718.373,400L719.193,363.925L720.012,371.367L720.832,376.084L721.651,374.402L722.471,369.519L723.29,363.925L724.11,363.925L724.93,363.925L725.749,387.013L726.569,400L727.388,400L728.208,400L729.028,400L729.847,400L730.667,400L731.486,400L732.306,400L733.126,400L733.945,400L734.765,400L735.584,400L736.404,400L737.224,400L738.043,400L738.863,400L739.682,400L740.502,400L741.322,400L742.141,400L742.961,400L743.78,400L744.6,400L745.419,400L746.239,400L747.059,400L747.878,400L748.698,400L749.517,400L750.337,400L751.157,400L751.976,400L752.796,400L753.615,400L754.435,400L755.255,390.376L756.074,387.947L756.894,387.947L757.713,387.947L758.533,387.947L759.353,387.947L760.172,387.947L760.992,387.947L761.811,387.947L762.631,387.947L763.451,387.947L764.27,387.947L765.09,392.286L765.909,400L766.729,400L767.548,400L768.368,400L769.188,400L770.007,400L770.827,389.751L771.646,377.85L772.466,378.663L773.286,389.886L774.105,389.886L774.925,364.463L775.744,363.925L776.564,363.925L777.384,363.925L778.203,363.925L779.023,363.925L779.842,363.925L780.662,363.925L781.482,363.925L782.301,363.925L783.121,363.925L783.94,363.925L784.76,363.925L785.58,382.9L786.399,382.9L787.219,382.9L788.038,382.9L788.858,382.9L789.677,382.9L790.497,382.9L791.317,363.925L792.136,363.925L792.956,363.925L793.775,363.925L794.595,363.925L795.415,363.925L796.234,363.925L797.054,363.925L797.873,363.925L798.693,363.925L799.513,363.925L800.332,363.925L801.152,363.925L801.971,363.925L802.791,363.925L803.611,363.925L804.43,363.925L805.25,382.9L806.069,382.9L806.889,382.9L807.709,382.9L808.528,382.9L809.348,382.9L810.167,363.925L810.987,363.925L811.806,363.925L812.626,363.925L813.446,363.925L814.265,363.925L815.085,363.925L815.904,363.925L816.724,363.925L817.544,363.925L818.363,363.925L819.183,363.925L820.002,369.081L820.822,363.925L821.642,363.925L822.461,363.925L823.281,363.925L824.1,387.013L824.92,400L825.74,400L826.559,400L827.379,400L828.198,400L829.018,400L829.838,382.671L830.657,362.55L831.477,363.925L832.296,363.925L833.116,363.925L833.935,363.925L834.755,363.925L835.575,363.925L836.394,363.925L837.214,363.925L838.033,363.925L838.853,363.925L839.673,363.925L840.492,363.925L841.312,363.925L842.131,363.925L842.951,363.925L843.771,387.013L844.59,400" stroke="#e45756" stroke-width="2"/></g></g><path class="foreground" aria-hidden="true" d="" display="none"/></g></g><g class="mark-group role-legend" role="graphics-symbol" aria-roledescription="legend" aria-label="Symbol legend titled 'Zone' for stroke color with 3 values: Zone 1, Zone 2, Zone 3"><g transform="translate(865,0)"><path class="background" aria-hidden="true" d="M0,0h48v53h-48Z" pointer-events="none"/><g><g class="mark-group role-legend-entry"><g transform="translate(0,16)"><path class="background" aria-hidden="true" d="M0,0h0v0h0Z" pointer-events="none"/><g><g class="mark-group role-scope" role="graphics-object" aria-roledescription="group mark container"><g transform="translate(0,0)"><path class="background" aria-hidden="true" d="M0,0h47.1328125v11h-47.1328125Z" pointer-events="none" opacity="1"/><g><g class="mark-symbol role-legend-symbol" pointer-events="none"><path transform="translate(6,6)" d="M-5,0L5,0" stroke="#4c78a8" stroke-width="1.5" opacity="1"/></g><g class="mark-text role-legend-label" pointer-events="none"><text text-anchor="start" transform="translate(16,9)" font-family="sans-serif" font-size="10px" fill="#000" opacity="1">Zone 1</text></g></g><path class="foreground" aria-hidden="true" d="" pointer-events="none" display="none"/></g><g transform="translate(0,13)"><path class="background" aria-hidden="true" d="M0,0h47.1328125v11h-47.1328125Z" pointer-events="none" opacity="1"/><g><g class="mark-symbol role-legend-symbol" pointer-events="none"><path transform="translate(6,6)" d="M-5,0L5,0" stroke="#f58518" stroke-width="1.5" opacity="1"/></g><g class="mark-text role-legend-label" pointer-events="none"><text text-anchor="start" transform="translate(16,9)" font-family="sans-serif" font-size="10px" fill="#000" opacity="1">Zone 2</text></g></g><path class="foreground" aria-hidden="true" d="" pointer-events="none" display="none"/></g><g transform="translate(0,26)"><path class="background" aria-hidden="true" d="M0,0h47.1328125v11h-47.1328125Z" pointer-events="none" opacity="1"/><g><g class="mark-symbol role-legend-symbol" pointer-events="none"><path transform="translate(6,6)" d="M-5,0L5,0" stroke="#e45756" stroke-width="1.5" opacity="1"/></g><g class="mark-text role-legend-label" pointer-events="none"><text text-anchor="start" transform="translate(16,9)" font-family="sans-serif" font-size="10px" fill="#000" opacity="1">Zone 3</text></g></g><path class="foreground" aria-hidden="true" d="" pointer-events="none" display="none"/></g></g></g><path class="foreground" aria-hidden="true" d="" pointer-events="none" display="none"/></g></g><g class="mark-text role-legend-title" pointer-events="none"><text text-anchor="start" transform="translate(0,9)" font-family="sans-serif" font-size="11px" font-weight="bold" fill="#000" opacity="1">Zone</text></g></g><path class="foreground" aria-hidden="true" d="" pointer-events="none" display="none"/></g></g><g class="mark-group role-title"><g transform="translate(422.5,-22)"><path class="background" aria-hidden="true" d="M0,0h0v0h0Z" pointer-events="none"/><g><g class="mark-text role-title-text" role="graphics-symbol" aria-roledescription="title" aria-label="Title text 'Emmissions per Time Step by Zone'" pointer-events="none"><text text-anchor="middle" transform="translate(0,10)" font-family="sans-serif" font-size="13px" font-weight="bold" fill="#000" opacity="1">Emmissions per Time Step by Zone</text></g></g><path class="foreground" aria-hidden="true" d="" pointer-events="none" display="none"/></g></g></g><path class="foreground" aria-hidden="true" d="" display="none"/></g></g></g></svg>