<?xml version="1.0" encoding="utf-8"?>
<svg xmlns="http://www.w3.org/2000/svg" xmlns:xlink="http://www.w3.org/1999/xlink" width="800" height="450" viewBox="0 0 3200 1800">
<defs>
  <clipPath id="clip460">
    <rect x="0" y="0" width="3200" height="1800"/>
  </clipPath>
</defs>
<path clip-path="url(#clip460)" d="M0 1800 L3200 1800 L3200 0 L0 0  Z" fill="#ffffff" fill-rule="evenodd" fill-opacity="1"/>
<defs>
  <clipPath id="clip461">
    <rect x="640" y="0" width="2241" height="1800"/>
  </clipPath>
</defs>
<path clip-path="url(#clip460)" d="M205.696 1752.76 L1539.12 1752.76 L1539.12 128.602 L205.696 128.602  Z" fill="#ffffff" fill-rule="evenodd" fill-opacity="1"/>
<defs>
  <clipPath id="clip462">
    <rect x="205" y="128" width="1334" height="1625"/>
  </clipPath>
</defs>
<polyline clip-path="url(#clip460)" style="stroke:#000000; stroke-linecap:round; stroke-linejoin:round; stroke-width:4; stroke-opacity:1; fill:none" points="205.696,1752.76 1539.12,1752.76 "/>
<polyline clip-path="url(#clip462)" style="stroke:#000000; stroke-linecap:round; stroke-linejoin:round; stroke-width:2; stroke-opacity:0.1; fill:none" points="205.696,1542.09 1539.12,1542.09 "/>
<polyline clip-path="url(#clip462)" style="stroke:#000000; stroke-linecap:round; stroke-linejoin:round; stroke-width:2; stroke-opacity:0.1; fill:none" points="205.696,1331.42 1539.12,1331.42 "/>
<polyline clip-path="url(#clip462)" style="stroke:#000000; stroke-linecap:round; stroke-linejoin:round; stroke-width:2; stroke-opacity:0.1; fill:none" points="205.696,1120.75 1539.12,1120.75 "/>
<polyline clip-path="url(#clip462)" style="stroke:#000000; stroke-linecap:round; stroke-linejoin:round; stroke-width:2; stroke-opacity:0.1; fill:none" points="205.696,910.086 1539.12,910.086 "/>
<polyline clip-path="url(#clip462)" style="stroke:#000000; stroke-linecap:round; stroke-linejoin:round; stroke-width:2; stroke-opacity:0.1; fill:none" points="205.696,699.418 1539.12,699.418 "/>
<polyline clip-path="url(#clip462)" style="stroke:#000000; stroke-linecap:round; stroke-linejoin:round; stroke-width:2; stroke-opacity:0.1; fill:none" points="205.696,488.751 1539.12,488.751 "/>
<polyline clip-path="url(#clip462)" style="stroke:#000000; stroke-linecap:round; stroke-linejoin:round; stroke-width:2; stroke-opacity:0.1; fill:none" points="205.696,278.083 1539.12,278.083 "/>
<polyline clip-path="url(#clip460)" style="stroke:#000000; stroke-linecap:round; stroke-linejoin:round; stroke-width:4; stroke-opacity:1; fill:none" points="205.696,1752.76 205.696,128.602 "/>
<polyline clip-path="url(#clip460)" style="stroke:#000000; stroke-linecap:round; stroke-linejoin:round; stroke-width:4; stroke-opacity:1; fill:none" points="205.696,1542.09 224.594,1542.09 "/>
<polyline clip-path="url(#clip460)" style="stroke:#000000; stroke-linecap:round; stroke-linejoin:round; stroke-width:4; stroke-opacity:1; fill:none" points="205.696,1331.42 224.594,1331.42 "/>
<polyline clip-path="url(#clip460)" style="stroke:#000000; stroke-linecap:round; stroke-linejoin:round; stroke-width:4; stroke-opacity:1; fill:none" points="205.696,1120.75 224.594,1120.75 "/>
<polyline clip-path="url(#clip460)" style="stroke:#000000; stroke-linecap:round; stroke-linejoin:round; stroke-width:4; stroke-opacity:1; fill:none" points="205.696,910.086 224.594,910.086 "/>
<polyline clip-path="url(#clip460)" style="stroke:#000000; stroke-linecap:round; stroke-linejoin:round; stroke-width:4; stroke-opacity:1; fill:none" points="205.696,699.418 224.594,699.418 "/>
<polyline clip-path="url(#clip460)" style="stroke:#000000; stroke-linecap:round; stroke-linejoin:round; stroke-width:4; stroke-opacity:1; fill:none" points="205.696,488.751 224.594,488.751 "/>
<polyline clip-path="url(#clip460)" style="stroke:#000000; stroke-linecap:round; stroke-linejoin:round; stroke-width:4; stroke-opacity:1; fill:none" points="205.696,278.083 224.594,278.083 "/>
<path clip-path="url(#clip460)" d="M106.4 1555.43 L114.039 1555.43 L114.039 1529.07 L105.729 1530.73 L105.729 1526.48 L113.993 1524.81 L118.668 1524.81 L118.668 1555.43 L126.307 1555.43 L126.307 1559.37 L106.4 1559.37 L106.4 1555.43 Z" fill="#000000" fill-rule="nonzero" fill-opacity="1" /><path clip-path="url(#clip460)" d="M145.752 1527.89 Q142.141 1527.89 140.312 1531.45 Q138.506 1534.99 138.506 1542.12 Q138.506 1549.23 140.312 1552.79 Q142.141 1556.34 145.752 1556.34 Q149.386 1556.34 151.191 1552.79 Q153.02 1549.23 153.02 1542.12 Q153.02 1534.99 151.191 1531.45 Q149.386 1527.89 145.752 1527.89 M145.752 1524.18 Q151.562 1524.18 154.617 1528.79 Q157.696 1533.37 157.696 1542.12 Q157.696 1550.85 154.617 1555.46 Q151.562 1560.04 145.752 1560.04 Q139.941 1560.04 136.863 1555.46 Q133.807 1550.85 133.807 1542.12 Q133.807 1533.37 136.863 1528.79 Q139.941 1524.18 145.752 1524.18 Z" fill="#000000" fill-rule="nonzero" fill-opacity="1" /><path clip-path="url(#clip460)" d="M109.618 1344.77 L125.937 1344.77 L125.937 1348.7 L103.993 1348.7 L103.993 1344.77 Q106.655 1342.01 111.238 1337.38 Q115.844 1332.73 117.025 1331.39 Q119.27 1328.86 120.15 1327.13 Q121.053 1325.37 121.053 1323.68 Q121.053 1320.92 119.108 1319.19 Q117.187 1317.45 114.085 1317.45 Q111.886 1317.45 109.432 1318.21 Q107.002 1318.98 104.224 1320.53 L104.224 1315.81 Q107.048 1314.67 109.502 1314.09 Q111.955 1313.52 113.993 1313.52 Q119.363 1313.52 122.557 1316.2 Q125.752 1318.89 125.752 1323.38 Q125.752 1325.51 124.942 1327.43 Q124.154 1329.33 122.048 1331.92 Q121.469 1332.59 118.367 1335.81 Q115.266 1339 109.618 1344.77 Z" fill="#000000" fill-rule="nonzero" fill-opacity="1" /><path clip-path="url(#clip460)" d="M145.752 1317.22 Q142.141 1317.22 140.312 1320.78 Q138.506 1324.33 138.506 1331.46 Q138.506 1338.56 140.312 1342.13 Q142.141 1345.67 145.752 1345.67 Q149.386 1345.67 151.191 1342.13 Q153.02 1338.56 153.02 1331.46 Q153.02 1324.33 151.191 1320.78 Q149.386 1317.22 145.752 1317.22 M145.752 1313.52 Q151.562 1313.52 154.617 1318.12 Q157.696 1322.71 157.696 1331.46 Q157.696 1340.18 154.617 1344.79 Q151.562 1349.37 145.752 1349.37 Q139.941 1349.37 136.863 1344.79 Q133.807 1340.18 133.807 1331.46 Q133.807 1322.71 136.863 1318.12 Q139.941 1313.52 145.752 1313.52 Z" fill="#000000" fill-rule="nonzero" fill-opacity="1" /><path clip-path="url(#clip460)" d="M119.756 1119.4 Q123.113 1120.12 124.988 1122.39 Q126.886 1124.65 126.886 1127.99 Q126.886 1133.1 123.367 1135.9 Q119.849 1138.7 113.368 1138.7 Q111.192 1138.7 108.877 1138.26 Q106.585 1137.85 104.131 1136.99 L104.131 1132.48 Q106.076 1133.61 108.391 1134.19 Q110.705 1134.77 113.229 1134.77 Q117.627 1134.77 119.918 1133.03 Q122.233 1131.3 122.233 1127.99 Q122.233 1124.93 120.08 1123.22 Q117.951 1121.48 114.131 1121.48 L110.104 1121.48 L110.104 1117.64 L114.317 1117.64 Q117.766 1117.64 119.594 1116.27 Q121.423 1114.89 121.423 1112.29 Q121.423 1109.63 119.525 1108.22 Q117.65 1106.78 114.131 1106.78 Q112.21 1106.78 110.011 1107.2 Q107.812 1107.62 105.173 1108.5 L105.173 1104.33 Q107.835 1103.59 110.15 1103.22 Q112.488 1102.85 114.548 1102.85 Q119.872 1102.85 122.974 1105.28 Q126.076 1107.69 126.076 1111.81 Q126.076 1114.68 124.432 1116.67 Q122.789 1118.64 119.756 1119.4 Z" fill="#000000" fill-rule="nonzero" fill-opacity="1" /><path clip-path="url(#clip460)" d="M145.752 1106.55 Q142.141 1106.55 140.312 1110.12 Q138.506 1113.66 138.506 1120.79 Q138.506 1127.89 140.312 1131.46 Q142.141 1135 145.752 1135 Q149.386 1135 151.191 1131.46 Q153.02 1127.89 153.02 1120.79 Q153.02 1113.66 151.191 1110.12 Q149.386 1106.55 145.752 1106.55 M145.752 1102.85 Q151.562 1102.85 154.617 1107.45 Q157.696 1112.04 157.696 1120.79 Q157.696 1129.51 154.617 1134.12 Q151.562 1138.7 145.752 1138.7 Q139.941 1138.7 136.863 1134.12 Q133.807 1129.51 133.807 1120.79 Q133.807 1112.04 136.863 1107.45 Q139.941 1102.85 145.752 1102.85 Z" fill="#000000" fill-rule="nonzero" fill-opacity="1" /><path clip-path="url(#clip460)" d="M118.437 896.88 L106.631 915.329 L118.437 915.329 L118.437 896.88 M117.21 892.806 L123.09 892.806 L123.09 915.329 L128.02 915.329 L128.02 919.218 L123.09 919.218 L123.09 927.366 L118.437 927.366 L118.437 919.218 L102.835 919.218 L102.835 914.704 L117.21 892.806 Z" fill="#000000" fill-rule="nonzero" fill-opacity="1" /><path clip-path="url(#clip460)" d="M145.752 895.885 Q142.141 895.885 140.312 899.449 Q138.506 902.991 138.506 910.121 Q138.506 917.227 140.312 920.792 Q142.141 924.334 145.752 924.334 Q149.386 924.334 151.191 920.792 Q153.02 917.227 153.02 910.121 Q153.02 902.991 151.191 899.449 Q149.386 895.885 145.752 895.885 M145.752 892.181 Q151.562 892.181 154.617 896.787 Q157.696 901.371 157.696 910.121 Q157.696 918.847 154.617 923.454 Q151.562 928.037 145.752 928.037 Q139.941 928.037 136.863 923.454 Q133.807 918.847 133.807 910.121 Q133.807 901.371 136.863 896.787 Q139.941 892.181 145.752 892.181 Z" fill="#000000" fill-rule="nonzero" fill-opacity="1" /><path clip-path="url(#clip460)" d="M105.636 682.138 L123.992 682.138 L123.992 686.074 L109.918 686.074 L109.918 694.546 Q110.937 694.199 111.955 694.037 Q112.974 693.851 113.993 693.851 Q119.78 693.851 123.159 697.023 Q126.539 700.194 126.539 705.611 Q126.539 711.189 123.067 714.291 Q119.594 717.37 113.275 717.37 Q111.099 717.37 108.83 716.999 Q106.585 716.629 104.178 715.888 L104.178 711.189 Q106.261 712.323 108.483 712.879 Q110.705 713.435 113.182 713.435 Q117.187 713.435 119.525 711.328 Q121.863 709.222 121.863 705.611 Q121.863 701.999 119.525 699.893 Q117.187 697.787 113.182 697.787 Q111.307 697.787 109.432 698.203 Q107.581 698.62 105.636 699.499 L105.636 682.138 Z" fill="#000000" fill-rule="nonzero" fill-opacity="1" /><path clip-path="url(#clip460)" d="M145.752 685.217 Q142.141 685.217 140.312 688.782 Q138.506 692.324 138.506 699.453 Q138.506 706.56 140.312 710.124 Q142.141 713.666 145.752 713.666 Q149.386 713.666 151.191 710.124 Q153.02 706.56 153.02 699.453 Q153.02 692.324 151.191 688.782 Q149.386 685.217 145.752 685.217 M145.752 681.513 Q151.562 681.513 154.617 686.12 Q157.696 690.703 157.696 699.453 Q157.696 708.18 154.617 712.786 Q151.562 717.37 145.752 717.37 Q139.941 717.37 136.863 712.786 Q133.807 708.18 133.807 699.453 Q133.807 690.703 136.863 686.12 Q139.941 681.513 145.752 681.513 Z" fill="#000000" fill-rule="nonzero" fill-opacity="1" /><path clip-path="url(#clip460)" d="M116.168 486.888 Q113.02 486.888 111.168 489.04 Q109.34 491.193 109.34 494.943 Q109.34 498.67 111.168 500.846 Q113.02 502.999 116.168 502.999 Q119.317 502.999 121.145 500.846 Q122.997 498.67 122.997 494.943 Q122.997 491.193 121.145 489.04 Q119.317 486.888 116.168 486.888 M125.451 472.235 L125.451 476.494 Q123.692 475.661 121.886 475.221 Q120.104 474.781 118.344 474.781 Q113.715 474.781 111.261 477.906 Q108.83 481.031 108.483 487.35 Q109.849 485.337 111.909 484.272 Q113.969 483.184 116.446 483.184 Q121.655 483.184 124.664 486.355 Q127.696 489.503 127.696 494.943 Q127.696 500.267 124.548 503.485 Q121.4 506.702 116.168 506.702 Q110.173 506.702 107.002 502.119 Q103.831 497.512 103.831 488.786 Q103.831 480.591 107.719 475.73 Q111.608 470.846 118.159 470.846 Q119.918 470.846 121.701 471.193 Q123.506 471.54 125.451 472.235 Z" fill="#000000" fill-rule="nonzero" fill-opacity="1" /><path clip-path="url(#clip460)" d="M145.752 474.55 Q142.141 474.55 140.312 478.114 Q138.506 481.656 138.506 488.786 Q138.506 495.892 140.312 499.457 Q142.141 502.999 145.752 502.999 Q149.386 502.999 151.191 499.457 Q153.02 495.892 153.02 488.786 Q153.02 481.656 151.191 478.114 Q149.386 474.55 145.752 474.55 M145.752 470.846 Q151.562 470.846 154.617 475.452 Q157.696 480.036 157.696 488.786 Q157.696 497.512 154.617 502.119 Q151.562 506.702 145.752 506.702 Q139.941 506.702 136.863 502.119 Q133.807 497.512 133.807 488.786 Q133.807 480.036 136.863 475.452 Q139.941 470.846 145.752 470.846 Z" fill="#000000" fill-rule="nonzero" fill-opacity="1" /><path clip-path="url(#clip460)" d="M104.409 260.803 L126.631 260.803 L126.631 262.794 L114.085 295.363 L109.201 295.363 L121.006 264.739 L104.409 264.739 L104.409 260.803 Z" fill="#000000" fill-rule="nonzero" fill-opacity="1" /><path clip-path="url(#clip460)" d="M145.752 263.882 Q142.141 263.882 140.312 267.447 Q138.506 270.989 138.506 278.118 Q138.506 285.225 140.312 288.789 Q142.141 292.331 145.752 292.331 Q149.386 292.331 151.191 288.789 Q153.02 285.225 153.02 278.118 Q153.02 270.989 151.191 267.447 Q149.386 263.882 145.752 263.882 M145.752 260.178 Q151.562 260.178 154.617 264.785 Q157.696 269.368 157.696 278.118 Q157.696 286.845 154.617 291.451 Q151.562 296.035 145.752 296.035 Q139.941 296.035 136.863 291.451 Q133.807 286.845 133.807 278.118 Q133.807 269.368 136.863 264.785 Q139.941 260.178 145.752 260.178 Z" fill="#000000" fill-rule="nonzero" fill-opacity="1" /><path clip-path="url(#clip460)" d="M33.7997 960.126 L21.0364 960.126 L21.0364 970.63 L15.7529 970.63 L15.7529 953.761 L36.155 953.761 Q38.7968 957.484 40.1654 961.972 Q41.5022 966.46 41.5022 971.553 Q41.5022 982.693 35.0092 988.995 Q28.4843 995.265 16.8669 995.265 Q5.21766 995.265 -1.27536 988.995 Q-7.80021 982.693 -7.80021 971.553 Q-7.80021 966.906 -6.65439 962.736 Q-5.50856 958.535 -3.28056 955.002 L3.56257 955.002 Q0.538863 958.567 -0.988907 962.577 Q-2.51668 966.587 -2.51668 971.012 Q-2.51668 979.733 2.35309 984.125 Q7.22285 988.485 16.8669 988.485 Q26.4791 988.485 31.3489 984.125 Q36.2186 979.733 36.2186 971.012 Q36.2186 967.606 35.6457 964.932 Q35.041 962.259 33.7997 960.126 Z" fill="#000000" fill-rule="nonzero" fill-opacity="1" /><path clip-path="url(#clip460)" d="M-6.94084 946.249 L-6.94084 939.756 L33.2268 929.762 L-6.94084 919.799 L-6.94084 912.574 L33.2268 902.58 L-6.94084 892.618 L-6.94084 886.093 L40.5792 898.029 L40.5792 906.113 L-0.670621 916.139 L40.5792 926.261 L40.5792 934.345 L-6.94084 946.249 Z" fill="#000000" fill-rule="nonzero" fill-opacity="1" /><path clip-path="url(#clip460)" d="M637.775 24.3788 L637.775 29.9256 Q635.118 27.4517 632.098 26.2277 Q629.103 25.0038 625.717 25.0038 Q619.051 25.0038 615.509 29.0923 Q611.968 33.1548 611.968 40.8631 Q611.968 48.5453 615.509 52.6338 Q619.051 56.6963 625.717 56.6963 Q629.103 56.6963 632.098 55.4724 Q635.118 54.2484 637.775 51.7745 L637.775 57.2692 Q635.014 59.1442 631.915 60.0817 Q628.842 61.0192 625.405 61.0192 Q616.577 61.0192 611.499 55.6286 Q606.421 50.212 606.421 40.8631 Q606.421 31.4881 611.499 26.0975 Q616.577 20.6809 625.405 20.6809 Q628.895 20.6809 631.967 21.6184 Q635.066 22.5298 637.775 24.3788 Z" fill="#000000" fill-rule="nonzero" fill-opacity="1" /><path clip-path="url(#clip460)" d="M661.681 24.9517 Q655.952 24.9517 652.566 29.2225 Q649.207 33.4933 649.207 40.8631 Q649.207 48.2068 652.566 52.4776 Q655.952 56.7484 661.681 56.7484 Q667.41 56.7484 670.743 52.4776 Q674.103 48.2068 674.103 40.8631 Q674.103 33.4933 670.743 29.2225 Q667.41 24.9517 661.681 24.9517 M661.681 20.6809 Q669.858 20.6809 674.754 26.1756 Q679.649 31.6444 679.649 40.8631 Q679.649 50.0557 674.754 55.5505 Q669.858 61.0192 661.681 61.0192 Q653.478 61.0192 648.556 55.5505 Q643.66 50.0818 643.66 40.8631 Q643.66 31.6444 648.556 26.1756 Q653.478 20.6809 661.681 20.6809 Z" fill="#000000" fill-rule="nonzero" fill-opacity="1" /><path clip-path="url(#clip460)" d="M692.879 55.8369 L711.238 55.8369 L711.238 60.264 L686.55 60.264 L686.55 55.8369 Q689.545 52.738 694.701 47.5297 Q699.884 42.2953 701.212 40.7849 Q703.738 37.9464 704.727 35.9933 Q705.743 34.0141 705.743 32.1131 Q705.743 29.0142 703.556 27.0611 Q701.394 25.1079 697.905 25.1079 Q695.431 25.1079 692.67 25.9673 Q689.936 26.8267 686.811 28.5715 L686.811 23.259 Q689.988 21.983 692.748 21.3319 Q695.509 20.6809 697.8 20.6809 Q703.842 20.6809 707.436 23.7017 Q711.03 26.7225 711.03 31.7746 Q711.03 34.1704 710.118 36.3318 Q709.233 38.4672 706.863 41.3839 Q706.212 42.1391 702.722 45.7589 Q699.233 49.3526 692.879 55.8369 Z" fill="#000000" fill-rule="nonzero" fill-opacity="1" /><path clip-path="url(#clip460)" d="M738.764 21.384 L744.024 21.384 L744.024 55.8369 L762.956 55.8369 L762.956 60.264 L738.764 60.264 L738.764 21.384 Z" fill="#000000" fill-rule="nonzero" fill-opacity="1" /><path clip-path="url(#clip460)" d="M778.633 34.4568 Q774.779 34.4568 772.54 37.4777 Q770.3 40.4724 770.3 45.7068 Q770.3 50.9411 772.514 53.962 Q774.753 56.9567 778.633 56.9567 Q782.461 56.9567 784.701 53.9359 Q786.941 50.9151 786.941 45.7068 Q786.941 40.5245 784.701 37.5037 Q782.461 34.4568 778.633 34.4568 M778.633 30.3944 Q784.883 30.3944 788.451 34.4568 Q792.019 38.5193 792.019 45.7068 Q792.019 52.8682 788.451 56.9567 Q784.883 61.0192 778.633 61.0192 Q772.357 61.0192 768.79 56.9567 Q765.248 52.8682 765.248 45.7068 Q765.248 38.5193 768.79 34.4568 Q772.357 30.3944 778.633 30.3944 Z" fill="#000000" fill-rule="nonzero" fill-opacity="1" /><path clip-path="url(#clip460)" d="M813.216 45.6026 Q807.409 45.6026 805.17 46.9307 Q802.93 48.2589 802.93 51.462 Q802.93 54.014 804.597 55.5244 Q806.289 57.0088 809.18 57.0088 Q813.164 57.0088 815.56 54.1963 Q817.982 51.3578 817.982 46.6703 L817.982 45.6026 L813.216 45.6026 M822.774 43.6235 L822.774 60.264 L817.982 60.264 L817.982 55.8369 Q816.341 58.4932 813.894 59.7692 Q811.446 61.0192 807.904 61.0192 Q803.425 61.0192 800.769 58.5192 Q798.138 55.9932 798.138 51.7745 Q798.138 46.8526 801.42 44.3526 Q804.727 41.8526 811.263 41.8526 L817.982 41.8526 L817.982 41.3839 Q817.982 38.0766 815.795 36.2798 Q813.633 34.4568 809.701 34.4568 Q807.201 34.4568 804.831 35.0558 Q802.461 35.6548 800.274 36.8527 L800.274 32.4256 Q802.904 31.41 805.378 30.9152 Q807.852 30.3944 810.196 30.3944 Q816.524 30.3944 819.649 33.6756 Q822.774 36.9568 822.774 43.6235 Z" fill="#000000" fill-rule="nonzero" fill-opacity="1" /><path clip-path="url(#clip460)" d="M851.836 35.5245 L851.836 19.7434 L856.628 19.7434 L856.628 60.264 L851.836 60.264 L851.836 55.889 Q850.326 58.4932 848.008 59.7692 Q845.716 61.0192 842.487 61.0192 Q837.201 61.0192 833.867 56.8005 Q830.56 52.5817 830.56 45.7068 Q830.56 38.8318 833.867 34.6131 Q837.201 30.3944 842.487 30.3944 Q845.716 30.3944 848.008 31.6704 Q850.326 32.9204 851.836 35.5245 M835.508 45.7068 Q835.508 50.9932 837.669 54.014 Q839.857 57.0088 843.659 57.0088 Q847.461 57.0088 849.649 54.014 Q851.836 50.9932 851.836 45.7068 Q851.836 40.4204 849.649 37.4256 Q847.461 34.4048 843.659 34.4048 Q839.857 34.4048 837.669 37.4256 Q835.508 40.4204 835.508 45.7068 Z" fill="#000000" fill-rule="nonzero" fill-opacity="1" /><path clip-path="url(#clip460)" d="M902.096 42.0349 Q903.789 42.6078 905.377 44.4828 Q906.992 46.3578 908.607 49.6391 L913.945 60.264 L908.294 60.264 L903.32 50.2901 Q901.393 46.3839 899.57 45.1078 Q897.773 43.8318 894.648 43.8318 L888.919 43.8318 L888.919 60.264 L883.659 60.264 L883.659 21.384 L895.534 21.384 Q902.2 21.384 905.482 24.1704 Q908.763 26.9569 908.763 32.5819 Q908.763 36.2537 907.044 38.6756 Q905.351 41.0974 902.096 42.0349 M888.919 25.7069 L888.919 39.5089 L895.534 39.5089 Q899.336 39.5089 901.263 37.7641 Q903.216 35.9933 903.216 32.5819 Q903.216 29.1704 901.263 27.4517 Q899.336 25.7069 895.534 25.7069 L888.919 25.7069 Z" fill="#000000" fill-rule="nonzero" fill-opacity="1" /><path clip-path="url(#clip460)" d="M932.591 45.6026 Q926.784 45.6026 924.544 46.9307 Q922.304 48.2589 922.304 51.462 Q922.304 54.014 923.971 55.5244 Q925.664 57.0088 928.554 57.0088 Q932.539 57.0088 934.935 54.1963 Q937.356 51.3578 937.356 46.6703 L937.356 45.6026 L932.591 45.6026 M942.148 43.6235 L942.148 60.264 L937.356 60.264 L937.356 55.8369 Q935.716 58.4932 933.268 59.7692 Q930.82 61.0192 927.278 61.0192 Q922.799 61.0192 920.143 58.5192 Q917.513 55.9932 917.513 51.7745 Q917.513 46.8526 920.794 44.3526 Q924.101 41.8526 930.638 41.8526 L937.356 41.8526 L937.356 41.3839 Q937.356 38.0766 935.169 36.2798 Q933.007 34.4568 929.075 34.4568 Q926.575 34.4568 924.205 35.0558 Q921.836 35.6548 919.648 36.8527 L919.648 32.4256 Q922.278 31.41 924.752 30.9152 Q927.226 30.3944 929.57 30.3944 Q935.898 30.3944 939.023 33.6756 Q942.148 36.9568 942.148 43.6235 Z" fill="#000000" fill-rule="nonzero" fill-opacity="1" /><path clip-path="url(#clip460)" d="M956.757 22.8163 L956.757 31.0975 L966.627 31.0975 L966.627 34.8214 L956.757 34.8214 L956.757 50.6547 Q956.757 54.2224 957.721 55.238 Q958.71 56.2536 961.705 56.2536 L966.627 56.2536 L966.627 60.264 L961.705 60.264 Q956.158 60.264 954.049 58.2067 Q951.94 56.1234 951.94 50.6547 L951.94 34.8214 L948.424 34.8214 L948.424 31.0975 L951.94 31.0975 L951.94 22.8163 L956.757 22.8163 Z" fill="#000000" fill-rule="nonzero" fill-opacity="1" /><path clip-path="url(#clip460)" d="M997.877 44.4828 L997.877 46.8266 L975.846 46.8266 Q976.158 51.7745 978.815 54.3786 Q981.497 56.9567 986.262 56.9567 Q989.023 56.9567 991.601 56.2796 Q994.205 55.6026 996.757 54.2484 L996.757 58.7796 Q994.179 59.8734 991.471 60.4463 Q988.762 61.0192 985.976 61.0192 Q978.997 61.0192 974.908 56.9567 Q970.846 52.8942 970.846 45.9672 Q970.846 38.8058 974.7 34.6131 Q978.58 30.3944 985.143 30.3944 Q991.028 30.3944 994.439 34.1964 Q997.877 37.9725 997.877 44.4828 M993.085 43.0766 Q993.033 39.1443 990.872 36.8006 Q988.736 34.4568 985.195 34.4568 Q981.184 34.4568 978.762 36.7225 Q976.367 38.9881 976.002 43.1026 L993.085 43.0766 Z" fill="#000000" fill-rule="nonzero" fill-opacity="1" /><path clip-path="url(#clip460)" d="M1052.02 24.3788 L1052.02 29.9256 Q1049.36 27.4517 1046.34 26.2277 Q1043.35 25.0038 1039.96 25.0038 Q1033.29 25.0038 1029.75 29.0923 Q1026.21 33.1548 1026.21 40.8631 Q1026.21 48.5453 1029.75 52.6338 Q1033.29 56.6963 1039.96 56.6963 Q1043.35 56.6963 1046.34 55.4724 Q1049.36 54.2484 1052.02 51.7745 L1052.02 57.2692 Q1049.26 59.1442 1046.16 60.0817 Q1043.09 61.0192 1039.65 61.0192 Q1030.82 61.0192 1025.74 55.6286 Q1020.66 50.212 1020.66 40.8631 Q1020.66 31.4881 1025.74 26.0975 Q1030.82 20.6809 1039.65 20.6809 Q1043.14 20.6809 1046.21 21.6184 Q1049.31 22.5298 1052.02 24.3788 Z" fill="#000000" fill-rule="nonzero" fill-opacity="1" /><path clip-path="url(#clip460)" d="M1073.19 45.6026 Q1067.38 45.6026 1065.14 46.9307 Q1062.9 48.2589 1062.9 51.462 Q1062.9 54.014 1064.57 55.5244 Q1066.26 57.0088 1069.15 57.0088 Q1073.14 57.0088 1075.53 54.1963 Q1077.95 51.3578 1077.95 46.6703 L1077.95 45.6026 L1073.19 45.6026 M1082.75 43.6235 L1082.75 60.264 L1077.95 60.264 L1077.95 55.8369 Q1076.31 58.4932 1073.87 59.7692 Q1071.42 61.0192 1067.88 61.0192 Q1063.4 61.0192 1060.74 58.5192 Q1058.11 55.9932 1058.11 51.7745 Q1058.11 46.8526 1061.39 44.3526 Q1064.7 41.8526 1071.24 41.8526 L1077.95 41.8526 L1077.95 41.3839 Q1077.95 38.0766 1075.77 36.2798 Q1073.61 34.4568 1069.67 34.4568 Q1067.17 34.4568 1064.8 35.0558 Q1062.43 35.6548 1060.25 36.8527 L1060.25 32.4256 Q1062.88 31.41 1065.35 30.9152 Q1067.82 30.3944 1070.17 30.3944 Q1076.5 30.3944 1079.62 33.6756 Q1082.75 36.9568 1082.75 43.6235 Z" fill="#000000" fill-rule="nonzero" fill-opacity="1" /><path clip-path="url(#clip460)" d="M1097.25 55.889 L1097.25 71.3577 L1092.43 71.3577 L1092.43 31.0975 L1097.25 31.0975 L1097.25 35.5245 Q1098.76 32.9204 1101.05 31.6704 Q1103.37 30.3944 1106.57 30.3944 Q1111.89 30.3944 1115.19 34.6131 Q1118.53 38.8318 1118.53 45.7068 Q1118.53 52.5817 1115.19 56.8005 Q1111.89 61.0192 1106.57 61.0192 Q1103.37 61.0192 1101.05 59.7692 Q1098.76 58.4932 1097.25 55.889 M1113.55 45.7068 Q1113.55 40.4204 1111.37 37.4256 Q1109.2 34.4048 1105.4 34.4048 Q1101.6 34.4048 1099.41 37.4256 Q1097.25 40.4204 1097.25 45.7068 Q1097.25 50.9932 1099.41 54.014 Q1101.6 57.0088 1105.4 57.0088 Q1109.2 57.0088 1111.37 54.014 Q1113.55 50.9932 1113.55 45.7068 Z" fill="#000000" fill-rule="nonzero" fill-opacity="1" /><path clip-path="url(#clip460)" d="M614.715 83.2717 Q608.986 83.2717 605.6 87.5425 Q602.241 91.8133 602.241 99.1831 Q602.241 106.527 605.6 110.798 Q608.986 115.068 614.715 115.068 Q620.444 115.068 623.777 110.798 Q627.137 106.527 627.137 99.1831 Q627.137 91.8133 623.777 87.5425 Q620.444 83.2717 614.715 83.2717 M614.715 79.0009 Q622.892 79.0009 627.788 84.4956 Q632.684 89.9644 632.684 99.1831 Q632.684 108.376 627.788 113.87 Q622.892 119.339 614.715 119.339 Q606.512 119.339 601.59 113.87 Q596.694 108.402 596.694 99.1831 Q596.694 89.9644 601.59 84.4956 Q606.512 79.0009 614.715 79.0009 Z" fill="#000000" fill-rule="nonzero" fill-opacity="1" /><path clip-path="url(#clip460)" d="M661.642 104.027 Q661.642 98.7404 659.454 95.7456 Q657.293 92.7248 653.491 92.7248 Q649.689 92.7248 647.501 95.7456 Q645.34 98.7404 645.34 104.027 Q645.34 109.313 647.501 112.334 Q649.689 115.329 653.491 115.329 Q657.293 115.329 659.454 112.334 Q661.642 109.313 661.642 104.027 M645.34 93.8445 Q646.85 91.2404 649.142 89.9904 Q651.46 88.7144 654.663 88.7144 Q659.975 88.7144 663.282 92.9331 Q666.616 97.1518 666.616 104.027 Q666.616 110.902 663.282 115.12 Q659.975 119.339 654.663 119.339 Q651.46 119.339 649.142 118.089 Q646.85 116.813 645.34 114.209 L645.34 118.584 L640.522 118.584 L640.522 78.0634 L645.34 78.0634 L645.34 93.8445 Z" fill="#000000" fill-rule="nonzero" fill-opacity="1" /><path clip-path="url(#clip460)" d="M674.558 89.4175 L679.35 89.4175 L679.35 119.105 Q679.35 124.678 677.215 127.178 Q675.105 129.678 670.392 129.678 L668.569 129.678 L668.569 125.615 L669.845 125.615 Q672.579 125.615 673.569 124.339 Q674.558 123.089 674.558 119.105 L674.558 89.4175 M674.558 78.0634 L679.35 78.0634 L679.35 84.1311 L674.558 84.1311 L674.558 78.0634 Z" fill="#000000" fill-rule="nonzero" fill-opacity="1" /><path clip-path="url(#clip460)" d="M716.563 118.584 L701.72 79.704 L707.214 79.704 L719.532 112.438 L731.876 79.704 L737.344 79.704 L722.527 118.584 L716.563 118.584 Z" fill="#000000" fill-rule="nonzero" fill-opacity="1" /><path clip-path="url(#clip460)" d="M751.928 103.923 Q746.12 103.923 743.881 105.251 Q741.641 106.579 741.641 109.782 Q741.641 112.334 743.308 113.844 Q745.001 115.329 747.891 115.329 Q751.876 115.329 754.271 112.516 Q756.693 109.678 756.693 104.99 L756.693 103.923 L751.928 103.923 M761.485 101.943 L761.485 118.584 L756.693 118.584 L756.693 114.157 Q755.053 116.813 752.605 118.089 Q750.157 119.339 746.615 119.339 Q742.136 119.339 739.48 116.839 Q736.85 114.313 736.85 110.094 Q736.85 105.173 740.131 102.673 Q743.438 100.173 749.975 100.173 L756.693 100.173 L756.693 99.7039 Q756.693 96.3966 754.506 94.5998 Q752.344 92.7768 748.412 92.7768 Q745.912 92.7768 743.542 93.3758 Q741.173 93.9748 738.985 95.1727 L738.985 90.7456 Q741.615 89.73 744.089 89.2352 Q746.563 88.7144 748.907 88.7144 Q755.235 88.7144 758.36 91.9956 Q761.485 95.2768 761.485 101.943 Z" fill="#000000" fill-rule="nonzero" fill-opacity="1" /><path clip-path="url(#clip460)" d="M771.355 78.0634 L776.146 78.0634 L776.146 118.584 L771.355 118.584 L771.355 78.0634 Z" fill="#000000" fill-rule="nonzero" fill-opacity="1" /><path clip-path="url(#clip460)" d="M787.396 111.969 L792.891 111.969 L792.891 118.584 L787.396 118.584 L787.396 111.969 M787.396 91.006 L792.891 91.006 L792.891 97.6206 L787.396 97.6206 L787.396 91.006 Z" fill="#000000" fill-rule="nonzero" fill-opacity="1" /><path clip-path="url(#clip460)" d="M821.927 117.777 L821.927 112.985 Q823.907 113.923 825.938 114.417 Q827.969 114.912 829.922 114.912 Q835.13 114.912 837.865 111.423 Q840.625 107.907 841.016 100.772 Q839.505 103.011 837.188 104.209 Q834.87 105.407 832.058 105.407 Q826.224 105.407 822.813 101.891 Q819.427 98.3497 819.427 92.23 Q819.427 86.2404 822.969 82.6207 Q826.511 79.0009 832.396 79.0009 Q839.141 79.0009 842.682 84.1831 Q846.25 89.3394 846.25 99.1831 Q846.25 108.376 841.875 113.87 Q837.526 119.339 830.156 119.339 Q828.177 119.339 826.146 118.949 Q824.115 118.558 821.927 117.777 M832.396 101.292 Q835.938 101.292 837.995 98.8706 Q840.078 96.4487 840.078 92.23 Q840.078 88.0373 837.995 85.6154 Q835.938 83.1675 832.396 83.1675 Q828.854 83.1675 826.771 85.6154 Q824.714 88.0373 824.714 92.23 Q824.714 96.4487 826.771 98.8706 Q828.854 101.292 832.396 101.292 Z" fill="#000000" fill-rule="nonzero" fill-opacity="1" /><path clip-path="url(#clip460)" d="M867.604 97.0477 Q864.063 97.0477 861.979 99.4695 Q859.922 101.891 859.922 106.11 Q859.922 110.303 861.979 112.751 Q864.063 115.173 867.604 115.173 Q871.146 115.173 873.203 112.751 Q875.286 110.303 875.286 106.11 Q875.286 101.891 873.203 99.4695 Q871.146 97.0477 867.604 97.0477 M878.047 80.5634 L878.047 85.355 Q876.068 84.4175 874.036 83.9227 Q872.031 83.4279 870.052 83.4279 Q864.844 83.4279 862.083 86.9435 Q859.349 90.4592 858.958 97.5685 Q860.495 95.3029 862.813 94.105 Q865.13 92.881 867.917 92.881 Q873.776 92.881 877.161 96.4487 Q880.573 99.9903 880.573 106.11 Q880.573 112.1 877.031 115.719 Q873.49 119.339 867.604 119.339 Q860.859 119.339 857.292 114.183 Q853.724 109.001 853.724 99.1831 Q853.724 89.9644 858.099 84.4956 Q862.474 79.0009 869.844 79.0009 Q871.823 79.0009 873.828 79.3915 Q875.859 79.7821 878.047 80.5634 Z" fill="#000000" fill-rule="nonzero" fill-opacity="1" /><path clip-path="url(#clip460)" d="M890.547 114.157 L899.14 114.157 L899.14 84.4956 L889.792 86.3706 L889.792 81.579 L899.088 79.704 L904.349 79.704 L904.349 114.157 L912.942 114.157 L912.942 118.584 L890.547 118.584 L890.547 114.157 Z" fill="#000000" fill-rule="nonzero" fill-opacity="1" /><path clip-path="url(#clip460)" d="M922.239 79.704 L947.239 79.704 L947.239 81.9436 L933.125 118.584 L927.63 118.584 L940.911 84.1311 L922.239 84.1311 L922.239 79.704 Z" fill="#000000" fill-rule="nonzero" fill-opacity="1" /><path clip-path="url(#clip460)" d="M957.5 111.969 L962.994 111.969 L962.994 118.584 L957.5 118.584 L957.5 111.969 Z" fill="#000000" fill-rule="nonzero" fill-opacity="1" /><path clip-path="url(#clip460)" d="M974.505 79.704 L995.156 79.704 L995.156 84.1311 L979.322 84.1311 L979.322 93.6623 Q980.468 93.2716 981.614 93.0893 Q982.76 92.881 983.906 92.881 Q990.416 92.881 994.218 96.4487 Q998.02 100.016 998.02 106.11 Q998.02 112.386 994.114 115.876 Q990.208 119.339 983.098 119.339 Q980.65 119.339 978.098 118.923 Q975.572 118.506 972.864 117.673 L972.864 112.386 Q975.208 113.662 977.708 114.287 Q980.208 114.912 982.994 114.912 Q987.499 114.912 990.13 112.542 Q992.76 110.173 992.76 106.11 Q992.76 102.048 990.13 99.6779 Q987.499 97.3081 982.994 97.3081 Q980.885 97.3081 978.775 97.7768 Q976.692 98.2456 974.505 99.2351 L974.505 79.704 Z" fill="#000000" fill-rule="nonzero" fill-opacity="1" /><path clip-path="url(#clip460)" d="M1022.84 84.2873 L1009.56 105.042 L1022.84 105.042 L1022.84 84.2873 M1021.46 79.704 L1028.07 79.704 L1028.07 105.042 L1033.62 105.042 L1033.62 109.417 L1028.07 109.417 L1028.07 118.584 L1022.84 118.584 L1022.84 109.417 L1005.29 109.417 L1005.29 104.339 L1021.46 79.704 Z" fill="#000000" fill-rule="nonzero" fill-opacity="1" /><path clip-path="url(#clip460)" d="M1042.37 79.704 L1063.02 79.704 L1063.02 84.1311 L1047.19 84.1311 L1047.19 93.6623 Q1048.33 93.2716 1049.48 93.0893 Q1050.62 92.881 1051.77 92.881 Q1058.28 92.881 1062.08 96.4487 Q1065.88 100.016 1065.88 106.11 Q1065.88 112.386 1061.98 115.876 Q1058.07 119.339 1050.96 119.339 Q1048.51 119.339 1045.96 118.923 Q1043.44 118.506 1040.73 117.673 L1040.73 112.386 Q1043.07 113.662 1045.57 114.287 Q1048.07 114.912 1050.86 114.912 Q1055.36 114.912 1057.99 112.542 Q1060.62 110.173 1060.62 106.11 Q1060.62 102.048 1057.99 99.6779 Q1055.36 97.3081 1050.86 97.3081 Q1048.75 97.3081 1046.64 97.7768 Q1044.56 98.2456 1042.37 99.2351 L1042.37 79.704 Z" fill="#000000" fill-rule="nonzero" fill-opacity="1" /><path clip-path="url(#clip460)" d="M1087.5 100.121 Q1083.75 100.121 1081.59 102.126 Q1079.45 104.131 1079.45 107.647 Q1079.45 111.162 1081.59 113.167 Q1083.75 115.173 1087.5 115.173 Q1091.25 115.173 1093.41 113.167 Q1095.57 111.136 1095.57 107.647 Q1095.57 104.131 1093.41 102.126 Q1091.27 100.121 1087.5 100.121 M1082.24 97.881 Q1078.85 97.0477 1076.95 94.73 Q1075.08 92.4123 1075.08 89.0789 Q1075.08 84.4175 1078.38 81.7092 Q1081.72 79.0009 1087.5 79.0009 Q1093.31 79.0009 1096.61 81.7092 Q1099.92 84.4175 1099.92 89.0789 Q1099.92 92.4123 1098.02 94.73 Q1096.14 97.0477 1092.79 97.881 Q1096.59 98.7664 1098.7 101.345 Q1100.83 103.923 1100.83 107.647 Q1100.83 113.298 1097.37 116.318 Q1093.93 119.339 1087.5 119.339 Q1081.07 119.339 1077.6 116.318 Q1074.17 113.298 1074.17 107.647 Q1074.17 103.923 1076.3 101.345 Q1078.44 98.7664 1082.24 97.881 M1080.31 89.5737 Q1080.31 92.5946 1082.19 94.2873 Q1084.09 95.98 1087.5 95.98 Q1090.88 95.98 1092.79 94.2873 Q1094.71 92.5946 1094.71 89.5737 Q1094.71 86.5529 1092.79 84.8602 Q1090.88 83.1675 1087.5 83.1675 Q1084.09 83.1675 1082.19 84.8602 Q1080.31 86.5529 1080.31 89.5737 Z" fill="#000000" fill-rule="nonzero" fill-opacity="1" /><path clip-path="url(#clip460)" d="M1121.43 83.1675 Q1117.37 83.1675 1115.31 87.1779 Q1113.28 91.1623 1113.28 99.1831 Q1113.28 107.178 1115.31 111.188 Q1117.37 115.173 1121.43 115.173 Q1125.52 115.173 1127.55 111.188 Q1129.61 107.178 1129.61 99.1831 Q1129.61 91.1623 1127.55 87.1779 Q1125.52 83.1675 1121.43 83.1675 M1121.43 79.0009 Q1127.97 79.0009 1131.4 84.1831 Q1134.87 89.3394 1134.87 99.1831 Q1134.87 109.001 1131.4 114.183 Q1127.97 119.339 1121.43 119.339 Q1114.89 119.339 1111.43 114.183 Q1107.99 109.001 1107.99 99.1831 Q1107.99 89.3394 1111.43 84.1831 Q1114.89 79.0009 1121.43 79.0009 Z" fill="#000000" fill-rule="nonzero" fill-opacity="1" /><path clip-path="url(#clip460)" d="M1160.05 97.6206 Q1163.83 98.4279 1165.94 100.98 Q1168.07 103.532 1168.07 107.282 Q1168.07 113.037 1164.11 116.188 Q1160.15 119.339 1152.86 119.339 Q1150.42 119.339 1147.81 118.844 Q1145.23 118.376 1142.47 117.412 L1142.47 112.334 Q1144.66 113.61 1147.26 114.261 Q1149.87 114.912 1152.71 114.912 Q1157.65 114.912 1160.23 112.959 Q1162.84 111.006 1162.84 107.282 Q1162.84 103.844 1160.42 101.917 Q1158.02 99.9643 1153.72 99.9643 L1149.19 99.9643 L1149.19 95.6414 L1153.93 95.6414 Q1157.81 95.6414 1159.87 94.105 Q1161.93 92.5425 1161.93 89.6258 Q1161.93 86.631 1159.79 85.0425 Q1157.68 83.4279 1153.72 83.4279 Q1151.56 83.4279 1149.09 83.8967 Q1146.61 84.3654 1143.64 85.355 L1143.64 80.6675 Q1146.64 79.8342 1149.24 79.4175 Q1151.87 79.0009 1154.19 79.0009 Q1160.18 79.0009 1163.67 81.7352 Q1167.16 84.4436 1167.16 89.0789 Q1167.16 92.3081 1165.31 94.5477 Q1163.46 96.7612 1160.05 97.6206 Z" fill="#000000" fill-rule="nonzero" fill-opacity="1" /><path clip-path="url(#clip462)" d="M279.037 128.602 L279.037 358.766 L1465.78 358.766 L1465.78 128.602 L279.037 128.602 L279.037 128.602  Z" fill="#c0c0c0" fill-rule="evenodd" fill-opacity="1"/>
<polyline clip-path="url(#clip462)" style="stroke:#000000; stroke-linecap:round; stroke-linejoin:round; stroke-width:4; stroke-opacity:1; fill:none" points="279.037,128.602 279.037,358.766 1465.78,358.766 1465.78,128.602 279.037,128.602 "/>
<circle clip-path="url(#clip462)" style="fill:#c0c0c0; stroke:none; fill-opacity:0" cx="872.409" cy="128.602" r="2"/>
<path clip-path="url(#clip462)" d="M279.037 358.766 L279.037 1030.84 L1465.78 1030.84 L1465.78 358.766 L279.037 358.766 L279.037 358.766  Z" fill="#ffff00" fill-rule="evenodd" fill-opacity="1"/>
<polyline clip-path="url(#clip462)" style="stroke:#000000; stroke-linecap:round; stroke-linejoin:round; stroke-width:4; stroke-opacity:1; fill:none" points="279.037,358.766 279.037,1030.84 1465.78,1030.84 1465.78,358.766 279.037,358.766 "/>
<circle clip-path="url(#clip462)" style="fill:#ffff00; stroke:none; fill-opacity:0" cx="872.409" cy="358.766" r="2"/>
<path clip-path="url(#clip462)" d="M279.037 1030.84 L279.037 1546.86 L1465.78 1546.86 L1465.78 1030.84 L279.037 1030.84 L279.037 1030.84  Z" fill="#00bfff" fill-rule="evenodd" fill-opacity="1"/>
<polyline clip-path="url(#clip462)" style="stroke:#000000; stroke-linecap:round; stroke-linejoin:round; stroke-width:4; stroke-opacity:1; fill:none" points="279.037,1030.84 279.037,1546.86 1465.78,1546.86 1465.78,1030.84 279.037,1030.84 "/>
<circle clip-path="url(#clip462)" style="fill:#00bfff; stroke:none; fill-opacity:0" cx="872.409" cy="1030.84" r="2"/>
<path clip-path="url(#clip462)" d="M279.037 1546.86 L279.037 1752.76 L1465.78 1752.76 L1465.78 1546.86 L279.037 1546.86 L279.037 1546.86  Z" fill="#cd3278" fill-rule="evenodd" fill-opacity="1"/>
<polyline clip-path="url(#clip462)" style="stroke:#000000; stroke-linecap:round; stroke-linejoin:round; stroke-width:4; stroke-opacity:1; fill:none" points="279.037,1546.86 279.037,1752.76 1465.78,1752.76 1465.78,1546.86 279.037,1546.86 "/>
<circle clip-path="url(#clip462)" style="fill:#cd3278; stroke:none; fill-opacity:0" cx="872.409" cy="1546.86" r="2"/>
<path clip-path="url(#clip460)" d="M1087.88 441.941 L1494.67 441.941 L1494.67 182.741 L1087.88 182.741  Z" fill="#ffffff" fill-rule="evenodd" fill-opacity="1"/>
<polyline clip-path="url(#clip460)" style="stroke:#000000; stroke-linecap:round; stroke-linejoin:round; stroke-width:4; stroke-opacity:1; fill:none" points="1087.88,441.941 1494.67,441.941 1494.67,182.741 1087.88,182.741 1087.88,441.941 "/>
<path clip-path="url(#clip460)" d="M1102.7 255.317 L1191.59 255.317 L1191.59 213.845 L1102.7 213.845 L1102.7 255.317  Z" fill="#c0c0c0" fill-rule="evenodd" fill-opacity="1"/>
<polyline clip-path="url(#clip460)" style="stroke:#000000; stroke-linecap:round; stroke-linejoin:round; stroke-width:4; stroke-opacity:1; fill:none" points="1102.7,255.317 1191.59,255.317 1191.59,213.845 1102.7,213.845 1102.7,255.317 "/>
<path clip-path="url(#clip460)" d="M1206.41 217.301 L1212.71 217.301 L1228.03 246.212 L1228.03 217.301 L1232.57 217.301 L1232.57 251.861 L1226.27 251.861 L1210.95 222.949 L1210.95 251.861 L1206.41 251.861 L1206.41 217.301 Z" fill="#000000" fill-rule="nonzero" fill-opacity="1" /><path clip-path="url(#clip460)" d="M1253.47 238.828 Q1248.31 238.828 1246.32 240.009 Q1244.33 241.189 1244.33 244.037 Q1244.33 246.305 1245.81 247.648 Q1247.31 248.967 1249.88 248.967 Q1253.42 248.967 1255.55 246.467 Q1257.71 243.944 1257.71 239.777 L1257.71 238.828 L1253.47 238.828 M1261.97 237.069 L1261.97 251.861 L1257.71 251.861 L1257.71 247.925 Q1256.25 250.287 1254.07 251.421 Q1251.9 252.532 1248.75 252.532 Q1244.77 252.532 1242.41 250.31 Q1240.07 248.064 1240.07 244.314 Q1240.07 239.939 1242.98 237.717 Q1245.92 235.495 1251.73 235.495 L1257.71 235.495 L1257.71 235.078 Q1257.71 232.138 1255.76 230.541 Q1253.84 228.921 1250.35 228.921 Q1248.12 228.921 1246.02 229.453 Q1243.91 229.986 1241.97 231.051 L1241.97 227.115 Q1244.3 226.213 1246.5 225.773 Q1248.7 225.31 1250.79 225.31 Q1256.41 225.31 1259.19 228.226 Q1261.97 231.143 1261.97 237.069 Z" fill="#000000" fill-rule="nonzero" fill-opacity="1" /><path clip-path="url(#clip460)" d="M1274.95 218.574 L1274.95 225.935 L1283.73 225.935 L1283.73 229.245 L1274.95 229.245 L1274.95 243.319 Q1274.95 246.49 1275.81 247.393 Q1276.69 248.296 1279.35 248.296 L1283.73 248.296 L1283.73 251.861 L1279.35 251.861 Q1274.42 251.861 1272.54 250.032 Q1270.67 248.18 1270.67 243.319 L1270.67 229.245 L1267.54 229.245 L1267.54 225.935 L1270.67 225.935 L1270.67 218.574 L1274.95 218.574 Z" fill="#000000" fill-rule="nonzero" fill-opacity="1" /><path clip-path="url(#clip460)" d="M1288.89 241.629 L1288.89 225.935 L1293.15 225.935 L1293.15 241.467 Q1293.15 245.148 1294.58 247 Q1296.02 248.828 1298.89 248.828 Q1302.34 248.828 1304.33 246.629 Q1306.34 244.43 1306.34 240.634 L1306.34 225.935 L1310.6 225.935 L1310.6 251.861 L1306.34 251.861 L1306.34 247.879 Q1304.79 250.24 1302.73 251.398 Q1300.69 252.532 1297.98 252.532 Q1293.52 252.532 1291.2 249.754 Q1288.89 246.976 1288.89 241.629 M1299.6 225.31 L1299.6 225.31 Z" fill="#000000" fill-rule="nonzero" fill-opacity="1" /><path clip-path="url(#clip460)" d="M1334.4 229.916 Q1333.68 229.5 1332.82 229.314 Q1331.99 229.106 1330.97 229.106 Q1327.36 229.106 1325.41 231.467 Q1323.49 233.805 1323.49 238.203 L1323.49 251.861 L1319.21 251.861 L1319.21 225.935 L1323.49 225.935 L1323.49 229.963 Q1324.84 227.601 1326.99 226.467 Q1329.14 225.31 1332.22 225.31 Q1332.66 225.31 1333.19 225.379 Q1333.72 225.426 1334.37 225.541 L1334.4 229.916 Z" fill="#000000" fill-rule="nonzero" fill-opacity="1" /><path clip-path="url(#clip460)" d="M1350.65 238.828 Q1345.48 238.828 1343.49 240.009 Q1341.5 241.189 1341.5 244.037 Q1341.5 246.305 1342.98 247.648 Q1344.49 248.967 1347.06 248.967 Q1350.6 248.967 1352.73 246.467 Q1354.88 243.944 1354.88 239.777 L1354.88 238.828 L1350.65 238.828 M1359.14 237.069 L1359.14 251.861 L1354.88 251.861 L1354.88 247.925 Q1353.42 250.287 1351.25 251.421 Q1349.07 252.532 1345.92 252.532 Q1341.94 252.532 1339.58 250.31 Q1337.24 248.064 1337.24 244.314 Q1337.24 239.939 1340.16 237.717 Q1343.1 235.495 1348.91 235.495 L1354.88 235.495 L1354.88 235.078 Q1354.88 232.138 1352.94 230.541 Q1351.02 228.921 1347.52 228.921 Q1345.3 228.921 1343.19 229.453 Q1341.09 229.986 1339.14 231.051 L1339.14 227.115 Q1341.48 226.213 1343.68 225.773 Q1345.88 225.31 1347.96 225.31 Q1353.59 225.31 1356.36 228.226 Q1359.14 231.143 1359.14 237.069 Z" fill="#000000" fill-rule="nonzero" fill-opacity="1" /><path clip-path="url(#clip460)" d="M1367.91 215.842 L1372.17 215.842 L1372.17 251.861 L1367.91 251.861 L1367.91 215.842 Z" fill="#000000" fill-rule="nonzero" fill-opacity="1" /><path clip-path="url(#clip460)" d="M1419.9 246.93 L1419.9 237.648 L1412.27 237.648 L1412.27 233.805 L1424.53 233.805 L1424.53 248.643 Q1421.83 250.564 1418.56 251.56 Q1415.3 252.532 1411.59 252.532 Q1403.49 252.532 1398.91 247.81 Q1394.35 243.064 1394.35 234.615 Q1394.35 226.143 1398.91 221.421 Q1403.49 216.676 1411.59 216.676 Q1414.97 216.676 1418.01 217.509 Q1421.06 218.342 1423.63 219.963 L1423.63 224.939 Q1421.04 222.74 1418.12 221.629 Q1415.21 220.518 1411.99 220.518 Q1405.65 220.518 1402.45 224.06 Q1399.28 227.601 1399.28 234.615 Q1399.28 241.606 1402.45 245.148 Q1405.65 248.689 1411.99 248.689 Q1414.47 248.689 1416.41 248.273 Q1418.35 247.833 1419.9 246.93 Z" fill="#000000" fill-rule="nonzero" fill-opacity="1" /><path clip-path="url(#clip460)" d="M1444.67 238.828 Q1439.51 238.828 1437.52 240.009 Q1435.53 241.189 1435.53 244.037 Q1435.53 246.305 1437.01 247.648 Q1438.52 248.967 1441.09 248.967 Q1444.63 248.967 1446.76 246.467 Q1448.91 243.944 1448.91 239.777 L1448.91 238.828 L1444.67 238.828 M1453.17 237.069 L1453.17 251.861 L1448.91 251.861 L1448.91 247.925 Q1447.45 250.287 1445.28 251.421 Q1443.1 252.532 1439.95 252.532 Q1435.97 252.532 1433.61 250.31 Q1431.27 248.064 1431.27 244.314 Q1431.27 239.939 1434.19 237.717 Q1437.13 235.495 1442.94 235.495 L1448.91 235.495 L1448.91 235.078 Q1448.91 232.138 1446.97 230.541 Q1445.04 228.921 1441.55 228.921 Q1439.33 228.921 1437.22 229.453 Q1435.11 229.986 1433.17 231.051 L1433.17 227.115 Q1435.51 226.213 1437.71 225.773 Q1439.9 225.31 1441.99 225.31 Q1447.61 225.31 1450.39 228.226 Q1453.17 231.143 1453.17 237.069 Z" fill="#000000" fill-rule="nonzero" fill-opacity="1" /><path clip-path="url(#clip460)" d="M1478.47 226.699 L1478.47 230.726 Q1476.66 229.801 1474.72 229.338 Q1472.78 228.875 1470.69 228.875 Q1467.52 228.875 1465.92 229.847 Q1464.35 230.819 1464.35 232.763 Q1464.35 234.245 1465.48 235.101 Q1466.62 235.935 1470.04 236.699 L1471.5 237.023 Q1476.04 237.995 1477.94 239.777 Q1479.86 241.537 1479.86 244.708 Q1479.86 248.319 1476.99 250.425 Q1474.14 252.532 1469.14 252.532 Q1467.06 252.532 1464.79 252.115 Q1462.54 251.722 1460.04 250.912 L1460.04 246.513 Q1462.4 247.74 1464.7 248.365 Q1466.99 248.967 1469.23 248.967 Q1472.24 248.967 1473.86 247.949 Q1475.48 246.907 1475.48 245.032 Q1475.48 243.296 1474.3 242.37 Q1473.15 241.444 1469.19 240.587 L1467.71 240.24 Q1463.75 239.407 1461.99 237.694 Q1460.23 235.958 1460.23 232.949 Q1460.23 229.291 1462.82 227.301 Q1465.41 225.31 1470.18 225.31 Q1472.54 225.31 1474.63 225.657 Q1476.71 226.004 1478.47 226.699 Z" fill="#000000" fill-rule="nonzero" fill-opacity="1" /><path clip-path="url(#clip460)" d="M1102.7 307.157 L1191.59 307.157 L1191.59 265.685 L1102.7 265.685 L1102.7 307.157  Z" fill="#ffff00" fill-rule="evenodd" fill-opacity="1"/>
<polyline clip-path="url(#clip460)" style="stroke:#000000; stroke-linecap:round; stroke-linejoin:round; stroke-width:4; stroke-opacity:1; fill:none" points="1102.7,307.157 1191.59,307.157 1191.59,265.685 1102.7,265.685 1102.7,307.157 "/>
<path clip-path="url(#clip460)" d="M1228.66 270.275 L1228.66 274.835 Q1225.99 273.562 1223.63 272.937 Q1221.27 272.312 1219.07 272.312 Q1215.25 272.312 1213.17 273.793 Q1211.11 275.275 1211.11 278.006 Q1211.11 280.298 1212.48 281.478 Q1213.86 282.636 1217.71 283.353 L1220.53 283.932 Q1225.76 284.928 1228.24 287.451 Q1230.74 289.951 1230.74 294.164 Q1230.74 299.187 1227.36 301.779 Q1224 304.372 1217.5 304.372 Q1215.04 304.372 1212.27 303.816 Q1209.51 303.261 1206.55 302.173 L1206.55 297.358 Q1209.4 298.955 1212.13 299.765 Q1214.86 300.576 1217.5 300.576 Q1221.5 300.576 1223.68 299.002 Q1225.86 297.427 1225.86 294.511 Q1225.86 291.965 1224.28 290.529 Q1222.73 289.094 1219.17 288.377 L1216.32 287.821 Q1211.09 286.779 1208.75 284.557 Q1206.41 282.335 1206.41 278.377 Q1206.41 273.793 1209.63 271.154 Q1212.87 268.516 1218.54 268.516 Q1220.97 268.516 1223.49 268.955 Q1226.02 269.395 1228.66 270.275 Z" fill="#000000" fill-rule="nonzero" fill-opacity="1" /><path clip-path="url(#clip460)" d="M1247.89 280.761 Q1244.47 280.761 1242.48 283.446 Q1240.48 286.108 1240.48 290.761 Q1240.48 295.414 1242.45 298.099 Q1244.44 300.761 1247.89 300.761 Q1251.29 300.761 1253.29 298.076 Q1255.28 295.39 1255.28 290.761 Q1255.28 286.154 1253.29 283.469 Q1251.29 280.761 1247.89 280.761 M1247.89 277.15 Q1253.45 277.15 1256.62 280.761 Q1259.79 284.372 1259.79 290.761 Q1259.79 297.127 1256.62 300.761 Q1253.45 304.372 1247.89 304.372 Q1242.31 304.372 1239.14 300.761 Q1235.99 297.127 1235.99 290.761 Q1235.99 284.372 1239.14 280.761 Q1242.31 277.15 1247.89 277.15 Z" fill="#000000" fill-rule="nonzero" fill-opacity="1" /><path clip-path="url(#clip460)" d="M1266.85 267.682 L1271.11 267.682 L1271.11 303.701 L1266.85 303.701 L1266.85 267.682 Z" fill="#000000" fill-rule="nonzero" fill-opacity="1" /><path clip-path="url(#clip460)" d="M1291.8 290.668 Q1286.64 290.668 1284.65 291.849 Q1282.66 293.029 1282.66 295.877 Q1282.66 298.145 1284.14 299.488 Q1285.65 300.807 1288.22 300.807 Q1291.76 300.807 1293.89 298.307 Q1296.04 295.784 1296.04 291.617 L1296.04 290.668 L1291.8 290.668 M1300.3 288.909 L1300.3 303.701 L1296.04 303.701 L1296.04 299.765 Q1294.58 302.127 1292.41 303.261 Q1290.23 304.372 1287.08 304.372 Q1283.1 304.372 1280.74 302.15 Q1278.4 299.904 1278.4 296.154 Q1278.4 291.779 1281.32 289.557 Q1284.26 287.335 1290.07 287.335 L1296.04 287.335 L1296.04 286.918 Q1296.04 283.978 1294.1 282.381 Q1292.17 280.761 1288.68 280.761 Q1286.46 280.761 1284.35 281.293 Q1282.24 281.826 1280.3 282.891 L1280.3 278.955 Q1282.64 278.053 1284.84 277.613 Q1287.04 277.15 1289.12 277.15 Q1294.74 277.15 1297.52 280.066 Q1300.3 282.983 1300.3 288.909 Z" fill="#000000" fill-rule="nonzero" fill-opacity="1" /><path clip-path="url(#clip460)" d="M1324.1 281.756 Q1323.38 281.34 1322.52 281.154 Q1321.69 280.946 1320.67 280.946 Q1317.06 280.946 1315.11 283.307 Q1313.19 285.645 1313.19 290.043 L1313.19 303.701 L1308.91 303.701 L1308.91 277.775 L1313.19 277.775 L1313.19 281.803 Q1314.54 279.441 1316.69 278.307 Q1318.84 277.15 1321.92 277.15 Q1322.36 277.15 1322.89 277.219 Q1323.42 277.266 1324.07 277.381 L1324.1 281.756 Z" fill="#000000" fill-rule="nonzero" fill-opacity="1" /><path clip-path="url(#clip460)" d="M1102.7 358.997 L1191.59 358.997 L1191.59 317.525 L1102.7 317.525 L1102.7 358.997  Z" fill="#00bfff" fill-rule="evenodd" fill-opacity="1"/>
<polyline clip-path="url(#clip460)" style="stroke:#000000; stroke-linecap:round; stroke-linejoin:round; stroke-width:4; stroke-opacity:1; fill:none" points="1102.7,358.997 1191.59,358.997 1191.59,317.525 1102.7,317.525 1102.7,358.997 "/>
<path clip-path="url(#clip460)" d="M1206.41 320.981 L1211.13 320.981 L1218.4 350.193 L1225.65 320.981 L1230.9 320.981 L1238.17 350.193 L1245.42 320.981 L1250.16 320.981 L1241.48 355.541 L1235.6 355.541 L1228.31 325.541 L1220.95 355.541 L1215.07 355.541 L1206.41 320.981 Z" fill="#000000" fill-rule="nonzero" fill-opacity="1" /><path clip-path="url(#clip460)" d="M1255.14 329.615 L1259.4 329.615 L1259.4 355.541 L1255.14 355.541 L1255.14 329.615 M1255.14 319.522 L1259.4 319.522 L1259.4 324.916 L1255.14 324.916 L1255.14 319.522 Z" fill="#000000" fill-rule="nonzero" fill-opacity="1" /><path clip-path="url(#clip460)" d="M1289.86 339.893 L1289.86 355.541 L1285.6 355.541 L1285.6 340.031 Q1285.6 336.351 1284.16 334.522 Q1282.73 332.693 1279.86 332.693 Q1276.41 332.693 1274.42 334.893 Q1272.43 337.092 1272.43 340.888 L1272.43 355.541 L1268.15 355.541 L1268.15 329.615 L1272.43 329.615 L1272.43 333.643 Q1273.96 331.305 1276.02 330.147 Q1278.1 328.99 1280.81 328.99 Q1285.28 328.99 1287.57 331.768 Q1289.86 334.522 1289.86 339.893 Z" fill="#000000" fill-rule="nonzero" fill-opacity="1" /><path clip-path="url(#clip460)" d="M1315.41 333.55 L1315.41 319.522 L1319.67 319.522 L1319.67 355.541 L1315.41 355.541 L1315.41 351.652 Q1314.07 353.967 1312.01 355.101 Q1309.98 356.212 1307.1 356.212 Q1302.41 356.212 1299.44 352.462 Q1296.5 348.712 1296.5 342.601 Q1296.5 336.49 1299.44 332.74 Q1302.41 328.99 1307.1 328.99 Q1309.98 328.99 1312.01 330.124 Q1314.07 331.235 1315.41 333.55 M1300.9 342.601 Q1300.9 347.3 1302.82 349.985 Q1304.77 352.647 1308.15 352.647 Q1311.53 352.647 1313.47 349.985 Q1315.41 347.3 1315.41 342.601 Q1315.41 337.902 1313.47 335.24 Q1311.53 332.555 1308.15 332.555 Q1304.77 332.555 1302.82 335.24 Q1300.9 337.902 1300.9 342.601 Z" fill="#000000" fill-rule="nonzero" fill-opacity="1" /><path clip-path="url(#clip460)" d="M1102.7 410.837 L1191.59 410.837 L1191.59 369.365 L1102.7 369.365 L1102.7 410.837  Z" fill="#cd3278" fill-rule="evenodd" fill-opacity="1"/>
<polyline clip-path="url(#clip460)" style="stroke:#000000; stroke-linecap:round; stroke-linejoin:round; stroke-width:4; stroke-opacity:1; fill:none" points="1102.7,410.837 1191.59,410.837 1191.59,369.365 1102.7,369.365 1102.7,410.837 "/>
<path clip-path="url(#clip460)" d="M1211.09 390.876 L1211.09 403.538 L1218.59 403.538 Q1222.36 403.538 1224.17 401.987 Q1225.99 400.413 1225.99 397.195 Q1225.99 393.955 1224.17 392.427 Q1222.36 390.876 1218.59 390.876 L1211.09 390.876 M1211.09 376.663 L1211.09 387.08 L1218.01 387.08 Q1221.43 387.08 1223.1 385.807 Q1224.79 384.51 1224.79 381.871 Q1224.79 379.256 1223.1 377.959 Q1221.43 376.663 1218.01 376.663 L1211.09 376.663 M1206.41 372.821 L1218.36 372.821 Q1223.7 372.821 1226.6 375.043 Q1229.49 377.265 1229.49 381.362 Q1229.49 384.533 1228.01 386.408 Q1226.53 388.283 1223.66 388.746 Q1227.11 389.487 1229 391.848 Q1230.92 394.186 1230.92 397.705 Q1230.92 402.334 1227.78 404.857 Q1224.63 407.381 1218.82 407.381 L1206.41 407.381 L1206.41 372.821 Z" fill="#000000" fill-rule="nonzero" fill-opacity="1" /><path clip-path="url(#clip460)" d="M1250.53 394.348 Q1245.37 394.348 1243.38 395.529 Q1241.39 396.709 1241.39 399.557 Q1241.39 401.825 1242.87 403.168 Q1244.37 404.487 1246.94 404.487 Q1250.48 404.487 1252.61 401.987 Q1254.77 399.464 1254.77 395.297 L1254.77 394.348 L1250.53 394.348 M1259.03 392.589 L1259.03 407.381 L1254.77 407.381 L1254.77 403.445 Q1253.31 405.807 1251.13 406.941 Q1248.96 408.052 1245.81 408.052 Q1241.83 408.052 1239.47 405.83 Q1237.13 403.584 1237.13 399.834 Q1237.13 395.459 1240.04 393.237 Q1242.98 391.015 1248.79 391.015 L1254.77 391.015 L1254.77 390.598 Q1254.77 387.658 1252.82 386.061 Q1250.9 384.441 1247.41 384.441 Q1245.18 384.441 1243.08 384.973 Q1240.97 385.506 1239.03 386.571 L1239.03 382.635 Q1241.36 381.733 1243.56 381.293 Q1245.76 380.83 1247.85 380.83 Q1253.47 380.83 1256.25 383.746 Q1259.03 386.663 1259.03 392.589 Z" fill="#000000" fill-rule="nonzero" fill-opacity="1" /><path clip-path="url(#clip460)" d="M1272.01 374.094 L1272.01 381.455 L1280.79 381.455 L1280.79 384.765 L1272.01 384.765 L1272.01 398.839 Q1272.01 402.01 1272.87 402.913 Q1273.75 403.816 1276.41 403.816 L1280.79 403.816 L1280.79 407.381 L1276.41 407.381 Q1271.48 407.381 1269.6 405.552 Q1267.73 403.7 1267.73 398.839 L1267.73 384.765 L1264.6 384.765 L1264.6 381.455 L1267.73 381.455 L1267.73 374.094 L1272.01 374.094 Z" fill="#000000" fill-rule="nonzero" fill-opacity="1" /><path clip-path="url(#clip460)" d="M1290.6 374.094 L1290.6 381.455 L1299.37 381.455 L1299.37 384.765 L1290.6 384.765 L1290.6 398.839 Q1290.6 402.01 1291.46 402.913 Q1292.34 403.816 1295 403.816 L1299.37 403.816 L1299.37 407.381 L1295 407.381 Q1290.07 407.381 1288.19 405.552 Q1286.32 403.7 1286.32 398.839 L1286.32 384.765 L1283.19 384.765 L1283.19 381.455 L1286.32 381.455 L1286.32 374.094 L1290.6 374.094 Z" fill="#000000" fill-rule="nonzero" fill-opacity="1" /><path clip-path="url(#clip460)" d="M1327.15 393.353 L1327.15 395.436 L1307.57 395.436 Q1307.85 399.834 1310.21 402.149 Q1312.59 404.441 1316.83 404.441 Q1319.28 404.441 1321.57 403.839 Q1323.89 403.237 1326.16 402.033 L1326.16 406.061 Q1323.86 407.033 1321.46 407.543 Q1319.05 408.052 1316.57 408.052 Q1310.37 408.052 1306.73 404.441 Q1303.12 400.83 1303.12 394.672 Q1303.12 388.307 1306.55 384.58 Q1310 380.83 1315.83 380.83 Q1321.06 380.83 1324.1 384.209 Q1327.15 387.566 1327.15 393.353 M1322.89 392.103 Q1322.85 388.608 1320.92 386.524 Q1319.03 384.441 1315.88 384.441 Q1312.31 384.441 1310.16 386.455 Q1308.03 388.469 1307.71 392.126 L1322.89 392.103 Z" fill="#000000" fill-rule="nonzero" fill-opacity="1" /><path clip-path="url(#clip460)" d="M1349.16 385.436 Q1348.45 385.02 1347.59 384.834 Q1346.76 384.626 1345.74 384.626 Q1342.13 384.626 1340.18 386.987 Q1338.26 389.325 1338.26 393.723 L1338.26 407.381 L1333.98 407.381 L1333.98 381.455 L1338.26 381.455 L1338.26 385.483 Q1339.6 383.121 1341.76 381.987 Q1343.91 380.83 1346.99 380.83 Q1347.43 380.83 1347.96 380.899 Q1348.49 380.946 1349.14 381.061 L1349.16 385.436 Z" fill="#000000" fill-rule="nonzero" fill-opacity="1" /><path clip-path="url(#clip460)" d="M1364.42 409.788 Q1362.61 414.418 1360.9 415.83 Q1359.19 417.242 1356.32 417.242 L1352.91 417.242 L1352.91 413.677 L1355.41 413.677 Q1357.17 413.677 1358.15 412.844 Q1359.12 412.01 1360.3 408.908 L1361.06 406.964 L1350.58 381.455 L1355.09 381.455 L1363.19 401.732 L1371.29 381.455 L1375.81 381.455 L1364.42 409.788 Z" fill="#000000" fill-rule="nonzero" fill-opacity="1" /><path clip-path="url(#clip460)" d="M1819.33 1752.76 L3152.76 1752.76 L3152.76 128.602 L1819.33 128.602  Z" fill="#ffffff" fill-rule="evenodd" fill-opacity="1"/>
<defs>
  <clipPath id="clip463">
    <rect x="1819" y="128" width="1334" height="1625"/>
  </clipPath>
</defs>
<polyline clip-path="url(#clip460)" style="stroke:#000000; stroke-linecap:round; stroke-linejoin:round; stroke-width:4; stroke-opacity:1; fill:none" points="1819.33,1752.76 3152.76,1752.76 "/>
<polyline clip-path="url(#clip463)" style="stroke:#000000; stroke-linecap:round; stroke-linejoin:round; stroke-width:2; stroke-opacity:0.1; fill:none" points="1819.33,1459.08 3152.76,1459.08 "/>
<polyline clip-path="url(#clip463)" style="stroke:#000000; stroke-linecap:round; stroke-linejoin:round; stroke-width:2; stroke-opacity:0.1; fill:none" points="1819.33,1165.4 3152.76,1165.4 "/>
<polyline clip-path="url(#clip463)" style="stroke:#000000; stroke-linecap:round; stroke-linejoin:round; stroke-width:2; stroke-opacity:0.1; fill:none" points="1819.33,871.725 3152.76,871.725 "/>
<polyline clip-path="url(#clip463)" style="stroke:#000000; stroke-linecap:round; stroke-linejoin:round; stroke-width:2; stroke-opacity:0.1; fill:none" points="1819.33,578.048 3152.76,578.048 "/>
<polyline clip-path="url(#clip463)" style="stroke:#000000; stroke-linecap:round; stroke-linejoin:round; stroke-width:2; stroke-opacity:0.1; fill:none" points="1819.33,284.371 3152.76,284.371 "/>
<polyline clip-path="url(#clip460)" style="stroke:#000000; stroke-linecap:round; stroke-linejoin:round; stroke-width:4; stroke-opacity:1; fill:none" points="1819.33,1752.76 1819.33,128.602 "/>
<polyline clip-path="url(#clip460)" style="stroke:#000000; stroke-linecap:round; stroke-linejoin:round; stroke-width:4; stroke-opacity:1; fill:none" points="1819.33,1459.08 1838.23,1459.08 "/>
<polyline clip-path="url(#clip460)" style="stroke:#000000; stroke-linecap:round; stroke-linejoin:round; stroke-width:4; stroke-opacity:1; fill:none" points="1819.33,1165.4 1838.23,1165.4 "/>
<polyline clip-path="url(#clip460)" style="stroke:#000000; stroke-linecap:round; stroke-linejoin:round; stroke-width:4; stroke-opacity:1; fill:none" points="1819.33,871.725 1838.23,871.725 "/>
<polyline clip-path="url(#clip460)" style="stroke:#000000; stroke-linecap:round; stroke-linejoin:round; stroke-width:4; stroke-opacity:1; fill:none" points="1819.33,578.048 1838.23,578.048 "/>
<polyline clip-path="url(#clip460)" style="stroke:#000000; stroke-linecap:round; stroke-linejoin:round; stroke-width:4; stroke-opacity:1; fill:none" points="1819.33,284.371 1838.23,284.371 "/>
<path clip-path="url(#clip460)" d="M1733.39 1457.72 Q1736.75 1458.44 1738.62 1460.71 Q1740.52 1462.98 1740.52 1466.31 Q1740.52 1471.43 1737 1474.23 Q1733.48 1477.03 1727 1477.03 Q1724.83 1477.03 1722.51 1476.59 Q1720.22 1476.17 1717.77 1475.32 L1717.77 1470.8 Q1719.71 1471.94 1722.02 1472.52 Q1724.34 1473.1 1726.86 1473.1 Q1731.26 1473.1 1733.55 1471.36 Q1735.87 1469.62 1735.87 1466.31 Q1735.87 1463.26 1733.71 1461.54 Q1731.59 1459.81 1727.77 1459.81 L1723.74 1459.81 L1723.74 1455.97 L1727.95 1455.97 Q1731.4 1455.97 1733.23 1454.6 Q1735.06 1453.21 1735.06 1450.62 Q1735.06 1447.96 1733.16 1446.54 Q1731.28 1445.11 1727.77 1445.11 Q1725.84 1445.11 1723.65 1445.53 Q1721.45 1445.94 1718.81 1446.82 L1718.81 1442.66 Q1721.47 1441.91 1723.78 1441.54 Q1726.12 1441.17 1728.18 1441.17 Q1733.51 1441.17 1736.61 1443.6 Q1739.71 1446.01 1739.71 1450.13 Q1739.71 1453 1738.07 1454.99 Q1736.42 1456.96 1733.39 1457.72 Z" fill="#000000" fill-rule="nonzero" fill-opacity="1" /><path clip-path="url(#clip460)" d="M1759.39 1444.88 Q1755.77 1444.88 1753.95 1448.44 Q1752.14 1451.98 1752.14 1459.11 Q1752.14 1466.22 1753.95 1469.78 Q1755.77 1473.33 1759.39 1473.33 Q1763.02 1473.33 1764.83 1469.78 Q1766.65 1466.22 1766.65 1459.11 Q1766.65 1451.98 1764.83 1448.44 Q1763.02 1444.88 1759.39 1444.88 M1759.39 1441.17 Q1765.2 1441.17 1768.25 1445.78 Q1771.33 1450.36 1771.33 1459.11 Q1771.33 1467.84 1768.25 1472.45 Q1765.2 1477.03 1759.39 1477.03 Q1753.58 1477.03 1750.5 1472.45 Q1747.44 1467.84 1747.44 1459.11 Q1747.44 1450.36 1750.5 1445.78 Q1753.58 1441.17 1759.39 1441.17 Z" fill="#000000" fill-rule="nonzero" fill-opacity="1" /><path clip-path="url(#clip460)" d="M1729.8 1163.54 Q1726.65 1163.54 1724.8 1165.69 Q1722.97 1167.84 1722.97 1171.59 Q1722.97 1175.32 1724.8 1177.5 Q1726.65 1179.65 1729.8 1179.65 Q1732.95 1179.65 1734.78 1177.5 Q1736.63 1175.32 1736.63 1171.59 Q1736.63 1167.84 1734.78 1165.69 Q1732.95 1163.54 1729.8 1163.54 M1739.08 1148.89 L1739.08 1153.15 Q1737.33 1152.31 1735.52 1151.87 Q1733.74 1151.43 1731.98 1151.43 Q1727.35 1151.43 1724.9 1154.56 Q1722.46 1157.68 1722.12 1164 Q1723.48 1161.99 1725.54 1160.92 Q1727.6 1159.83 1730.08 1159.83 Q1735.29 1159.83 1738.3 1163.01 Q1741.33 1166.15 1741.33 1171.59 Q1741.33 1176.92 1738.18 1180.14 Q1735.03 1183.35 1729.8 1183.35 Q1723.81 1183.35 1720.64 1178.77 Q1717.46 1174.16 1717.46 1165.44 Q1717.46 1157.24 1721.35 1152.38 Q1725.24 1147.5 1731.79 1147.5 Q1733.55 1147.5 1735.33 1147.84 Q1737.14 1148.19 1739.08 1148.89 Z" fill="#000000" fill-rule="nonzero" fill-opacity="1" /><path clip-path="url(#clip460)" d="M1759.39 1151.2 Q1755.77 1151.2 1753.95 1154.77 Q1752.14 1158.31 1752.14 1165.44 Q1752.14 1172.54 1753.95 1176.11 Q1755.77 1179.65 1759.39 1179.65 Q1763.02 1179.65 1764.83 1176.11 Q1766.65 1172.54 1766.65 1165.44 Q1766.65 1158.31 1764.83 1154.77 Q1763.02 1151.2 1759.39 1151.2 M1759.39 1147.5 Q1765.2 1147.5 1768.25 1152.1 Q1771.33 1156.69 1771.33 1165.44 Q1771.33 1174.16 1768.25 1178.77 Q1765.2 1183.35 1759.39 1183.35 Q1753.58 1183.35 1750.5 1178.77 Q1747.44 1174.16 1747.44 1165.44 Q1747.44 1156.69 1750.5 1152.1 Q1753.58 1147.5 1759.39 1147.5 Z" fill="#000000" fill-rule="nonzero" fill-opacity="1" /><path clip-path="url(#clip460)" d="M1719.36 888.287 L1719.36 884.028 Q1721.12 884.861 1722.93 885.301 Q1724.73 885.741 1726.47 885.741 Q1731.1 885.741 1733.53 882.639 Q1735.98 879.514 1736.33 873.172 Q1734.99 875.162 1732.93 876.227 Q1730.87 877.292 1728.37 877.292 Q1723.18 877.292 1720.15 874.167 Q1717.14 871.019 1717.14 865.579 Q1717.14 860.255 1720.29 857.037 Q1723.44 853.82 1728.67 853.82 Q1734.66 853.82 1737.81 858.426 Q1740.98 863.01 1740.98 871.76 Q1740.98 879.931 1737.09 884.815 Q1733.23 889.676 1726.68 889.676 Q1724.92 889.676 1723.11 889.329 Q1721.31 888.982 1719.36 888.287 M1728.67 873.635 Q1731.82 873.635 1733.65 871.482 Q1735.5 869.329 1735.5 865.579 Q1735.5 861.852 1733.65 859.699 Q1731.82 857.524 1728.67 857.524 Q1725.52 857.524 1723.67 859.699 Q1721.84 861.852 1721.84 865.579 Q1721.84 869.329 1723.67 871.482 Q1725.52 873.635 1728.67 873.635 Z" fill="#000000" fill-rule="nonzero" fill-opacity="1" /><path clip-path="url(#clip460)" d="M1759.39 857.524 Q1755.77 857.524 1753.95 861.088 Q1752.14 864.63 1752.14 871.76 Q1752.14 878.866 1753.95 882.431 Q1755.77 885.972 1759.39 885.972 Q1763.02 885.972 1764.83 882.431 Q1766.65 878.866 1766.65 871.76 Q1766.65 864.63 1764.83 861.088 Q1763.02 857.524 1759.39 857.524 M1759.39 853.82 Q1765.2 853.82 1768.25 858.426 Q1771.33 863.01 1771.33 871.76 Q1771.33 880.486 1768.25 885.093 Q1765.2 889.676 1759.39 889.676 Q1753.58 889.676 1750.5 885.093 Q1747.44 880.486 1747.44 871.76 Q1747.44 863.01 1750.5 858.426 Q1753.58 853.82 1759.39 853.82 Z" fill="#000000" fill-rule="nonzero" fill-opacity="1" /><path clip-path="url(#clip460)" d="M1689.87 591.393 L1697.51 591.393 L1697.51 565.027 L1689.2 566.694 L1689.2 562.435 L1697.46 560.768 L1702.14 560.768 L1702.14 591.393 L1709.78 591.393 L1709.78 595.328 L1689.87 595.328 L1689.87 591.393 Z" fill="#000000" fill-rule="nonzero" fill-opacity="1" /><path clip-path="url(#clip460)" d="M1723.25 591.393 L1739.57 591.393 L1739.57 595.328 L1717.63 595.328 L1717.63 591.393 Q1720.29 588.638 1724.87 584.008 Q1729.48 579.356 1730.66 578.013 Q1732.9 575.49 1733.78 573.754 Q1734.69 571.995 1734.69 570.305 Q1734.69 567.55 1732.74 565.814 Q1730.82 564.078 1727.72 564.078 Q1725.52 564.078 1723.07 564.842 Q1720.64 565.606 1717.86 567.157 L1717.86 562.435 Q1720.68 561.3 1723.14 560.722 Q1725.59 560.143 1727.63 560.143 Q1733 560.143 1736.19 562.828 Q1739.39 565.513 1739.39 570.004 Q1739.39 572.134 1738.58 574.055 Q1737.79 575.953 1735.68 578.546 Q1735.1 579.217 1732 582.434 Q1728.9 585.629 1723.25 591.393 Z" fill="#000000" fill-rule="nonzero" fill-opacity="1" /><path clip-path="url(#clip460)" d="M1759.39 563.847 Q1755.77 563.847 1753.95 567.411 Q1752.14 570.953 1752.14 578.083 Q1752.14 585.189 1753.95 588.754 Q1755.77 592.295 1759.39 592.295 Q1763.02 592.295 1764.83 588.754 Q1766.65 585.189 1766.65 578.083 Q1766.65 570.953 1764.83 567.411 Q1763.02 563.847 1759.39 563.847 M1759.39 560.143 Q1765.2 560.143 1768.25 564.749 Q1771.33 569.333 1771.33 578.083 Q1771.33 586.809 1768.25 591.416 Q1765.2 595.999 1759.39 595.999 Q1753.58 595.999 1750.5 591.416 Q1747.44 586.809 1747.44 578.083 Q1747.44 569.333 1750.5 564.749 Q1753.58 560.143 1759.39 560.143 Z" fill="#000000" fill-rule="nonzero" fill-opacity="1" /><path clip-path="url(#clip460)" d="M1689.87 297.716 L1697.51 297.716 L1697.51 271.35 L1689.2 273.017 L1689.2 268.758 L1697.46 267.091 L1702.14 267.091 L1702.14 297.716 L1709.78 297.716 L1709.78 301.651 L1689.87 301.651 L1689.87 297.716 Z" fill="#000000" fill-rule="nonzero" fill-opacity="1" /><path clip-path="url(#clip460)" d="M1719.27 267.091 L1737.63 267.091 L1737.63 271.026 L1723.55 271.026 L1723.55 279.498 Q1724.57 279.151 1725.59 278.989 Q1726.61 278.804 1727.63 278.804 Q1733.41 278.804 1736.79 281.975 Q1740.17 285.146 1740.17 290.563 Q1740.17 296.142 1736.7 299.243 Q1733.23 302.322 1726.91 302.322 Q1724.73 302.322 1722.46 301.952 Q1720.22 301.581 1717.81 300.841 L1717.81 296.142 Q1719.9 297.276 1722.12 297.831 Q1724.34 298.387 1726.82 298.387 Q1730.82 298.387 1733.16 296.281 Q1735.5 294.174 1735.5 290.563 Q1735.5 286.952 1733.16 284.845 Q1730.82 282.739 1726.82 282.739 Q1724.94 282.739 1723.07 283.156 Q1721.21 283.572 1719.27 284.452 L1719.27 267.091 Z" fill="#000000" fill-rule="nonzero" fill-opacity="1" /><path clip-path="url(#clip460)" d="M1759.39 270.17 Q1755.77 270.17 1753.95 273.734 Q1752.14 277.276 1752.14 284.406 Q1752.14 291.512 1753.95 295.077 Q1755.77 298.618 1759.39 298.618 Q1763.02 298.618 1764.83 295.077 Q1766.65 291.512 1766.65 284.406 Q1766.65 277.276 1764.83 273.734 Q1763.02 270.17 1759.39 270.17 M1759.39 266.466 Q1765.2 266.466 1768.25 271.072 Q1771.33 275.656 1771.33 284.406 Q1771.33 293.132 1768.25 297.739 Q1765.2 302.322 1759.39 302.322 Q1753.58 302.322 1750.5 297.739 Q1747.44 293.132 1747.44 284.406 Q1747.44 275.656 1750.5 271.072 Q1753.58 266.466 1759.39 266.466 Z" fill="#000000" fill-rule="nonzero" fill-opacity="1" /><path clip-path="url(#clip460)" d="M1620.17 960.126 L1607.4 960.126 L1607.4 970.63 L1602.12 970.63 L1602.12 953.761 L1622.52 953.761 Q1625.16 957.484 1626.53 961.972 Q1627.87 966.46 1627.87 971.553 Q1627.87 982.693 1621.37 988.995 Q1614.85 995.265 1603.23 995.265 Q1591.58 995.265 1585.09 988.995 Q1578.57 982.693 1578.57 971.553 Q1578.57 966.906 1579.71 962.736 Q1580.86 958.535 1583.09 955.002 L1589.93 955.002 Q1586.9 958.567 1585.38 962.577 Q1583.85 966.587 1583.85 971.012 Q1583.85 979.733 1588.72 984.125 Q1593.59 988.485 1603.23 988.485 Q1612.84 988.485 1617.71 984.125 Q1622.58 979.733 1622.58 971.012 Q1622.58 967.606 1622.01 964.932 Q1621.41 962.259 1620.17 960.126 Z" fill="#000000" fill-rule="nonzero" fill-opacity="1" /><path clip-path="url(#clip460)" d="M1579.42 946.249 L1579.42 939.756 L1619.59 929.762 L1579.42 919.799 L1579.42 912.574 L1619.59 902.58 L1579.42 892.618 L1579.42 886.093 L1626.94 898.029 L1626.94 906.113 L1585.7 916.139 L1626.94 926.261 L1626.94 934.345 L1579.42 946.249 Z" fill="#000000" fill-rule="nonzero" fill-opacity="1" /><path clip-path="url(#clip460)" d="M2317.87 24.3788 L2317.87 29.9256 Q2315.21 27.4517 2312.19 26.2277 Q2309.2 25.0038 2305.81 25.0038 Q2299.14 25.0038 2295.6 29.0923 Q2292.06 33.1548 2292.06 40.8631 Q2292.06 48.5453 2295.6 52.6338 Q2299.14 56.6963 2305.81 56.6963 Q2309.2 56.6963 2312.19 55.4724 Q2315.21 54.2484 2317.87 51.7745 L2317.87 57.2692 Q2315.11 59.1442 2312.01 60.0817 Q2308.93 61.0192 2305.5 61.0192 Q2296.67 61.0192 2291.59 55.6286 Q2286.51 50.212 2286.51 40.8631 Q2286.51 31.4881 2291.59 26.0975 Q2296.67 20.6809 2305.5 20.6809 Q2308.99 20.6809 2312.06 21.6184 Q2315.16 22.5298 2317.87 24.3788 Z" fill="#000000" fill-rule="nonzero" fill-opacity="1" /><path clip-path="url(#clip460)" d="M2341.77 24.9517 Q2336.04 24.9517 2332.66 29.2225 Q2329.3 33.4933 2329.3 40.8631 Q2329.3 48.2068 2332.66 52.4776 Q2336.04 56.7484 2341.77 56.7484 Q2347.5 56.7484 2350.84 52.4776 Q2354.19 48.2068 2354.19 40.8631 Q2354.19 33.4933 2350.84 29.2225 Q2347.5 24.9517 2341.77 24.9517 M2341.77 20.6809 Q2349.95 20.6809 2354.85 26.1756 Q2359.74 31.6444 2359.74 40.8631 Q2359.74 50.0557 2354.85 55.5505 Q2349.95 61.0192 2341.77 61.0192 Q2333.57 61.0192 2328.65 55.5505 Q2323.75 50.0818 2323.75 40.8631 Q2323.75 31.6444 2328.65 26.1756 Q2333.57 20.6809 2341.77 20.6809 Z" fill="#000000" fill-rule="nonzero" fill-opacity="1" /><path clip-path="url(#clip460)" d="M2372.97 55.8369 L2391.33 55.8369 L2391.33 60.264 L2366.64 60.264 L2366.64 55.8369 Q2369.64 52.738 2374.79 47.5297 Q2379.98 42.2953 2381.3 40.7849 Q2383.83 37.9464 2384.82 35.9933 Q2385.84 34.0141 2385.84 32.1131 Q2385.84 29.0142 2383.65 27.0611 Q2381.49 25.1079 2378 25.1079 Q2375.52 25.1079 2372.76 25.9673 Q2370.03 26.8267 2366.9 28.5715 L2366.9 23.259 Q2370.08 21.983 2372.84 21.3319 Q2375.6 20.6809 2377.89 20.6809 Q2383.93 20.6809 2387.53 23.7017 Q2391.12 26.7225 2391.12 31.7746 Q2391.12 34.1704 2390.21 36.3318 Q2389.32 38.4672 2386.96 41.3839 Q2386.3 42.1391 2382.81 45.7589 Q2379.32 49.3526 2372.97 55.8369 Z" fill="#000000" fill-rule="nonzero" fill-opacity="1" /><path clip-path="url(#clip460)" d="M2418.86 21.384 L2426.69 21.384 L2436.62 47.8422 L2446.59 21.384 L2454.43 21.384 L2454.43 60.264 L2449.3 60.264 L2449.3 26.1236 L2439.27 52.7901 L2433.99 52.7901 L2423.96 26.1236 L2423.96 60.264 L2418.86 60.264 L2418.86 21.384 Z" fill="#000000" fill-rule="nonzero" fill-opacity="1" /><path clip-path="url(#clip460)" d="M2477.92 45.6026 Q2472.11 45.6026 2469.87 46.9307 Q2467.63 48.2589 2467.63 51.462 Q2467.63 54.014 2469.3 55.5244 Q2470.99 57.0088 2473.88 57.0088 Q2477.87 57.0088 2480.26 54.1963 Q2482.68 51.3578 2482.68 46.6703 L2482.68 45.6026 L2477.92 45.6026 M2487.48 43.6235 L2487.48 60.264 L2482.68 60.264 L2482.68 55.8369 Q2481.04 58.4932 2478.6 59.7692 Q2476.15 61.0192 2472.61 61.0192 Q2468.13 61.0192 2465.47 58.5192 Q2462.84 55.9932 2462.84 51.7745 Q2462.84 46.8526 2466.12 44.3526 Q2469.43 41.8526 2475.96 41.8526 L2482.68 41.8526 L2482.68 41.3839 Q2482.68 38.0766 2480.5 36.2798 Q2478.33 34.4568 2474.4 34.4568 Q2471.9 34.4568 2469.53 35.0558 Q2467.16 35.6548 2464.98 36.8527 L2464.98 32.4256 Q2467.61 31.41 2470.08 30.9152 Q2472.55 30.3944 2474.9 30.3944 Q2481.23 30.3944 2484.35 33.6756 Q2487.48 36.9568 2487.48 43.6235 Z" fill="#000000" fill-rule="nonzero" fill-opacity="1" /><path clip-path="url(#clip460)" d="M2515.94 31.9569 L2515.94 36.4881 Q2513.91 35.4464 2511.72 34.9256 Q2509.53 34.4048 2507.19 34.4048 Q2503.62 34.4048 2501.82 35.4985 Q2500.05 36.5923 2500.05 38.7797 Q2500.05 40.4464 2501.33 41.4099 Q2502.61 42.3474 2506.46 43.2068 L2508.1 43.5714 Q2513.2 44.6651 2515.34 46.6703 Q2517.5 48.6495 2517.5 52.2172 Q2517.5 56.2796 2514.27 58.6494 Q2511.07 61.0192 2505.44 61.0192 Q2503.1 61.0192 2500.55 60.5505 Q2498.02 60.1078 2495.21 59.1963 L2495.21 54.2484 Q2497.87 55.6286 2500.44 56.3317 Q2503.02 57.0088 2505.55 57.0088 Q2508.93 57.0088 2510.76 55.863 Q2512.58 54.6911 2512.58 52.5817 Q2512.58 50.6286 2511.25 49.587 Q2509.95 48.5453 2505.5 47.5818 L2503.83 47.1912 Q2499.38 46.2537 2497.4 44.3266 Q2495.42 42.3735 2495.42 38.9881 Q2495.42 34.8735 2498.33 32.6339 Q2501.25 30.3944 2506.62 30.3944 Q2509.27 30.3944 2511.62 30.785 Q2513.96 31.1756 2515.94 31.9569 Z" fill="#000000" fill-rule="nonzero" fill-opacity="1" /><path clip-path="url(#clip460)" d="M2543.73 31.9569 L2543.73 36.4881 Q2541.69 35.4464 2539.51 34.9256 Q2537.32 34.4048 2534.98 34.4048 Q2531.41 34.4048 2529.61 35.4985 Q2527.84 36.5923 2527.84 38.7797 Q2527.84 40.4464 2529.12 41.4099 Q2530.39 42.3474 2534.25 43.2068 L2535.89 43.5714 Q2540.99 44.6651 2543.13 46.6703 Q2545.29 48.6495 2545.29 52.2172 Q2545.29 56.2796 2542.06 58.6494 Q2538.86 61.0192 2533.23 61.0192 Q2530.89 61.0192 2528.33 60.5505 Q2525.81 60.1078 2523 59.1963 L2523 54.2484 Q2525.65 55.6286 2528.23 56.3317 Q2530.81 57.0088 2533.33 57.0088 Q2536.72 57.0088 2538.54 55.863 Q2540.37 54.6911 2540.37 52.5817 Q2540.37 50.6286 2539.04 49.587 Q2537.74 48.5453 2533.28 47.5818 L2531.62 47.1912 Q2527.16 46.2537 2525.18 44.3266 Q2523.2 42.3735 2523.2 38.9881 Q2523.2 34.8735 2526.12 32.6339 Q2529.04 30.3944 2534.4 30.3944 Q2537.06 30.3944 2539.4 30.785 Q2541.75 31.1756 2543.73 31.9569 Z" fill="#000000" fill-rule="nonzero" fill-opacity="1" /><path clip-path="url(#clip460)" d="M2599.19 24.3788 L2599.19 29.9256 Q2596.54 27.4517 2593.52 26.2277 Q2590.52 25.0038 2587.14 25.0038 Q2580.47 25.0038 2576.93 29.0923 Q2573.39 33.1548 2573.39 40.8631 Q2573.39 48.5453 2576.93 52.6338 Q2580.47 56.6963 2587.14 56.6963 Q2590.52 56.6963 2593.52 55.4724 Q2596.54 54.2484 2599.19 51.7745 L2599.19 57.2692 Q2596.43 59.1442 2593.33 60.0817 Q2590.26 61.0192 2586.82 61.0192 Q2578 61.0192 2572.92 55.6286 Q2567.84 50.212 2567.84 40.8631 Q2567.84 31.4881 2572.92 26.0975 Q2578 20.6809 2586.82 20.6809 Q2590.31 20.6809 2593.39 21.6184 Q2596.49 22.5298 2599.19 24.3788 Z" fill="#000000" fill-rule="nonzero" fill-opacity="1" /><path clip-path="url(#clip460)" d="M2620.37 45.6026 Q2614.56 45.6026 2612.32 46.9307 Q2610.08 48.2589 2610.08 51.462 Q2610.08 54.014 2611.75 55.5244 Q2613.44 57.0088 2616.33 57.0088 Q2620.31 57.0088 2622.71 54.1963 Q2625.13 51.3578 2625.13 46.6703 L2625.13 45.6026 L2620.37 45.6026 M2629.92 43.6235 L2629.92 60.264 L2625.13 60.264 L2625.13 55.8369 Q2623.49 58.4932 2621.04 59.7692 Q2618.59 61.0192 2615.05 61.0192 Q2610.57 61.0192 2607.92 58.5192 Q2605.29 55.9932 2605.29 51.7745 Q2605.29 46.8526 2608.57 44.3526 Q2611.88 41.8526 2618.41 41.8526 L2625.13 41.8526 L2625.13 41.3839 Q2625.13 38.0766 2622.94 36.2798 Q2620.78 34.4568 2616.85 34.4568 Q2614.35 34.4568 2611.98 35.0558 Q2609.61 35.6548 2607.42 36.8527 L2607.42 32.4256 Q2610.05 31.41 2612.53 30.9152 Q2615 30.3944 2617.34 30.3944 Q2623.67 30.3944 2626.8 33.6756 Q2629.92 36.9568 2629.92 43.6235 Z" fill="#000000" fill-rule="nonzero" fill-opacity="1" /><path clip-path="url(#clip460)" d="M2644.43 55.889 L2644.43 71.3577 L2639.61 71.3577 L2639.61 31.0975 L2644.43 31.0975 L2644.43 35.5245 Q2645.94 32.9204 2648.23 31.6704 Q2650.55 30.3944 2653.75 30.3944 Q2659.06 30.3944 2662.37 34.6131 Q2665.7 38.8318 2665.7 45.7068 Q2665.7 52.5817 2662.37 56.8005 Q2659.06 61.0192 2653.75 61.0192 Q2650.55 61.0192 2648.23 59.7692 Q2645.94 58.4932 2644.43 55.889 M2660.73 45.7068 Q2660.73 40.4204 2658.54 37.4256 Q2656.38 34.4048 2652.58 34.4048 Q2648.78 34.4048 2646.59 37.4256 Q2644.43 40.4204 2644.43 45.7068 Q2644.43 50.9932 2646.59 54.014 Q2648.78 57.0088 2652.58 57.0088 Q2656.38 57.0088 2658.54 54.014 Q2660.73 50.9932 2660.73 45.7068 Z" fill="#000000" fill-rule="nonzero" fill-opacity="1" /><path clip-path="url(#clip460)" d="M2211.53 83.2717 Q2205.8 83.2717 2202.41 87.5425 Q2199.05 91.8133 2199.05 99.1831 Q2199.05 106.527 2202.41 110.798 Q2205.8 115.068 2211.53 115.068 Q2217.26 115.068 2220.59 110.798 Q2223.95 106.527 2223.95 99.1831 Q2223.95 91.8133 2220.59 87.5425 Q2217.26 83.2717 2211.53 83.2717 M2211.53 79.0009 Q2219.7 79.0009 2224.6 84.4956 Q2229.49 89.9644 2229.49 99.1831 Q2229.49 108.376 2224.6 113.87 Q2219.7 119.339 2211.53 119.339 Q2203.32 119.339 2198.4 113.87 Q2193.51 108.402 2193.51 99.1831 Q2193.51 89.9644 2198.4 84.4956 Q2203.32 79.0009 2211.53 79.0009 Z" fill="#000000" fill-rule="nonzero" fill-opacity="1" /><path clip-path="url(#clip460)" d="M2258.45 104.027 Q2258.45 98.7404 2256.27 95.7456 Q2254.1 92.7248 2250.3 92.7248 Q2246.5 92.7248 2244.31 95.7456 Q2242.15 98.7404 2242.15 104.027 Q2242.15 109.313 2244.31 112.334 Q2246.5 115.329 2250.3 115.329 Q2254.1 115.329 2256.27 112.334 Q2258.45 109.313 2258.45 104.027 M2242.15 93.8445 Q2243.66 91.2404 2245.95 89.9904 Q2248.27 88.7144 2251.47 88.7144 Q2256.79 88.7144 2260.09 92.9331 Q2263.43 97.1518 2263.43 104.027 Q2263.43 110.902 2260.09 115.12 Q2256.79 119.339 2251.47 119.339 Q2248.27 119.339 2245.95 118.089 Q2243.66 116.813 2242.15 114.209 L2242.15 118.584 L2237.33 118.584 L2237.33 78.0634 L2242.15 78.0634 L2242.15 93.8445 Z" fill="#000000" fill-rule="nonzero" fill-opacity="1" /><path clip-path="url(#clip460)" d="M2271.37 89.4175 L2276.16 89.4175 L2276.16 119.105 Q2276.16 124.678 2274.03 127.178 Q2271.92 129.678 2267.2 129.678 L2265.38 129.678 L2265.38 125.615 L2266.66 125.615 Q2269.39 125.615 2270.38 124.339 Q2271.37 123.089 2271.37 119.105 L2271.37 89.4175 M2271.37 78.0634 L2276.16 78.0634 L2276.16 84.1311 L2271.37 84.1311 L2271.37 78.0634 Z" fill="#000000" fill-rule="nonzero" fill-opacity="1" /><path clip-path="url(#clip460)" d="M2313.37 118.584 L2298.53 79.704 L2304.03 79.704 L2316.34 112.438 L2328.69 79.704 L2334.16 79.704 L2319.34 118.584 L2313.37 118.584 Z" fill="#000000" fill-rule="nonzero" fill-opacity="1" /><path clip-path="url(#clip460)" d="M2348.74 103.923 Q2342.93 103.923 2340.69 105.251 Q2338.45 106.579 2338.45 109.782 Q2338.45 112.334 2340.12 113.844 Q2341.81 115.329 2344.7 115.329 Q2348.69 115.329 2351.08 112.516 Q2353.5 109.678 2353.5 104.99 L2353.5 103.923 L2348.74 103.923 M2358.3 101.943 L2358.3 118.584 L2353.5 118.584 L2353.5 114.157 Q2351.86 116.813 2349.42 118.089 Q2346.97 119.339 2343.43 119.339 Q2338.95 119.339 2336.29 116.839 Q2333.66 114.313 2333.66 110.094 Q2333.66 105.173 2336.94 102.673 Q2340.25 100.173 2346.79 100.173 L2353.5 100.173 L2353.5 99.7039 Q2353.5 96.3966 2351.32 94.5998 Q2349.16 92.7768 2345.22 92.7768 Q2342.72 92.7768 2340.35 93.3758 Q2337.98 93.9748 2335.8 95.1727 L2335.8 90.7456 Q2338.43 89.73 2340.9 89.2352 Q2343.37 88.7144 2345.72 88.7144 Q2352.05 88.7144 2355.17 91.9956 Q2358.3 95.2768 2358.3 101.943 Z" fill="#000000" fill-rule="nonzero" fill-opacity="1" /><path clip-path="url(#clip460)" d="M2368.17 78.0634 L2372.96 78.0634 L2372.96 118.584 L2368.17 118.584 L2368.17 78.0634 Z" fill="#000000" fill-rule="nonzero" fill-opacity="1" /><path clip-path="url(#clip460)" d="M2384.21 111.969 L2389.7 111.969 L2389.7 118.584 L2384.21 118.584 L2384.21 111.969 M2384.21 91.006 L2389.7 91.006 L2389.7 97.6206 L2384.21 97.6206 L2384.21 91.006 Z" fill="#000000" fill-rule="nonzero" fill-opacity="1" /><path clip-path="url(#clip460)" d="M2423.11 114.157 L2441.47 114.157 L2441.47 118.584 L2416.79 118.584 L2416.79 114.157 Q2419.78 111.058 2424.94 105.85 Q2430.12 100.615 2431.45 99.1049 Q2433.97 96.2664 2434.96 94.3133 Q2435.98 92.3341 2435.98 90.4331 Q2435.98 87.3342 2433.79 85.3811 Q2431.63 83.4279 2428.14 83.4279 Q2425.67 83.4279 2422.91 84.2873 Q2420.17 85.1467 2417.05 86.8915 L2417.05 81.579 Q2420.22 80.303 2422.98 79.6519 Q2425.74 79.0009 2428.04 79.0009 Q2434.08 79.0009 2437.67 82.0217 Q2441.26 85.0425 2441.26 90.0946 Q2441.26 92.4904 2440.35 94.6518 Q2439.47 96.7872 2437.1 99.7039 Q2436.45 100.459 2432.96 104.079 Q2429.47 107.673 2423.11 114.157 Z" fill="#000000" fill-rule="nonzero" fill-opacity="1" /><path clip-path="url(#clip460)" d="M2457.05 114.157 L2475.41 114.157 L2475.41 118.584 L2450.72 118.584 L2450.72 114.157 Q2453.71 111.058 2458.87 105.85 Q2464.05 100.615 2465.38 99.1049 Q2467.91 96.2664 2468.89 94.3133 Q2469.91 92.3341 2469.91 90.4331 Q2469.91 87.3342 2467.72 85.3811 Q2465.56 83.4279 2462.07 83.4279 Q2459.6 83.4279 2456.84 84.2873 Q2454.1 85.1467 2450.98 86.8915 L2450.98 81.579 Q2454.16 80.303 2456.92 79.6519 Q2459.68 79.0009 2461.97 79.0009 Q2468.01 79.0009 2471.6 82.0217 Q2475.2 85.0425 2475.2 90.0946 Q2475.2 92.4904 2474.29 94.6518 Q2473.4 96.7872 2471.03 99.7039 Q2470.38 100.459 2466.89 104.079 Q2463.4 107.673 2457.05 114.157 Z" fill="#000000" fill-rule="nonzero" fill-opacity="1" /><path clip-path="url(#clip460)" d="M2500.9 84.2873 L2487.62 105.042 L2500.9 105.042 L2500.9 84.2873 M2499.52 79.704 L2506.13 79.704 L2506.13 105.042 L2511.68 105.042 L2511.68 109.417 L2506.13 109.417 L2506.13 118.584 L2500.9 118.584 L2500.9 109.417 L2483.35 109.417 L2483.35 104.339 L2499.52 79.704 Z" fill="#000000" fill-rule="nonzero" fill-opacity="1" /><path clip-path="url(#clip460)" d="M2519.05 79.704 L2544.05 79.704 L2544.05 81.9436 L2529.94 118.584 L2524.44 118.584 L2537.72 84.1311 L2519.05 84.1311 L2519.05 79.704 Z" fill="#000000" fill-rule="nonzero" fill-opacity="1" /><path clip-path="url(#clip460)" d="M2568.76 84.2873 L2555.48 105.042 L2568.76 105.042 L2568.76 84.2873 M2567.38 79.704 L2574 79.704 L2574 105.042 L2579.55 105.042 L2579.55 109.417 L2574 109.417 L2574 118.584 L2568.76 118.584 L2568.76 109.417 L2551.21 109.417 L2551.21 104.339 L2567.38 79.704 Z" fill="#000000" fill-rule="nonzero" fill-opacity="1" /><path clip-path="url(#clip460)" d="M2588.24 111.969 L2593.74 111.969 L2593.74 118.584 L2588.24 118.584 L2588.24 111.969 Z" fill="#000000" fill-rule="nonzero" fill-opacity="1" /><path clip-path="url(#clip460)" d="M2606.11 114.157 L2614.7 114.157 L2614.7 84.4956 L2605.35 86.3706 L2605.35 81.579 L2614.65 79.704 L2619.91 79.704 L2619.91 114.157 L2628.5 114.157 L2628.5 118.584 L2606.11 118.584 L2606.11 114.157 Z" fill="#000000" fill-rule="nonzero" fill-opacity="1" /><path clip-path="url(#clip460)" d="M2653.58 84.2873 L2640.3 105.042 L2653.58 105.042 L2653.58 84.2873 M2652.2 79.704 L2658.82 79.704 L2658.82 105.042 L2664.36 105.042 L2664.36 109.417 L2658.82 109.417 L2658.82 118.584 L2653.58 118.584 L2653.58 109.417 L2636.03 109.417 L2636.03 104.339 L2652.2 79.704 Z" fill="#000000" fill-rule="nonzero" fill-opacity="1" /><path clip-path="url(#clip460)" d="M2673.97 114.157 L2682.57 114.157 L2682.57 84.4956 L2673.22 86.3706 L2673.22 81.579 L2682.51 79.704 L2687.77 79.704 L2687.77 114.157 L2696.37 114.157 L2696.37 118.584 L2673.97 118.584 L2673.97 114.157 Z" fill="#000000" fill-rule="nonzero" fill-opacity="1" /><path clip-path="url(#clip460)" d="M2718.24 83.1675 Q2714.18 83.1675 2712.12 87.1779 Q2710.09 91.1623 2710.09 99.1831 Q2710.09 107.178 2712.12 111.188 Q2714.18 115.173 2718.24 115.173 Q2722.33 115.173 2724.36 111.188 Q2726.42 107.178 2726.42 99.1831 Q2726.42 91.1623 2724.36 87.1779 Q2722.33 83.1675 2718.24 83.1675 M2718.24 79.0009 Q2724.78 79.0009 2728.22 84.1831 Q2731.68 89.3394 2731.68 99.1831 Q2731.68 109.001 2728.22 114.183 Q2724.78 119.339 2718.24 119.339 Q2711.71 119.339 2708.24 114.183 Q2704.8 109.001 2704.8 99.1831 Q2704.8 89.3394 2708.24 84.1831 Q2711.71 79.0009 2718.24 79.0009 Z" fill="#000000" fill-rule="nonzero" fill-opacity="1" /><path clip-path="url(#clip460)" d="M2741.84 114.157 L2750.43 114.157 L2750.43 84.4956 L2741.08 86.3706 L2741.08 81.579 L2750.38 79.704 L2755.64 79.704 L2755.64 114.157 L2764.23 114.157 L2764.23 118.584 L2741.84 118.584 L2741.84 114.157 Z" fill="#000000" fill-rule="nonzero" fill-opacity="1" /><path clip-path="url(#clip460)" d="M2773.53 79.704 L2798.53 79.704 L2798.53 81.9436 L2784.41 118.584 L2778.92 118.584 L2792.2 84.1311 L2773.53 84.1311 L2773.53 79.704 Z" fill="#000000" fill-rule="nonzero" fill-opacity="1" /><path clip-path="url(#clip463)" d="M1892.67 128.602 L1892.67 142.379 L3079.42 142.379 L3079.42 128.602 L1892.67 128.602 L1892.67 128.602  Z" fill="#c0c0c0" fill-rule="evenodd" fill-opacity="1"/>
<polyline clip-path="url(#clip463)" style="stroke:#000000; stroke-linecap:round; stroke-linejoin:round; stroke-width:4; stroke-opacity:1; fill:none" points="1892.67,128.602 1892.67,142.379 3079.42,142.379 3079.42,128.602 1892.67,128.602 "/>
<path clip-path="url(#clip463)" d="M1892.67 142.379 L1892.67 1228.61 L3079.42 1228.61 L3079.42 142.379 L1892.67 142.379 L1892.67 142.379  Z" fill="#ffff00" fill-rule="evenodd" fill-opacity="1"/>
<polyline clip-path="url(#clip463)" style="stroke:#000000; stroke-linecap:round; stroke-linejoin:round; stroke-width:4; stroke-opacity:1; fill:none" points="1892.67,142.379 1892.67,1228.61 3079.42,1228.61 3079.42,142.379 1892.67,142.379 "/>
<circle clip-path="url(#clip463)" style="fill:#ffff00; stroke:none; fill-opacity:0" cx="2486.04" cy="142.379" r="2"/>
<path clip-path="url(#clip463)" d="M1892.67 1228.61 L1892.67 1305.03 L3079.42 1305.03 L3079.42 1228.61 L1892.67 1228.61 L1892.67 1228.61  Z" fill="#00bfff" fill-rule="evenodd" fill-opacity="1"/>
<polyline clip-path="url(#clip463)" style="stroke:#000000; stroke-linecap:round; stroke-linejoin:round; stroke-width:4; stroke-opacity:1; fill:none" points="1892.67,1228.61 1892.67,1305.03 3079.42,1305.03 3079.42,1228.61 1892.67,1228.61 "/>
<circle clip-path="url(#clip463)" style="fill:#00bfff; stroke:none; fill-opacity:0" cx="2486.04" cy="1228.61" r="2"/>
<path clip-path="url(#clip463)" d="M1892.67 1305.03 L1892.67 1752.76 L3079.42 1752.76 L3079.42 1305.03 L1892.67 1305.03 L1892.67 1305.03  Z" fill="#cd3278" fill-rule="evenodd" fill-opacity="1"/>
<polyline clip-path="url(#clip463)" style="stroke:#000000; stroke-linecap:round; stroke-linejoin:round; stroke-width:4; stroke-opacity:1; fill:none" points="1892.67,1305.03 1892.67,1752.76 3079.42,1752.76 3079.42,1305.03 1892.67,1305.03 "/>
<circle clip-path="url(#clip463)" style="fill:#cd3278; stroke:none; fill-opacity:0" cx="2486.04" cy="1305.03" r="2"/>
</svg>
