<?xml version="1.0" encoding="utf-8"?>
<svg xmlns="http://www.w3.org/2000/svg" xmlns:xlink="http://www.w3.org/1999/xlink" width="400" height="450" viewBox="0 0 1600 1800">
<defs>
  <clipPath id="clip220">
    <rect x="0" y="0" width="1600" height="1800"/>
  </clipPath>
</defs>
<path clip-path="url(#clip220)" d="M0 1800 L1600 1800 L1600 0 L0 0  Z" fill="#ffffff" fill-rule="evenodd" fill-opacity="1"/>
<defs>
  <clipPath id="clip221">
    <rect x="360" y="180" width="1261" height="1261"/>
  </clipPath>
</defs>
<path clip-path="url(#clip220)" d="M333.159 1667.17 L1552.76 1667.17 L1552.76 127.792 L333.159 127.792  Z" fill="#ffffff" fill-rule="evenodd" fill-opacity="1"/>
<defs>
  <clipPath id="clip222">
    <rect x="333" y="127" width="1221" height="1540"/>
  </clipPath>
</defs>
<polyline clip-path="url(#clip222)" style="stroke:#000000; stroke-linecap:round; stroke-linejoin:round; stroke-width:2; stroke-opacity:0.1; fill:none" points="508.783,1667.17 508.783,127.792 "/>
<polyline clip-path="url(#clip222)" style="stroke:#000000; stroke-linecap:round; stroke-linejoin:round; stroke-width:2; stroke-opacity:0.1; fill:none" points="942.958,1667.17 942.958,127.792 "/>
<polyline clip-path="url(#clip222)" style="stroke:#000000; stroke-linecap:round; stroke-linejoin:round; stroke-width:2; stroke-opacity:0.1; fill:none" points="1377.13,1667.17 1377.13,127.792 "/>
<polyline clip-path="url(#clip220)" style="stroke:#000000; stroke-linecap:round; stroke-linejoin:round; stroke-width:4; stroke-opacity:1; fill:none" points="333.159,1667.17 1552.76,1667.17 "/>
<polyline clip-path="url(#clip220)" style="stroke:#000000; stroke-linecap:round; stroke-linejoin:round; stroke-width:4; stroke-opacity:1; fill:none" points="508.783,1667.17 508.783,1648.27 "/>
<polyline clip-path="url(#clip220)" style="stroke:#000000; stroke-linecap:round; stroke-linejoin:round; stroke-width:4; stroke-opacity:1; fill:none" points="942.958,1667.17 942.958,1648.27 "/>
<polyline clip-path="url(#clip220)" style="stroke:#000000; stroke-linecap:round; stroke-linejoin:round; stroke-width:4; stroke-opacity:1; fill:none" points="1377.13,1667.17 1377.13,1648.27 "/>
<path clip-path="url(#clip220)" d="M429.605 1690.21 L456.758 1690.21 L456.758 1693.77 L434.906 1720.83 L457.29 1720.83 L457.29 1724.77 L429.073 1724.77 L429.073 1721.2 L450.924 1694.14 L429.605 1694.14 L429.605 1690.21 Z" fill="#000000" fill-rule="nonzero" fill-opacity="1" /><path clip-path="url(#clip220)" d="M473.933 1701.83 Q470.508 1701.83 468.517 1704.51 Q466.526 1707.18 466.526 1711.83 Q466.526 1716.48 468.494 1719.17 Q470.484 1721.83 473.933 1721.83 Q477.336 1721.83 479.327 1719.14 Q481.318 1716.46 481.318 1711.83 Q481.318 1707.22 479.327 1704.54 Q477.336 1701.83 473.933 1701.83 M473.933 1698.22 Q479.489 1698.22 482.66 1701.83 Q485.832 1705.44 485.832 1711.83 Q485.832 1718.19 482.66 1721.83 Q479.489 1725.44 473.933 1725.44 Q468.355 1725.44 465.184 1721.83 Q462.035 1718.19 462.035 1711.83 Q462.035 1705.44 465.184 1701.83 Q468.355 1698.22 473.933 1698.22 Z" fill="#000000" fill-rule="nonzero" fill-opacity="1" /><path clip-path="url(#clip220)" d="M514.443 1709.12 L514.443 1724.77 L510.183 1724.77 L510.183 1709.26 Q510.183 1705.58 508.748 1703.75 Q507.313 1701.92 504.443 1701.92 Q500.994 1701.92 499.003 1704.12 Q497.012 1706.32 497.012 1710.12 L497.012 1724.77 L492.73 1724.77 L492.73 1698.84 L497.012 1698.84 L497.012 1702.87 Q498.54 1700.53 500.6 1699.37 Q502.683 1698.22 505.392 1698.22 Q509.859 1698.22 512.151 1700.99 Q514.443 1703.75 514.443 1709.12 Z" fill="#000000" fill-rule="nonzero" fill-opacity="1" /><path clip-path="url(#clip220)" d="M545.114 1710.74 L545.114 1712.82 L525.53 1712.82 Q525.808 1717.22 528.169 1719.54 Q530.554 1721.83 534.79 1721.83 Q537.243 1721.83 539.535 1721.23 Q541.85 1720.62 544.118 1719.42 L544.118 1723.45 Q541.827 1724.42 539.419 1724.93 Q537.012 1725.44 534.535 1725.44 Q528.331 1725.44 524.697 1721.83 Q521.086 1718.22 521.086 1712.06 Q521.086 1705.69 524.512 1701.97 Q527.961 1698.22 533.794 1698.22 Q539.026 1698.22 542.058 1701.6 Q545.114 1704.95 545.114 1710.74 M540.854 1709.49 Q540.808 1705.99 538.887 1703.91 Q536.989 1701.83 533.841 1701.83 Q530.276 1701.83 528.123 1703.84 Q525.993 1705.86 525.669 1709.51 L540.854 1709.49 Z" fill="#000000" fill-rule="nonzero" fill-opacity="1" /><path clip-path="url(#clip220)" d="M568.586 1720.83 L576.225 1720.83 L576.225 1694.47 L567.914 1696.13 L567.914 1691.87 L576.178 1690.21 L580.854 1690.21 L580.854 1720.83 L588.493 1720.83 L588.493 1724.77 L568.586 1724.77 L568.586 1720.83 Z" fill="#000000" fill-rule="nonzero" fill-opacity="1" /><path clip-path="url(#clip220)" d="M863.965 1690.21 L891.118 1690.21 L891.118 1693.77 L869.266 1720.83 L891.65 1720.83 L891.65 1724.77 L863.433 1724.77 L863.433 1721.2 L885.284 1694.14 L863.965 1694.14 L863.965 1690.21 Z" fill="#000000" fill-rule="nonzero" fill-opacity="1" /><path clip-path="url(#clip220)" d="M908.293 1701.83 Q904.867 1701.83 902.877 1704.51 Q900.886 1707.18 900.886 1711.83 Q900.886 1716.48 902.854 1719.17 Q904.844 1721.83 908.293 1721.83 Q911.696 1721.83 913.687 1719.14 Q915.678 1716.46 915.678 1711.83 Q915.678 1707.22 913.687 1704.54 Q911.696 1701.83 908.293 1701.83 M908.293 1698.22 Q913.849 1698.22 917.02 1701.83 Q920.191 1705.44 920.191 1711.83 Q920.191 1718.19 917.02 1721.83 Q913.849 1725.44 908.293 1725.44 Q902.715 1725.44 899.543 1721.83 Q896.395 1718.19 896.395 1711.83 Q896.395 1705.44 899.543 1701.83 Q902.715 1698.22 908.293 1698.22 Z" fill="#000000" fill-rule="nonzero" fill-opacity="1" /><path clip-path="url(#clip220)" d="M948.802 1709.12 L948.802 1724.77 L944.543 1724.77 L944.543 1709.26 Q944.543 1705.58 943.108 1703.75 Q941.673 1701.92 938.802 1701.92 Q935.353 1701.92 933.363 1704.12 Q931.372 1706.32 931.372 1710.12 L931.372 1724.77 L927.09 1724.77 L927.09 1698.84 L931.372 1698.84 L931.372 1702.87 Q932.9 1700.53 934.96 1699.37 Q937.043 1698.22 939.752 1698.22 Q944.219 1698.22 946.511 1700.99 Q948.802 1703.75 948.802 1709.12 Z" fill="#000000" fill-rule="nonzero" fill-opacity="1" /><path clip-path="url(#clip220)" d="M979.474 1710.74 L979.474 1712.82 L959.89 1712.82 Q960.168 1717.22 962.529 1719.54 Q964.913 1721.83 969.15 1721.83 Q971.603 1721.83 973.895 1721.23 Q976.21 1720.62 978.478 1719.42 L978.478 1723.45 Q976.187 1724.42 973.779 1724.93 Q971.372 1725.44 968.895 1725.44 Q962.691 1725.44 959.057 1721.83 Q955.446 1718.22 955.446 1712.06 Q955.446 1705.69 958.872 1701.97 Q962.321 1698.22 968.154 1698.22 Q973.386 1698.22 976.418 1701.6 Q979.474 1704.95 979.474 1710.74 M975.214 1709.49 Q975.168 1705.99 973.247 1703.91 Q971.349 1701.83 968.2 1701.83 Q964.636 1701.83 962.483 1703.84 Q960.353 1705.86 960.029 1709.51 L975.214 1709.49 Z" fill="#000000" fill-rule="nonzero" fill-opacity="1" /><path clip-path="url(#clip220)" d="M1006.16 1720.83 L1022.48 1720.83 L1022.48 1724.77 L1000.54 1724.77 L1000.54 1720.83 Q1003.2 1718.08 1007.78 1713.45 Q1012.39 1708.8 1013.57 1707.45 Q1015.82 1704.93 1016.7 1703.19 Q1017.6 1701.43 1017.6 1699.74 Q1017.6 1696.99 1015.65 1695.25 Q1013.73 1693.52 1010.63 1693.52 Q1008.43 1693.52 1005.98 1694.28 Q1003.55 1695.05 1000.77 1696.6 L1000.77 1691.87 Q1003.59 1690.74 1006.05 1690.16 Q1008.5 1689.58 1010.54 1689.58 Q1015.91 1689.58 1019.1 1692.27 Q1022.3 1694.95 1022.3 1699.44 Q1022.3 1701.57 1021.49 1703.49 Q1020.7 1705.39 1018.59 1707.99 Q1018.02 1708.66 1014.91 1711.87 Q1011.81 1715.07 1006.16 1720.83 Z" fill="#000000" fill-rule="nonzero" fill-opacity="1" /><path clip-path="url(#clip220)" d="M1297.67 1690.21 L1324.82 1690.21 L1324.82 1693.77 L1302.97 1720.83 L1325.35 1720.83 L1325.35 1724.77 L1297.13 1724.77 L1297.13 1721.2 L1318.98 1694.14 L1297.67 1694.14 L1297.67 1690.21 Z" fill="#000000" fill-rule="nonzero" fill-opacity="1" /><path clip-path="url(#clip220)" d="M1341.99 1701.83 Q1338.57 1701.83 1336.58 1704.51 Q1334.59 1707.18 1334.59 1711.83 Q1334.59 1716.48 1336.55 1719.17 Q1338.54 1721.83 1341.99 1721.83 Q1345.4 1721.83 1347.39 1719.14 Q1349.38 1716.46 1349.38 1711.83 Q1349.38 1707.22 1347.39 1704.54 Q1345.4 1701.83 1341.99 1701.83 M1341.99 1698.22 Q1347.55 1698.22 1350.72 1701.83 Q1353.89 1705.44 1353.89 1711.83 Q1353.89 1718.19 1350.72 1721.83 Q1347.55 1725.44 1341.99 1725.44 Q1336.41 1725.44 1333.24 1721.83 Q1330.1 1718.19 1330.1 1711.83 Q1330.1 1705.44 1333.24 1701.83 Q1336.41 1698.22 1341.99 1698.22 Z" fill="#000000" fill-rule="nonzero" fill-opacity="1" /><path clip-path="url(#clip220)" d="M1382.5 1709.12 L1382.5 1724.77 L1378.24 1724.77 L1378.24 1709.26 Q1378.24 1705.58 1376.81 1703.75 Q1375.37 1701.92 1372.5 1701.92 Q1369.05 1701.92 1367.06 1704.12 Q1365.07 1706.32 1365.07 1710.12 L1365.07 1724.77 L1360.79 1724.77 L1360.79 1698.84 L1365.07 1698.84 L1365.07 1702.87 Q1366.6 1700.53 1368.66 1699.37 Q1370.74 1698.22 1373.45 1698.22 Q1377.92 1698.22 1380.21 1700.99 Q1382.5 1703.75 1382.5 1709.12 Z" fill="#000000" fill-rule="nonzero" fill-opacity="1" /><path clip-path="url(#clip220)" d="M1413.17 1710.74 L1413.17 1712.82 L1393.59 1712.82 Q1393.87 1717.22 1396.23 1719.54 Q1398.61 1721.83 1402.85 1721.83 Q1405.3 1721.83 1407.6 1721.23 Q1409.91 1720.62 1412.18 1719.42 L1412.18 1723.45 Q1409.89 1724.42 1407.48 1724.93 Q1405.07 1725.44 1402.6 1725.44 Q1396.39 1725.44 1392.76 1721.83 Q1389.15 1718.22 1389.15 1712.06 Q1389.15 1705.69 1392.57 1701.97 Q1396.02 1698.22 1401.85 1698.22 Q1407.09 1698.22 1410.12 1701.6 Q1413.17 1704.95 1413.17 1710.74 M1408.91 1709.49 Q1408.87 1705.99 1406.95 1703.91 Q1405.05 1701.83 1401.9 1701.83 Q1398.34 1701.83 1396.18 1703.84 Q1394.05 1705.86 1393.73 1709.51 L1408.91 1709.49 Z" fill="#000000" fill-rule="nonzero" fill-opacity="1" /><path clip-path="url(#clip220)" d="M1450 1706.13 Q1453.36 1706.85 1455.23 1709.12 Q1457.13 1711.39 1457.13 1714.72 Q1457.13 1719.84 1453.61 1722.64 Q1450.09 1725.44 1443.61 1725.44 Q1441.44 1725.44 1439.12 1725 Q1436.83 1724.58 1434.38 1723.73 L1434.38 1719.21 Q1436.32 1720.35 1438.64 1720.93 Q1440.95 1721.5 1443.47 1721.5 Q1447.87 1721.5 1450.16 1719.77 Q1452.48 1718.03 1452.48 1714.72 Q1452.48 1711.67 1450.33 1709.95 Q1448.2 1708.22 1444.38 1708.22 L1440.35 1708.22 L1440.35 1704.37 L1444.56 1704.37 Q1448.01 1704.37 1449.84 1703.01 Q1451.67 1701.62 1451.67 1699.03 Q1451.67 1696.37 1449.77 1694.95 Q1447.9 1693.52 1444.38 1693.52 Q1442.46 1693.52 1440.26 1693.93 Q1438.06 1694.35 1435.42 1695.23 L1435.42 1691.06 Q1438.08 1690.32 1440.4 1689.95 Q1442.73 1689.58 1444.79 1689.58 Q1450.12 1689.58 1453.22 1692.01 Q1456.32 1694.42 1456.32 1698.54 Q1456.32 1701.41 1454.68 1703.4 Q1453.03 1705.37 1450 1706.13 Z" fill="#000000" fill-rule="nonzero" fill-opacity="1" /><polyline clip-path="url(#clip222)" style="stroke:#000000; stroke-linecap:round; stroke-linejoin:round; stroke-width:2; stroke-opacity:0.1; fill:none" points="333.159,1667.17 1552.76,1667.17 "/>
<polyline clip-path="url(#clip222)" style="stroke:#000000; stroke-linecap:round; stroke-linejoin:round; stroke-width:2; stroke-opacity:0.1; fill:none" points="333.159,1251.48 1552.76,1251.48 "/>
<polyline clip-path="url(#clip222)" style="stroke:#000000; stroke-linecap:round; stroke-linejoin:round; stroke-width:2; stroke-opacity:0.1; fill:none" points="333.159,835.799 1552.76,835.799 "/>
<polyline clip-path="url(#clip222)" style="stroke:#000000; stroke-linecap:round; stroke-linejoin:round; stroke-width:2; stroke-opacity:0.1; fill:none" points="333.159,420.115 1552.76,420.115 "/>
<polyline clip-path="url(#clip220)" style="stroke:#000000; stroke-linecap:round; stroke-linejoin:round; stroke-width:4; stroke-opacity:1; fill:none" points="333.159,1667.17 333.159,127.792 "/>
<polyline clip-path="url(#clip220)" style="stroke:#000000; stroke-linecap:round; stroke-linejoin:round; stroke-width:4; stroke-opacity:1; fill:none" points="333.159,1667.17 352.057,1667.17 "/>
<polyline clip-path="url(#clip220)" style="stroke:#000000; stroke-linecap:round; stroke-linejoin:round; stroke-width:4; stroke-opacity:1; fill:none" points="333.159,1251.48 352.057,1251.48 "/>
<polyline clip-path="url(#clip220)" style="stroke:#000000; stroke-linecap:round; stroke-linejoin:round; stroke-width:4; stroke-opacity:1; fill:none" points="333.159,835.799 352.057,835.799 "/>
<polyline clip-path="url(#clip220)" style="stroke:#000000; stroke-linecap:round; stroke-linejoin:round; stroke-width:4; stroke-opacity:1; fill:none" points="333.159,420.115 352.057,420.115 "/>
<path clip-path="url(#clip220)" d="M294.215 1652.97 Q290.604 1652.97 288.775 1656.53 Q286.969 1660.07 286.969 1667.2 Q286.969 1674.31 288.775 1677.87 Q290.604 1681.42 294.215 1681.42 Q297.849 1681.42 299.655 1677.87 Q301.483 1674.31 301.483 1667.2 Q301.483 1660.07 299.655 1656.53 Q297.849 1652.97 294.215 1652.97 M294.215 1649.26 Q300.025 1649.26 303.08 1653.87 Q306.159 1658.45 306.159 1667.2 Q306.159 1675.93 303.08 1680.54 Q300.025 1685.12 294.215 1685.12 Q288.405 1685.12 285.326 1680.54 Q282.27 1675.93 282.27 1667.2 Q282.27 1658.45 285.326 1653.87 Q288.405 1649.26 294.215 1649.26 Z" fill="#000000" fill-rule="nonzero" fill-opacity="1" /><path clip-path="url(#clip220)" d="M124.91 1271.28 L141.23 1271.28 L141.23 1275.21 L119.285 1275.21 L119.285 1271.28 Q121.947 1268.52 126.531 1263.89 Q131.137 1259.24 132.318 1257.9 Q134.563 1255.37 135.443 1253.64 Q136.345 1251.88 136.345 1250.19 Q136.345 1247.43 134.401 1245.7 Q132.48 1243.96 129.378 1243.96 Q127.179 1243.96 124.725 1244.73 Q122.294 1245.49 119.517 1247.04 L119.517 1242.32 Q122.341 1241.18 124.794 1240.6 Q127.248 1240.03 129.285 1240.03 Q134.655 1240.03 137.85 1242.71 Q141.044 1245.4 141.044 1249.89 Q141.044 1252.02 140.234 1253.94 Q139.447 1255.84 137.341 1258.43 Q136.762 1259.1 133.66 1262.32 Q130.558 1265.51 124.91 1271.28 Z" fill="#000000" fill-rule="nonzero" fill-opacity="1" /><path clip-path="url(#clip220)" d="M151.044 1269.33 L155.929 1269.33 L155.929 1275.21 L151.044 1275.21 L151.044 1269.33 Z" fill="#000000" fill-rule="nonzero" fill-opacity="1" /><path clip-path="url(#clip220)" d="M176.114 1243.73 Q172.502 1243.73 170.674 1247.29 Q168.868 1250.84 168.868 1257.97 Q168.868 1265.07 170.674 1268.64 Q172.502 1272.18 176.114 1272.18 Q179.748 1272.18 181.553 1268.64 Q183.382 1265.07 183.382 1257.97 Q183.382 1250.84 181.553 1247.29 Q179.748 1243.73 176.114 1243.73 M176.114 1240.03 Q181.924 1240.03 184.979 1244.63 Q188.058 1249.22 188.058 1257.97 Q188.058 1266.69 184.979 1271.3 Q181.924 1275.88 176.114 1275.88 Q170.303 1275.88 167.225 1271.3 Q164.169 1266.69 164.169 1257.97 Q164.169 1249.22 167.225 1244.63 Q170.303 1240.03 176.114 1240.03 Z" fill="#000000" fill-rule="nonzero" fill-opacity="1" /><path clip-path="url(#clip220)" d="M224.447 1249.75 L213.868 1260.37 L224.447 1270.95 L221.692 1273.75 L211.067 1263.13 L200.442 1273.75 L197.711 1270.95 L208.266 1260.37 L197.711 1249.75 L200.442 1246.95 L211.067 1257.57 L221.692 1246.95 L224.447 1249.75 Z" fill="#000000" fill-rule="nonzero" fill-opacity="1" /><path clip-path="url(#clip220)" d="M236.808 1271.28 L244.447 1271.28 L244.447 1244.91 L236.136 1246.58 L236.136 1242.32 L244.4 1240.65 L249.076 1240.65 L249.076 1271.28 L256.715 1271.28 L256.715 1275.21 L236.808 1275.21 L236.808 1271.28 Z" fill="#000000" fill-rule="nonzero" fill-opacity="1" /><path clip-path="url(#clip220)" d="M276.159 1243.73 Q272.548 1243.73 270.72 1247.29 Q268.914 1250.84 268.914 1257.97 Q268.914 1265.07 270.72 1268.64 Q272.548 1272.18 276.159 1272.18 Q279.794 1272.18 281.599 1268.64 Q283.428 1265.07 283.428 1257.97 Q283.428 1250.84 281.599 1247.29 Q279.794 1243.73 276.159 1243.73 M276.159 1240.03 Q281.969 1240.03 285.025 1244.63 Q288.104 1249.22 288.104 1257.97 Q288.104 1266.69 285.025 1271.3 Q281.969 1275.88 276.159 1275.88 Q270.349 1275.88 267.27 1271.3 Q264.215 1266.69 264.215 1257.97 Q264.215 1249.22 267.27 1244.63 Q270.349 1240.03 276.159 1240.03 Z" fill="#000000" fill-rule="nonzero" fill-opacity="1" /><path clip-path="url(#clip220)" d="M288.104 1219.72 L306.159 1219.72 L306.159 1221.34 L295.965 1247.8 L291.997 1247.8 L301.589 1222.92 L288.104 1222.92 L288.104 1219.72 Z" fill="#000000" fill-rule="nonzero" fill-opacity="1" /><path clip-path="url(#clip220)" d="M133.73 829.041 L121.924 847.49 L133.73 847.49 L133.73 829.041 M132.503 824.967 L138.382 824.967 L138.382 847.49 L143.313 847.49 L143.313 851.379 L138.382 851.379 L138.382 859.527 L133.73 859.527 L133.73 851.379 L118.128 851.379 L118.128 846.865 L132.503 824.967 Z" fill="#000000" fill-rule="nonzero" fill-opacity="1" /><path clip-path="url(#clip220)" d="M151.044 853.647 L155.929 853.647 L155.929 859.527 L151.044 859.527 L151.044 853.647 Z" fill="#000000" fill-rule="nonzero" fill-opacity="1" /><path clip-path="url(#clip220)" d="M176.114 828.046 Q172.502 828.046 170.674 831.61 Q168.868 835.152 168.868 842.282 Q168.868 849.388 170.674 852.953 Q172.502 856.494 176.114 856.494 Q179.748 856.494 181.553 852.953 Q183.382 849.388 183.382 842.282 Q183.382 835.152 181.553 831.61 Q179.748 828.046 176.114 828.046 M176.114 824.342 Q181.924 824.342 184.979 828.948 Q188.058 833.532 188.058 842.282 Q188.058 851.008 184.979 855.615 Q181.924 860.198 176.114 860.198 Q170.303 860.198 167.225 855.615 Q164.169 851.008 164.169 842.282 Q164.169 833.532 167.225 828.948 Q170.303 824.342 176.114 824.342 Z" fill="#000000" fill-rule="nonzero" fill-opacity="1" /><path clip-path="url(#clip220)" d="M224.447 834.064 L213.868 844.689 L224.447 855.268 L221.692 858.069 L211.067 847.444 L200.442 858.069 L197.711 855.268 L208.266 844.689 L197.711 834.064 L200.442 831.263 L211.067 841.888 L221.692 831.263 L224.447 834.064 Z" fill="#000000" fill-rule="nonzero" fill-opacity="1" /><path clip-path="url(#clip220)" d="M236.808 855.592 L244.447 855.592 L244.447 829.226 L236.136 830.893 L236.136 826.634 L244.4 824.967 L249.076 824.967 L249.076 855.592 L256.715 855.592 L256.715 859.527 L236.808 859.527 L236.808 855.592 Z" fill="#000000" fill-rule="nonzero" fill-opacity="1" /><path clip-path="url(#clip220)" d="M276.159 828.046 Q272.548 828.046 270.72 831.61 Q268.914 835.152 268.914 842.282 Q268.914 849.388 270.72 852.953 Q272.548 856.494 276.159 856.494 Q279.794 856.494 281.599 852.953 Q283.428 849.388 283.428 842.282 Q283.428 835.152 281.599 831.61 Q279.794 828.046 276.159 828.046 M276.159 824.342 Q281.969 824.342 285.025 828.948 Q288.104 833.532 288.104 842.282 Q288.104 851.008 285.025 855.615 Q281.969 860.198 276.159 860.198 Q270.349 860.198 267.27 855.615 Q264.215 851.008 264.215 842.282 Q264.215 833.532 267.27 828.948 Q270.349 824.342 276.159 824.342 Z" fill="#000000" fill-rule="nonzero" fill-opacity="1" /><path clip-path="url(#clip220)" d="M288.104 804.036 L306.159 804.036 L306.159 805.654 L295.965 832.116 L291.997 832.116 L301.589 807.234 L288.104 807.234 L288.104 804.036 Z" fill="#000000" fill-rule="nonzero" fill-opacity="1" /><path clip-path="url(#clip220)" d="M131.461 424.699 Q128.313 424.699 126.461 426.852 Q124.632 429.005 124.632 432.755 Q124.632 436.481 126.461 438.657 Q128.313 440.81 131.461 440.81 Q134.609 440.81 136.438 438.657 Q138.29 436.481 138.29 432.755 Q138.29 429.005 136.438 426.852 Q134.609 424.699 131.461 424.699 M140.743 410.046 L140.743 414.306 Q138.984 413.472 137.179 413.033 Q135.396 412.593 133.637 412.593 Q129.007 412.593 126.554 415.718 Q124.123 418.843 123.776 425.162 Q125.142 423.148 127.202 422.083 Q129.262 420.995 131.739 420.995 Q136.947 420.995 139.956 424.167 Q142.989 427.315 142.989 432.755 Q142.989 438.079 139.841 441.296 Q136.692 444.514 131.461 444.514 Q125.466 444.514 122.294 439.931 Q119.123 435.324 119.123 426.597 Q119.123 418.403 123.012 413.542 Q126.901 408.658 133.452 408.658 Q135.211 408.658 136.993 409.005 Q138.799 409.352 140.743 410.046 Z" fill="#000000" fill-rule="nonzero" fill-opacity="1" /><path clip-path="url(#clip220)" d="M151.044 437.963 L155.929 437.963 L155.929 443.843 L151.044 443.843 L151.044 437.963 Z" fill="#000000" fill-rule="nonzero" fill-opacity="1" /><path clip-path="url(#clip220)" d="M176.114 412.361 Q172.502 412.361 170.674 415.926 Q168.868 419.468 168.868 426.597 Q168.868 433.704 170.674 437.269 Q172.502 440.81 176.114 440.81 Q179.748 440.81 181.553 437.269 Q183.382 433.704 183.382 426.597 Q183.382 419.468 181.553 415.926 Q179.748 412.361 176.114 412.361 M176.114 408.658 Q181.924 408.658 184.979 413.264 Q188.058 417.847 188.058 426.597 Q188.058 435.324 184.979 439.931 Q181.924 444.514 176.114 444.514 Q170.303 444.514 167.225 439.931 Q164.169 435.324 164.169 426.597 Q164.169 417.847 167.225 413.264 Q170.303 408.658 176.114 408.658 Z" fill="#000000" fill-rule="nonzero" fill-opacity="1" /><path clip-path="url(#clip220)" d="M224.447 418.38 L213.868 429.005 L224.447 439.583 L221.692 442.384 L211.067 431.759 L200.442 442.384 L197.711 439.583 L208.266 429.005 L197.711 418.38 L200.442 415.579 L211.067 426.204 L221.692 415.579 L224.447 418.38 Z" fill="#000000" fill-rule="nonzero" fill-opacity="1" /><path clip-path="url(#clip220)" d="M236.808 439.907 L244.447 439.907 L244.447 413.542 L236.136 415.208 L236.136 410.949 L244.4 409.283 L249.076 409.283 L249.076 439.907 L256.715 439.907 L256.715 443.843 L236.808 443.843 L236.808 439.907 Z" fill="#000000" fill-rule="nonzero" fill-opacity="1" /><path clip-path="url(#clip220)" d="M276.159 412.361 Q272.548 412.361 270.72 415.926 Q268.914 419.468 268.914 426.597 Q268.914 433.704 270.72 437.269 Q272.548 440.81 276.159 440.81 Q279.794 440.81 281.599 437.269 Q283.428 433.704 283.428 426.597 Q283.428 419.468 281.599 415.926 Q279.794 412.361 276.159 412.361 M276.159 408.658 Q281.969 408.658 285.025 413.264 Q288.104 417.847 288.104 426.597 Q288.104 435.324 285.025 439.931 Q281.969 444.514 276.159 444.514 Q270.349 444.514 267.27 439.931 Q264.215 435.324 264.215 426.597 Q264.215 417.847 267.27 413.264 Q270.349 408.658 276.159 408.658 Z" fill="#000000" fill-rule="nonzero" fill-opacity="1" /><path clip-path="url(#clip220)" d="M288.104 388.352 L306.159 388.352 L306.159 389.97 L295.965 416.432 L291.997 416.432 L301.589 391.549 L288.104 391.549 L288.104 388.352 Z" fill="#000000" fill-rule="nonzero" fill-opacity="1" /><path clip-path="url(#clip220)" d="M29.3518 953.562 L29.3518 943.981 L61.6896 931.855 L29.3518 919.664 L29.3518 910.084 L76.8718 910.084 L76.8718 916.354 L35.1446 916.354 L67.737 928.608 L67.737 935.069 L35.1446 947.323 L76.8718 947.323 L76.8718 953.562 L29.3518 953.562 Z" fill="#000000" fill-rule="nonzero" fill-opacity="1" /><path clip-path="url(#clip220)" d="M29.3518 901.554 L29.3518 895.061 L69.5194 885.067 L29.3518 875.105 L29.3518 867.879 L69.5194 857.885 L29.3518 847.923 L29.3518 841.398 L76.8718 853.334 L76.8718 861.418 L35.622 871.444 L76.8718 881.566 L76.8718 889.65 L29.3518 901.554 Z" fill="#000000" fill-rule="nonzero" fill-opacity="1" /><path clip-path="url(#clip220)" d="M434.367 31.5855 Q436.247 32.222 438.012 34.3054 Q439.806 36.3887 441.6 40.0345 L447.532 51.84 L441.253 51.84 L435.726 40.7579 Q433.585 36.4176 431.56 34.9998 Q429.563 33.582 426.091 33.582 L419.725 33.582 L419.725 51.84 L413.881 51.84 L413.881 8.64 L427.075 8.64 Q434.482 8.64 438.128 11.736 Q441.774 14.8321 441.774 21.0821 Q441.774 25.1619 439.864 27.8529 Q437.983 30.5438 434.367 31.5855 M419.725 13.4432 L419.725 28.7788 L427.075 28.7788 Q431.299 28.7788 433.441 26.8401 Q435.611 24.8726 435.611 21.0821 Q435.611 17.2916 433.441 15.3819 Q431.299 13.4432 427.075 13.4432 L419.725 13.4432 Z" fill="#000000" fill-rule="nonzero" fill-opacity="1" /><path clip-path="url(#clip220)" d="M479.881 34.3054 L479.881 36.9095 L455.402 36.9095 Q455.75 42.4072 458.701 45.3007 Q461.681 48.1653 466.976 48.1653 Q470.043 48.1653 472.908 47.4129 Q475.801 46.6606 478.637 45.156 L478.637 50.1907 Q475.773 51.406 472.763 52.0425 Q469.754 52.6791 466.658 52.6791 Q458.903 52.6791 454.361 48.1653 Q449.847 43.6514 449.847 35.9547 Q449.847 27.9975 454.129 23.339 Q458.44 18.6515 465.732 18.6515 Q472.271 18.6515 476.062 22.876 Q479.881 27.0716 479.881 34.3054 M474.557 32.7429 Q474.499 28.3737 472.098 25.7695 Q469.725 23.1654 465.79 23.1654 Q461.334 23.1654 458.643 25.6827 Q455.981 28.2001 455.576 32.7718 L474.557 32.7429 Z" fill="#000000" fill-rule="nonzero" fill-opacity="1" /><path clip-path="url(#clip220)" d="M509.279 20.3876 L509.279 25.4223 Q507.022 24.2649 504.592 23.6862 Q502.161 23.1075 499.557 23.1075 Q495.593 23.1075 493.597 24.3228 Q491.629 25.5381 491.629 27.9686 Q491.629 29.8204 493.047 30.891 Q494.465 31.9327 498.747 32.8876 L500.57 33.2926 Q506.241 34.5079 508.614 36.7359 Q511.015 38.935 511.015 42.8991 Q511.015 47.4129 507.427 50.046 Q503.868 52.6791 497.618 52.6791 Q495.014 52.6791 492.179 52.1583 Q489.372 51.6664 486.247 50.6537 L486.247 45.156 Q489.198 46.6896 492.063 47.4708 Q494.928 48.2231 497.734 48.2231 Q501.496 48.2231 503.521 46.95 Q505.547 45.6479 505.547 43.3042 Q505.547 41.134 504.071 39.9766 Q502.624 38.8192 497.676 37.7486 L495.825 37.3146 Q490.877 36.273 488.678 34.1318 Q486.479 31.9616 486.479 28.2001 Q486.479 23.6283 489.719 21.1399 Q492.96 18.6515 498.921 18.6515 Q501.872 18.6515 504.476 19.0855 Q507.08 19.5196 509.279 20.3876 Z" fill="#000000" fill-rule="nonzero" fill-opacity="1" /><path clip-path="url(#clip220)" d="M532.051 23.1654 Q527.769 23.1654 525.28 26.5218 Q522.792 29.8494 522.792 35.6653 Q522.792 41.4813 525.251 44.8377 Q527.74 48.1653 532.051 48.1653 Q536.305 48.1653 538.793 44.8088 Q541.281 41.4523 541.281 35.6653 Q541.281 29.9072 538.793 26.5508 Q536.305 23.1654 532.051 23.1654 M532.051 18.6515 Q538.996 18.6515 542.96 23.1654 Q546.924 27.6792 546.924 35.6653 Q546.924 43.6225 542.96 48.1653 Q538.996 52.6791 532.051 52.6791 Q525.078 52.6791 521.114 48.1653 Q517.179 43.6225 517.179 35.6653 Q517.179 27.6792 521.114 23.1654 Q525.078 18.6515 532.051 18.6515 Z" fill="#000000" fill-rule="nonzero" fill-opacity="1" /><path clip-path="url(#clip220)" d="M555.199 39.0507 L555.199 19.4328 L560.523 19.4328 L560.523 38.8482 Q560.523 43.4488 562.317 45.7636 Q564.111 48.0495 567.699 48.0495 Q572.01 48.0495 574.499 45.3007 Q577.016 42.5519 577.016 37.8065 L577.016 19.4328 L582.34 19.4328 L582.34 51.84 L577.016 51.84 L577.016 46.8632 Q575.078 49.8145 572.502 51.2613 Q569.956 52.6791 566.571 52.6791 Q560.986 52.6791 558.093 49.2069 Q555.199 45.7347 555.199 39.0507 M568.596 18.6515 L568.596 18.6515 Z" fill="#000000" fill-rule="nonzero" fill-opacity="1" /><path clip-path="url(#clip220)" d="M612.085 24.4096 Q611.188 23.8888 610.118 23.6573 Q609.076 23.3969 607.803 23.3969 Q603.289 23.3969 600.859 26.3482 Q598.457 29.2707 598.457 34.7683 L598.457 51.84 L593.104 51.84 L593.104 19.4328 L598.457 19.4328 L598.457 24.4675 Q600.135 21.5161 602.826 20.0983 Q605.517 18.6515 609.366 18.6515 Q609.915 18.6515 610.581 18.7383 Q611.246 18.7962 612.057 18.9409 L612.085 24.4096 Z" fill="#000000" fill-rule="nonzero" fill-opacity="1" /><path clip-path="url(#clip220)" d="M639.689 20.677 L639.689 25.6538 Q637.433 24.4096 635.147 23.802 Q632.89 23.1654 630.575 23.1654 Q625.396 23.1654 622.531 26.464 Q619.666 29.7336 619.666 35.6653 Q619.666 41.597 622.531 44.8956 Q625.396 48.1653 630.575 48.1653 Q632.89 48.1653 635.147 47.5576 Q637.433 46.921 639.689 45.6768 L639.689 50.5958 Q637.461 51.6375 635.06 52.1583 Q632.687 52.6791 629.996 52.6791 Q622.676 52.6791 618.364 48.0784 Q614.053 43.4778 614.053 35.6653 Q614.053 27.7371 618.393 23.1943 Q622.762 18.6515 630.343 18.6515 Q632.803 18.6515 635.147 19.1724 Q637.49 19.6642 639.689 20.677 Z" fill="#000000" fill-rule="nonzero" fill-opacity="1" /><path clip-path="url(#clip220)" d="M676.668 34.3054 L676.668 36.9095 L652.189 36.9095 Q652.537 42.4072 655.488 45.3007 Q658.468 48.1653 663.763 48.1653 Q666.831 48.1653 669.695 47.4129 Q672.589 46.6606 675.424 45.156 L675.424 50.1907 Q672.56 51.406 669.55 52.0425 Q666.541 52.6791 663.445 52.6791 Q655.691 52.6791 651.148 48.1653 Q646.634 43.6514 646.634 35.9547 Q646.634 27.9975 650.916 23.339 Q655.228 18.6515 662.519 18.6515 Q669.059 18.6515 672.849 22.876 Q676.668 27.0716 676.668 34.3054 M671.344 32.7429 Q671.287 28.3737 668.885 25.7695 Q666.512 23.1654 662.577 23.1654 Q658.121 23.1654 655.43 25.6827 Q652.768 28.2001 652.363 32.7718 L671.344 32.7429 Z" fill="#000000" fill-rule="nonzero" fill-opacity="1" /><path clip-path="url(#clip220)" d="M718.914 14.3981 L710.985 35.8968 L726.871 35.8968 L718.914 14.3981 M715.615 8.64 L722.241 8.64 L738.705 51.84 L732.629 51.84 L728.694 40.7579 L709.22 40.7579 L705.285 51.84 L699.122 51.84 L715.615 8.64 Z" fill="#000000" fill-rule="nonzero" fill-opacity="1" /><path clip-path="url(#clip220)" d="M744.782 6.81709 L750.106 6.81709 L750.106 51.84 L744.782 51.84 L744.782 6.81709 Z" fill="#000000" fill-rule="nonzero" fill-opacity="1" /><path clip-path="url(#clip220)" d="M761.246 6.81709 L766.57 6.81709 L766.57 51.84 L761.246 51.84 L761.246 6.81709 Z" fill="#000000" fill-rule="nonzero" fill-opacity="1" /><path clip-path="url(#clip220)" d="M790.267 23.1654 Q785.985 23.1654 783.497 26.5218 Q781.008 29.8494 781.008 35.6653 Q781.008 41.4813 783.468 44.8377 Q785.956 48.1653 790.267 48.1653 Q794.521 48.1653 797.009 44.8088 Q799.498 41.4523 799.498 35.6653 Q799.498 29.9072 797.009 26.5508 Q794.521 23.1654 790.267 23.1654 M790.267 18.6515 Q797.212 18.6515 801.176 23.1654 Q805.14 27.6792 805.14 35.6653 Q805.14 43.6225 801.176 48.1653 Q797.212 52.6791 790.267 52.6791 Q783.294 52.6791 779.33 48.1653 Q775.395 43.6225 775.395 35.6653 Q775.395 27.6792 779.33 23.1654 Q783.294 18.6515 790.267 18.6515 Z" fill="#000000" fill-rule="nonzero" fill-opacity="1" /><path clip-path="url(#clip220)" d="M837.287 20.677 L837.287 25.6538 Q835.03 24.4096 832.744 23.802 Q830.487 23.1654 828.172 23.1654 Q822.993 23.1654 820.128 26.464 Q817.264 29.7336 817.264 35.6653 Q817.264 41.597 820.128 44.8956 Q822.993 48.1653 828.172 48.1653 Q830.487 48.1653 832.744 47.5576 Q835.03 46.921 837.287 45.6768 L837.287 50.5958 Q835.059 51.6375 832.657 52.1583 Q830.285 52.6791 827.594 52.6791 Q820.273 52.6791 815.962 48.0784 Q811.65 43.4778 811.65 35.6653 Q811.65 27.7371 815.991 23.1943 Q820.36 18.6515 827.941 18.6515 Q830.4 18.6515 832.744 19.1724 Q835.088 19.6642 837.287 20.677 Z" fill="#000000" fill-rule="nonzero" fill-opacity="1" /><path clip-path="url(#clip220)" d="M861.274 35.5496 Q854.821 35.5496 852.333 37.0253 Q849.845 38.501 849.845 42.06 Q849.845 44.8956 851.696 46.5738 Q853.577 48.2231 856.789 48.2231 Q861.216 48.2231 863.878 45.0981 Q866.569 41.9442 866.569 36.7359 L866.569 35.5496 L861.274 35.5496 M871.893 33.3505 L871.893 51.84 L866.569 51.84 L866.569 46.921 Q864.746 49.8724 862.026 51.2902 Q859.306 52.6791 855.371 52.6791 Q850.394 52.6791 847.443 49.9014 Q844.521 47.0947 844.521 42.4072 Q844.521 36.9385 848.166 34.1607 Q851.841 31.3829 859.104 31.3829 L866.569 31.3829 L866.569 30.8621 Q866.569 27.1874 864.139 25.1908 Q861.737 23.1654 857.368 23.1654 Q854.59 23.1654 851.957 23.8309 Q849.324 24.4964 846.893 25.8274 L846.893 20.9085 Q849.816 19.78 852.565 19.2302 Q855.313 18.6515 857.917 18.6515 Q864.949 18.6515 868.421 22.2973 Q871.893 25.9431 871.893 33.3505 Z" fill="#000000" fill-rule="nonzero" fill-opacity="1" /><path clip-path="url(#clip220)" d="M888.126 10.2314 L888.126 19.4328 L899.092 19.4328 L899.092 23.5705 L888.126 23.5705 L888.126 41.163 Q888.126 45.1271 889.196 46.2555 Q890.296 47.384 893.623 47.384 L899.092 47.384 L899.092 51.84 L893.623 51.84 Q887.46 51.84 885.116 49.5541 Q882.773 47.2393 882.773 41.163 L882.773 23.5705 L878.866 23.5705 L878.866 19.4328 L882.773 19.4328 L882.773 10.2314 L888.126 10.2314 Z" fill="#000000" fill-rule="nonzero" fill-opacity="1" /><path clip-path="url(#clip220)" d="M906.094 19.4328 L911.418 19.4328 L911.418 51.84 L906.094 51.84 L906.094 19.4328 M906.094 6.81709 L911.418 6.81709 L911.418 13.559 L906.094 13.559 L906.094 6.81709 Z" fill="#000000" fill-rule="nonzero" fill-opacity="1" /><path clip-path="url(#clip220)" d="M935.116 23.1654 Q930.834 23.1654 928.345 26.5218 Q925.857 29.8494 925.857 35.6653 Q925.857 41.4813 928.316 44.8377 Q930.805 48.1653 935.116 48.1653 Q939.37 48.1653 941.858 44.8088 Q944.346 41.4523 944.346 35.6653 Q944.346 29.9072 941.858 26.5508 Q939.37 23.1654 935.116 23.1654 M935.116 18.6515 Q942.061 18.6515 946.025 23.1654 Q949.989 27.6792 949.989 35.6653 Q949.989 43.6225 946.025 48.1653 Q942.061 52.6791 935.116 52.6791 Q928.143 52.6791 924.179 48.1653 Q920.244 43.6225 920.244 35.6653 Q920.244 27.6792 924.179 23.1654 Q928.143 18.6515 935.116 18.6515 Z" fill="#000000" fill-rule="nonzero" fill-opacity="1" /><path clip-path="url(#clip220)" d="M985.752 32.2799 L985.752 51.84 L980.428 51.84 L980.428 32.4535 Q980.428 27.8529 978.634 25.567 Q976.84 23.2811 973.253 23.2811 Q968.941 23.2811 966.453 26.03 Q963.964 28.7788 963.964 33.5241 L963.964 51.84 L958.611 51.84 L958.611 19.4328 L963.964 19.4328 L963.964 24.4675 Q965.874 21.545 968.449 20.0983 Q971.053 18.6515 974.439 18.6515 Q980.023 18.6515 982.888 22.1237 Q985.752 25.567 985.752 32.2799 Z" fill="#000000" fill-rule="nonzero" fill-opacity="1" /><path clip-path="url(#clip220)" d="M1015.21 19.4328 L1020.53 19.4328 L1020.53 51.84 L1015.21 51.84 L1015.21 19.4328 M1015.21 6.81709 L1020.53 6.81709 L1020.53 13.559 L1015.21 13.559 L1015.21 6.81709 Z" fill="#000000" fill-rule="nonzero" fill-opacity="1" /><path clip-path="url(#clip220)" d="M1058.61 32.2799 L1058.61 51.84 L1053.29 51.84 L1053.29 32.4535 Q1053.29 27.8529 1051.49 25.567 Q1049.7 23.2811 1046.11 23.2811 Q1041.8 23.2811 1039.31 26.03 Q1036.82 28.7788 1036.82 33.5241 L1036.82 51.84 L1031.47 51.84 L1031.47 19.4328 L1036.82 19.4328 L1036.82 24.4675 Q1038.73 21.545 1041.31 20.0983 Q1043.91 18.6515 1047.3 18.6515 Q1052.88 18.6515 1055.75 22.1237 Q1058.61 25.567 1058.61 32.2799 Z" fill="#000000" fill-rule="nonzero" fill-opacity="1" /><path clip-path="url(#clip220)" d="M1088.3 8.64 L1097.01 8.64 L1108.03 38.038 L1119.11 8.64 L1127.82 8.64 L1127.82 51.84 L1122.12 51.84 L1122.12 13.9062 L1110.98 43.5356 L1105.11 43.5356 L1093.97 13.9062 L1093.97 51.84 L1088.3 51.84 L1088.3 8.64 Z" fill="#000000" fill-rule="nonzero" fill-opacity="1" /><path clip-path="url(#clip220)" d="M1135.58 8.64 L1141.48 8.64 L1150.57 45.156 L1159.62 8.64 L1166.19 8.64 L1175.28 45.156 L1184.33 8.64 L1190.27 8.64 L1179.41 51.84 L1172.07 51.84 L1162.95 14.3402 L1153.75 51.84 L1146.4 51.84 L1135.58 8.64 Z" fill="#000000" fill-rule="nonzero" fill-opacity="1" /><path clip-path="url(#clip220)" d="M1222.7 13.4432 L1222.7 29.6758 L1230.05 29.6758 Q1234.13 29.6758 1236.36 27.5635 Q1238.59 25.4513 1238.59 21.545 Q1238.59 17.6677 1236.36 15.5555 Q1234.13 13.4432 1230.05 13.4432 L1222.7 13.4432 M1216.86 8.64 L1230.05 8.64 Q1237.31 8.64 1241.02 11.9386 Q1244.75 15.2083 1244.75 21.545 Q1244.75 27.9397 1241.02 31.2093 Q1237.31 34.479 1230.05 34.479 L1222.7 34.479 L1222.7 51.84 L1216.86 51.84 L1216.86 8.64 Z" fill="#000000" fill-rule="nonzero" fill-opacity="1" /><path clip-path="url(#clip220)" d="M1277.97 34.3054 L1277.97 36.9095 L1253.49 36.9095 Q1253.84 42.4072 1256.79 45.3007 Q1259.77 48.1653 1265.06 48.1653 Q1268.13 48.1653 1270.99 47.4129 Q1273.89 46.6606 1276.72 45.156 L1276.72 50.1907 Q1273.86 51.406 1270.85 52.0425 Q1267.84 52.6791 1264.74 52.6791 Q1256.99 52.6791 1252.45 48.1653 Q1247.93 43.6514 1247.93 35.9547 Q1247.93 27.9975 1252.22 23.339 Q1256.53 18.6515 1263.82 18.6515 Q1270.36 18.6515 1274.15 22.876 Q1277.97 27.0716 1277.97 34.3054 M1272.64 32.7429 Q1272.59 28.3737 1270.18 25.7695 Q1267.81 23.1654 1263.88 23.1654 Q1259.42 23.1654 1256.73 25.6827 Q1254.07 28.2001 1253.66 32.7718 L1272.64 32.7429 Z" fill="#000000" fill-rule="nonzero" fill-opacity="1" /><path clip-path="url(#clip220)" d="M1305.48 24.4096 Q1304.59 23.8888 1303.52 23.6573 Q1302.48 23.3969 1301.2 23.3969 Q1296.69 23.3969 1294.26 26.3482 Q1291.86 29.2707 1291.86 34.7683 L1291.86 51.84 L1286.5 51.84 L1286.5 19.4328 L1291.86 19.4328 L1291.86 24.4675 Q1293.53 21.5161 1296.23 20.0983 Q1298.92 18.6515 1302.76 18.6515 Q1303.31 18.6515 1303.98 18.7383 Q1304.65 18.7962 1305.46 18.9409 L1305.48 24.4096 Z" fill="#000000" fill-rule="nonzero" fill-opacity="1" /><path clip-path="url(#clip220)" d="M1327.65 8.64 L1361.59 8.64 L1361.59 13.096 L1334.27 46.921 L1362.26 46.921 L1362.26 51.84 L1326.98 51.84 L1326.98 47.384 L1354.3 13.559 L1327.65 13.559 L1327.65 8.64 Z" fill="#000000" fill-rule="nonzero" fill-opacity="1" /><path clip-path="url(#clip220)" d="M1383.06 23.1654 Q1378.78 23.1654 1376.29 26.5218 Q1373.8 29.8494 1373.8 35.6653 Q1373.8 41.4813 1376.26 44.8377 Q1378.75 48.1653 1383.06 48.1653 Q1387.31 48.1653 1389.8 44.8088 Q1392.29 41.4523 1392.29 35.6653 Q1392.29 29.9072 1389.8 26.5508 Q1387.31 23.1654 1383.06 23.1654 M1383.06 18.6515 Q1390 18.6515 1393.97 23.1654 Q1397.93 27.6792 1397.93 35.6653 Q1397.93 43.6225 1393.97 48.1653 Q1390 52.6791 1383.06 52.6791 Q1376.09 52.6791 1372.12 48.1653 Q1368.19 43.6225 1368.19 35.6653 Q1368.19 27.6792 1372.12 23.1654 Q1376.09 18.6515 1383.06 18.6515 Z" fill="#000000" fill-rule="nonzero" fill-opacity="1" /><path clip-path="url(#clip220)" d="M1433.7 32.2799 L1433.7 51.84 L1428.37 51.84 L1428.37 32.4535 Q1428.37 27.8529 1426.58 25.567 Q1424.78 23.2811 1421.2 23.2811 Q1416.88 23.2811 1414.4 26.03 Q1411.91 28.7788 1411.91 33.5241 L1411.91 51.84 L1406.55 51.84 L1406.55 19.4328 L1411.91 19.4328 L1411.91 24.4675 Q1413.82 21.545 1416.39 20.0983 Q1419 18.6515 1422.38 18.6515 Q1427.97 18.6515 1430.83 22.1237 Q1433.7 25.567 1433.7 32.2799 Z" fill="#000000" fill-rule="nonzero" fill-opacity="1" /><path clip-path="url(#clip220)" d="M1472.03 34.3054 L1472.03 36.9095 L1447.56 36.9095 Q1447.9 42.4072 1450.85 45.3007 Q1453.83 48.1653 1459.13 48.1653 Q1462.2 48.1653 1465.06 47.4129 Q1467.95 46.6606 1470.79 45.156 L1470.79 50.1907 Q1467.93 51.406 1464.92 52.0425 Q1461.91 52.6791 1458.81 52.6791 Q1451.06 52.6791 1446.51 48.1653 Q1442 43.6514 1442 35.9547 Q1442 27.9975 1446.28 23.339 Q1450.59 18.6515 1457.89 18.6515 Q1464.42 18.6515 1468.22 22.876 Q1472.03 27.0716 1472.03 34.3054 M1466.71 32.7429 Q1466.65 28.3737 1464.25 25.7695 Q1461.88 23.1654 1457.94 23.1654 Q1453.49 23.1654 1450.8 25.6827 Q1448.13 28.2001 1447.73 32.7718 L1466.71 32.7429 Z" fill="#000000" fill-rule="nonzero" fill-opacity="1" /><path clip-path="url(#clip222)" d="M400.239 831.928 L400.239 1048.11 L617.327 1048.11 L617.327 831.928 L400.239 831.928 L400.239 831.928  Z" fill="#c0c0c0" fill-rule="evenodd" fill-opacity="1"/>
<polyline clip-path="url(#clip222)" style="stroke:#000000; stroke-linecap:round; stroke-linejoin:round; stroke-width:4; stroke-opacity:1; fill:none" points="400.239,831.928 400.239,1048.11 617.327,1048.11 617.327,831.928 400.239,831.928 "/>
<path clip-path="url(#clip222)" d="M834.414 127.792 L834.414 198.97 L1051.5 198.97 L1051.5 127.792 L834.414 127.792 L834.414 127.792  Z" fill="#c0c0c0" fill-rule="evenodd" fill-opacity="1"/>
<polyline clip-path="url(#clip222)" style="stroke:#000000; stroke-linecap:round; stroke-linejoin:round; stroke-width:4; stroke-opacity:1; fill:none" points="834.414,127.792 834.414,198.97 1051.5,198.97 1051.5,127.792 834.414,127.792 "/>
<path clip-path="url(#clip222)" d="M1268.59 1001.06 L1268.59 1019.66 L1485.68 1019.66 L1485.68 1001.06 L1268.59 1001.06 L1268.59 1001.06  Z" fill="#c0c0c0" fill-rule="evenodd" fill-opacity="1"/>
<polyline clip-path="url(#clip222)" style="stroke:#000000; stroke-linecap:round; stroke-linejoin:round; stroke-width:4; stroke-opacity:1; fill:none" points="1268.59,1001.06 1268.59,1019.66 1485.68,1019.66 1485.68,1001.06 1268.59,1001.06 "/>
<circle clip-path="url(#clip222)" style="fill:#c0c0c0; stroke:none; fill-opacity:0" cx="508.783" cy="831.928" r="2"/>
<circle clip-path="url(#clip222)" style="fill:#c0c0c0; stroke:none; fill-opacity:0" cx="942.958" cy="127.792" r="2"/>
<circle clip-path="url(#clip222)" style="fill:#c0c0c0; stroke:none; fill-opacity:0" cx="1377.13" cy="1001.06" r="2"/>
<path clip-path="url(#clip222)" d="M400.239 1048.11 L400.239 1561.93 L617.327 1561.93 L617.327 1048.11 L400.239 1048.11 L400.239 1048.11  Z" fill="#ffff00" fill-rule="evenodd" fill-opacity="1"/>
<polyline clip-path="url(#clip222)" style="stroke:#000000; stroke-linecap:round; stroke-linejoin:round; stroke-width:4; stroke-opacity:1; fill:none" points="400.239,1048.11 400.239,1561.93 617.327,1561.93 617.327,1048.11 400.239,1048.11 "/>
<path clip-path="url(#clip222)" d="M834.414 198.97 L834.414 759.903 L1051.5 759.903 L1051.5 198.97 L834.414 198.97 L834.414 198.97  Z" fill="#ffff00" fill-rule="evenodd" fill-opacity="1"/>
<polyline clip-path="url(#clip222)" style="stroke:#000000; stroke-linecap:round; stroke-linejoin:round; stroke-width:4; stroke-opacity:1; fill:none" points="834.414,198.97 834.414,759.903 1051.5,759.903 1051.5,198.97 834.414,198.97 "/>
<path clip-path="url(#clip222)" d="M1268.59 1019.66 L1268.59 1019.66 L1485.68 1019.66 L1485.68 1019.66 L1268.59 1019.66 L1268.59 1019.66  Z" fill="#ffff00" fill-rule="evenodd" fill-opacity="1"/>
<polyline clip-path="url(#clip222)" style="stroke:#000000; stroke-linecap:round; stroke-linejoin:round; stroke-width:4; stroke-opacity:1; fill:none" points="1268.59,1019.66 1268.59,1019.66 1485.68,1019.66 1268.59,1019.66 "/>
<circle clip-path="url(#clip222)" style="fill:#ffff00; stroke:none; fill-opacity:0" cx="508.783" cy="1048.11" r="2"/>
<circle clip-path="url(#clip222)" style="fill:#ffff00; stroke:none; fill-opacity:0" cx="942.958" cy="198.97" r="2"/>
<circle clip-path="url(#clip222)" style="fill:#ffff00; stroke:none; fill-opacity:0" cx="1377.13" cy="1019.66" r="2"/>
<path clip-path="url(#clip222)" d="M400.239 1561.93 L400.239 1561.93 L617.327 1561.93 L617.327 1561.93 L400.239 1561.93 L400.239 1561.93  Z" fill="#00bfff" fill-rule="evenodd" fill-opacity="1"/>
<polyline clip-path="url(#clip222)" style="stroke:#000000; stroke-linecap:round; stroke-linejoin:round; stroke-width:4; stroke-opacity:1; fill:none" points="400.239,1561.93 400.239,1561.93 617.327,1561.93 400.239,1561.93 "/>
<path clip-path="url(#clip222)" d="M834.414 759.903 L834.414 1364.07 L1051.5 1364.07 L1051.5 759.903 L834.414 759.903 L834.414 759.903  Z" fill="#00bfff" fill-rule="evenodd" fill-opacity="1"/>
<polyline clip-path="url(#clip222)" style="stroke:#000000; stroke-linecap:round; stroke-linejoin:round; stroke-width:4; stroke-opacity:1; fill:none" points="834.414,759.903 834.414,1364.07 1051.5,1364.07 1051.5,759.903 834.414,759.903 "/>
<path clip-path="url(#clip222)" d="M1268.59 1019.66 L1268.59 1565.25 L1485.68 1565.25 L1485.68 1019.66 L1268.59 1019.66 L1268.59 1019.66  Z" fill="#00bfff" fill-rule="evenodd" fill-opacity="1"/>
<polyline clip-path="url(#clip222)" style="stroke:#000000; stroke-linecap:round; stroke-linejoin:round; stroke-width:4; stroke-opacity:1; fill:none" points="1268.59,1019.66 1268.59,1565.25 1485.68,1565.25 1485.68,1019.66 1268.59,1019.66 "/>
<circle clip-path="url(#clip222)" style="fill:#00bfff; stroke:none; fill-opacity:0" cx="508.783" cy="1561.93" r="2"/>
<circle clip-path="url(#clip222)" style="fill:#00bfff; stroke:none; fill-opacity:0" cx="942.958" cy="759.903" r="2"/>
<circle clip-path="url(#clip222)" style="fill:#00bfff; stroke:none; fill-opacity:0" cx="1377.13" cy="1019.66" r="2"/>
<path clip-path="url(#clip222)" d="M400.239 1561.93 L400.239 1667.17 L617.327 1667.17 L617.327 1561.93 L400.239 1561.93 L400.239 1561.93  Z" fill="#cd3278" fill-rule="evenodd" fill-opacity="1"/>
<polyline clip-path="url(#clip222)" style="stroke:#000000; stroke-linecap:round; stroke-linejoin:round; stroke-width:4; stroke-opacity:1; fill:none" points="400.239,1561.93 400.239,1667.17 617.327,1667.17 617.327,1561.93 400.239,1561.93 "/>
<path clip-path="url(#clip222)" d="M834.414 1364.07 L834.414 1667.17 L1051.5 1667.17 L1051.5 1364.07 L834.414 1364.07 L834.414 1364.07  Z" fill="#cd3278" fill-rule="evenodd" fill-opacity="1"/>
<polyline clip-path="url(#clip222)" style="stroke:#000000; stroke-linecap:round; stroke-linejoin:round; stroke-width:4; stroke-opacity:1; fill:none" points="834.414,1364.07 834.414,1667.17 1051.5,1667.17 1051.5,1364.07 834.414,1364.07 "/>
<path clip-path="url(#clip222)" d="M1268.59 1565.25 L1268.59 1667.17 L1485.68 1667.17 L1485.68 1565.25 L1268.59 1565.25 L1268.59 1565.25  Z" fill="#cd3278" fill-rule="evenodd" fill-opacity="1"/>
<polyline clip-path="url(#clip222)" style="stroke:#000000; stroke-linecap:round; stroke-linejoin:round; stroke-width:4; stroke-opacity:1; fill:none" points="1268.59,1565.25 1268.59,1667.17 1485.68,1667.17 1485.68,1565.25 1268.59,1565.25 "/>
<circle clip-path="url(#clip222)" style="fill:#cd3278; stroke:none; fill-opacity:0" cx="508.783" cy="1561.93" r="2"/>
<circle clip-path="url(#clip222)" style="fill:#cd3278; stroke:none; fill-opacity:0" cx="942.958" cy="1364.07" r="2"/>
<circle clip-path="url(#clip222)" style="fill:#cd3278; stroke:none; fill-opacity:0" cx="1377.13" cy="1565.25" r="2"/>
<path clip-path="url(#clip220)" d="M1116.7 438.305 L1512.1 438.305 L1512.1 179.105 L1116.7 179.105  Z" fill="#ffffff" fill-rule="evenodd" fill-opacity="1"/>
<polyline clip-path="url(#clip220)" style="stroke:#000000; stroke-linecap:round; stroke-linejoin:round; stroke-width:4; stroke-opacity:1; fill:none" points="1116.7,438.305 1512.1,438.305 1512.1,179.105 1116.7,179.105 1116.7,438.305 "/>
<path clip-path="url(#clip220)" d="M1130.25 251.681 L1211.55 251.681 L1211.55 210.209 L1130.25 210.209 L1130.25 251.681  Z" fill="#c0c0c0" fill-rule="evenodd" fill-opacity="1"/>
<polyline clip-path="url(#clip220)" style="stroke:#000000; stroke-linecap:round; stroke-linejoin:round; stroke-width:4; stroke-opacity:1; fill:none" points="1130.25,251.681 1211.55,251.681 1211.55,210.209 1130.25,210.209 1130.25,251.681 "/>
<path clip-path="url(#clip220)" d="M1225.1 213.665 L1231.4 213.665 L1246.72 242.577 L1246.72 213.665 L1251.26 213.665 L1251.26 248.225 L1244.97 248.225 L1229.64 219.313 L1229.64 248.225 L1225.1 248.225 L1225.1 213.665 Z" fill="#000000" fill-rule="nonzero" fill-opacity="1" /><path clip-path="url(#clip220)" d="M1272.16 235.192 Q1267 235.192 1265.01 236.373 Q1263.02 237.553 1263.02 240.401 Q1263.02 242.669 1264.5 244.012 Q1266.01 245.331 1268.58 245.331 Q1272.12 245.331 1274.25 242.831 Q1276.4 240.308 1276.4 236.141 L1276.4 235.192 L1272.16 235.192 M1280.66 233.433 L1280.66 248.225 L1276.4 248.225 L1276.4 244.289 Q1274.94 246.651 1272.77 247.785 Q1270.59 248.896 1267.44 248.896 Q1263.46 248.896 1261.1 246.674 Q1258.76 244.428 1258.76 240.678 Q1258.76 236.303 1261.68 234.081 Q1264.62 231.859 1270.43 231.859 L1276.4 231.859 L1276.4 231.442 Q1276.4 228.503 1274.46 226.905 Q1272.53 225.285 1269.04 225.285 Q1266.82 225.285 1264.71 225.817 Q1262.6 226.35 1260.66 227.415 L1260.66 223.479 Q1263 222.577 1265.2 222.137 Q1267.4 221.674 1269.48 221.674 Q1275.1 221.674 1277.88 224.591 Q1280.66 227.507 1280.66 233.433 Z" fill="#000000" fill-rule="nonzero" fill-opacity="1" /><path clip-path="url(#clip220)" d="M1293.65 214.938 L1293.65 222.299 L1302.42 222.299 L1302.42 225.609 L1293.65 225.609 L1293.65 239.683 Q1293.65 242.854 1294.5 243.757 Q1295.38 244.66 1298.04 244.66 L1302.42 244.66 L1302.42 248.225 L1298.04 248.225 Q1293.11 248.225 1291.24 246.396 Q1289.36 244.544 1289.36 239.683 L1289.36 225.609 L1286.24 225.609 L1286.24 222.299 L1289.36 222.299 L1289.36 214.938 L1293.65 214.938 Z" fill="#000000" fill-rule="nonzero" fill-opacity="1" /><path clip-path="url(#clip220)" d="M1307.58 237.993 L1307.58 222.299 L1311.84 222.299 L1311.84 237.831 Q1311.84 241.512 1313.27 243.364 Q1314.71 245.192 1317.58 245.192 Q1321.03 245.192 1323.02 242.993 Q1325.03 240.794 1325.03 236.998 L1325.03 222.299 L1329.29 222.299 L1329.29 248.225 L1325.03 248.225 L1325.03 244.243 Q1323.48 246.604 1321.42 247.762 Q1319.39 248.896 1316.68 248.896 Q1312.21 248.896 1309.9 246.118 Q1307.58 243.34 1307.58 237.993 M1318.3 221.674 L1318.3 221.674 Z" fill="#000000" fill-rule="nonzero" fill-opacity="1" /><path clip-path="url(#clip220)" d="M1353.09 226.28 Q1352.37 225.864 1351.52 225.678 Q1350.68 225.47 1349.66 225.47 Q1346.05 225.47 1344.11 227.831 Q1342.19 230.169 1342.19 234.567 L1342.19 248.225 L1337.9 248.225 L1337.9 222.299 L1342.19 222.299 L1342.19 226.327 Q1343.53 223.966 1345.68 222.831 Q1347.83 221.674 1350.91 221.674 Q1351.35 221.674 1351.89 221.743 Q1352.42 221.79 1353.07 221.905 L1353.09 226.28 Z" fill="#000000" fill-rule="nonzero" fill-opacity="1" /><path clip-path="url(#clip220)" d="M1369.34 235.192 Q1364.18 235.192 1362.19 236.373 Q1360.2 237.553 1360.2 240.401 Q1360.2 242.669 1361.68 244.012 Q1363.18 245.331 1365.75 245.331 Q1369.29 245.331 1371.42 242.831 Q1373.58 240.308 1373.58 236.141 L1373.58 235.192 L1369.34 235.192 M1377.83 233.433 L1377.83 248.225 L1373.58 248.225 L1373.58 244.289 Q1372.12 246.651 1369.94 247.785 Q1367.77 248.896 1364.62 248.896 Q1360.64 248.896 1358.27 246.674 Q1355.94 244.428 1355.94 240.678 Q1355.94 236.303 1358.85 234.081 Q1361.79 231.859 1367.6 231.859 L1373.58 231.859 L1373.58 231.442 Q1373.58 228.503 1371.63 226.905 Q1369.71 225.285 1366.21 225.285 Q1363.99 225.285 1361.89 225.817 Q1359.78 226.35 1357.83 227.415 L1357.83 223.479 Q1360.17 222.577 1362.37 222.137 Q1364.57 221.674 1366.65 221.674 Q1372.28 221.674 1375.06 224.591 Q1377.83 227.507 1377.83 233.433 Z" fill="#000000" fill-rule="nonzero" fill-opacity="1" /><path clip-path="url(#clip220)" d="M1386.61 212.206 L1390.87 212.206 L1390.87 248.225 L1386.61 248.225 L1386.61 212.206 Z" fill="#000000" fill-rule="nonzero" fill-opacity="1" /><path clip-path="url(#clip220)" d="M1438.6 243.294 L1438.6 234.012 L1430.96 234.012 L1430.96 230.169 L1443.23 230.169 L1443.23 245.007 Q1440.52 246.928 1437.26 247.924 Q1433.99 248.896 1430.29 248.896 Q1422.19 248.896 1417.6 244.174 Q1413.04 239.428 1413.04 230.979 Q1413.04 222.507 1417.6 217.785 Q1422.19 213.04 1430.29 213.04 Q1433.67 213.04 1436.7 213.873 Q1439.76 214.706 1442.33 216.327 L1442.33 221.303 Q1439.73 219.104 1436.82 217.993 Q1433.9 216.882 1430.68 216.882 Q1424.34 216.882 1421.14 220.424 Q1417.97 223.966 1417.97 230.979 Q1417.97 237.97 1421.14 241.512 Q1424.34 245.053 1430.68 245.053 Q1433.16 245.053 1435.1 244.637 Q1437.05 244.197 1438.6 243.294 Z" fill="#000000" fill-rule="nonzero" fill-opacity="1" /><path clip-path="url(#clip220)" d="M1463.37 235.192 Q1458.2 235.192 1456.21 236.373 Q1454.22 237.553 1454.22 240.401 Q1454.22 242.669 1455.7 244.012 Q1457.21 245.331 1459.78 245.331 Q1463.32 245.331 1465.45 242.831 Q1467.6 240.308 1467.6 236.141 L1467.6 235.192 L1463.37 235.192 M1471.86 233.433 L1471.86 248.225 L1467.6 248.225 L1467.6 244.289 Q1466.14 246.651 1463.97 247.785 Q1461.79 248.896 1458.64 248.896 Q1454.66 248.896 1452.3 246.674 Q1449.96 244.428 1449.96 240.678 Q1449.96 236.303 1452.88 234.081 Q1455.82 231.859 1461.63 231.859 L1467.6 231.859 L1467.6 231.442 Q1467.6 228.503 1465.66 226.905 Q1463.74 225.285 1460.24 225.285 Q1458.02 225.285 1455.91 225.817 Q1453.81 226.35 1451.86 227.415 L1451.86 223.479 Q1454.2 222.577 1456.4 222.137 Q1458.6 221.674 1460.68 221.674 Q1466.31 221.674 1469.08 224.591 Q1471.86 227.507 1471.86 233.433 Z" fill="#000000" fill-rule="nonzero" fill-opacity="1" /><path clip-path="url(#clip220)" d="M1497.16 223.063 L1497.16 227.091 Q1495.36 226.165 1493.41 225.702 Q1491.47 225.239 1489.38 225.239 Q1486.21 225.239 1484.62 226.211 Q1483.04 227.183 1483.04 229.128 Q1483.04 230.609 1484.18 231.465 Q1485.31 232.299 1488.74 233.063 L1490.2 233.387 Q1494.73 234.359 1496.63 236.141 Q1498.55 237.901 1498.55 241.072 Q1498.55 244.683 1495.68 246.789 Q1492.83 248.896 1487.83 248.896 Q1485.75 248.896 1483.48 248.479 Q1481.24 248.086 1478.74 247.276 L1478.74 242.877 Q1481.1 244.104 1483.39 244.729 Q1485.68 245.331 1487.93 245.331 Q1490.94 245.331 1492.56 244.313 Q1494.18 243.271 1494.18 241.396 Q1494.18 239.66 1493 238.734 Q1491.84 237.808 1487.88 236.952 L1486.4 236.604 Q1482.44 235.771 1480.68 234.058 Q1478.92 232.322 1478.92 229.313 Q1478.92 225.655 1481.51 223.665 Q1484.11 221.674 1488.88 221.674 Q1491.24 221.674 1493.32 222.021 Q1495.4 222.368 1497.16 223.063 Z" fill="#000000" fill-rule="nonzero" fill-opacity="1" /><path clip-path="url(#clip220)" d="M1130.25 303.521 L1211.55 303.521 L1211.55 262.049 L1130.25 262.049 L1130.25 303.521  Z" fill="#ffff00" fill-rule="evenodd" fill-opacity="1"/>
<polyline clip-path="url(#clip220)" style="stroke:#000000; stroke-linecap:round; stroke-linejoin:round; stroke-width:4; stroke-opacity:1; fill:none" points="1130.25,303.521 1211.55,303.521 1211.55,262.049 1130.25,262.049 1130.25,303.521 "/>
<path clip-path="url(#clip220)" d="M1247.35 266.639 L1247.35 271.199 Q1244.69 269.926 1242.33 269.301 Q1239.97 268.676 1237.77 268.676 Q1233.95 268.676 1231.86 270.157 Q1229.8 271.639 1229.8 274.37 Q1229.8 276.662 1231.17 277.843 Q1232.56 279 1236.4 279.718 L1239.22 280.296 Q1244.46 281.292 1246.93 283.815 Q1249.43 286.315 1249.43 290.528 Q1249.43 295.551 1246.05 298.143 Q1242.7 300.736 1236.19 300.736 Q1233.74 300.736 1230.96 300.18 Q1228.21 299.625 1225.24 298.537 L1225.24 293.722 Q1228.09 295.319 1230.82 296.129 Q1233.55 296.94 1236.19 296.94 Q1240.2 296.94 1242.37 295.366 Q1244.55 293.792 1244.55 290.875 Q1244.55 288.329 1242.97 286.893 Q1241.42 285.458 1237.86 284.741 L1235.01 284.185 Q1229.78 283.143 1227.44 280.921 Q1225.1 278.699 1225.1 274.741 Q1225.1 270.157 1228.32 267.519 Q1231.56 264.88 1237.23 264.88 Q1239.66 264.88 1242.19 265.319 Q1244.71 265.759 1247.35 266.639 Z" fill="#000000" fill-rule="nonzero" fill-opacity="1" /><path clip-path="url(#clip220)" d="M1266.59 277.125 Q1263.16 277.125 1261.17 279.81 Q1259.18 282.472 1259.18 287.125 Q1259.18 291.778 1261.15 294.463 Q1263.14 297.125 1266.59 297.125 Q1269.99 297.125 1271.98 294.44 Q1273.97 291.755 1273.97 287.125 Q1273.97 282.518 1271.98 279.833 Q1269.99 277.125 1266.59 277.125 M1266.59 273.514 Q1272.14 273.514 1275.31 277.125 Q1278.48 280.736 1278.48 287.125 Q1278.48 293.491 1275.31 297.125 Q1272.14 300.736 1266.59 300.736 Q1261.01 300.736 1257.84 297.125 Q1254.69 293.491 1254.69 287.125 Q1254.69 280.736 1257.84 277.125 Q1261.01 273.514 1266.59 273.514 Z" fill="#000000" fill-rule="nonzero" fill-opacity="1" /><path clip-path="url(#clip220)" d="M1285.54 264.046 L1289.8 264.046 L1289.8 300.065 L1285.54 300.065 L1285.54 264.046 Z" fill="#000000" fill-rule="nonzero" fill-opacity="1" /><path clip-path="url(#clip220)" d="M1310.5 287.032 Q1305.34 287.032 1303.34 288.213 Q1301.35 289.393 1301.35 292.241 Q1301.35 294.509 1302.84 295.852 Q1304.34 297.171 1306.91 297.171 Q1310.45 297.171 1312.58 294.671 Q1314.73 292.148 1314.73 287.981 L1314.73 287.032 L1310.5 287.032 M1318.99 285.273 L1318.99 300.065 L1314.73 300.065 L1314.73 296.129 Q1313.27 298.491 1311.1 299.625 Q1308.92 300.736 1305.77 300.736 Q1301.79 300.736 1299.43 298.514 Q1297.09 296.268 1297.09 292.518 Q1297.09 288.143 1300.01 285.921 Q1302.95 283.699 1308.76 283.699 L1314.73 283.699 L1314.73 283.282 Q1314.73 280.343 1312.79 278.745 Q1310.87 277.125 1307.37 277.125 Q1305.15 277.125 1303.04 277.657 Q1300.94 278.19 1298.99 279.255 L1298.99 275.319 Q1301.33 274.417 1303.53 273.977 Q1305.73 273.514 1307.81 273.514 Q1313.44 273.514 1316.21 276.431 Q1318.99 279.347 1318.99 285.273 Z" fill="#000000" fill-rule="nonzero" fill-opacity="1" /><path clip-path="url(#clip220)" d="M1342.79 278.12 Q1342.07 277.704 1341.21 277.518 Q1340.38 277.31 1339.36 277.31 Q1335.75 277.31 1333.81 279.671 Q1331.89 282.009 1331.89 286.407 L1331.89 300.065 L1327.6 300.065 L1327.6 274.139 L1331.89 274.139 L1331.89 278.167 Q1333.23 275.806 1335.38 274.671 Q1337.53 273.514 1340.61 273.514 Q1341.05 273.514 1341.58 273.583 Q1342.12 273.63 1342.77 273.745 L1342.79 278.12 Z" fill="#000000" fill-rule="nonzero" fill-opacity="1" /><path clip-path="url(#clip220)" d="M1130.25 355.361 L1211.55 355.361 L1211.55 313.889 L1130.25 313.889 L1130.25 355.361  Z" fill="#00bfff" fill-rule="evenodd" fill-opacity="1"/>
<polyline clip-path="url(#clip220)" style="stroke:#000000; stroke-linecap:round; stroke-linejoin:round; stroke-width:4; stroke-opacity:1; fill:none" points="1130.25,355.361 1211.55,355.361 1211.55,313.889 1130.25,313.889 1130.25,355.361 "/>
<path clip-path="url(#clip220)" d="M1225.1 317.345 L1229.83 317.345 L1237.09 346.557 L1244.34 317.345 L1249.59 317.345 L1256.86 346.557 L1264.11 317.345 L1268.85 317.345 L1260.17 351.905 L1254.29 351.905 L1247 321.905 L1239.64 351.905 L1233.76 351.905 L1225.1 317.345 Z" fill="#000000" fill-rule="nonzero" fill-opacity="1" /><path clip-path="url(#clip220)" d="M1273.83 325.979 L1278.09 325.979 L1278.09 351.905 L1273.83 351.905 L1273.83 325.979 M1273.83 315.886 L1278.09 315.886 L1278.09 321.28 L1273.83 321.28 L1273.83 315.886 Z" fill="#000000" fill-rule="nonzero" fill-opacity="1" /><path clip-path="url(#clip220)" d="M1308.55 336.257 L1308.55 351.905 L1304.29 351.905 L1304.29 336.395 Q1304.29 332.715 1302.86 330.886 Q1301.42 329.058 1298.55 329.058 Q1295.1 329.058 1293.11 331.257 Q1291.12 333.456 1291.12 337.252 L1291.12 351.905 L1286.84 351.905 L1286.84 325.979 L1291.12 325.979 L1291.12 330.007 Q1292.65 327.669 1294.71 326.511 Q1296.79 325.354 1299.5 325.354 Q1303.97 325.354 1306.26 328.132 Q1308.55 330.886 1308.55 336.257 Z" fill="#000000" fill-rule="nonzero" fill-opacity="1" /><path clip-path="url(#clip220)" d="M1334.11 329.914 L1334.11 315.886 L1338.37 315.886 L1338.37 351.905 L1334.11 351.905 L1334.11 348.016 Q1332.77 350.331 1330.71 351.465 Q1328.67 352.576 1325.8 352.576 Q1321.1 352.576 1318.14 348.826 Q1315.2 345.076 1315.2 338.965 Q1315.2 332.854 1318.14 329.104 Q1321.1 325.354 1325.8 325.354 Q1328.67 325.354 1330.71 326.488 Q1332.77 327.599 1334.11 329.914 M1319.59 338.965 Q1319.59 343.664 1321.52 346.349 Q1323.46 349.011 1326.84 349.011 Q1330.22 349.011 1332.16 346.349 Q1334.11 343.664 1334.11 338.965 Q1334.11 334.266 1332.16 331.604 Q1330.22 328.919 1326.84 328.919 Q1323.46 328.919 1321.52 331.604 Q1319.59 334.266 1319.59 338.965 Z" fill="#000000" fill-rule="nonzero" fill-opacity="1" /><path clip-path="url(#clip220)" d="M1130.25 407.201 L1211.55 407.201 L1211.55 365.729 L1130.25 365.729 L1130.25 407.201  Z" fill="#cd3278" fill-rule="evenodd" fill-opacity="1"/>
<polyline clip-path="url(#clip220)" style="stroke:#000000; stroke-linecap:round; stroke-linejoin:round; stroke-width:4; stroke-opacity:1; fill:none" points="1130.25,407.201 1211.55,407.201 1211.55,365.729 1130.25,365.729 1130.25,407.201 "/>
<path clip-path="url(#clip220)" d="M1229.78 387.24 L1229.78 399.902 L1237.28 399.902 Q1241.05 399.902 1242.86 398.351 Q1244.69 396.777 1244.69 393.56 Q1244.69 390.319 1242.86 388.791 Q1241.05 387.24 1237.28 387.24 L1229.78 387.24 M1229.78 373.027 L1229.78 383.444 L1236.7 383.444 Q1240.13 383.444 1241.79 382.171 Q1243.48 380.874 1243.48 378.236 Q1243.48 375.62 1241.79 374.324 Q1240.13 373.027 1236.7 373.027 L1229.78 373.027 M1225.1 369.185 L1237.05 369.185 Q1242.4 369.185 1245.29 371.407 Q1248.18 373.629 1248.18 377.726 Q1248.18 380.898 1246.7 382.773 Q1245.22 384.648 1242.35 385.11 Q1245.8 385.851 1247.7 388.212 Q1249.62 390.55 1249.62 394.069 Q1249.62 398.698 1246.47 401.222 Q1243.32 403.745 1237.51 403.745 L1225.1 403.745 L1225.1 369.185 Z" fill="#000000" fill-rule="nonzero" fill-opacity="1" /><path clip-path="url(#clip220)" d="M1269.22 390.712 Q1264.06 390.712 1262.07 391.893 Q1260.08 393.073 1260.08 395.921 Q1260.08 398.189 1261.56 399.532 Q1263.07 400.851 1265.64 400.851 Q1269.18 400.851 1271.31 398.351 Q1273.46 395.828 1273.46 391.661 L1273.46 390.712 L1269.22 390.712 M1277.72 388.953 L1277.72 403.745 L1273.46 403.745 L1273.46 399.809 Q1272 402.171 1269.83 403.305 Q1267.65 404.416 1264.5 404.416 Q1260.52 404.416 1258.16 402.194 Q1255.82 399.948 1255.82 396.198 Q1255.82 391.823 1258.74 389.601 Q1261.68 387.379 1267.49 387.379 L1273.46 387.379 L1273.46 386.962 Q1273.46 384.023 1271.52 382.425 Q1269.59 380.805 1266.1 380.805 Q1263.88 380.805 1261.77 381.337 Q1259.66 381.87 1257.72 382.935 L1257.72 378.999 Q1260.06 378.097 1262.26 377.657 Q1264.46 377.194 1266.54 377.194 Q1272.16 377.194 1274.94 380.111 Q1277.72 383.027 1277.72 388.953 Z" fill="#000000" fill-rule="nonzero" fill-opacity="1" /><path clip-path="url(#clip220)" d="M1290.71 370.458 L1290.71 377.819 L1299.48 377.819 L1299.48 381.129 L1290.71 381.129 L1290.71 395.203 Q1290.71 398.374 1291.56 399.277 Q1292.44 400.18 1295.1 400.18 L1299.48 400.18 L1299.48 403.745 L1295.1 403.745 Q1290.17 403.745 1288.3 401.916 Q1286.42 400.064 1286.42 395.203 L1286.42 381.129 L1283.3 381.129 L1283.3 377.819 L1286.42 377.819 L1286.42 370.458 L1290.71 370.458 Z" fill="#000000" fill-rule="nonzero" fill-opacity="1" /><path clip-path="url(#clip220)" d="M1309.29 370.458 L1309.29 377.819 L1318.07 377.819 L1318.07 381.129 L1309.29 381.129 L1309.29 395.203 Q1309.29 398.374 1310.15 399.277 Q1311.03 400.18 1313.69 400.18 L1318.07 400.18 L1318.07 403.745 L1313.69 403.745 Q1308.76 403.745 1306.89 401.916 Q1305.01 400.064 1305.01 395.203 L1305.01 381.129 L1301.89 381.129 L1301.89 377.819 L1305.01 377.819 L1305.01 370.458 L1309.29 370.458 Z" fill="#000000" fill-rule="nonzero" fill-opacity="1" /><path clip-path="url(#clip220)" d="M1345.84 389.717 L1345.84 391.8 L1326.26 391.8 Q1326.54 396.198 1328.9 398.513 Q1331.28 400.805 1335.52 400.805 Q1337.97 400.805 1340.27 400.203 Q1342.58 399.601 1344.85 398.397 L1344.85 402.425 Q1342.56 403.397 1340.15 403.907 Q1337.74 404.416 1335.27 404.416 Q1329.06 404.416 1325.43 400.805 Q1321.82 397.194 1321.82 391.036 Q1321.82 384.671 1325.24 380.944 Q1328.69 377.194 1334.52 377.194 Q1339.76 377.194 1342.79 380.573 Q1345.84 383.93 1345.84 389.717 M1341.58 388.467 Q1341.54 384.972 1339.62 382.888 Q1337.72 380.805 1334.57 380.805 Q1331.01 380.805 1328.85 382.819 Q1326.72 384.833 1326.4 388.49 L1341.58 388.467 Z" fill="#000000" fill-rule="nonzero" fill-opacity="1" /><path clip-path="url(#clip220)" d="M1367.86 381.8 Q1367.14 381.384 1366.28 381.198 Q1365.45 380.99 1364.43 380.99 Q1360.82 380.99 1358.88 383.351 Q1356.96 385.689 1356.96 390.087 L1356.96 403.745 L1352.67 403.745 L1352.67 377.819 L1356.96 377.819 L1356.96 381.847 Q1358.3 379.486 1360.45 378.351 Q1362.6 377.194 1365.68 377.194 Q1366.12 377.194 1366.65 377.263 Q1367.19 377.31 1367.83 377.425 L1367.86 381.8 Z" fill="#000000" fill-rule="nonzero" fill-opacity="1" /><path clip-path="url(#clip220)" d="M1383.11 406.152 Q1381.31 410.782 1379.59 412.194 Q1377.88 413.606 1375.01 413.606 L1371.61 413.606 L1371.61 410.041 L1374.11 410.041 Q1375.87 410.041 1376.84 409.208 Q1377.81 408.374 1378.99 405.272 L1379.76 403.328 L1369.27 377.819 L1373.78 377.819 L1381.89 398.097 L1389.99 377.819 L1394.5 377.819 L1383.11 406.152 Z" fill="#000000" fill-rule="nonzero" fill-opacity="1" /></svg>
