<svg xmlns="http://www.w3.org/2000/svg" xmlns:xlink="http://www.w3.org/1999/xlink" version="1.1" class="marks" width="971" height="477" viewBox="0 0 971 477"><rect width="971" height="477" fill="white"/><g fill="none" stroke-miterlimit="10" transform="translate(53,27)"><g class="mark-group role-frame root" role="graphics-object" aria-roledescription="group mark container"><g transform="translate(0,0)"><path class="background" aria-hidden="true" d="M0.5,0.5h845v400h-845Z" stroke="#ddd"/><g><g class="mark-group role-axis" aria-hidden="true"><g transform="translate(0.5,0.5)"><path class="background" aria-hidden="true" d="M0,0h0v0h0Z" pointer-events="none"/><g><g class="mark-rule role-axis-grid" pointer-events="none"><line transform="translate(0,400)" x2="845" y2="0" stroke="#ddd" stroke-width="1" opacity="1"/><line transform="translate(0,356)" x2="845" y2="0" stroke="#ddd" stroke-width="1" opacity="1"/><line transform="translate(0,311)" x2="845" y2="0" stroke="#ddd" stroke-width="1" opacity="1"/><line transform="translate(0,267)" x2="845" y2="0" stroke="#ddd" stroke-width="1" opacity="1"/><line transform="translate(0,222)" x2="845" y2="0" stroke="#ddd" stroke-width="1" opacity="1"/><line transform="translate(0,178)" x2="845" y2="0" stroke="#ddd" stroke-width="1" opacity="1"/><line transform="translate(0,133)" x2="845" y2="0" stroke="#ddd" stroke-width="1" opacity="1"/><line transform="translate(0,89)" x2="845" y2="0" stroke="#ddd" stroke-width="1" opacity="1"/><line transform="translate(0,44)" x2="845" y2="0" stroke="#ddd" stroke-width="1" opacity="1"/><line transform="translate(0,0)" x2="845" y2="0" stroke="#ddd" stroke-width="1" opacity="1"/></g></g><path class="foreground" aria-hidden="true" d="" pointer-events="none" display="none"/></g></g><g class="mark-group role-axis" role="graphics-symbol" aria-roledescription="axis" aria-label="X-axis titled 'Time Step (hours)' for a discrete scale with 1031 values: 467, 468, 469, 470, 471, ending with 1497"><g transform="translate(0.5,400.5)"><path class="background" aria-hidden="true" d="M0,0h0v0h0Z" pointer-events="none"/><g><g class="mark-rule role-axis-tick" pointer-events="none"><line transform="translate(3,0)" x2="0" y2="5" stroke="#888" stroke-width="1" opacity="1"/><line transform="translate(23,0)" x2="0" y2="5" stroke="#888" stroke-width="1" opacity="1"/><line transform="translate(42,0)" x2="0" y2="5" stroke="#888" stroke-width="1" opacity="1"/><line transform="translate(62,0)" x2="0" y2="5" stroke="#888" stroke-width="1" opacity="1"/><line transform="translate(82,0)" x2="0" y2="5" stroke="#888" stroke-width="1" opacity="1"/><line transform="translate(101,0)" x2="0" y2="5" stroke="#888" stroke-width="1" opacity="1"/><line transform="translate(121,0)" x2="0" y2="5" stroke="#888" stroke-width="1" opacity="1"/><line transform="translate(141,0)" x2="0" y2="5" stroke="#888" stroke-width="1" opacity="1"/><line transform="translate(160,0)" x2="0" y2="5" stroke="#888" stroke-width="1" opacity="1"/><line transform="translate(180,0)" x2="0" y2="5" stroke="#888" stroke-width="1" opacity="1"/><line transform="translate(200,0)" x2="0" y2="5" stroke="#888" stroke-width="1" opacity="1"/><line transform="translate(219,0)" x2="0" y2="5" stroke="#888" stroke-width="1" opacity="1"/><line transform="translate(239,0)" x2="0" y2="5" stroke="#888" stroke-width="1" opacity="1"/><line transform="translate(259,0)" x2="0" y2="5" stroke="#888" stroke-width="1" opacity="1"/><line transform="translate(278,0)" x2="0" y2="5" stroke="#888" stroke-width="1" opacity="1"/><line transform="translate(298,0)" x2="0" y2="5" stroke="#888" stroke-width="1" opacity="1"/><line transform="translate(318,0)" x2="0" y2="5" stroke="#888" stroke-width="1" opacity="1"/><line transform="translate(337,0)" x2="0" y2="5" stroke="#888" stroke-width="1" opacity="1"/><line transform="translate(357,0)" x2="0" y2="5" stroke="#888" stroke-width="1" opacity="1"/><line transform="translate(377,0)" x2="0" y2="5" stroke="#888" stroke-width="1" opacity="1"/><line transform="translate(396,0)" x2="0" y2="5" stroke="#888" stroke-width="1" opacity="1"/><line transform="translate(416,0)" x2="0" y2="5" stroke="#888" stroke-width="1" opacity="1"/><line transform="translate(436,0)" x2="0" y2="5" stroke="#888" stroke-width="1" opacity="1"/><line transform="translate(455,0)" x2="0" y2="5" stroke="#888" stroke-width="1" opacity="1"/><line transform="translate(475,0)" x2="0" y2="5" stroke="#888" stroke-width="1" opacity="1"/><line transform="translate(495,0)" x2="0" y2="5" stroke="#888" stroke-width="1" opacity="1"/><line transform="translate(514,0)" x2="0" y2="5" stroke="#888" stroke-width="1" opacity="1"/><line transform="translate(534,0)" x2="0" y2="5" stroke="#888" stroke-width="1" opacity="1"/><line transform="translate(554,0)" x2="0" y2="5" stroke="#888" stroke-width="1" opacity="1"/><line transform="translate(573,0)" x2="0" y2="5" stroke="#888" stroke-width="1" opacity="1"/><line transform="translate(593,0)" x2="0" y2="5" stroke="#888" stroke-width="1" opacity="1"/><line transform="translate(613,0)" x2="0" y2="5" stroke="#888" stroke-width="1" opacity="1"/><line transform="translate(632,0)" x2="0" y2="5" stroke="#888" stroke-width="1" opacity="1"/><line transform="translate(652,0)" x2="0" y2="5" stroke="#888" stroke-width="1" opacity="1"/><line transform="translate(672,0)" x2="0" y2="5" stroke="#888" stroke-width="1" opacity="1"/><line transform="translate(691,0)" x2="0" y2="5" stroke="#888" stroke-width="1" opacity="1"/><line transform="translate(711,0)" x2="0" y2="5" stroke="#888" stroke-width="1" opacity="1"/><line transform="translate(731,0)" x2="0" y2="5" stroke="#888" stroke-width="1" opacity="1"/><line transform="translate(750,0)" x2="0" y2="5" stroke="#888" stroke-width="1" opacity="1"/><line transform="translate(770,0)" x2="0" y2="5" stroke="#888" stroke-width="1" opacity="1"/><line transform="translate(790,0)" x2="0" y2="5" stroke="#888" stroke-width="1" opacity="1"/><line transform="translate(809,0)" x2="0" y2="5" stroke="#888" stroke-width="1" opacity="1"/><line transform="translate(829,0)" x2="0" y2="5" stroke="#888" stroke-width="1" opacity="1"/></g><g class="mark-text role-axis-label" pointer-events="none"><text text-anchor="end" transform="translate(2.868574199806029,7) rotate(270) translate(0,3)" font-family="sans-serif" font-size="10px" fill="#000" opacity="1">470</text><text text-anchor="end" transform="translate(22.53879728419012,7) rotate(270) translate(0,3)" font-family="sans-serif" font-size="10px" fill="#000" opacity="1">494</text><text text-anchor="end" transform="translate(42.209020368574215,7) rotate(270) translate(0,3)" font-family="sans-serif" font-size="10px" fill="#000" opacity="1">518</text><text text-anchor="end" transform="translate(61.879243452958306,7) rotate(270) translate(0,3)" font-family="sans-serif" font-size="10px" fill="#000" opacity="1">542</text><text text-anchor="end" transform="translate(81.5494665373424,7) rotate(270) translate(0,3)" font-family="sans-serif" font-size="10px" fill="#000" opacity="1">566</text><text text-anchor="end" transform="translate(101.2196896217265,7) rotate(270) translate(0,3)" font-family="sans-serif" font-size="10px" fill="#000" opacity="1">590</text><text text-anchor="end" transform="translate(120.8899127061106,7) rotate(270) translate(0,3)" font-family="sans-serif" font-size="10px" fill="#000" opacity="1">614</text><text text-anchor="end" transform="translate(140.56013579049468,7) rotate(270) translate(0,3)" font-family="sans-serif" font-size="10px" fill="#000" opacity="1">638</text><text text-anchor="end" transform="translate(160.2303588748788,7) rotate(270) translate(0,3)" font-family="sans-serif" font-size="10px" fill="#000" opacity="1">662</text><text text-anchor="end" transform="translate(179.90058195926287,7) rotate(270) translate(0,3)" font-family="sans-serif" font-size="10px" fill="#000" opacity="1">686</text><text text-anchor="end" transform="translate(199.57080504364697,7) rotate(270) translate(0,3)" font-family="sans-serif" font-size="10px" fill="#000" opacity="1">710</text><text text-anchor="end" transform="translate(219.24102812803105,7) rotate(270) translate(0,3)" font-family="sans-serif" font-size="10px" fill="#000" opacity="1">734</text><text text-anchor="end" transform="translate(238.91125121241515,7) rotate(270) translate(0,3)" font-family="sans-serif" font-size="10px" fill="#000" opacity="1">758</text><text text-anchor="end" transform="translate(258.58147429679923,7) rotate(270) translate(0,3)" font-family="sans-serif" font-size="10px" fill="#000" opacity="1">782</text><text text-anchor="end" transform="translate(278.25169738118336,7) rotate(270) translate(0,3)" font-family="sans-serif" font-size="10px" fill="#000" opacity="1">806</text><text text-anchor="end" transform="translate(297.92192046556744,7) rotate(270) translate(0,3)" font-family="sans-serif" font-size="10px" fill="#000" opacity="1">830</text><text text-anchor="end" transform="translate(317.5921435499515,7) rotate(270) translate(0,3)" font-family="sans-serif" font-size="10px" fill="#000" opacity="1">854</text><text text-anchor="end" transform="translate(337.2623666343356,7) rotate(270) translate(0,3)" font-family="sans-serif" font-size="10px" fill="#000" opacity="1">878</text><text text-anchor="end" transform="translate(356.9325897187197,7) rotate(270) translate(0,3)" font-family="sans-serif" font-size="10px" fill="#000" opacity="1">902</text><text text-anchor="end" transform="translate(376.6028128031038,7) rotate(270) translate(0,3)" font-family="sans-serif" font-size="10px" fill="#000" opacity="1">926</text><text text-anchor="end" transform="translate(396.2730358874879,7) rotate(270) translate(0,3)" font-family="sans-serif" font-size="10px" fill="#000" opacity="1">950</text><text text-anchor="end" transform="translate(415.943258971872,7) rotate(270) translate(0,3)" font-family="sans-serif" font-size="10px" fill="#000" opacity="1">974</text><text text-anchor="end" transform="translate(435.6134820562561,7) rotate(270) translate(0,3)" font-family="sans-serif" font-size="10px" fill="#000" opacity="1">998</text><text text-anchor="end" transform="translate(455.28370514064017,7) rotate(270) translate(0,3)" font-family="sans-serif" font-size="10px" fill="#000" opacity="1">1022</text><text text-anchor="end" transform="translate(474.9539282250243,7) rotate(270) translate(0,3)" font-family="sans-serif" font-size="10px" fill="#000" opacity="1">1046</text><text text-anchor="end" transform="translate(494.6241513094084,7) rotate(270) translate(0,3)" font-family="sans-serif" font-size="10px" fill="#000" opacity="1">1070</text><text text-anchor="end" transform="translate(514.2943743937924,7) rotate(270) translate(0,3)" font-family="sans-serif" font-size="10px" fill="#000" opacity="1">1094</text><text text-anchor="end" transform="translate(533.9645974781765,7) rotate(270) translate(0,3)" font-family="sans-serif" font-size="10px" fill="#000" opacity="1">1118</text><text text-anchor="end" transform="translate(553.6348205625607,7) rotate(270) translate(0,3)" font-family="sans-serif" font-size="10px" fill="#000" opacity="1">1142</text><text text-anchor="end" transform="translate(573.3050436469448,7) rotate(270) translate(0,3)" font-family="sans-serif" font-size="10px" fill="#000" opacity="1">1166</text><text text-anchor="end" transform="translate(592.9752667313289,7) rotate(270) translate(0,3)" font-family="sans-serif" font-size="10px" fill="#000" opacity="1">1190</text><text text-anchor="end" transform="translate(612.6454898157128,7) rotate(270) translate(0,3)" font-family="sans-serif" font-size="10px" fill="#000" opacity="1">1214</text><text text-anchor="end" transform="translate(632.315712900097,7) rotate(270) translate(0,3)" font-family="sans-serif" font-size="10px" fill="#000" opacity="1">1238</text><text text-anchor="end" transform="translate(651.9859359844811,7) rotate(270) translate(0,3)" font-family="sans-serif" font-size="10px" fill="#000" opacity="1">1262</text><text text-anchor="end" transform="translate(671.6561590688652,7) rotate(270) translate(0,3)" font-family="sans-serif" font-size="10px" fill="#000" opacity="1">1286</text><text text-anchor="end" transform="translate(691.3263821532494,7) rotate(270) translate(0,3)" font-family="sans-serif" font-size="10px" fill="#000" opacity="1">1310</text><text text-anchor="end" transform="translate(710.9966052376335,7) rotate(270) translate(0,3)" font-family="sans-serif" font-size="10px" fill="#000" opacity="1">1334</text><text text-anchor="end" transform="translate(730.6668283220174,7) rotate(270) translate(0,3)" font-family="sans-serif" font-size="10px" fill="#000" opacity="1">1358</text><text text-anchor="end" transform="translate(750.3370514064015,7) rotate(270) translate(0,3)" font-family="sans-serif" font-size="10px" fill="#000" opacity="1">1382</text><text text-anchor="end" transform="translate(770.0072744907857,7) rotate(270) translate(0,3)" font-family="sans-serif" font-size="10px" fill="#000" opacity="1">1406</text><text text-anchor="end" transform="translate(789.6774975751698,7) rotate(270) translate(0,3)" font-family="sans-serif" font-size="10px" fill="#000" opacity="1">1430</text><text text-anchor="end" transform="translate(809.3477206595539,7) rotate(270) translate(0,3)" font-family="sans-serif" font-size="10px" fill="#000" opacity="1">1454</text><text text-anchor="end" transform="translate(829.0179437439378,7) rotate(270) translate(0,3)" font-family="sans-serif" font-size="10px" fill="#000" opacity="1">1478</text></g><g class="mark-rule role-axis-domain" pointer-events="none"><line transform="translate(0,0)" x2="845" y2="0" stroke="#888" stroke-width="1" opacity="1"/></g><g class="mark-text role-axis-title" pointer-events="none"><text text-anchor="middle" transform="translate(422.5,42.24609375)" font-family="sans-serif" font-size="11px" font-weight="bold" fill="#000" opacity="1">Time Step (hours)</text></g></g><path class="foreground" aria-hidden="true" d="" pointer-events="none" display="none"/></g></g><g class="mark-group role-axis" role="graphics-symbol" aria-roledescription="axis" aria-label="Y-axis titled 'Emmissions (Tons)' for a linear scale with values from 0 to 4,500"><g transform="translate(0.5,0.5)"><path class="background" aria-hidden="true" d="M0,0h0v0h0Z" pointer-events="none"/><g><g class="mark-rule role-axis-tick" pointer-events="none"><line transform="translate(0,400)" x2="-5" y2="0" stroke="#888" stroke-width="1" opacity="1"/><line transform="translate(0,356)" x2="-5" y2="0" stroke="#888" stroke-width="1" opacity="1"/><line transform="translate(0,311)" x2="-5" y2="0" stroke="#888" stroke-width="1" opacity="1"/><line transform="translate(0,267)" x2="-5" y2="0" stroke="#888" stroke-width="1" opacity="1"/><line transform="translate(0,222)" x2="-5" y2="0" stroke="#888" stroke-width="1" opacity="1"/><line transform="translate(0,178)" x2="-5" y2="0" stroke="#888" stroke-width="1" opacity="1"/><line transform="translate(0,133)" x2="-5" y2="0" stroke="#888" stroke-width="1" opacity="1"/><line transform="translate(0,89)" x2="-5" y2="0" stroke="#888" stroke-width="1" opacity="1"/><line transform="translate(0,44)" x2="-5" y2="0" stroke="#888" stroke-width="1" opacity="1"/><line transform="translate(0,0)" x2="-5" y2="0" stroke="#888" stroke-width="1" opacity="1"/></g><g class="mark-text role-axis-label" pointer-events="none"><text text-anchor="end" transform="translate(-7,403)" font-family="sans-serif" font-size="10px" fill="#000" opacity="1">0</text><text text-anchor="end" transform="translate(-7,358.55555555555554)" font-family="sans-serif" font-size="10px" fill="#000" opacity="1">500</text><text text-anchor="end" transform="translate(-7,314.11111111111114)" font-family="sans-serif" font-size="10px" fill="#000" opacity="1">1,000</text><text text-anchor="end" transform="translate(-7,269.6666666666667)" font-family="sans-serif" font-size="10px" fill="#000" opacity="1">1,500</text><text text-anchor="end" transform="translate(-7,225.22222222222223)" font-family="sans-serif" font-size="10px" fill="#000" opacity="1">2,000</text><text text-anchor="end" transform="translate(-7,180.77777777777777)" font-family="sans-serif" font-size="10px" fill="#000" opacity="1">2,500</text><text text-anchor="end" transform="translate(-7,136.33333333333334)" font-family="sans-serif" font-size="10px" fill="#000" opacity="1">3,000</text><text text-anchor="end" transform="translate(-7,91.88888888888889)" font-family="sans-serif" font-size="10px" fill="#000" opacity="1">3,500</text><text text-anchor="end" transform="translate(-7,47.444444444444464)" font-family="sans-serif" font-size="10px" fill="#000" opacity="1">4,000</text><text text-anchor="end" transform="translate(-7,3)" font-family="sans-serif" font-size="10px" fill="#000" opacity="1">4,500</text></g><g class="mark-rule role-axis-domain" pointer-events="none"><line transform="translate(0,400)" x2="0" y2="-400" stroke="#888" stroke-width="1" opacity="1"/></g><g class="mark-text role-axis-title" pointer-events="none"><text text-anchor="middle" transform="translate(-36.0244140625,200) rotate(-90) translate(0,-2)" font-family="sans-serif" font-size="11px" font-weight="bold" fill="#000" opacity="1">Emmissions (Tons)</text></g></g><path class="foreground" aria-hidden="true" d="" pointer-events="none" display="none"/></g></g><g class="mark-group role-scope pathgroup" role="graphics-object" aria-roledescription="group mark container"><g transform="translate(0,0)"><path class="background" aria-hidden="true" d="M0,0h845v400h-845Z"/><g><g class="mark-line role-mark marks" role="graphics-object" aria-roledescription="line mark container"><path aria-label="Time Step (hours): 467; Emmissions (Tons): 1737.54914121; Zone: Zone 1" role="graphics-symbol" aria-roledescription="line mark" d="M0.41,245.551L1.229,245.551L2.049,245.551L2.869,118.86L3.688,113.583L4.508,99.223L5.327,69.981L6.147,69.981L6.967,130.47L7.786,180.736L8.606,200.696L9.425,154.617L10.245,159.716L11.065,179.498L11.884,188.088L12.704,170.046L13.523,128.137L14.343,87.124L15.162,69.981L15.982,69.981L16.802,69.981L17.621,69.981L18.441,101.482L19.26,168.588L20.08,245.551L20.9,245.551L21.719,245.551L22.539,190.647L23.358,184.861L24.178,197.048L24.998,210.808L25.817,228.931L26.637,245.551L27.456,245.551L28.276,332.065L29.096,332.065L29.915,332.065L30.735,332.065L31.554,332.065L32.374,331.772L33.194,279.048L34.013,278.574L34.833,287.257L35.652,285.107L36.472,286.531L37.291,326.513L38.111,279.008L38.931,330.638L39.75,279.91L40.57,299.727L41.389,290.935L42.209,254.89L43.029,251.79L43.848,251.79L44.668,251.79L45.487,251.79L46.307,287.004L47.127,321.751L47.946,330.638L48.766,330.638L49.585,330.638L50.405,330.638L51.225,330.638L52.044,316.953L52.864,251.79L53.683,279.389L54.503,302.905L55.323,275.833L56.142,290.578L56.962,292.014L57.781,330.638L58.601,330.638L59.42,330.638L60.24,312.835L61.06,285.505L61.879,247.066L62.699,247.036L63.518,247.036L64.338,247.036L65.158,247.036L65.977,281.699L66.797,315.927L67.616,328.413L68.436,328.413L69.256,328.413L70.075,328.413L70.895,328.413L71.714,328.413L72.534,281.469L73.354,277.881L74.173,279.592L74.993,262.565L75.812,325.648L76.632,272.128L77.452,272.414L78.271,306.743L79.091,325.824L79.91,302.172L80.73,275.395L81.549,239.851L82.369,239.851L83.189,239.851L84.008,239.851L84.828,239.851L85.647,274.784L86.467,311.133L87.287,325.05L88.106,325.05L88.926,325.05L89.745,325.05L90.565,325.05L91.385,325.05L92.204,280.556L93.024,281.373L93.843,304.597L94.663,323.714L95.483,323.714L96.302,286.019L97.122,323.714L97.941,298.003L98.761,322.766L99.581,300.249L100.4,271.063L101.22,236.995L102.039,236.995L102.859,236.995L103.678,236.995L104.498,236.995L105.318,272.847L106.137,307.852L106.957,331.287L107.776,334.833L108.596,334.833L109.416,334.833L110.235,334.833L111.055,329.806L111.874,282.445L112.694,274.262L113.514,291.867L114.333,309.066L115.153,323.736L115.972,306.126L116.792,286.015L117.612,260.754L118.431,260.754L119.251,325.732L120.07,295.905L120.89,262.558L121.71,260.754L122.529,260.754L123.349,260.754L124.168,261.493L124.988,290.428L125.807,320.752L126.627,340.397L127.447,340.397L128.266,340.397L129.086,340.397L129.905,340.397L130.725,340.397L131.545,340.397L132.364,340.397L133.184,340.397L134.003,340.397L134.823,340.397L135.643,340.397L136.462,340.397L137.282,340.397L138.101,340.397L138.921,340.397L139.741,318.809L140.56,287.303L141.38,272.644L142.199,272.644L143.019,272.644L143.839,276.334L144.658,300.463L145.478,324.211L146.297,340.397L147.117,340.397L147.936,340.397L148.756,340.397L149.576,340.397L150.395,340.397L151.215,340.397L152.034,306.644L152.854,302.685L153.674,290.719L154.493,275.682L155.313,262.008L156.132,266.808L156.952,275.448L157.772,279.541L158.591,288.565L159.411,266.705L160.23,254.839L161.05,254.839L161.87,254.839L162.689,254.839L163.509,261.538L164.328,293.645L165.148,323.242L165.968,344.128L166.787,344.128L167.607,344.128L168.426,344.128L169.246,344.128L170.065,328.809L170.885,273.212L171.705,248.985L172.524,248.985L173.344,281.295L174.163,292.417L174.983,296.159L175.803,289.326L176.622,296.234L177.442,290.649L178.261,296.436L179.081,271.227L179.901,248.985L180.72,248.985L181.54,248.985L182.359,248.985L183.179,248.985L183.999,286.333L184.818,320.649L185.638,331.322L186.457,331.322L187.277,331.322L188.097,331.322L188.916,331.322L189.736,331.322L190.555,298.008L191.375,307.306L192.194,331.322L193.014,331.322L193.834,331.322L194.653,331.322L195.473,331.322L196.292,331.322L197.112,331.322L197.932,322.683L198.751,298.994L199.571,264.471L200.39,253.252L201.21,253.252L202.03,253.252L202.849,253.252L203.669,281.051L204.488,316.119L205.308,331.322L206.128,331.322L206.947,331.322L207.767,331.322L208.586,331.322L209.406,328.798L210.226,291.017L211.045,331.322L211.865,276.279L212.684,331.322L213.504,331.322L214.323,331.322L215.143,331.322L215.963,331.322L216.782,331.322L217.602,320.321L218.421,296.845L219.241,263.122L220.061,253.252L220.88,253.252L221.7,253.252L222.519,253.252L223.339,281.353L224.159,316.209L224.978,331.322L225.798,331.322L226.617,331.322L227.437,331.322L228.257,331.322L229.076,287.241L229.896,253.252L230.715,253.252L231.535,298.643L232.355,276.841L233.174,331.322L233.994,331.322L234.813,331.322L235.633,319.46L236.452,313.563L237.272,304.601L238.092,284.285L238.911,253.252L239.731,253.252L240.55,253.252L241.37,253.252L242.19,253.252L243.009,282.711L243.829,315.831L244.648,337.081L245.468,340.963L246.288,340.963L247.107,340.963L247.927,340.963L248.746,326.402L249.566,299.738L250.386,297.287L251.205,333.357L252.025,340.963L252.844,340.963L253.664,340.963L254.484,340.963L255.303,340.963L256.123,340.963L256.942,340.963L257.762,317.24L258.581,284.809L259.401,273.852L260.221,273.852L261.04,273.852L261.86,273.852L262.679,279.839L263.499,310.189L264.319,332.81L265.138,340.963L265.958,340.963L266.777,340.963L267.597,340.963L268.417,340.963L269.236,340.963L270.056,340.963L270.875,340.963L271.695,340.963L272.515,340.963L273.334,340.963L274.154,340.963L274.973,340.963L275.793,340.963L276.613,340.963L277.432,340.963L278.252,273.852L279.071,273.852L279.891,273.852L280.71,273.852L281.53,274.463L282.35,299.164L283.169,324.829L283.989,340.963L284.808,340.963L285.628,340.963L286.448,340.963L287.267,340.963L288.087,340.963L288.906,308.342L289.726,273.852L290.546,273.852L291.365,308.869L292.185,344.128L293.004,344.128L293.824,344.128L294.644,344.128L295.463,344.128L296.283,344.128L297.102,344.128L297.922,309.542L298.742,288.205L299.561,280.615L300.381,280.615L301.2,280.615L302.02,302.181L302.839,331.048L303.659,304.893L304.479,304.893L305.298,304.893L306.118,304.893L306.937,304.893L307.757,304.893L308.577,296.145L309.396,282.75L310.216,278.645L311.035,282.154L311.855,281.348L312.675,275.644L313.494,272.898L314.314,267.615L315.133,264.468L315.953,248.236L316.773,227.144L317.592,204.7L318.412,247.306L319.231,199.077L320.051,239.702L320.871,210.327L321.69,253.092L322.51,293.164L323.329,304.893L324.149,304.893L324.968,304.893L325.788,304.893L326.608,304.893L327.427,304.893L328.247,292.013L329.066,268.79L329.886,261.681L330.706,261.611L331.525,259.689L332.345,260.148L333.164,259.391L333.984,254.556L334.804,254.797L335.623,242.124L336.443,222.272L337.262,252.565L338.082,196.781L338.902,196.781L339.721,238.3L340.541,211.58L341.36,249.985L342.18,287.57L343,304.893L343.819,304.893L344.639,304.893L345.458,304.893L346.278,304.893L347.097,304.893L347.917,265.436L348.737,239.995L349.556,238.323L350.376,234.932L351.195,235.782L352.015,239.934L352.835,208.1L353.654,191.288L354.474,195.043L355.293,191.288L356.113,191.288L356.933,191.288L357.752,191.288L358.572,191.288L359.391,191.288L360.211,191.288L361.031,250.002L361.85,288.474L362.67,304.893L363.489,304.893L364.309,304.893L365.129,304.893L365.948,304.893L366.768,304.893L367.587,292.54L368.407,275.024L369.226,279.801L370.046,287.078L370.866,290.341L371.685,292.312L372.505,295.436L373.324,293.223L374.144,245.833L374.964,213.463L375.783,196.781L376.603,196.781L377.422,196.781L378.242,196.781L379.062,196.781L379.881,196.781L380.701,229.465L381.52,291.772L382.34,304.893L383.16,304.893L383.979,304.893L384.799,304.893L385.618,304.893L386.438,304.893L387.258,304.893L388.077,304.893L388.897,289.384L389.716,296.369L390.536,301.957L391.355,304.893L392.175,302.182L392.995,298.29L393.814,284.425L394.634,265.665L395.453,269.94L396.273,213.715L397.093,213.701L397.912,251.412L398.732,213.995L399.551,221.859L400.371,295.175L401.191,291.507L402.01,304.893L402.83,304.893L403.649,304.893L404.469,304.893L405.289,304.893L406.108,304.893L406.928,304.893L407.747,304.893L408.567,304.893L409.387,304.893L410.206,304.893L411.026,304.893L411.845,304.893L412.665,304.893L413.484,304.893L414.304,304.893L415.124,304.893L415.943,272.111L416.763,299.801L417.582,258.315L418.402,247.182L419.222,291.776L420.041,277.003L420.861,304.893L421.68,304.893L422.5,304.893L423.32,304.893L424.139,304.893L424.959,304.893L425.778,304.893L426.598,304.893L427.418,304.893L428.237,304.893L429.057,304.893L429.876,304.893L430.696,304.893L431.516,304.893L432.335,304.893L433.155,304.893L433.974,304.893L434.794,304.893L435.613,304.893L436.433,284.012L437.253,287.607L438.072,249.31L438.892,291.671L439.711,304.893L440.531,304.893L441.351,208.176L442.17,227.364L442.99,239.46L443.809,243.486L444.629,243.486L445.449,232.279L446.268,201.247L447.088,171.926L447.907,157.576L448.727,146.387L449.547,134.008L450.366,117.15L451.186,99.909L452.005,82.405L452.825,69.299L453.645,41.63L454.464,31.19L455.284,6.95L456.103,8.355L456.923,9.147L457.742,9.147L458.562,9.147L459.382,51.366L460.201,133.498L461.021,187.379L461.84,214.686L462.66,217.081L463.48,217.081L464.299,217.081L465.119,217.081L465.938,151.283L466.758,89.067L467.578,75.765L468.397,36.485L469.217,110.913L470.036,84.127L470.856,72.138L471.676,64.971L472.495,55.334L473.315,32.469L474.134,9.147L474.954,9.147L475.774,9.147L476.593,9.147L477.413,9.147L478.232,19.333L479.052,58.786L479.871,103.05L480.691,134.234L481.511,179.783L482.33,182.548L483.15,201.831L483.969,173.588L484.789,187.165L485.609,142.329L486.428,80.574L487.248,45.795L488.067,52.798L488.887,18.811L489.707,60.959L490.526,48.816L491.346,36.358L492.165,23.025L492.985,19.801L493.805,9.147L494.624,9.147L495.444,9.147L496.263,9.147L497.083,18.062L497.903,53.041L498.722,124.701L499.542,170.341L500.361,206.914L501.181,232.281L502,243.486L502.82,243.486L503.64,243.486L504.459,243.486L505.279,224.103L506.098,166.96L506.918,151.84L507.738,137.748L508.557,144.192L509.377,132.213L510.196,132.993L511.016,129.036L511.836,124.031L512.655,137.763L513.475,97.825L514.294,126.568L515.114,65.568L515.934,126.909L516.753,131.802L517.573,177.44L518.392,146.063L519.212,208.714L520.032,243.486L520.851,243.486L521.671,243.486L522.49,243.486L523.31,243.486L524.129,243.486L524.949,243.486L525.769,243.486L526.588,191.085L527.408,199.528L528.227,198.177L529.047,182.037L529.867,182.12L530.686,171.346L531.506,174.713L532.325,208.013L533.145,180.61L533.965,192.881L534.784,132.43L535.604,139.73L536.423,182.203L537.243,145.585L538.063,185.642L538.882,228.425L539.702,243.486L540.521,243.486L541.341,243.486L542.161,243.486L542.98,243.486L543.8,243.486L544.619,243.486L545.439,243.486L546.258,243.486L547.078,243.486L547.898,243.486L548.717,243.486L549.537,243.486L550.356,243.486L551.176,243.486L551.996,243.486L552.815,243.486L553.635,213.09L554.454,228.658L555.274,201.807L556.094,243.486L556.913,243.486L557.733,243.486L558.552,243.486L559.372,243.486L560.192,243.486L561.011,243.486L561.831,243.486L562.65,243.486L563.47,243.486L564.29,243.486L565.109,243.486L565.929,243.486L566.748,243.486L567.568,243.486L568.387,243.486L569.207,243.486L570.027,243.486L570.846,243.486L571.666,243.486L572.485,208.356L573.305,172.682L574.125,158.627L574.944,159.252L575.764,161.024L576.583,172.198L577.403,207.296L578.223,243.486L579.042,255.659L579.862,255.659L580.681,255.659L581.501,255.659L582.321,255.659L583.14,255.659L583.96,244.789L584.779,216.797L585.599,206.691L586.419,200.373L587.238,190.997L588.058,165.957L588.877,147.459L589.697,145.924L590.516,152.631L591.336,163.09L592.156,147.818L592.975,155.314L593.795,111.521L594.614,132.438L595.434,104.3L596.254,145.333L597.073,203.404L597.893,255.659L598.712,255.659L599.532,255.659L600.352,255.659L601.171,255.659L601.991,255.659L602.81,255.659L603.63,255.659L604.45,248.031L605.269,248.657L606.089,249.7L606.908,244.539L607.728,236.111L608.548,222.94L609.367,212.936L610.187,158.679L611.006,140.968L611.826,118.468L612.645,91.579L613.465,91.579L614.285,91.579L615.104,117.196L615.924,133.542L616.743,188.159L617.563,251.371L618.383,255.659L619.202,255.659L620.022,255.659L620.841,255.659L621.661,255.659L622.481,255.659L623.3,249.132L624.12,210.932L624.939,195.261L625.759,188.613L626.579,175.531L627.398,155.046L628.218,139.71L629.037,124.891L629.857,119.232L630.677,107.2L631.496,100.66L632.316,91.579L633.135,103.65L633.955,126.902L634.774,132.397L635.594,160.449L636.414,204.568L637.233,244.956L638.053,255.659L638.872,255.659L639.692,255.659L640.512,255.659L641.331,255.659L642.151,255.659L642.97,255.659L643.79,229.948L644.61,178.273L645.429,155.293L646.249,131.9L647.068,117.053L647.888,104.956L648.708,95.839L649.527,92.64L650.347,101.24L651.166,92.592L651.986,91.579L652.806,91.579L653.625,91.579L654.445,103.943L655.264,134.159L656.084,165.459L656.903,222.801L657.723,254.059L658.543,255.659L659.362,255.659L660.182,255.659L661.001,255.659L661.821,255.659L662.641,244.611L663.46,233.354L664.28,164.534L665.099,147.398L665.919,127.36L666.739,98.296L667.558,83.856L668.378,77.826L669.197,77.826L670.017,77.826L670.837,77.826L671.656,77.826L672.476,77.826L673.295,77.826L674.115,77.826L674.935,77.826L675.754,126.038L676.574,197.777L677.393,254.653L678.213,255.659L679.032,255.659L679.852,255.659L680.672,255.659L681.491,255.659L682.311,245.061L683.13,233.987L683.95,215.243L684.77,196.13L685.589,178.66L686.409,189.916L687.228,188.167L688.048,186.932L688.868,194.94L689.687,213.109L690.507,194.371L691.326,171.202L692.146,163.739L692.966,168.602L693.785,169.695L694.605,191.07L695.424,223.239L696.244,255.659L697.064,255.659L697.883,255.659L698.703,255.659L699.522,255.659L700.342,255.659L701.161,255.659L701.981,255.659L702.801,255.659L703.62,255.659L704.44,255.659L705.259,255.659L706.079,234.375L706.899,218.115L707.718,209.56L708.538,200.571L709.357,184.546L710.177,159.155L710.997,125.133L711.816,151.382L712.636,153.599L713.455,156.058L714.275,184.103L715.095,222.347L715.914,255.659L716.734,274.696L717.553,274.696L718.373,274.696L719.193,274.696L720.012,274.696L720.832,274.696L721.651,250.407L722.471,248.919L723.29,255.621L724.11,274.696L724.93,274.696L725.749,274.696L726.569,274.696L727.388,274.696L728.208,274.696L729.028,274.696L729.847,214.697L730.667,173.505L731.486,180.946L732.306,196.208L733.126,217.909L733.945,257.539L734.765,274.696L735.584,274.696L736.404,274.696L737.224,274.696L738.043,274.696L738.863,274.696L739.682,274.696L740.502,274.696L741.322,274.696L742.141,242.281L742.961,266.363L743.78,274.696L744.6,274.696L745.419,274.696L746.239,274.696L747.059,274.696L747.878,271.373L748.698,244.655L749.517,192.402L750.337,164.171L751.157,171.794L751.976,183.854L752.796,197.822L753.615,225.905L754.435,262.894L755.255,274.696L756.074,274.696L756.894,274.696L757.713,274.696L758.533,274.696L759.353,274.696L760.172,249.951L760.992,188.044L761.811,163.349L762.631,223.89L763.451,274.696L764.27,274.696L765.09,274.696L765.909,274.696L766.729,270.238L767.548,274.696L768.368,217.534L769.188,139.776L770.007,132.257L770.827,162.392L771.646,171.524L772.466,132.257L773.286,151.955L774.105,196.751L774.925,237.624L775.744,264.557L776.564,274.696L777.384,274.696L778.203,274.696L779.023,270.86L779.842,234.016L780.662,168.731L781.482,148.338L782.301,182.192L783.121,204.935L783.94,222.509L784.76,226.36L785.58,243.411L786.399,226.074L787.219,224.628L788.038,186.27L788.858,132.257L789.677,132.257L790.497,132.257L791.317,132.257L792.136,132.257L792.956,132.257L793.775,193.422L794.595,235.059L795.415,261.366L796.234,257.746L797.054,274.696L797.873,274.696L798.693,271.191L799.513,235.061L800.332,172.718L801.152,140.559L801.971,165.839L802.791,213.759L803.611,257.401L804.43,254.832L805.25,262.412L806.069,255.833L806.889,214.14L807.709,187.64L808.528,133.094L809.348,132.257L810.167,132.257L810.987,132.257L811.806,142.557L812.626,166.922L813.446,201.2L814.265,233.969L815.085,262.176L815.904,274.696L816.724,274.696L817.544,274.696L818.363,274.696L819.183,269.471L820.002,243.732L820.822,229.593L821.642,250.898L822.461,272.019L823.281,274.696L824.1,274.696L824.92,274.696L825.74,274.696L826.559,274.696L827.379,265.656L828.198,180.071L829.018,132.257L829.838,137.137L830.657,150.847L831.477,165.591L832.296,187.452L833.116,217.484L833.935,253.177L834.755,271.864L835.575,274.696L836.394,274.696L837.214,274.696L838.033,274.696L838.853,274.696L839.673,261.7L840.492,250.188L841.312,271.186L842.131,274.696L842.951,274.696L843.771,274.696L844.59,274.696" stroke="#4c78a8" stroke-width="2"/></g></g><path class="foreground" aria-hidden="true" d="" display="none"/></g><g transform="translate(0,0)"><path class="background" aria-hidden="true" d="M0,0h845v400h-845Z"/><g><g class="mark-line role-mark marks" role="graphics-object" aria-roledescription="line mark container"><path aria-label="Time Step (hours): 467; Emmissions (Tons): 298.289332361; Zone: Zone 2" role="graphics-symbol" aria-roledescription="line mark" d="M0.41,373.485L1.229,373.485L2.049,326.566L2.869,321.554L3.688,321.554L4.508,321.554L5.327,321.554L6.147,321.554L6.967,321.554L7.786,321.554L8.606,321.554L9.425,321.554L10.245,321.554L11.065,321.554L11.884,321.554L12.704,321.554L13.523,321.554L14.343,321.554L15.162,321.554L15.982,321.554L16.802,321.554L17.621,321.554L18.441,321.554L19.26,321.554L20.08,365.084L20.9,385.609L21.719,384.195L22.539,390.193L23.358,388.72L24.178,373.37L24.998,390.193L25.817,390.193L26.637,390.193L27.456,390.193L28.276,320.242L29.096,320.242L29.915,320.242L30.735,320.242L31.554,320.242L32.374,320.242L33.194,187.154L34.013,171.948L34.833,164.028L35.652,164.028L36.472,164.028L37.291,164.028L38.111,164.028L38.931,164.028L39.75,164.028L40.57,164.028L41.389,202.352L42.209,242.059L43.029,289.592L43.848,320.242L44.668,254.041L45.487,306.903L46.307,320.242L47.127,320.242L47.946,320.242L48.766,320.242L49.585,320.242L50.405,279.16L51.225,200.871L52.044,164.028L52.864,164.028L53.683,225.922L54.503,164.028L55.323,164.028L56.142,164.028L56.962,164.028L57.781,164.028L58.601,244.394L59.42,248.259L60.24,221.51L61.06,206.171L61.879,194.647L62.699,245.117L63.518,175.598L64.338,236.324L65.158,270.417L65.977,225.053L66.797,244.369L67.616,233.239L68.436,212.35L69.256,251.172L70.075,304.93L70.895,253.475L71.714,214.948L72.534,318.694L73.354,225.72L74.173,164.028L74.993,164.028L75.812,164.028L76.632,164.028L77.452,164.028L78.271,164.028L79.091,230.357L79.91,220.929L80.73,255.591L81.549,204.617L82.369,182.382L83.189,206.533L84.008,173.313L84.828,229.151L85.647,259.987L86.467,306.991L87.287,304.694L88.106,315.05L88.926,164.028L89.745,283.823L90.565,250.927L91.385,284.52L92.204,239.018L93.024,241.834L93.843,179.494L94.663,164.028L95.483,164.028L96.302,164.028L97.122,164.028L97.941,164.028L98.761,164.028L99.581,186.823L100.4,205.516L101.22,250.742L102.039,204.789L102.859,229.757L103.678,248.002L104.498,331.945L105.318,332.544L106.137,332.544L106.957,332.544L107.776,332.544L108.596,332.544L109.416,332.544L110.235,332.544L111.055,332.544L111.874,280.609L112.694,319.453L113.514,266.383L114.333,205.309L115.153,245.466L115.972,200.425L116.792,200.425L117.612,200.425L118.431,200.425L119.251,200.425L120.07,200.425L120.89,295.924L121.71,312.87L122.529,264.896L123.349,220.878L124.168,248.875L124.988,277.208L125.807,281.107L126.627,332.544L127.447,332.544L128.266,332.544L129.086,332.544L129.905,332.544L130.725,332.544L131.545,328.54L132.364,259.469L133.184,233.459L134.003,222.889L134.823,162.858L135.643,173.159L136.462,175.173L137.282,243.881L138.101,210.53L138.921,217.75L139.741,201.837L140.56,174.202L141.38,216.738L142.199,249.752L143.019,165.535L143.839,175.685L144.658,182.78L145.478,201.643L146.297,245.309L147.117,282.82L147.936,293.752L148.756,292.215L149.576,253.256L150.395,183.048L151.215,166.755L152.034,163.263L152.854,164.028L153.674,164.028L154.493,164.028L155.313,164.028L156.132,164.028L156.952,164.028L157.772,164.028L158.591,164.028L159.411,164.028L160.23,164.028L161.05,164.028L161.87,164.028L162.689,173.763L163.509,270.117L164.328,252.083L165.148,320.242L165.968,400L166.787,400L167.607,400L168.426,400L169.246,400L170.065,400L170.885,400L171.705,400L172.524,400L173.344,389.138L174.163,340.857L174.983,336.865L175.803,336.865L176.622,359.172L177.442,378.66L178.261,378.66L179.081,377.271L179.901,336.865L180.72,336.865L181.54,336.865L182.359,369.693L183.179,366.402L183.999,378.66L184.818,378.66L185.638,378.66L186.457,378.66L187.277,378.66L188.097,378.66L188.916,378.66L189.736,369.655L190.555,343.019L191.375,378.66L192.194,378.66L193.014,378.66L193.834,378.66L194.653,378.66L195.473,378.66L196.292,378.66L197.112,264.031L197.932,242.487L198.751,172.627L199.571,181.408L200.39,318.146L201.21,172.627L202.03,254.847L202.849,310.748L203.669,255.068L204.488,302.649L205.308,172.627L206.128,252.641L206.947,177.629L207.767,323.148L208.586,323.148L209.406,177.629L210.226,172.627L211.045,172.627L211.865,172.627L212.684,201.783L213.504,314.366L214.323,323.148L215.143,323.148L215.963,323.148L216.782,323.148L217.602,303.694L218.421,243.256L219.241,313.351L220.061,169.454L220.88,170.15L221.7,170.15L222.519,170.15L223.339,228.409L224.159,322.311L224.978,259.947L225.798,242.914L226.617,170.15L227.437,170.15L228.257,170.15L229.076,170.15L229.896,170.15L230.715,170.15L231.535,170.15L232.355,170.15L233.174,170.15L233.994,236.577L234.813,316.935L235.633,309.474L236.452,308.291L237.272,255.995L238.092,327.53L238.911,327.53L239.731,258.349L240.55,185.593L241.37,185.593L242.19,185.593L243.009,185.593L243.829,195.465L244.648,329.293L245.468,400L246.288,400L247.107,400L247.927,400L248.746,400L249.566,400L250.386,400L251.205,400L252.025,400L252.844,400L253.664,400L254.484,400L255.303,400L256.123,400L256.942,400L257.762,400L258.581,400L259.401,400L260.221,400L261.04,400L261.86,400L262.679,400L263.499,400L264.319,400L265.138,400L265.958,400L266.777,400L267.597,400L268.417,400L269.236,400L270.056,400L270.875,400L271.695,400L272.515,352.311L273.334,324.773L274.154,345.348L274.973,371.068L275.793,374.08L276.613,373.88L277.432,332.784L278.252,323.312L279.071,323.312L279.891,323.312L280.71,323.312L281.53,355.34L282.35,395.475L283.169,395.475L283.989,395.475L284.808,395.475L285.628,395.475L286.448,395.475L287.267,395.475L288.087,395.475L288.906,386.906L289.726,386.612L290.546,386.612L291.365,391.432L292.185,400L293.004,400L293.824,400L294.644,400L295.463,400L296.283,400L297.102,400L297.922,400L298.742,400L299.561,400L300.381,400L301.2,400L302.02,400L302.839,400L303.659,232.505L304.479,219.43L305.298,204.132L306.118,244.415L306.937,205.48L307.757,205.595L308.577,164.028L309.396,164.028L310.216,165.539L311.035,168.841L311.855,218.436L312.675,266.06L313.494,320.242L314.314,320.242L315.133,320.242L315.953,320.242L316.773,320.242L317.592,320.242L318.412,220.755L319.231,270.537L320.051,239.563L320.871,282.636L321.69,192.918L322.51,230.671L323.329,287.599L324.149,320.242L324.968,320.242L325.788,224.795L326.608,171.187L327.427,202.971L328.247,164.028L329.066,179L329.886,164.028L330.706,214.305L331.525,222.343L332.345,250.006L333.164,251.318L333.984,240.184L334.804,238.035L335.623,231.312L336.443,164.136L337.262,202.83L338.082,315.165L338.902,254.772L339.721,193.686L340.541,240.998L341.36,278.288L342.18,206.247L343,244.226L343.819,236.499L344.639,191.965L345.458,183.061L346.278,168.294L347.097,164.028L347.917,164.028L348.737,164.028L349.556,222.244L350.376,278.275L351.195,164.028L352.015,164.028L352.835,164.028L353.654,164.028L354.474,164.028L355.293,164.028L356.113,164.028L356.933,164.028L357.752,164.028L358.572,164.028L359.391,164.028L360.211,164.028L361.031,164.028L361.85,233.308L362.67,311.115L363.489,320.242L364.309,320.242L365.129,320.242L365.948,320.242L366.768,320.242L367.587,273.447L368.407,320.242L369.226,289.583L370.046,320.242L370.866,276.094L371.685,241.279L372.505,246.751L373.324,194.996L374.144,164.028L374.964,164.028L375.783,164.028L376.603,164.028L377.422,164.028L378.242,164.028L379.062,164.028L379.881,164.028L380.701,164.028L381.52,164.028L382.34,217.916L383.16,294.428L383.979,281.282L384.799,225.37L385.618,181.98L386.438,246.555L387.258,175.903L388.077,164.028L388.897,164.028L389.716,164.028L390.536,189.408L391.355,234.589L392.175,272.207L392.995,295.688L393.814,216.128L394.634,207.685L395.453,173.914L396.273,167.885L397.093,164.028L397.912,199.645L398.732,223.755L399.551,211.279L400.371,222.303L401.191,201.218L402.01,187.839L402.83,207.742L403.649,218.923L404.469,229.018L405.289,186.082L406.108,247.807L406.928,212.145L407.747,164.028L408.567,164.028L409.387,164.028L410.206,173.976L411.026,164.46L411.845,179.179L412.665,194.808L413.484,191.937L414.304,175.643L415.124,225.688L415.943,250.498L416.763,276.992L417.582,220.267L418.402,212.731L419.222,226.765L420.041,204.164L420.861,199.394L421.68,187.375L422.5,164.028L423.32,164.028L424.139,203.436L424.959,203.808L425.778,221.932L426.598,206.149L427.418,164.353L428.237,195.162L429.057,187.872L429.876,187.747L430.696,185.984L431.516,196.799L432.335,171.745L433.155,203.669L433.974,199.248L434.794,237.08L435.613,216.487L436.433,252.938L437.253,252.353L438.072,270.388L438.892,263.399L439.711,186.058L440.531,164.028L441.351,164.028L442.17,167.898L442.99,223.525L443.809,276.977L444.629,283.626L445.449,281.013L446.268,166.892L447.088,186.275L447.907,172.73L448.727,164.028L449.547,192.321L450.366,231.169L451.186,202.483L452.005,179.233L452.825,173.781L453.645,217.304L454.464,164.028L455.284,252.803L456.103,164.028L456.923,164.028L457.742,164.028L458.562,164.028L459.382,164.028L460.201,175.233L461.021,203.773L461.84,313.946L462.66,320.242L463.48,294.798L464.299,242.172L465.119,164.028L465.938,164.028L466.758,164.028L467.578,164.028L468.397,164.028L469.217,164.028L470.036,164.028L470.856,213.898L471.676,298.804L472.495,313.162L473.315,314.739L474.134,315.738L474.954,277.003L475.774,172.04L476.593,164.028L477.413,233.905L478.232,261.259L479.052,273.875L479.871,320.242L480.691,320.242L481.511,320.242L482.33,320.242L483.15,263.502L483.969,219.512L484.789,222.377L485.609,199.18L486.428,164.028L487.248,164.028L488.067,164.028L488.887,164.028L489.707,164.028L490.526,218.437L491.346,267.924L492.165,247.776L492.985,188.286L493.805,164.028L494.624,164.028L495.444,164.028L496.263,164.028L497.083,164.028L497.903,164.028L498.722,164.028L499.542,164.028L500.361,202.477L501.181,201.236L502,164.028L502.82,199.566L503.64,276.124L504.459,215.179L505.279,164.028L506.098,164.028L506.918,164.028L507.738,164.028L508.557,164.028L509.377,164.028L510.196,164.028L511.016,164.028L511.836,164.028L512.655,164.028L513.475,164.028L514.294,164.028L515.114,164.028L515.934,164.028L516.753,164.028L517.573,164.028L518.392,164.028L519.212,164.028L520.032,208.293L520.851,320.242L521.671,320.242L522.49,320.242L523.31,320.242L524.129,320.242L524.949,169.93L525.769,164.028L526.588,164.028L527.408,164.028L528.227,164.028L529.047,164.028L529.867,164.028L530.686,164.028L531.506,164.028L532.325,164.028L533.145,164.028L533.965,164.028L534.784,164.028L535.604,164.028L536.423,164.028L537.243,164.028L538.063,164.028L538.882,164.028L539.702,164.028L540.521,164.028L541.341,250.761L542.161,276.64L542.98,239.811L543.8,290.323L544.619,192.305L545.439,206.118L546.258,193.893L547.078,164.028L547.898,184.758L548.717,183.762L549.537,171.411L550.356,164.028L551.176,164.028L551.996,164.028L552.815,164.028L553.635,164.028L554.454,187.119L555.274,265.771L556.094,320.242L556.913,289.967L557.733,201.073L558.552,209.042L559.372,219.253L560.192,241.039L561.011,212.1L561.831,220.31L562.65,226.178L563.47,219.202L564.29,232.835L565.109,274.73L565.929,215.019L566.748,170.766L567.568,183.548L568.387,175.699L569.207,164.028L570.027,174.188L570.846,200.932L571.666,228.032L572.485,240.735L573.305,258.626L574.125,262.592L574.944,168.268L575.764,274.561L576.583,306.075L577.403,202.239L578.223,262.084L579.042,185.034L579.862,195.948L580.681,204.412L581.501,208.296L582.321,206.225L583.14,179.466L583.96,164.028L584.779,164.028L585.599,164.028L586.419,164.028L587.238,164.028L588.058,164.028L588.877,164.028L589.697,164.028L590.516,164.028L591.336,164.028L592.156,164.028L592.975,164.028L593.795,164.028L594.614,164.028L595.434,164.028L596.254,164.028L597.073,164.028L597.893,235.686L598.712,273.234L599.532,236.327L600.352,219.866L601.171,205.473L601.991,276.746L602.81,250.953L603.63,189.942L604.45,228.23L605.269,192.583L606.089,198.794L606.908,274.106L607.728,206.59L608.548,183.983L609.367,185.449L610.187,164.028L611.006,164.028L611.826,164.028L612.645,164.028L613.465,164.028L614.285,164.028L615.104,164.028L615.924,164.028L616.743,164.028L617.563,178.268L618.383,211.273L619.202,265.771L620.022,245.072L620.841,277.709L621.661,282.252L622.481,224.821L623.3,164.028L624.12,164.028L624.939,164.028L625.759,164.028L626.579,164.028L627.398,164.028L628.218,164.028L629.037,164.028L629.857,164.028L630.677,164.028L631.496,164.028L632.316,164.028L633.135,164.028L633.955,164.028L634.774,167.577L635.594,234.034L636.414,227.551L637.233,320.242L638.053,320.242L638.872,320.242L639.692,320.242L640.512,320.242L641.331,305.599L642.151,204.925L642.97,165.757L643.79,164.028L644.61,164.028L645.429,164.028L646.249,164.028L647.068,164.028L647.888,164.028L648.708,164.028L649.527,164.028L650.347,164.028L651.166,164.028L651.986,164.028L652.806,164.028L653.625,164.028L654.445,174.939L655.264,181.471L656.084,164.028L656.903,302.21L657.723,320.242L658.543,320.242L659.362,278.839L660.182,212.829L661.001,168.537L661.821,164.028L662.641,164.028L663.46,164.028L664.28,164.028L665.099,164.028L665.919,164.028L666.739,164.028L667.558,164.028L668.378,164.028L669.197,164.028L670.017,164.028L670.837,164.028L671.656,164.028L672.476,164.028L673.295,164.028L674.115,164.028L674.935,164.028L675.754,164.028L676.574,164.028L677.393,175.222L678.213,180.454L679.032,199.721L679.852,213.89L680.672,196.689L681.491,164.028L682.311,164.028L683.13,164.028L683.95,164.028L684.77,164.028L685.589,164.028L686.409,164.028L687.228,164.028L688.048,164.028L688.868,164.028L689.687,236.387L690.507,249.435L691.326,215.324L692.146,221.249L692.966,199.867L693.785,230.191L694.605,195.425L695.424,171.143L696.244,186.855L697.064,193.53L697.883,191.586L698.703,223.194L699.522,230.26L700.342,218.329L701.161,214.691L701.981,230.528L702.801,220.281L703.62,191.627L704.44,174.961L705.259,164.028L706.079,164.028L706.899,164.028L707.718,164.028L708.538,164.028L709.357,164.028L710.177,164.028L710.997,164.028L711.816,166.304L712.636,164.028L713.455,231.799L714.275,297.748L715.095,274.944L715.914,172.522L716.734,199.059L717.553,211.331L718.373,220.083L719.193,226.339L720.012,223.305L720.832,185.426L721.651,164.028L722.471,164.028L723.29,164.028L724.11,164.197L724.93,185.475L725.749,224.032L726.569,277.783L727.388,300.037L728.208,320.242L729.028,268.859L729.847,222.016L730.667,255.55L731.486,263.937L732.306,301.723L733.126,316.004L733.945,320.242L734.765,320.242L735.584,320.242L736.404,320.242L737.224,320.242L738.043,320.242L738.863,320.242L739.682,320.242L740.502,320.242L741.322,284.761L742.141,277.709L742.961,221.192L743.78,226.263L744.6,251.138L745.419,259.783L746.239,320.242L747.059,277.52L747.878,320.242L748.698,252.283L749.517,170.714L750.337,170.94L751.157,275.508L751.976,278.919L752.796,180.118L753.615,166.128L754.435,185.796L755.255,191.831L756.074,181.712L756.894,183.468L757.713,188.437L758.533,187.852L759.353,180.74L760.172,164.028L760.992,164.028L761.811,164.028L762.631,164.028L763.451,221.605L764.27,260.69L765.09,247.644L765.909,264.342L766.729,164.028L767.548,221.686L768.368,164.028L769.188,164.028L770.007,164.028L770.827,190.827L771.646,245.213L772.466,164.028L773.286,164.028L774.105,164.028L774.925,164.028L775.744,164.028L776.564,164.028L777.384,164.028L778.203,164.028L779.023,164.028L779.842,164.028L780.662,164.028L781.482,164.028L782.301,164.028L783.121,164.028L783.94,164.028L784.76,164.028L785.58,164.028L786.399,164.028L787.219,164.028L788.038,164.028L788.858,164.028L789.677,164.028L790.497,164.028L791.317,164.028L792.136,164.028L792.956,164.028L793.775,164.028L794.595,164.028L795.415,164.028L796.234,164.028L797.054,164.028L797.873,164.028L798.693,164.028L799.513,164.028L800.332,164.028L801.152,164.028L801.971,164.028L802.791,164.028L803.611,164.028L804.43,164.028L805.25,164.028L806.069,164.028L806.889,164.028L807.709,164.028L808.528,164.028L809.348,164.028L810.167,164.028L810.987,164.028L811.806,164.028L812.626,164.028L813.446,164.028L814.265,164.028L815.085,164.028L815.904,164.028L816.724,170.155L817.544,164.028L818.363,173.41L819.183,164.028L820.002,164.028L820.822,164.028L821.642,164.028L822.461,164.028L823.281,206.654L824.1,225.401L824.92,205.313L825.74,209.538L826.559,188.192L827.379,164.028L828.198,164.028L829.018,164.028L829.838,164.028L830.657,164.028L831.477,164.028L832.296,164.028L833.116,164.028L833.935,164.028L834.755,164.028L835.575,175.834L836.394,182.577L837.214,184.712L838.033,180.762L838.853,170.031L839.673,164.028L840.492,164.028L841.312,164.028L842.131,164.028L842.951,205.265L843.771,203.096L844.59,205.961" stroke="#f58518" stroke-width="2"/></g></g><path class="foreground" aria-hidden="true" d="" display="none"/></g><g transform="translate(0,0)"><path class="background" aria-hidden="true" d="M0,0h845v400h-845Z"/><g><g class="mark-line role-mark marks" role="graphics-object" aria-roledescription="line mark container"><path aria-label="Time Step (hours): 467; Emmissions (Tons): 0; Zone: Zone 3" role="graphics-symbol" aria-roledescription="line mark" d="M0.41,400L1.229,400L2.049,400L2.869,400L3.688,400L4.508,400L5.327,400L6.147,400L6.967,400L7.786,400L8.606,400L9.425,400L10.245,400L11.065,400L11.884,400L12.704,400L13.523,400L14.343,400L15.162,400L15.982,400L16.802,400L17.621,400L18.441,400L19.26,400L20.08,400L20.9,400L21.719,400L22.539,400L23.358,400L24.178,400L24.998,400L25.817,400L26.637,400L27.456,400L28.276,400L29.096,400L29.915,400L30.735,400L31.554,400L32.374,400L33.194,400L34.013,400L34.833,400L35.652,400L36.472,400L37.291,400L38.111,400L38.931,400L39.75,400L40.57,400L41.389,400L42.209,400L43.029,400L43.848,400L44.668,400L45.487,400L46.307,400L47.127,400L47.946,400L48.766,400L49.585,400L50.405,400L51.225,400L52.044,400L52.864,400L53.683,400L54.503,400L55.323,400L56.142,400L56.962,400L57.781,400L58.601,400L59.42,400L60.24,400L61.06,400L61.879,400L62.699,400L63.518,400L64.338,400L65.158,400L65.977,400L66.797,400L67.616,400L68.436,400L69.256,400L70.075,400L70.895,400L71.714,400L72.534,400L73.354,400L74.173,400L74.993,400L75.812,400L76.632,400L77.452,400L78.271,400L79.091,400L79.91,400L80.73,400L81.549,400L82.369,400L83.189,400L84.008,400L84.828,400L85.647,400L86.467,400L87.287,400L88.106,400L88.926,400L89.745,400L90.565,400L91.385,400L92.204,400L93.024,400L93.843,400L94.663,400L95.483,400L96.302,400L97.122,400L97.941,400L98.761,400L99.581,400L100.4,400L101.22,400L102.039,400L102.859,400L103.678,400L104.498,400L105.318,400L106.137,400L106.957,400L107.776,400L108.596,400L109.416,400L110.235,400L111.055,400L111.874,400L112.694,400L113.514,400L114.333,400L115.153,400L115.972,400L116.792,400L117.612,400L118.431,400L119.251,400L120.07,400L120.89,400L121.71,400L122.529,400L123.349,400L124.168,400L124.988,400L125.807,400L126.627,400L127.447,400L128.266,400L129.086,400L129.905,400L130.725,400L131.545,400L132.364,400L133.184,400L134.003,400L134.823,400L135.643,400L136.462,400L137.282,400L138.101,400L138.921,400L139.741,400L140.56,400L141.38,400L142.199,400L143.019,400L143.839,400L144.658,400L145.478,400L146.297,400L147.117,400L147.936,400L148.756,400L149.576,400L150.395,400L151.215,400L152.034,400L152.854,400L153.674,400L154.493,400L155.313,400L156.132,400L156.952,400L157.772,400L158.591,400L159.411,400L160.23,400L161.05,400L161.87,400L162.689,400L163.509,400L164.328,400L165.148,400L165.968,400L166.787,400L167.607,400L168.426,400L169.246,400L170.065,400L170.885,400L171.705,400L172.524,400L173.344,400L174.163,400L174.983,400L175.803,400L176.622,400L177.442,400L178.261,400L179.081,400L179.901,400L180.72,400L181.54,400L182.359,400L183.179,400L183.999,400L184.818,400L185.638,400L186.457,400L187.277,400L188.097,400L188.916,400L189.736,400L190.555,400L191.375,400L192.194,400L193.014,400L193.834,400L194.653,400L195.473,400L196.292,400L197.112,400L197.932,400L198.751,400L199.571,400L200.39,400L201.21,400L202.03,400L202.849,400L203.669,400L204.488,400L205.308,400L206.128,400L206.947,400L207.767,400L208.586,400L209.406,400L210.226,400L211.045,400L211.865,400L212.684,400L213.504,400L214.323,400L215.143,400L215.963,400L216.782,400L217.602,400L218.421,400L219.241,400L220.061,400L220.88,400L221.7,400L222.519,400L223.339,400L224.159,400L224.978,400L225.798,400L226.617,400L227.437,400L228.257,400L229.076,400L229.896,400L230.715,400L231.535,400L232.355,400L233.174,400L233.994,400L234.813,400L235.633,400L236.452,400L237.272,400L238.092,400L238.911,400L239.731,400L240.55,400L241.37,400L242.19,400L243.009,400L243.829,400L244.648,400L245.468,400L246.288,400L247.107,400L247.927,400L248.746,400L249.566,400L250.386,400L251.205,400L252.025,400L252.844,400L253.664,400L254.484,400L255.303,400L256.123,400L256.942,400L257.762,400L258.581,400L259.401,400L260.221,400L261.04,400L261.86,400L262.679,400L263.499,400L264.319,400L265.138,400L265.958,400L266.777,400L267.597,400L268.417,400L269.236,400L270.056,400L270.875,400L271.695,400L272.515,400L273.334,400L274.154,400L274.973,400L275.793,400L276.613,400L277.432,400L278.252,400L279.071,400L279.891,400L280.71,400L281.53,400L282.35,400L283.169,400L283.989,400L284.808,400L285.628,400L286.448,400L287.267,400L288.087,400L288.906,400L289.726,400L290.546,400L291.365,400L292.185,400L293.004,400L293.824,400L294.644,400L295.463,400L296.283,400L297.102,400L297.922,400L298.742,400L299.561,400L300.381,400L301.2,400L302.02,400L302.839,400L303.659,400L304.479,400L305.298,400L306.118,400L306.937,400L307.757,400L308.577,400L309.396,400L310.216,400L311.035,400L311.855,400L312.675,400L313.494,400L314.314,400L315.133,400L315.953,400L316.773,400L317.592,400L318.412,400L319.231,400L320.051,400L320.871,400L321.69,400L322.51,400L323.329,400L324.149,400L324.968,400L325.788,400L326.608,400L327.427,400L328.247,400L329.066,400L329.886,400L330.706,400L331.525,400L332.345,400L333.164,400L333.984,400L334.804,400L335.623,400L336.443,400L337.262,400L338.082,400L338.902,400L339.721,400L340.541,400L341.36,400L342.18,400L343,400L343.819,400L344.639,400L345.458,400L346.278,400L347.097,400L347.917,400L348.737,400L349.556,400L350.376,400L351.195,400L352.015,400L352.835,400L353.654,400L354.474,400L355.293,400L356.113,400L356.933,400L357.752,400L358.572,400L359.391,400L360.211,400L361.031,400L361.85,400L362.67,400L363.489,400L364.309,400L365.129,400L365.948,400L366.768,400L367.587,400L368.407,400L369.226,400L370.046,400L370.866,400L371.685,400L372.505,400L373.324,400L374.144,400L374.964,400L375.783,400L376.603,400L377.422,400L378.242,400L379.062,400L379.881,400L380.701,400L381.52,400L382.34,400L383.16,400L383.979,400L384.799,400L385.618,400L386.438,400L387.258,400L388.077,400L388.897,400L389.716,400L390.536,400L391.355,400L392.175,400L392.995,400L393.814,400L394.634,400L395.453,400L396.273,400L397.093,400L397.912,400L398.732,400L399.551,400L400.371,400L401.191,400L402.01,400L402.83,400L403.649,400L404.469,400L405.289,400L406.108,400L406.928,400L407.747,400L408.567,400L409.387,400L410.206,400L411.026,400L411.845,400L412.665,400L413.484,400L414.304,400L415.124,400L415.943,400L416.763,400L417.582,400L418.402,400L419.222,400L420.041,400L420.861,400L421.68,400L422.5,400L423.32,400L424.139,400L424.959,400L425.778,400L426.598,400L427.418,400L428.237,400L429.057,400L429.876,400L430.696,400L431.516,400L432.335,400L433.155,400L433.974,400L434.794,400L435.613,400L436.433,400L437.253,400L438.072,400L438.892,400L439.711,400L440.531,400L441.351,400L442.17,400L442.99,400L443.809,400L444.629,400L445.449,400L446.268,400L447.088,400L447.907,400L448.727,400L449.547,400L450.366,396.991L451.186,393.317L452.005,393.032L452.825,391.371L453.645,390.752L454.464,391.478L455.284,391.942L456.103,390.384L456.923,390.446L457.742,390.446L458.562,390.446L459.382,395.471L460.201,395.471L461.021,395.471L461.84,395.471L462.66,395.471L463.48,395.471L464.299,395.471L465.119,395.471L465.938,395.471L466.758,395.471L467.578,395.471L468.397,395.471L469.217,395.471L470.036,395.471L470.856,393.114L471.676,390.446L472.495,390.446L473.315,390.446L474.134,390.446L474.954,390.446L475.774,390.446L476.593,390.446L477.413,390.446L478.232,395.471L479.052,395.471L479.871,395.471L480.691,395.471L481.511,395.471L482.33,395.471L483.15,395.471L483.969,395.471L484.789,395.471L485.609,395.471L486.428,395.471L487.248,395.471L488.067,395.471L488.887,394.632L489.707,390.868L490.526,390.446L491.346,390.446L492.165,393.864L492.985,394.316L493.805,390.446L494.624,390.446L495.444,390.446L496.263,390.446L497.083,396.56L497.903,400L498.722,400L499.542,400L500.361,400L501.181,400L502,400L502.82,400L503.64,400L504.459,400L505.279,400L506.098,400L506.918,400L507.738,400L508.557,400L509.377,400L510.196,400L511.016,400L511.836,400L512.655,400L513.475,400L514.294,400L515.114,400L515.934,400L516.753,400L517.573,400L518.392,400L519.212,400L520.032,400L520.851,400L521.671,400L522.49,400L523.31,400L524.129,400L524.949,400L525.769,400L526.588,400L527.408,400L528.227,400L529.047,400L529.867,400L530.686,400L531.506,400L532.325,400L533.145,400L533.965,400L534.784,400L535.604,400L536.423,400L537.243,400L538.063,400L538.882,400L539.702,400L540.521,400L541.341,400L542.161,400L542.98,400L543.8,400L544.619,400L545.439,400L546.258,400L547.078,400L547.898,400L548.717,400L549.537,400L550.356,400L551.176,400L551.996,400L552.815,400L553.635,400L554.454,400L555.274,400L556.094,400L556.913,400L557.733,400L558.552,400L559.372,400L560.192,400L561.011,400L561.831,400L562.65,400L563.47,400L564.29,400L565.109,400L565.929,400L566.748,400L567.568,400L568.387,400L569.207,400L570.027,400L570.846,400L571.666,400L572.485,400L573.305,400L574.125,400L574.944,400L575.764,400L576.583,400L577.403,400L578.223,400L579.042,400L579.862,400L580.681,400L581.501,400L582.321,400L583.14,400L583.96,400L584.779,400L585.599,400L586.419,400L587.238,400L588.058,400L588.877,400L589.697,400L590.516,400L591.336,400L592.156,400L592.975,400L593.795,400L594.614,400L595.434,400L596.254,400L597.073,400L597.893,400L598.712,400L599.532,400L600.352,400L601.171,400L601.991,400L602.81,400L603.63,400L604.45,400L605.269,400L606.089,400L606.908,400L607.728,400L608.548,400L609.367,400L610.187,400L611.006,400L611.826,400L612.645,400L613.465,400L614.285,400L615.104,400L615.924,400L616.743,400L617.563,400L618.383,400L619.202,400L620.022,400L620.841,400L621.661,400L622.481,400L623.3,400L624.12,400L624.939,400L625.759,400L626.579,400L627.398,400L628.218,400L629.037,400L629.857,400L630.677,400L631.496,400L632.316,400L633.135,400L633.955,400L634.774,400L635.594,400L636.414,400L637.233,400L638.053,400L638.872,400L639.692,400L640.512,400L641.331,400L642.151,400L642.97,400L643.79,400L644.61,400L645.429,400L646.249,400L647.068,400L647.888,400L648.708,400L649.527,400L650.347,400L651.166,400L651.986,400L652.806,400L653.625,400L654.445,400L655.264,400L656.084,400L656.903,400L657.723,400L658.543,400L659.362,400L660.182,400L661.001,400L661.821,400L662.641,400L663.46,400L664.28,400L665.099,400L665.919,400L666.739,400L667.558,400L668.378,400L669.197,400L670.017,400L670.837,400L671.656,400L672.476,400L673.295,400L674.115,400L674.935,400L675.754,400L676.574,400L677.393,400L678.213,400L679.032,400L679.852,400L680.672,400L681.491,400L682.311,400L683.13,400L683.95,400L684.77,400L685.589,400L686.409,400L687.228,400L688.048,400L688.868,400L689.687,400L690.507,400L691.326,400L692.146,400L692.966,400L693.785,400L694.605,400L695.424,400L696.244,400L697.064,400L697.883,400L698.703,400L699.522,400L700.342,400L701.161,400L701.981,400L702.801,400L703.62,400L704.44,400L705.259,400L706.079,400L706.899,400L707.718,400L708.538,400L709.357,400L710.177,400L710.997,400L711.816,400L712.636,400L713.455,400L714.275,400L715.095,400L715.914,400L716.734,400L717.553,400L718.373,400L719.193,400L720.012,400L720.832,400L721.651,400L722.471,400L723.29,400L724.11,400L724.93,400L725.749,400L726.569,400L727.388,400L728.208,400L729.028,400L729.847,400L730.667,400L731.486,400L732.306,400L733.126,400L733.945,400L734.765,400L735.584,400L736.404,400L737.224,400L738.043,400L738.863,400L739.682,400L740.502,400L741.322,400L742.141,400L742.961,400L743.78,400L744.6,400L745.419,400L746.239,400L747.059,400L747.878,400L748.698,400L749.517,400L750.337,400L751.157,400L751.976,400L752.796,400L753.615,400L754.435,400L755.255,400L756.074,400L756.894,400L757.713,400L758.533,400L759.353,400L760.172,400L760.992,400L761.811,400L762.631,400L763.451,400L764.27,400L765.09,400L765.909,400L766.729,400L767.548,400L768.368,400L769.188,400L770.007,400L770.827,400L771.646,400L772.466,400L773.286,400L774.105,400L774.925,400L775.744,400L776.564,400L777.384,400L778.203,400L779.023,400L779.842,400L780.662,400L781.482,400L782.301,400L783.121,400L783.94,400L784.76,400L785.58,400L786.399,400L787.219,400L788.038,400L788.858,400L789.677,400L790.497,400L791.317,400L792.136,400L792.956,400L793.775,400L794.595,400L795.415,400L796.234,400L797.054,400L797.873,400L798.693,400L799.513,400L800.332,400L801.152,400L801.971,400L802.791,400L803.611,400L804.43,400L805.25,400L806.069,400L806.889,400L807.709,400L808.528,400L809.348,400L810.167,400L810.987,400L811.806,400L812.626,400L813.446,400L814.265,400L815.085,400L815.904,400L816.724,400L817.544,400L818.363,400L819.183,400L820.002,400L820.822,400L821.642,400L822.461,400L823.281,400L824.1,400L824.92,400L825.74,400L826.559,400L827.379,400L828.198,400L829.018,400L829.838,400L830.657,400L831.477,400L832.296,400L833.116,400L833.935,400L834.755,400L835.575,400L836.394,400L837.214,400L838.033,400L838.853,400L839.673,400L840.492,400L841.312,400L842.131,400L842.951,400L843.771,400L844.59,400" stroke="#e45756" stroke-width="2"/></g></g><path class="foreground" aria-hidden="true" d="" display="none"/></g></g><g class="mark-group role-legend" role="graphics-symbol" aria-roledescription="legend" aria-label="Symbol legend titled 'Zone' for stroke color with 3 values: Zone 1, Zone 2, Zone 3"><g transform="translate(865,0)"><path class="background" aria-hidden="true" d="M0,0h48v53h-48Z" pointer-events="none"/><g><g class="mark-group role-legend-entry"><g transform="translate(0,16)"><path class="background" aria-hidden="true" d="M0,0h0v0h0Z" pointer-events="none"/><g><g class="mark-group role-scope" role="graphics-object" aria-roledescription="group mark container"><g transform="translate(0,0)"><path class="background" aria-hidden="true" d="M0,0h47.1328125v11h-47.1328125Z" pointer-events="none" opacity="1"/><g><g class="mark-symbol role-legend-symbol" pointer-events="none"><path transform="translate(6,6)" d="M-5,0L5,0" stroke="#4c78a8" stroke-width="1.5" opacity="1"/></g><g class="mark-text role-legend-label" pointer-events="none"><text text-anchor="start" transform="translate(16,9)" font-family="sans-serif" font-size="10px" fill="#000" opacity="1">Zone 1</text></g></g><path class="foreground" aria-hidden="true" d="" pointer-events="none" display="none"/></g><g transform="translate(0,13)"><path class="background" aria-hidden="true" d="M0,0h47.1328125v11h-47.1328125Z" pointer-events="none" opacity="1"/><g><g class="mark-symbol role-legend-symbol" pointer-events="none"><path transform="translate(6,6)" d="M-5,0L5,0" stroke="#f58518" stroke-width="1.5" opacity="1"/></g><g class="mark-text role-legend-label" pointer-events="none"><text text-anchor="start" transform="translate(16,9)" font-family="sans-serif" font-size="10px" fill="#000" opacity="1">Zone 2</text></g></g><path class="foreground" aria-hidden="true" d="" pointer-events="none" display="none"/></g><g transform="translate(0,26)"><path class="background" aria-hidden="true" d="M0,0h47.1328125v11h-47.1328125Z" pointer-events="none" opacity="1"/><g><g class="mark-symbol role-legend-symbol" pointer-events="none"><path transform="translate(6,6)" d="M-5,0L5,0" stroke="#e45756" stroke-width="1.5" opacity="1"/></g><g class="mark-text role-legend-label" pointer-events="none"><text text-anchor="start" transform="translate(16,9)" font-family="sans-serif" font-size="10px" fill="#000" opacity="1">Zone 3</text></g></g><path class="foreground" aria-hidden="true" d="" pointer-events="none" display="none"/></g></g></g><path class="foreground" aria-hidden="true" d="" pointer-events="none" display="none"/></g></g><g class="mark-text role-legend-title" pointer-events="none"><text text-anchor="start" transform="translate(0,9)" font-family="sans-serif" font-size="11px" font-weight="bold" fill="#000" opacity="1">Zone</text></g></g><path class="foreground" aria-hidden="true" d="" pointer-events="none" display="none"/></g></g><g class="mark-group role-title"><g transform="translate(422.5,-22)"><path class="background" aria-hidden="true" d="M0,0h0v0h0Z" pointer-events="none"/><g><g class="mark-text role-title-text" role="graphics-symbol" aria-roledescription="title" aria-label="Title text 'Emmissions per Time Step by Zone'" pointer-events="none"><text text-anchor="middle" transform="translate(0,10)" font-family="sans-serif" font-size="13px" font-weight="bold" fill="#000" opacity="1">Emmissions per Time Step by Zone</text></g></g><path class="foreground" aria-hidden="true" d="" pointer-events="none" display="none"/></g></g></g><path class="foreground" aria-hidden="true" d="" display="none"/></g></g></g></svg>