<svg xmlns="http://www.w3.org/2000/svg" xmlns:xlink="http://www.w3.org/1999/xlink" version="1.1" class="marks" width="1008" height="471" viewBox="0 0 1008 471"><rect width="1008" height="471" fill="white"/><g fill="none" stroke-miterlimit="10" transform="translate(58,27)"><g class="mark-group role-frame root" role="graphics-object" aria-roledescription="group mark container"><g transform="translate(0,0)"><path class="background" aria-hidden="true" d="M0.5,0.5h845v400h-845Z" stroke="#ddd"/><g><g class="mark-group role-axis" aria-hidden="true"><g transform="translate(0.5,0.5)"><path class="background" aria-hidden="true" d="M0,0h0v0h0Z" pointer-events="none"/><g><g class="mark-rule role-axis-grid" pointer-events="none"><line transform="translate(0,400)" x2="845" y2="0" stroke="#ddd" stroke-width="1" opacity="1"/><line transform="translate(0,369)" x2="845" y2="0" stroke="#ddd" stroke-width="1" opacity="1"/><line transform="translate(0,338)" x2="845" y2="0" stroke="#ddd" stroke-width="1" opacity="1"/><line transform="translate(0,308)" x2="845" y2="0" stroke="#ddd" stroke-width="1" opacity="1"/><line transform="translate(0,277)" x2="845" y2="0" stroke="#ddd" stroke-width="1" opacity="1"/><line transform="translate(0,246)" x2="845" y2="0" stroke="#ddd" stroke-width="1" opacity="1"/><line transform="translate(0,215)" x2="845" y2="0" stroke="#ddd" stroke-width="1" opacity="1"/><line transform="translate(0,185)" x2="845" y2="0" stroke="#ddd" stroke-width="1" opacity="1"/><line transform="translate(0,154)" x2="845" y2="0" stroke="#ddd" stroke-width="1" opacity="1"/><line transform="translate(0,123)" x2="845" y2="0" stroke="#ddd" stroke-width="1" opacity="1"/><line transform="translate(0,92)" x2="845" y2="0" stroke="#ddd" stroke-width="1" opacity="1"/><line transform="translate(0,62)" x2="845" y2="0" stroke="#ddd" stroke-width="1" opacity="1"/><line transform="translate(0,31)" x2="845" y2="0" stroke="#ddd" stroke-width="1" opacity="1"/><line transform="translate(0,0)" x2="845" y2="0" stroke="#ddd" stroke-width="1" opacity="1"/></g></g><path class="foreground" aria-hidden="true" d="" pointer-events="none" display="none"/></g></g><g class="mark-group role-axis" role="graphics-symbol" aria-roledescription="axis" aria-label="X-axis titled 'Time Step (hours)' for a discrete scale with 168 values: 1, 2, 3, 4, 5, ending with 168"><g transform="translate(0.5,400.5)"><path class="background" aria-hidden="true" d="M0,0h0v0h0Z" pointer-events="none"/><g><g class="mark-rule role-axis-tick" pointer-events="none"><line transform="translate(58,0)" x2="0" y2="5" stroke="#888" stroke-width="1" opacity="1"/><line transform="translate(118,0)" x2="0" y2="5" stroke="#888" stroke-width="1" opacity="1"/><line transform="translate(179,0)" x2="0" y2="5" stroke="#888" stroke-width="1" opacity="1"/><line transform="translate(239,0)" x2="0" y2="5" stroke="#888" stroke-width="1" opacity="1"/><line transform="translate(299,0)" x2="0" y2="5" stroke="#888" stroke-width="1" opacity="1"/><line transform="translate(360,0)" x2="0" y2="5" stroke="#888" stroke-width="1" opacity="1"/><line transform="translate(420,0)" x2="0" y2="5" stroke="#888" stroke-width="1" opacity="1"/><line transform="translate(480,0)" x2="0" y2="5" stroke="#888" stroke-width="1" opacity="1"/><line transform="translate(541,0)" x2="0" y2="5" stroke="#888" stroke-width="1" opacity="1"/><line transform="translate(601,0)" x2="0" y2="5" stroke="#888" stroke-width="1" opacity="1"/><line transform="translate(661,0)" x2="0" y2="5" stroke="#888" stroke-width="1" opacity="1"/><line transform="translate(722,0)" x2="0" y2="5" stroke="#888" stroke-width="1" opacity="1"/><line transform="translate(782,0)" x2="0" y2="5" stroke="#888" stroke-width="1" opacity="1"/><line transform="translate(842,0)" x2="0" y2="5" stroke="#888" stroke-width="1" opacity="1"/></g><g class="mark-text role-axis-label" pointer-events="none"><text text-anchor="end" transform="translate(57.84226190476186,7) rotate(270) translate(0,3)" font-family="sans-serif" font-size="10px" fill="#000" opacity="1">12</text><text text-anchor="end" transform="translate(118.19940476190473,7) rotate(270) translate(0,3)" font-family="sans-serif" font-size="10px" fill="#000" opacity="1">24</text><text text-anchor="end" transform="translate(178.5565476190476,7) rotate(270) translate(0,3)" font-family="sans-serif" font-size="10px" fill="#000" opacity="1">36</text><text text-anchor="end" transform="translate(238.91369047619045,7) rotate(270) translate(0,3)" font-family="sans-serif" font-size="10px" fill="#000" opacity="1">48</text><text text-anchor="end" transform="translate(299.2708333333333,7) rotate(270) translate(0,3)" font-family="sans-serif" font-size="10px" fill="#000" opacity="1">60</text><text text-anchor="end" transform="translate(359.62797619047615,7) rotate(270) translate(0,3)" font-family="sans-serif" font-size="10px" fill="#000" opacity="1">72</text><text text-anchor="end" transform="translate(419.98511904761904,7) rotate(270) translate(0,3)" font-family="sans-serif" font-size="10px" fill="#000" opacity="1">84</text><text text-anchor="end" transform="translate(480.34226190476187,7) rotate(270) translate(0,3)" font-family="sans-serif" font-size="10px" fill="#000" opacity="1">96</text><text text-anchor="end" transform="translate(540.6994047619048,7) rotate(270) translate(0,3)" font-family="sans-serif" font-size="10px" fill="#000" opacity="1">108</text><text text-anchor="end" transform="translate(601.0565476190477,7) rotate(270) translate(0,3)" font-family="sans-serif" font-size="10px" fill="#000" opacity="1">120</text><text text-anchor="end" transform="translate(661.4136904761904,7) rotate(270) translate(0,3)" font-family="sans-serif" font-size="10px" fill="#000" opacity="1">132</text><text text-anchor="end" transform="translate(721.7708333333333,7) rotate(270) translate(0,3)" font-family="sans-serif" font-size="10px" fill="#000" opacity="1">144</text><text text-anchor="end" transform="translate(782.1279761904761,7) rotate(270) translate(0,3)" font-family="sans-serif" font-size="10px" fill="#000" opacity="1">156</text><text text-anchor="end" transform="translate(842.485119047619,7) rotate(270) translate(0,3)" font-family="sans-serif" font-size="10px" fill="#000" opacity="1">168</text></g><g class="mark-rule role-axis-domain" pointer-events="none"><line transform="translate(0,0)" x2="845" y2="0" stroke="#888" stroke-width="1" opacity="1"/></g><g class="mark-text role-axis-title" pointer-events="none"><text text-anchor="middle" transform="translate(422.5,36.70000076293945)" font-family="sans-serif" font-size="11px" font-weight="bold" fill="#000" opacity="1">Time Step (hours)</text></g></g><path class="foreground" aria-hidden="true" d="" pointer-events="none" display="none"/></g></g><g class="mark-group role-axis" role="graphics-symbol" aria-roledescription="axis" aria-label="Y-axis titled 'Load (MW)' for a linear scale with values from 0 to 26,000"><g transform="translate(0.5,0.5)"><path class="background" aria-hidden="true" d="M0,0h0v0h0Z" pointer-events="none"/><g><g class="mark-rule role-axis-tick" pointer-events="none"><line transform="translate(0,400)" x2="-5" y2="0" stroke="#888" stroke-width="1" opacity="1"/><line transform="translate(0,369)" x2="-5" y2="0" stroke="#888" stroke-width="1" opacity="1"/><line transform="translate(0,338)" x2="-5" y2="0" stroke="#888" stroke-width="1" opacity="1"/><line transform="translate(0,308)" x2="-5" y2="0" stroke="#888" stroke-width="1" opacity="1"/><line transform="translate(0,277)" x2="-5" y2="0" stroke="#888" stroke-width="1" opacity="1"/><line transform="translate(0,246)" x2="-5" y2="0" stroke="#888" stroke-width="1" opacity="1"/><line transform="translate(0,215)" x2="-5" y2="0" stroke="#888" stroke-width="1" opacity="1"/><line transform="translate(0,185)" x2="-5" y2="0" stroke="#888" stroke-width="1" opacity="1"/><line transform="translate(0,154)" x2="-5" y2="0" stroke="#888" stroke-width="1" opacity="1"/><line transform="translate(0,123)" x2="-5" y2="0" stroke="#888" stroke-width="1" opacity="1"/><line transform="translate(0,92)" x2="-5" y2="0" stroke="#888" stroke-width="1" opacity="1"/><line transform="translate(0,62)" x2="-5" y2="0" stroke="#888" stroke-width="1" opacity="1"/><line transform="translate(0,31)" x2="-5" y2="0" stroke="#888" stroke-width="1" opacity="1"/><line transform="translate(0,0)" x2="-5" y2="0" stroke="#888" stroke-width="1" opacity="1"/></g><g class="mark-text role-axis-label" pointer-events="none"><text text-anchor="end" transform="translate(-7,403)" font-family="sans-serif" font-size="10px" fill="#000" opacity="1">0</text><text text-anchor="end" transform="translate(-7,372.2307692307692)" font-family="sans-serif" font-size="10px" fill="#000" opacity="1">2,000</text><text text-anchor="end" transform="translate(-7,341.46153846153845)" font-family="sans-serif" font-size="10px" fill="#000" opacity="1">4,000</text><text text-anchor="end" transform="translate(-7,310.6923076923077)" font-family="sans-serif" font-size="10px" fill="#000" opacity="1">6,000</text><text text-anchor="end" transform="translate(-7,279.9230769230769)" font-family="sans-serif" font-size="10px" fill="#000" opacity="1">8,000</text><text text-anchor="end" transform="translate(-7,249.15384615384616)" font-family="sans-serif" font-size="10px" fill="#000" opacity="1">10,000</text><text text-anchor="end" transform="translate(-7,218.3846153846154)" font-family="sans-serif" font-size="10px" fill="#000" opacity="1">12,000</text><text text-anchor="end" transform="translate(-7,187.6153846153846)" font-family="sans-serif" font-size="10px" fill="#000" opacity="1">14,000</text><text text-anchor="end" transform="translate(-7,156.84615384615384)" font-family="sans-serif" font-size="10px" fill="#000" opacity="1">16,000</text><text text-anchor="end" transform="translate(-7,126.07692307692308)" font-family="sans-serif" font-size="10px" fill="#000" opacity="1">18,000</text><text text-anchor="end" transform="translate(-7,95.30769230769229)" font-family="sans-serif" font-size="10px" fill="#000" opacity="1">20,000</text><text text-anchor="end" transform="translate(-7,64.53846153846155)" font-family="sans-serif" font-size="10px" fill="#000" opacity="1">22,000</text><text text-anchor="end" transform="translate(-7,33.769230769230745)" font-family="sans-serif" font-size="10px" fill="#000" opacity="1">24,000</text><text text-anchor="end" transform="translate(-7,3)" font-family="sans-serif" font-size="10px" fill="#000" opacity="1">26,000</text></g><g class="mark-rule role-axis-domain" pointer-events="none"><line transform="translate(0,400)" x2="0" y2="-400" stroke="#888" stroke-width="1" opacity="1"/></g><g class="mark-text role-axis-title" pointer-events="none"><text text-anchor="middle" transform="translate(-41.61666679382324,200) rotate(-90) translate(0,-2)" font-family="sans-serif" font-size="11px" font-weight="bold" fill="#000" opacity="1">Load (MW)</text></g></g><path class="foreground" aria-hidden="true" d="" pointer-events="none" display="none"/></g></g><g class="mark-group role-scope layer_0_pathgroup" role="graphics-object" aria-roledescription="group mark container"><g transform="translate(0,0)"><path class="background" aria-hidden="true" d="M0,0h845v400h-845Z"/><g><g class="mark-area role-mark layer_0_marks" role="graphics-object" aria-roledescription="area mark container"><path aria-label="Time Step (hours): 1; Load (MW): 0; Resource_Type: Solar; Resource_Type:n: undefined" role="graphics-symbol" aria-roledescription="area mark" d="M2.515,400L7.545,400L12.574,400L17.604,400L22.634,400L27.664,400L32.693,400L37.723,400L42.753,264.816L47.783,140.864L52.812,59.429L57.842,52.811L62.872,42.345L67.902,82.723L72.932,141.696L77.961,195.059L82.991,312.904L88.021,400L93.051,400L98.08,400L103.11,400L108.14,400L113.17,400L118.199,400L123.229,400L128.259,400L133.289,400L138.318,400L143.348,400L148.378,400L153.408,400L158.437,400L163.467,326.704L168.497,207.955L173.527,197.969L178.557,161.58L183.586,216.698L188.616,236.566L193.646,267.443L198.676,295.552L203.705,386.168L208.735,400L213.765,400L218.795,400L223.824,400L228.854,400L233.884,400L238.914,400L243.943,400L248.973,400L254.003,400L259.033,400L264.062,400L269.092,400L274.122,400L279.152,400L284.182,322.53L289.211,161.503L294.241,58.657L299.271,8.689L304.301,8.588L309.33,10.324L314.36,56.224L319.39,164.943L324.42,299.072L329.449,400L334.479,400L339.509,400L344.539,400L349.568,400L354.598,400L359.628,400L364.658,400L369.688,400L374.717,400L379.747,400L384.777,400L389.807,400L394.836,400L399.866,400L404.896,278.765L409.926,164.582L414.955,111.717L419.985,91.512L425.015,114.395L430.045,139.862L435.074,116.514L440.104,180.189L445.134,280.471L450.164,400L455.193,400L460.223,400L465.253,400L470.283,400L475.313,400L480.342,400L485.372,400L490.402,400L495.432,400L500.461,400L505.491,400L510.521,400L515.551,400L520.58,400L525.61,318.223L530.64,181.641L535.67,102.258L540.699,118.026L545.729,139.161L550.759,172.378L555.789,219.338L560.818,282.893L565.848,355.514L570.878,400L575.908,400L580.938,400L585.967,400L590.997,400L596.027,400L601.057,400L606.086,400L611.116,400L616.146,400L621.176,400L626.205,400L631.235,400L636.265,400L641.295,400L646.324,400L651.354,397.193L656.384,339.142L661.414,328.482L666.443,331.819L671.473,303.613L676.503,323.855L681.533,353.299L686.563,398.608L691.592,400L696.622,400L701.652,400L706.682,400L711.711,400L716.741,400L721.771,400L726.801,400L731.83,400L736.86,400L741.89,400L746.92,400L751.949,400L756.979,400L762.009,400L767.039,254.07L772.068,161.764L777.098,100.658L782.128,97.031L787.158,24.945L792.188,26.736L797.217,29.862L802.247,148.741L807.277,286.645L812.307,400L817.336,400L822.366,400L827.396,400L832.426,400L837.455,400L842.485,400L842.485,400L837.455,400L832.426,400L827.396,400L822.366,400L817.336,400L812.307,400L807.277,400L802.247,400L797.217,400L792.188,400L787.158,400L782.128,400L777.098,400L772.068,400L767.039,400L762.009,400L756.979,400L751.949,400L746.92,400L741.89,400L736.86,400L731.83,400L726.801,400L721.771,400L716.741,400L711.711,400L706.682,400L701.652,400L696.622,400L691.592,400L686.563,400L681.533,400L676.503,400L671.473,400L666.443,400L661.414,400L656.384,400L651.354,400L646.324,400L641.295,400L636.265,400L631.235,400L626.205,400L621.176,400L616.146,400L611.116,400L606.086,400L601.057,400L596.027,400L590.997,400L585.967,400L580.938,400L575.908,400L570.878,400L565.848,400L560.818,400L555.789,400L550.759,400L545.729,400L540.699,400L535.67,400L530.64,400L525.61,400L520.58,400L515.551,400L510.521,400L505.491,400L500.461,400L495.432,400L490.402,400L485.372,400L480.342,400L475.313,400L470.283,400L465.253,400L460.223,400L455.193,400L450.164,400L445.134,400L440.104,400L435.074,400L430.045,400L425.015,400L419.985,400L414.955,400L409.926,400L404.896,400L399.866,400L394.836,400L389.807,400L384.777,400L379.747,400L374.717,400L369.688,400L364.658,400L359.628,400L354.598,400L349.568,400L344.539,400L339.509,400L334.479,400L329.449,400L324.42,400L319.39,400L314.36,400L309.33,400L304.301,400L299.271,400L294.241,400L289.211,400L284.182,400L279.152,400L274.122,400L269.092,400L264.062,400L259.033,400L254.003,400L248.973,400L243.943,400L238.914,400L233.884,400L228.854,400L223.824,400L218.795,400L213.765,400L208.735,400L203.705,400L198.676,400L193.646,400L188.616,400L183.586,400L178.557,400L173.527,400L168.497,400L163.467,400L158.437,400L153.408,400L148.378,400L143.348,400L138.318,400L133.289,400L128.259,400L123.229,400L118.199,400L113.17,400L108.14,400L103.11,400L98.08,400L93.051,400L88.021,400L82.991,400L77.961,400L72.932,400L67.902,400L62.872,400L57.842,400L52.812,400L47.783,400L42.753,400L37.723,400L32.693,400L27.664,400L22.634,400L17.604,400L12.574,400L7.545,400L2.515,400Z" fill="#beaed4"/></g></g><path class="foreground" aria-hidden="true" d="" display="none"/></g><g transform="translate(0,0)"><path class="background" aria-hidden="true" d="M0,0h845v400h-845Z"/><g><g class="mark-area role-mark layer_0_marks" role="graphics-object" aria-roledescription="area mark container"><path aria-label="Time Step (hours): 1; Load (MW): 0; Resource_Type: Natural_Gas; Resource_Type:n: undefined" role="graphics-symbol" aria-roledescription="area mark" d="M2.515,400L7.545,400L12.574,400L17.604,400L22.634,400L27.664,400L32.693,400L37.723,400L42.753,264.816L47.783,140.864L52.812,59.429L57.842,52.811L62.872,42.345L67.902,82.723L72.932,141.696L77.961,195.059L82.991,312.904L88.021,400L93.051,400L98.08,400L103.11,400L108.14,400L113.17,400L118.199,400L123.229,400L128.259,400L133.289,400L138.318,400L143.348,400L148.378,400L153.408,400L158.437,400L163.467,326.704L168.497,207.955L173.527,197.969L178.557,161.58L183.586,216.698L188.616,236.566L193.646,267.443L198.676,295.552L203.705,386.168L208.735,400L213.765,400L218.795,400L223.824,400L228.854,400L233.884,400L238.914,400L243.943,400L248.973,400L254.003,400L259.033,400L264.062,400L269.092,400L274.122,400L279.152,400L284.182,322.53L289.211,161.503L294.241,58.657L299.271,8.689L304.301,8.588L309.33,10.324L314.36,56.224L319.39,164.943L324.42,299.072L329.449,400L334.479,400L339.509,400L344.539,400L349.568,400L354.598,400L359.628,400L364.658,400L369.688,400L374.717,400L379.747,400L384.777,400L389.807,400L394.836,400L399.866,400L404.896,278.765L409.926,164.582L414.955,111.717L419.985,91.512L425.015,114.395L430.045,139.862L435.074,116.514L440.104,180.189L445.134,280.471L450.164,355.984L455.193,331.224L460.223,342.079L465.253,331.224L470.283,331.224L475.313,331.224L480.342,331.224L485.372,341.206L490.402,366.002L495.432,331.224L500.461,332.42L505.491,345.459L510.521,331.224L515.551,331.224L520.58,331.224L525.61,266.499L530.64,173.933L535.67,94.551L540.699,110.319L545.729,131.454L550.759,164.67L555.789,197.929L560.818,261.483L565.848,334.105L570.878,378.591L575.908,378.591L580.938,378.591L585.967,378.591L590.997,378.591L596.027,378.591L601.057,379.79L606.086,393.492L611.116,393.492L616.146,393.492L621.176,393.492L626.205,393.492L631.235,393.492L636.265,393.492L641.295,386.094L646.324,386.094L651.354,383.287L656.384,326.271L661.414,314.576L666.443,317.913L671.473,289.707L676.503,309.949L681.533,339.393L686.563,384.702L691.592,386.094L696.622,386.094L701.652,386.094L706.682,391.236L711.711,399.687L716.741,400L721.771,400L726.801,400L731.83,400L736.86,400L741.89,400L746.92,400L751.949,400L756.979,400L762.009,400L767.039,254.07L772.068,161.764L777.098,100.658L782.128,97.031L787.158,24.945L792.188,26.736L797.217,29.862L802.247,148.741L807.277,286.645L812.307,400L817.336,400L822.366,400L827.396,400L832.426,400L837.455,400L842.485,400L842.485,400L837.455,400L832.426,400L827.396,400L822.366,400L817.336,400L812.307,400L807.277,286.645L802.247,148.741L797.217,29.862L792.188,26.736L787.158,24.945L782.128,97.031L777.098,100.658L772.068,161.764L767.039,254.07L762.009,400L756.979,400L751.949,400L746.92,400L741.89,400L736.86,400L731.83,400L726.801,400L721.771,400L716.741,400L711.711,400L706.682,400L701.652,400L696.622,400L691.592,400L686.563,398.608L681.533,353.299L676.503,323.855L671.473,303.613L666.443,331.819L661.414,328.482L656.384,339.142L651.354,397.193L646.324,400L641.295,400L636.265,400L631.235,400L626.205,400L621.176,400L616.146,400L611.116,400L606.086,400L601.057,400L596.027,400L590.997,400L585.967,400L580.938,400L575.908,400L570.878,400L565.848,355.514L560.818,282.893L555.789,219.338L550.759,172.378L545.729,139.161L540.699,118.026L535.67,102.258L530.64,181.641L525.61,318.223L520.58,400L515.551,400L510.521,400L505.491,400L500.461,400L495.432,400L490.402,400L485.372,400L480.342,400L475.313,400L470.283,400L465.253,400L460.223,400L455.193,400L450.164,400L445.134,280.471L440.104,180.189L435.074,116.514L430.045,139.862L425.015,114.395L419.985,91.512L414.955,111.717L409.926,164.582L404.896,278.765L399.866,400L394.836,400L389.807,400L384.777,400L379.747,400L374.717,400L369.688,400L364.658,400L359.628,400L354.598,400L349.568,400L344.539,400L339.509,400L334.479,400L329.449,400L324.42,299.072L319.39,164.943L314.36,56.224L309.33,10.324L304.301,8.588L299.271,8.689L294.241,58.657L289.211,161.503L284.182,322.53L279.152,400L274.122,400L269.092,400L264.062,400L259.033,400L254.003,400L248.973,400L243.943,400L238.914,400L233.884,400L228.854,400L223.824,400L218.795,400L213.765,400L208.735,400L203.705,386.168L198.676,295.552L193.646,267.443L188.616,236.566L183.586,216.698L178.557,161.58L173.527,197.969L168.497,207.955L163.467,326.704L158.437,400L153.408,400L148.378,400L143.348,400L138.318,400L133.289,400L128.259,400L123.229,400L118.199,400L113.17,400L108.14,400L103.11,400L98.08,400L93.051,400L88.021,400L82.991,312.904L77.961,195.059L72.932,141.696L67.902,82.723L62.872,42.345L57.842,52.811L52.812,59.429L47.783,140.864L42.753,264.816L37.723,400L32.693,400L27.664,400L22.634,400L17.604,400L12.574,400L7.545,400L2.515,400Z" fill="#fdc086"/></g></g><path class="foreground" aria-hidden="true" d="" display="none"/></g><g transform="translate(0,0)"><path class="background" aria-hidden="true" d="M0,0h845v400h-845Z"/><g><g class="mark-area role-mark layer_0_marks" role="graphics-object" aria-roledescription="area mark container"><path aria-label="Time Step (hours): 1; Load (MW): 3723.9354018; Resource_Type: Battery; Resource_Type:n: undefined" role="graphics-symbol" aria-roledescription="area mark" d="M2.515,342.709L7.545,317.909L12.574,317.041L17.604,310.942L22.634,296.234L27.664,276.189L32.693,302.002L37.723,292.83L42.753,164.993L47.783,83.392L52.812,39.179L57.842,25.632L62.872,20.98L67.902,42.19L72.932,72.123L77.961,129.073L82.991,178.859L88.021,292.981L93.051,329.027L98.08,278.515L103.11,316.538L108.14,299.317L113.17,292.94L118.199,324.153L123.229,335.53L128.259,362.803L133.289,326.172L138.318,361.427L143.348,293.599L148.378,349.379L153.408,285.179L158.437,265.644L163.467,234.501L168.497,187.073L173.527,163.775L178.557,96.505L183.586,173.851L188.616,207.438L193.646,215.937L198.676,191.951L203.705,254.17L208.735,304.129L213.765,312.554L218.795,322.962L223.824,269.751L228.854,293.537L233.884,357.796L238.914,344.938L243.943,317.823L248.973,338.396L254.003,280.799L259.033,341.912L264.062,316.419L269.092,270.218L274.122,315.563L279.152,256.013L284.182,172.887L289.211,83.918L294.241,31.844L299.271,7.388L304.301,8.588L309.33,10.324L314.36,34.992L319.39,99.614L324.42,205.704L329.449,282.132L334.479,308.939L339.509,250.651L344.539,303.517L349.568,308L354.598,301.013L359.628,372.95L364.658,278.284L369.688,331.39L374.717,341.919L379.747,344.836L384.777,284.041L389.807,311.346L394.836,239.881L399.866,308.2L404.896,146.608L409.926,122.737L414.955,55.499L419.985,87.886L425.015,58.349L430.045,97.117L435.074,88.287L440.104,131.68L445.134,218.715L450.164,306.391L455.193,265.414L460.223,342.079L465.253,255.884L470.283,330.32L475.313,276.795L480.342,326.917L485.372,341.206L490.402,330.994L495.432,328.438L500.461,297.413L505.491,339.969L510.521,302.89L515.551,270.764L520.58,218.936L525.61,246.501L530.64,161.868L535.67,81.369L540.699,110.319L545.729,131.454L550.759,164.67L555.789,190.506L560.818,200.485L565.848,205.217L570.878,231.801L575.908,297.1L580.938,264.6L585.967,295.674L590.997,304.504L596.027,343.256L601.057,361.346L606.086,393.492L611.116,375.886L616.146,393.492L621.176,393.492L626.205,358.485L631.235,393.492L636.265,358.485L641.295,380.058L646.324,333.338L651.354,314.968L656.384,291.263L661.414,304.25L666.443,293.638L671.473,247.731L676.503,274.65L681.533,230.984L686.563,263.751L691.592,346.67L696.622,369.977L701.652,342.499L706.682,374.487L711.711,392.272L716.741,337.809L721.771,374.688L726.801,369.111L731.83,298.383L736.86,373.29L741.89,269.855L746.92,280.866L751.949,316.482L756.979,256.049L762.009,273.778L767.039,142.982L772.068,91.227L777.098,57.931L782.128,85.378L787.158,23.016L792.188,26.736L797.217,29.862L802.247,89.971L807.277,157.602L812.307,290.9L817.336,313.072L822.366,286.927L827.396,326.846L832.426,264.11L837.455,346.806L842.485,347.243L842.485,400L837.455,400L832.426,400L827.396,400L822.366,400L817.336,400L812.307,400L807.277,286.645L802.247,148.741L797.217,29.862L792.188,26.736L787.158,24.945L782.128,97.031L777.098,100.658L772.068,161.764L767.039,254.07L762.009,400L756.979,400L751.949,400L746.92,400L741.89,400L736.86,400L731.83,400L726.801,400L721.771,400L716.741,400L711.711,399.687L706.682,391.236L701.652,386.094L696.622,386.094L691.592,386.094L686.563,384.702L681.533,339.393L676.503,309.949L671.473,289.707L666.443,317.913L661.414,314.576L656.384,326.271L651.354,383.287L646.324,386.094L641.295,386.094L636.265,393.492L631.235,393.492L626.205,393.492L621.176,393.492L616.146,393.492L611.116,393.492L606.086,393.492L601.057,379.79L596.027,378.591L590.997,378.591L585.967,378.591L580.938,378.591L575.908,378.591L570.878,378.591L565.848,334.105L560.818,261.483L555.789,197.929L550.759,164.67L545.729,131.454L540.699,110.319L535.67,94.551L530.64,173.933L525.61,266.499L520.58,331.224L515.551,331.224L510.521,331.224L505.491,345.459L500.461,332.42L495.432,331.224L490.402,366.002L485.372,341.206L480.342,331.224L475.313,331.224L470.283,331.224L465.253,331.224L460.223,342.079L455.193,331.224L450.164,355.984L445.134,280.471L440.104,180.189L435.074,116.514L430.045,139.862L425.015,114.395L419.985,91.512L414.955,111.717L409.926,164.582L404.896,278.765L399.866,400L394.836,400L389.807,400L384.777,400L379.747,400L374.717,400L369.688,400L364.658,400L359.628,400L354.598,400L349.568,400L344.539,400L339.509,400L334.479,400L329.449,400L324.42,299.072L319.39,164.943L314.36,56.224L309.33,10.324L304.301,8.588L299.271,8.689L294.241,58.657L289.211,161.503L284.182,322.53L279.152,400L274.122,400L269.092,400L264.062,400L259.033,400L254.003,400L248.973,400L243.943,400L238.914,400L233.884,400L228.854,400L223.824,400L218.795,400L213.765,400L208.735,400L203.705,386.168L198.676,295.552L193.646,267.443L188.616,236.566L183.586,216.698L178.557,161.58L173.527,197.969L168.497,207.955L163.467,326.704L158.437,400L153.408,400L148.378,400L143.348,400L138.318,400L133.289,400L128.259,400L123.229,400L118.199,400L113.17,400L108.14,400L103.11,400L98.08,400L93.051,400L88.021,400L82.991,312.904L77.961,195.059L72.932,141.696L67.902,82.723L62.872,42.345L57.842,52.811L52.812,59.429L47.783,140.864L42.753,264.816L37.723,400L32.693,400L27.664,400L22.634,400L17.604,400L12.574,400L7.545,400L2.515,400Z" fill="#ffff99"/></g></g><path class="foreground" aria-hidden="true" d="" display="none"/></g><g transform="translate(0,0)"><path class="background" aria-hidden="true" d="M0,0h845v400h-845Z"/><g><g class="mark-area role-mark layer_0_marks" role="graphics-object" aria-roledescription="area mark container"><path aria-label="Time Step (hours): 1; Load (MW): 16293.0626615; Resource_Type: Wind; Resource_Type:n: undefined" role="graphics-symbol" aria-roledescription="area mark" d="M2.515,92.046L7.545,124.008L12.574,127.112L17.604,135.738L22.634,148.027L27.664,164.288L32.693,128.38L37.723,129.069L42.753,108.881L47.783,58.615L52.812,18.847L57.842,25.632L62.872,20.98L67.902,42.19L72.932,72.123L77.961,67.482L82.991,124.883L88.021,80.93L93.051,44.659L98.08,99.807L103.11,70.934L108.14,103.229L113.17,127.672L118.199,112.339L123.229,113.229L128.259,92.235L133.289,132.589L138.318,95.984L143.348,158.54L148.378,86.663L153.408,122.65L158.437,124.742L163.467,78.853L168.497,6.207L173.527,17.603L178.557,49.004L183.586,29.544L188.616,16.359L193.646,42.452L198.676,93.229L203.705,111.678L208.735,58.795L213.765,52.571L218.795,50.491L223.824,115.72L228.854,110.644L233.884,67.437L238.914,100.316L243.943,140.193L248.973,128.894L254.003,189.994L259.033,129.131L264.062,150.142L269.092,182.665L274.122,106.507L279.152,150.825L284.182,154.918L289.211,83.918L294.241,31.844L299.271,7.388L304.301,8.588L309.33,10.324L314.36,34.992L319.39,78.743L324.42,95.342L329.449,99.23L334.479,72.221L339.509,137.239L344.539,93.058L349.568,104.393L354.598,132.015L359.628,77.67L364.658,184.214L369.688,137.094L374.717,130.442L379.747,127.385L384.777,183.14L389.807,138.817L394.836,180.017L399.866,94.267L404.896,133.369L409.926,41.757L414.955,55.499L419.985,3.659L425.015,58.349L430.045,46.558L435.074,33.965L440.104,54.467L445.134,57.278L450.164,107.796L455.193,141.861L460.223,112.235L465.253,156.653L470.283,138.285L475.313,185.137L480.342,178.898L485.372,191.21L490.402,232.277L495.432,200.337L500.461,235.482L505.491,200.95L510.521,181.306L515.551,149.08L520.58,167.256L525.61,135.741L530.64,66.642L535.67,11.719L540.699,80.722L545.729,114.714L550.759,149.968L555.789,172.782L560.818,170.407L565.848,158.918L570.878,141.148L575.908,142.252L580.938,147.861L585.967,157.873L590.997,173.473L596.027,163.769L601.057,178.031L606.086,133.279L611.116,124.812L616.146,107.977L621.176,129.904L626.205,185.572L631.235,129.407L636.265,148.527L641.295,137.109L646.324,166.298L651.354,127.501L656.384,160.275L661.414,124.657L666.443,126.186L671.473,160.268L676.503,131.25L681.533,164.552L686.563,125.357L691.592,136.081L696.622,80.461L701.652,95.384L706.682,78.531L711.711,81.201L716.741,141.066L721.771,90.467L726.801,88.766L731.83,167.356L736.86,96.481L741.89,202.614L746.92,188.967L751.949,147.939L756.979,196.943L762.009,166.935L767.039,138.982L772.068,91.227L777.098,57.931L782.128,30.118L787.158,23.016L792.188,26.736L797.217,29.862L802.247,89.971L807.277,150.174L812.307,109.979L817.336,85.193L822.366,118.053L827.396,86.141L832.426,158.083L837.455,89.856L842.485,102.352L842.485,347.243L837.455,346.806L832.426,264.11L827.396,326.846L822.366,286.927L817.336,313.072L812.307,290.9L807.277,157.602L802.247,89.971L797.217,29.862L792.188,26.736L787.158,23.016L782.128,85.378L777.098,57.931L772.068,91.227L767.039,142.982L762.009,273.778L756.979,256.049L751.949,316.482L746.92,280.866L741.89,269.855L736.86,373.29L731.83,298.383L726.801,369.111L721.771,374.688L716.741,337.809L711.711,392.272L706.682,374.487L701.652,342.499L696.622,369.977L691.592,346.67L686.563,263.751L681.533,230.984L676.503,274.65L671.473,247.731L666.443,293.638L661.414,304.25L656.384,291.263L651.354,314.968L646.324,333.338L641.295,380.058L636.265,358.485L631.235,393.492L626.205,358.485L621.176,393.492L616.146,393.492L611.116,375.886L606.086,393.492L601.057,361.346L596.027,343.256L590.997,304.504L585.967,295.674L580.938,264.6L575.908,297.1L570.878,231.801L565.848,205.217L560.818,200.485L555.789,190.506L550.759,164.67L545.729,131.454L540.699,110.319L535.67,81.369L530.64,161.868L525.61,246.501L520.58,218.936L515.551,270.764L510.521,302.89L505.491,339.969L500.461,297.413L495.432,328.438L490.402,330.994L485.372,341.206L480.342,326.917L475.313,276.795L470.283,330.32L465.253,255.884L460.223,342.079L455.193,265.414L450.164,306.391L445.134,218.715L440.104,131.68L435.074,88.287L430.045,97.117L425.015,58.349L419.985,87.886L414.955,55.499L409.926,122.737L404.896,146.608L399.866,308.2L394.836,239.881L389.807,311.346L384.777,284.041L379.747,344.836L374.717,341.919L369.688,331.39L364.658,278.284L359.628,372.95L354.598,301.013L349.568,308L344.539,303.517L339.509,250.651L334.479,308.939L329.449,282.132L324.42,205.704L319.39,99.614L314.36,34.992L309.33,10.324L304.301,8.588L299.271,7.388L294.241,31.844L289.211,83.918L284.182,172.887L279.152,256.013L274.122,315.563L269.092,270.218L264.062,316.419L259.033,341.912L254.003,280.799L248.973,338.396L243.943,317.823L238.914,344.938L233.884,357.796L228.854,293.537L223.824,269.751L218.795,322.962L213.765,312.554L208.735,304.129L203.705,254.17L198.676,191.951L193.646,215.937L188.616,207.438L183.586,173.851L178.557,96.505L173.527,163.775L168.497,187.073L163.467,234.501L158.437,265.644L153.408,285.179L148.378,349.379L143.348,293.599L138.318,361.427L133.289,326.172L128.259,362.803L123.229,335.53L118.199,324.153L113.17,292.94L108.14,299.317L103.11,316.538L98.08,278.515L93.051,329.027L88.021,292.981L82.991,178.859L77.961,129.073L72.932,72.123L67.902,42.19L62.872,20.98L57.842,25.632L52.812,39.179L47.783,83.392L42.753,164.993L37.723,292.83L32.693,302.002L27.664,276.189L22.634,296.234L17.604,310.942L12.574,317.041L7.545,317.909L2.515,342.709Z" fill="#7fc97f"/></g></g><path class="foreground" aria-hidden="true" d="" display="none"/></g></g><g class="mark-line role-mark layer_1_marks" role="graphics-object" aria-roledescription="line mark container"><path aria-label="Hour: 1; Demand_Total: 11946.7542732" role="graphics-symbol" aria-roledescription="line mark" d="M2.515,216.204L2.515,216.204L2.515,216.204L2.515,216.204L7.545,217.522L7.545,217.522L7.545,217.522L7.545,217.522L12.574,216.312L12.574,216.312L12.574,216.312L12.574,216.312L17.604,211.319L17.604,211.319L17.604,211.319L17.604,211.319L22.634,202.433L22.634,202.433L22.634,202.433L22.634,202.433L27.664,192.741L27.664,192.741L27.664,192.741L27.664,192.741L32.693,179.9L32.693,179.9L32.693,179.9L32.693,179.9L37.723,171.976L37.723,171.976L37.723,171.976L37.723,171.976L42.753,168.844L42.753,168.844L42.753,168.844L42.753,168.844L47.783,168.906L47.783,168.906L47.783,168.906L47.783,168.906L52.812,170.286L52.812,170.286L52.812,170.286L52.812,170.286L57.842,172.023L57.842,172.023L57.842,172.023L57.842,172.023L62.872,172.705L62.872,172.705L62.872,172.705L62.872,172.705L67.902,172.302L67.902,172.302L67.902,172.302L67.902,172.302L72.932,161.679L72.932,161.679L72.932,161.679L72.932,161.679L77.961,145.83L77.961,145.83L77.961,145.83L77.961,145.83L82.991,145.737L82.991,145.737L82.991,145.737L82.991,145.737L88.021,150.374L88.021,150.374L88.021,150.374L88.021,150.374L93.051,159.523L93.051,159.523L93.051,159.523L93.051,159.523L98.08,174.597L98.08,174.597L98.08,174.597L98.08,174.597L103.11,191.454L103.11,191.454L103.11,191.454L103.11,191.454L108.14,208.543L108.14,208.543L108.14,208.543L108.14,208.543L113.17,220.81L113.17,220.81L113.17,220.81L113.17,220.81L118.199,227.09L118.199,227.09L118.199,227.09L118.199,227.09L123.229,229.602L123.229,229.602L123.229,229.602L123.229,229.602L128.259,229.463L128.259,229.463L128.259,229.463L128.259,229.463L133.289,224.19L133.289,224.19L133.289,224.19L133.289,224.19L138.318,208.093L138.318,208.093L138.318,208.093L138.318,208.093L143.348,178.753L143.348,178.753L143.348,178.753L143.348,178.753L148.378,162.284L148.378,162.284L148.378,162.284L148.378,162.284L153.408,158.702L153.408,158.702L153.408,158.702L153.408,158.702L158.437,156.717L158.437,156.717L158.437,156.717L158.437,156.717L163.467,154.809L163.467,154.809L163.467,154.809L163.467,154.809L168.497,155.181L168.497,155.181L168.497,155.181L168.497,155.181L173.527,157.538L173.527,157.538L173.527,157.538L173.527,157.538L178.557,159.182L178.557,159.182L178.557,159.182L178.557,159.182L183.586,161.788L183.586,161.788L183.586,161.788L183.586,161.788L188.616,161.679L188.616,161.679L188.616,161.679L188.616,161.679L193.646,150.824L193.646,150.824L193.646,150.824L193.646,150.824L198.676,134.975L198.676,134.975L198.676,134.975L198.676,134.975L203.705,137.177L203.705,137.177L203.705,137.177L203.705,137.177L208.735,145.505L208.735,145.505L208.735,145.505L208.735,145.505L213.765,157.523L213.765,157.523L213.765,157.523L213.765,157.523L218.795,175.155L218.795,175.155L218.795,175.155L218.795,175.155L223.824,197.284L223.824,197.284L223.824,197.284L223.824,197.284L228.854,217.305L228.854,217.305L228.854,217.305L228.854,217.305L233.884,230.068L233.884,230.068L233.884,230.068L233.884,230.068L238.914,238.132L238.914,238.132L238.914,238.132L238.914,238.132L243.943,242.086L243.943,242.086L243.943,242.086L243.943,242.086L248.973,243.094L248.973,243.094L248.973,243.094L248.973,243.094L254.003,238.612L254.003,238.612L254.003,238.612L254.003,238.612L259.033,223.725L259.033,223.725L259.033,223.725L259.033,223.725L264.062,194.121L264.062,194.121L264.062,194.121L264.062,194.121L269.092,177.776L269.092,177.776L269.092,177.776L269.092,177.776L274.122,176.117L274.122,176.117L274.122,176.117L274.122,176.117L279.152,177.047L279.152,177.047L279.152,177.047L279.152,177.047L284.182,176.783L284.182,176.783L284.182,176.783L284.182,176.783L289.211,177.714L289.211,177.714L289.211,177.714L289.211,177.714L294.241,180.273L294.241,180.273L294.241,180.273L294.241,180.273L299.271,181.932L299.271,181.932L299.271,181.932L299.271,181.932L304.301,184.289L304.301,184.289L304.301,184.289L304.301,184.289L309.33,184.103L309.33,184.103L309.33,184.103L309.33,184.103L314.36,173.294L314.36,173.294L314.36,173.294L314.36,173.294L319.39,153.413L319.39,153.413L319.39,153.413L319.39,153.413L324.42,153.212L324.42,153.212L324.42,153.212L324.42,153.212L329.449,159.089L329.449,159.089L329.449,159.089L329.449,159.089L334.479,168.626L334.479,168.626L334.479,168.626L334.479,168.626L339.509,184.444L339.509,184.444L339.509,184.444L339.509,184.444L344.539,204.185L344.539,204.185L344.539,204.185L344.539,204.185L349.568,222.67L349.568,222.67L349.568,222.67L349.568,222.67L354.598,234.549L354.598,234.549L354.598,234.549L354.598,234.549L359.628,240.535L359.628,240.535L359.628,240.535L359.628,240.535L364.658,243.203L364.658,243.203L364.658,243.203L364.658,243.203L369.688,243.063L369.688,243.063L369.688,243.063L369.688,243.063L374.717,238.023L374.717,238.023L374.717,238.023L374.717,238.023L379.747,221.693L379.747,221.693L379.747,221.693L379.747,221.693L384.777,190.74L384.777,190.74L384.777,190.74L384.777,190.74L389.807,173.465L389.807,173.465L389.807,173.465L389.807,173.465L394.836,172.054L394.836,172.054L394.836,172.054L394.836,172.054L399.866,170.751L399.866,170.751L399.866,170.751L399.866,170.751L404.896,169.727L404.896,169.727L404.896,169.727L404.896,169.727L409.926,170.317L409.926,170.317L409.926,170.317L409.926,170.317L414.955,172.612L414.955,172.612L414.955,172.612L414.955,172.612L419.985,173.852L419.985,173.852L419.985,173.852L419.985,173.852L425.015,176.442L425.015,176.442L425.015,176.442L425.015,176.442L430.045,176.799L430.045,176.799L430.045,176.799L430.045,176.799L435.074,166.75L435.074,166.75L435.074,166.75L435.074,166.75L440.104,144.791L440.104,144.791L440.104,144.791L440.104,144.791L445.134,143.318L445.134,143.318L445.134,143.318L445.134,143.318L450.164,149.164L450.164,149.164L450.164,149.164L450.164,149.164L455.193,158.36L455.193,158.36L455.193,158.36L455.193,158.36L460.223,174.845L460.223,174.845L460.223,174.845L460.223,174.845L465.253,196.199L465.253,196.199L465.253,196.199L465.253,196.199L470.283,215.118L470.283,215.118L470.283,215.118L470.283,215.118L475.313,227.447L475.313,227.447L475.313,227.447L475.313,227.447L480.342,233.758L480.342,233.758L480.342,233.758L480.342,233.758L485.372,236.736L485.372,236.736L485.372,236.736L485.372,236.736L490.402,236.86L490.402,236.86L490.402,236.86L490.402,236.86L495.432,231.711L495.432,231.711L495.432,231.711L495.432,231.711L500.461,216.033L500.461,216.033L500.461,216.033L500.461,216.033L505.491,185.297L505.491,185.297L505.491,185.297L505.491,185.297L510.521,168.859L510.521,168.859L510.521,168.859L510.521,168.859L515.551,167.758L515.551,167.758L515.551,167.758L515.551,167.758L520.58,168.456L520.58,168.456L520.58,168.456L520.58,168.456L525.61,169.045L525.61,169.045L525.61,169.045L525.61,169.045L530.64,170.565L530.64,170.565L530.64,170.565L530.64,170.565L535.67,172.395L535.67,172.395L535.67,172.395L535.67,172.395L540.699,172.581L540.699,172.581L540.699,172.581L540.699,172.581L545.729,173.217L545.729,173.217L545.729,173.217L545.729,173.217L550.759,171.464L550.759,171.464L550.759,171.464L550.759,171.464L555.789,160.345L555.789,160.345L555.789,160.345L555.789,160.345L560.818,142.884L560.818,142.884L560.818,142.884L560.818,142.884L565.848,143.566L565.848,143.566L565.848,143.566L565.848,143.566L570.878,149.475L570.878,149.475L570.878,149.475L570.878,149.475L575.908,159.399L575.908,159.399L575.908,159.399L575.908,159.399L580.938,175.295L580.938,175.295L580.938,175.295L580.938,175.295L585.967,196.168L585.967,196.168L585.967,196.168L585.967,196.168L590.997,214.855L590.997,214.855L590.997,214.855L590.997,214.855L596.027,227.524L596.027,227.524L596.027,227.524L596.027,227.524L601.057,234.766L601.057,234.766L601.057,234.766L601.057,234.766L606.086,238.085L606.086,238.085L606.086,238.085L606.086,238.085L611.116,239.264L611.116,239.264L611.116,239.264L611.116,239.264L616.146,235.015L616.146,235.015L616.146,235.015L616.146,235.015L621.176,220.468L621.176,220.468L621.176,220.468L621.176,220.468L626.205,192.989L626.205,192.989L626.205,192.989L626.205,192.989L631.235,174.364L631.235,174.364L631.235,174.364L631.235,174.364L636.265,168.595L636.265,168.595L636.265,168.595L636.265,168.595L641.295,164.827L641.295,164.827L641.295,164.827L641.295,164.827L646.324,162.299L646.324,162.299L646.324,162.299L646.324,162.299L651.354,161.493L651.354,161.493L651.354,161.493L651.354,161.493L656.384,163.121L656.384,163.121L656.384,163.121L656.384,163.121L661.414,164.998L661.414,164.998L661.414,164.998L661.414,164.998L666.443,168.115L666.443,168.115L666.443,168.115L666.443,168.115L671.473,169.169L671.473,169.169L671.473,169.169L671.473,169.169L676.503,162.113L676.503,162.113L676.503,162.113L676.503,162.113L681.533,151.832L681.533,151.832L681.533,151.832L681.533,151.832L686.563,155.491L686.563,155.491L686.563,155.491L686.563,155.491L691.592,163.726L691.592,163.726L691.592,163.726L691.592,163.726L696.622,172.612L696.622,172.612L696.622,172.612L696.622,172.612L701.652,184.615L701.652,184.615L701.652,184.615L701.652,184.615L706.682,200.65L706.682,200.65L706.682,200.65L706.682,200.65L711.711,216.871L711.711,216.871L711.711,216.871L711.711,216.871L716.741,229.928L716.741,229.928L716.741,229.928L716.741,229.928L721.771,237.79L721.771,237.79L721.771,237.79L721.771,237.79L726.801,241.822L726.801,241.822L726.801,241.822L726.801,241.822L731.83,243.311L731.83,243.311L731.83,243.311L731.83,243.311L736.86,241.884L736.86,241.884L736.86,241.884L736.86,241.884L741.89,235.263L741.89,235.263L741.89,235.263L741.89,235.263L746.92,223.834L746.92,223.834L746.92,223.834L746.92,223.834L751.949,211.629L751.949,211.629L751.949,211.629L751.949,211.629L756.979,198.696L756.979,198.696L756.979,198.696L756.979,198.696L762.009,190.415L762.009,190.415L762.009,190.415L762.009,190.415L767.039,186.755L767.039,186.755L767.039,186.755L767.039,186.755L772.068,188.802L772.068,188.802L772.068,188.802L772.068,188.802L777.098,192.787L777.098,192.787L777.098,192.787L777.098,192.787L782.128,198.199L782.128,198.199L782.128,198.199L782.128,198.199L787.158,201.503L787.158,201.503L787.158,201.503L787.158,201.503L792.188,201.441L792.188,201.441L792.188,201.441L792.188,201.441L797.217,191.95L797.217,191.95L797.217,191.95L797.217,191.95L802.247,171.976L802.247,171.976L802.247,171.976L802.247,171.976L807.277,170.317L807.277,170.317L807.277,170.317L807.277,170.317L812.307,177.032L812.307,177.032L812.307,177.032L812.307,177.032L817.336,183.839L817.336,183.839L817.336,183.839L817.336,183.839L822.366,194.245L822.366,194.245L822.366,194.245L822.366,194.245L827.396,207.504L827.396,207.504L827.396,207.504L827.396,207.504L832.426,221.647L832.426,221.647L832.426,221.647L832.426,221.647L837.455,222.872L837.455,222.872L837.455,222.872L837.455,222.872L842.485,228.16L842.485,228.16L842.485,228.16L842.485,228.16" stroke="#386cb0" stroke-width="2"/></g><g class="mark-group role-legend" role="graphics-symbol" aria-roledescription="legend" aria-label="Symbol legend titled 'Resource_Type' for fill color and stroke color with 5 values: Wind, Solar, Natural_Gas, Battery, Demand"><g transform="translate(863,0)"><path class="background" aria-hidden="true" d="M0,0h82v93h-82Z" pointer-events="none"/><g><g class="mark-group role-legend-entry"><g transform="translate(0,16)"><path class="background" aria-hidden="true" d="M0,0h0v0h0Z" pointer-events="none"/><g><g class="mark-group role-scope" role="graphics-object" aria-roledescription="group mark container"><g transform="translate(0,0)"><path class="background" aria-hidden="true" d="M0,0h72.16666793823242v12.5h-72.16666793823242Z" pointer-events="none" opacity="1"/><g><g class="mark-symbol role-legend-symbol" pointer-events="none"><path transform="translate(6,6)" d="M5,0A5,5,0,1,1,-5,0A5,5,0,1,1,5,0" fill="#7fc97f" stroke="#7fc97f" stroke-width="1.5" opacity="1"/></g><g class="mark-text role-legend-label" pointer-events="none"><text text-anchor="start" transform="translate(16,9)" font-family="sans-serif" font-size="10px" fill="#000" opacity="1">Wind</text></g></g><path class="foreground" aria-hidden="true" d="" pointer-events="none" display="none"/></g><g transform="translate(0,16)"><path class="background" aria-hidden="true" d="M0,0h72.16666793823242v12.5h-72.16666793823242Z" pointer-events="none" opacity="1"/><g><g class="mark-symbol role-legend-symbol" pointer-events="none"><path transform="translate(6,6)" d="M5,0A5,5,0,1,1,-5,0A5,5,0,1,1,5,0" fill="#beaed4" stroke="#beaed4" stroke-width="1.5" opacity="1"/></g><g class="mark-text role-legend-label" pointer-events="none"><text text-anchor="start" transform="translate(16,9)" font-family="sans-serif" font-size="10px" fill="#000" opacity="1">Solar</text></g></g><path class="foreground" aria-hidden="true" d="" pointer-events="none" display="none"/></g><g transform="translate(0,32)"><path class="background" aria-hidden="true" d="M0,0h72.16666793823242v12.5h-72.16666793823242Z" pointer-events="none" opacity="1"/><g><g class="mark-symbol role-legend-symbol" pointer-events="none"><path transform="translate(6,6)" d="M5,0A5,5,0,1,1,-5,0A5,5,0,1,1,5,0" fill="#fdc086" stroke="#fdc086" stroke-width="1.5" opacity="1"/></g><g class="mark-text role-legend-label" pointer-events="none"><text text-anchor="start" transform="translate(16,9)" font-family="sans-serif" font-size="10px" fill="#000" opacity="1">Natural_Gas</text></g></g><path class="foreground" aria-hidden="true" d="" pointer-events="none" display="none"/></g><g transform="translate(0,48)"><path class="background" aria-hidden="true" d="M0,0h72.16666793823242v12.5h-72.16666793823242Z" pointer-events="none" opacity="1"/><g><g class="mark-symbol role-legend-symbol" pointer-events="none"><path transform="translate(6,6)" d="M5,0A5,5,0,1,1,-5,0A5,5,0,1,1,5,0" fill="#ffff99" stroke="#ffff99" stroke-width="1.5" opacity="1"/></g><g class="mark-text role-legend-label" pointer-events="none"><text text-anchor="start" transform="translate(16,9)" font-family="sans-serif" font-size="10px" fill="#000" opacity="1">Battery</text></g></g><path class="foreground" aria-hidden="true" d="" pointer-events="none" display="none"/></g><g transform="translate(0,64)"><path class="background" aria-hidden="true" d="M0,0h72.16666793823242v12.5h-72.16666793823242Z" pointer-events="none" opacity="1"/><g><g class="mark-symbol role-legend-symbol" pointer-events="none"><path transform="translate(6,6)" d="M5,0A5,5,0,1,1,-5,0A5,5,0,1,1,5,0" fill="#386cb0" stroke="#386cb0" stroke-width="1.5" opacity="1"/></g><g class="mark-text role-legend-label" pointer-events="none"><text text-anchor="start" transform="translate(16,9)" font-family="sans-serif" font-size="10px" fill="#000" opacity="1">Demand</text></g></g><path class="foreground" aria-hidden="true" d="" pointer-events="none" display="none"/></g></g></g><path class="foreground" aria-hidden="true" d="" pointer-events="none" display="none"/></g></g><g class="mark-text role-legend-title" pointer-events="none"><text text-anchor="start" transform="translate(0,9)" font-family="sans-serif" font-size="11px" font-weight="bold" fill="#000" opacity="1">Resource_Type</text></g></g><path class="foreground" aria-hidden="true" d="" pointer-events="none" display="none"/></g></g><g class="mark-group role-title"><g transform="translate(422.5,-22)"><path class="background" aria-hidden="true" d="M0,0h0v0h0Z" pointer-events="none"/><g><g class="mark-text role-title-text" role="graphics-symbol" aria-roledescription="title" aria-label="Title text 'Resource Capacity per Hour with Load Demand Curve, all Zones'" pointer-events="none"><text text-anchor="middle" transform="translate(0,10)" font-family="sans-serif" font-size="13px" font-weight="bold" fill="#000" opacity="1">Resource Capacity per Hour with Load Demand Curve, all Zones</text></g></g><path class="foreground" aria-hidden="true" d="" pointer-events="none" display="none"/></g></g></g><path class="foreground" aria-hidden="true" d="" display="none"/></g></g></g></svg>