<?xml version="1.0" encoding="utf-8"?>
<svg xmlns="http://www.w3.org/2000/svg" xmlns:xlink="http://www.w3.org/1999/xlink" width="900" height="450" viewBox="0 0 3600 1800">
<defs>
  <clipPath id="clip100">
    <rect x="0" y="0" width="3600" height="1800"/>
  </clipPath>
</defs>
<path clip-path="url(#clip100)" d="M0 1800 L3600 1800 L3600 0 L0 0  Z" fill="#ffffff" fill-rule="evenodd" fill-opacity="1"/>
<defs>
  <clipPath id="clip101">
    <rect x="720" y="0" width="2521" height="1800"/>
  </clipPath>
</defs>
<path clip-path="url(#clip100)" d="M232.509 1752.76 L1766.97 1752.76 L1766.97 114.832 L232.509 114.832  Z" fill="#ffffff" fill-rule="evenodd" fill-opacity="1"/>
<defs>
  <clipPath id="clip102">
    <rect x="232" y="114" width="1535" height="1639"/>
  </clipPath>
</defs>
<polyline clip-path="url(#clip100)" style="stroke:#000000; stroke-linecap:round; stroke-linejoin:round; stroke-width:4; stroke-opacity:1; fill:none" points="232.509,1752.76 1766.97,1752.76 "/>
<polyline clip-path="url(#clip102)" style="stroke:#000000; stroke-linecap:round; stroke-linejoin:round; stroke-width:2; stroke-opacity:0.1; fill:none" points="232.509,1456.59 1766.97,1456.59 "/>
<polyline clip-path="url(#clip102)" style="stroke:#000000; stroke-linecap:round; stroke-linejoin:round; stroke-width:2; stroke-opacity:0.1; fill:none" points="232.509,1160.42 1766.97,1160.42 "/>
<polyline clip-path="url(#clip102)" style="stroke:#000000; stroke-linecap:round; stroke-linejoin:round; stroke-width:2; stroke-opacity:0.1; fill:none" points="232.509,864.255 1766.97,864.255 "/>
<polyline clip-path="url(#clip102)" style="stroke:#000000; stroke-linecap:round; stroke-linejoin:round; stroke-width:2; stroke-opacity:0.1; fill:none" points="232.509,568.088 1766.97,568.088 "/>
<polyline clip-path="url(#clip102)" style="stroke:#000000; stroke-linecap:round; stroke-linejoin:round; stroke-width:2; stroke-opacity:0.1; fill:none" points="232.509,271.921 1766.97,271.921 "/>
<polyline clip-path="url(#clip100)" style="stroke:#000000; stroke-linecap:round; stroke-linejoin:round; stroke-width:4; stroke-opacity:1; fill:none" points="232.509,1752.76 232.509,114.832 "/>
<polyline clip-path="url(#clip100)" style="stroke:#000000; stroke-linecap:round; stroke-linejoin:round; stroke-width:4; stroke-opacity:1; fill:none" points="232.509,1456.59 251.407,1456.59 "/>
<polyline clip-path="url(#clip100)" style="stroke:#000000; stroke-linecap:round; stroke-linejoin:round; stroke-width:4; stroke-opacity:1; fill:none" points="232.509,1160.42 251.407,1160.42 "/>
<polyline clip-path="url(#clip100)" style="stroke:#000000; stroke-linecap:round; stroke-linejoin:round; stroke-width:4; stroke-opacity:1; fill:none" points="232.509,864.255 251.407,864.255 "/>
<polyline clip-path="url(#clip100)" style="stroke:#000000; stroke-linecap:round; stroke-linejoin:round; stroke-width:4; stroke-opacity:1; fill:none" points="232.509,568.088 251.407,568.088 "/>
<polyline clip-path="url(#clip100)" style="stroke:#000000; stroke-linecap:round; stroke-linejoin:round; stroke-width:4; stroke-opacity:1; fill:none" points="232.509,271.921 251.407,271.921 "/>
<path clip-path="url(#clip100)" d="M140.57 1455.23 Q143.926 1455.95 145.801 1458.22 Q147.699 1460.49 147.699 1463.82 Q147.699 1468.94 144.181 1471.74 Q140.662 1474.54 134.181 1474.54 Q132.005 1474.54 129.69 1474.1 Q127.399 1473.68 124.945 1472.83 L124.945 1468.31 Q126.889 1469.45 129.204 1470.03 Q131.519 1470.61 134.042 1470.61 Q138.44 1470.61 140.732 1468.87 Q143.047 1467.13 143.047 1463.82 Q143.047 1460.77 140.894 1459.05 Q138.764 1457.32 134.945 1457.32 L130.917 1457.32 L130.917 1453.48 L135.13 1453.48 Q138.579 1453.48 140.408 1452.11 Q142.236 1450.72 142.236 1448.13 Q142.236 1445.47 140.338 1444.05 Q138.463 1442.62 134.945 1442.62 Q133.023 1442.62 130.824 1443.04 Q128.625 1443.45 125.986 1444.33 L125.986 1440.17 Q128.649 1439.42 130.963 1439.05 Q133.301 1438.68 135.361 1438.68 Q140.685 1438.68 143.787 1441.11 Q146.889 1443.52 146.889 1447.64 Q146.889 1450.51 145.246 1452.5 Q143.602 1454.47 140.57 1455.23 Z" fill="#000000" fill-rule="nonzero" fill-opacity="1" /><path clip-path="url(#clip100)" d="M166.565 1442.39 Q162.954 1442.39 161.125 1445.95 Q159.32 1449.49 159.32 1456.62 Q159.32 1463.73 161.125 1467.29 Q162.954 1470.84 166.565 1470.84 Q170.199 1470.84 172.005 1467.29 Q173.833 1463.73 173.833 1456.62 Q173.833 1449.49 172.005 1445.95 Q170.199 1442.39 166.565 1442.39 M166.565 1438.68 Q172.375 1438.68 175.431 1443.29 Q178.509 1447.87 178.509 1456.62 Q178.509 1465.35 175.431 1469.96 Q172.375 1474.54 166.565 1474.54 Q160.755 1474.54 157.676 1469.96 Q154.621 1465.35 154.621 1456.62 Q154.621 1447.87 157.676 1443.29 Q160.755 1438.68 166.565 1438.68 Z" fill="#000000" fill-rule="nonzero" fill-opacity="1" /><path clip-path="url(#clip100)" d="M136.982 1158.56 Q133.834 1158.56 131.982 1160.71 Q130.153 1162.86 130.153 1166.61 Q130.153 1170.34 131.982 1172.52 Q133.834 1174.67 136.982 1174.67 Q140.13 1174.67 141.959 1172.52 Q143.81 1170.34 143.81 1166.61 Q143.81 1162.86 141.959 1160.71 Q140.13 1158.56 136.982 1158.56 M146.264 1143.91 L146.264 1148.17 Q144.505 1147.33 142.699 1146.89 Q140.917 1146.45 139.158 1146.45 Q134.528 1146.45 132.074 1149.58 Q129.644 1152.7 129.297 1159.02 Q130.662 1157.01 132.723 1155.94 Q134.783 1154.86 137.26 1154.86 Q142.468 1154.86 145.477 1158.03 Q148.51 1161.17 148.51 1166.61 Q148.51 1171.94 145.361 1175.16 Q142.213 1178.37 136.982 1178.37 Q130.986 1178.37 127.815 1173.79 Q124.644 1169.18 124.644 1160.46 Q124.644 1152.26 128.533 1147.4 Q132.422 1142.52 138.973 1142.52 Q140.732 1142.52 142.514 1142.86 Q144.32 1143.21 146.264 1143.91 Z" fill="#000000" fill-rule="nonzero" fill-opacity="1" /><path clip-path="url(#clip100)" d="M166.565 1146.22 Q162.954 1146.22 161.125 1149.79 Q159.32 1153.33 159.32 1160.46 Q159.32 1167.56 161.125 1171.13 Q162.954 1174.67 166.565 1174.67 Q170.199 1174.67 172.005 1171.13 Q173.833 1167.56 173.833 1160.46 Q173.833 1153.33 172.005 1149.79 Q170.199 1146.22 166.565 1146.22 M166.565 1142.52 Q172.375 1142.52 175.431 1147.12 Q178.509 1151.71 178.509 1160.46 Q178.509 1169.18 175.431 1173.79 Q172.375 1178.37 166.565 1178.37 Q160.755 1178.37 157.676 1173.79 Q154.621 1169.18 154.621 1160.46 Q154.621 1151.71 157.676 1147.12 Q160.755 1142.52 166.565 1142.52 Z" fill="#000000" fill-rule="nonzero" fill-opacity="1" /><path clip-path="url(#clip100)" d="M126.542 880.818 L126.542 876.558 Q128.301 877.392 130.107 877.832 Q131.912 878.271 133.648 878.271 Q138.278 878.271 140.709 875.17 Q143.162 872.045 143.51 865.702 Q142.167 867.693 140.107 868.758 Q138.047 869.822 135.547 869.822 Q130.361 869.822 127.329 866.697 Q124.32 863.549 124.32 858.109 Q124.32 852.785 127.468 849.568 Q130.616 846.35 135.848 846.35 Q141.843 846.35 144.991 850.957 Q148.162 855.54 148.162 864.29 Q148.162 872.461 144.273 877.345 Q140.408 882.207 133.857 882.207 Q132.098 882.207 130.292 881.859 Q128.486 881.512 126.542 880.818 M135.848 866.165 Q138.996 866.165 140.824 864.012 Q142.676 861.859 142.676 858.109 Q142.676 854.383 140.824 852.23 Q138.996 850.054 135.848 850.054 Q132.699 850.054 130.848 852.23 Q129.019 854.383 129.019 858.109 Q129.019 861.859 130.848 864.012 Q132.699 866.165 135.848 866.165 Z" fill="#000000" fill-rule="nonzero" fill-opacity="1" /><path clip-path="url(#clip100)" d="M166.565 850.054 Q162.954 850.054 161.125 853.619 Q159.32 857.16 159.32 864.29 Q159.32 871.396 161.125 874.961 Q162.954 878.503 166.565 878.503 Q170.199 878.503 172.005 874.961 Q173.833 871.396 173.833 864.29 Q173.833 857.16 172.005 853.619 Q170.199 850.054 166.565 850.054 M166.565 846.35 Q172.375 846.35 175.431 850.957 Q178.509 855.54 178.509 864.29 Q178.509 873.017 175.431 877.623 Q172.375 882.207 166.565 882.207 Q160.755 882.207 157.676 877.623 Q154.621 873.017 154.621 864.29 Q154.621 855.54 157.676 850.957 Q160.755 846.35 166.565 846.35 Z" fill="#000000" fill-rule="nonzero" fill-opacity="1" /><path clip-path="url(#clip100)" d="M97.0515 581.433 L104.69 581.433 L104.69 555.068 L96.3802 556.734 L96.3802 552.475 L104.644 550.808 L109.32 550.808 L109.32 581.433 L116.959 581.433 L116.959 585.368 L97.0515 585.368 L97.0515 581.433 Z" fill="#000000" fill-rule="nonzero" fill-opacity="1" /><path clip-path="url(#clip100)" d="M130.431 581.433 L146.75 581.433 L146.75 585.368 L124.806 585.368 L124.806 581.433 Q127.468 578.679 132.051 574.049 Q136.658 569.396 137.838 568.054 Q140.084 565.531 140.963 563.794 Q141.866 562.035 141.866 560.345 Q141.866 557.591 139.922 555.855 Q138 554.119 134.898 554.119 Q132.699 554.119 130.246 554.882 Q127.815 555.646 125.037 557.197 L125.037 552.475 Q127.861 551.341 130.315 550.762 Q132.769 550.183 134.806 550.183 Q140.176 550.183 143.371 552.869 Q146.565 555.554 146.565 560.044 Q146.565 562.174 145.755 564.095 Q144.968 565.993 142.861 568.586 Q142.283 569.257 139.181 572.475 Q136.079 575.669 130.431 581.433 Z" fill="#000000" fill-rule="nonzero" fill-opacity="1" /><path clip-path="url(#clip100)" d="M166.565 553.887 Q162.954 553.887 161.125 557.452 Q159.32 560.994 159.32 568.123 Q159.32 575.23 161.125 578.794 Q162.954 582.336 166.565 582.336 Q170.199 582.336 172.005 578.794 Q173.833 575.23 173.833 568.123 Q173.833 560.994 172.005 557.452 Q170.199 553.887 166.565 553.887 M166.565 550.183 Q172.375 550.183 175.431 554.79 Q178.509 559.373 178.509 568.123 Q178.509 576.85 175.431 581.456 Q172.375 586.04 166.565 586.04 Q160.755 586.04 157.676 581.456 Q154.621 576.85 154.621 568.123 Q154.621 559.373 157.676 554.79 Q160.755 550.183 166.565 550.183 Z" fill="#000000" fill-rule="nonzero" fill-opacity="1" /><path clip-path="url(#clip100)" d="M97.0515 285.266 L104.69 285.266 L104.69 258.901 L96.3802 260.567 L96.3802 256.308 L104.644 254.641 L109.32 254.641 L109.32 285.266 L116.959 285.266 L116.959 289.201 L97.0515 289.201 L97.0515 285.266 Z" fill="#000000" fill-rule="nonzero" fill-opacity="1" /><path clip-path="url(#clip100)" d="M126.449 254.641 L144.806 254.641 L144.806 258.577 L130.732 258.577 L130.732 267.049 Q131.75 266.702 132.769 266.54 Q133.787 266.354 134.806 266.354 Q140.593 266.354 143.972 269.526 Q147.352 272.697 147.352 278.114 Q147.352 283.692 143.88 286.794 Q140.408 289.873 134.088 289.873 Q131.912 289.873 129.644 289.502 Q127.399 289.132 124.991 288.391 L124.991 283.692 Q127.074 284.827 129.297 285.382 Q131.519 285.938 133.996 285.938 Q138 285.938 140.338 283.831 Q142.676 281.725 142.676 278.114 Q142.676 274.502 140.338 272.396 Q138 270.29 133.996 270.29 Q132.121 270.29 130.246 270.706 Q128.394 271.123 126.449 272.003 L126.449 254.641 Z" fill="#000000" fill-rule="nonzero" fill-opacity="1" /><path clip-path="url(#clip100)" d="M166.565 257.72 Q162.954 257.72 161.125 261.285 Q159.32 264.827 159.32 271.956 Q159.32 279.063 161.125 282.627 Q162.954 286.169 166.565 286.169 Q170.199 286.169 172.005 282.627 Q173.833 279.063 173.833 271.956 Q173.833 264.827 172.005 261.285 Q170.199 257.72 166.565 257.72 M166.565 254.016 Q172.375 254.016 175.431 258.623 Q178.509 263.206 178.509 271.956 Q178.509 280.683 175.431 285.289 Q172.375 289.873 166.565 289.873 Q160.755 289.873 157.676 285.289 Q154.621 280.683 154.621 271.956 Q154.621 263.206 157.676 258.623 Q160.755 254.016 166.565 254.016 Z" fill="#000000" fill-rule="nonzero" fill-opacity="1" /><path clip-path="url(#clip100)" d="M21.3447 953.241 L8.58144 953.241 L8.58144 963.745 L3.2979 963.745 L3.2979 946.876 L23.7 946.876 Q26.3418 950.599 27.7104 955.087 Q29.0472 959.575 29.0472 964.668 Q29.0472 975.808 22.5542 982.11 Q16.0293 988.38 4.4119 988.38 Q-7.23734 988.38 -13.7304 982.11 Q-20.2552 975.808 -20.2552 964.668 Q-20.2552 960.021 -19.1094 955.851 Q-17.9636 951.65 -15.7356 948.117 L-8.89243 948.117 Q-11.9161 951.682 -13.4439 955.692 Q-14.9717 959.702 -14.9717 964.127 Q-14.9717 972.848 -10.1019 977.24 Q-5.23215 981.6 4.4119 981.6 Q14.0241 981.6 18.8939 977.24 Q23.7636 972.848 23.7636 964.127 Q23.7636 960.721 23.1907 958.047 Q22.586 955.374 21.3447 953.241 Z" fill="#000000" fill-rule="nonzero" fill-opacity="1" /><path clip-path="url(#clip100)" d="M-19.3958 939.364 L-19.3958 932.871 L20.7718 922.877 L-19.3958 912.914 L-19.3958 905.689 L20.7718 895.695 L-19.3958 885.733 L-19.3958 879.208 L28.1242 891.144 L28.1242 899.228 L-13.1256 909.254 L28.1242 919.376 L28.1242 927.46 L-19.3958 939.364 Z" fill="#000000" fill-rule="nonzero" fill-opacity="1" /><path clip-path="url(#clip100)" d="M850.249 21.67 L850.249 26.6006 Q847.888 24.4015 845.203 23.3135 Q842.541 22.2256 839.532 22.2256 Q833.606 22.2256 830.458 25.8598 Q827.309 29.4709 827.309 36.3227 Q827.309 43.1514 830.458 46.7856 Q833.606 50.3967 839.532 50.3967 Q842.541 50.3967 845.203 49.3088 Q847.888 48.2208 850.249 46.0217 L850.249 50.906 Q847.795 52.5726 845.041 53.406 Q842.309 54.2393 839.254 54.2393 Q831.407 54.2393 826.893 49.4477 Q822.379 44.6329 822.379 36.3227 Q822.379 27.9894 826.893 23.1978 Q831.407 18.383 839.254 18.383 Q842.356 18.383 845.087 19.2163 Q847.842 20.0265 850.249 21.67 Z" fill="#000000" fill-rule="nonzero" fill-opacity="1" /><path clip-path="url(#clip100)" d="M871.499 22.1793 Q866.406 22.1793 863.397 25.9756 Q860.411 29.7718 860.411 36.3227 Q860.411 42.8505 863.397 46.6467 Q866.406 50.443 871.499 50.443 Q876.592 50.443 879.555 46.6467 Q882.541 42.8505 882.541 36.3227 Q882.541 29.7718 879.555 25.9756 Q876.592 22.1793 871.499 22.1793 M871.499 18.383 Q878.767 18.383 883.119 23.2672 Q887.471 28.1283 887.471 36.3227 Q887.471 44.494 883.119 49.3782 Q878.767 54.2393 871.499 54.2393 Q864.207 54.2393 859.832 49.3782 Q855.481 44.5171 855.481 36.3227 Q855.481 28.1283 859.832 23.2672 Q864.207 18.383 871.499 18.383 Z" fill="#000000" fill-rule="nonzero" fill-opacity="1" /><path clip-path="url(#clip100)" d="M899.23 49.6328 L915.55 49.6328 L915.55 53.568 L893.605 53.568 L893.605 49.6328 Q896.267 46.8782 900.851 42.2486 Q905.457 37.5959 906.638 36.2533 Q908.883 33.7301 909.763 31.994 Q910.665 30.2348 910.665 28.545 Q910.665 25.7904 908.721 24.0543 Q906.8 22.3182 903.698 22.3182 Q901.499 22.3182 899.045 23.0821 Q896.615 23.8459 893.837 25.3969 L893.837 20.6747 Q896.661 19.5404 899.115 18.9617 Q901.568 18.383 903.605 18.383 Q908.976 18.383 912.17 21.0682 Q915.365 23.7533 915.365 28.2441 Q915.365 30.3737 914.554 32.295 Q913.767 34.1931 911.661 36.7857 Q911.082 37.457 907.98 40.6746 Q904.878 43.869 899.23 49.6328 Z" fill="#000000" fill-rule="nonzero" fill-opacity="1" /><path clip-path="url(#clip100)" d="M940.017 19.008 L946.985 19.008 L955.804 42.5264 L964.67 19.008 L971.637 19.008 L971.637 53.568 L967.077 53.568 L967.077 23.2209 L958.165 46.9245 L953.466 46.9245 L944.554 23.2209 L944.554 53.568 L940.017 53.568 L940.017 19.008 Z" fill="#000000" fill-rule="nonzero" fill-opacity="1" /><path clip-path="url(#clip100)" d="M992.517 40.5357 Q987.355 40.5357 985.364 41.7162 Q983.373 42.8968 983.373 45.744 Q983.373 48.0125 984.855 49.3551 Q986.36 50.6745 988.929 50.6745 Q992.471 50.6745 994.6 48.1745 Q996.753 45.6514 996.753 41.4847 L996.753 40.5357 L992.517 40.5357 M1001.01 38.7764 L1001.01 53.568 L996.753 53.568 L996.753 49.6328 Q995.295 51.9939 993.119 53.1282 Q990.943 54.2393 987.795 54.2393 Q983.813 54.2393 981.452 52.0171 Q979.114 49.7717 979.114 46.0217 Q979.114 41.6468 982.031 39.4246 Q984.971 37.2023 990.781 37.2023 L996.753 37.2023 L996.753 36.7857 Q996.753 33.8459 994.809 32.2487 Q992.887 30.6283 989.392 30.6283 Q987.17 30.6283 985.063 31.1607 Q982.957 31.6931 981.012 32.7579 L981.012 28.8228 Q983.35 27.92 985.549 27.4802 Q987.748 27.0172 989.832 27.0172 Q995.457 27.0172 998.234 29.9339 Q1001.01 32.8505 1001.01 38.7764 Z" fill="#000000" fill-rule="nonzero" fill-opacity="1" /><path clip-path="url(#clip100)" d="M1026.31 28.4061 L1026.31 32.4339 Q1024.51 31.5079 1022.56 31.045 Q1020.62 30.582 1018.54 30.582 Q1015.36 30.582 1013.77 31.5542 Q1012.19 32.5264 1012.19 34.4709 Q1012.19 35.9524 1013.33 36.8088 Q1014.46 37.6422 1017.89 38.406 L1019.35 38.7301 Q1023.88 39.7023 1025.78 41.4847 Q1027.7 43.244 1027.7 46.4153 Q1027.7 50.0264 1024.83 52.1328 Q1021.98 54.2393 1016.98 54.2393 Q1014.9 54.2393 1012.63 53.8226 Q1010.39 53.4291 1007.89 52.6189 L1007.89 48.2208 Q1010.25 49.4477 1012.54 50.0726 Q1014.83 50.6745 1017.08 50.6745 Q1020.09 50.6745 1021.71 49.656 Q1023.33 48.6143 1023.33 46.7393 Q1023.33 45.0032 1022.15 44.0773 Q1020.99 43.1514 1017.03 42.2949 L1015.55 41.9477 Q1011.59 41.1144 1009.83 39.4014 Q1008.07 37.6653 1008.07 34.6561 Q1008.07 30.9987 1010.66 29.0079 Q1013.26 27.0172 1018.03 27.0172 Q1020.39 27.0172 1022.47 27.3644 Q1024.55 27.7117 1026.31 28.4061 Z" fill="#000000" fill-rule="nonzero" fill-opacity="1" /><path clip-path="url(#clip100)" d="M1051.01 28.4061 L1051.01 32.4339 Q1049.21 31.5079 1047.26 31.045 Q1045.32 30.582 1043.23 30.582 Q1040.06 30.582 1038.47 31.5542 Q1036.89 32.5264 1036.89 34.4709 Q1036.89 35.9524 1038.03 36.8088 Q1039.16 37.6422 1042.59 38.406 L1044.04 38.7301 Q1048.58 39.7023 1050.48 41.4847 Q1052.4 43.244 1052.4 46.4153 Q1052.4 50.0264 1049.53 52.1328 Q1046.68 54.2393 1041.68 54.2393 Q1039.6 54.2393 1037.33 53.8226 Q1035.09 53.4291 1032.59 52.6189 L1032.59 48.2208 Q1034.95 49.4477 1037.24 50.0726 Q1039.53 50.6745 1041.78 50.6745 Q1044.79 50.6745 1046.41 49.656 Q1048.03 48.6143 1048.03 46.7393 Q1048.03 45.0032 1046.85 44.0773 Q1045.69 43.1514 1041.73 42.2949 L1040.25 41.9477 Q1036.29 41.1144 1034.53 39.4014 Q1032.77 37.6653 1032.77 34.6561 Q1032.77 30.9987 1035.36 29.0079 Q1037.96 27.0172 1042.72 27.0172 Q1045.09 27.0172 1047.17 27.3644 Q1049.25 27.7117 1051.01 28.4061 Z" fill="#000000" fill-rule="nonzero" fill-opacity="1" /><path clip-path="url(#clip100)" d="M1100.32 21.67 L1100.32 26.6006 Q1097.96 24.4015 1095.27 23.3135 Q1092.61 22.2256 1089.6 22.2256 Q1083.67 22.2256 1080.53 25.8598 Q1077.38 29.4709 1077.38 36.3227 Q1077.38 43.1514 1080.53 46.7856 Q1083.67 50.3967 1089.6 50.3967 Q1092.61 50.3967 1095.27 49.3088 Q1097.96 48.2208 1100.32 46.0217 L1100.32 50.906 Q1097.86 52.5726 1095.11 53.406 Q1092.38 54.2393 1089.32 54.2393 Q1081.47 54.2393 1076.96 49.4477 Q1072.45 44.6329 1072.45 36.3227 Q1072.45 27.9894 1076.96 23.1978 Q1081.47 18.383 1089.32 18.383 Q1092.42 18.383 1095.16 19.2163 Q1097.91 20.0265 1100.32 21.67 Z" fill="#000000" fill-rule="nonzero" fill-opacity="1" /><path clip-path="url(#clip100)" d="M1119.14 40.5357 Q1113.97 40.5357 1111.98 41.7162 Q1109.99 42.8968 1109.99 45.744 Q1109.99 48.0125 1111.47 49.3551 Q1112.98 50.6745 1115.55 50.6745 Q1119.09 50.6745 1121.22 48.1745 Q1123.37 45.6514 1123.37 41.4847 L1123.37 40.5357 L1119.14 40.5357 M1127.63 38.7764 L1127.63 53.568 L1123.37 53.568 L1123.37 49.6328 Q1121.91 51.9939 1119.74 53.1282 Q1117.56 54.2393 1114.41 54.2393 Q1110.43 54.2393 1108.07 52.0171 Q1105.73 49.7717 1105.73 46.0217 Q1105.73 41.6468 1108.65 39.4246 Q1111.59 37.2023 1117.4 37.2023 L1123.37 37.2023 L1123.37 36.7857 Q1123.37 33.8459 1121.43 32.2487 Q1119.51 30.6283 1116.01 30.6283 Q1113.79 30.6283 1111.68 31.1607 Q1109.58 31.6931 1107.63 32.7579 L1107.63 28.8228 Q1109.97 27.92 1112.17 27.4802 Q1114.37 27.0172 1116.45 27.0172 Q1122.08 27.0172 1124.85 29.9339 Q1127.63 32.8505 1127.63 38.7764 Z" fill="#000000" fill-rule="nonzero" fill-opacity="1" /><path clip-path="url(#clip100)" d="M1140.53 49.6791 L1140.53 63.4291 L1136.24 63.4291 L1136.24 27.6422 L1140.53 27.6422 L1140.53 31.5774 Q1141.87 29.2626 1143.9 28.1515 Q1145.97 27.0172 1148.81 27.0172 Q1153.53 27.0172 1156.47 30.7672 Q1159.44 34.5172 1159.44 40.6283 Q1159.44 46.7393 1156.47 50.4893 Q1153.53 54.2393 1148.81 54.2393 Q1145.97 54.2393 1143.9 53.1282 Q1141.87 51.9939 1140.53 49.6791 M1155.02 40.6283 Q1155.02 35.9292 1153.07 33.2672 Q1151.15 30.582 1147.77 30.582 Q1144.39 30.582 1142.45 33.2672 Q1140.53 35.9292 1140.53 40.6283 Q1140.53 45.3273 1142.45 48.0125 Q1144.39 50.6745 1147.77 50.6745 Q1151.15 50.6745 1153.07 48.0125 Q1155.02 45.3273 1155.02 40.6283 Z" fill="#000000" fill-rule="nonzero" fill-opacity="1" /><path clip-path="url(#clip100)" d="M755.724 74.0193 Q750.632 74.0193 747.622 77.8156 Q744.636 81.6118 744.636 88.1627 Q744.636 94.6905 747.622 98.4867 Q750.632 102.283 755.724 102.283 Q760.817 102.283 763.78 98.4867 Q766.766 94.6905 766.766 88.1627 Q766.766 81.6118 763.78 77.8156 Q760.817 74.0193 755.724 74.0193 M755.724 70.223 Q762.993 70.223 767.344 75.1072 Q771.696 79.9683 771.696 88.1627 Q771.696 96.334 767.344 101.218 Q762.993 106.079 755.724 106.079 Q748.433 106.079 744.058 101.218 Q739.706 96.3571 739.706 88.1627 Q739.706 79.9683 744.058 75.1072 Q748.433 70.223 755.724 70.223 Z" fill="#000000" fill-rule="nonzero" fill-opacity="1" /><path clip-path="url(#clip100)" d="M797.437 92.4683 Q797.437 87.7692 795.492 85.1072 Q793.571 82.422 790.192 82.422 Q786.812 82.422 784.868 85.1072 Q782.946 87.7692 782.946 92.4683 Q782.946 97.1673 784.868 99.8525 Q786.812 102.514 790.192 102.514 Q793.571 102.514 795.492 99.8525 Q797.437 97.1673 797.437 92.4683 M782.946 83.4174 Q784.289 81.1026 786.326 79.9915 Q788.386 78.8572 791.233 78.8572 Q795.955 78.8572 798.895 82.6072 Q801.858 86.3572 801.858 92.4683 Q801.858 98.5793 798.895 102.329 Q795.955 106.079 791.233 106.079 Q788.386 106.079 786.326 104.968 Q784.289 103.834 782.946 101.519 L782.946 105.408 L778.664 105.408 L778.664 69.3897 L782.946 69.3897 L782.946 83.4174 Z" fill="#000000" fill-rule="nonzero" fill-opacity="1" /><path clip-path="url(#clip100)" d="M808.918 79.4822 L813.178 79.4822 L813.178 105.871 Q813.178 110.825 811.279 113.047 Q809.404 115.269 805.215 115.269 L803.594 115.269 L803.594 111.658 L804.729 111.658 Q807.159 111.658 808.039 110.524 Q808.918 109.413 808.918 105.871 L808.918 79.4822 M808.918 69.3897 L813.178 69.3897 L813.178 74.7832 L808.918 74.7832 L808.918 69.3897 Z" fill="#000000" fill-rule="nonzero" fill-opacity="1" /><path clip-path="url(#clip100)" d="M846.256 105.408 L833.062 70.848 L837.946 70.848 L848.895 99.9451 L859.867 70.848 L864.728 70.848 L851.557 105.408 L846.256 105.408 Z" fill="#000000" fill-rule="nonzero" fill-opacity="1" /><path clip-path="url(#clip100)" d="M877.691 92.3757 Q872.529 92.3757 870.538 93.5562 Q868.548 94.7368 868.548 97.584 Q868.548 99.8525 870.029 101.195 Q871.534 102.514 874.103 102.514 Q877.645 102.514 879.774 100.015 Q881.927 97.4914 881.927 93.3247 L881.927 92.3757 L877.691 92.3757 M886.186 90.6164 L886.186 105.408 L881.927 105.408 L881.927 101.473 Q880.469 103.834 878.293 104.968 Q876.117 106.079 872.969 106.079 Q868.987 106.079 866.626 103.857 Q864.288 101.612 864.288 97.8617 Q864.288 93.4868 867.205 91.2646 Q870.145 89.0423 875.955 89.0423 L881.927 89.0423 L881.927 88.6257 Q881.927 85.6859 879.983 84.0887 Q878.061 82.4683 874.566 82.4683 Q872.344 82.4683 870.237 83.0007 Q868.131 83.5331 866.187 84.5979 L866.187 80.6628 Q868.524 79.76 870.724 79.3202 Q872.923 78.8572 875.006 78.8572 Q880.631 78.8572 883.409 81.7739 Q886.186 84.6905 886.186 90.6164 Z" fill="#000000" fill-rule="nonzero" fill-opacity="1" /><path clip-path="url(#clip100)" d="M894.96 69.3897 L899.219 69.3897 L899.219 105.408 L894.96 105.408 L894.96 69.3897 Z" fill="#000000" fill-rule="nonzero" fill-opacity="1" /><path clip-path="url(#clip100)" d="M909.219 99.5284 L914.103 99.5284 L914.103 105.408 L909.219 105.408 L909.219 99.5284 M909.219 80.8942 L914.103 80.8942 L914.103 86.7738 L909.219 86.7738 L909.219 80.8942 Z" fill="#000000" fill-rule="nonzero" fill-opacity="1" /><path clip-path="url(#clip100)" d="M943.802 101.473 L960.121 101.473 L960.121 105.408 L938.177 105.408 L938.177 101.473 Q940.839 98.7182 945.422 94.0886 Q950.029 89.4359 951.209 88.0933 Q953.455 85.5701 954.334 83.834 Q955.237 82.0748 955.237 80.385 Q955.237 77.6304 953.293 75.8943 Q951.371 74.1582 948.269 74.1582 Q946.07 74.1582 943.617 74.9221 Q941.186 75.6859 938.408 77.2369 L938.408 72.5147 Q941.232 71.3804 943.686 70.8017 Q946.14 70.223 948.177 70.223 Q953.547 70.223 956.742 72.9082 Q959.936 75.5933 959.936 80.0841 Q959.936 82.2137 959.126 84.135 Q958.339 86.0331 956.232 88.6257 Q955.654 89.297 952.552 92.5146 Q949.45 95.709 943.802 101.473 Z" fill="#000000" fill-rule="nonzero" fill-opacity="1" /><path clip-path="url(#clip100)" d="M973.964 101.473 L990.283 101.473 L990.283 105.408 L968.339 105.408 L968.339 101.473 Q971.001 98.7182 975.584 94.0886 Q980.191 89.4359 981.371 88.0933 Q983.616 85.5701 984.496 83.834 Q985.399 82.0748 985.399 80.385 Q985.399 77.6304 983.454 75.8943 Q981.533 74.1582 978.431 74.1582 Q976.232 74.1582 973.779 74.9221 Q971.348 75.6859 968.57 77.2369 L968.57 72.5147 Q971.394 71.3804 973.848 70.8017 Q976.302 70.223 978.339 70.223 Q983.709 70.223 986.903 72.9082 Q990.098 75.5933 990.098 80.0841 Q990.098 82.2137 989.288 84.135 Q988.501 86.0331 986.394 88.6257 Q985.816 89.297 982.714 92.5146 Q979.612 95.709 973.964 101.473 Z" fill="#000000" fill-rule="nonzero" fill-opacity="1" /><path clip-path="url(#clip100)" d="M1012.95 74.9221 L1001.14 93.371 L1012.95 93.371 L1012.95 74.9221 M1011.72 70.848 L1017.6 70.848 L1017.6 93.371 L1022.53 93.371 L1022.53 97.2599 L1017.6 97.2599 L1017.6 105.408 L1012.95 105.408 L1012.95 97.2599 L997.343 97.2599 L997.343 92.746 L1011.72 70.848 Z" fill="#000000" fill-rule="nonzero" fill-opacity="1" /><path clip-path="url(#clip100)" d="M1029.08 70.848 L1051.3 70.848 L1051.3 72.8387 L1038.76 105.408 L1033.87 105.408 L1045.68 74.7832 L1029.08 74.7832 L1029.08 70.848 Z" fill="#000000" fill-rule="nonzero" fill-opacity="1" /><path clip-path="url(#clip100)" d="M1073.27 74.9221 L1061.46 93.371 L1073.27 93.371 L1073.27 74.9221 M1072.04 70.848 L1077.92 70.848 L1077.92 93.371 L1082.85 93.371 L1082.85 97.2599 L1077.92 97.2599 L1077.92 105.408 L1073.27 105.408 L1073.27 97.2599 L1057.67 97.2599 L1057.67 92.746 L1072.04 70.848 Z" fill="#000000" fill-rule="nonzero" fill-opacity="1" /><path clip-path="url(#clip100)" d="M1090.58 99.5284 L1095.47 99.5284 L1095.47 105.408 L1090.58 105.408 L1090.58 99.5284 Z" fill="#000000" fill-rule="nonzero" fill-opacity="1" /><path clip-path="url(#clip100)" d="M1106.46 101.473 L1114.1 101.473 L1114.1 75.1072 L1105.79 76.7739 L1105.79 72.5147 L1114.06 70.848 L1118.73 70.848 L1118.73 101.473 L1126.37 101.473 L1126.37 105.408 L1106.46 105.408 L1106.46 101.473 Z" fill="#000000" fill-rule="nonzero" fill-opacity="1" /><path clip-path="url(#clip100)" d="M1148.66 74.9221 L1136.86 93.371 L1148.66 93.371 L1148.66 74.9221 M1147.44 70.848 L1153.31 70.848 L1153.31 93.371 L1158.25 93.371 L1158.25 97.2599 L1153.31 97.2599 L1153.31 105.408 L1148.66 105.408 L1148.66 97.2599 L1133.06 97.2599 L1133.06 92.746 L1147.44 70.848 Z" fill="#000000" fill-rule="nonzero" fill-opacity="1" /><path clip-path="url(#clip100)" d="M1166.79 101.473 L1174.43 101.473 L1174.43 75.1072 L1166.12 76.7739 L1166.12 72.5147 L1174.38 70.848 L1179.06 70.848 L1179.06 101.473 L1186.69 101.473 L1186.69 105.408 L1166.79 105.408 L1166.79 101.473 Z" fill="#000000" fill-rule="nonzero" fill-opacity="1" /><path clip-path="url(#clip100)" d="M1206.14 73.9267 Q1202.53 73.9267 1200.7 77.4915 Q1198.89 81.0331 1198.89 88.1627 Q1198.89 95.2692 1200.7 98.834 Q1202.53 102.376 1206.14 102.376 Q1209.77 102.376 1211.58 98.834 Q1213.41 95.2692 1213.41 88.1627 Q1213.41 81.0331 1211.58 77.4915 Q1209.77 73.9267 1206.14 73.9267 M1206.14 70.223 Q1211.95 70.223 1215 74.8295 Q1218.08 79.4128 1218.08 88.1627 Q1218.08 96.8895 1215 101.496 Q1211.95 106.079 1206.14 106.079 Q1200.33 106.079 1197.25 101.496 Q1194.19 96.8895 1194.19 88.1627 Q1194.19 79.4128 1197.25 74.8295 Q1200.33 70.223 1206.14 70.223 Z" fill="#000000" fill-rule="nonzero" fill-opacity="1" /><path clip-path="url(#clip100)" d="M1227.11 101.473 L1234.75 101.473 L1234.75 75.1072 L1226.44 76.7739 L1226.44 72.5147 L1234.7 70.848 L1239.38 70.848 L1239.38 101.473 L1247.02 101.473 L1247.02 105.408 L1227.11 105.408 L1227.11 101.473 Z" fill="#000000" fill-rule="nonzero" fill-opacity="1" /><path clip-path="url(#clip100)" d="M1255.28 70.848 L1277.5 70.848 L1277.5 72.8387 L1264.96 105.408 L1260.07 105.408 L1271.88 74.7832 L1255.28 74.7832 L1255.28 70.848 Z" fill="#000000" fill-rule="nonzero" fill-opacity="1" /><path clip-path="url(#clip102)" d="M316.907 114.832 L316.907 128.726 L1682.57 128.726 L1682.57 114.832 L316.907 114.832 L316.907 114.832  Z" fill="#c0c0c0" fill-rule="evenodd" fill-opacity="1"/>
<polyline clip-path="url(#clip102)" style="stroke:#000000; stroke-linecap:round; stroke-linejoin:round; stroke-width:4; stroke-opacity:1; fill:none" points="316.907,114.832 316.907,128.726 1682.57,128.726 1682.57,114.832 316.907,114.832 "/>
<circle clip-path="url(#clip102)" style="fill:#c0c0c0; stroke:none; fill-opacity:0" cx="999.739" cy="114.832" r="2"/>
<path clip-path="url(#clip102)" d="M316.907 128.726 L316.907 1224.16 L1682.57 1224.16 L1682.57 128.726 L316.907 128.726 L316.907 128.726  Z" fill="#ffff00" fill-rule="evenodd" fill-opacity="1"/>
<polyline clip-path="url(#clip102)" style="stroke:#000000; stroke-linecap:round; stroke-linejoin:round; stroke-width:4; stroke-opacity:1; fill:none" points="316.907,128.726 316.907,1224.16 1682.57,1224.16 1682.57,128.726 316.907,128.726 "/>
<circle clip-path="url(#clip102)" style="fill:#ffff00; stroke:none; fill-opacity:0" cx="999.739" cy="128.726" r="2"/>
<path clip-path="url(#clip102)" d="M316.907 1224.16 L316.907 1301.23 L1682.57 1301.23 L1682.57 1224.16 L316.907 1224.16 L316.907 1224.16  Z" fill="#00bfff" fill-rule="evenodd" fill-opacity="1"/>
<polyline clip-path="url(#clip102)" style="stroke:#000000; stroke-linecap:round; stroke-linejoin:round; stroke-width:4; stroke-opacity:1; fill:none" points="316.907,1224.16 316.907,1301.23 1682.57,1301.23 1682.57,1224.16 316.907,1224.16 "/>
<circle clip-path="url(#clip102)" style="fill:#00bfff; stroke:none; fill-opacity:0" cx="999.739" cy="1224.16" r="2"/>
<path clip-path="url(#clip102)" d="M316.907 1301.23 L316.907 1752.76 L1682.57 1752.76 L1682.57 1301.23 L316.907 1301.23 L316.907 1301.23  Z" fill="#cd3278" fill-rule="evenodd" fill-opacity="1"/>
<polyline clip-path="url(#clip102)" style="stroke:#000000; stroke-linecap:round; stroke-linejoin:round; stroke-width:4; stroke-opacity:1; fill:none" points="316.907,1301.23 316.907,1752.76 1682.57,1752.76 1682.57,1301.23 316.907,1301.23 "/>
<circle clip-path="url(#clip102)" style="fill:#cd3278; stroke:none; fill-opacity:0" cx="999.739" cy="1301.23" r="2"/>
<path clip-path="url(#clip100)" d="M2018.3 1752.76 L3552.76 1752.76 L3552.76 114.832 L2018.3 114.832  Z" fill="#ffffff" fill-rule="evenodd" fill-opacity="1"/>
<defs>
  <clipPath id="clip103">
    <rect x="2018" y="114" width="1535" height="1639"/>
  </clipPath>
</defs>
<polyline clip-path="url(#clip100)" style="stroke:#000000; stroke-linecap:round; stroke-linejoin:round; stroke-width:4; stroke-opacity:1; fill:none" points="2018.3,1752.76 3552.76,1752.76 "/>
<polyline clip-path="url(#clip103)" style="stroke:#000000; stroke-linecap:round; stroke-linejoin:round; stroke-width:2; stroke-opacity:0.1; fill:none" points="2018.3,1752.76 3552.76,1752.76 "/>
<polyline clip-path="url(#clip103)" style="stroke:#000000; stroke-linecap:round; stroke-linejoin:round; stroke-width:2; stroke-opacity:0.1; fill:none" points="2018.3,1391.86 3552.76,1391.86 "/>
<polyline clip-path="url(#clip103)" style="stroke:#000000; stroke-linecap:round; stroke-linejoin:round; stroke-width:2; stroke-opacity:0.1; fill:none" points="2018.3,1030.97 3552.76,1030.97 "/>
<polyline clip-path="url(#clip103)" style="stroke:#000000; stroke-linecap:round; stroke-linejoin:round; stroke-width:2; stroke-opacity:0.1; fill:none" points="2018.3,670.08 3552.76,670.08 "/>
<polyline clip-path="url(#clip103)" style="stroke:#000000; stroke-linecap:round; stroke-linejoin:round; stroke-width:2; stroke-opacity:0.1; fill:none" points="2018.3,309.187 3552.76,309.187 "/>
<polyline clip-path="url(#clip100)" style="stroke:#000000; stroke-linecap:round; stroke-linejoin:round; stroke-width:4; stroke-opacity:1; fill:none" points="2018.3,1752.76 2018.3,114.832 "/>
<polyline clip-path="url(#clip100)" style="stroke:#000000; stroke-linecap:round; stroke-linejoin:round; stroke-width:4; stroke-opacity:1; fill:none" points="2018.3,1752.76 2037.19,1752.76 "/>
<polyline clip-path="url(#clip100)" style="stroke:#000000; stroke-linecap:round; stroke-linejoin:round; stroke-width:4; stroke-opacity:1; fill:none" points="2018.3,1391.86 2037.19,1391.86 "/>
<polyline clip-path="url(#clip100)" style="stroke:#000000; stroke-linecap:round; stroke-linejoin:round; stroke-width:4; stroke-opacity:1; fill:none" points="2018.3,1030.97 2037.19,1030.97 "/>
<polyline clip-path="url(#clip100)" style="stroke:#000000; stroke-linecap:round; stroke-linejoin:round; stroke-width:4; stroke-opacity:1; fill:none" points="2018.3,670.08 2037.19,670.08 "/>
<polyline clip-path="url(#clip100)" style="stroke:#000000; stroke-linecap:round; stroke-linejoin:round; stroke-width:4; stroke-opacity:1; fill:none" points="2018.3,309.187 2037.19,309.187 "/>
<path clip-path="url(#clip100)" d="M1952.35 1738.55 Q1948.74 1738.55 1946.91 1742.12 Q1945.11 1745.66 1945.11 1752.79 Q1945.11 1759.9 1946.91 1763.46 Q1948.74 1767 1952.35 1767 Q1955.99 1767 1957.79 1763.46 Q1959.62 1759.9 1959.62 1752.79 Q1959.62 1745.66 1957.79 1742.12 Q1955.99 1738.55 1952.35 1738.55 M1952.35 1734.85 Q1958.16 1734.85 1961.22 1739.46 Q1964.3 1744.04 1964.3 1752.79 Q1964.3 1761.52 1961.22 1766.12 Q1958.16 1770.71 1952.35 1770.71 Q1946.54 1770.71 1943.46 1766.12 Q1940.41 1761.52 1940.41 1752.79 Q1940.41 1744.04 1943.46 1739.46 Q1946.54 1734.85 1952.35 1734.85 Z" fill="#000000" fill-rule="nonzero" fill-opacity="1" /><path clip-path="url(#clip100)" d="M1943.39 1374.58 L1961.75 1374.58 L1961.75 1378.52 L1947.68 1378.52 L1947.68 1386.99 Q1948.69 1386.64 1949.71 1386.48 Q1950.73 1386.3 1951.75 1386.3 Q1957.54 1386.3 1960.92 1389.47 Q1964.3 1392.64 1964.3 1398.06 Q1964.3 1403.63 1960.82 1406.74 Q1957.35 1409.82 1951.03 1409.82 Q1948.86 1409.82 1946.59 1409.44 Q1944.34 1409.07 1941.94 1408.33 L1941.94 1403.63 Q1944.02 1404.77 1946.24 1405.32 Q1948.46 1405.88 1950.94 1405.88 Q1954.94 1405.88 1957.28 1403.77 Q1959.62 1401.67 1959.62 1398.06 Q1959.62 1394.44 1957.28 1392.34 Q1954.94 1390.23 1950.94 1390.23 Q1949.07 1390.23 1947.19 1390.65 Q1945.34 1391.07 1943.39 1391.94 L1943.39 1374.58 Z" fill="#000000" fill-rule="nonzero" fill-opacity="1" /><path clip-path="url(#clip100)" d="M1913 1044.32 L1920.64 1044.32 L1920.64 1017.95 L1912.33 1019.62 L1912.33 1015.36 L1920.59 1013.69 L1925.27 1013.69 L1925.27 1044.32 L1932.91 1044.32 L1932.91 1048.25 L1913 1048.25 L1913 1044.32 Z" fill="#000000" fill-rule="nonzero" fill-opacity="1" /><path clip-path="url(#clip100)" d="M1952.35 1016.77 Q1948.74 1016.77 1946.91 1020.34 Q1945.11 1023.88 1945.11 1031.01 Q1945.11 1038.11 1946.91 1041.68 Q1948.74 1045.22 1952.35 1045.22 Q1955.99 1045.22 1957.79 1041.68 Q1959.62 1038.11 1959.62 1031.01 Q1959.62 1023.88 1957.79 1020.34 Q1955.99 1016.77 1952.35 1016.77 M1952.35 1013.07 Q1958.16 1013.07 1961.22 1017.67 Q1964.3 1022.26 1964.3 1031.01 Q1964.3 1039.73 1961.22 1044.34 Q1958.16 1048.92 1952.35 1048.92 Q1946.54 1048.92 1943.46 1044.34 Q1940.41 1039.73 1940.41 1031.01 Q1940.41 1022.26 1943.46 1017.67 Q1946.54 1013.07 1952.35 1013.07 Z" fill="#000000" fill-rule="nonzero" fill-opacity="1" /><path clip-path="url(#clip100)" d="M1914 683.424 L1921.63 683.424 L1921.63 657.059 L1913.32 658.725 L1913.32 654.466 L1921.59 652.8 L1926.26 652.8 L1926.26 683.424 L1933.9 683.424 L1933.9 687.36 L1914 687.36 L1914 683.424 Z" fill="#000000" fill-rule="nonzero" fill-opacity="1" /><path clip-path="url(#clip100)" d="M1943.39 652.8 L1961.75 652.8 L1961.75 656.735 L1947.68 656.735 L1947.68 665.207 Q1948.69 664.86 1949.71 664.698 Q1950.73 664.512 1951.75 664.512 Q1957.54 664.512 1960.92 667.684 Q1964.3 670.855 1964.3 676.272 Q1964.3 681.85 1960.82 684.952 Q1957.35 688.031 1951.03 688.031 Q1948.86 688.031 1946.59 687.661 Q1944.34 687.29 1941.94 686.549 L1941.94 681.85 Q1944.02 682.985 1946.24 683.54 Q1948.46 684.096 1950.94 684.096 Q1954.94 684.096 1957.28 681.989 Q1959.62 679.883 1959.62 676.272 Q1959.62 672.661 1957.28 670.554 Q1954.94 668.448 1950.94 668.448 Q1949.07 668.448 1947.19 668.864 Q1945.34 669.281 1943.39 670.161 L1943.39 652.8 Z" fill="#000000" fill-rule="nonzero" fill-opacity="1" /><path clip-path="url(#clip100)" d="M1916.22 322.532 L1932.54 322.532 L1932.54 326.467 L1910.59 326.467 L1910.59 322.532 Q1913.26 319.778 1917.84 315.148 Q1922.44 310.495 1923.63 309.153 Q1925.87 306.63 1926.75 304.894 Q1927.65 303.134 1927.65 301.444 Q1927.65 298.69 1925.71 296.954 Q1923.79 295.218 1920.69 295.218 Q1918.49 295.218 1916.03 295.982 Q1913.6 296.745 1910.82 298.296 L1910.82 293.574 Q1913.65 292.44 1916.1 291.861 Q1918.56 291.282 1920.59 291.282 Q1925.96 291.282 1929.16 293.968 Q1932.35 296.653 1932.35 301.144 Q1932.35 303.273 1931.54 305.194 Q1930.75 307.093 1928.65 309.685 Q1928.07 310.356 1924.97 313.574 Q1921.87 316.768 1916.22 322.532 Z" fill="#000000" fill-rule="nonzero" fill-opacity="1" /><path clip-path="url(#clip100)" d="M1952.35 294.986 Q1948.74 294.986 1946.91 298.551 Q1945.11 302.093 1945.11 309.222 Q1945.11 316.329 1946.91 319.893 Q1948.74 323.435 1952.35 323.435 Q1955.99 323.435 1957.79 319.893 Q1959.62 316.329 1959.62 309.222 Q1959.62 302.093 1957.79 298.551 Q1955.99 294.986 1952.35 294.986 M1952.35 291.282 Q1958.16 291.282 1961.22 295.889 Q1964.3 300.472 1964.3 309.222 Q1964.3 317.949 1961.22 322.555 Q1958.16 327.139 1952.35 327.139 Q1946.54 327.139 1943.46 322.555 Q1940.41 317.949 1940.41 309.222 Q1940.41 300.472 1943.46 295.889 Q1946.54 291.282 1952.35 291.282 Z" fill="#000000" fill-rule="nonzero" fill-opacity="1" /><path clip-path="url(#clip100)" d="M1835.56 953.241 L1822.79 953.241 L1822.79 963.745 L1817.51 963.745 L1817.51 946.876 L1837.91 946.876 Q1840.55 950.599 1841.92 955.087 Q1843.26 959.575 1843.26 964.668 Q1843.26 975.808 1836.77 982.11 Q1830.24 988.38 1818.62 988.38 Q1806.98 988.38 1800.48 982.11 Q1793.96 975.808 1793.96 964.668 Q1793.96 960.021 1795.1 955.851 Q1796.25 951.65 1798.48 948.117 L1805.32 948.117 Q1802.3 951.682 1800.77 955.692 Q1799.24 959.702 1799.24 964.127 Q1799.24 972.848 1804.11 977.24 Q1808.98 981.6 1818.62 981.6 Q1828.24 981.6 1833.11 977.24 Q1837.98 972.848 1837.98 964.127 Q1837.98 960.721 1837.4 958.047 Q1836.8 955.374 1835.56 953.241 Z" fill="#000000" fill-rule="nonzero" fill-opacity="1" /><path clip-path="url(#clip100)" d="M1794.82 939.364 L1794.82 932.871 L1834.98 922.877 L1794.82 912.914 L1794.82 905.689 L1834.98 895.695 L1794.82 885.733 L1794.82 879.208 L1842.34 891.144 L1842.34 899.228 L1801.09 909.254 L1842.34 919.376 L1842.34 927.46 L1794.82 939.364 Z" fill="#000000" fill-rule="nonzero" fill-opacity="1" /><path clip-path="url(#clip100)" d="M2527.53 19.008 L2533.83 19.008 L2549.15 47.9199 L2549.15 19.008 L2553.69 19.008 L2553.69 53.568 L2547.39 53.568 L2532.07 24.6561 L2532.07 53.568 L2527.53 53.568 L2527.53 19.008 Z" fill="#000000" fill-rule="nonzero" fill-opacity="1" /><path clip-path="url(#clip100)" d="M2572.85 30.6283 Q2569.43 30.6283 2567.44 33.3135 Q2565.45 35.9755 2565.45 40.6283 Q2565.45 45.281 2567.41 47.9662 Q2569.4 50.6282 2572.85 50.6282 Q2576.26 50.6282 2578.25 47.943 Q2580.24 45.2579 2580.24 40.6283 Q2580.24 36.0218 2578.25 33.3366 Q2576.26 30.6283 2572.85 30.6283 M2572.85 27.0172 Q2578.41 27.0172 2581.58 30.6283 Q2584.75 34.2394 2584.75 40.6283 Q2584.75 46.994 2581.58 50.6282 Q2578.41 54.2393 2572.85 54.2393 Q2567.28 54.2393 2564.1 50.6282 Q2560.96 46.994 2560.96 40.6283 Q2560.96 34.2394 2564.1 30.6283 Q2567.28 27.0172 2572.85 27.0172 Z" fill="#000000" fill-rule="nonzero" fill-opacity="1" /><path clip-path="url(#clip100)" d="M2607.07 19.008 L2628.92 19.008 L2628.92 22.9432 L2611.74 22.9432 L2611.74 33.1746 L2628.2 33.1746 L2628.2 37.1098 L2611.74 37.1098 L2611.74 49.6328 L2629.33 49.6328 L2629.33 53.568 L2607.07 53.568 L2607.07 19.008 Z" fill="#000000" fill-rule="nonzero" fill-opacity="1" /><path clip-path="url(#clip100)" d="M2657.02 32.619 Q2658.62 29.7487 2660.84 28.3829 Q2663.06 27.0172 2666.07 27.0172 Q2670.12 27.0172 2672.32 29.8644 Q2674.52 32.6885 2674.52 37.9199 L2674.52 53.568 L2670.24 53.568 L2670.24 38.0588 Q2670.24 34.332 2668.92 32.5264 Q2667.6 30.7209 2664.89 30.7209 Q2661.58 30.7209 2659.66 32.92 Q2657.74 35.119 2657.74 38.9153 L2657.74 53.568 L2653.46 53.568 L2653.46 38.0588 Q2653.46 34.3088 2652.14 32.5264 Q2650.82 30.7209 2648.06 30.7209 Q2644.8 30.7209 2642.88 32.9431 Q2640.96 35.1422 2640.96 38.9153 L2640.96 53.568 L2636.67 53.568 L2636.67 27.6422 L2640.96 27.6422 L2640.96 31.67 Q2642.41 29.2857 2644.45 28.1515 Q2646.49 27.0172 2649.29 27.0172 Q2652.11 27.0172 2654.08 28.4524 Q2656.07 29.8876 2657.02 32.619 Z" fill="#000000" fill-rule="nonzero" fill-opacity="1" /><path clip-path="url(#clip100)" d="M2683.02 27.6422 L2687.27 27.6422 L2687.27 53.568 L2683.02 53.568 L2683.02 27.6422 M2683.02 17.5497 L2687.27 17.5497 L2687.27 22.9432 L2683.02 22.9432 L2683.02 17.5497 Z" fill="#000000" fill-rule="nonzero" fill-opacity="1" /><path clip-path="url(#clip100)" d="M2712.71 28.4061 L2712.71 32.4339 Q2710.91 31.5079 2708.96 31.045 Q2707.02 30.582 2704.94 30.582 Q2701.77 30.582 2700.17 31.5542 Q2698.59 32.5264 2698.59 34.4709 Q2698.59 35.9524 2699.73 36.8088 Q2700.86 37.6422 2704.29 38.406 L2705.75 38.7301 Q2710.28 39.7023 2712.18 41.4847 Q2714.1 43.244 2714.1 46.4153 Q2714.1 50.0264 2711.23 52.1328 Q2708.39 54.2393 2703.39 54.2393 Q2701.3 54.2393 2699.03 53.8226 Q2696.79 53.4291 2694.29 52.6189 L2694.29 48.2208 Q2696.65 49.4477 2698.94 50.0726 Q2701.23 50.6745 2703.48 50.6745 Q2706.49 50.6745 2708.11 49.656 Q2709.73 48.6143 2709.73 46.7393 Q2709.73 45.0032 2708.55 44.0773 Q2707.39 43.1514 2703.43 42.2949 L2701.95 41.9477 Q2697.99 41.1144 2696.23 39.4014 Q2694.47 37.6653 2694.47 34.6561 Q2694.47 30.9987 2697.07 29.0079 Q2699.66 27.0172 2704.43 27.0172 Q2706.79 27.0172 2708.87 27.3644 Q2710.95 27.7117 2712.71 28.4061 Z" fill="#000000" fill-rule="nonzero" fill-opacity="1" /><path clip-path="url(#clip100)" d="M2737.41 28.4061 L2737.41 32.4339 Q2735.61 31.5079 2733.66 31.045 Q2731.72 30.582 2729.64 30.582 Q2726.46 30.582 2724.87 31.5542 Q2723.29 32.5264 2723.29 34.4709 Q2723.29 35.9524 2724.43 36.8088 Q2725.56 37.6422 2728.99 38.406 L2730.45 38.7301 Q2734.98 39.7023 2736.88 41.4847 Q2738.8 43.244 2738.8 46.4153 Q2738.8 50.0264 2735.93 52.1328 Q2733.08 54.2393 2728.08 54.2393 Q2726 54.2393 2723.73 53.8226 Q2721.49 53.4291 2718.99 52.6189 L2718.99 48.2208 Q2721.35 49.4477 2723.64 50.0726 Q2725.93 50.6745 2728.18 50.6745 Q2731.19 50.6745 2732.81 49.656 Q2734.43 48.6143 2734.43 46.7393 Q2734.43 45.0032 2733.25 44.0773 Q2732.09 43.1514 2728.13 42.2949 L2726.65 41.9477 Q2722.69 41.1144 2720.93 39.4014 Q2719.17 37.6653 2719.17 34.6561 Q2719.17 30.9987 2721.76 29.0079 Q2724.36 27.0172 2729.13 27.0172 Q2731.49 27.0172 2733.57 27.3644 Q2735.65 27.7117 2737.41 28.4061 Z" fill="#000000" fill-rule="nonzero" fill-opacity="1" /><path clip-path="url(#clip100)" d="M2745.58 27.6422 L2749.84 27.6422 L2749.84 53.568 L2745.58 53.568 L2745.58 27.6422 M2745.58 17.5497 L2749.84 17.5497 L2749.84 22.9432 L2745.58 22.9432 L2745.58 17.5497 Z" fill="#000000" fill-rule="nonzero" fill-opacity="1" /><path clip-path="url(#clip100)" d="M2768.8 30.6283 Q2765.38 30.6283 2763.39 33.3135 Q2761.39 35.9755 2761.39 40.6283 Q2761.39 45.281 2763.36 47.9662 Q2765.35 50.6282 2768.8 50.6282 Q2772.2 50.6282 2774.2 47.943 Q2776.19 45.2579 2776.19 40.6283 Q2776.19 36.0218 2774.2 33.3366 Q2772.2 30.6283 2768.8 30.6283 M2768.8 27.0172 Q2774.36 27.0172 2777.53 30.6283 Q2780.7 34.2394 2780.7 40.6283 Q2780.7 46.994 2777.53 50.6282 Q2774.36 54.2393 2768.8 54.2393 Q2763.22 54.2393 2760.05 50.6282 Q2756.9 46.994 2756.9 40.6283 Q2756.9 34.2394 2760.05 30.6283 Q2763.22 27.0172 2768.8 27.0172 Z" fill="#000000" fill-rule="nonzero" fill-opacity="1" /><path clip-path="url(#clip100)" d="M2809.31 37.9199 L2809.31 53.568 L2805.05 53.568 L2805.05 38.0588 Q2805.05 34.3783 2803.62 32.5496 Q2802.18 30.7209 2799.31 30.7209 Q2795.86 30.7209 2793.87 32.92 Q2791.88 35.119 2791.88 38.9153 L2791.88 53.568 L2787.6 53.568 L2787.6 27.6422 L2791.88 27.6422 L2791.88 31.67 Q2793.41 29.332 2795.47 28.1746 Q2797.55 27.0172 2800.26 27.0172 Q2804.73 27.0172 2807.02 29.795 Q2809.31 32.5496 2809.31 37.9199 Z" fill="#000000" fill-rule="nonzero" fill-opacity="1" /><path clip-path="url(#clip100)" d="M2834.33 28.4061 L2834.33 32.4339 Q2832.53 31.5079 2830.58 31.045 Q2828.64 30.582 2826.56 30.582 Q2823.38 30.582 2821.79 31.5542 Q2820.21 32.5264 2820.21 34.4709 Q2820.21 35.9524 2821.35 36.8088 Q2822.48 37.6422 2825.91 38.406 L2827.37 38.7301 Q2831.9 39.7023 2833.8 41.4847 Q2835.72 43.244 2835.72 46.4153 Q2835.72 50.0264 2832.85 52.1328 Q2830.01 54.2393 2825.01 54.2393 Q2822.92 54.2393 2820.65 53.8226 Q2818.41 53.4291 2815.91 52.6189 L2815.91 48.2208 Q2818.27 49.4477 2820.56 50.0726 Q2822.85 50.6745 2825.1 50.6745 Q2828.11 50.6745 2829.73 49.656 Q2831.35 48.6143 2831.35 46.7393 Q2831.35 45.0032 2830.17 44.0773 Q2829.01 43.1514 2825.05 42.2949 L2823.57 41.9477 Q2819.61 41.1144 2817.85 39.4014 Q2816.09 37.6653 2816.09 34.6561 Q2816.09 30.9987 2818.69 29.0079 Q2821.28 27.0172 2826.05 27.0172 Q2828.41 27.0172 2830.49 27.3644 Q2832.57 27.7117 2834.33 28.4061 Z" fill="#000000" fill-rule="nonzero" fill-opacity="1" /><path clip-path="url(#clip100)" d="M2862.44 22.8506 L2862.44 35.8366 L2868.32 35.8366 Q2871.58 35.8366 2873.36 34.1468 Q2875.14 32.457 2875.14 29.332 Q2875.14 26.2302 2873.36 24.5404 Q2871.58 22.8506 2868.32 22.8506 L2862.44 22.8506 M2857.76 19.008 L2868.32 19.008 Q2874.13 19.008 2877.09 21.6469 Q2880.07 24.2626 2880.07 29.332 Q2880.07 34.4477 2877.09 37.0635 Q2874.13 39.6792 2868.32 39.6792 L2862.44 39.6792 L2862.44 53.568 L2857.76 53.568 L2857.76 19.008 Z" fill="#000000" fill-rule="nonzero" fill-opacity="1" /><path clip-path="url(#clip100)" d="M2894.52 30.6283 Q2891.09 30.6283 2889.1 33.3135 Q2887.11 35.9755 2887.11 40.6283 Q2887.11 45.281 2889.08 47.9662 Q2891.07 50.6282 2894.52 50.6282 Q2897.92 50.6282 2899.91 47.943 Q2901.9 45.2579 2901.9 40.6283 Q2901.9 36.0218 2899.91 33.3366 Q2897.92 30.6283 2894.52 30.6283 M2894.52 27.0172 Q2900.07 27.0172 2903.25 30.6283 Q2906.42 34.2394 2906.42 40.6283 Q2906.42 46.994 2903.25 50.6282 Q2900.07 54.2393 2894.52 54.2393 Q2888.94 54.2393 2885.77 50.6282 Q2882.62 46.994 2882.62 40.6283 Q2882.62 34.2394 2885.77 30.6283 Q2888.94 27.0172 2894.52 27.0172 Z" fill="#000000" fill-rule="nonzero" fill-opacity="1" /><path clip-path="url(#clip100)" d="M2913.48 17.5497 L2917.74 17.5497 L2917.74 53.568 L2913.48 53.568 L2913.48 17.5497 Z" fill="#000000" fill-rule="nonzero" fill-opacity="1" /><path clip-path="url(#clip100)" d="M2926.65 27.6422 L2930.91 27.6422 L2930.91 53.568 L2926.65 53.568 L2926.65 27.6422 M2926.65 17.5497 L2930.91 17.5497 L2930.91 22.9432 L2926.65 22.9432 L2926.65 17.5497 Z" fill="#000000" fill-rule="nonzero" fill-opacity="1" /><path clip-path="url(#clip100)" d="M2958.48 28.6376 L2958.48 32.619 Q2956.67 31.6237 2954.84 31.1376 Q2953.04 30.6283 2951.19 30.6283 Q2947.04 30.6283 2944.75 33.2672 Q2942.46 35.8829 2942.46 40.6283 Q2942.46 45.3736 2944.75 48.0125 Q2947.04 50.6282 2951.19 50.6282 Q2953.04 50.6282 2954.84 50.1421 Q2956.67 49.6328 2958.48 48.6375 L2958.48 52.5726 Q2956.69 53.406 2954.77 53.8226 Q2952.87 54.2393 2950.72 54.2393 Q2944.87 54.2393 2941.42 50.5588 Q2937.97 46.8782 2937.97 40.6283 Q2937.97 34.2857 2941.44 30.6515 Q2944.94 27.0172 2951 27.0172 Q2952.97 27.0172 2954.84 27.4339 Q2956.72 27.8274 2958.48 28.6376 Z" fill="#000000" fill-rule="nonzero" fill-opacity="1" /><path clip-path="url(#clip100)" d="M2965.88 27.6422 L2970.14 27.6422 L2970.14 53.568 L2965.88 53.568 L2965.88 27.6422 M2965.88 17.5497 L2970.14 17.5497 L2970.14 22.9432 L2965.88 22.9432 L2965.88 17.5497 Z" fill="#000000" fill-rule="nonzero" fill-opacity="1" /><path clip-path="url(#clip100)" d="M3001.23 39.5403 L3001.23 41.6236 L2981.65 41.6236 Q2981.93 46.0217 2984.29 48.3365 Q2986.67 50.6282 2990.91 50.6282 Q2993.36 50.6282 2995.65 50.0264 Q2997.97 49.4245 3000.24 48.2208 L3000.24 52.2486 Q2997.94 53.2208 2995.54 53.73 Q2993.13 54.2393 2990.65 54.2393 Q2984.45 54.2393 2980.81 50.6282 Q2977.2 47.0171 2977.2 40.8597 Q2977.2 34.494 2980.63 30.7672 Q2984.08 27.0172 2989.91 27.0172 Q2995.14 27.0172 2998.18 30.3968 Q3001.23 33.7533 3001.23 39.5403 M2996.97 38.2903 Q2996.93 34.795 2995 32.7116 Q2993.11 30.6283 2989.96 30.6283 Q2986.39 30.6283 2984.24 32.6422 Q2982.11 34.6561 2981.79 38.3135 L2996.97 38.2903 Z" fill="#000000" fill-rule="nonzero" fill-opacity="1" /><path clip-path="url(#clip100)" d="M3024.75 28.4061 L3024.75 32.4339 Q3022.94 31.5079 3021 31.045 Q3019.06 30.582 3016.97 30.582 Q3013.8 30.582 3012.2 31.5542 Q3010.63 32.5264 3010.63 34.4709 Q3010.63 35.9524 3011.76 36.8088 Q3012.9 37.6422 3016.32 38.406 L3017.78 38.7301 Q3022.32 39.7023 3024.22 41.4847 Q3026.14 43.244 3026.14 46.4153 Q3026.14 50.0264 3023.27 52.1328 Q3020.42 54.2393 3015.42 54.2393 Q3013.34 54.2393 3011.07 53.8226 Q3008.82 53.4291 3006.32 52.6189 L3006.32 48.2208 Q3008.68 49.4477 3010.98 50.0726 Q3013.27 50.6745 3015.51 50.6745 Q3018.52 50.6745 3020.14 49.656 Q3021.76 48.6143 3021.76 46.7393 Q3021.76 45.0032 3020.58 44.0773 Q3019.43 43.1514 3015.47 42.2949 L3013.99 41.9477 Q3010.03 41.1144 3008.27 39.4014 Q3006.51 37.6653 3006.51 34.6561 Q3006.51 30.9987 3009.1 29.0079 Q3011.69 27.0172 3016.46 27.0172 Q3018.82 27.0172 3020.91 27.3644 Q3022.99 27.7117 3024.75 28.4061 Z" fill="#000000" fill-rule="nonzero" fill-opacity="1" /><path clip-path="url(#clip100)" d="M2556.64 74.0193 Q2551.55 74.0193 2548.54 77.8156 Q2545.55 81.6118 2545.55 88.1627 Q2545.55 94.6905 2548.54 98.4867 Q2551.55 102.283 2556.64 102.283 Q2561.73 102.283 2564.69 98.4867 Q2567.68 94.6905 2567.68 88.1627 Q2567.68 81.6118 2564.69 77.8156 Q2561.73 74.0193 2556.64 74.0193 M2556.64 70.223 Q2563.91 70.223 2568.26 75.1072 Q2572.61 79.9683 2572.61 88.1627 Q2572.61 96.334 2568.26 101.218 Q2563.91 106.079 2556.64 106.079 Q2549.35 106.079 2544.97 101.218 Q2540.62 96.3571 2540.62 88.1627 Q2540.62 79.9683 2544.97 75.1072 Q2549.35 70.223 2556.64 70.223 Z" fill="#000000" fill-rule="nonzero" fill-opacity="1" /><path clip-path="url(#clip100)" d="M2598.35 92.4683 Q2598.35 87.7692 2596.41 85.1072 Q2594.49 82.422 2591.11 82.422 Q2587.73 82.422 2585.78 85.1072 Q2583.86 87.7692 2583.86 92.4683 Q2583.86 97.1673 2585.78 99.8525 Q2587.73 102.514 2591.11 102.514 Q2594.49 102.514 2596.41 99.8525 Q2598.35 97.1673 2598.35 92.4683 M2583.86 83.4174 Q2585.2 81.1026 2587.24 79.9915 Q2589.3 78.8572 2592.15 78.8572 Q2596.87 78.8572 2599.81 82.6072 Q2602.77 86.3572 2602.77 92.4683 Q2602.77 98.5793 2599.81 102.329 Q2596.87 106.079 2592.15 106.079 Q2589.3 106.079 2587.24 104.968 Q2585.2 103.834 2583.86 101.519 L2583.86 105.408 L2579.58 105.408 L2579.58 69.3897 L2583.86 69.3897 L2583.86 83.4174 Z" fill="#000000" fill-rule="nonzero" fill-opacity="1" /><path clip-path="url(#clip100)" d="M2609.83 79.4822 L2614.09 79.4822 L2614.09 105.871 Q2614.09 110.825 2612.19 113.047 Q2610.32 115.269 2606.13 115.269 L2604.51 115.269 L2604.51 111.658 L2605.64 111.658 Q2608.07 111.658 2608.95 110.524 Q2609.83 109.413 2609.83 105.871 L2609.83 79.4822 M2609.83 69.3897 L2614.09 69.3897 L2614.09 74.7832 L2609.83 74.7832 L2609.83 69.3897 Z" fill="#000000" fill-rule="nonzero" fill-opacity="1" /><path clip-path="url(#clip100)" d="M2647.17 105.408 L2633.98 70.848 L2638.86 70.848 L2649.81 99.9451 L2660.78 70.848 L2665.64 70.848 L2652.47 105.408 L2647.17 105.408 Z" fill="#000000" fill-rule="nonzero" fill-opacity="1" /><path clip-path="url(#clip100)" d="M2678.61 92.3757 Q2673.44 92.3757 2671.45 93.5562 Q2669.46 94.7368 2669.46 97.584 Q2669.46 99.8525 2670.94 101.195 Q2672.45 102.514 2675.02 102.514 Q2678.56 102.514 2680.69 100.015 Q2682.84 97.4914 2682.84 93.3247 L2682.84 92.3757 L2678.61 92.3757 M2687.1 90.6164 L2687.1 105.408 L2682.84 105.408 L2682.84 101.473 Q2681.38 103.834 2679.21 104.968 Q2677.03 106.079 2673.88 106.079 Q2669.9 106.079 2667.54 103.857 Q2665.2 101.612 2665.2 97.8617 Q2665.2 93.4868 2668.12 91.2646 Q2671.06 89.0423 2676.87 89.0423 L2682.84 89.0423 L2682.84 88.6257 Q2682.84 85.6859 2680.9 84.0887 Q2678.98 82.4683 2675.48 82.4683 Q2673.26 82.4683 2671.15 83.0007 Q2669.05 83.5331 2667.1 84.5979 L2667.1 80.6628 Q2669.44 79.76 2671.64 79.3202 Q2673.84 78.8572 2675.92 78.8572 Q2681.55 78.8572 2684.32 81.7739 Q2687.1 84.6905 2687.1 90.6164 Z" fill="#000000" fill-rule="nonzero" fill-opacity="1" /><path clip-path="url(#clip100)" d="M2695.87 69.3897 L2700.13 69.3897 L2700.13 105.408 L2695.87 105.408 L2695.87 69.3897 Z" fill="#000000" fill-rule="nonzero" fill-opacity="1" /><path clip-path="url(#clip100)" d="M2710.13 99.5284 L2715.02 99.5284 L2715.02 105.408 L2710.13 105.408 L2710.13 99.5284 M2710.13 80.8942 L2715.02 80.8942 L2715.02 86.7738 L2710.13 86.7738 L2710.13 80.8942 Z" fill="#000000" fill-rule="nonzero" fill-opacity="1" /><path clip-path="url(#clip100)" d="M2753.54 74.9221 L2741.73 93.371 L2753.54 93.371 L2753.54 74.9221 M2752.31 70.848 L2758.19 70.848 L2758.19 93.371 L2763.12 93.371 L2763.12 97.2599 L2758.19 97.2599 L2758.19 105.408 L2753.54 105.408 L2753.54 97.2599 L2737.93 97.2599 L2737.93 92.746 L2752.31 70.848 Z" fill="#000000" fill-rule="nonzero" fill-opacity="1" /><path clip-path="url(#clip100)" d="M2783.7 74.9221 L2771.89 93.371 L2783.7 93.371 L2783.7 74.9221 M2782.47 70.848 L2788.35 70.848 L2788.35 93.371 L2793.28 93.371 L2793.28 97.2599 L2788.35 97.2599 L2788.35 105.408 L2783.7 105.408 L2783.7 97.2599 L2768.1 97.2599 L2768.1 92.746 L2782.47 70.848 Z" fill="#000000" fill-rule="nonzero" fill-opacity="1" /><path clip-path="url(#clip100)" d="M2801.15 104.69 L2801.15 100.431 Q2802.91 101.265 2804.72 101.704 Q2806.52 102.144 2808.26 102.144 Q2812.89 102.144 2815.32 99.0423 Q2817.77 95.9173 2818.12 89.5748 Q2816.78 91.5655 2814.72 92.6303 Q2812.66 93.6951 2810.16 93.6951 Q2804.97 93.6951 2801.94 90.5701 Q2798.93 87.422 2798.93 81.9822 Q2798.93 76.6582 2802.08 73.4406 Q2805.23 70.223 2810.46 70.223 Q2816.45 70.223 2819.6 74.8295 Q2822.77 79.4128 2822.77 88.1627 Q2822.77 96.334 2818.88 101.218 Q2815.02 106.079 2808.47 106.079 Q2806.71 106.079 2804.9 105.732 Q2803.1 105.385 2801.15 104.69 M2810.46 90.0377 Q2813.6 90.0377 2815.43 87.8849 Q2817.29 85.7322 2817.29 81.9822 Q2817.29 78.2554 2815.43 76.1026 Q2813.6 73.9267 2810.46 73.9267 Q2807.31 73.9267 2805.46 76.1026 Q2803.63 78.2554 2803.63 81.9822 Q2803.63 85.7322 2805.46 87.8849 Q2807.31 90.0377 2810.46 90.0377 Z" fill="#000000" fill-rule="nonzero" fill-opacity="1" /><path clip-path="url(#clip100)" d="M2829.99 70.848 L2852.22 70.848 L2852.22 72.8387 L2839.67 105.408 L2834.79 105.408 L2846.59 74.7832 L2829.99 74.7832 L2829.99 70.848 Z" fill="#000000" fill-rule="nonzero" fill-opacity="1" /><path clip-path="url(#clip100)" d="M2861.34 99.5284 L2866.22 99.5284 L2866.22 105.408 L2861.34 105.408 L2861.34 99.5284 Z" fill="#000000" fill-rule="nonzero" fill-opacity="1" /><path clip-path="url(#clip100)" d="M2890.57 86.7738 Q2893.93 87.4914 2895.8 89.7599 Q2897.7 92.0284 2897.7 95.3618 Q2897.7 100.477 2894.18 103.278 Q2890.66 106.079 2884.18 106.079 Q2882.01 106.079 2879.69 105.639 Q2877.4 105.223 2874.95 104.366 L2874.95 99.8525 Q2876.89 100.987 2879.21 101.565 Q2881.52 102.144 2884.04 102.144 Q2888.44 102.144 2890.73 100.408 Q2893.05 98.6719 2893.05 95.3618 Q2893.05 92.3062 2890.9 90.5933 Q2888.77 88.8572 2884.95 88.8572 L2880.92 88.8572 L2880.92 85.0146 L2885.13 85.0146 Q2888.58 85.0146 2890.41 83.6489 Q2892.24 82.26 2892.24 79.6674 Q2892.24 77.0054 2890.34 75.5933 Q2888.47 74.1582 2884.95 74.1582 Q2883.03 74.1582 2880.83 74.5748 Q2878.63 74.9915 2875.99 75.8711 L2875.99 71.7045 Q2878.65 70.9637 2880.97 70.5934 Q2883.3 70.223 2885.36 70.223 Q2890.69 70.223 2893.79 72.6535 Q2896.89 75.0609 2896.89 79.1813 Q2896.89 82.0516 2895.25 84.0424 Q2893.6 86.01 2890.57 86.7738 Z" fill="#000000" fill-rule="nonzero" fill-opacity="1" /><path clip-path="url(#clip100)" d="M2907.38 101.473 L2915.02 101.473 L2915.02 75.1072 L2906.71 76.7739 L2906.71 72.5147 L2914.97 70.848 L2919.65 70.848 L2919.65 101.473 L2927.28 101.473 L2927.28 105.408 L2907.38 105.408 L2907.38 101.473 Z" fill="#000000" fill-rule="nonzero" fill-opacity="1" /><path clip-path="url(#clip100)" d="M2940.76 101.473 L2957.08 101.473 L2957.08 105.408 L2935.13 105.408 L2935.13 101.473 Q2937.79 98.7182 2942.38 94.0886 Q2946.98 89.4359 2948.16 88.0933 Q2950.41 85.5701 2951.29 83.834 Q2952.19 82.0748 2952.19 80.385 Q2952.19 77.6304 2950.25 75.8943 Q2948.33 74.1582 2945.22 74.1582 Q2943.03 74.1582 2940.57 74.9221 Q2938.14 75.6859 2935.36 77.2369 L2935.36 72.5147 Q2938.19 71.3804 2940.64 70.8017 Q2943.09 70.223 2945.13 70.223 Q2950.5 70.223 2953.7 72.9082 Q2956.89 75.5933 2956.89 80.0841 Q2956.89 82.2137 2956.08 84.135 Q2955.29 86.0331 2953.19 88.6257 Q2952.61 89.297 2949.51 92.5146 Q2946.4 95.709 2940.76 101.473 Z" fill="#000000" fill-rule="nonzero" fill-opacity="1" /><path clip-path="url(#clip100)" d="M2967.7 101.473 L2975.34 101.473 L2975.34 75.1072 L2967.03 76.7739 L2967.03 72.5147 L2975.29 70.848 L2979.97 70.848 L2979.97 101.473 L2987.61 101.473 L2987.61 105.408 L2967.7 105.408 L2967.7 101.473 Z" fill="#000000" fill-rule="nonzero" fill-opacity="1" /><path clip-path="url(#clip100)" d="M3007.05 88.9961 Q3003.72 88.9961 3001.8 90.7784 Q2999.9 92.5608 2999.9 95.6858 Q2999.9 98.8108 3001.8 100.593 Q3003.72 102.376 3007.05 102.376 Q3010.39 102.376 3012.31 100.593 Q3014.23 98.7877 3014.23 95.6858 Q3014.23 92.5608 3012.31 90.7784 Q3010.41 88.9961 3007.05 88.9961 M3002.38 87.0053 Q2999.37 86.2646 2997.68 84.2044 Q2996.01 82.1442 2996.01 79.1813 Q2996.01 75.0378 2998.95 72.6304 Q3001.91 70.223 3007.05 70.223 Q3012.21 70.223 3015.15 72.6304 Q3018.09 75.0378 3018.09 79.1813 Q3018.09 82.1442 3016.4 84.2044 Q3014.74 86.2646 3011.75 87.0053 Q3015.13 87.7924 3017.01 90.084 Q3018.9 92.3757 3018.9 95.6858 Q3018.9 100.709 3015.83 103.394 Q3012.77 106.079 3007.05 106.079 Q3001.34 106.079 2998.26 103.394 Q2995.2 100.709 2995.2 95.6858 Q2995.2 92.3757 2997.1 90.084 Q2999 87.7924 3002.38 87.0053 M3000.66 79.6211 Q3000.66 82.3063 3002.33 83.8109 Q3004.02 85.3155 3007.05 85.3155 Q3010.06 85.3155 3011.75 83.8109 Q3013.46 82.3063 3013.46 79.6211 Q3013.46 76.9359 3011.75 75.4313 Q3010.06 73.9267 3007.05 73.9267 Q3004.02 73.9267 3002.33 75.4313 Q3000.66 76.9359 3000.66 79.6211 Z" fill="#000000" fill-rule="nonzero" fill-opacity="1" /><path clip-path="url(#clip100)" d="M3027.26 70.848 L3045.62 70.848 L3045.62 74.7832 L3031.54 74.7832 L3031.54 83.2553 Q3032.56 82.9081 3033.58 82.7461 Q3034.6 82.5609 3035.62 82.5609 Q3041.4 82.5609 3044.78 85.7322 Q3048.16 88.9035 3048.16 94.3201 Q3048.16 99.8988 3044.69 103.001 Q3041.22 106.079 3034.9 106.079 Q3032.72 106.079 3030.46 105.709 Q3028.21 105.339 3025.8 104.598 L3025.8 99.8988 Q3027.89 101.033 3030.11 101.589 Q3032.33 102.144 3034.81 102.144 Q3038.81 102.144 3041.15 100.038 Q3043.49 97.9312 3043.49 94.3201 Q3043.49 90.709 3041.15 88.6025 Q3038.81 86.4961 3034.81 86.4961 Q3032.93 86.4961 3031.06 86.9127 Q3029.21 87.3294 3027.26 88.209 L3027.26 70.848 Z" fill="#000000" fill-rule="nonzero" fill-opacity="1" /><path clip-path="url(#clip103)" d="M2102.69 114.832 L2102.69 1594.56 L3468.36 1594.56 L3468.36 114.832 L2102.69 114.832 L2102.69 114.832  Z" fill="#c0c0c0" fill-rule="evenodd" fill-opacity="1"/>
<polyline clip-path="url(#clip103)" style="stroke:#000000; stroke-linecap:round; stroke-linejoin:round; stroke-width:4; stroke-opacity:1; fill:none" points="2102.69,114.832 2102.69,1594.56 3468.36,1594.56 3468.36,114.832 2102.69,114.832 "/>
<path clip-path="url(#clip103)" d="M2102.69 1594.56 L2102.69 1594.56 L3468.36 1594.56 L3468.36 1594.56 L2102.69 1594.56 L2102.69 1594.56  Z" fill="#ffff00" fill-rule="evenodd" fill-opacity="1"/>
<polyline clip-path="url(#clip103)" style="stroke:#000000; stroke-linecap:round; stroke-linejoin:round; stroke-width:4; stroke-opacity:1; fill:none" points="2102.69,1594.56 2102.69,1594.56 3468.36,1594.56 2102.69,1594.56 "/>
<circle clip-path="url(#clip103)" style="fill:#ffff00; stroke:none; fill-opacity:0" cx="2785.53" cy="1594.56" r="2"/>
<path clip-path="url(#clip103)" d="M2102.69 1594.56 L2102.69 1740.81 L3468.36 1740.81 L3468.36 1594.56 L2102.69 1594.56 L2102.69 1594.56  Z" fill="#00bfff" fill-rule="evenodd" fill-opacity="1"/>
<polyline clip-path="url(#clip103)" style="stroke:#000000; stroke-linecap:round; stroke-linejoin:round; stroke-width:4; stroke-opacity:1; fill:none" points="2102.69,1594.56 2102.69,1740.81 3468.36,1740.81 3468.36,1594.56 2102.69,1594.56 "/>
<circle clip-path="url(#clip103)" style="fill:#00bfff; stroke:none; fill-opacity:0" cx="2785.53" cy="1594.56" r="2"/>
<path clip-path="url(#clip103)" d="M2102.69 1740.81 L2102.69 1752.76 L3468.36 1752.76 L3468.36 1740.81 L2102.69 1740.81 L2102.69 1740.81  Z" fill="#cd3278" fill-rule="evenodd" fill-opacity="1"/>
<polyline clip-path="url(#clip103)" style="stroke:#000000; stroke-linecap:round; stroke-linejoin:round; stroke-width:4; stroke-opacity:1; fill:none" points="2102.69,1740.81 2102.69,1752.76 3468.36,1752.76 3468.36,1740.81 2102.69,1740.81 "/>
<circle clip-path="url(#clip103)" style="fill:#cd3278; stroke:none; fill-opacity:0" cx="2785.53" cy="1740.81" r="2"/>
<path clip-path="url(#clip100)" d="M3074.71 428.63 L3501.61 428.63 L3501.61 169.43 L3074.71 169.43  Z" fill="#ffffff" fill-rule="evenodd" fill-opacity="1"/>
<polyline clip-path="url(#clip100)" style="stroke:#000000; stroke-linecap:round; stroke-linejoin:round; stroke-width:4; stroke-opacity:1; fill:none" points="3074.71,428.63 3501.61,428.63 3501.61,169.43 3074.71,169.43 3074.71,428.63 "/>
<path clip-path="url(#clip100)" d="M3091.76 242.006 L3194.06 242.006 L3194.06 200.534 L3091.76 200.534 L3091.76 242.006  Z" fill="#c0c0c0" fill-rule="evenodd" fill-opacity="1"/>
<polyline clip-path="url(#clip100)" style="stroke:#000000; stroke-linecap:round; stroke-linejoin:round; stroke-width:4; stroke-opacity:1; fill:none" points="3091.76,242.006 3194.06,242.006 3194.06,200.534 3091.76,200.534 3091.76,242.006 "/>
<path clip-path="url(#clip100)" d="M3211.11 203.99 L3217.41 203.99 L3232.73 232.901 L3232.73 203.99 L3237.27 203.99 L3237.27 238.55 L3230.97 238.55 L3215.65 209.638 L3215.65 238.55 L3211.11 238.55 L3211.11 203.99 Z" fill="#000000" fill-rule="nonzero" fill-opacity="1" /><path clip-path="url(#clip100)" d="M3258.17 225.517 Q3253.01 225.517 3251.02 226.698 Q3249.03 227.878 3249.03 230.726 Q3249.03 232.994 3250.51 234.337 Q3252.01 235.656 3254.58 235.656 Q3258.12 235.656 3260.25 233.156 Q3262.41 230.633 3262.41 226.466 L3262.41 225.517 L3258.17 225.517 M3266.67 223.758 L3266.67 238.55 L3262.41 238.55 L3262.41 234.614 Q3260.95 236.976 3258.77 238.11 Q3256.6 239.221 3253.45 239.221 Q3249.47 239.221 3247.11 236.999 Q3244.77 234.753 3244.77 231.003 Q3244.77 226.628 3247.68 224.406 Q3250.62 222.184 3256.43 222.184 L3262.41 222.184 L3262.41 221.767 Q3262.41 218.827 3260.46 217.23 Q3258.54 215.61 3255.05 215.61 Q3252.82 215.61 3250.72 216.142 Q3248.61 216.675 3246.67 217.74 L3246.67 213.804 Q3249 212.902 3251.2 212.462 Q3253.4 211.999 3255.48 211.999 Q3261.11 211.999 3263.89 214.915 Q3266.67 217.832 3266.67 223.758 Z" fill="#000000" fill-rule="nonzero" fill-opacity="1" /><path clip-path="url(#clip100)" d="M3279.65 205.263 L3279.65 212.624 L3288.42 212.624 L3288.42 215.934 L3279.65 215.934 L3279.65 230.008 Q3279.65 233.179 3280.51 234.082 Q3281.39 234.985 3284.05 234.985 L3288.42 234.985 L3288.42 238.55 L3284.05 238.55 Q3279.12 238.55 3277.24 236.721 Q3275.37 234.869 3275.37 230.008 L3275.37 215.934 L3272.24 215.934 L3272.24 212.624 L3275.37 212.624 L3275.37 205.263 L3279.65 205.263 Z" fill="#000000" fill-rule="nonzero" fill-opacity="1" /><path clip-path="url(#clip100)" d="M3293.59 228.318 L3293.59 212.624 L3297.85 212.624 L3297.85 228.156 Q3297.85 231.837 3299.28 233.689 Q3300.72 235.517 3303.59 235.517 Q3307.04 235.517 3309.03 233.318 Q3311.04 231.119 3311.04 227.323 L3311.04 212.624 L3315.3 212.624 L3315.3 238.55 L3311.04 238.55 L3311.04 234.568 Q3309.49 236.929 3307.43 238.087 Q3305.39 239.221 3302.68 239.221 Q3298.22 239.221 3295.9 236.443 Q3293.59 233.665 3293.59 228.318 M3304.3 211.999 L3304.3 211.999 Z" fill="#000000" fill-rule="nonzero" fill-opacity="1" /><path clip-path="url(#clip100)" d="M3339.1 216.605 Q3338.38 216.189 3337.52 216.003 Q3336.69 215.795 3335.67 215.795 Q3332.06 215.795 3330.11 218.156 Q3328.19 220.494 3328.19 224.892 L3328.19 238.55 L3323.91 238.55 L3323.91 212.624 L3328.19 212.624 L3328.19 216.652 Q3329.54 214.29 3331.69 213.156 Q3333.84 211.999 3336.92 211.999 Q3337.36 211.999 3337.89 212.068 Q3338.42 212.115 3339.07 212.23 L3339.1 216.605 Z" fill="#000000" fill-rule="nonzero" fill-opacity="1" /><path clip-path="url(#clip100)" d="M3355.35 225.517 Q3350.18 225.517 3348.19 226.698 Q3346.2 227.878 3346.2 230.726 Q3346.2 232.994 3347.68 234.337 Q3349.19 235.656 3351.76 235.656 Q3355.3 235.656 3357.43 233.156 Q3359.58 230.633 3359.58 226.466 L3359.58 225.517 L3355.35 225.517 M3363.84 223.758 L3363.84 238.55 L3359.58 238.55 L3359.58 234.614 Q3358.12 236.976 3355.95 238.11 Q3353.77 239.221 3350.62 239.221 Q3346.64 239.221 3344.28 236.999 Q3341.94 234.753 3341.94 231.003 Q3341.94 226.628 3344.86 224.406 Q3347.8 222.184 3353.61 222.184 L3359.58 222.184 L3359.58 221.767 Q3359.58 218.827 3357.64 217.23 Q3355.72 215.61 3352.22 215.61 Q3350 215.61 3347.89 216.142 Q3345.79 216.675 3343.84 217.74 L3343.84 213.804 Q3346.18 212.902 3348.38 212.462 Q3350.58 211.999 3352.66 211.999 Q3358.29 211.999 3361.06 214.915 Q3363.84 217.832 3363.84 223.758 Z" fill="#000000" fill-rule="nonzero" fill-opacity="1" /><path clip-path="url(#clip100)" d="M3372.61 202.531 L3376.87 202.531 L3376.87 238.55 L3372.61 238.55 L3372.61 202.531 Z" fill="#000000" fill-rule="nonzero" fill-opacity="1" /><path clip-path="url(#clip100)" d="M3424.6 233.619 L3424.6 224.337 L3416.97 224.337 L3416.97 220.494 L3429.23 220.494 L3429.23 235.332 Q3426.53 237.253 3423.26 238.249 Q3420 239.221 3416.29 239.221 Q3408.19 239.221 3403.61 234.499 Q3399.05 229.753 3399.05 221.304 Q3399.05 212.832 3403.61 208.11 Q3408.19 203.365 3416.29 203.365 Q3419.67 203.365 3422.71 204.198 Q3425.76 205.031 3428.33 206.652 L3428.33 211.628 Q3425.74 209.429 3422.82 208.318 Q3419.91 207.207 3416.69 207.207 Q3410.35 207.207 3407.15 210.749 Q3403.98 214.29 3403.98 221.304 Q3403.98 228.295 3407.15 231.837 Q3410.35 235.378 3416.69 235.378 Q3419.16 235.378 3421.11 234.962 Q3423.05 234.522 3424.6 233.619 Z" fill="#000000" fill-rule="nonzero" fill-opacity="1" /><path clip-path="url(#clip100)" d="M3449.37 225.517 Q3444.21 225.517 3442.22 226.698 Q3440.23 227.878 3440.23 230.726 Q3440.23 232.994 3441.71 234.337 Q3443.22 235.656 3445.78 235.656 Q3449.33 235.656 3451.46 233.156 Q3453.61 230.633 3453.61 226.466 L3453.61 225.517 L3449.37 225.517 M3457.87 223.758 L3457.87 238.55 L3453.61 238.55 L3453.61 234.614 Q3452.15 236.976 3449.97 238.11 Q3447.8 239.221 3444.65 239.221 Q3440.67 239.221 3438.31 236.999 Q3435.97 234.753 3435.97 231.003 Q3435.97 226.628 3438.89 224.406 Q3441.83 222.184 3447.64 222.184 L3453.61 222.184 L3453.61 221.767 Q3453.61 218.827 3451.66 217.23 Q3449.74 215.61 3446.25 215.61 Q3444.03 215.61 3441.92 216.142 Q3439.81 216.675 3437.87 217.74 L3437.87 213.804 Q3440.21 212.902 3442.41 212.462 Q3444.6 211.999 3446.69 211.999 Q3452.31 211.999 3455.09 214.915 Q3457.87 217.832 3457.87 223.758 Z" fill="#000000" fill-rule="nonzero" fill-opacity="1" /><path clip-path="url(#clip100)" d="M3483.17 213.388 L3483.17 217.415 Q3481.36 216.49 3479.42 216.027 Q3477.47 215.564 3475.39 215.564 Q3472.22 215.564 3470.62 216.536 Q3469.05 217.508 3469.05 219.452 Q3469.05 220.934 3470.18 221.79 Q3471.32 222.624 3474.74 223.388 L3476.2 223.712 Q3480.74 224.684 3482.64 226.466 Q3484.56 228.226 3484.56 231.397 Q3484.56 235.008 3481.69 237.114 Q3478.84 239.221 3473.84 239.221 Q3471.76 239.221 3469.49 238.804 Q3467.24 238.411 3464.74 237.601 L3464.74 233.202 Q3467.1 234.429 3469.4 235.054 Q3471.69 235.656 3473.93 235.656 Q3476.94 235.656 3478.56 234.638 Q3480.18 233.596 3480.18 231.721 Q3480.18 229.985 3479 229.059 Q3477.84 228.133 3473.89 227.276 L3472.4 226.929 Q3468.45 226.096 3466.69 224.383 Q3464.93 222.647 3464.93 219.638 Q3464.93 215.98 3467.52 213.99 Q3470.11 211.999 3474.88 211.999 Q3477.24 211.999 3479.33 212.346 Q3481.41 212.693 3483.17 213.388 Z" fill="#000000" fill-rule="nonzero" fill-opacity="1" /><path clip-path="url(#clip100)" d="M3091.76 293.846 L3194.06 293.846 L3194.06 252.374 L3091.76 252.374 L3091.76 293.846  Z" fill="#ffff00" fill-rule="evenodd" fill-opacity="1"/>
<polyline clip-path="url(#clip100)" style="stroke:#000000; stroke-linecap:round; stroke-linejoin:round; stroke-width:4; stroke-opacity:1; fill:none" points="3091.76,293.846 3194.06,293.846 3194.06,252.374 3091.76,252.374 3091.76,293.846 "/>
<path clip-path="url(#clip100)" d="M3233.36 256.964 L3233.36 261.524 Q3230.69 260.251 3228.33 259.626 Q3225.97 259.001 3223.77 259.001 Q3219.95 259.001 3217.87 260.482 Q3215.81 261.964 3215.81 264.695 Q3215.81 266.987 3217.17 268.167 Q3218.56 269.325 3222.41 270.042 L3225.23 270.621 Q3230.46 271.617 3232.94 274.14 Q3235.44 276.64 3235.44 280.853 Q3235.44 285.876 3232.06 288.468 Q3228.7 291.061 3222.2 291.061 Q3219.74 291.061 3216.97 290.505 Q3214.21 289.95 3211.25 288.862 L3211.25 284.047 Q3214.1 285.644 3216.83 286.454 Q3219.56 287.265 3222.2 287.265 Q3226.2 287.265 3228.38 285.691 Q3230.55 284.116 3230.55 281.2 Q3230.55 278.654 3228.98 277.218 Q3227.43 275.783 3223.86 275.066 L3221.02 274.51 Q3215.79 273.468 3213.45 271.246 Q3211.11 269.024 3211.11 265.066 Q3211.11 260.482 3214.33 257.843 Q3217.57 255.205 3223.24 255.205 Q3225.67 255.205 3228.19 255.644 Q3230.72 256.084 3233.36 256.964 Z" fill="#000000" fill-rule="nonzero" fill-opacity="1" /><path clip-path="url(#clip100)" d="M3252.59 267.45 Q3249.17 267.45 3247.17 270.135 Q3245.18 272.797 3245.18 277.45 Q3245.18 282.103 3247.15 284.788 Q3249.14 287.45 3252.59 287.45 Q3255.99 287.45 3257.98 284.765 Q3259.98 282.079 3259.98 277.45 Q3259.98 272.843 3257.98 270.158 Q3255.99 267.45 3252.59 267.45 M3252.59 263.839 Q3258.15 263.839 3261.32 267.45 Q3264.49 271.061 3264.49 277.45 Q3264.49 283.816 3261.32 287.45 Q3258.15 291.061 3252.59 291.061 Q3247.01 291.061 3243.84 287.45 Q3240.69 283.816 3240.69 277.45 Q3240.69 271.061 3243.84 267.45 Q3247.01 263.839 3252.59 263.839 Z" fill="#000000" fill-rule="nonzero" fill-opacity="1" /><path clip-path="url(#clip100)" d="M3271.55 254.371 L3275.81 254.371 L3275.81 290.39 L3271.55 290.39 L3271.55 254.371 Z" fill="#000000" fill-rule="nonzero" fill-opacity="1" /><path clip-path="url(#clip100)" d="M3296.5 277.357 Q3291.34 277.357 3289.35 278.538 Q3287.36 279.718 3287.36 282.566 Q3287.36 284.834 3288.84 286.177 Q3290.35 287.496 3292.92 287.496 Q3296.46 287.496 3298.59 284.996 Q3300.74 282.473 3300.74 278.306 L3300.74 277.357 L3296.5 277.357 M3305 275.598 L3305 290.39 L3300.74 290.39 L3300.74 286.454 Q3299.28 288.816 3297.11 289.95 Q3294.93 291.061 3291.78 291.061 Q3287.8 291.061 3285.44 288.839 Q3283.1 286.593 3283.1 282.843 Q3283.1 278.468 3286.02 276.246 Q3288.96 274.024 3294.77 274.024 L3300.74 274.024 L3300.74 273.607 Q3300.74 270.667 3298.79 269.07 Q3296.87 267.45 3293.38 267.45 Q3291.16 267.45 3289.05 267.982 Q3286.94 268.515 3285 269.58 L3285 265.644 Q3287.34 264.742 3289.54 264.302 Q3291.73 263.839 3293.82 263.839 Q3299.44 263.839 3302.22 266.755 Q3305 269.672 3305 275.598 Z" fill="#000000" fill-rule="nonzero" fill-opacity="1" /><path clip-path="url(#clip100)" d="M3328.79 268.445 Q3328.08 268.029 3327.22 267.843 Q3326.39 267.635 3325.37 267.635 Q3321.76 267.635 3319.81 269.996 Q3317.89 272.334 3317.89 276.732 L3317.89 290.39 L3313.61 290.39 L3313.61 264.464 L3317.89 264.464 L3317.89 268.492 Q3319.23 266.13 3321.39 264.996 Q3323.54 263.839 3326.62 263.839 Q3327.06 263.839 3327.59 263.908 Q3328.12 263.955 3328.77 264.07 L3328.79 268.445 Z" fill="#000000" fill-rule="nonzero" fill-opacity="1" /><path clip-path="url(#clip100)" d="M3091.76 345.686 L3194.06 345.686 L3194.06 304.214 L3091.76 304.214 L3091.76 345.686  Z" fill="#00bfff" fill-rule="evenodd" fill-opacity="1"/>
<polyline clip-path="url(#clip100)" style="stroke:#000000; stroke-linecap:round; stroke-linejoin:round; stroke-width:4; stroke-opacity:1; fill:none" points="3091.76,345.686 3194.06,345.686 3194.06,304.214 3091.76,304.214 3091.76,345.686 "/>
<path clip-path="url(#clip100)" d="M3211.11 307.67 L3215.83 307.67 L3223.1 336.882 L3230.35 307.67 L3235.6 307.67 L3242.87 336.882 L3250.11 307.67 L3254.86 307.67 L3246.18 342.23 L3240.3 342.23 L3233.01 312.23 L3225.65 342.23 L3219.77 342.23 L3211.11 307.67 Z" fill="#000000" fill-rule="nonzero" fill-opacity="1" /><path clip-path="url(#clip100)" d="M3259.84 316.304 L3264.1 316.304 L3264.1 342.23 L3259.84 342.23 L3259.84 316.304 M3259.84 306.211 L3264.1 306.211 L3264.1 311.605 L3259.84 311.605 L3259.84 306.211 Z" fill="#000000" fill-rule="nonzero" fill-opacity="1" /><path clip-path="url(#clip100)" d="M3294.56 326.582 L3294.56 342.23 L3290.3 342.23 L3290.3 326.72 Q3290.3 323.04 3288.86 321.211 Q3287.43 319.382 3284.56 319.382 Q3281.11 319.382 3279.12 321.582 Q3277.13 323.781 3277.13 327.577 L3277.13 342.23 L3272.85 342.23 L3272.85 316.304 L3277.13 316.304 L3277.13 320.332 Q3278.66 317.994 3280.72 316.836 Q3282.8 315.679 3285.51 315.679 Q3289.98 315.679 3292.27 318.457 Q3294.56 321.211 3294.56 326.582 Z" fill="#000000" fill-rule="nonzero" fill-opacity="1" /><path clip-path="url(#clip100)" d="M3320.11 320.239 L3320.11 306.211 L3324.37 306.211 L3324.37 342.23 L3320.11 342.23 L3320.11 338.341 Q3318.77 340.656 3316.71 341.79 Q3314.67 342.901 3311.8 342.901 Q3307.1 342.901 3304.14 339.151 Q3301.2 335.401 3301.2 329.29 Q3301.2 323.179 3304.14 319.429 Q3307.1 315.679 3311.8 315.679 Q3314.67 315.679 3316.71 316.813 Q3318.77 317.924 3320.11 320.239 M3305.6 329.29 Q3305.6 333.989 3307.52 336.674 Q3309.47 339.336 3312.85 339.336 Q3316.23 339.336 3318.17 336.674 Q3320.11 333.989 3320.11 329.29 Q3320.11 324.591 3318.17 321.929 Q3316.23 319.244 3312.85 319.244 Q3309.47 319.244 3307.52 321.929 Q3305.6 324.591 3305.6 329.29 Z" fill="#000000" fill-rule="nonzero" fill-opacity="1" /><path clip-path="url(#clip100)" d="M3091.76 397.526 L3194.06 397.526 L3194.06 356.054 L3091.76 356.054 L3091.76 397.526  Z" fill="#cd3278" fill-rule="evenodd" fill-opacity="1"/>
<polyline clip-path="url(#clip100)" style="stroke:#000000; stroke-linecap:round; stroke-linejoin:round; stroke-width:4; stroke-opacity:1; fill:none" points="3091.76,397.526 3194.06,397.526 3194.06,356.054 3091.76,356.054 3091.76,397.526 "/>
<path clip-path="url(#clip100)" d="M3215.79 377.565 L3215.79 390.227 L3223.29 390.227 Q3227.06 390.227 3228.86 388.676 Q3230.69 387.102 3230.69 383.884 Q3230.69 380.644 3228.86 379.116 Q3227.06 377.565 3223.29 377.565 L3215.79 377.565 M3215.79 363.352 L3215.79 373.769 L3222.71 373.769 Q3226.13 373.769 3227.8 372.496 Q3229.49 371.199 3229.49 368.56 Q3229.49 365.945 3227.8 364.648 Q3226.13 363.352 3222.71 363.352 L3215.79 363.352 M3211.11 359.51 L3223.05 359.51 Q3228.4 359.51 3231.3 361.732 Q3234.19 363.954 3234.19 368.051 Q3234.19 371.222 3232.71 373.097 Q3231.23 374.972 3228.36 375.435 Q3231.8 376.176 3233.7 378.537 Q3235.62 380.875 3235.62 384.394 Q3235.62 389.023 3232.48 391.546 Q3229.33 394.07 3223.52 394.07 L3211.11 394.07 L3211.11 359.51 Z" fill="#000000" fill-rule="nonzero" fill-opacity="1" /><path clip-path="url(#clip100)" d="M3255.23 381.037 Q3250.07 381.037 3248.08 382.218 Q3246.09 383.398 3246.09 386.246 Q3246.09 388.514 3247.57 389.857 Q3249.07 391.176 3251.64 391.176 Q3255.18 391.176 3257.31 388.676 Q3259.47 386.153 3259.47 381.986 L3259.47 381.037 L3255.23 381.037 M3263.73 379.278 L3263.73 394.07 L3259.47 394.07 L3259.47 390.134 Q3258.01 392.496 3255.83 393.63 Q3253.66 394.741 3250.51 394.741 Q3246.53 394.741 3244.17 392.519 Q3241.83 390.273 3241.83 386.523 Q3241.83 382.148 3244.74 379.926 Q3247.68 377.704 3253.49 377.704 L3259.47 377.704 L3259.47 377.287 Q3259.47 374.347 3257.52 372.75 Q3255.6 371.13 3252.11 371.13 Q3249.88 371.13 3247.78 371.662 Q3245.67 372.195 3243.73 373.26 L3243.73 369.324 Q3246.06 368.422 3248.26 367.982 Q3250.46 367.519 3252.55 367.519 Q3258.17 367.519 3260.95 370.435 Q3263.73 373.352 3263.73 379.278 Z" fill="#000000" fill-rule="nonzero" fill-opacity="1" /><path clip-path="url(#clip100)" d="M3276.71 360.783 L3276.71 368.144 L3285.48 368.144 L3285.48 371.454 L3276.71 371.454 L3276.71 385.528 Q3276.71 388.699 3277.57 389.602 Q3278.45 390.505 3281.11 390.505 L3285.48 390.505 L3285.48 394.07 L3281.11 394.07 Q3276.18 394.07 3274.3 392.241 Q3272.43 390.389 3272.43 385.528 L3272.43 371.454 L3269.3 371.454 L3269.3 368.144 L3272.43 368.144 L3272.43 360.783 L3276.71 360.783 Z" fill="#000000" fill-rule="nonzero" fill-opacity="1" /><path clip-path="url(#clip100)" d="M3295.3 360.783 L3295.3 368.144 L3304.07 368.144 L3304.07 371.454 L3295.3 371.454 L3295.3 385.528 Q3295.3 388.699 3296.16 389.602 Q3297.04 390.505 3299.7 390.505 L3304.07 390.505 L3304.07 394.07 L3299.7 394.07 Q3294.77 394.07 3292.89 392.241 Q3291.02 390.389 3291.02 385.528 L3291.02 371.454 L3287.89 371.454 L3287.89 368.144 L3291.02 368.144 L3291.02 360.783 L3295.3 360.783 Z" fill="#000000" fill-rule="nonzero" fill-opacity="1" /><path clip-path="url(#clip100)" d="M3331.85 380.042 L3331.85 382.125 L3312.27 382.125 Q3312.54 386.523 3314.91 388.838 Q3317.29 391.13 3321.53 391.13 Q3323.98 391.13 3326.27 390.528 Q3328.59 389.926 3330.85 388.722 L3330.85 392.75 Q3328.56 393.722 3326.16 394.232 Q3323.75 394.741 3321.27 394.741 Q3315.07 394.741 3311.43 391.13 Q3307.82 387.519 3307.82 381.361 Q3307.82 374.996 3311.25 371.269 Q3314.7 367.519 3320.53 367.519 Q3325.76 367.519 3328.79 370.898 Q3331.85 374.255 3331.85 380.042 M3327.59 378.792 Q3327.54 375.297 3325.62 373.213 Q3323.73 371.13 3320.58 371.13 Q3317.01 371.13 3314.86 373.144 Q3312.73 375.158 3312.41 378.815 L3327.59 378.792 Z" fill="#000000" fill-rule="nonzero" fill-opacity="1" /><path clip-path="url(#clip100)" d="M3353.86 372.125 Q3353.15 371.709 3352.29 371.523 Q3351.46 371.315 3350.44 371.315 Q3346.83 371.315 3344.88 373.676 Q3342.96 376.014 3342.96 380.412 L3342.96 394.07 L3338.68 394.07 L3338.68 368.144 L3342.96 368.144 L3342.96 372.172 Q3344.3 369.81 3346.46 368.676 Q3348.61 367.519 3351.69 367.519 Q3352.13 367.519 3352.66 367.588 Q3353.19 367.635 3353.84 367.75 L3353.86 372.125 Z" fill="#000000" fill-rule="nonzero" fill-opacity="1" /><path clip-path="url(#clip100)" d="M3369.12 396.477 Q3367.31 401.107 3365.6 402.519 Q3363.89 403.931 3361.02 403.931 L3357.61 403.931 L3357.61 400.366 L3360.11 400.366 Q3361.87 400.366 3362.85 399.533 Q3363.82 398.699 3365 395.597 L3365.76 393.653 L3355.28 368.144 L3359.79 368.144 L3367.89 388.421 L3375.99 368.144 L3380.51 368.144 L3369.12 396.477 Z" fill="#000000" fill-rule="nonzero" fill-opacity="1" /></svg>
