<?xml version="1.0" encoding="utf-8"?>
<svg xmlns="http://www.w3.org/2000/svg" xmlns:xlink="http://www.w3.org/1999/xlink" width="800" height="450" viewBox="0 0 3200 1800">
<defs>
  <clipPath id="clip190">
    <rect x="0" y="0" width="3200" height="1800"/>
  </clipPath>
</defs>
<path clip-path="url(#clip190)" d="M0 1800 L3200 1800 L3200 0 L0 0  Z" fill="#ffffff" fill-rule="evenodd" fill-opacity="1"/>
<defs>
  <clipPath id="clip191">
    <rect x="640" y="0" width="2241" height="1800"/>
  </clipPath>
</defs>
<path clip-path="url(#clip190)" d="M232.964 1752.76 L1552.76 1752.76 L1552.76 121.312 L232.964 121.312  Z" fill="#ffffff" fill-rule="evenodd" fill-opacity="1"/>
<defs>
  <clipPath id="clip192">
    <rect x="232" y="121" width="1321" height="1632"/>
  </clipPath>
</defs>
<polyline clip-path="url(#clip190)" style="stroke:#000000; stroke-linecap:round; stroke-linejoin:round; stroke-width:4; stroke-opacity:1; fill:none" points="232.964,1752.76 1552.76,1752.76 "/>
<polyline clip-path="url(#clip192)" style="stroke:#000000; stroke-linecap:round; stroke-linejoin:round; stroke-width:2; stroke-opacity:0.1; fill:none" points="232.964,1463.71 1552.76,1463.71 "/>
<polyline clip-path="url(#clip192)" style="stroke:#000000; stroke-linecap:round; stroke-linejoin:round; stroke-width:2; stroke-opacity:0.1; fill:none" points="232.964,1174.67 1552.76,1174.67 "/>
<polyline clip-path="url(#clip192)" style="stroke:#000000; stroke-linecap:round; stroke-linejoin:round; stroke-width:2; stroke-opacity:0.1; fill:none" points="232.964,885.632 1552.76,885.632 "/>
<polyline clip-path="url(#clip192)" style="stroke:#000000; stroke-linecap:round; stroke-linejoin:round; stroke-width:2; stroke-opacity:0.1; fill:none" points="232.964,596.59 1552.76,596.59 "/>
<polyline clip-path="url(#clip192)" style="stroke:#000000; stroke-linecap:round; stroke-linejoin:round; stroke-width:2; stroke-opacity:0.1; fill:none" points="232.964,307.549 1552.76,307.549 "/>
<polyline clip-path="url(#clip190)" style="stroke:#000000; stroke-linecap:round; stroke-linejoin:round; stroke-width:4; stroke-opacity:1; fill:none" points="232.964,1752.76 232.964,121.312 "/>
<polyline clip-path="url(#clip190)" style="stroke:#000000; stroke-linecap:round; stroke-linejoin:round; stroke-width:4; stroke-opacity:1; fill:none" points="232.964,1463.71 251.862,1463.71 "/>
<polyline clip-path="url(#clip190)" style="stroke:#000000; stroke-linecap:round; stroke-linejoin:round; stroke-width:4; stroke-opacity:1; fill:none" points="232.964,1174.67 251.862,1174.67 "/>
<polyline clip-path="url(#clip190)" style="stroke:#000000; stroke-linecap:round; stroke-linejoin:round; stroke-width:4; stroke-opacity:1; fill:none" points="232.964,885.632 251.862,885.632 "/>
<polyline clip-path="url(#clip190)" style="stroke:#000000; stroke-linecap:round; stroke-linejoin:round; stroke-width:4; stroke-opacity:1; fill:none" points="232.964,596.59 251.862,596.59 "/>
<polyline clip-path="url(#clip190)" style="stroke:#000000; stroke-linecap:round; stroke-linejoin:round; stroke-width:4; stroke-opacity:1; fill:none" points="232.964,307.549 251.862,307.549 "/>
<path clip-path="url(#clip190)" d="M147.025 1462.36 Q150.381 1463.08 152.256 1465.35 Q154.154 1467.61 154.154 1470.95 Q154.154 1476.06 150.636 1478.86 Q147.117 1481.67 140.636 1481.67 Q138.46 1481.67 136.145 1481.23 Q133.854 1480.81 131.4 1479.95 L131.4 1475.44 Q133.344 1476.57 135.659 1477.15 Q137.974 1477.73 140.497 1477.73 Q144.895 1477.73 147.187 1475.99 Q149.502 1474.26 149.502 1470.95 Q149.502 1467.89 147.349 1466.18 Q145.219 1464.44 141.4 1464.44 L137.372 1464.44 L137.372 1460.6 L141.585 1460.6 Q145.034 1460.6 146.863 1459.24 Q148.691 1457.85 148.691 1455.25 Q148.691 1452.59 146.793 1451.18 Q144.918 1449.74 141.4 1449.74 Q139.478 1449.74 137.279 1450.16 Q135.08 1450.58 132.441 1451.46 L132.441 1447.29 Q135.104 1446.55 137.418 1446.18 Q139.756 1445.81 141.816 1445.81 Q147.14 1445.81 150.242 1448.24 Q153.344 1450.65 153.344 1454.77 Q153.344 1457.64 151.701 1459.63 Q150.057 1461.6 147.025 1462.36 Z" fill="#000000" fill-rule="nonzero" fill-opacity="1" /><path clip-path="url(#clip190)" d="M173.02 1449.51 Q169.409 1449.51 167.58 1453.08 Q165.775 1456.62 165.775 1463.75 Q165.775 1470.86 167.58 1474.42 Q169.409 1477.96 173.02 1477.96 Q176.654 1477.96 178.46 1474.42 Q180.288 1470.86 180.288 1463.75 Q180.288 1456.62 178.46 1453.08 Q176.654 1449.51 173.02 1449.51 M173.02 1445.81 Q178.83 1445.81 181.886 1450.42 Q184.964 1455 184.964 1463.75 Q184.964 1472.48 181.886 1477.08 Q178.83 1481.67 173.02 1481.67 Q167.21 1481.67 164.131 1477.08 Q161.076 1472.48 161.076 1463.75 Q161.076 1455 164.131 1450.42 Q167.21 1445.81 173.02 1445.81 Z" fill="#000000" fill-rule="nonzero" fill-opacity="1" /><path clip-path="url(#clip190)" d="M143.437 1172.81 Q140.289 1172.81 138.437 1174.96 Q136.608 1177.12 136.608 1180.87 Q136.608 1184.59 138.437 1186.77 Q140.289 1188.92 143.437 1188.92 Q146.585 1188.92 148.414 1186.77 Q150.265 1184.59 150.265 1180.87 Q150.265 1177.12 148.414 1174.96 Q146.585 1172.81 143.437 1172.81 M152.719 1158.16 L152.719 1162.42 Q150.96 1161.58 149.154 1161.14 Q147.372 1160.7 145.613 1160.7 Q140.983 1160.7 138.529 1163.83 Q136.099 1166.95 135.752 1173.27 Q137.117 1171.26 139.178 1170.19 Q141.238 1169.11 143.715 1169.11 Q148.923 1169.11 151.932 1172.28 Q154.965 1175.43 154.965 1180.87 Q154.965 1186.19 151.816 1189.41 Q148.668 1192.62 143.437 1192.62 Q137.441 1192.62 134.27 1188.04 Q131.099 1183.43 131.099 1174.71 Q131.099 1166.51 134.988 1161.65 Q138.877 1156.77 145.428 1156.77 Q147.187 1156.77 148.969 1157.12 Q150.775 1157.46 152.719 1158.16 Z" fill="#000000" fill-rule="nonzero" fill-opacity="1" /><path clip-path="url(#clip190)" d="M173.02 1160.47 Q169.409 1160.47 167.58 1164.04 Q165.775 1167.58 165.775 1174.71 Q165.775 1181.81 167.58 1185.38 Q169.409 1188.92 173.02 1188.92 Q176.654 1188.92 178.46 1185.38 Q180.288 1181.81 180.288 1174.71 Q180.288 1167.58 178.46 1164.04 Q176.654 1160.47 173.02 1160.47 M173.02 1156.77 Q178.83 1156.77 181.886 1161.37 Q184.964 1165.96 184.964 1174.71 Q184.964 1183.43 181.886 1188.04 Q178.83 1192.62 173.02 1192.62 Q167.21 1192.62 164.131 1188.04 Q161.076 1183.43 161.076 1174.71 Q161.076 1165.96 164.131 1161.37 Q167.21 1156.77 173.02 1156.77 Z" fill="#000000" fill-rule="nonzero" fill-opacity="1" /><path clip-path="url(#clip190)" d="M132.997 902.194 L132.997 897.935 Q134.756 898.768 136.562 899.208 Q138.367 899.648 140.103 899.648 Q144.733 899.648 147.164 896.546 Q149.617 893.421 149.965 887.078 Q148.622 889.069 146.562 890.134 Q144.502 891.199 142.002 891.199 Q136.816 891.199 133.784 888.074 Q130.775 884.926 130.775 879.486 Q130.775 874.162 133.923 870.944 Q137.071 867.727 142.303 867.727 Q148.298 867.727 151.446 872.333 Q154.617 876.916 154.617 885.666 Q154.617 893.838 150.728 898.722 Q146.863 903.583 140.312 903.583 Q138.553 903.583 136.747 903.236 Q134.941 902.888 132.997 902.194 M142.303 887.541 Q145.451 887.541 147.279 885.388 Q149.131 883.236 149.131 879.486 Q149.131 875.759 147.279 873.606 Q145.451 871.43 142.303 871.43 Q139.154 871.43 137.303 873.606 Q135.474 875.759 135.474 879.486 Q135.474 883.236 137.303 885.388 Q139.154 887.541 142.303 887.541 Z" fill="#000000" fill-rule="nonzero" fill-opacity="1" /><path clip-path="url(#clip190)" d="M173.02 871.43 Q169.409 871.43 167.58 874.995 Q165.775 878.537 165.775 885.666 Q165.775 892.773 167.58 896.337 Q169.409 899.879 173.02 899.879 Q176.654 899.879 178.46 896.337 Q180.288 892.773 180.288 885.666 Q180.288 878.537 178.46 874.995 Q176.654 871.43 173.02 871.43 M173.02 867.727 Q178.83 867.727 181.886 872.333 Q184.964 876.916 184.964 885.666 Q184.964 894.393 181.886 899 Q178.83 903.583 173.02 903.583 Q167.21 903.583 164.131 899 Q161.076 894.393 161.076 885.666 Q161.076 876.916 164.131 872.333 Q167.21 867.727 173.02 867.727 Z" fill="#000000" fill-rule="nonzero" fill-opacity="1" /><path clip-path="url(#clip190)" d="M103.506 609.935 L111.145 609.935 L111.145 583.569 L102.835 585.236 L102.835 580.977 L111.099 579.31 L115.775 579.31 L115.775 609.935 L123.414 609.935 L123.414 613.87 L103.506 613.87 L103.506 609.935 Z" fill="#000000" fill-rule="nonzero" fill-opacity="1" /><path clip-path="url(#clip190)" d="M136.886 609.935 L153.205 609.935 L153.205 613.87 L131.261 613.87 L131.261 609.935 Q133.923 607.18 138.506 602.551 Q143.113 597.898 144.293 596.555 Q146.539 594.032 147.418 592.296 Q148.321 590.537 148.321 588.847 Q148.321 586.092 146.377 584.356 Q144.455 582.62 141.353 582.62 Q139.154 582.62 136.701 583.384 Q134.27 584.148 131.492 585.699 L131.492 580.977 Q134.316 579.842 136.77 579.264 Q139.224 578.685 141.261 578.685 Q146.631 578.685 149.826 581.37 Q153.02 584.055 153.02 588.546 Q153.02 590.676 152.21 592.597 Q151.423 594.495 149.316 597.088 Q148.738 597.759 145.636 600.977 Q142.534 604.171 136.886 609.935 Z" fill="#000000" fill-rule="nonzero" fill-opacity="1" /><path clip-path="url(#clip190)" d="M173.02 582.389 Q169.409 582.389 167.58 585.954 Q165.775 589.495 165.775 596.625 Q165.775 603.731 167.58 607.296 Q169.409 610.838 173.02 610.838 Q176.654 610.838 178.46 607.296 Q180.288 603.731 180.288 596.625 Q180.288 589.495 178.46 585.954 Q176.654 582.389 173.02 582.389 M173.02 578.685 Q178.83 578.685 181.886 583.292 Q184.964 587.875 184.964 596.625 Q184.964 605.352 181.886 609.958 Q178.83 614.541 173.02 614.541 Q167.21 614.541 164.131 609.958 Q161.076 605.352 161.076 596.625 Q161.076 587.875 164.131 583.292 Q167.21 578.685 173.02 578.685 Z" fill="#000000" fill-rule="nonzero" fill-opacity="1" /><path clip-path="url(#clip190)" d="M103.506 320.893 L111.145 320.893 L111.145 294.528 L102.835 296.195 L102.835 291.935 L111.099 290.269 L115.775 290.269 L115.775 320.893 L123.414 320.893 L123.414 324.829 L103.506 324.829 L103.506 320.893 Z" fill="#000000" fill-rule="nonzero" fill-opacity="1" /><path clip-path="url(#clip190)" d="M132.904 290.269 L151.261 290.269 L151.261 294.204 L137.187 294.204 L137.187 302.676 Q138.205 302.329 139.224 302.167 Q140.242 301.982 141.261 301.982 Q147.048 301.982 150.427 305.153 Q153.807 308.324 153.807 313.741 Q153.807 319.319 150.335 322.421 Q146.863 325.5 140.543 325.5 Q138.367 325.5 136.099 325.13 Q133.854 324.759 131.446 324.018 L131.446 319.319 Q133.529 320.454 135.752 321.009 Q137.974 321.565 140.451 321.565 Q144.455 321.565 146.793 319.458 Q149.131 317.352 149.131 313.741 Q149.131 310.13 146.793 308.023 Q144.455 305.917 140.451 305.917 Q138.576 305.917 136.701 306.333 Q134.849 306.75 132.904 307.63 L132.904 290.269 Z" fill="#000000" fill-rule="nonzero" fill-opacity="1" /><path clip-path="url(#clip190)" d="M173.02 293.347 Q169.409 293.347 167.58 296.912 Q165.775 300.454 165.775 307.583 Q165.775 314.69 167.58 318.255 Q169.409 321.796 173.02 321.796 Q176.654 321.796 178.46 318.255 Q180.288 314.69 180.288 307.583 Q180.288 300.454 178.46 296.912 Q176.654 293.347 173.02 293.347 M173.02 289.644 Q178.83 289.644 181.886 294.25 Q184.964 298.833 184.964 307.583 Q184.964 316.31 181.886 320.917 Q178.83 325.5 173.02 325.5 Q167.21 325.5 164.131 320.917 Q161.076 316.31 161.076 307.583 Q161.076 298.833 164.131 294.25 Q167.21 289.644 173.02 289.644 Z" fill="#000000" fill-rule="nonzero" fill-opacity="1" /><path clip-path="url(#clip190)" d="M33.7997 956.481 L21.0364 956.481 L21.0364 966.985 L15.7529 966.985 L15.7529 950.116 L36.155 950.116 Q38.7968 953.839 40.1654 958.327 Q41.5022 962.815 41.5022 967.908 Q41.5022 979.048 35.0092 985.35 Q28.4843 991.62 16.8669 991.62 Q5.21766 991.62 -1.27536 985.35 Q-7.80021 979.048 -7.80021 967.908 Q-7.80021 963.261 -6.65439 959.091 Q-5.50856 954.89 -3.28056 951.357 L3.56257 951.357 Q0.538863 954.922 -0.988907 958.932 Q-2.51668 962.942 -2.51668 967.367 Q-2.51668 976.088 2.35309 980.48 Q7.22285 984.84 16.8669 984.84 Q26.4791 984.84 31.3489 980.48 Q36.2186 976.088 36.2186 967.367 Q36.2186 963.961 35.6457 961.287 Q35.041 958.614 33.7997 956.481 Z" fill="#000000" fill-rule="nonzero" fill-opacity="1" /><path clip-path="url(#clip190)" d="M-6.94084 942.604 L-6.94084 936.111 L33.2268 926.117 L-6.94084 916.154 L-6.94084 908.929 L33.2268 898.935 L-6.94084 888.973 L-6.94084 882.448 L40.5792 894.384 L40.5792 902.468 L-0.670621 912.494 L40.5792 922.616 L40.5792 930.7 L-6.94084 942.604 Z" fill="#000000" fill-rule="nonzero" fill-opacity="1" /><path clip-path="url(#clip190)" d="M553.186 21.67 L553.186 26.6006 Q550.825 24.4015 548.14 23.3135 Q545.478 22.2256 542.468 22.2256 Q536.543 22.2256 533.394 25.8598 Q530.246 29.4709 530.246 36.3227 Q530.246 43.1514 533.394 46.7856 Q536.543 50.3967 542.468 50.3967 Q545.478 50.3967 548.14 49.3088 Q550.825 48.2208 553.186 46.0217 L553.186 50.906 Q550.732 52.5726 547.978 53.406 Q545.246 54.2393 542.191 54.2393 Q534.344 54.2393 529.83 49.4477 Q525.316 44.6329 525.316 36.3227 Q525.316 27.9894 529.83 23.1978 Q534.344 18.383 542.191 18.383 Q545.293 18.383 548.024 19.2163 Q550.779 20.0265 553.186 21.67 Z" fill="#000000" fill-rule="nonzero" fill-opacity="1" /><path clip-path="url(#clip190)" d="M574.436 22.1793 Q569.343 22.1793 566.334 25.9756 Q563.348 29.7718 563.348 36.3227 Q563.348 42.8505 566.334 46.6467 Q569.343 50.443 574.436 50.443 Q579.528 50.443 582.491 46.6467 Q585.478 42.8505 585.478 36.3227 Q585.478 29.7718 582.491 25.9756 Q579.528 22.1793 574.436 22.1793 M574.436 18.383 Q581.704 18.383 586.056 23.2672 Q590.408 28.1283 590.408 36.3227 Q590.408 44.494 586.056 49.3782 Q581.704 54.2393 574.436 54.2393 Q567.144 54.2393 562.769 49.3782 Q558.417 44.5171 558.417 36.3227 Q558.417 28.1283 562.769 23.2672 Q567.144 18.383 574.436 18.383 Z" fill="#000000" fill-rule="nonzero" fill-opacity="1" /><path clip-path="url(#clip190)" d="M602.167 49.6328 L618.487 49.6328 L618.487 53.568 L596.542 53.568 L596.542 49.6328 Q599.204 46.8782 603.788 42.2486 Q608.394 37.5959 609.575 36.2533 Q611.82 33.7301 612.7 31.994 Q613.602 30.2348 613.602 28.545 Q613.602 25.7904 611.658 24.0543 Q609.737 22.3182 606.635 22.3182 Q604.436 22.3182 601.982 23.0821 Q599.552 23.8459 596.774 25.3969 L596.774 20.6747 Q599.598 19.5404 602.051 18.9617 Q604.505 18.383 606.542 18.383 Q611.913 18.383 615.107 21.0682 Q618.301 23.7533 618.301 28.2441 Q618.301 30.3737 617.491 32.295 Q616.704 34.1931 614.598 36.7857 Q614.019 37.457 610.917 40.6746 Q607.815 43.869 602.167 49.6328 Z" fill="#000000" fill-rule="nonzero" fill-opacity="1" /><path clip-path="url(#clip190)" d="M642.954 19.008 L649.922 19.008 L658.741 42.5264 L667.607 19.008 L674.574 19.008 L674.574 53.568 L670.014 53.568 L670.014 23.2209 L661.102 46.9245 L656.403 46.9245 L647.491 23.2209 L647.491 53.568 L642.954 53.568 L642.954 19.008 Z" fill="#000000" fill-rule="nonzero" fill-opacity="1" /><path clip-path="url(#clip190)" d="M695.454 40.5357 Q690.292 40.5357 688.301 41.7162 Q686.31 42.8968 686.31 45.744 Q686.31 48.0125 687.792 49.3551 Q689.296 50.6745 691.866 50.6745 Q695.407 50.6745 697.537 48.1745 Q699.69 45.6514 699.69 41.4847 L699.69 40.5357 L695.454 40.5357 M703.949 38.7764 L703.949 53.568 L699.69 53.568 L699.69 49.6328 Q698.232 51.9939 696.056 53.1282 Q693.88 54.2393 690.732 54.2393 Q686.75 54.2393 684.389 52.0171 Q682.051 49.7717 682.051 46.0217 Q682.051 41.6468 684.968 39.4246 Q687.908 37.2023 693.718 37.2023 L699.69 37.2023 L699.69 36.7857 Q699.69 33.8459 697.745 32.2487 Q695.824 30.6283 692.329 30.6283 Q690.107 30.6283 688 31.1607 Q685.894 31.6931 683.949 32.7579 L683.949 28.8228 Q686.287 27.92 688.486 27.4802 Q690.685 27.0172 692.769 27.0172 Q698.394 27.0172 701.171 29.9339 Q703.949 32.8505 703.949 38.7764 Z" fill="#000000" fill-rule="nonzero" fill-opacity="1" /><path clip-path="url(#clip190)" d="M729.25 28.4061 L729.25 32.4339 Q727.444 31.5079 725.5 31.045 Q723.555 30.582 721.472 30.582 Q718.301 30.582 716.704 31.5542 Q715.13 32.5264 715.13 34.4709 Q715.13 35.9524 716.264 36.8088 Q717.398 37.6422 720.824 38.406 L722.282 38.7301 Q726.819 39.7023 728.717 41.4847 Q730.639 43.244 730.639 46.4153 Q730.639 50.0264 727.768 52.1328 Q724.921 54.2393 719.921 54.2393 Q717.838 54.2393 715.569 53.8226 Q713.324 53.4291 710.824 52.6189 L710.824 48.2208 Q713.185 49.4477 715.477 50.0726 Q717.768 50.6745 720.014 50.6745 Q723.023 50.6745 724.643 49.656 Q726.264 48.6143 726.264 46.7393 Q726.264 45.0032 725.083 44.0773 Q723.926 43.1514 719.968 42.2949 L718.486 41.9477 Q714.528 41.1144 712.768 39.4014 Q711.009 37.6653 711.009 34.6561 Q711.009 30.9987 713.602 29.0079 Q716.194 27.0172 720.963 27.0172 Q723.324 27.0172 725.407 27.3644 Q727.491 27.7117 729.25 28.4061 Z" fill="#000000" fill-rule="nonzero" fill-opacity="1" /><path clip-path="url(#clip190)" d="M753.949 28.4061 L753.949 32.4339 Q752.143 31.5079 750.199 31.045 Q748.254 30.582 746.171 30.582 Q743 30.582 741.403 31.5542 Q739.829 32.5264 739.829 34.4709 Q739.829 35.9524 740.963 36.8088 Q742.097 37.6422 745.523 38.406 L746.981 38.7301 Q751.518 39.7023 753.416 41.4847 Q755.338 43.244 755.338 46.4153 Q755.338 50.0264 752.467 52.1328 Q749.62 54.2393 744.62 54.2393 Q742.537 54.2393 740.268 53.8226 Q738.023 53.4291 735.523 52.6189 L735.523 48.2208 Q737.884 49.4477 740.176 50.0726 Q742.467 50.6745 744.713 50.6745 Q747.722 50.6745 749.342 49.656 Q750.963 48.6143 750.963 46.7393 Q750.963 45.0032 749.782 44.0773 Q748.625 43.1514 744.666 42.2949 L743.185 41.9477 Q739.227 41.1144 737.467 39.4014 Q735.708 37.6653 735.708 34.6561 Q735.708 30.9987 738.301 29.0079 Q740.893 27.0172 745.662 27.0172 Q748.023 27.0172 750.106 27.3644 Q752.19 27.7117 753.949 28.4061 Z" fill="#000000" fill-rule="nonzero" fill-opacity="1" /><path clip-path="url(#clip190)" d="M803.254 21.67 L803.254 26.6006 Q800.893 24.4015 798.208 23.3135 Q795.546 22.2256 792.537 22.2256 Q786.611 22.2256 783.463 25.8598 Q780.314 29.4709 780.314 36.3227 Q780.314 43.1514 783.463 46.7856 Q786.611 50.3967 792.537 50.3967 Q795.546 50.3967 798.208 49.3088 Q800.893 48.2208 803.254 46.0217 L803.254 50.906 Q800.8 52.5726 798.046 53.406 Q795.314 54.2393 792.259 54.2393 Q784.412 54.2393 779.898 49.4477 Q775.384 44.6329 775.384 36.3227 Q775.384 27.9894 779.898 23.1978 Q784.412 18.383 792.259 18.383 Q795.361 18.383 798.092 19.2163 Q800.847 20.0265 803.254 21.67 Z" fill="#000000" fill-rule="nonzero" fill-opacity="1" /><path clip-path="url(#clip190)" d="M822.073 40.5357 Q816.911 40.5357 814.921 41.7162 Q812.93 42.8968 812.93 45.744 Q812.93 48.0125 814.411 49.3551 Q815.916 50.6745 818.486 50.6745 Q822.027 50.6745 824.157 48.1745 Q826.31 45.6514 826.31 41.4847 L826.31 40.5357 L822.073 40.5357 M830.569 38.7764 L830.569 53.568 L826.31 53.568 L826.31 49.6328 Q824.851 51.9939 822.675 53.1282 Q820.499 54.2393 817.351 54.2393 Q813.37 54.2393 811.009 52.0171 Q808.671 49.7717 808.671 46.0217 Q808.671 41.6468 811.587 39.4246 Q814.527 37.2023 820.337 37.2023 L826.31 37.2023 L826.31 36.7857 Q826.31 33.8459 824.365 32.2487 Q822.444 30.6283 818.948 30.6283 Q816.726 30.6283 814.62 31.1607 Q812.513 31.6931 810.569 32.7579 L810.569 28.8228 Q812.907 27.92 815.106 27.4802 Q817.305 27.0172 819.388 27.0172 Q825.013 27.0172 827.791 29.9339 Q830.569 32.8505 830.569 38.7764 Z" fill="#000000" fill-rule="nonzero" fill-opacity="1" /><path clip-path="url(#clip190)" d="M843.462 49.6791 L843.462 63.4291 L839.18 63.4291 L839.18 27.6422 L843.462 27.6422 L843.462 31.5774 Q844.805 29.2626 846.842 28.1515 Q848.902 27.0172 851.749 27.0172 Q856.471 27.0172 859.411 30.7672 Q862.374 34.5172 862.374 40.6283 Q862.374 46.7393 859.411 50.4893 Q856.471 54.2393 851.749 54.2393 Q848.902 54.2393 846.842 53.1282 Q844.805 51.9939 843.462 49.6791 M857.953 40.6283 Q857.953 35.9292 856.008 33.2672 Q854.087 30.582 850.708 30.582 Q847.328 30.582 845.384 33.2672 Q843.462 35.9292 843.462 40.6283 Q843.462 45.3273 845.384 48.0125 Q847.328 50.6745 850.708 50.6745 Q854.087 50.6745 856.008 48.0125 Q857.953 45.3273 857.953 40.6283 Z" fill="#000000" fill-rule="nonzero" fill-opacity="1" /><path clip-path="url(#clip190)" d="M870.522 47.6884 L875.407 47.6884 L875.407 51.6699 L871.61 59.0772 L868.624 59.0772 L870.522 51.6699 L870.522 47.6884 Z" fill="#000000" fill-rule="nonzero" fill-opacity="1" /><path clip-path="url(#clip190)" d="M897.768 19.008 L924.92 19.008 L924.92 22.5728 L903.068 49.6328 L925.453 49.6328 L925.453 53.568 L897.235 53.568 L897.235 50.0032 L919.087 22.9432 L897.768 22.9432 L897.768 19.008 Z" fill="#000000" fill-rule="nonzero" fill-opacity="1" /><path clip-path="url(#clip190)" d="M954.226 39.5403 L954.226 41.6236 L934.642 41.6236 Q934.92 46.0217 937.281 48.3365 Q939.665 50.6282 943.902 50.6282 Q946.355 50.6282 948.647 50.0264 Q950.962 49.4245 953.23 48.2208 L953.23 52.2486 Q950.939 53.2208 948.531 53.73 Q946.124 54.2393 943.647 54.2393 Q937.443 54.2393 933.809 50.6282 Q930.198 47.0171 930.198 40.8597 Q930.198 34.494 933.624 30.7672 Q937.073 27.0172 942.906 27.0172 Q948.138 27.0172 951.17 30.3968 Q954.226 33.7533 954.226 39.5403 M949.966 38.2903 Q949.92 34.795 947.999 32.7116 Q946.101 30.6283 942.952 30.6283 Q939.388 30.6283 937.235 32.6422 Q935.105 34.6561 934.781 38.3135 L949.966 38.2903 Z" fill="#000000" fill-rule="nonzero" fill-opacity="1" /><path clip-path="url(#clip190)" d="M976.239 31.6237 Q975.522 31.207 974.665 31.0218 Q973.832 30.8135 972.813 30.8135 Q969.202 30.8135 967.258 33.1746 Q965.337 35.5125 965.337 39.9107 L965.337 53.568 L961.054 53.568 L961.054 27.6422 L965.337 27.6422 L965.337 31.67 Q966.679 29.3089 968.832 28.1746 Q970.985 27.0172 974.063 27.0172 Q974.503 27.0172 975.036 27.0867 Q975.568 27.133 976.216 27.2487 L976.239 31.6237 Z" fill="#000000" fill-rule="nonzero" fill-opacity="1" /><path clip-path="url(#clip190)" d="M989.711 30.6283 Q986.286 30.6283 984.295 33.3135 Q982.304 35.9755 982.304 40.6283 Q982.304 45.281 984.272 47.9662 Q986.262 50.6282 989.711 50.6282 Q993.114 50.6282 995.105 47.943 Q997.096 45.2579 997.096 40.6283 Q997.096 36.0218 995.105 33.3366 Q993.114 30.6283 989.711 30.6283 M989.711 27.0172 Q995.267 27.0172 998.438 30.6283 Q1001.61 34.2394 1001.61 40.6283 Q1001.61 46.994 998.438 50.6282 Q995.267 54.2393 989.711 54.2393 Q984.133 54.2393 980.962 50.6282 Q977.813 46.994 977.813 40.6283 Q977.813 34.2394 980.962 30.6283 Q984.133 27.0172 989.711 27.0172 Z" fill="#000000" fill-rule="nonzero" fill-opacity="1" /><path clip-path="url(#clip190)" d="M1019.13 19.008 L1048.37 19.008 L1048.37 22.9432 L1036.1 22.9432 L1036.1 53.568 L1031.4 53.568 L1031.4 22.9432 L1019.13 22.9432 L1019.13 19.008 Z" fill="#000000" fill-rule="nonzero" fill-opacity="1" /><path clip-path="url(#clip190)" d="M1054.69 30.6283 Q1051.26 30.6283 1049.27 33.3135 Q1047.28 35.9755 1047.28 40.6283 Q1047.28 45.281 1049.25 47.9662 Q1051.24 50.6282 1054.69 50.6282 Q1058.09 50.6282 1060.08 47.943 Q1062.07 45.2579 1062.07 40.6283 Q1062.07 36.0218 1060.08 33.3366 Q1058.09 30.6283 1054.69 30.6283 M1054.69 27.0172 Q1060.24 27.0172 1063.41 30.6283 Q1066.59 34.2394 1066.59 40.6283 Q1066.59 46.994 1063.41 50.6282 Q1060.24 54.2393 1054.69 54.2393 Q1049.11 54.2393 1045.94 50.6282 Q1042.79 46.994 1042.79 40.6283 Q1042.79 34.2394 1045.94 30.6283 Q1049.11 27.0172 1054.69 27.0172 Z" fill="#000000" fill-rule="nonzero" fill-opacity="1" /><path clip-path="url(#clip190)" d="M1073.65 17.5497 L1077.91 17.5497 L1077.91 53.568 L1073.65 53.568 L1073.65 17.5497 Z" fill="#000000" fill-rule="nonzero" fill-opacity="1" /><path clip-path="url(#clip190)" d="M1108.99 39.5403 L1108.99 41.6236 L1089.41 41.6236 Q1089.69 46.0217 1092.05 48.3365 Q1094.43 50.6282 1098.67 50.6282 Q1101.12 50.6282 1103.41 50.0264 Q1105.73 49.4245 1108 48.2208 L1108 52.2486 Q1105.71 53.2208 1103.3 53.73 Q1100.89 54.2393 1098.41 54.2393 Q1092.21 54.2393 1088.58 50.6282 Q1084.97 47.0171 1084.97 40.8597 Q1084.97 34.494 1088.39 30.7672 Q1091.84 27.0172 1097.67 27.0172 Q1102.91 27.0172 1105.94 30.3968 Q1108.99 33.7533 1108.99 39.5403 M1104.73 38.2903 Q1104.69 34.795 1102.77 32.7116 Q1100.87 30.6283 1097.72 30.6283 Q1094.16 30.6283 1092 32.6422 Q1089.87 34.6561 1089.55 38.3135 L1104.73 38.2903 Z" fill="#000000" fill-rule="nonzero" fill-opacity="1" /><path clip-path="url(#clip190)" d="M1131.01 31.6237 Q1130.29 31.207 1129.43 31.0218 Q1128.6 30.8135 1127.58 30.8135 Q1123.97 30.8135 1122.03 33.1746 Q1120.1 35.5125 1120.1 39.9107 L1120.1 53.568 L1115.82 53.568 L1115.82 27.6422 L1120.1 27.6422 L1120.1 31.67 Q1121.45 29.3089 1123.6 28.1746 Q1125.75 27.0172 1128.83 27.0172 Q1129.27 27.0172 1129.8 27.0867 Q1130.34 27.133 1130.98 27.2487 L1131.01 31.6237 Z" fill="#000000" fill-rule="nonzero" fill-opacity="1" /><path clip-path="url(#clip190)" d="M1147.26 40.5357 Q1142.09 40.5357 1140.1 41.7162 Q1138.11 42.8968 1138.11 45.744 Q1138.11 48.0125 1139.59 49.3551 Q1141.1 50.6745 1143.67 50.6745 Q1147.21 50.6745 1149.34 48.1745 Q1151.49 45.6514 1151.49 41.4847 L1151.49 40.5357 L1147.26 40.5357 M1155.75 38.7764 L1155.75 53.568 L1151.49 53.568 L1151.49 49.6328 Q1150.03 51.9939 1147.86 53.1282 Q1145.68 54.2393 1142.53 54.2393 Q1138.55 54.2393 1136.19 52.0171 Q1133.85 49.7717 1133.85 46.0217 Q1133.85 41.6468 1136.77 39.4246 Q1139.71 37.2023 1145.52 37.2023 L1151.49 37.2023 L1151.49 36.7857 Q1151.49 33.8459 1149.55 32.2487 Q1147.63 30.6283 1144.13 30.6283 Q1141.91 30.6283 1139.8 31.1607 Q1137.7 31.6931 1135.75 32.7579 L1135.75 28.8228 Q1138.09 27.92 1140.29 27.4802 Q1142.49 27.0172 1144.57 27.0172 Q1150.2 27.0172 1152.97 29.9339 Q1155.75 32.8505 1155.75 38.7764 Z" fill="#000000" fill-rule="nonzero" fill-opacity="1" /><path clip-path="url(#clip190)" d="M1186.08 37.9199 L1186.08 53.568 L1181.82 53.568 L1181.82 38.0588 Q1181.82 34.3783 1180.38 32.5496 Q1178.95 30.7209 1176.08 30.7209 Q1172.63 30.7209 1170.64 32.92 Q1168.65 35.119 1168.65 38.9153 L1168.65 53.568 L1164.36 53.568 L1164.36 27.6422 L1168.65 27.6422 L1168.65 31.67 Q1170.17 29.332 1172.23 28.1746 Q1174.32 27.0172 1177.03 27.0172 Q1181.49 27.0172 1183.78 29.795 Q1186.08 32.5496 1186.08 37.9199 Z" fill="#000000" fill-rule="nonzero" fill-opacity="1" /><path clip-path="url(#clip190)" d="M1213.23 28.6376 L1213.23 32.619 Q1211.42 31.6237 1209.59 31.1376 Q1207.79 30.6283 1205.94 30.6283 Q1201.79 30.6283 1199.5 33.2672 Q1197.21 35.8829 1197.21 40.6283 Q1197.21 45.3736 1199.5 48.0125 Q1201.79 50.6282 1205.94 50.6282 Q1207.79 50.6282 1209.59 50.1421 Q1211.42 49.6328 1213.23 48.6375 L1213.23 52.5726 Q1211.45 53.406 1209.53 53.8226 Q1207.63 54.2393 1205.47 54.2393 Q1199.62 54.2393 1196.17 50.5588 Q1192.72 46.8782 1192.72 40.6283 Q1192.72 34.2857 1196.19 30.6515 Q1199.69 27.0172 1205.75 27.0172 Q1207.72 27.0172 1209.59 27.4339 Q1211.47 27.8274 1213.23 28.6376 Z" fill="#000000" fill-rule="nonzero" fill-opacity="1" /><path clip-path="url(#clip190)" d="M1242.81 39.5403 L1242.81 41.6236 L1223.23 41.6236 Q1223.51 46.0217 1225.87 48.3365 Q1228.25 50.6282 1232.49 50.6282 Q1234.94 50.6282 1237.23 50.0264 Q1239.55 49.4245 1241.82 48.2208 L1241.82 52.2486 Q1239.52 53.2208 1237.12 53.73 Q1234.71 54.2393 1232.23 54.2393 Q1226.03 54.2393 1222.4 50.6282 Q1218.78 47.0171 1218.78 40.8597 Q1218.78 34.494 1222.21 30.7672 Q1225.66 27.0172 1231.49 27.0172 Q1236.72 27.0172 1239.76 30.3968 Q1242.81 33.7533 1242.81 39.5403 M1238.55 38.2903 Q1238.51 34.795 1236.59 32.7116 Q1234.69 30.6283 1231.54 30.6283 Q1227.97 30.6283 1225.82 32.6422 Q1223.69 34.6561 1223.37 38.3135 L1238.55 38.2903 Z" fill="#000000" fill-rule="nonzero" fill-opacity="1" /><path clip-path="url(#clip190)" d="M648.151 74.0193 Q643.058 74.0193 640.049 77.8156 Q637.063 81.6118 637.063 88.1627 Q637.063 94.6905 640.049 98.4867 Q643.058 102.283 648.151 102.283 Q653.243 102.283 656.206 98.4867 Q659.192 94.6905 659.192 88.1627 Q659.192 81.6118 656.206 77.8156 Q653.243 74.0193 648.151 74.0193 M648.151 70.223 Q655.419 70.223 659.771 75.1072 Q664.123 79.9683 664.123 88.1627 Q664.123 96.334 659.771 101.218 Q655.419 106.079 648.151 106.079 Q640.859 106.079 636.484 101.218 Q632.132 96.3571 632.132 88.1627 Q632.132 79.9683 636.484 75.1072 Q640.859 70.223 648.151 70.223 Z" fill="#000000" fill-rule="nonzero" fill-opacity="1" /><path clip-path="url(#clip190)" d="M689.864 92.4683 Q689.864 87.7692 687.919 85.1072 Q685.998 82.422 682.618 82.422 Q679.239 82.422 677.294 85.1072 Q675.373 87.7692 675.373 92.4683 Q675.373 97.1673 677.294 99.8525 Q679.239 102.514 682.618 102.514 Q685.998 102.514 687.919 99.8525 Q689.864 97.1673 689.864 92.4683 M675.373 83.4174 Q676.715 81.1026 678.752 79.9915 Q680.813 78.8572 683.66 78.8572 Q688.382 78.8572 691.322 82.6072 Q694.285 86.3572 694.285 92.4683 Q694.285 98.5793 691.322 102.329 Q688.382 106.079 683.66 106.079 Q680.813 106.079 678.752 104.968 Q676.715 103.834 675.373 101.519 L675.373 105.408 L671.09 105.408 L671.09 69.3897 L675.373 69.3897 L675.373 83.4174 Z" fill="#000000" fill-rule="nonzero" fill-opacity="1" /><path clip-path="url(#clip190)" d="M701.345 79.4822 L705.604 79.4822 L705.604 105.871 Q705.604 110.825 703.706 113.047 Q701.831 115.269 697.641 115.269 L696.021 115.269 L696.021 111.658 L697.155 111.658 Q699.586 111.658 700.465 110.524 Q701.345 109.413 701.345 105.871 L701.345 79.4822 M701.345 69.3897 L705.604 69.3897 L705.604 74.7832 L701.345 74.7832 L701.345 69.3897 Z" fill="#000000" fill-rule="nonzero" fill-opacity="1" /><path clip-path="url(#clip190)" d="M738.683 105.408 L725.488 70.848 L730.373 70.848 L741.322 99.9451 L752.294 70.848 L757.155 70.848 L743.984 105.408 L738.683 105.408 Z" fill="#000000" fill-rule="nonzero" fill-opacity="1" /><path clip-path="url(#clip190)" d="M770.118 92.3757 Q764.956 92.3757 762.965 93.5562 Q760.974 94.7368 760.974 97.584 Q760.974 99.8525 762.456 101.195 Q763.96 102.514 766.53 102.514 Q770.071 102.514 772.201 100.015 Q774.354 97.4914 774.354 93.3247 L774.354 92.3757 L770.118 92.3757 M778.613 90.6164 L778.613 105.408 L774.354 105.408 L774.354 101.473 Q772.895 103.834 770.72 104.968 Q768.544 106.079 765.396 106.079 Q761.414 106.079 759.053 103.857 Q756.715 101.612 756.715 97.8617 Q756.715 93.4868 759.632 91.2646 Q762.571 89.0423 768.382 89.0423 L774.354 89.0423 L774.354 88.6257 Q774.354 85.6859 772.409 84.0887 Q770.488 82.4683 766.993 82.4683 Q764.771 82.4683 762.664 83.0007 Q760.558 83.5331 758.613 84.5979 L758.613 80.6628 Q760.951 79.76 763.15 79.3202 Q765.349 78.8572 767.433 78.8572 Q773.058 78.8572 775.835 81.7739 Q778.613 84.6905 778.613 90.6164 Z" fill="#000000" fill-rule="nonzero" fill-opacity="1" /><path clip-path="url(#clip190)" d="M787.386 69.3897 L791.645 69.3897 L791.645 105.408 L787.386 105.408 L787.386 69.3897 Z" fill="#000000" fill-rule="nonzero" fill-opacity="1" /><path clip-path="url(#clip190)" d="M801.645 99.5284 L806.53 99.5284 L806.53 105.408 L801.645 105.408 L801.645 99.5284 M801.645 80.8942 L806.53 80.8942 L806.53 86.7738 L801.645 86.7738 L801.645 80.8942 Z" fill="#000000" fill-rule="nonzero" fill-opacity="1" /><path clip-path="url(#clip190)" d="M836.228 101.473 L852.548 101.473 L852.548 105.408 L830.604 105.408 L830.604 101.473 Q833.266 98.7182 837.849 94.0886 Q842.455 89.4359 843.636 88.0933 Q845.881 85.5701 846.761 83.834 Q847.664 82.0748 847.664 80.385 Q847.664 77.6304 845.719 75.8943 Q843.798 74.1582 840.696 74.1582 Q838.497 74.1582 836.043 74.9221 Q833.613 75.6859 830.835 77.2369 L830.835 72.5147 Q833.659 71.3804 836.113 70.8017 Q838.566 70.223 840.603 70.223 Q845.974 70.223 849.168 72.9082 Q852.363 75.5933 852.363 80.0841 Q852.363 82.2137 851.552 84.135 Q850.765 86.0331 848.659 88.6257 Q848.08 89.297 844.978 92.5146 Q841.877 95.709 836.228 101.473 Z" fill="#000000" fill-rule="nonzero" fill-opacity="1" /><path clip-path="url(#clip190)" d="M876.529 86.7738 Q879.886 87.4914 881.761 89.7599 Q883.659 92.0284 883.659 95.3618 Q883.659 100.477 880.14 103.278 Q876.622 106.079 870.14 106.079 Q867.964 106.079 865.65 105.639 Q863.358 105.223 860.904 104.366 L860.904 99.8525 Q862.849 100.987 865.164 101.565 Q867.478 102.144 870.001 102.144 Q874.4 102.144 876.691 100.408 Q879.006 98.6719 879.006 95.3618 Q879.006 92.3062 876.853 90.5933 Q874.724 88.8572 870.904 88.8572 L866.876 88.8572 L866.876 85.0146 L871.089 85.0146 Q874.538 85.0146 876.367 83.6489 Q878.196 82.26 878.196 79.6674 Q878.196 77.0054 876.298 75.5933 Q874.423 74.1582 870.904 74.1582 Q868.983 74.1582 866.784 74.5748 Q864.585 74.9915 861.946 75.8711 L861.946 71.7045 Q864.608 70.9637 866.923 70.5934 Q869.261 70.223 871.321 70.223 Q876.645 70.223 879.747 72.6535 Q882.849 75.0609 882.849 79.1813 Q882.849 82.0516 881.205 84.0424 Q879.562 86.01 876.529 86.7738 Z" fill="#000000" fill-rule="nonzero" fill-opacity="1" /><path clip-path="url(#clip190)" d="M892.663 104.69 L892.663 100.431 Q894.423 101.265 896.228 101.704 Q898.034 102.144 899.77 102.144 Q904.399 102.144 906.83 99.0423 Q909.284 95.9173 909.631 89.5748 Q908.288 91.5655 906.228 92.6303 Q904.168 93.6951 901.668 93.6951 Q896.483 93.6951 893.45 90.5701 Q890.441 87.422 890.441 81.9822 Q890.441 76.6582 893.589 73.4406 Q896.737 70.223 901.969 70.223 Q907.964 70.223 911.112 74.8295 Q914.284 79.4128 914.284 88.1627 Q914.284 96.334 910.395 101.218 Q906.529 106.079 899.978 106.079 Q898.219 106.079 896.413 105.732 Q894.608 105.385 892.663 104.69 M901.969 90.0377 Q905.117 90.0377 906.946 87.8849 Q908.798 85.7322 908.798 81.9822 Q908.798 78.2554 906.946 76.1026 Q905.117 73.9267 901.969 73.9267 Q898.821 73.9267 896.969 76.1026 Q895.14 78.2554 895.14 81.9822 Q895.14 85.7322 896.969 87.8849 Q898.821 90.0377 901.969 90.0377 Z" fill="#000000" fill-rule="nonzero" fill-opacity="1" /><path clip-path="url(#clip190)" d="M932.686 73.9267 Q929.075 73.9267 927.247 77.4915 Q925.441 81.0331 925.441 88.1627 Q925.441 95.2692 927.247 98.834 Q929.075 102.376 932.686 102.376 Q936.321 102.376 938.126 98.834 Q939.955 95.2692 939.955 88.1627 Q939.955 81.0331 938.126 77.4915 Q936.321 73.9267 932.686 73.9267 M932.686 70.223 Q938.496 70.223 941.552 74.8295 Q944.631 79.4128 944.631 88.1627 Q944.631 96.8895 941.552 101.496 Q938.496 106.079 932.686 106.079 Q926.876 106.079 923.797 101.496 Q920.742 96.8895 920.742 88.1627 Q920.742 79.4128 923.797 74.8295 Q926.876 70.223 932.686 70.223 Z" fill="#000000" fill-rule="nonzero" fill-opacity="1" /><path clip-path="url(#clip190)" d="M967.015 86.7738 Q970.371 87.4914 972.246 89.7599 Q974.144 92.0284 974.144 95.3618 Q974.144 100.477 970.626 103.278 Q967.107 106.079 960.626 106.079 Q958.45 106.079 956.135 105.639 Q953.844 105.223 951.39 104.366 L951.39 99.8525 Q953.334 100.987 955.649 101.565 Q957.964 102.144 960.487 102.144 Q964.885 102.144 967.177 100.408 Q969.492 98.6719 969.492 95.3618 Q969.492 92.3062 967.339 90.5933 Q965.209 88.8572 961.39 88.8572 L957.362 88.8572 L957.362 85.0146 L961.575 85.0146 Q965.024 85.0146 966.853 83.6489 Q968.681 82.26 968.681 79.6674 Q968.681 77.0054 966.783 75.5933 Q964.908 74.1582 961.39 74.1582 Q959.469 74.1582 957.27 74.5748 Q955.07 74.9915 952.432 75.8711 L952.432 71.7045 Q955.094 70.9637 957.408 70.5934 Q959.746 70.223 961.807 70.223 Q967.131 70.223 970.232 72.6535 Q973.334 75.0609 973.334 79.1813 Q973.334 82.0516 971.691 84.0424 Q970.047 86.01 967.015 86.7738 Z" fill="#000000" fill-rule="nonzero" fill-opacity="1" /><path clip-path="url(#clip190)" d="M983.01 99.5284 L987.894 99.5284 L987.894 105.408 L983.01 105.408 L983.01 99.5284 Z" fill="#000000" fill-rule="nonzero" fill-opacity="1" /><path clip-path="url(#clip190)" d="M996.899 70.848 L1019.12 70.848 L1019.12 72.8387 L1006.57 105.408 L1001.69 105.408 L1013.5 74.7832 L996.899 74.7832 L996.899 70.848 Z" fill="#000000" fill-rule="nonzero" fill-opacity="1" /><path clip-path="url(#clip190)" d="M1042.41 86.7738 Q1045.76 87.4914 1047.64 89.7599 Q1049.54 92.0284 1049.54 95.3618 Q1049.54 100.477 1046.02 103.278 Q1042.5 106.079 1036.02 106.079 Q1033.84 106.079 1031.53 105.639 Q1029.24 105.223 1026.78 104.366 L1026.78 99.8525 Q1028.73 100.987 1031.04 101.565 Q1033.36 102.144 1035.88 102.144 Q1040.28 102.144 1042.57 100.408 Q1044.88 98.6719 1044.88 95.3618 Q1044.88 92.3062 1042.73 90.5933 Q1040.6 88.8572 1036.78 88.8572 L1032.76 88.8572 L1032.76 85.0146 L1036.97 85.0146 Q1040.42 85.0146 1042.25 83.6489 Q1044.07 82.26 1044.07 79.6674 Q1044.07 77.0054 1042.18 75.5933 Q1040.3 74.1582 1036.78 74.1582 Q1034.86 74.1582 1032.66 74.5748 Q1030.46 74.9915 1027.82 75.8711 L1027.82 71.7045 Q1030.49 70.9637 1032.8 70.5934 Q1035.14 70.223 1037.2 70.223 Q1042.52 70.223 1045.63 72.6535 Q1048.73 75.0609 1048.73 79.1813 Q1048.73 82.0516 1047.08 84.0424 Q1045.44 86.01 1042.41 86.7738 Z" fill="#000000" fill-rule="nonzero" fill-opacity="1" /><path clip-path="url(#clip190)" d="M1058.54 104.69 L1058.54 100.431 Q1060.3 101.265 1062.11 101.704 Q1063.91 102.144 1065.65 102.144 Q1070.28 102.144 1072.71 99.0423 Q1075.16 95.9173 1075.51 89.5748 Q1074.17 91.5655 1072.11 92.6303 Q1070.05 93.6951 1067.55 93.6951 Q1062.36 93.6951 1059.33 90.5701 Q1056.32 87.422 1056.32 81.9822 Q1056.32 76.6582 1059.47 73.4406 Q1062.62 70.223 1067.85 70.223 Q1073.84 70.223 1076.99 74.8295 Q1080.16 79.4128 1080.16 88.1627 Q1080.16 96.334 1076.27 101.218 Q1072.41 106.079 1065.86 106.079 Q1064.1 106.079 1062.29 105.732 Q1060.49 105.385 1058.54 104.69 M1067.85 90.0377 Q1071 90.0377 1072.82 87.8849 Q1074.68 85.7322 1074.68 81.9822 Q1074.68 78.2554 1072.82 76.1026 Q1071 73.9267 1067.85 73.9267 Q1064.7 73.9267 1062.85 76.1026 Q1061.02 78.2554 1061.02 81.9822 Q1061.02 85.7322 1062.85 87.8849 Q1064.7 90.0377 1067.85 90.0377 Z" fill="#000000" fill-rule="nonzero" fill-opacity="1" /><path clip-path="url(#clip190)" d="M1102.73 86.7738 Q1106.09 87.4914 1107.96 89.7599 Q1109.86 92.0284 1109.86 95.3618 Q1109.86 100.477 1106.34 103.278 Q1102.82 106.079 1096.34 106.079 Q1094.17 106.079 1091.85 105.639 Q1089.56 105.223 1087.11 104.366 L1087.11 99.8525 Q1089.05 100.987 1091.37 101.565 Q1093.68 102.144 1096.2 102.144 Q1100.6 102.144 1102.89 100.408 Q1105.21 98.6719 1105.21 95.3618 Q1105.21 92.3062 1103.06 90.5933 Q1100.93 88.8572 1097.11 88.8572 L1093.08 88.8572 L1093.08 85.0146 L1097.29 85.0146 Q1100.74 85.0146 1102.57 83.6489 Q1104.4 82.26 1104.4 79.6674 Q1104.4 77.0054 1102.5 75.5933 Q1100.63 74.1582 1097.11 74.1582 Q1095.19 74.1582 1092.99 74.5748 Q1090.79 74.9915 1088.15 75.8711 L1088.15 71.7045 Q1090.81 70.9637 1093.13 70.5934 Q1095.46 70.223 1097.52 70.223 Q1102.85 70.223 1105.95 72.6535 Q1109.05 75.0609 1109.05 79.1813 Q1109.05 82.0516 1107.41 84.0424 Q1105.76 86.01 1102.73 86.7738 Z" fill="#000000" fill-rule="nonzero" fill-opacity="1" /><path clip-path="url(#clip190)" d="M1122.75 101.473 L1139.07 101.473 L1139.07 105.408 L1117.13 105.408 L1117.13 101.473 Q1119.79 98.7182 1124.38 94.0886 Q1128.98 89.4359 1130.16 88.0933 Q1132.41 85.5701 1133.29 83.834 Q1134.19 82.0748 1134.19 80.385 Q1134.19 77.6304 1132.25 75.8943 Q1130.32 74.1582 1127.22 74.1582 Q1125.02 74.1582 1122.57 74.9221 Q1120.14 75.6859 1117.36 77.2369 L1117.36 72.5147 Q1120.19 71.3804 1122.64 70.8017 Q1125.09 70.223 1127.13 70.223 Q1132.5 70.223 1135.69 72.9082 Q1138.89 75.5933 1138.89 80.0841 Q1138.89 82.2137 1138.08 84.135 Q1137.29 86.0331 1135.19 88.6257 Q1134.61 89.297 1131.5 92.5146 Q1128.4 95.709 1122.75 101.473 Z" fill="#000000" fill-rule="nonzero" fill-opacity="1" /><path clip-path="url(#clip190)" d="M1161.74 74.9221 L1149.93 93.371 L1161.74 93.371 L1161.74 74.9221 M1160.51 70.848 L1166.39 70.848 L1166.39 93.371 L1171.32 93.371 L1171.32 97.2599 L1166.39 97.2599 L1166.39 105.408 L1161.74 105.408 L1161.74 97.2599 L1146.13 97.2599 L1146.13 92.746 L1160.51 70.848 Z" fill="#000000" fill-rule="nonzero" fill-opacity="1" /><path clip-path="url(#clip192)" d="M305.555 121.312 L305.555 121.312 L1480.17 121.312 L1480.17 121.312 L305.555 121.312 L305.555 121.312  Z" fill="#c0c0c0" fill-rule="evenodd" fill-opacity="1"/>
<polyline clip-path="url(#clip192)" style="stroke:#000000; stroke-linecap:round; stroke-linejoin:round; stroke-width:4; stroke-opacity:1; fill:none" points="305.555,121.312 305.555,121.312 1480.17,121.312 305.555,121.312 "/>
<circle clip-path="url(#clip192)" style="fill:#c0c0c0; stroke:none; fill-opacity:0" cx="892.86" cy="121.312" r="2"/>
<path clip-path="url(#clip192)" d="M305.555 121.312 L305.555 1239.97 L1480.17 1239.97 L1480.17 121.312 L305.555 121.312 L305.555 121.312  Z" fill="#ffff00" fill-rule="evenodd" fill-opacity="1"/>
<polyline clip-path="url(#clip192)" style="stroke:#000000; stroke-linecap:round; stroke-linejoin:round; stroke-width:4; stroke-opacity:1; fill:none" points="305.555,121.312 305.555,1239.97 1480.17,1239.97 1480.17,121.312 305.555,121.312 "/>
<circle clip-path="url(#clip192)" style="fill:#ffff00; stroke:none; fill-opacity:0" cx="892.86" cy="121.312" r="2"/>
<path clip-path="url(#clip192)" d="M305.555 1239.97 L305.555 1293.47 L1480.17 1293.47 L1480.17 1239.97 L305.555 1239.97 L305.555 1239.97  Z" fill="#00bfff" fill-rule="evenodd" fill-opacity="1"/>
<polyline clip-path="url(#clip192)" style="stroke:#000000; stroke-linecap:round; stroke-linejoin:round; stroke-width:4; stroke-opacity:1; fill:none" points="305.555,1239.97 305.555,1293.47 1480.17,1293.47 1480.17,1239.97 305.555,1239.97 "/>
<circle clip-path="url(#clip192)" style="fill:#00bfff; stroke:none; fill-opacity:0" cx="892.86" cy="1239.97" r="2"/>
<path clip-path="url(#clip192)" d="M305.555 1293.47 L305.555 1752.76 L1480.17 1752.76 L1480.17 1293.47 L305.555 1293.47 L305.555 1293.47  Z" fill="#cd3278" fill-rule="evenodd" fill-opacity="1"/>
<polyline clip-path="url(#clip192)" style="stroke:#000000; stroke-linecap:round; stroke-linejoin:round; stroke-width:4; stroke-opacity:1; fill:none" points="305.555,1293.47 305.555,1752.76 1480.17,1752.76 1480.17,1293.47 305.555,1293.47 "/>
<circle clip-path="url(#clip192)" style="fill:#cd3278; stroke:none; fill-opacity:0" cx="892.86" cy="1293.47" r="2"/>
<path clip-path="url(#clip190)" d="M1103.34 1698.37 L1508.76 1698.37 L1508.76 1439.17 L1103.34 1439.17  Z" fill="#ffffff" fill-rule="evenodd" fill-opacity="1"/>
<polyline clip-path="url(#clip190)" style="stroke:#000000; stroke-linecap:round; stroke-linejoin:round; stroke-width:4; stroke-opacity:1; fill:none" points="1103.34,1698.37 1508.76,1698.37 1508.76,1439.17 1103.34,1439.17 1103.34,1698.37 "/>
<path clip-path="url(#clip190)" d="M1118 1511.75 L1205.99 1511.75 L1205.99 1470.28 L1118 1470.28 L1118 1511.75  Z" fill="#c0c0c0" fill-rule="evenodd" fill-opacity="1"/>
<polyline clip-path="url(#clip190)" style="stroke:#000000; stroke-linecap:round; stroke-linejoin:round; stroke-width:4; stroke-opacity:1; fill:none" points="1118,1511.75 1205.99,1511.75 1205.99,1470.28 1118,1470.28 1118,1511.75 "/>
<path clip-path="url(#clip190)" d="M1220.65 1473.73 L1226.95 1473.73 L1242.27 1502.65 L1242.27 1473.73 L1246.81 1473.73 L1246.81 1508.29 L1240.51 1508.29 L1225.19 1479.38 L1225.19 1508.29 L1220.65 1508.29 L1220.65 1473.73 Z" fill="#000000" fill-rule="nonzero" fill-opacity="1" /><path clip-path="url(#clip190)" d="M1267.71 1495.26 Q1262.55 1495.26 1260.56 1496.44 Q1258.57 1497.62 1258.57 1500.47 Q1258.57 1502.74 1260.05 1504.08 Q1261.55 1505.4 1264.12 1505.4 Q1267.66 1505.4 1269.79 1502.9 Q1271.95 1500.38 1271.95 1496.21 L1271.95 1495.26 L1267.71 1495.26 M1276.21 1493.5 L1276.21 1508.29 L1271.95 1508.29 L1271.95 1504.36 Q1270.49 1506.72 1268.31 1507.85 Q1266.14 1508.97 1262.99 1508.97 Q1259.01 1508.97 1256.65 1506.74 Q1254.31 1504.5 1254.31 1500.75 Q1254.31 1496.37 1257.22 1494.15 Q1260.16 1491.93 1265.97 1491.93 L1271.95 1491.93 L1271.95 1491.51 Q1271.95 1488.57 1270 1486.98 Q1268.08 1485.35 1264.59 1485.35 Q1262.36 1485.35 1260.26 1485.89 Q1258.15 1486.42 1256.21 1487.48 L1256.21 1483.55 Q1258.54 1482.65 1260.74 1482.21 Q1262.94 1481.74 1265.03 1481.74 Q1270.65 1481.74 1273.43 1484.66 Q1276.21 1487.58 1276.21 1493.5 Z" fill="#000000" fill-rule="nonzero" fill-opacity="1" /><path clip-path="url(#clip190)" d="M1289.19 1475.01 L1289.19 1482.37 L1297.97 1482.37 L1297.97 1485.68 L1289.19 1485.68 L1289.19 1499.75 Q1289.19 1502.92 1290.05 1503.83 Q1290.93 1504.73 1293.59 1504.73 L1297.97 1504.73 L1297.97 1508.29 L1293.59 1508.29 Q1288.66 1508.29 1286.78 1506.47 Q1284.91 1504.61 1284.91 1499.75 L1284.91 1485.68 L1281.78 1485.68 L1281.78 1482.37 L1284.91 1482.37 L1284.91 1475.01 L1289.19 1475.01 Z" fill="#000000" fill-rule="nonzero" fill-opacity="1" /><path clip-path="url(#clip190)" d="M1303.13 1498.06 L1303.13 1482.37 L1307.39 1482.37 L1307.39 1497.9 Q1307.39 1501.58 1308.82 1503.43 Q1310.26 1505.26 1313.13 1505.26 Q1316.58 1505.26 1318.57 1503.06 Q1320.58 1500.86 1320.58 1497.07 L1320.58 1482.37 L1324.84 1482.37 L1324.84 1508.29 L1320.58 1508.29 L1320.58 1504.31 Q1319.03 1506.67 1316.97 1507.83 Q1314.93 1508.97 1312.22 1508.97 Q1307.76 1508.97 1305.44 1506.19 Q1303.13 1503.41 1303.13 1498.06 M1313.84 1481.74 L1313.84 1481.74 Z" fill="#000000" fill-rule="nonzero" fill-opacity="1" /><path clip-path="url(#clip190)" d="M1348.64 1486.35 Q1347.92 1485.93 1347.06 1485.75 Q1346.23 1485.54 1345.21 1485.54 Q1341.6 1485.54 1339.65 1487.9 Q1337.73 1490.24 1337.73 1494.64 L1337.73 1508.29 L1333.45 1508.29 L1333.45 1482.37 L1337.73 1482.37 L1337.73 1486.4 Q1339.08 1484.04 1341.23 1482.9 Q1343.38 1481.74 1346.46 1481.74 Q1346.9 1481.74 1347.43 1481.81 Q1347.97 1481.86 1348.61 1481.98 L1348.64 1486.35 Z" fill="#000000" fill-rule="nonzero" fill-opacity="1" /><path clip-path="url(#clip190)" d="M1364.89 1495.26 Q1359.72 1495.26 1357.73 1496.44 Q1355.74 1497.62 1355.74 1500.47 Q1355.74 1502.74 1357.22 1504.08 Q1358.73 1505.4 1361.3 1505.4 Q1364.84 1505.4 1366.97 1502.9 Q1369.12 1500.38 1369.12 1496.21 L1369.12 1495.26 L1364.89 1495.26 M1373.38 1493.5 L1373.38 1508.29 L1369.12 1508.29 L1369.12 1504.36 Q1367.66 1506.72 1365.49 1507.85 Q1363.31 1508.97 1360.16 1508.97 Q1356.18 1508.97 1353.82 1506.74 Q1351.48 1504.5 1351.48 1500.75 Q1351.48 1496.37 1354.4 1494.15 Q1357.34 1491.93 1363.15 1491.93 L1369.12 1491.93 L1369.12 1491.51 Q1369.12 1488.57 1367.18 1486.98 Q1365.26 1485.35 1361.76 1485.35 Q1359.54 1485.35 1357.43 1485.89 Q1355.33 1486.42 1353.38 1487.48 L1353.38 1483.55 Q1355.72 1482.65 1357.92 1482.21 Q1360.12 1481.74 1362.2 1481.74 Q1367.83 1481.74 1370.6 1484.66 Q1373.38 1487.58 1373.38 1493.5 Z" fill="#000000" fill-rule="nonzero" fill-opacity="1" /><path clip-path="url(#clip190)" d="M1382.15 1472.28 L1386.41 1472.28 L1386.41 1508.29 L1382.15 1508.29 L1382.15 1472.28 Z" fill="#000000" fill-rule="nonzero" fill-opacity="1" /><path clip-path="url(#clip190)" d="M1434.15 1503.36 L1434.15 1494.08 L1426.51 1494.08 L1426.51 1490.24 L1438.77 1490.24 L1438.77 1505.08 Q1436.07 1507 1432.8 1507.99 Q1429.54 1508.97 1425.83 1508.97 Q1417.73 1508.97 1413.15 1504.24 Q1408.59 1499.5 1408.59 1491.05 Q1408.59 1482.58 1413.15 1477.85 Q1417.73 1473.11 1425.83 1473.11 Q1429.21 1473.11 1432.25 1473.94 Q1435.3 1474.78 1437.87 1476.4 L1437.87 1481.37 Q1435.28 1479.17 1432.36 1478.06 Q1429.45 1476.95 1426.23 1476.95 Q1419.89 1476.95 1416.69 1480.49 Q1413.52 1484.04 1413.52 1491.05 Q1413.52 1498.04 1416.69 1501.58 Q1419.89 1505.12 1426.23 1505.12 Q1428.71 1505.12 1430.65 1504.71 Q1432.59 1504.27 1434.15 1503.36 Z" fill="#000000" fill-rule="nonzero" fill-opacity="1" /><path clip-path="url(#clip190)" d="M1458.91 1495.26 Q1453.75 1495.26 1451.76 1496.44 Q1449.77 1497.62 1449.77 1500.47 Q1449.77 1502.74 1451.25 1504.08 Q1452.76 1505.4 1455.33 1505.4 Q1458.87 1505.4 1461 1502.9 Q1463.15 1500.38 1463.15 1496.21 L1463.15 1495.26 L1458.91 1495.26 M1467.41 1493.5 L1467.41 1508.29 L1463.15 1508.29 L1463.15 1504.36 Q1461.69 1506.72 1459.52 1507.85 Q1457.34 1508.97 1454.19 1508.97 Q1450.21 1508.97 1447.85 1506.74 Q1445.51 1504.5 1445.51 1500.75 Q1445.51 1496.37 1448.43 1494.15 Q1451.37 1491.93 1457.18 1491.93 L1463.15 1491.93 L1463.15 1491.51 Q1463.15 1488.57 1461.21 1486.98 Q1459.28 1485.35 1455.79 1485.35 Q1453.57 1485.35 1451.46 1485.89 Q1449.35 1486.42 1447.41 1487.48 L1447.41 1483.55 Q1449.75 1482.65 1451.95 1482.21 Q1454.15 1481.74 1456.23 1481.74 Q1461.85 1481.74 1464.63 1484.66 Q1467.41 1487.58 1467.41 1493.5 Z" fill="#000000" fill-rule="nonzero" fill-opacity="1" /><path clip-path="url(#clip190)" d="M1492.71 1483.13 L1492.71 1487.16 Q1490.9 1486.23 1488.96 1485.77 Q1487.02 1485.31 1484.93 1485.31 Q1481.76 1485.31 1480.16 1486.28 Q1478.59 1487.25 1478.59 1489.2 Q1478.59 1490.68 1479.72 1491.54 Q1480.86 1492.37 1484.28 1493.13 L1485.74 1493.46 Q1490.28 1494.43 1492.18 1496.21 Q1494.1 1497.97 1494.1 1501.14 Q1494.1 1504.75 1491.23 1506.86 Q1488.38 1508.97 1483.38 1508.97 Q1481.3 1508.97 1479.03 1508.55 Q1476.78 1508.16 1474.28 1507.35 L1474.28 1502.95 Q1476.64 1504.17 1478.94 1504.8 Q1481.23 1505.4 1483.47 1505.4 Q1486.48 1505.4 1488.1 1504.38 Q1489.72 1503.34 1489.72 1501.47 Q1489.72 1499.73 1488.54 1498.8 Q1487.39 1497.88 1483.43 1497.02 L1481.95 1496.67 Q1477.99 1495.84 1476.23 1494.13 Q1474.47 1492.39 1474.47 1489.38 Q1474.47 1485.73 1477.06 1483.73 Q1479.65 1481.74 1484.42 1481.74 Q1486.78 1481.74 1488.87 1482.09 Q1490.95 1482.44 1492.71 1483.13 Z" fill="#000000" fill-rule="nonzero" fill-opacity="1" /><path clip-path="url(#clip190)" d="M1118 1563.59 L1205.99 1563.59 L1205.99 1522.12 L1118 1522.12 L1118 1563.59  Z" fill="#ffff00" fill-rule="evenodd" fill-opacity="1"/>
<polyline clip-path="url(#clip190)" style="stroke:#000000; stroke-linecap:round; stroke-linejoin:round; stroke-width:4; stroke-opacity:1; fill:none" points="1118,1563.59 1205.99,1563.59 1205.99,1522.12 1118,1522.12 1118,1563.59 "/>
<path clip-path="url(#clip190)" d="M1242.9 1526.71 L1242.9 1531.27 Q1240.23 1530 1237.87 1529.37 Q1235.51 1528.75 1233.31 1528.75 Q1229.49 1528.75 1227.41 1530.23 Q1225.35 1531.71 1225.35 1534.44 Q1225.35 1536.73 1226.72 1537.91 Q1228.1 1539.07 1231.95 1539.79 L1234.77 1540.37 Q1240 1541.36 1242.48 1543.88 Q1244.98 1546.38 1244.98 1550.6 Q1244.98 1555.62 1241.6 1558.21 Q1238.24 1560.81 1231.74 1560.81 Q1229.29 1560.81 1226.51 1560.25 Q1223.75 1559.69 1220.79 1558.61 L1220.79 1553.79 Q1223.64 1555.39 1226.37 1556.2 Q1229.1 1557.01 1231.74 1557.01 Q1235.74 1557.01 1237.92 1555.44 Q1240.1 1553.86 1240.1 1550.94 Q1240.1 1548.4 1238.52 1546.96 Q1236.97 1545.53 1233.41 1544.81 L1230.56 1544.25 Q1225.33 1543.21 1222.99 1540.99 Q1220.65 1538.77 1220.65 1534.81 Q1220.65 1530.23 1223.87 1527.59 Q1227.11 1524.95 1232.78 1524.95 Q1235.21 1524.95 1237.73 1525.39 Q1240.26 1525.83 1242.9 1526.71 Z" fill="#000000" fill-rule="nonzero" fill-opacity="1" /><path clip-path="url(#clip190)" d="M1262.13 1537.19 Q1258.71 1537.19 1256.72 1539.88 Q1254.72 1542.54 1254.72 1547.19 Q1254.72 1551.85 1256.69 1554.53 Q1258.68 1557.19 1262.13 1557.19 Q1265.53 1557.19 1267.53 1554.51 Q1269.52 1551.82 1269.52 1547.19 Q1269.52 1542.59 1267.53 1539.9 Q1265.53 1537.19 1262.13 1537.19 M1262.13 1533.58 Q1267.69 1533.58 1270.86 1537.19 Q1274.03 1540.81 1274.03 1547.19 Q1274.03 1553.56 1270.86 1557.19 Q1267.69 1560.81 1262.13 1560.81 Q1256.55 1560.81 1253.38 1557.19 Q1250.23 1553.56 1250.23 1547.19 Q1250.23 1540.81 1253.38 1537.19 Q1256.55 1533.58 1262.13 1533.58 Z" fill="#000000" fill-rule="nonzero" fill-opacity="1" /><path clip-path="url(#clip190)" d="M1281.09 1524.12 L1285.35 1524.12 L1285.35 1560.13 L1281.09 1560.13 L1281.09 1524.12 Z" fill="#000000" fill-rule="nonzero" fill-opacity="1" /><path clip-path="url(#clip190)" d="M1306.04 1547.1 Q1300.88 1547.1 1298.89 1548.28 Q1296.9 1549.46 1296.9 1552.31 Q1296.9 1554.58 1298.38 1555.92 Q1299.89 1557.24 1302.46 1557.24 Q1306 1557.24 1308.13 1554.74 Q1310.28 1552.22 1310.28 1548.05 L1310.28 1547.1 L1306.04 1547.1 M1314.54 1545.34 L1314.54 1560.13 L1310.28 1560.13 L1310.28 1556.2 Q1308.82 1558.56 1306.65 1559.69 Q1304.47 1560.81 1301.32 1560.81 Q1297.34 1560.81 1294.98 1558.58 Q1292.64 1556.34 1292.64 1552.59 Q1292.64 1548.21 1295.56 1545.99 Q1298.5 1543.77 1304.31 1543.77 L1310.28 1543.77 L1310.28 1543.35 Q1310.28 1540.41 1308.34 1538.82 Q1306.41 1537.19 1302.92 1537.19 Q1300.7 1537.19 1298.59 1537.73 Q1296.48 1538.26 1294.54 1539.32 L1294.54 1535.39 Q1296.88 1534.49 1299.08 1534.05 Q1301.28 1533.58 1303.36 1533.58 Q1308.98 1533.58 1311.76 1536.5 Q1314.54 1539.42 1314.54 1545.34 Z" fill="#000000" fill-rule="nonzero" fill-opacity="1" /><path clip-path="url(#clip190)" d="M1338.34 1538.19 Q1337.62 1537.77 1336.76 1537.59 Q1335.93 1537.38 1334.91 1537.38 Q1331.3 1537.38 1329.35 1539.74 Q1327.43 1542.08 1327.43 1546.48 L1327.43 1560.13 L1323.15 1560.13 L1323.15 1534.21 L1327.43 1534.21 L1327.43 1538.24 Q1328.78 1535.88 1330.93 1534.74 Q1333.08 1533.58 1336.16 1533.58 Q1336.6 1533.58 1337.13 1533.65 Q1337.66 1533.7 1338.31 1533.82 L1338.34 1538.19 Z" fill="#000000" fill-rule="nonzero" fill-opacity="1" /><path clip-path="url(#clip190)" d="M1118 1615.43 L1205.99 1615.43 L1205.99 1573.96 L1118 1573.96 L1118 1615.43  Z" fill="#00bfff" fill-rule="evenodd" fill-opacity="1"/>
<polyline clip-path="url(#clip190)" style="stroke:#000000; stroke-linecap:round; stroke-linejoin:round; stroke-width:4; stroke-opacity:1; fill:none" points="1118,1615.43 1205.99,1615.43 1205.99,1573.96 1118,1573.96 1118,1615.43 "/>
<path clip-path="url(#clip190)" d="M1220.65 1577.41 L1225.37 1577.41 L1232.64 1606.63 L1239.89 1577.41 L1245.14 1577.41 L1252.41 1606.63 L1259.66 1577.41 L1264.4 1577.41 L1255.72 1611.97 L1249.84 1611.97 L1242.55 1581.97 L1235.19 1611.97 L1229.31 1611.97 L1220.65 1577.41 Z" fill="#000000" fill-rule="nonzero" fill-opacity="1" /><path clip-path="url(#clip190)" d="M1269.38 1586.05 L1273.64 1586.05 L1273.64 1611.97 L1269.38 1611.97 L1269.38 1586.05 M1269.38 1575.96 L1273.64 1575.96 L1273.64 1581.35 L1269.38 1581.35 L1269.38 1575.96 Z" fill="#000000" fill-rule="nonzero" fill-opacity="1" /><path clip-path="url(#clip190)" d="M1304.1 1596.33 L1304.1 1611.97 L1299.84 1611.97 L1299.84 1596.47 Q1299.84 1592.78 1298.41 1590.96 Q1296.97 1589.13 1294.1 1589.13 Q1290.65 1589.13 1288.66 1591.33 Q1286.67 1593.53 1286.67 1597.32 L1286.67 1611.97 L1282.39 1611.97 L1282.39 1586.05 L1286.67 1586.05 L1286.67 1590.08 Q1288.2 1587.74 1290.26 1586.58 Q1292.34 1585.42 1295.05 1585.42 Q1299.52 1585.42 1301.81 1588.2 Q1304.1 1590.96 1304.1 1596.33 Z" fill="#000000" fill-rule="nonzero" fill-opacity="1" /><path clip-path="url(#clip190)" d="M1329.65 1589.98 L1329.65 1575.96 L1333.91 1575.96 L1333.91 1611.97 L1329.65 1611.97 L1329.65 1608.09 Q1328.31 1610.4 1326.25 1611.53 Q1324.22 1612.65 1321.34 1612.65 Q1316.65 1612.65 1313.68 1608.9 Q1310.74 1605.15 1310.74 1599.03 Q1310.74 1592.92 1313.68 1589.17 Q1316.65 1585.42 1321.34 1585.42 Q1324.22 1585.42 1326.25 1586.56 Q1328.31 1587.67 1329.65 1589.98 M1315.14 1599.03 Q1315.14 1603.73 1317.06 1606.42 Q1319.01 1609.08 1322.39 1609.08 Q1325.77 1609.08 1327.71 1606.42 Q1329.65 1603.73 1329.65 1599.03 Q1329.65 1594.34 1327.71 1591.67 Q1325.77 1588.99 1322.39 1588.99 Q1319.01 1588.99 1317.06 1591.67 Q1315.14 1594.34 1315.14 1599.03 Z" fill="#000000" fill-rule="nonzero" fill-opacity="1" /><path clip-path="url(#clip190)" d="M1118 1667.27 L1205.99 1667.27 L1205.99 1625.8 L1118 1625.8 L1118 1667.27  Z" fill="#cd3278" fill-rule="evenodd" fill-opacity="1"/>
<polyline clip-path="url(#clip190)" style="stroke:#000000; stroke-linecap:round; stroke-linejoin:round; stroke-width:4; stroke-opacity:1; fill:none" points="1118,1667.27 1205.99,1667.27 1205.99,1625.8 1118,1625.8 1118,1667.27 "/>
<path clip-path="url(#clip190)" d="M1225.33 1647.31 L1225.33 1659.97 L1232.83 1659.97 Q1236.6 1659.97 1238.41 1658.42 Q1240.23 1656.85 1240.23 1653.63 Q1240.23 1650.39 1238.41 1648.86 Q1236.6 1647.31 1232.83 1647.31 L1225.33 1647.31 M1225.33 1633.1 L1225.33 1643.51 L1232.25 1643.51 Q1235.67 1643.51 1237.34 1642.24 Q1239.03 1640.94 1239.03 1638.31 Q1239.03 1635.69 1237.34 1634.39 Q1235.67 1633.1 1232.25 1633.1 L1225.33 1633.1 M1220.65 1629.25 L1232.6 1629.25 Q1237.94 1629.25 1240.84 1631.48 Q1243.73 1633.7 1243.73 1637.8 Q1243.73 1640.97 1242.25 1642.84 Q1240.77 1644.72 1237.9 1645.18 Q1241.35 1645.92 1243.24 1648.28 Q1245.16 1650.62 1245.16 1654.14 Q1245.16 1658.77 1242.02 1661.29 Q1238.87 1663.81 1233.06 1663.81 L1220.65 1663.81 L1220.65 1629.25 Z" fill="#000000" fill-rule="nonzero" fill-opacity="1" /><path clip-path="url(#clip190)" d="M1264.77 1650.78 Q1259.61 1650.78 1257.62 1651.96 Q1255.63 1653.14 1255.63 1655.99 Q1255.63 1658.26 1257.11 1659.6 Q1258.61 1660.92 1261.18 1660.92 Q1264.72 1660.92 1266.85 1658.42 Q1269.01 1655.9 1269.01 1651.73 L1269.01 1650.78 L1264.77 1650.78 M1273.27 1649.02 L1273.27 1663.81 L1269.01 1663.81 L1269.01 1659.88 Q1267.55 1662.24 1265.37 1663.37 Q1263.2 1664.49 1260.05 1664.49 Q1256.07 1664.49 1253.71 1662.26 Q1251.37 1660.02 1251.37 1656.27 Q1251.37 1651.89 1254.28 1649.67 Q1257.22 1647.45 1263.03 1647.45 L1269.01 1647.45 L1269.01 1647.03 Q1269.01 1644.09 1267.06 1642.5 Q1265.14 1640.87 1261.65 1640.87 Q1259.42 1640.87 1257.32 1641.41 Q1255.21 1641.94 1253.27 1643 L1253.27 1639.07 Q1255.6 1638.17 1257.8 1637.73 Q1260 1637.26 1262.09 1637.26 Q1267.71 1637.26 1270.49 1640.18 Q1273.27 1643.1 1273.27 1649.02 Z" fill="#000000" fill-rule="nonzero" fill-opacity="1" /><path clip-path="url(#clip190)" d="M1286.25 1630.53 L1286.25 1637.89 L1295.03 1637.89 L1295.03 1641.2 L1286.25 1641.2 L1286.25 1655.27 Q1286.25 1658.44 1287.11 1659.35 Q1287.99 1660.25 1290.65 1660.25 L1295.03 1660.25 L1295.03 1663.81 L1290.65 1663.81 Q1285.72 1663.81 1283.84 1661.99 Q1281.97 1660.13 1281.97 1655.27 L1281.97 1641.2 L1278.85 1641.2 L1278.85 1637.89 L1281.97 1637.89 L1281.97 1630.53 L1286.25 1630.53 Z" fill="#000000" fill-rule="nonzero" fill-opacity="1" /><path clip-path="url(#clip190)" d="M1304.84 1630.53 L1304.84 1637.89 L1313.61 1637.89 L1313.61 1641.2 L1304.84 1641.2 L1304.84 1655.27 Q1304.84 1658.44 1305.7 1659.35 Q1306.58 1660.25 1309.24 1660.25 L1313.61 1660.25 L1313.61 1663.81 L1309.24 1663.81 Q1304.31 1663.81 1302.43 1661.99 Q1300.56 1660.13 1300.56 1655.27 L1300.56 1641.2 L1297.43 1641.2 L1297.43 1637.89 L1300.56 1637.89 L1300.56 1630.53 L1304.84 1630.53 Z" fill="#000000" fill-rule="nonzero" fill-opacity="1" /><path clip-path="url(#clip190)" d="M1341.39 1649.79 L1341.39 1651.87 L1321.81 1651.87 Q1322.09 1656.27 1324.45 1658.58 Q1326.83 1660.87 1331.07 1660.87 Q1333.52 1660.87 1335.81 1660.27 Q1338.13 1659.67 1340.4 1658.47 L1340.4 1662.5 Q1338.1 1663.47 1335.7 1663.98 Q1333.29 1664.49 1330.81 1664.49 Q1324.61 1664.49 1320.97 1660.87 Q1317.36 1657.26 1317.36 1651.11 Q1317.36 1644.74 1320.79 1641.01 Q1324.24 1637.26 1330.07 1637.26 Q1335.3 1637.26 1338.34 1640.64 Q1341.39 1644 1341.39 1649.79 M1337.13 1648.54 Q1337.09 1645.04 1335.16 1642.96 Q1333.27 1640.87 1330.12 1640.87 Q1326.55 1640.87 1324.4 1642.89 Q1322.27 1644.9 1321.95 1648.56 L1337.13 1648.54 Z" fill="#000000" fill-rule="nonzero" fill-opacity="1" /><path clip-path="url(#clip190)" d="M1363.4 1641.87 Q1362.69 1641.45 1361.83 1641.27 Q1361 1641.06 1359.98 1641.06 Q1356.37 1641.06 1354.42 1643.42 Q1352.5 1645.76 1352.5 1650.16 L1352.5 1663.81 L1348.22 1663.81 L1348.22 1637.89 L1352.5 1637.89 L1352.5 1641.92 Q1353.84 1639.56 1356 1638.42 Q1358.15 1637.26 1361.23 1637.26 Q1361.67 1637.26 1362.2 1637.33 Q1362.73 1637.38 1363.38 1637.5 L1363.4 1641.87 Z" fill="#000000" fill-rule="nonzero" fill-opacity="1" /><path clip-path="url(#clip190)" d="M1378.66 1666.22 Q1376.85 1670.85 1375.14 1672.26 Q1373.43 1673.68 1370.56 1673.68 L1367.15 1673.68 L1367.15 1670.11 L1369.65 1670.11 Q1371.41 1670.11 1372.39 1669.28 Q1373.36 1668.44 1374.54 1665.34 L1375.3 1663.4 L1364.82 1637.89 L1369.33 1637.89 L1377.43 1658.17 L1385.53 1637.89 L1390.05 1637.89 L1378.66 1666.22 Z" fill="#000000" fill-rule="nonzero" fill-opacity="1" /><path clip-path="url(#clip190)" d="M1832.96 1752.76 L3152.76 1752.76 L3152.76 121.312 L1832.96 121.312  Z" fill="#ffffff" fill-rule="evenodd" fill-opacity="1"/>
<defs>
  <clipPath id="clip193">
    <rect x="1832" y="121" width="1321" height="1632"/>
  </clipPath>
</defs>
<polyline clip-path="url(#clip190)" style="stroke:#000000; stroke-linecap:round; stroke-linejoin:round; stroke-width:4; stroke-opacity:1; fill:none" points="1832.96,1752.76 3152.76,1752.76 "/>
<polyline clip-path="url(#clip193)" style="stroke:#000000; stroke-linecap:round; stroke-linejoin:round; stroke-width:2; stroke-opacity:0.1; fill:none" points="1832.96,1457.76 3152.76,1457.76 "/>
<polyline clip-path="url(#clip193)" style="stroke:#000000; stroke-linecap:round; stroke-linejoin:round; stroke-width:2; stroke-opacity:0.1; fill:none" points="1832.96,1162.77 3152.76,1162.77 "/>
<polyline clip-path="url(#clip193)" style="stroke:#000000; stroke-linecap:round; stroke-linejoin:round; stroke-width:2; stroke-opacity:0.1; fill:none" points="1832.96,867.77 3152.76,867.77 "/>
<polyline clip-path="url(#clip193)" style="stroke:#000000; stroke-linecap:round; stroke-linejoin:round; stroke-width:2; stroke-opacity:0.1; fill:none" points="1832.96,572.775 3152.76,572.775 "/>
<polyline clip-path="url(#clip193)" style="stroke:#000000; stroke-linecap:round; stroke-linejoin:round; stroke-width:2; stroke-opacity:0.1; fill:none" points="1832.96,277.78 3152.76,277.78 "/>
<polyline clip-path="url(#clip190)" style="stroke:#000000; stroke-linecap:round; stroke-linejoin:round; stroke-width:4; stroke-opacity:1; fill:none" points="1832.96,1752.76 1832.96,121.312 "/>
<polyline clip-path="url(#clip190)" style="stroke:#000000; stroke-linecap:round; stroke-linejoin:round; stroke-width:4; stroke-opacity:1; fill:none" points="1832.96,1457.76 1851.86,1457.76 "/>
<polyline clip-path="url(#clip190)" style="stroke:#000000; stroke-linecap:round; stroke-linejoin:round; stroke-width:4; stroke-opacity:1; fill:none" points="1832.96,1162.77 1851.86,1162.77 "/>
<polyline clip-path="url(#clip190)" style="stroke:#000000; stroke-linecap:round; stroke-linejoin:round; stroke-width:4; stroke-opacity:1; fill:none" points="1832.96,867.77 1851.86,867.77 "/>
<polyline clip-path="url(#clip190)" style="stroke:#000000; stroke-linecap:round; stroke-linejoin:round; stroke-width:4; stroke-opacity:1; fill:none" points="1832.96,572.775 1851.86,572.775 "/>
<polyline clip-path="url(#clip190)" style="stroke:#000000; stroke-linecap:round; stroke-linejoin:round; stroke-width:4; stroke-opacity:1; fill:none" points="1832.96,277.78 1851.86,277.78 "/>
<path clip-path="url(#clip190)" d="M1747.02 1456.41 Q1750.38 1457.12 1752.26 1459.39 Q1754.15 1461.66 1754.15 1464.99 Q1754.15 1470.11 1750.64 1472.91 Q1747.12 1475.71 1740.64 1475.71 Q1738.46 1475.71 1736.15 1475.27 Q1733.85 1474.86 1731.4 1474 L1731.4 1469.49 Q1733.34 1470.62 1735.66 1471.2 Q1737.97 1471.78 1740.5 1471.78 Q1744.9 1471.78 1747.19 1470.04 Q1749.5 1468.3 1749.5 1464.99 Q1749.5 1461.94 1747.35 1460.23 Q1745.22 1458.49 1741.4 1458.49 L1737.37 1458.49 L1737.37 1454.65 L1741.58 1454.65 Q1745.03 1454.65 1746.86 1453.28 Q1748.69 1451.89 1748.69 1449.3 Q1748.69 1446.64 1746.79 1445.23 Q1744.92 1443.79 1741.4 1443.79 Q1739.48 1443.79 1737.28 1444.21 Q1735.08 1444.62 1732.44 1445.5 L1732.44 1441.34 Q1735.1 1440.6 1737.42 1440.23 Q1739.76 1439.86 1741.82 1439.86 Q1747.14 1439.86 1750.24 1442.29 Q1753.34 1444.69 1753.34 1448.81 Q1753.34 1451.68 1751.7 1453.68 Q1750.06 1455.64 1747.02 1456.41 Z" fill="#000000" fill-rule="nonzero" fill-opacity="1" /><path clip-path="url(#clip190)" d="M1773.02 1443.56 Q1769.41 1443.56 1767.58 1447.12 Q1765.77 1450.67 1765.77 1457.8 Q1765.77 1464.9 1767.58 1468.47 Q1769.41 1472.01 1773.02 1472.01 Q1776.65 1472.01 1778.46 1468.47 Q1780.29 1464.9 1780.29 1457.8 Q1780.29 1450.67 1778.46 1447.12 Q1776.65 1443.56 1773.02 1443.56 M1773.02 1439.86 Q1778.83 1439.86 1781.89 1444.46 Q1784.96 1449.05 1784.96 1457.8 Q1784.96 1466.52 1781.89 1471.13 Q1778.83 1475.71 1773.02 1475.71 Q1767.21 1475.71 1764.13 1471.13 Q1761.08 1466.52 1761.08 1457.8 Q1761.08 1449.05 1764.13 1444.46 Q1767.21 1439.86 1773.02 1439.86 Z" fill="#000000" fill-rule="nonzero" fill-opacity="1" /><path clip-path="url(#clip190)" d="M1743.44 1160.9 Q1740.29 1160.9 1738.44 1163.05 Q1736.61 1165.21 1736.61 1168.96 Q1736.61 1172.68 1738.44 1174.86 Q1740.29 1177.01 1743.44 1177.01 Q1746.58 1177.01 1748.41 1174.86 Q1750.27 1172.68 1750.27 1168.96 Q1750.27 1165.21 1748.41 1163.05 Q1746.58 1160.9 1743.44 1160.9 M1752.72 1146.25 L1752.72 1150.51 Q1750.96 1149.68 1749.15 1149.24 Q1747.37 1148.8 1745.61 1148.8 Q1740.98 1148.8 1738.53 1151.92 Q1736.1 1155.05 1735.75 1161.37 Q1737.12 1159.35 1739.18 1158.29 Q1741.24 1157.2 1743.71 1157.2 Q1748.92 1157.2 1751.93 1160.37 Q1754.96 1163.52 1754.96 1168.96 Q1754.96 1174.28 1751.82 1177.5 Q1748.67 1180.72 1743.44 1180.72 Q1737.44 1180.72 1734.27 1176.13 Q1731.1 1171.53 1731.1 1162.8 Q1731.1 1154.61 1734.99 1149.74 Q1738.88 1144.86 1745.43 1144.86 Q1747.19 1144.86 1748.97 1145.21 Q1750.77 1145.55 1752.72 1146.25 Z" fill="#000000" fill-rule="nonzero" fill-opacity="1" /><path clip-path="url(#clip190)" d="M1773.02 1148.56 Q1769.41 1148.56 1767.58 1152.13 Q1765.77 1155.67 1765.77 1162.8 Q1765.77 1169.91 1767.58 1173.47 Q1769.41 1177.01 1773.02 1177.01 Q1776.65 1177.01 1778.46 1173.47 Q1780.29 1169.91 1780.29 1162.8 Q1780.29 1155.67 1778.46 1152.13 Q1776.65 1148.56 1773.02 1148.56 M1773.02 1144.86 Q1778.83 1144.86 1781.89 1149.47 Q1784.96 1154.05 1784.96 1162.8 Q1784.96 1171.53 1781.89 1176.13 Q1778.83 1180.72 1773.02 1180.72 Q1767.21 1180.72 1764.13 1176.13 Q1761.08 1171.53 1761.08 1162.8 Q1761.08 1154.05 1764.13 1149.47 Q1767.21 1144.86 1773.02 1144.86 Z" fill="#000000" fill-rule="nonzero" fill-opacity="1" /><path clip-path="url(#clip190)" d="M1733 884.333 L1733 880.074 Q1734.76 880.907 1736.56 881.347 Q1738.37 881.786 1740.1 881.786 Q1744.73 881.786 1747.16 878.685 Q1749.62 875.56 1749.96 869.217 Q1748.62 871.208 1746.56 872.273 Q1744.5 873.337 1742 873.337 Q1736.82 873.337 1733.78 870.212 Q1730.77 867.064 1730.77 861.625 Q1730.77 856.301 1733.92 853.083 Q1737.07 849.865 1742.3 849.865 Q1748.3 849.865 1751.45 854.472 Q1754.62 859.055 1754.62 867.805 Q1754.62 875.976 1750.73 880.861 Q1746.86 885.722 1740.31 885.722 Q1738.55 885.722 1736.75 885.374 Q1734.94 885.027 1733 884.333 M1742.3 869.68 Q1745.45 869.68 1747.28 867.527 Q1749.13 865.375 1749.13 861.625 Q1749.13 857.898 1747.28 855.745 Q1745.45 853.569 1742.3 853.569 Q1739.15 853.569 1737.3 855.745 Q1735.47 857.898 1735.47 861.625 Q1735.47 865.375 1737.3 867.527 Q1739.15 869.68 1742.3 869.68 Z" fill="#000000" fill-rule="nonzero" fill-opacity="1" /><path clip-path="url(#clip190)" d="M1773.02 853.569 Q1769.41 853.569 1767.58 857.134 Q1765.77 860.675 1765.77 867.805 Q1765.77 874.912 1767.58 878.476 Q1769.41 882.018 1773.02 882.018 Q1776.65 882.018 1778.46 878.476 Q1780.29 874.912 1780.29 867.805 Q1780.29 860.675 1778.46 857.134 Q1776.65 853.569 1773.02 853.569 M1773.02 849.865 Q1778.83 849.865 1781.89 854.472 Q1784.96 859.055 1784.96 867.805 Q1784.96 876.532 1781.89 881.138 Q1778.83 885.722 1773.02 885.722 Q1767.21 885.722 1764.13 881.138 Q1761.08 876.532 1761.08 867.805 Q1761.08 859.055 1764.13 854.472 Q1767.21 849.865 1773.02 849.865 Z" fill="#000000" fill-rule="nonzero" fill-opacity="1" /><path clip-path="url(#clip190)" d="M1703.51 586.12 L1711.15 586.12 L1711.15 559.754 L1702.84 561.421 L1702.84 557.162 L1711.1 555.495 L1715.77 555.495 L1715.77 586.12 L1723.41 586.12 L1723.41 590.055 L1703.51 590.055 L1703.51 586.12 Z" fill="#000000" fill-rule="nonzero" fill-opacity="1" /><path clip-path="url(#clip190)" d="M1736.89 586.12 L1753.21 586.12 L1753.21 590.055 L1731.26 590.055 L1731.26 586.12 Q1733.92 583.365 1738.51 578.736 Q1743.11 574.083 1744.29 572.74 Q1746.54 570.217 1747.42 568.481 Q1748.32 566.722 1748.32 565.032 Q1748.32 562.278 1746.38 560.541 Q1744.46 558.805 1741.35 558.805 Q1739.15 558.805 1736.7 559.569 Q1734.27 560.333 1731.49 561.884 L1731.49 557.162 Q1734.32 556.028 1736.77 555.449 Q1739.22 554.87 1741.26 554.87 Q1746.63 554.87 1749.83 557.555 Q1753.02 560.241 1753.02 564.731 Q1753.02 566.861 1752.21 568.782 Q1751.42 570.68 1749.32 573.273 Q1748.74 573.944 1745.64 577.162 Q1742.53 580.356 1736.89 586.12 Z" fill="#000000" fill-rule="nonzero" fill-opacity="1" /><path clip-path="url(#clip190)" d="M1773.02 558.574 Q1769.41 558.574 1767.58 562.139 Q1765.77 565.68 1765.77 572.81 Q1765.77 579.916 1767.58 583.481 Q1769.41 587.023 1773.02 587.023 Q1776.65 587.023 1778.46 583.481 Q1780.29 579.916 1780.29 572.81 Q1780.29 565.68 1778.46 562.139 Q1776.65 558.574 1773.02 558.574 M1773.02 554.87 Q1778.83 554.87 1781.89 559.477 Q1784.96 564.06 1784.96 572.81 Q1784.96 581.537 1781.89 586.143 Q1778.83 590.726 1773.02 590.726 Q1767.21 590.726 1764.13 586.143 Q1761.08 581.537 1761.08 572.81 Q1761.08 564.06 1764.13 559.477 Q1767.21 554.87 1773.02 554.87 Z" fill="#000000" fill-rule="nonzero" fill-opacity="1" /><path clip-path="url(#clip190)" d="M1703.51 291.125 L1711.15 291.125 L1711.15 264.759 L1702.84 266.426 L1702.84 262.167 L1711.1 260.5 L1715.77 260.5 L1715.77 291.125 L1723.41 291.125 L1723.41 295.06 L1703.51 295.06 L1703.51 291.125 Z" fill="#000000" fill-rule="nonzero" fill-opacity="1" /><path clip-path="url(#clip190)" d="M1732.9 260.5 L1751.26 260.5 L1751.26 264.435 L1737.19 264.435 L1737.19 272.907 Q1738.21 272.56 1739.22 272.398 Q1740.24 272.213 1741.26 272.213 Q1747.05 272.213 1750.43 275.384 Q1753.81 278.555 1753.81 283.972 Q1753.81 289.551 1750.33 292.653 Q1746.86 295.731 1740.54 295.731 Q1738.37 295.731 1736.1 295.361 Q1733.85 294.991 1731.45 294.25 L1731.45 289.551 Q1733.53 290.685 1735.75 291.241 Q1737.97 291.796 1740.45 291.796 Q1744.46 291.796 1746.79 289.69 Q1749.13 287.583 1749.13 283.972 Q1749.13 280.361 1746.79 278.255 Q1744.46 276.148 1740.45 276.148 Q1738.58 276.148 1736.7 276.565 Q1734.85 276.981 1732.9 277.861 L1732.9 260.5 Z" fill="#000000" fill-rule="nonzero" fill-opacity="1" /><path clip-path="url(#clip190)" d="M1773.02 263.579 Q1769.41 263.579 1767.58 267.143 Q1765.77 270.685 1765.77 277.815 Q1765.77 284.921 1767.58 288.486 Q1769.41 292.028 1773.02 292.028 Q1776.65 292.028 1778.46 288.486 Q1780.29 284.921 1780.29 277.815 Q1780.29 270.685 1778.46 267.143 Q1776.65 263.579 1773.02 263.579 M1773.02 259.875 Q1778.83 259.875 1781.89 264.481 Q1784.96 269.065 1784.96 277.815 Q1784.96 286.542 1781.89 291.148 Q1778.83 295.731 1773.02 295.731 Q1767.21 295.731 1764.13 291.148 Q1761.08 286.542 1761.08 277.815 Q1761.08 269.065 1764.13 264.481 Q1767.21 259.875 1773.02 259.875 Z" fill="#000000" fill-rule="nonzero" fill-opacity="1" /><path clip-path="url(#clip190)" d="M1633.8 956.481 L1621.04 956.481 L1621.04 966.985 L1615.75 966.985 L1615.75 950.116 L1636.15 950.116 Q1638.8 953.839 1640.17 958.327 Q1641.5 962.815 1641.5 967.908 Q1641.5 979.048 1635.01 985.35 Q1628.48 991.62 1616.87 991.62 Q1605.22 991.62 1598.72 985.35 Q1592.2 979.048 1592.2 967.908 Q1592.2 963.261 1593.35 959.091 Q1594.49 954.89 1596.72 951.357 L1603.56 951.357 Q1600.54 954.922 1599.01 958.932 Q1597.48 962.942 1597.48 967.367 Q1597.48 976.088 1602.35 980.48 Q1607.22 984.84 1616.87 984.84 Q1626.48 984.84 1631.35 980.48 Q1636.22 976.088 1636.22 967.367 Q1636.22 963.961 1635.65 961.287 Q1635.04 958.614 1633.8 956.481 Z" fill="#000000" fill-rule="nonzero" fill-opacity="1" /><path clip-path="url(#clip190)" d="M1593.06 942.604 L1593.06 936.111 L1633.23 926.117 L1593.06 916.154 L1593.06 908.929 L1633.23 898.935 L1593.06 888.973 L1593.06 882.448 L1640.58 894.384 L1640.58 902.468 L1599.33 912.494 L1640.58 922.616 L1640.58 930.7 L1593.06 942.604 Z" fill="#000000" fill-rule="nonzero" fill-opacity="1" /><path clip-path="url(#clip190)" d="M2343.37 21.67 L2343.37 26.6006 Q2341.01 24.4015 2338.32 23.3135 Q2335.66 22.2256 2332.65 22.2256 Q2326.73 22.2256 2323.58 25.8598 Q2320.43 29.4709 2320.43 36.3227 Q2320.43 43.1514 2323.58 46.7856 Q2326.73 50.3967 2332.65 50.3967 Q2335.66 50.3967 2338.32 49.3088 Q2341.01 48.2208 2343.37 46.0217 L2343.37 50.906 Q2340.92 52.5726 2338.16 53.406 Q2335.43 54.2393 2332.37 54.2393 Q2324.53 54.2393 2320.01 49.4477 Q2315.5 44.6329 2315.5 36.3227 Q2315.5 27.9894 2320.01 23.1978 Q2324.53 18.383 2332.37 18.383 Q2335.48 18.383 2338.21 19.2163 Q2340.96 20.0265 2343.37 21.67 Z" fill="#000000" fill-rule="nonzero" fill-opacity="1" /><path clip-path="url(#clip190)" d="M2364.62 22.1793 Q2359.53 22.1793 2356.52 25.9756 Q2353.53 29.7718 2353.53 36.3227 Q2353.53 42.8505 2356.52 46.6467 Q2359.53 50.443 2364.62 50.443 Q2369.71 50.443 2372.68 46.6467 Q2375.66 42.8505 2375.66 36.3227 Q2375.66 29.7718 2372.68 25.9756 Q2369.71 22.1793 2364.62 22.1793 M2364.62 18.383 Q2371.89 18.383 2376.24 23.2672 Q2380.59 28.1283 2380.59 36.3227 Q2380.59 44.494 2376.24 49.3782 Q2371.89 54.2393 2364.62 54.2393 Q2357.33 54.2393 2352.95 49.3782 Q2348.6 44.5171 2348.6 36.3227 Q2348.6 28.1283 2352.95 23.2672 Q2357.33 18.383 2364.62 18.383 Z" fill="#000000" fill-rule="nonzero" fill-opacity="1" /><path clip-path="url(#clip190)" d="M2392.35 49.6328 L2408.67 49.6328 L2408.67 53.568 L2386.73 53.568 L2386.73 49.6328 Q2389.39 46.8782 2393.97 42.2486 Q2398.58 37.5959 2399.76 36.2533 Q2402 33.7301 2402.88 31.994 Q2403.79 30.2348 2403.79 28.545 Q2403.79 25.7904 2401.84 24.0543 Q2399.92 22.3182 2396.82 22.3182 Q2394.62 22.3182 2392.17 23.0821 Q2389.74 23.8459 2386.96 25.3969 L2386.96 20.6747 Q2389.78 19.5404 2392.24 18.9617 Q2394.69 18.383 2396.73 18.383 Q2402.1 18.383 2405.29 21.0682 Q2408.49 23.7533 2408.49 28.2441 Q2408.49 30.3737 2407.68 32.295 Q2406.89 34.1931 2404.78 36.7857 Q2404.2 37.457 2401.1 40.6746 Q2398 43.869 2392.35 49.6328 Z" fill="#000000" fill-rule="nonzero" fill-opacity="1" /><path clip-path="url(#clip190)" d="M2433.14 19.008 L2440.11 19.008 L2448.93 42.5264 L2457.79 19.008 L2464.76 19.008 L2464.76 53.568 L2460.2 53.568 L2460.2 23.2209 L2451.29 46.9245 L2446.59 46.9245 L2437.68 23.2209 L2437.68 53.568 L2433.14 53.568 L2433.14 19.008 Z" fill="#000000" fill-rule="nonzero" fill-opacity="1" /><path clip-path="url(#clip190)" d="M2485.64 40.5357 Q2480.48 40.5357 2478.49 41.7162 Q2476.49 42.8968 2476.49 45.744 Q2476.49 48.0125 2477.98 49.3551 Q2479.48 50.6745 2482.05 50.6745 Q2485.59 50.6745 2487.72 48.1745 Q2489.87 45.6514 2489.87 41.4847 L2489.87 40.5357 L2485.64 40.5357 M2494.13 38.7764 L2494.13 53.568 L2489.87 53.568 L2489.87 49.6328 Q2488.42 51.9939 2486.24 53.1282 Q2484.06 54.2393 2480.92 54.2393 Q2476.93 54.2393 2474.57 52.0171 Q2472.24 49.7717 2472.24 46.0217 Q2472.24 41.6468 2475.15 39.4246 Q2478.09 37.2023 2483.9 37.2023 L2489.87 37.2023 L2489.87 36.7857 Q2489.87 33.8459 2487.93 32.2487 Q2486.01 30.6283 2482.51 30.6283 Q2480.29 30.6283 2478.18 31.1607 Q2476.08 31.6931 2474.13 32.7579 L2474.13 28.8228 Q2476.47 27.92 2478.67 27.4802 Q2480.87 27.0172 2482.95 27.0172 Q2488.58 27.0172 2491.36 29.9339 Q2494.13 32.8505 2494.13 38.7764 Z" fill="#000000" fill-rule="nonzero" fill-opacity="1" /><path clip-path="url(#clip190)" d="M2519.43 28.4061 L2519.43 32.4339 Q2517.63 31.5079 2515.68 31.045 Q2513.74 30.582 2511.66 30.582 Q2508.49 30.582 2506.89 31.5542 Q2505.31 32.5264 2505.31 34.4709 Q2505.31 35.9524 2506.45 36.8088 Q2507.58 37.6422 2511.01 38.406 L2512.47 38.7301 Q2517 39.7023 2518.9 41.4847 Q2520.82 43.244 2520.82 46.4153 Q2520.82 50.0264 2517.95 52.1328 Q2515.11 54.2393 2510.11 54.2393 Q2508.02 54.2393 2505.75 53.8226 Q2503.51 53.4291 2501.01 52.6189 L2501.01 48.2208 Q2503.37 49.4477 2505.66 50.0726 Q2507.95 50.6745 2510.2 50.6745 Q2513.21 50.6745 2514.83 49.656 Q2516.45 48.6143 2516.45 46.7393 Q2516.45 45.0032 2515.27 44.0773 Q2514.11 43.1514 2510.15 42.2949 L2508.67 41.9477 Q2504.71 41.1144 2502.95 39.4014 Q2501.19 37.6653 2501.19 34.6561 Q2501.19 30.9987 2503.79 29.0079 Q2506.38 27.0172 2511.15 27.0172 Q2513.51 27.0172 2515.59 27.3644 Q2517.67 27.7117 2519.43 28.4061 Z" fill="#000000" fill-rule="nonzero" fill-opacity="1" /><path clip-path="url(#clip190)" d="M2544.13 28.4061 L2544.13 32.4339 Q2542.33 31.5079 2540.38 31.045 Q2538.44 30.582 2536.36 30.582 Q2533.18 30.582 2531.59 31.5542 Q2530.01 32.5264 2530.01 34.4709 Q2530.01 35.9524 2531.15 36.8088 Q2532.28 37.6422 2535.71 38.406 L2537.17 38.7301 Q2541.7 39.7023 2543.6 41.4847 Q2545.52 43.244 2545.52 46.4153 Q2545.52 50.0264 2542.65 52.1328 Q2539.8 54.2393 2534.8 54.2393 Q2532.72 54.2393 2530.45 53.8226 Q2528.21 53.4291 2525.71 52.6189 L2525.71 48.2208 Q2528.07 49.4477 2530.36 50.0726 Q2532.65 50.6745 2534.9 50.6745 Q2537.91 50.6745 2539.53 49.656 Q2541.15 48.6143 2541.15 46.7393 Q2541.15 45.0032 2539.97 44.0773 Q2538.81 43.1514 2534.85 42.2949 L2533.37 41.9477 Q2529.41 41.1144 2527.65 39.4014 Q2525.89 37.6653 2525.89 34.6561 Q2525.89 30.9987 2528.48 29.0079 Q2531.08 27.0172 2535.85 27.0172 Q2538.21 27.0172 2540.29 27.3644 Q2542.37 27.7117 2544.13 28.4061 Z" fill="#000000" fill-rule="nonzero" fill-opacity="1" /><path clip-path="url(#clip190)" d="M2593.44 21.67 L2593.44 26.6006 Q2591.08 24.4015 2588.39 23.3135 Q2585.73 22.2256 2582.72 22.2256 Q2576.79 22.2256 2573.65 25.8598 Q2570.5 29.4709 2570.5 36.3227 Q2570.5 43.1514 2573.65 46.7856 Q2576.79 50.3967 2582.72 50.3967 Q2585.73 50.3967 2588.39 49.3088 Q2591.08 48.2208 2593.44 46.0217 L2593.44 50.906 Q2590.98 52.5726 2588.23 53.406 Q2585.5 54.2393 2582.44 54.2393 Q2574.6 54.2393 2570.08 49.4477 Q2565.57 44.6329 2565.57 36.3227 Q2565.57 27.9894 2570.08 23.1978 Q2574.6 18.383 2582.44 18.383 Q2585.54 18.383 2588.28 19.2163 Q2591.03 20.0265 2593.44 21.67 Z" fill="#000000" fill-rule="nonzero" fill-opacity="1" /><path clip-path="url(#clip190)" d="M2612.26 40.5357 Q2607.1 40.5357 2605.1 41.7162 Q2603.11 42.8968 2603.11 45.744 Q2603.11 48.0125 2604.6 49.3551 Q2606.1 50.6745 2608.67 50.6745 Q2612.21 50.6745 2614.34 48.1745 Q2616.49 45.6514 2616.49 41.4847 L2616.49 40.5357 L2612.26 40.5357 M2620.75 38.7764 L2620.75 53.568 L2616.49 53.568 L2616.49 49.6328 Q2615.04 51.9939 2612.86 53.1282 Q2610.68 54.2393 2607.54 54.2393 Q2603.55 54.2393 2601.19 52.0171 Q2598.85 49.7717 2598.85 46.0217 Q2598.85 41.6468 2601.77 39.4246 Q2604.71 37.2023 2610.52 37.2023 L2616.49 37.2023 L2616.49 36.7857 Q2616.49 33.8459 2614.55 32.2487 Q2612.63 30.6283 2609.13 30.6283 Q2606.91 30.6283 2604.8 31.1607 Q2602.7 31.6931 2600.75 32.7579 L2600.75 28.8228 Q2603.09 27.92 2605.29 27.4802 Q2607.49 27.0172 2609.57 27.0172 Q2615.2 27.0172 2617.98 29.9339 Q2620.75 32.8505 2620.75 38.7764 Z" fill="#000000" fill-rule="nonzero" fill-opacity="1" /><path clip-path="url(#clip190)" d="M2633.65 49.6791 L2633.65 63.4291 L2629.36 63.4291 L2629.36 27.6422 L2633.65 27.6422 L2633.65 31.5774 Q2634.99 29.2626 2637.03 28.1515 Q2639.09 27.0172 2641.93 27.0172 Q2646.66 27.0172 2649.6 30.7672 Q2652.56 34.5172 2652.56 40.6283 Q2652.56 46.7393 2649.6 50.4893 Q2646.66 54.2393 2641.93 54.2393 Q2639.09 54.2393 2637.03 53.1282 Q2634.99 51.9939 2633.65 49.6791 M2648.14 40.6283 Q2648.14 35.9292 2646.19 33.2672 Q2644.27 30.582 2640.89 30.582 Q2637.51 30.582 2635.57 33.2672 Q2633.65 35.9292 2633.65 40.6283 Q2633.65 45.3273 2635.57 48.0125 Q2637.51 50.6745 2640.89 50.6745 Q2644.27 50.6745 2646.19 48.0125 Q2648.14 45.3273 2648.14 40.6283 Z" fill="#000000" fill-rule="nonzero" fill-opacity="1" /><path clip-path="url(#clip190)" d="M2248.85 74.0193 Q2243.75 74.0193 2240.74 77.8156 Q2237.76 81.6118 2237.76 88.1627 Q2237.76 94.6905 2240.74 98.4867 Q2243.75 102.283 2248.85 102.283 Q2253.94 102.283 2256.9 98.4867 Q2259.89 94.6905 2259.89 88.1627 Q2259.89 81.6118 2256.9 77.8156 Q2253.94 74.0193 2248.85 74.0193 M2248.85 70.223 Q2256.11 70.223 2260.47 75.1072 Q2264.82 79.9683 2264.82 88.1627 Q2264.82 96.334 2260.47 101.218 Q2256.11 106.079 2248.85 106.079 Q2241.55 106.079 2237.18 101.218 Q2232.83 96.3571 2232.83 88.1627 Q2232.83 79.9683 2237.18 75.1072 Q2241.55 70.223 2248.85 70.223 Z" fill="#000000" fill-rule="nonzero" fill-opacity="1" /><path clip-path="url(#clip190)" d="M2290.56 92.4683 Q2290.56 87.7692 2288.61 85.1072 Q2286.69 82.422 2283.31 82.422 Q2279.93 82.422 2277.99 85.1072 Q2276.07 87.7692 2276.07 92.4683 Q2276.07 97.1673 2277.99 99.8525 Q2279.93 102.514 2283.31 102.514 Q2286.69 102.514 2288.61 99.8525 Q2290.56 97.1673 2290.56 92.4683 M2276.07 83.4174 Q2277.41 81.1026 2279.45 79.9915 Q2281.51 78.8572 2284.35 78.8572 Q2289.08 78.8572 2292.02 82.6072 Q2294.98 86.3572 2294.98 92.4683 Q2294.98 98.5793 2292.02 102.329 Q2289.08 106.079 2284.35 106.079 Q2281.51 106.079 2279.45 104.968 Q2277.41 103.834 2276.07 101.519 L2276.07 105.408 L2271.78 105.408 L2271.78 69.3897 L2276.07 69.3897 L2276.07 83.4174 Z" fill="#000000" fill-rule="nonzero" fill-opacity="1" /><path clip-path="url(#clip190)" d="M2302.04 79.4822 L2306.3 79.4822 L2306.3 105.871 Q2306.3 110.825 2304.4 113.047 Q2302.53 115.269 2298.34 115.269 L2296.72 115.269 L2296.72 111.658 L2297.85 111.658 Q2300.28 111.658 2301.16 110.524 Q2302.04 109.413 2302.04 105.871 L2302.04 79.4822 M2302.04 69.3897 L2306.3 69.3897 L2306.3 74.7832 L2302.04 74.7832 L2302.04 69.3897 Z" fill="#000000" fill-rule="nonzero" fill-opacity="1" /><path clip-path="url(#clip190)" d="M2339.38 105.408 L2326.18 70.848 L2331.07 70.848 L2342.02 99.9451 L2352.99 70.848 L2357.85 70.848 L2344.68 105.408 L2339.38 105.408 Z" fill="#000000" fill-rule="nonzero" fill-opacity="1" /><path clip-path="url(#clip190)" d="M2370.81 92.3757 Q2365.65 92.3757 2363.66 93.5562 Q2361.67 94.7368 2361.67 97.584 Q2361.67 99.8525 2363.15 101.195 Q2364.65 102.514 2367.22 102.514 Q2370.77 102.514 2372.9 100.015 Q2375.05 97.4914 2375.05 93.3247 L2375.05 92.3757 L2370.81 92.3757 M2379.31 90.6164 L2379.31 105.408 L2375.05 105.408 L2375.05 101.473 Q2373.59 103.834 2371.41 104.968 Q2369.24 106.079 2366.09 106.079 Q2362.11 106.079 2359.75 103.857 Q2357.41 101.612 2357.41 97.8617 Q2357.41 93.4868 2360.33 91.2646 Q2363.27 89.0423 2369.08 89.0423 L2375.05 89.0423 L2375.05 88.6257 Q2375.05 85.6859 2373.1 84.0887 Q2371.18 82.4683 2367.69 82.4683 Q2365.46 82.4683 2363.36 83.0007 Q2361.25 83.5331 2359.31 84.5979 L2359.31 80.6628 Q2361.65 79.76 2363.84 79.3202 Q2366.04 78.8572 2368.13 78.8572 Q2373.75 78.8572 2376.53 81.7739 Q2379.31 84.6905 2379.31 90.6164 Z" fill="#000000" fill-rule="nonzero" fill-opacity="1" /><path clip-path="url(#clip190)" d="M2388.08 69.3897 L2392.34 69.3897 L2392.34 105.408 L2388.08 105.408 L2388.08 69.3897 Z" fill="#000000" fill-rule="nonzero" fill-opacity="1" /><path clip-path="url(#clip190)" d="M2402.34 99.5284 L2407.22 99.5284 L2407.22 105.408 L2402.34 105.408 L2402.34 99.5284 M2402.34 80.8942 L2407.22 80.8942 L2407.22 86.7738 L2402.34 86.7738 L2402.34 80.8942 Z" fill="#000000" fill-rule="nonzero" fill-opacity="1" /><path clip-path="url(#clip190)" d="M2436.92 101.473 L2453.24 101.473 L2453.24 105.408 L2431.3 105.408 L2431.3 101.473 Q2433.96 98.7182 2438.54 94.0886 Q2443.15 89.4359 2444.33 88.0933 Q2446.58 85.5701 2447.46 83.834 Q2448.36 82.0748 2448.36 80.385 Q2448.36 77.6304 2446.41 75.8943 Q2444.49 74.1582 2441.39 74.1582 Q2439.19 74.1582 2436.74 74.9221 Q2434.31 75.6859 2431.53 77.2369 L2431.53 72.5147 Q2434.35 71.3804 2436.81 70.8017 Q2439.26 70.223 2441.3 70.223 Q2446.67 70.223 2449.86 72.9082 Q2453.06 75.5933 2453.06 80.0841 Q2453.06 82.2137 2452.25 84.135 Q2451.46 86.0331 2449.35 88.6257 Q2448.77 89.297 2445.67 92.5146 Q2442.57 95.709 2436.92 101.473 Z" fill="#000000" fill-rule="nonzero" fill-opacity="1" /><path clip-path="url(#clip190)" d="M2467.08 101.473 L2483.4 101.473 L2483.4 105.408 L2461.46 105.408 L2461.46 101.473 Q2464.12 98.7182 2468.71 94.0886 Q2473.31 89.4359 2474.49 88.0933 Q2476.74 85.5701 2477.62 83.834 Q2478.52 82.0748 2478.52 80.385 Q2478.52 77.6304 2476.58 75.8943 Q2474.65 74.1582 2471.55 74.1582 Q2469.35 74.1582 2466.9 74.9221 Q2464.47 75.6859 2461.69 77.2369 L2461.69 72.5147 Q2464.52 71.3804 2466.97 70.8017 Q2469.42 70.223 2471.46 70.223 Q2476.83 70.223 2480.02 72.9082 Q2483.22 75.5933 2483.22 80.0841 Q2483.22 82.2137 2482.41 84.135 Q2481.62 86.0331 2479.52 88.6257 Q2478.94 89.297 2475.83 92.5146 Q2472.73 95.709 2467.08 101.473 Z" fill="#000000" fill-rule="nonzero" fill-opacity="1" /><path clip-path="url(#clip190)" d="M2506.07 74.9221 L2494.26 93.371 L2506.07 93.371 L2506.07 74.9221 M2504.84 70.848 L2510.72 70.848 L2510.72 93.371 L2515.65 93.371 L2515.65 97.2599 L2510.72 97.2599 L2510.72 105.408 L2506.07 105.408 L2506.07 97.2599 L2490.46 97.2599 L2490.46 92.746 L2504.84 70.848 Z" fill="#000000" fill-rule="nonzero" fill-opacity="1" /><path clip-path="url(#clip190)" d="M2522.2 70.848 L2544.42 70.848 L2544.42 72.8387 L2531.88 105.408 L2526.99 105.408 L2538.8 74.7832 L2522.2 74.7832 L2522.2 70.848 Z" fill="#000000" fill-rule="nonzero" fill-opacity="1" /><path clip-path="url(#clip190)" d="M2566.39 74.9221 L2554.58 93.371 L2566.39 93.371 L2566.39 74.9221 M2565.16 70.848 L2571.04 70.848 L2571.04 93.371 L2575.97 93.371 L2575.97 97.2599 L2571.04 97.2599 L2571.04 105.408 L2566.39 105.408 L2566.39 97.2599 L2550.79 97.2599 L2550.79 92.746 L2565.16 70.848 Z" fill="#000000" fill-rule="nonzero" fill-opacity="1" /><path clip-path="url(#clip190)" d="M2583.7 99.5284 L2588.59 99.5284 L2588.59 105.408 L2583.7 105.408 L2583.7 99.5284 Z" fill="#000000" fill-rule="nonzero" fill-opacity="1" /><path clip-path="url(#clip190)" d="M2599.58 101.473 L2607.22 101.473 L2607.22 75.1072 L2598.91 76.7739 L2598.91 72.5147 L2607.18 70.848 L2611.85 70.848 L2611.85 101.473 L2619.49 101.473 L2619.49 105.408 L2599.58 105.408 L2599.58 101.473 Z" fill="#000000" fill-rule="nonzero" fill-opacity="1" /><path clip-path="url(#clip190)" d="M2641.78 74.9221 L2629.98 93.371 L2641.78 93.371 L2641.78 74.9221 M2640.56 70.848 L2646.44 70.848 L2646.44 93.371 L2651.37 93.371 L2651.37 97.2599 L2646.44 97.2599 L2646.44 105.408 L2641.78 105.408 L2641.78 97.2599 L2626.18 97.2599 L2626.18 92.746 L2640.56 70.848 Z" fill="#000000" fill-rule="nonzero" fill-opacity="1" /><path clip-path="url(#clip190)" d="M2659.91 101.473 L2667.55 101.473 L2667.55 75.1072 L2659.24 76.7739 L2659.24 72.5147 L2667.5 70.848 L2672.18 70.848 L2672.18 101.473 L2679.82 101.473 L2679.82 105.408 L2659.91 105.408 L2659.91 101.473 Z" fill="#000000" fill-rule="nonzero" fill-opacity="1" /><path clip-path="url(#clip190)" d="M2699.26 73.9267 Q2695.65 73.9267 2693.82 77.4915 Q2692.01 81.0331 2692.01 88.1627 Q2692.01 95.2692 2693.82 98.834 Q2695.65 102.376 2699.26 102.376 Q2702.89 102.376 2704.7 98.834 Q2706.53 95.2692 2706.53 88.1627 Q2706.53 81.0331 2704.7 77.4915 Q2702.89 73.9267 2699.26 73.9267 M2699.26 70.223 Q2705.07 70.223 2708.13 74.8295 Q2711.2 79.4128 2711.2 88.1627 Q2711.2 96.8895 2708.13 101.496 Q2705.07 106.079 2699.26 106.079 Q2693.45 106.079 2690.37 101.496 Q2687.32 96.8895 2687.32 88.1627 Q2687.32 79.4128 2690.37 74.8295 Q2693.45 70.223 2699.26 70.223 Z" fill="#000000" fill-rule="nonzero" fill-opacity="1" /><path clip-path="url(#clip190)" d="M2720.23 101.473 L2727.87 101.473 L2727.87 75.1072 L2719.56 76.7739 L2719.56 72.5147 L2727.82 70.848 L2732.5 70.848 L2732.5 101.473 L2740.14 101.473 L2740.14 105.408 L2720.23 105.408 L2720.23 101.473 Z" fill="#000000" fill-rule="nonzero" fill-opacity="1" /><path clip-path="url(#clip190)" d="M2748.4 70.848 L2770.62 70.848 L2770.62 72.8387 L2758.08 105.408 L2753.19 105.408 L2765 74.7832 L2748.4 74.7832 L2748.4 70.848 Z" fill="#000000" fill-rule="nonzero" fill-opacity="1" /><path clip-path="url(#clip193)" d="M1905.56 121.312 L1905.56 135.151 L3080.17 135.151 L3080.17 121.312 L1905.56 121.312 L1905.56 121.312  Z" fill="#c0c0c0" fill-rule="evenodd" fill-opacity="1"/>
<polyline clip-path="url(#clip193)" style="stroke:#000000; stroke-linecap:round; stroke-linejoin:round; stroke-width:4; stroke-opacity:1; fill:none" points="1905.56,121.312 1905.56,135.151 3080.17,135.151 3080.17,121.312 1905.56,121.312 "/>
<path clip-path="url(#clip193)" d="M1905.56 135.151 L1905.56 1226.25 L3080.17 1226.25 L3080.17 135.151 L1905.56 135.151 L1905.56 135.151  Z" fill="#ffff00" fill-rule="evenodd" fill-opacity="1"/>
<polyline clip-path="url(#clip193)" style="stroke:#000000; stroke-linecap:round; stroke-linejoin:round; stroke-width:4; stroke-opacity:1; fill:none" points="1905.56,135.151 1905.56,1226.25 3080.17,1226.25 3080.17,135.151 1905.56,135.151 "/>
<circle clip-path="url(#clip193)" style="fill:#ffff00; stroke:none; fill-opacity:0" cx="2492.86" cy="135.151" r="2"/>
<path clip-path="url(#clip193)" d="M1905.56 1226.25 L1905.56 1303.02 L3080.17 1303.02 L3080.17 1226.25 L1905.56 1226.25 L1905.56 1226.25  Z" fill="#00bfff" fill-rule="evenodd" fill-opacity="1"/>
<polyline clip-path="url(#clip193)" style="stroke:#000000; stroke-linecap:round; stroke-linejoin:round; stroke-width:4; stroke-opacity:1; fill:none" points="1905.56,1226.25 1905.56,1303.02 3080.17,1303.02 3080.17,1226.25 1905.56,1226.25 "/>
<circle clip-path="url(#clip193)" style="fill:#00bfff; stroke:none; fill-opacity:0" cx="2492.86" cy="1226.25" r="2"/>
<path clip-path="url(#clip193)" d="M1905.56 1303.02 L1905.56 1752.76 L3080.17 1752.76 L3080.17 1303.02 L1905.56 1303.02 L1905.56 1303.02  Z" fill="#cd3278" fill-rule="evenodd" fill-opacity="1"/>
<polyline clip-path="url(#clip193)" style="stroke:#000000; stroke-linecap:round; stroke-linejoin:round; stroke-width:4; stroke-opacity:1; fill:none" points="1905.56,1303.02 1905.56,1752.76 3080.17,1752.76 3080.17,1303.02 1905.56,1303.02 "/>
<circle clip-path="url(#clip193)" style="fill:#cd3278; stroke:none; fill-opacity:0" cx="2492.86" cy="1303.02" r="2"/>
</svg>
