<?xml version="1.0" encoding="utf-8"?>
<svg xmlns="http://www.w3.org/2000/svg" xmlns:xlink="http://www.w3.org/1999/xlink" width="400" height="450" viewBox="0 0 1600 1800">
<defs>
  <clipPath id="clip010">
    <rect x="0" y="0" width="1600" height="1800"/>
  </clipPath>
</defs>
<path clip-path="url(#clip010)" d="M0 1800 L1600 1800 L1600 0 L0 0  Z" fill="#ffffff" fill-rule="evenodd" fill-opacity="1"/>
<defs>
  <clipPath id="clip011">
    <rect x="360" y="180" width="1261" height="1261"/>
  </clipPath>
</defs>
<path clip-path="url(#clip010)" d="M213.757 1752.76 L1552.76 1752.76 L1552.76 244.432 L213.757 244.432  Z" fill="#ffffff" fill-rule="evenodd" fill-opacity="1"/>
<defs>
  <clipPath id="clip012">
    <rect x="213" y="244" width="1340" height="1509"/>
  </clipPath>
</defs>
<polyline clip-path="url(#clip010)" style="stroke:#000000; stroke-linecap:round; stroke-linejoin:round; stroke-width:4; stroke-opacity:1; fill:none" points="213.757,1752.76 1552.76,1752.76 "/>
<polyline clip-path="url(#clip012)" style="stroke:#000000; stroke-linecap:round; stroke-linejoin:round; stroke-width:2; stroke-opacity:0.1; fill:none" points="213.757,1752.76 1552.76,1752.76 "/>
<polyline clip-path="url(#clip012)" style="stroke:#000000; stroke-linecap:round; stroke-linejoin:round; stroke-width:2; stroke-opacity:0.1; fill:none" points="213.757,1420.42 1552.76,1420.42 "/>
<polyline clip-path="url(#clip012)" style="stroke:#000000; stroke-linecap:round; stroke-linejoin:round; stroke-width:2; stroke-opacity:0.1; fill:none" points="213.757,1088.08 1552.76,1088.08 "/>
<polyline clip-path="url(#clip012)" style="stroke:#000000; stroke-linecap:round; stroke-linejoin:round; stroke-width:2; stroke-opacity:0.1; fill:none" points="213.757,755.746 1552.76,755.746 "/>
<polyline clip-path="url(#clip012)" style="stroke:#000000; stroke-linecap:round; stroke-linejoin:round; stroke-width:2; stroke-opacity:0.1; fill:none" points="213.757,423.409 1552.76,423.409 "/>
<polyline clip-path="url(#clip010)" style="stroke:#000000; stroke-linecap:round; stroke-linejoin:round; stroke-width:4; stroke-opacity:1; fill:none" points="213.757,1752.76 213.757,244.432 "/>
<polyline clip-path="url(#clip010)" style="stroke:#000000; stroke-linecap:round; stroke-linejoin:round; stroke-width:4; stroke-opacity:1; fill:none" points="213.757,1752.76 232.654,1752.76 "/>
<polyline clip-path="url(#clip010)" style="stroke:#000000; stroke-linecap:round; stroke-linejoin:round; stroke-width:4; stroke-opacity:1; fill:none" points="213.757,1420.42 232.654,1420.42 "/>
<polyline clip-path="url(#clip010)" style="stroke:#000000; stroke-linecap:round; stroke-linejoin:round; stroke-width:4; stroke-opacity:1; fill:none" points="213.757,1088.08 232.654,1088.08 "/>
<polyline clip-path="url(#clip010)" style="stroke:#000000; stroke-linecap:round; stroke-linejoin:round; stroke-width:4; stroke-opacity:1; fill:none" points="213.757,755.746 232.654,755.746 "/>
<polyline clip-path="url(#clip010)" style="stroke:#000000; stroke-linecap:round; stroke-linejoin:round; stroke-width:4; stroke-opacity:1; fill:none" points="213.757,423.409 232.654,423.409 "/>
<path clip-path="url(#clip010)" d="M174.812 1738.55 Q171.201 1738.55 169.372 1742.12 Q167.567 1745.66 167.567 1752.79 Q167.567 1759.9 169.372 1763.46 Q171.201 1767 174.812 1767 Q178.446 1767 180.252 1763.46 Q182.081 1759.9 182.081 1752.79 Q182.081 1745.66 180.252 1742.12 Q178.446 1738.55 174.812 1738.55 M174.812 1734.85 Q180.622 1734.85 183.678 1739.46 Q186.757 1744.04 186.757 1752.79 Q186.757 1761.52 183.678 1766.12 Q180.622 1770.71 174.812 1770.71 Q169.002 1770.71 165.923 1766.12 Q162.868 1761.52 162.868 1752.79 Q162.868 1744.04 165.923 1739.46 Q169.002 1734.85 174.812 1734.85 Z" fill="#000000" fill-rule="nonzero" fill-opacity="1" /><path clip-path="url(#clip010)" d="M165.854 1403.14 L184.21 1403.14 L184.21 1407.07 L170.136 1407.07 L170.136 1415.55 Q171.155 1415.2 172.173 1415.04 Q173.192 1414.85 174.21 1414.85 Q179.997 1414.85 183.377 1418.02 Q186.757 1421.19 186.757 1426.61 Q186.757 1432.19 183.284 1435.29 Q179.812 1438.37 173.493 1438.37 Q171.317 1438.37 169.048 1438 Q166.803 1437.63 164.396 1436.89 L164.396 1432.19 Q166.479 1433.32 168.701 1433.88 Q170.923 1434.44 173.4 1434.44 Q177.405 1434.44 179.743 1432.33 Q182.081 1430.22 182.081 1426.61 Q182.081 1423 179.743 1420.89 Q177.405 1418.79 173.4 1418.79 Q171.525 1418.79 169.65 1419.2 Q167.798 1419.62 165.854 1420.5 L165.854 1403.14 Z" fill="#000000" fill-rule="nonzero" fill-opacity="1" /><path clip-path="url(#clip010)" d="M135.461 1101.43 L143.099 1101.43 L143.099 1075.06 L134.789 1076.73 L134.789 1072.47 L143.053 1070.8 L147.729 1070.8 L147.729 1101.43 L155.368 1101.43 L155.368 1105.36 L135.461 1105.36 L135.461 1101.43 Z" fill="#000000" fill-rule="nonzero" fill-opacity="1" /><path clip-path="url(#clip010)" d="M174.812 1073.88 Q171.201 1073.88 169.372 1077.45 Q167.567 1080.99 167.567 1088.12 Q167.567 1095.22 169.372 1098.79 Q171.201 1102.33 174.812 1102.33 Q178.446 1102.33 180.252 1098.79 Q182.081 1095.22 182.081 1088.12 Q182.081 1080.99 180.252 1077.45 Q178.446 1073.88 174.812 1073.88 M174.812 1070.18 Q180.622 1070.18 183.678 1074.78 Q186.757 1079.37 186.757 1088.12 Q186.757 1096.84 183.678 1101.45 Q180.622 1106.03 174.812 1106.03 Q169.002 1106.03 165.923 1101.45 Q162.868 1096.84 162.868 1088.12 Q162.868 1079.37 165.923 1074.78 Q169.002 1070.18 174.812 1070.18 Z" fill="#000000" fill-rule="nonzero" fill-opacity="1" /><path clip-path="url(#clip010)" d="M136.456 769.091 L144.095 769.091 L144.095 742.725 L135.785 744.392 L135.785 740.133 L144.048 738.466 L148.724 738.466 L148.724 769.091 L156.363 769.091 L156.363 773.026 L136.456 773.026 L136.456 769.091 Z" fill="#000000" fill-rule="nonzero" fill-opacity="1" /><path clip-path="url(#clip010)" d="M165.854 738.466 L184.21 738.466 L184.21 742.401 L170.136 742.401 L170.136 750.873 Q171.155 750.526 172.173 750.364 Q173.192 750.179 174.21 750.179 Q179.997 750.179 183.377 753.35 Q186.757 756.521 186.757 761.938 Q186.757 767.517 183.284 770.618 Q179.812 773.697 173.493 773.697 Q171.317 773.697 169.048 773.327 Q166.803 772.956 164.396 772.216 L164.396 767.517 Q166.479 768.651 168.701 769.206 Q170.923 769.762 173.4 769.762 Q177.405 769.762 179.743 767.656 Q182.081 765.549 182.081 761.938 Q182.081 758.327 179.743 756.22 Q177.405 754.114 173.4 754.114 Q171.525 754.114 169.65 754.531 Q167.798 754.947 165.854 755.827 L165.854 738.466 Z" fill="#000000" fill-rule="nonzero" fill-opacity="1" /><path clip-path="url(#clip010)" d="M138.678 436.754 L154.997 436.754 L154.997 440.689 L133.053 440.689 L133.053 436.754 Q135.715 433.999 140.298 429.37 Q144.905 424.717 146.085 423.374 Q148.331 420.851 149.21 419.115 Q150.113 417.356 150.113 415.666 Q150.113 412.912 148.169 411.175 Q146.247 409.439 143.146 409.439 Q140.947 409.439 138.493 410.203 Q136.062 410.967 133.285 412.518 L133.285 407.796 Q136.109 406.662 138.562 406.083 Q141.016 405.504 143.053 405.504 Q148.423 405.504 151.618 408.189 Q154.812 410.875 154.812 415.365 Q154.812 417.495 154.002 419.416 Q153.215 421.314 151.109 423.907 Q150.53 424.578 147.428 427.796 Q144.326 430.99 138.678 436.754 Z" fill="#000000" fill-rule="nonzero" fill-opacity="1" /><path clip-path="url(#clip010)" d="M174.812 409.208 Q171.201 409.208 169.372 412.773 Q167.567 416.314 167.567 423.444 Q167.567 430.55 169.372 434.115 Q171.201 437.657 174.812 437.657 Q178.446 437.657 180.252 434.115 Q182.081 430.55 182.081 423.444 Q182.081 416.314 180.252 412.773 Q178.446 409.208 174.812 409.208 M174.812 405.504 Q180.622 405.504 183.678 410.111 Q186.757 414.694 186.757 423.444 Q186.757 432.171 183.678 436.777 Q180.622 441.36 174.812 441.36 Q169.002 441.36 165.923 436.777 Q162.868 432.171 162.868 423.444 Q162.868 414.694 165.923 410.111 Q169.002 405.504 174.812 405.504 Z" fill="#000000" fill-rule="nonzero" fill-opacity="1" /><path clip-path="url(#clip010)" d="M85.0176 1018.04 L72.2544 1018.04 L72.2544 1028.54 L66.9709 1028.54 L66.9709 1011.68 L87.3729 1011.68 Q90.0147 1015.4 91.3833 1019.89 Q92.7201 1024.38 92.7201 1029.47 Q92.7201 1040.61 86.2271 1046.91 Q79.7023 1053.18 68.0849 1053.18 Q56.4356 1053.18 49.9426 1046.91 Q43.4177 1040.61 43.4177 1029.47 Q43.4177 1024.82 44.5636 1020.65 Q45.7094 1016.45 47.9374 1012.92 L54.7805 1012.92 Q51.7568 1016.48 50.229 1020.49 Q48.7013 1024.5 48.7013 1028.93 Q48.7013 1037.65 53.571 1042.04 Q58.4408 1046.4 68.0849 1046.4 Q77.6971 1046.4 82.5668 1042.04 Q87.4366 1037.65 87.4366 1028.93 Q87.4366 1025.52 86.8637 1022.85 Q86.2589 1020.17 85.0176 1018.04 Z" fill="#000000" fill-rule="nonzero" fill-opacity="1" /><path clip-path="url(#clip010)" d="M44.2771 1004.16 L44.2771 997.671 L84.4447 987.677 L44.2771 977.714 L44.2771 970.489 L84.4447 960.495 L44.2771 950.533 L44.2771 944.008 L91.7971 955.944 L91.7971 964.028 L50.5473 974.054 L91.7971 984.176 L91.7971 992.26 L44.2771 1004.16 Z" fill="#000000" fill-rule="nonzero" fill-opacity="1" /><path clip-path="url(#clip010)" d="M431.763 33.264 L442.781 33.264 L469.598 83.8598 L469.598 33.264 L477.538 33.264 L477.538 93.744 L466.519 93.744 L439.702 43.1482 L439.702 93.744 L431.763 93.744 L431.763 33.264 Z" fill="#000000" fill-rule="nonzero" fill-opacity="1" /><path clip-path="url(#clip010)" d="M511.079 53.5995 Q505.084 53.5995 501.6 58.2986 Q498.116 62.9571 498.116 71.0994 Q498.116 79.2418 501.56 83.9408 Q505.044 88.5994 511.079 88.5994 Q517.034 88.5994 520.518 83.9003 Q524.002 79.2013 524.002 71.0994 Q524.002 63.0381 520.518 58.3391 Q517.034 53.5995 511.079 53.5995 M511.079 47.2801 Q520.802 47.2801 526.351 53.5995 Q531.901 59.9189 531.901 71.0994 Q531.901 82.2394 526.351 88.5994 Q520.802 94.9188 511.079 94.9188 Q501.317 94.9188 495.767 88.5994 Q490.258 82.2394 490.258 71.0994 Q490.258 59.9189 495.767 53.5995 Q501.317 47.2801 511.079 47.2801 Z" fill="#000000" fill-rule="nonzero" fill-opacity="1" /><path clip-path="url(#clip010)" d="M570.952 33.264 L609.192 33.264 L609.192 40.1505 L579.135 40.1505 L579.135 58.0555 L607.937 58.0555 L607.937 64.9421 L579.135 64.9421 L579.135 86.8575 L609.921 86.8575 L609.921 93.744 L570.952 93.744 L570.952 33.264 Z" fill="#000000" fill-rule="nonzero" fill-opacity="1" /><path clip-path="url(#clip010)" d="M658.37 57.0833 Q661.165 52.0602 665.054 49.6702 Q668.943 47.2801 674.209 47.2801 Q681.298 47.2801 685.147 52.2627 Q688.995 57.2048 688.995 66.3599 L688.995 93.744 L681.501 93.744 L681.501 66.6029 Q681.501 60.081 679.192 56.9213 Q676.883 53.7616 672.143 53.7616 Q666.351 53.7616 662.988 57.6099 Q659.626 61.4583 659.626 68.1018 L659.626 93.744 L652.132 93.744 L652.132 66.6029 Q652.132 60.0405 649.823 56.9213 Q647.514 53.7616 642.693 53.7616 Q636.981 53.7616 633.619 57.6504 Q630.257 61.4988 630.257 68.1018 L630.257 93.744 L622.763 93.744 L622.763 48.3739 L630.257 48.3739 L630.257 55.4224 Q632.809 51.25 636.374 49.2651 Q639.939 47.2801 644.84 47.2801 Q649.782 47.2801 653.226 49.7917 Q656.709 52.3032 658.37 57.0833 Z" fill="#000000" fill-rule="nonzero" fill-opacity="1" /><path clip-path="url(#clip010)" d="M703.862 48.3739 L711.316 48.3739 L711.316 93.744 L703.862 93.744 L703.862 48.3739 M703.862 30.7119 L711.316 30.7119 L711.316 40.1505 L703.862 40.1505 L703.862 30.7119 Z" fill="#000000" fill-rule="nonzero" fill-opacity="1" /><path clip-path="url(#clip010)" d="M755.835 49.7107 L755.835 56.7592 Q752.675 55.1389 749.273 54.3287 Q745.87 53.5185 742.224 53.5185 Q736.674 53.5185 733.879 55.2199 Q731.125 56.9213 731.125 60.324 Q731.125 62.9166 733.109 64.4155 Q735.094 65.8738 741.09 67.2106 L743.642 67.7777 Q751.582 69.4791 754.903 72.5983 Q758.266 75.677 758.266 81.2267 Q758.266 87.5461 753.242 91.2324 Q748.26 94.9188 739.51 94.9188 Q735.864 94.9188 731.894 94.1896 Q727.965 93.5009 723.59 92.0831 L723.59 84.3864 Q727.722 86.5334 731.732 87.6271 Q735.743 88.6804 739.672 88.6804 Q744.938 88.6804 747.774 86.898 Q750.609 85.0751 750.609 81.7938 Q750.609 78.7557 748.543 77.1353 Q746.518 75.5149 739.591 74.0161 L736.998 73.4085 Q730.071 71.9501 726.993 68.9525 Q723.914 65.9143 723.914 60.6481 Q723.914 54.2477 728.451 50.7639 Q732.988 47.2801 741.333 47.2801 Q745.465 47.2801 749.111 47.8878 Q752.756 48.4954 755.835 49.7107 Z" fill="#000000" fill-rule="nonzero" fill-opacity="1" /><path clip-path="url(#clip010)" d="M799.058 49.7107 L799.058 56.7592 Q795.898 55.1389 792.496 54.3287 Q789.093 53.5185 785.447 53.5185 Q779.897 53.5185 777.102 55.2199 Q774.348 56.9213 774.348 60.324 Q774.348 62.9166 776.333 64.4155 Q778.318 65.8738 784.313 67.2106 L786.865 67.7777 Q794.805 69.4791 798.126 72.5983 Q801.489 75.677 801.489 81.2267 Q801.489 87.5461 796.466 91.2324 Q791.483 94.9188 782.733 94.9188 Q779.087 94.9188 775.117 94.1896 Q771.188 93.5009 766.813 92.0831 L766.813 84.3864 Q770.945 86.5334 774.955 87.6271 Q778.966 88.6804 782.895 88.6804 Q788.161 88.6804 790.997 86.898 Q793.833 85.0751 793.833 81.7938 Q793.833 78.7557 791.767 77.1353 Q789.741 75.5149 782.814 74.0161 L780.221 73.4085 Q773.294 71.9501 770.216 68.9525 Q767.137 65.9143 767.137 60.6481 Q767.137 54.2477 771.674 50.7639 Q776.211 47.2801 784.556 47.2801 Q788.688 47.2801 792.334 47.8878 Q795.979 48.4954 799.058 49.7107 Z" fill="#000000" fill-rule="nonzero" fill-opacity="1" /><path clip-path="url(#clip010)" d="M813.358 48.3739 L820.812 48.3739 L820.812 93.744 L813.358 93.744 L813.358 48.3739 M813.358 30.7119 L820.812 30.7119 L820.812 40.1505 L813.358 40.1505 L813.358 30.7119 Z" fill="#000000" fill-rule="nonzero" fill-opacity="1" /><path clip-path="url(#clip010)" d="M853.988 53.5995 Q847.993 53.5995 844.509 58.2986 Q841.026 62.9571 841.026 71.0994 Q841.026 79.2418 844.469 83.9408 Q847.953 88.5994 853.988 88.5994 Q859.943 88.5994 863.427 83.9003 Q866.911 79.2013 866.911 71.0994 Q866.911 63.0381 863.427 58.3391 Q859.943 53.5995 853.988 53.5995 M853.988 47.2801 Q863.711 47.2801 869.26 53.5995 Q874.81 59.9189 874.81 71.0994 Q874.81 82.2394 869.26 88.5994 Q863.711 94.9188 853.988 94.9188 Q844.226 94.9188 838.676 88.5994 Q833.167 82.2394 833.167 71.0994 Q833.167 59.9189 838.676 53.5995 Q844.226 47.2801 853.988 47.2801 Z" fill="#000000" fill-rule="nonzero" fill-opacity="1" /><path clip-path="url(#clip010)" d="M924.879 66.3599 L924.879 93.744 L917.426 93.744 L917.426 66.6029 Q917.426 60.162 914.914 56.9618 Q912.402 53.7616 907.379 53.7616 Q901.344 53.7616 897.86 57.6099 Q894.376 61.4583 894.376 68.1018 L894.376 93.744 L886.882 93.744 L886.882 48.3739 L894.376 48.3739 L894.376 55.4224 Q897.05 51.331 900.655 49.3056 Q904.301 47.2801 909.04 47.2801 Q916.858 47.2801 920.869 52.1412 Q924.879 56.9618 924.879 66.3599 Z" fill="#000000" fill-rule="nonzero" fill-opacity="1" /><path clip-path="url(#clip010)" d="M968.67 49.7107 L968.67 56.7592 Q965.51 55.1389 962.107 54.3287 Q958.704 53.5185 955.058 53.5185 Q949.509 53.5185 946.714 55.2199 Q943.959 56.9213 943.959 60.324 Q943.959 62.9166 945.944 64.4155 Q947.929 65.8738 953.924 67.2106 L956.476 67.7777 Q964.416 69.4791 967.738 72.5983 Q971.1 75.677 971.1 81.2267 Q971.1 87.5461 966.077 91.2324 Q961.094 94.9188 952.344 94.9188 Q948.699 94.9188 944.729 94.1896 Q940.799 93.5009 936.424 92.0831 L936.424 84.3864 Q940.556 86.5334 944.567 87.6271 Q948.577 88.6804 952.506 88.6804 Q957.773 88.6804 960.608 86.898 Q963.444 85.0751 963.444 81.7938 Q963.444 78.7557 961.378 77.1353 Q959.352 75.5149 952.425 74.0161 L949.833 73.4085 Q942.906 71.9501 939.827 68.9525 Q936.748 65.9143 936.748 60.6481 Q936.748 54.2477 941.285 50.7639 Q945.822 47.2801 954.167 47.2801 Q958.299 47.2801 961.945 47.8878 Q965.591 48.4954 968.67 49.7107 Z" fill="#000000" fill-rule="nonzero" fill-opacity="1" /><path clip-path="url(#clip010)" d="M1017.85 39.9885 L1017.85 62.7141 L1028.14 62.7141 Q1033.85 62.7141 1036.97 59.7569 Q1040.09 56.7998 1040.09 51.331 Q1040.09 45.9028 1036.97 42.9457 Q1033.85 39.9885 1028.14 39.9885 L1017.85 39.9885 M1009.66 33.264 L1028.14 33.264 Q1038.3 33.264 1043.49 37.882 Q1048.72 42.4596 1048.72 51.331 Q1048.72 60.2835 1043.49 64.8611 Q1038.3 69.4386 1028.14 69.4386 L1017.85 69.4386 L1017.85 93.744 L1009.66 93.744 L1009.66 33.264 Z" fill="#000000" fill-rule="nonzero" fill-opacity="1" /><path clip-path="url(#clip010)" d="M1073.99 53.5995 Q1068 53.5995 1064.51 58.2986 Q1061.03 62.9571 1061.03 71.0994 Q1061.03 79.2418 1064.47 83.9408 Q1067.96 88.5994 1073.99 88.5994 Q1079.95 88.5994 1083.43 83.9003 Q1086.92 79.2013 1086.92 71.0994 Q1086.92 63.0381 1083.43 58.3391 Q1079.95 53.5995 1073.99 53.5995 M1073.99 47.2801 Q1083.72 47.2801 1089.26 53.5995 Q1094.81 59.9189 1094.81 71.0994 Q1094.81 82.2394 1089.26 88.5994 Q1083.72 94.9188 1073.99 94.9188 Q1064.23 94.9188 1058.68 88.5994 Q1053.17 82.2394 1053.17 71.0994 Q1053.17 59.9189 1058.68 53.5995 Q1064.23 47.2801 1073.99 47.2801 Z" fill="#000000" fill-rule="nonzero" fill-opacity="1" /><path clip-path="url(#clip010)" d="M1107.17 30.7119 L1114.62 30.7119 L1114.62 93.744 L1107.17 93.744 L1107.17 30.7119 Z" fill="#000000" fill-rule="nonzero" fill-opacity="1" /><path clip-path="url(#clip010)" d="M1130.22 48.3739 L1137.67 48.3739 L1137.67 93.744 L1130.22 93.744 L1130.22 48.3739 M1130.22 30.7119 L1137.67 30.7119 L1137.67 40.1505 L1130.22 40.1505 L1130.22 30.7119 Z" fill="#000000" fill-rule="nonzero" fill-opacity="1" /><path clip-path="url(#clip010)" d="M1185.92 50.1158 L1185.92 57.0833 Q1182.76 55.3414 1179.56 54.4907 Q1176.4 53.5995 1173.16 53.5995 Q1165.91 53.5995 1161.9 58.2176 Q1157.89 62.7951 1157.89 71.0994 Q1157.89 79.4038 1161.9 84.0218 Q1165.91 88.5994 1173.16 88.5994 Q1176.4 88.5994 1179.56 87.7487 Q1182.76 86.8575 1185.92 85.1156 L1185.92 92.0021 Q1182.8 93.4604 1179.44 94.1896 Q1176.12 94.9188 1172.35 94.9188 Q1162.1 94.9188 1156.06 88.4778 Q1150.03 82.0369 1150.03 71.0994 Q1150.03 60 1156.1 53.64 Q1162.22 47.2801 1172.84 47.2801 Q1176.28 47.2801 1179.56 48.0093 Q1182.84 48.6979 1185.92 50.1158 Z" fill="#000000" fill-rule="nonzero" fill-opacity="1" /><path clip-path="url(#clip010)" d="M1198.88 48.3739 L1206.34 48.3739 L1206.34 93.744 L1198.88 93.744 L1198.88 48.3739 M1198.88 30.7119 L1206.34 30.7119 L1206.34 40.1505 L1198.88 40.1505 L1198.88 30.7119 Z" fill="#000000" fill-rule="nonzero" fill-opacity="1" /><path clip-path="url(#clip010)" d="M1260.74 69.1955 L1260.74 72.8413 L1226.47 72.8413 Q1226.96 80.5381 1231.09 84.589 Q1235.26 88.5994 1242.67 88.5994 Q1246.97 88.5994 1250.98 87.5461 Q1255.03 86.4929 1259 84.3864 L1259 91.435 Q1254.99 93.1364 1250.77 94.0276 Q1246.56 94.9188 1242.23 94.9188 Q1231.37 94.9188 1225.01 88.5994 Q1218.69 82.2799 1218.69 71.5045 Q1218.69 60.3645 1224.69 53.8426 Q1230.72 47.2801 1240.93 47.2801 Q1250.09 47.2801 1255.39 53.1944 Q1260.74 59.0683 1260.74 69.1955 M1253.29 67.008 Q1253.21 60.8912 1249.84 57.2454 Q1246.52 53.5995 1241.01 53.5995 Q1234.77 53.5995 1231.01 57.1238 Q1227.28 60.6481 1226.71 67.0485 L1253.29 67.008 Z" fill="#000000" fill-rule="nonzero" fill-opacity="1" /><path clip-path="url(#clip010)" d="M1301.9 49.7107 L1301.9 56.7592 Q1298.74 55.1389 1295.33 54.3287 Q1291.93 53.5185 1288.29 53.5185 Q1282.74 53.5185 1279.94 55.2199 Q1277.19 56.9213 1277.19 60.324 Q1277.19 62.9166 1279.17 64.4155 Q1281.16 65.8738 1287.15 67.2106 L1289.7 67.7777 Q1297.64 69.4791 1300.97 72.5983 Q1304.33 75.677 1304.33 81.2267 Q1304.33 87.5461 1299.3 91.2324 Q1294.32 94.9188 1285.57 94.9188 Q1281.93 94.9188 1277.96 94.1896 Q1274.03 93.5009 1269.65 92.0831 L1269.65 84.3864 Q1273.78 86.5334 1277.79 87.6271 Q1281.8 88.6804 1285.73 88.6804 Q1291 88.6804 1293.84 86.898 Q1296.67 85.0751 1296.67 81.7938 Q1296.67 78.7557 1294.61 77.1353 Q1292.58 75.5149 1285.65 74.0161 L1283.06 73.4085 Q1276.13 71.9501 1273.05 68.9525 Q1269.98 65.9143 1269.98 60.6481 Q1269.98 54.2477 1274.51 50.7639 Q1279.05 47.2801 1287.39 47.2801 Q1291.53 47.2801 1295.17 47.8878 Q1298.82 48.4954 1301.9 49.7107 Z" fill="#000000" fill-rule="nonzero" fill-opacity="1" /><path clip-path="url(#clip010)" d="M482.703 129.534 Q473.791 129.534 468.525 136.177 Q463.299 142.821 463.299 154.285 Q463.299 165.708 468.525 172.352 Q473.791 178.995 482.703 178.995 Q491.615 178.995 496.8 172.352 Q502.026 165.708 502.026 154.285 Q502.026 142.821 496.8 136.177 Q491.615 129.534 482.703 129.534 M482.703 122.89 Q495.423 122.89 503.038 131.438 Q510.654 139.945 510.654 154.285 Q510.654 168.584 503.038 177.132 Q495.423 185.639 482.703 185.639 Q469.942 185.639 462.286 177.132 Q454.671 168.625 454.671 154.285 Q454.671 139.945 462.286 131.438 Q469.942 122.89 482.703 122.89 Z" fill="#000000" fill-rule="nonzero" fill-opacity="1" /><path clip-path="url(#clip010)" d="M555.7 161.819 Q555.7 153.596 552.297 148.938 Q548.935 144.239 543.021 144.239 Q537.106 144.239 533.704 148.938 Q530.341 153.596 530.341 161.819 Q530.341 170.043 533.704 174.742 Q537.106 179.4 543.021 179.4 Q548.935 179.4 552.297 174.742 Q555.7 170.043 555.7 161.819 M530.341 145.98 Q532.691 141.93 536.256 139.985 Q539.861 138 544.844 138 Q553.108 138 558.252 144.563 Q563.437 151.125 563.437 161.819 Q563.437 172.514 558.252 179.076 Q553.108 185.639 544.844 185.639 Q539.861 185.639 536.256 183.694 Q532.691 181.709 530.341 177.658 L530.341 184.464 L522.847 184.464 L522.847 121.432 L530.341 121.432 L530.341 145.98 Z" fill="#000000" fill-rule="nonzero" fill-opacity="1" /><path clip-path="url(#clip010)" d="M575.793 139.094 L583.246 139.094 L583.246 185.274 Q583.246 193.943 579.925 197.832 Q576.643 201.721 569.311 201.721 L566.476 201.721 L566.476 195.401 L568.46 195.401 Q572.714 195.401 574.253 193.416 Q575.793 191.472 575.793 185.274 L575.793 139.094 M575.793 121.432 L583.246 121.432 L583.246 130.871 L575.793 130.871 L575.793 121.432 Z" fill="#000000" fill-rule="nonzero" fill-opacity="1" /><path clip-path="url(#clip010)" d="M641.134 184.464 L618.044 123.984 L626.591 123.984 L645.752 174.904 L664.953 123.984 L673.46 123.984 L650.41 184.464 L641.134 184.464 Z" fill="#000000" fill-rule="nonzero" fill-opacity="1" /><path clip-path="url(#clip010)" d="M696.145 161.657 Q687.111 161.657 683.628 163.723 Q680.144 165.789 680.144 170.772 Q680.144 174.742 682.736 177.091 Q685.37 179.4 689.866 179.4 Q696.064 179.4 699.791 175.025 Q703.558 170.61 703.558 163.318 L703.558 161.657 L696.145 161.657 M711.012 158.579 L711.012 184.464 L703.558 184.464 L703.558 177.577 Q701.006 181.709 697.198 183.694 Q693.39 185.639 687.881 185.639 Q680.914 185.639 676.782 181.75 Q672.69 177.821 672.69 171.258 Q672.69 163.602 677.794 159.713 Q682.939 155.824 693.107 155.824 L703.558 155.824 L703.558 155.095 Q703.558 149.95 700.155 147.155 Q696.793 144.32 690.676 144.32 Q686.787 144.32 683.101 145.251 Q679.415 146.183 676.012 148.046 L676.012 141.16 Q680.103 139.58 683.952 138.81 Q687.8 138 691.446 138 Q701.29 138 706.151 143.104 Q711.012 148.208 711.012 158.579 Z" fill="#000000" fill-rule="nonzero" fill-opacity="1" /><path clip-path="url(#clip010)" d="M726.365 121.432 L733.818 121.432 L733.818 184.464 L726.365 184.464 L726.365 121.432 Z" fill="#000000" fill-rule="nonzero" fill-opacity="1" /><path clip-path="url(#clip010)" d="M751.318 174.175 L759.866 174.175 L759.866 184.464 L751.318 184.464 L751.318 174.175 M751.318 141.565 L759.866 141.565 L759.866 151.854 L751.318 151.854 L751.318 141.565 Z" fill="#000000" fill-rule="nonzero" fill-opacity="1" /><path clip-path="url(#clip010)" d="M827.273 131.114 L806.613 163.399 L827.273 163.399 L827.273 131.114 M825.126 123.984 L835.415 123.984 L835.415 163.399 L844.043 163.399 L844.043 170.205 L835.415 170.205 L835.415 184.464 L827.273 184.464 L827.273 170.205 L799.97 170.205 L799.97 162.306 L825.126 123.984 Z" fill="#000000" fill-rule="nonzero" fill-opacity="1" /><path clip-path="url(#clip010)" d="M880.056 131.114 L859.396 163.399 L880.056 163.399 L880.056 131.114 M877.909 123.984 L888.198 123.984 L888.198 163.399 L896.827 163.399 L896.827 170.205 L888.198 170.205 L888.198 184.464 L880.056 184.464 L880.056 170.205 L852.753 170.205 L852.753 162.306 L877.909 123.984 Z" fill="#000000" fill-rule="nonzero" fill-opacity="1" /><path clip-path="url(#clip010)" d="M910.6 183.208 L910.6 175.755 Q913.679 177.213 916.838 177.983 Q919.998 178.752 923.036 178.752 Q931.138 178.752 935.391 173.324 Q939.685 167.855 940.293 156.756 Q937.943 160.24 934.338 162.103 Q930.733 163.966 926.358 163.966 Q917.284 163.966 911.977 158.498 Q906.711 152.988 906.711 143.469 Q906.711 134.152 912.22 128.521 Q917.729 122.89 926.884 122.89 Q937.376 122.89 942.886 130.952 Q948.435 138.972 948.435 154.285 Q948.435 168.584 941.63 177.132 Q934.865 185.639 923.401 185.639 Q920.322 185.639 917.162 185.031 Q914.003 184.423 910.6 183.208 M926.884 157.566 Q932.394 157.566 935.594 153.799 Q938.835 150.031 938.835 143.469 Q938.835 136.947 935.594 133.18 Q932.394 129.372 926.884 129.372 Q921.375 129.372 918.135 133.18 Q914.934 136.947 914.934 143.469 Q914.934 150.031 918.135 153.799 Q921.375 157.566 926.884 157.566 Z" fill="#000000" fill-rule="nonzero" fill-opacity="1" /><path clip-path="url(#clip010)" d="M961.074 123.984 L999.963 123.984 L999.963 127.468 L978.007 184.464 L969.459 184.464 L990.119 130.871 L961.074 130.871 L961.074 123.984 Z" fill="#000000" fill-rule="nonzero" fill-opacity="1" /><path clip-path="url(#clip010)" d="M1015.92 174.175 L1024.47 174.175 L1024.47 184.464 L1015.92 184.464 L1015.92 174.175 Z" fill="#000000" fill-rule="nonzero" fill-opacity="1" /><path clip-path="url(#clip010)" d="M1067.09 151.854 Q1072.96 153.11 1076.24 157.08 Q1079.56 161.05 1079.56 166.883 Q1079.56 175.836 1073.41 180.737 Q1067.25 185.639 1055.91 185.639 Q1052.1 185.639 1048.05 184.869 Q1044.04 184.14 1039.74 182.641 L1039.74 174.742 Q1043.15 176.727 1047.2 177.739 Q1051.25 178.752 1055.66 178.752 Q1063.36 178.752 1067.37 175.714 Q1071.42 172.676 1071.42 166.883 Q1071.42 161.536 1067.65 158.538 Q1063.93 155.5 1057.24 155.5 L1050.19 155.5 L1050.19 148.776 L1057.57 148.776 Q1063.6 148.776 1066.8 146.386 Q1070 143.955 1070 139.418 Q1070 134.759 1066.68 132.288 Q1063.4 129.777 1057.24 129.777 Q1053.88 129.777 1050.03 130.506 Q1046.18 131.235 1041.57 132.774 L1041.57 125.483 Q1046.22 124.187 1050.27 123.538 Q1054.37 122.89 1057.97 122.89 Q1067.29 122.89 1072.72 127.144 Q1078.15 131.357 1078.15 138.567 Q1078.15 143.59 1075.27 147.074 Q1072.39 150.517 1067.09 151.854 Z" fill="#000000" fill-rule="nonzero" fill-opacity="1" /><path clip-path="url(#clip010)" d="M1096.5 177.577 L1109.86 177.577 L1109.86 131.438 L1095.32 134.354 L1095.32 126.901 L1109.78 123.984 L1117.97 123.984 L1117.97 177.577 L1131.33 177.577 L1131.33 184.464 L1096.5 184.464 L1096.5 177.577 Z" fill="#000000" fill-rule="nonzero" fill-opacity="1" /><path clip-path="url(#clip010)" d="M1154.91 177.577 L1183.47 177.577 L1183.47 184.464 L1145.07 184.464 L1145.07 177.577 Q1149.72 172.757 1157.75 164.655 Q1165.81 156.513 1167.87 154.163 Q1171.8 149.748 1173.34 146.71 Q1174.92 143.631 1174.92 140.674 Q1174.92 135.853 1171.52 132.815 Q1168.16 129.777 1162.73 129.777 Q1158.88 129.777 1154.59 131.114 Q1150.33 132.45 1145.47 135.164 L1145.47 126.901 Q1150.41 124.916 1154.71 123.903 Q1159 122.89 1162.57 122.89 Q1171.96 122.89 1177.55 127.589 Q1183.14 132.288 1183.14 140.147 Q1183.14 143.874 1181.73 147.236 Q1180.35 150.558 1176.66 155.095 Q1175.65 156.27 1170.22 161.9 Q1164.79 167.491 1154.91 177.577 Z" fill="#000000" fill-rule="nonzero" fill-opacity="1" /><path clip-path="url(#clip010)" d="M1202.06 177.577 L1215.43 177.577 L1215.43 131.438 L1200.89 134.354 L1200.89 126.901 L1215.35 123.984 L1223.53 123.984 L1223.53 177.577 L1236.9 177.577 L1236.9 184.464 L1202.06 184.464 L1202.06 177.577 Z" fill="#000000" fill-rule="nonzero" fill-opacity="1" /><path clip-path="url(#clip010)" d="M1270.93 155.743 Q1265.09 155.743 1261.73 158.862 Q1258.41 161.981 1258.41 167.45 Q1258.41 172.919 1261.73 176.038 Q1265.09 179.157 1270.93 179.157 Q1276.76 179.157 1280.12 176.038 Q1283.49 172.878 1283.49 167.45 Q1283.49 161.981 1280.12 158.862 Q1276.8 155.743 1270.93 155.743 M1262.74 152.259 Q1257.48 150.963 1254.52 147.358 Q1251.6 143.752 1251.6 138.567 Q1251.6 131.316 1256.75 127.103 Q1261.93 122.89 1270.93 122.89 Q1279.96 122.89 1285.11 127.103 Q1290.25 131.316 1290.25 138.567 Q1290.25 143.752 1287.29 147.358 Q1284.38 150.963 1279.15 152.259 Q1285.07 153.637 1288.35 157.647 Q1291.67 161.657 1291.67 167.45 Q1291.67 176.241 1286.28 180.94 Q1280.93 185.639 1270.93 185.639 Q1260.92 185.639 1255.53 180.94 Q1250.19 176.241 1250.19 167.45 Q1250.19 161.657 1253.51 157.647 Q1256.83 153.637 1262.74 152.259 M1259.75 139.337 Q1259.75 144.036 1262.66 146.669 Q1265.62 149.302 1270.93 149.302 Q1276.19 149.302 1279.15 146.669 Q1282.15 144.036 1282.15 139.337 Q1282.15 134.638 1279.15 132.005 Q1276.19 129.372 1270.93 129.372 Q1265.62 129.372 1262.66 132.005 Q1259.75 134.638 1259.75 139.337 Z" fill="#000000" fill-rule="nonzero" fill-opacity="1" /><path clip-path="url(#clip010)" d="M1306.29 123.984 L1338.42 123.984 L1338.42 130.871 L1313.79 130.871 L1313.79 145.697 Q1315.57 145.089 1317.35 144.806 Q1319.13 144.482 1320.92 144.482 Q1331.04 144.482 1336.96 150.031 Q1342.87 155.581 1342.87 165.06 Q1342.87 174.823 1336.8 180.251 Q1330.72 185.639 1319.66 185.639 Q1315.85 185.639 1311.88 184.991 Q1307.95 184.342 1303.74 183.046 L1303.74 174.823 Q1307.39 176.808 1311.27 177.78 Q1315.16 178.752 1319.5 178.752 Q1326.51 178.752 1330.6 175.066 Q1334.69 171.38 1334.69 165.06 Q1334.69 158.741 1330.6 155.054 Q1326.51 151.368 1319.5 151.368 Q1316.22 151.368 1312.94 152.097 Q1309.69 152.826 1306.29 154.366 L1306.29 123.984 Z" fill="#000000" fill-rule="nonzero" fill-opacity="1" /><path clip-path="url(#clip012)" d="M287.404 244.432 L287.404 1607.08 L1479.11 1607.08 L1479.11 244.432 L287.404 244.432 L287.404 244.432  Z" fill="#c0c0c0" fill-rule="evenodd" fill-opacity="1"/>
<polyline clip-path="url(#clip012)" style="stroke:#000000; stroke-linecap:round; stroke-linejoin:round; stroke-width:4; stroke-opacity:1; fill:none" points="287.404,244.432 287.404,1607.08 1479.11,1607.08 1479.11,244.432 287.404,244.432 "/>
<circle clip-path="url(#clip012)" style="fill:#c0c0c0; stroke:none; fill-opacity:0" cx="883.256" cy="244.432" r="2"/>
<path clip-path="url(#clip012)" d="M287.404 1607.08 L287.404 1607.08 L1479.11 1607.08 L1479.11 1607.08 L287.404 1607.08 L287.404 1607.08  Z" fill="#ffff00" fill-rule="evenodd" fill-opacity="1"/>
<polyline clip-path="url(#clip012)" style="stroke:#000000; stroke-linecap:round; stroke-linejoin:round; stroke-width:4; stroke-opacity:1; fill:none" points="287.404,1607.08 287.404,1607.08 1479.11,1607.08 287.404,1607.08 "/>
<circle clip-path="url(#clip012)" style="fill:#ffff00; stroke:none; fill-opacity:0" cx="883.256" cy="1607.08" r="2"/>
<path clip-path="url(#clip012)" d="M287.404 1607.08 L287.404 1741.75 L1479.11 1741.75 L1479.11 1607.08 L287.404 1607.08 L287.404 1607.08  Z" fill="#00bfff" fill-rule="evenodd" fill-opacity="1"/>
<polyline clip-path="url(#clip012)" style="stroke:#000000; stroke-linecap:round; stroke-linejoin:round; stroke-width:4; stroke-opacity:1; fill:none" points="287.404,1607.08 287.404,1741.75 1479.11,1741.75 1479.11,1607.08 287.404,1607.08 "/>
<circle clip-path="url(#clip012)" style="fill:#00bfff; stroke:none; fill-opacity:0" cx="883.256" cy="1607.08" r="2"/>
<path clip-path="url(#clip012)" d="M287.404 1741.75 L287.404 1752.76 L1479.11 1752.76 L1479.11 1741.75 L287.404 1741.75 L287.404 1741.75  Z" fill="#cd3278" fill-rule="evenodd" fill-opacity="1"/>
<polyline clip-path="url(#clip012)" style="stroke:#000000; stroke-linecap:round; stroke-linejoin:round; stroke-width:4; stroke-opacity:1; fill:none" points="287.404,1741.75 287.404,1752.76 1479.11,1752.76 1479.11,1741.75 287.404,1741.75 "/>
<circle clip-path="url(#clip012)" style="fill:#cd3278; stroke:none; fill-opacity:0" cx="883.256" cy="1741.75" r="2"/>
<path clip-path="url(#clip010)" d="M1100.78 553.91 L1508.12 553.91 L1508.12 294.71 L1100.78 294.71  Z" fill="#ffffff" fill-rule="evenodd" fill-opacity="1"/>
<polyline clip-path="url(#clip010)" style="stroke:#000000; stroke-linecap:round; stroke-linejoin:round; stroke-width:4; stroke-opacity:1; fill:none" points="1100.78,553.91 1508.12,553.91 1508.12,294.71 1100.78,294.71 1100.78,553.91 "/>
<path clip-path="url(#clip010)" d="M1115.65 367.286 L1204.92 367.286 L1204.92 325.814 L1115.65 325.814 L1115.65 367.286  Z" fill="#c0c0c0" fill-rule="evenodd" fill-opacity="1"/>
<polyline clip-path="url(#clip010)" style="stroke:#000000; stroke-linecap:round; stroke-linejoin:round; stroke-width:4; stroke-opacity:1; fill:none" points="1115.65,367.286 1204.92,367.286 1204.92,325.814 1115.65,325.814 1115.65,367.286 "/>
<path clip-path="url(#clip010)" d="M1219.8 329.27 L1226.09 329.27 L1241.42 358.181 L1241.42 329.27 L1245.95 329.27 L1245.95 363.83 L1239.66 363.83 L1224.33 334.918 L1224.33 363.83 L1219.8 363.83 L1219.8 329.27 Z" fill="#000000" fill-rule="nonzero" fill-opacity="1" /><path clip-path="url(#clip010)" d="M1266.86 350.797 Q1261.7 350.797 1259.7 351.978 Q1257.71 353.158 1257.71 356.006 Q1257.71 358.274 1259.2 359.617 Q1260.7 360.936 1263.27 360.936 Q1266.81 360.936 1268.94 358.436 Q1271.09 355.913 1271.09 351.746 L1271.09 350.797 L1266.86 350.797 M1275.35 349.038 L1275.35 363.83 L1271.09 363.83 L1271.09 359.894 Q1269.63 362.256 1267.46 363.39 Q1265.28 364.501 1262.13 364.501 Q1258.15 364.501 1255.79 362.279 Q1253.45 360.033 1253.45 356.283 Q1253.45 351.908 1256.37 349.686 Q1259.31 347.464 1265.12 347.464 L1271.09 347.464 L1271.09 347.047 Q1271.09 344.107 1269.15 342.51 Q1267.23 340.89 1263.73 340.89 Q1261.51 340.89 1259.4 341.422 Q1257.3 341.955 1255.35 343.02 L1255.35 339.084 Q1257.69 338.182 1259.89 337.742 Q1262.09 337.279 1264.17 337.279 Q1269.8 337.279 1272.57 340.195 Q1275.35 343.112 1275.35 349.038 Z" fill="#000000" fill-rule="nonzero" fill-opacity="1" /><path clip-path="url(#clip010)" d="M1288.34 330.543 L1288.34 337.904 L1297.11 337.904 L1297.11 341.214 L1288.34 341.214 L1288.34 355.288 Q1288.34 358.459 1289.19 359.362 Q1290.07 360.265 1292.74 360.265 L1297.11 360.265 L1297.11 363.83 L1292.74 363.83 Q1287.81 363.83 1285.93 362.001 Q1284.06 360.149 1284.06 355.288 L1284.06 341.214 L1280.93 341.214 L1280.93 337.904 L1284.06 337.904 L1284.06 330.543 L1288.34 330.543 Z" fill="#000000" fill-rule="nonzero" fill-opacity="1" /><path clip-path="url(#clip010)" d="M1302.27 353.598 L1302.27 337.904 L1306.53 337.904 L1306.53 353.436 Q1306.53 357.117 1307.97 358.969 Q1309.4 360.797 1312.27 360.797 Q1315.72 360.797 1317.71 358.598 Q1319.73 356.399 1319.73 352.603 L1319.73 337.904 L1323.99 337.904 L1323.99 363.83 L1319.73 363.83 L1319.73 359.848 Q1318.18 362.209 1316.12 363.367 Q1314.08 364.501 1311.37 364.501 Q1306.9 364.501 1304.59 361.723 Q1302.27 358.945 1302.27 353.598 M1312.99 337.279 L1312.99 337.279 Z" fill="#000000" fill-rule="nonzero" fill-opacity="1" /><path clip-path="url(#clip010)" d="M1347.78 341.885 Q1347.07 341.469 1346.21 341.283 Q1345.38 341.075 1344.36 341.075 Q1340.75 341.075 1338.8 343.436 Q1336.88 345.774 1336.88 350.172 L1336.88 363.83 L1332.6 363.83 L1332.6 337.904 L1336.88 337.904 L1336.88 341.932 Q1338.22 339.57 1340.38 338.436 Q1342.53 337.279 1345.61 337.279 Q1346.05 337.279 1346.58 337.348 Q1347.11 337.395 1347.76 337.51 L1347.78 341.885 Z" fill="#000000" fill-rule="nonzero" fill-opacity="1" /><path clip-path="url(#clip010)" d="M1364.03 350.797 Q1358.87 350.797 1356.88 351.978 Q1354.89 353.158 1354.89 356.006 Q1354.89 358.274 1356.37 359.617 Q1357.88 360.936 1360.44 360.936 Q1363.99 360.936 1366.12 358.436 Q1368.27 355.913 1368.27 351.746 L1368.27 350.797 L1364.03 350.797 M1372.53 349.038 L1372.53 363.83 L1368.27 363.83 L1368.27 359.894 Q1366.81 362.256 1364.63 363.39 Q1362.46 364.501 1359.31 364.501 Q1355.33 364.501 1352.97 362.279 Q1350.63 360.033 1350.63 356.283 Q1350.63 351.908 1353.55 349.686 Q1356.49 347.464 1362.3 347.464 L1368.27 347.464 L1368.27 347.047 Q1368.27 344.107 1366.32 342.51 Q1364.4 340.89 1360.91 340.89 Q1358.69 340.89 1356.58 341.422 Q1354.47 341.955 1352.53 343.02 L1352.53 339.084 Q1354.87 338.182 1357.06 337.742 Q1359.26 337.279 1361.35 337.279 Q1366.97 337.279 1369.75 340.195 Q1372.53 343.112 1372.53 349.038 Z" fill="#000000" fill-rule="nonzero" fill-opacity="1" /><path clip-path="url(#clip010)" d="M1381.3 327.811 L1385.56 327.811 L1385.56 363.83 L1381.3 363.83 L1381.3 327.811 Z" fill="#000000" fill-rule="nonzero" fill-opacity="1" /><path clip-path="url(#clip010)" d="M1433.29 358.899 L1433.29 349.617 L1425.65 349.617 L1425.65 345.774 L1437.92 345.774 L1437.92 360.612 Q1435.21 362.533 1431.95 363.529 Q1428.68 364.501 1424.98 364.501 Q1416.88 364.501 1412.3 359.779 Q1407.74 355.033 1407.74 346.584 Q1407.74 338.112 1412.3 333.39 Q1416.88 328.645 1424.98 328.645 Q1428.36 328.645 1431.39 329.478 Q1434.45 330.311 1437.02 331.932 L1437.02 336.908 Q1434.43 334.709 1431.51 333.598 Q1428.59 332.487 1425.37 332.487 Q1419.03 332.487 1415.84 336.029 Q1412.67 339.57 1412.67 346.584 Q1412.67 353.575 1415.84 357.117 Q1419.03 360.658 1425.37 360.658 Q1427.85 360.658 1429.8 360.242 Q1431.74 359.802 1433.29 358.899 Z" fill="#000000" fill-rule="nonzero" fill-opacity="1" /><path clip-path="url(#clip010)" d="M1458.06 350.797 Q1452.9 350.797 1450.91 351.978 Q1448.92 353.158 1448.92 356.006 Q1448.92 358.274 1450.4 359.617 Q1451.9 360.936 1454.47 360.936 Q1458.01 360.936 1460.14 358.436 Q1462.3 355.913 1462.3 351.746 L1462.3 350.797 L1458.06 350.797 M1466.56 349.038 L1466.56 363.83 L1462.3 363.83 L1462.3 359.894 Q1460.84 362.256 1458.66 363.39 Q1456.49 364.501 1453.34 364.501 Q1449.36 364.501 1447 362.279 Q1444.66 360.033 1444.66 356.283 Q1444.66 351.908 1447.57 349.686 Q1450.51 347.464 1456.32 347.464 L1462.3 347.464 L1462.3 347.047 Q1462.3 344.107 1460.35 342.51 Q1458.43 340.89 1454.93 340.89 Q1452.71 340.89 1450.61 341.422 Q1448.5 341.955 1446.56 343.02 L1446.56 339.084 Q1448.89 338.182 1451.09 337.742 Q1453.29 337.279 1455.37 337.279 Q1461 337.279 1463.78 340.195 Q1466.56 343.112 1466.56 349.038 Z" fill="#000000" fill-rule="nonzero" fill-opacity="1" /><path clip-path="url(#clip010)" d="M1491.86 338.668 L1491.86 342.695 Q1490.05 341.77 1488.11 341.307 Q1486.16 340.844 1484.08 340.844 Q1480.91 340.844 1479.31 341.816 Q1477.74 342.788 1477.74 344.732 Q1477.74 346.214 1478.87 347.07 Q1480 347.904 1483.43 348.668 L1484.89 348.992 Q1489.43 349.964 1491.32 351.746 Q1493.24 353.506 1493.24 356.677 Q1493.24 360.288 1490.37 362.394 Q1487.53 364.501 1482.53 364.501 Q1480.44 364.501 1478.18 364.084 Q1475.93 363.691 1473.43 362.881 L1473.43 358.482 Q1475.79 359.709 1478.08 360.334 Q1480.37 360.936 1482.62 360.936 Q1485.63 360.936 1487.25 359.918 Q1488.87 358.876 1488.87 357.001 Q1488.87 355.265 1487.69 354.339 Q1486.53 353.413 1482.57 352.556 L1481.09 352.209 Q1477.13 351.376 1475.37 349.663 Q1473.62 347.927 1473.62 344.918 Q1473.62 341.26 1476.21 339.27 Q1478.8 337.279 1483.57 337.279 Q1485.93 337.279 1488.01 337.626 Q1490.1 337.973 1491.86 338.668 Z" fill="#000000" fill-rule="nonzero" fill-opacity="1" /><path clip-path="url(#clip010)" d="M1115.65 419.126 L1204.92 419.126 L1204.92 377.654 L1115.65 377.654 L1115.65 419.126  Z" fill="#ffff00" fill-rule="evenodd" fill-opacity="1"/>
<polyline clip-path="url(#clip010)" style="stroke:#000000; stroke-linecap:round; stroke-linejoin:round; stroke-width:4; stroke-opacity:1; fill:none" points="1115.65,419.126 1204.92,419.126 1204.92,377.654 1115.65,377.654 1115.65,419.126 "/>
<path clip-path="url(#clip010)" d="M1242.04 382.244 L1242.04 386.804 Q1239.38 385.531 1237.02 384.906 Q1234.66 384.281 1232.46 384.281 Q1228.64 384.281 1226.56 385.762 Q1224.5 387.244 1224.5 389.975 Q1224.5 392.267 1225.86 393.447 Q1227.25 394.605 1231.09 395.322 L1233.92 395.901 Q1239.15 396.897 1241.63 399.42 Q1244.13 401.92 1244.13 406.133 Q1244.13 411.156 1240.75 413.748 Q1237.39 416.341 1230.89 416.341 Q1228.43 416.341 1225.65 415.785 Q1222.9 415.23 1219.94 414.142 L1219.94 409.327 Q1222.78 410.924 1225.51 411.734 Q1228.25 412.545 1230.89 412.545 Q1234.89 412.545 1237.07 410.971 Q1239.24 409.396 1239.24 406.48 Q1239.24 403.934 1237.67 402.498 Q1236.12 401.063 1232.55 400.346 L1229.7 399.79 Q1224.47 398.748 1222.14 396.526 Q1219.8 394.304 1219.8 390.346 Q1219.8 385.762 1223.01 383.123 Q1226.26 380.485 1231.93 380.485 Q1234.36 380.485 1236.88 380.924 Q1239.4 381.364 1242.04 382.244 Z" fill="#000000" fill-rule="nonzero" fill-opacity="1" /><path clip-path="url(#clip010)" d="M1261.28 392.73 Q1257.85 392.73 1255.86 395.415 Q1253.87 398.077 1253.87 402.73 Q1253.87 407.383 1255.84 410.068 Q1257.83 412.73 1261.28 412.73 Q1264.68 412.73 1266.67 410.045 Q1268.66 407.359 1268.66 402.73 Q1268.66 398.123 1266.67 395.438 Q1264.68 392.73 1261.28 392.73 M1261.28 389.119 Q1266.83 389.119 1270.01 392.73 Q1273.18 396.341 1273.18 402.73 Q1273.18 409.096 1270.01 412.73 Q1266.83 416.341 1261.28 416.341 Q1255.7 416.341 1252.53 412.73 Q1249.38 409.096 1249.38 402.73 Q1249.38 396.341 1252.53 392.73 Q1255.7 389.119 1261.28 389.119 Z" fill="#000000" fill-rule="nonzero" fill-opacity="1" /><path clip-path="url(#clip010)" d="M1280.24 379.651 L1284.5 379.651 L1284.5 415.67 L1280.24 415.67 L1280.24 379.651 Z" fill="#000000" fill-rule="nonzero" fill-opacity="1" /><path clip-path="url(#clip010)" d="M1305.19 402.637 Q1300.03 402.637 1298.04 403.818 Q1296.05 404.998 1296.05 407.846 Q1296.05 410.114 1297.53 411.457 Q1299.03 412.776 1301.6 412.776 Q1305.14 412.776 1307.27 410.276 Q1309.43 407.753 1309.43 403.586 L1309.43 402.637 L1305.19 402.637 M1313.69 400.878 L1313.69 415.67 L1309.43 415.67 L1309.43 411.734 Q1307.97 414.096 1305.79 415.23 Q1303.62 416.341 1300.47 416.341 Q1296.49 416.341 1294.13 414.119 Q1291.79 411.873 1291.79 408.123 Q1291.79 403.748 1294.7 401.526 Q1297.64 399.304 1303.45 399.304 L1309.43 399.304 L1309.43 398.887 Q1309.43 395.947 1307.48 394.35 Q1305.56 392.73 1302.07 392.73 Q1299.84 392.73 1297.74 393.262 Q1295.63 393.795 1293.69 394.86 L1293.69 390.924 Q1296.02 390.022 1298.22 389.582 Q1300.42 389.119 1302.51 389.119 Q1308.13 389.119 1310.91 392.035 Q1313.69 394.952 1313.69 400.878 Z" fill="#000000" fill-rule="nonzero" fill-opacity="1" /><path clip-path="url(#clip010)" d="M1337.48 393.725 Q1336.76 393.309 1335.91 393.123 Q1335.07 392.915 1334.06 392.915 Q1330.44 392.915 1328.5 395.276 Q1326.58 397.614 1326.58 402.012 L1326.58 415.67 L1322.3 415.67 L1322.3 389.744 L1326.58 389.744 L1326.58 393.772 Q1327.92 391.41 1330.07 390.276 Q1332.23 389.119 1335.31 389.119 Q1335.75 389.119 1336.28 389.188 Q1336.81 389.235 1337.46 389.35 L1337.48 393.725 Z" fill="#000000" fill-rule="nonzero" fill-opacity="1" /><path clip-path="url(#clip010)" d="M1115.65 470.966 L1204.92 470.966 L1204.92 429.494 L1115.65 429.494 L1115.65 470.966  Z" fill="#00bfff" fill-rule="evenodd" fill-opacity="1"/>
<polyline clip-path="url(#clip010)" style="stroke:#000000; stroke-linecap:round; stroke-linejoin:round; stroke-width:4; stroke-opacity:1; fill:none" points="1115.65,470.966 1204.92,470.966 1204.92,429.494 1115.65,429.494 1115.65,470.966 "/>
<path clip-path="url(#clip010)" d="M1219.8 432.95 L1224.52 432.95 L1231.79 462.162 L1239.03 432.95 L1244.29 432.95 L1251.56 462.162 L1258.8 432.95 L1263.55 432.95 L1254.87 467.51 L1248.99 467.51 L1241.7 437.51 L1234.33 467.51 L1228.45 467.51 L1219.8 432.95 Z" fill="#000000" fill-rule="nonzero" fill-opacity="1" /><path clip-path="url(#clip010)" d="M1268.52 441.584 L1272.78 441.584 L1272.78 467.51 L1268.52 467.51 L1268.52 441.584 M1268.52 431.491 L1272.78 431.491 L1272.78 436.885 L1268.52 436.885 L1268.52 431.491 Z" fill="#000000" fill-rule="nonzero" fill-opacity="1" /><path clip-path="url(#clip010)" d="M1303.25 451.862 L1303.25 467.51 L1298.99 467.51 L1298.99 452 Q1298.99 448.32 1297.55 446.491 Q1296.12 444.662 1293.25 444.662 Q1289.8 444.662 1287.81 446.862 Q1285.82 449.061 1285.82 452.857 L1285.82 467.51 L1281.53 467.51 L1281.53 441.584 L1285.82 441.584 L1285.82 445.612 Q1287.34 443.274 1289.4 442.116 Q1291.49 440.959 1294.19 440.959 Q1298.66 440.959 1300.95 443.737 Q1303.25 446.491 1303.25 451.862 Z" fill="#000000" fill-rule="nonzero" fill-opacity="1" /><path clip-path="url(#clip010)" d="M1328.8 445.519 L1328.8 431.491 L1333.06 431.491 L1333.06 467.51 L1328.8 467.51 L1328.8 463.621 Q1327.46 465.936 1325.4 467.07 Q1323.36 468.181 1320.49 468.181 Q1315.79 468.181 1312.83 464.431 Q1309.89 460.681 1309.89 454.57 Q1309.89 448.459 1312.83 444.709 Q1315.79 440.959 1320.49 440.959 Q1323.36 440.959 1325.4 442.093 Q1327.46 443.204 1328.8 445.519 M1314.29 454.57 Q1314.29 459.269 1316.21 461.954 Q1318.15 464.616 1321.53 464.616 Q1324.91 464.616 1326.86 461.954 Q1328.8 459.269 1328.8 454.57 Q1328.8 449.871 1326.86 447.209 Q1324.91 444.524 1321.53 444.524 Q1318.15 444.524 1316.21 447.209 Q1314.29 449.871 1314.29 454.57 Z" fill="#000000" fill-rule="nonzero" fill-opacity="1" /><path clip-path="url(#clip010)" d="M1115.65 522.806 L1204.92 522.806 L1204.92 481.334 L1115.65 481.334 L1115.65 522.806  Z" fill="#cd3278" fill-rule="evenodd" fill-opacity="1"/>
<polyline clip-path="url(#clip010)" style="stroke:#000000; stroke-linecap:round; stroke-linejoin:round; stroke-width:4; stroke-opacity:1; fill:none" points="1115.65,522.806 1204.92,522.806 1204.92,481.334 1115.65,481.334 1115.65,522.806 "/>
<path clip-path="url(#clip010)" d="M1224.47 502.845 L1224.47 515.507 L1231.97 515.507 Q1235.75 515.507 1237.55 513.956 Q1239.38 512.382 1239.38 509.164 Q1239.38 505.924 1237.55 504.396 Q1235.75 502.845 1231.97 502.845 L1224.47 502.845 M1224.47 488.632 L1224.47 499.049 L1231.39 499.049 Q1234.82 499.049 1236.49 497.776 Q1238.18 496.479 1238.18 493.84 Q1238.18 491.225 1236.49 489.928 Q1234.82 488.632 1231.39 488.632 L1224.47 488.632 M1219.8 484.79 L1231.74 484.79 Q1237.09 484.79 1239.98 487.012 Q1242.88 489.234 1242.88 493.331 Q1242.88 496.502 1241.39 498.377 Q1239.91 500.252 1237.04 500.715 Q1240.49 501.456 1242.39 503.817 Q1244.31 506.155 1244.31 509.674 Q1244.31 514.303 1241.16 516.826 Q1238.01 519.35 1232.2 519.35 L1219.8 519.35 L1219.8 484.79 Z" fill="#000000" fill-rule="nonzero" fill-opacity="1" /><path clip-path="url(#clip010)" d="M1263.92 506.317 Q1258.76 506.317 1256.76 507.498 Q1254.77 508.678 1254.77 511.526 Q1254.77 513.794 1256.26 515.137 Q1257.76 516.456 1260.33 516.456 Q1263.87 516.456 1266 513.956 Q1268.15 511.433 1268.15 507.266 L1268.15 506.317 L1263.92 506.317 M1272.41 504.558 L1272.41 519.35 L1268.15 519.35 L1268.15 515.414 Q1266.7 517.776 1264.52 518.91 Q1262.34 520.021 1259.2 520.021 Q1255.21 520.021 1252.85 517.799 Q1250.51 515.553 1250.51 511.803 Q1250.51 507.428 1253.43 505.206 Q1256.37 502.984 1262.18 502.984 L1268.15 502.984 L1268.15 502.567 Q1268.15 499.627 1266.21 498.03 Q1264.29 496.41 1260.79 496.41 Q1258.57 496.41 1256.46 496.942 Q1254.36 497.475 1252.41 498.54 L1252.41 494.604 Q1254.75 493.702 1256.95 493.262 Q1259.15 492.799 1261.23 492.799 Q1266.86 492.799 1269.63 495.715 Q1272.41 498.632 1272.41 504.558 Z" fill="#000000" fill-rule="nonzero" fill-opacity="1" /><path clip-path="url(#clip010)" d="M1285.4 486.063 L1285.4 493.424 L1294.17 493.424 L1294.17 496.734 L1285.4 496.734 L1285.4 510.808 Q1285.4 513.979 1286.26 514.882 Q1287.13 515.785 1289.8 515.785 L1294.17 515.785 L1294.17 519.35 L1289.8 519.35 Q1284.87 519.35 1282.99 517.521 Q1281.12 515.669 1281.12 510.808 L1281.12 496.734 L1277.99 496.734 L1277.99 493.424 L1281.12 493.424 L1281.12 486.063 L1285.4 486.063 Z" fill="#000000" fill-rule="nonzero" fill-opacity="1" /><path clip-path="url(#clip010)" d="M1303.99 486.063 L1303.99 493.424 L1312.76 493.424 L1312.76 496.734 L1303.99 496.734 L1303.99 510.808 Q1303.99 513.979 1304.84 514.882 Q1305.72 515.785 1308.38 515.785 L1312.76 515.785 L1312.76 519.35 L1308.38 519.35 Q1303.45 519.35 1301.58 517.521 Q1299.7 515.669 1299.7 510.808 L1299.7 496.734 L1296.58 496.734 L1296.58 493.424 L1299.7 493.424 L1299.7 486.063 L1303.99 486.063 Z" fill="#000000" fill-rule="nonzero" fill-opacity="1" /><path clip-path="url(#clip010)" d="M1340.54 505.322 L1340.54 507.405 L1320.95 507.405 Q1321.23 511.803 1323.59 514.118 Q1325.98 516.41 1330.21 516.41 Q1332.67 516.41 1334.96 515.808 Q1337.27 515.206 1339.54 514.002 L1339.54 518.03 Q1337.25 519.002 1334.84 519.512 Q1332.44 520.021 1329.96 520.021 Q1323.75 520.021 1320.12 516.41 Q1316.51 512.799 1316.51 506.641 Q1316.51 500.276 1319.94 496.549 Q1323.38 492.799 1329.22 492.799 Q1334.45 492.799 1337.48 496.178 Q1340.54 499.535 1340.54 505.322 M1336.28 504.072 Q1336.23 500.577 1334.31 498.493 Q1332.41 496.41 1329.26 496.41 Q1325.7 496.41 1323.55 498.424 Q1321.42 500.438 1321.09 504.095 L1336.28 504.072 Z" fill="#000000" fill-rule="nonzero" fill-opacity="1" /><path clip-path="url(#clip010)" d="M1362.55 497.405 Q1361.83 496.989 1360.98 496.803 Q1360.14 496.595 1359.13 496.595 Q1355.51 496.595 1353.57 498.956 Q1351.65 501.294 1351.65 505.692 L1351.65 519.35 L1347.37 519.35 L1347.37 493.424 L1351.65 493.424 L1351.65 497.452 Q1352.99 495.09 1355.14 493.956 Q1357.3 492.799 1360.38 492.799 Q1360.81 492.799 1361.35 492.868 Q1361.88 492.915 1362.53 493.03 L1362.55 497.405 Z" fill="#000000" fill-rule="nonzero" fill-opacity="1" /><path clip-path="url(#clip010)" d="M1377.81 521.757 Q1376 526.387 1374.29 527.799 Q1372.57 529.211 1369.7 529.211 L1366.3 529.211 L1366.3 525.646 L1368.8 525.646 Q1370.56 525.646 1371.53 524.813 Q1372.5 523.979 1373.69 520.877 L1374.45 518.933 L1363.96 493.424 L1368.48 493.424 L1376.58 513.701 L1384.68 493.424 L1389.19 493.424 L1377.81 521.757 Z" fill="#000000" fill-rule="nonzero" fill-opacity="1" /></svg>
