<?xml version="1.0" encoding="utf-8"?>
<svg xmlns="http://www.w3.org/2000/svg" xmlns:xlink="http://www.w3.org/1999/xlink" width="500" height="450" viewBox="0 0 2000 1800">
<defs>
  <clipPath id="clip910">
    <rect x="0" y="0" width="2000" height="1800"/>
  </clipPath>
</defs>
<path clip-path="url(#clip910)" d="M0 1800 L2000 1800 L2000 0 L0 0  Z" fill="#ffffff" fill-rule="evenodd" fill-opacity="1"/>
<defs>
  <clipPath id="clip911">
    <rect x="400" y="0" width="1401" height="1401"/>
  </clipPath>
</defs>
<path clip-path="url(#clip910)" d="M200.257 1752.76 L1952.76 1752.76 L1952.76 156.304 L200.257 156.304  Z" fill="#ffffff" fill-rule="evenodd" fill-opacity="1"/>
<defs>
  <clipPath id="clip912">
    <rect x="200" y="156" width="1753" height="1597"/>
  </clipPath>
</defs>
<polyline clip-path="url(#clip910)" style="stroke:#000000; stroke-linecap:round; stroke-linejoin:round; stroke-width:4; stroke-opacity:1; fill:none" points="200.257,1752.76 1952.76,1752.76 "/>
<polyline clip-path="url(#clip912)" style="stroke:#000000; stroke-linecap:round; stroke-linejoin:round; stroke-width:2; stroke-opacity:0.1; fill:none" points="200.257,1357.53 1952.76,1357.53 "/>
<polyline clip-path="url(#clip912)" style="stroke:#000000; stroke-linecap:round; stroke-linejoin:round; stroke-width:2; stroke-opacity:0.1; fill:none" points="200.257,962.309 1952.76,962.309 "/>
<polyline clip-path="url(#clip912)" style="stroke:#000000; stroke-linecap:round; stroke-linejoin:round; stroke-width:2; stroke-opacity:0.1; fill:none" points="200.257,567.085 1952.76,567.085 "/>
<polyline clip-path="url(#clip912)" style="stroke:#000000; stroke-linecap:round; stroke-linejoin:round; stroke-width:2; stroke-opacity:0.1; fill:none" points="200.257,171.861 1952.76,171.861 "/>
<polyline clip-path="url(#clip910)" style="stroke:#000000; stroke-linecap:round; stroke-linejoin:round; stroke-width:4; stroke-opacity:1; fill:none" points="200.257,1752.76 200.257,156.304 "/>
<polyline clip-path="url(#clip910)" style="stroke:#000000; stroke-linecap:round; stroke-linejoin:round; stroke-width:4; stroke-opacity:1; fill:none" points="200.257,1357.53 219.155,1357.53 "/>
<polyline clip-path="url(#clip910)" style="stroke:#000000; stroke-linecap:round; stroke-linejoin:round; stroke-width:4; stroke-opacity:1; fill:none" points="200.257,962.309 219.155,962.309 "/>
<polyline clip-path="url(#clip910)" style="stroke:#000000; stroke-linecap:round; stroke-linejoin:round; stroke-width:4; stroke-opacity:1; fill:none" points="200.257,567.085 219.155,567.085 "/>
<polyline clip-path="url(#clip910)" style="stroke:#000000; stroke-linecap:round; stroke-linejoin:round; stroke-width:4; stroke-opacity:1; fill:none" points="200.257,171.861 219.155,171.861 "/>
<path clip-path="url(#clip910)" d="M122.179 1370.88 L138.498 1370.88 L138.498 1374.81 L116.554 1374.81 L116.554 1370.88 Q119.216 1368.12 123.799 1363.49 Q128.405 1358.84 129.586 1357.5 Q131.831 1354.97 132.711 1353.24 Q133.614 1351.48 133.614 1349.79 Q133.614 1347.03 131.669 1345.3 Q129.748 1343.56 126.646 1343.56 Q124.447 1343.56 121.993 1344.33 Q119.563 1345.09 116.785 1346.64 L116.785 1341.92 Q119.609 1340.78 122.063 1340.21 Q124.516 1339.63 126.554 1339.63 Q131.924 1339.63 135.118 1342.31 Q138.313 1345 138.313 1349.49 Q138.313 1351.62 137.503 1353.54 Q136.715 1355.44 134.609 1358.03 Q134.03 1358.7 130.928 1361.92 Q127.827 1365.11 122.179 1370.88 Z" fill="#000000" fill-rule="nonzero" fill-opacity="1" /><path clip-path="url(#clip910)" d="M158.313 1343.33 Q154.702 1343.33 152.873 1346.9 Q151.067 1350.44 151.067 1357.57 Q151.067 1364.67 152.873 1368.24 Q154.702 1371.78 158.313 1371.78 Q161.947 1371.78 163.752 1368.24 Q165.581 1364.67 165.581 1357.57 Q165.581 1350.44 163.752 1346.9 Q161.947 1343.33 158.313 1343.33 M158.313 1339.63 Q164.123 1339.63 167.178 1344.23 Q170.257 1348.82 170.257 1357.57 Q170.257 1366.29 167.178 1370.9 Q164.123 1375.48 158.313 1375.48 Q152.502 1375.48 149.424 1370.9 Q146.368 1366.29 146.368 1357.57 Q146.368 1348.82 149.424 1344.23 Q152.502 1339.63 158.313 1339.63 Z" fill="#000000" fill-rule="nonzero" fill-opacity="1" /><path clip-path="url(#clip910)" d="M130.998 949.103 L119.192 967.552 L130.998 967.552 L130.998 949.103 M129.771 945.029 L135.651 945.029 L135.651 967.552 L140.581 967.552 L140.581 971.44 L135.651 971.44 L135.651 979.589 L130.998 979.589 L130.998 971.44 L115.396 971.44 L115.396 966.927 L129.771 945.029 Z" fill="#000000" fill-rule="nonzero" fill-opacity="1" /><path clip-path="url(#clip910)" d="M158.313 948.107 Q154.702 948.107 152.873 951.672 Q151.067 955.214 151.067 962.343 Q151.067 969.45 152.873 973.015 Q154.702 976.556 158.313 976.556 Q161.947 976.556 163.752 973.015 Q165.581 969.45 165.581 962.343 Q165.581 955.214 163.752 951.672 Q161.947 948.107 158.313 948.107 M158.313 944.404 Q164.123 944.404 167.178 949.01 Q170.257 953.593 170.257 962.343 Q170.257 971.07 167.178 975.677 Q164.123 980.26 158.313 980.26 Q152.502 980.26 149.424 975.677 Q146.368 971.07 146.368 962.343 Q146.368 953.593 149.424 949.01 Q152.502 944.404 158.313 944.404 Z" fill="#000000" fill-rule="nonzero" fill-opacity="1" /><path clip-path="url(#clip910)" d="M128.729 565.221 Q125.581 565.221 123.729 567.374 Q121.901 569.527 121.901 573.277 Q121.901 577.004 123.729 579.18 Q125.581 581.332 128.729 581.332 Q131.878 581.332 133.706 579.18 Q135.558 577.004 135.558 573.277 Q135.558 569.527 133.706 567.374 Q131.878 565.221 128.729 565.221 M138.012 550.569 L138.012 554.828 Q136.253 553.995 134.447 553.555 Q132.665 553.115 130.905 553.115 Q126.276 553.115 123.822 556.24 Q121.391 559.365 121.044 565.684 Q122.41 563.671 124.47 562.606 Q126.53 561.518 129.007 561.518 Q134.216 561.518 137.225 564.689 Q140.257 567.837 140.257 573.277 Q140.257 578.601 137.109 581.819 Q133.961 585.036 128.729 585.036 Q122.734 585.036 119.563 580.453 Q116.392 575.846 116.392 567.12 Q116.392 558.925 120.28 554.064 Q124.169 549.18 130.72 549.18 Q132.479 549.18 134.262 549.527 Q136.067 549.874 138.012 550.569 Z" fill="#000000" fill-rule="nonzero" fill-opacity="1" /><path clip-path="url(#clip910)" d="M158.313 552.884 Q154.702 552.884 152.873 556.448 Q151.067 559.99 151.067 567.12 Q151.067 574.226 152.873 577.791 Q154.702 581.332 158.313 581.332 Q161.947 581.332 163.752 577.791 Q165.581 574.226 165.581 567.12 Q165.581 559.99 163.752 556.448 Q161.947 552.884 158.313 552.884 M158.313 549.18 Q164.123 549.18 167.178 553.786 Q170.257 558.37 170.257 567.12 Q170.257 575.846 167.178 580.453 Q164.123 585.036 158.313 585.036 Q152.502 585.036 149.424 580.453 Q146.368 575.846 146.368 567.12 Q146.368 558.37 149.424 553.786 Q152.502 549.18 158.313 549.18 Z" fill="#000000" fill-rule="nonzero" fill-opacity="1" /><path clip-path="url(#clip910)" d="M128.151 172.729 Q124.817 172.729 122.896 174.512 Q120.998 176.294 120.998 179.419 Q120.998 182.544 122.896 184.326 Q124.817 186.109 128.151 186.109 Q131.484 186.109 133.405 184.326 Q135.327 182.521 135.327 179.419 Q135.327 176.294 133.405 174.512 Q131.507 172.729 128.151 172.729 M123.475 170.739 Q120.466 169.998 118.776 167.938 Q117.109 165.877 117.109 162.914 Q117.109 158.771 120.049 156.364 Q123.012 153.956 128.151 153.956 Q133.313 153.956 136.253 156.364 Q139.192 158.771 139.192 162.914 Q139.192 165.877 137.503 167.938 Q135.836 169.998 132.85 170.739 Q136.229 171.526 138.104 173.817 Q140.003 176.109 140.003 179.419 Q140.003 184.442 136.924 187.127 Q133.868 189.813 128.151 189.813 Q122.433 189.813 119.354 187.127 Q116.299 184.442 116.299 179.419 Q116.299 176.109 118.197 173.817 Q120.095 171.526 123.475 170.739 M121.762 163.354 Q121.762 166.039 123.429 167.544 Q125.118 169.049 128.151 169.049 Q131.16 169.049 132.85 167.544 Q134.563 166.039 134.563 163.354 Q134.563 160.669 132.85 159.165 Q131.16 157.66 128.151 157.66 Q125.118 157.66 123.429 159.165 Q121.762 160.669 121.762 163.354 Z" fill="#000000" fill-rule="nonzero" fill-opacity="1" /><path clip-path="url(#clip910)" d="M158.313 157.66 Q154.702 157.66 152.873 161.225 Q151.067 164.766 151.067 171.896 Q151.067 179.002 152.873 182.567 Q154.702 186.109 158.313 186.109 Q161.947 186.109 163.752 182.567 Q165.581 179.002 165.581 171.896 Q165.581 164.766 163.752 161.225 Q161.947 157.66 158.313 157.66 M158.313 153.956 Q164.123 153.956 167.178 158.563 Q170.257 163.146 170.257 171.896 Q170.257 180.623 167.178 185.229 Q164.123 189.813 158.313 189.813 Q152.502 189.813 149.424 185.229 Q146.368 180.623 146.368 171.896 Q146.368 163.146 149.424 158.563 Q152.502 153.956 158.313 153.956 Z" fill="#000000" fill-rule="nonzero" fill-opacity="1" /><path clip-path="url(#clip910)" d="M70.0976 968.673 L60.8153 968.673 L60.8153 976.312 L56.9727 976.312 L56.9727 964.044 L71.8106 964.044 Q73.7319 966.752 74.7272 970.016 Q75.6995 973.28 75.6995 976.984 Q75.6995 985.085 70.9773 989.669 Q66.2319 994.229 57.7829 994.229 Q49.3107 994.229 44.5885 989.669 Q39.8432 985.085 39.8432 976.984 Q39.8432 973.604 40.6765 970.572 Q41.5098 967.516 43.1302 964.947 L48.107 964.947 Q45.9079 967.539 44.7968 970.456 Q43.6857 973.373 43.6857 976.59 Q43.6857 982.933 47.2274 986.127 Q50.769 989.298 57.7829 989.298 Q64.7736 989.298 68.3152 986.127 Q71.8569 982.933 71.8569 976.59 Q71.8569 974.113 71.4402 972.169 Q71.0004 970.224 70.0976 968.673 Z" fill="#000000" fill-rule="nonzero" fill-opacity="1" /><path clip-path="url(#clip910)" d="M40.4682 958.581 L40.4682 953.859 L69.681 946.59 L40.4682 939.345 L40.4682 934.09 L69.681 926.822 L40.4682 919.576 L40.4682 914.831 L75.0282 923.512 L75.0282 929.391 L45.0283 936.683 L75.0282 944.044 L75.0282 949.924 L40.4682 958.581 Z" fill="#000000" fill-rule="nonzero" fill-opacity="1" /><path clip-path="url(#clip910)" d="M646.15 19.008 L653.118 19.008 L661.937 42.5264 L670.803 19.008 L677.77 19.008 L677.77 53.568 L673.21 53.568 L673.21 23.2209 L664.298 46.9245 L659.599 46.9245 L650.687 23.2209 L650.687 53.568 L646.15 53.568 L646.15 19.008 Z" fill="#000000" fill-rule="nonzero" fill-opacity="1" /><path clip-path="url(#clip910)" d="M712.932 21.67 L712.932 26.6006 Q710.571 24.4015 707.886 23.3135 Q705.224 22.2256 702.214 22.2256 Q696.289 22.2256 693.14 25.8598 Q689.992 29.4709 689.992 36.3227 Q689.992 43.1514 693.14 46.7856 Q696.289 50.3967 702.214 50.3967 Q705.224 50.3967 707.886 49.3088 Q710.571 48.2208 712.932 46.0217 L712.932 50.906 Q710.478 52.5726 707.724 53.406 Q704.992 54.2393 701.937 54.2393 Q694.09 54.2393 689.576 49.4477 Q685.062 44.6329 685.062 36.3227 Q685.062 27.9894 689.576 23.1978 Q694.09 18.383 701.937 18.383 Q705.039 18.383 707.77 19.2163 Q710.525 20.0265 712.932 21.67 Z" fill="#000000" fill-rule="nonzero" fill-opacity="1" /><path clip-path="url(#clip910)" d="M736.543 37.3644 Q738.048 37.8736 739.46 39.5403 Q740.895 41.207 742.33 44.1236 L747.075 53.568 L742.052 53.568 L737.631 44.7023 Q735.918 41.2301 734.298 40.0958 Q732.7 38.9616 729.923 38.9616 L724.83 38.9616 L724.83 53.568 L720.154 53.568 L720.154 19.008 L730.71 19.008 Q736.636 19.008 739.552 21.4848 Q742.469 23.9617 742.469 28.9617 Q742.469 32.2255 740.941 34.3783 Q739.436 36.5311 736.543 37.3644 M724.83 22.8506 L724.83 35.119 L730.71 35.119 Q734.089 35.119 735.802 33.5681 Q737.538 31.994 737.538 28.9617 Q737.538 25.9293 735.802 24.4015 Q734.089 22.8506 730.71 22.8506 L724.83 22.8506 Z" fill="#000000" fill-rule="nonzero" fill-opacity="1" /><path clip-path="url(#clip910)" d="M785.316 23.8459 L785.316 36.7394 L798.209 36.7394 L798.209 40.6746 L785.316 40.6746 L785.316 53.568 L781.427 53.568 L781.427 40.6746 L768.534 40.6746 L768.534 36.7394 L781.427 36.7394 L781.427 23.8459 L785.316 23.8459 Z" fill="#000000" fill-rule="nonzero" fill-opacity="1" /><path clip-path="url(#clip910)" d="M822.955 19.008 L844.806 19.008 L844.806 22.9432 L827.63 22.9432 L827.63 33.1746 L844.089 33.1746 L844.089 37.1098 L827.63 37.1098 L827.63 49.6328 L845.223 49.6328 L845.223 53.568 L822.955 53.568 L822.955 19.008 Z" fill="#000000" fill-rule="nonzero" fill-opacity="1" /><path clip-path="url(#clip910)" d="M873.626 20.1423 L873.626 24.7024 Q870.964 23.4293 868.602 22.8043 Q866.241 22.1793 864.042 22.1793 Q860.223 22.1793 858.14 23.6608 Q856.079 25.1422 856.079 27.8737 Q856.079 30.1653 857.445 31.3459 Q858.834 32.5033 862.677 33.2209 L865.501 33.7996 Q870.732 34.795 873.209 37.3181 Q875.709 39.8181 875.709 44.031 Q875.709 49.0541 872.329 51.6467 Q868.973 54.2393 862.468 54.2393 Q860.015 54.2393 857.237 53.6837 Q854.482 53.1282 851.519 52.0402 L851.519 47.2254 Q854.366 48.8227 857.098 49.6328 Q859.829 50.443 862.468 50.443 Q866.473 50.443 868.649 48.869 Q870.825 47.2949 870.825 44.3782 Q870.825 41.832 869.251 40.3968 Q867.7 38.9616 864.135 38.244 L861.288 37.6885 Q856.056 36.6468 853.718 34.4246 Q851.38 32.2024 851.38 28.2441 Q851.38 23.6608 854.598 21.0219 Q857.839 18.383 863.51 18.383 Q865.94 18.383 868.464 18.8228 Q870.987 19.2626 873.626 20.1423 Z" fill="#000000" fill-rule="nonzero" fill-opacity="1" /><path clip-path="url(#clip910)" d="M899.389 37.3644 Q900.894 37.8736 902.306 39.5403 Q903.741 41.207 905.176 44.1236 L909.922 53.568 L904.899 53.568 L900.477 44.7023 Q898.764 41.2301 897.144 40.0958 Q895.547 38.9616 892.769 38.9616 L887.676 38.9616 L887.676 53.568 L883.001 53.568 L883.001 19.008 L893.556 19.008 Q899.482 19.008 902.399 21.4848 Q905.315 23.9617 905.315 28.9617 Q905.315 32.2255 903.787 34.3783 Q902.283 36.5311 899.389 37.3644 M887.676 22.8506 L887.676 35.119 L893.556 35.119 Q896.936 35.119 898.649 33.5681 Q900.385 31.994 900.385 28.9617 Q900.385 25.9293 898.649 24.4015 Q896.936 22.8506 893.556 22.8506 L887.676 22.8506 Z" fill="#000000" fill-rule="nonzero" fill-opacity="1" /><path clip-path="url(#clip910)" d="M948.162 23.8459 L948.162 36.7394 L961.056 36.7394 L961.056 40.6746 L948.162 40.6746 L948.162 53.568 L944.273 53.568 L944.273 40.6746 L931.38 40.6746 L931.38 36.7394 L944.273 36.7394 L944.273 23.8459 L948.162 23.8459 Z" fill="#000000" fill-rule="nonzero" fill-opacity="1" /><path clip-path="url(#clip910)" d="M1011.68 21.67 L1011.68 26.6006 Q1009.32 24.4015 1006.63 23.3135 Q1003.97 22.2256 1000.96 22.2256 Q995.037 22.2256 991.889 25.8598 Q988.741 29.4709 988.741 36.3227 Q988.741 43.1514 991.889 46.7856 Q995.037 50.3967 1000.96 50.3967 Q1003.97 50.3967 1006.63 49.3088 Q1009.32 48.2208 1011.68 46.0217 L1011.68 50.906 Q1009.23 52.5726 1006.47 53.406 Q1003.74 54.2393 1000.69 54.2393 Q992.838 54.2393 988.324 49.4477 Q983.81 44.6329 983.81 36.3227 Q983.81 27.9894 988.324 23.1978 Q992.838 18.383 1000.69 18.383 Q1003.79 18.383 1006.52 19.2163 Q1009.27 20.0265 1011.68 21.67 Z" fill="#000000" fill-rule="nonzero" fill-opacity="1" /><path clip-path="url(#clip910)" d="M1039.62 20.1423 L1039.62 24.7024 Q1036.96 23.4293 1034.6 22.8043 Q1032.24 22.1793 1030.04 22.1793 Q1026.22 22.1793 1024.13 23.6608 Q1022.07 25.1422 1022.07 27.8737 Q1022.07 30.1653 1023.44 31.3459 Q1024.83 32.5033 1028.67 33.2209 L1031.5 33.7996 Q1036.73 34.795 1039.2 37.3181 Q1041.7 39.8181 1041.7 44.031 Q1041.7 49.0541 1038.32 51.6467 Q1034.97 54.2393 1028.46 54.2393 Q1026.01 54.2393 1023.23 53.6837 Q1020.48 53.1282 1017.51 52.0402 L1017.51 47.2254 Q1020.36 48.8227 1023.09 49.6328 Q1025.82 50.443 1028.46 50.443 Q1032.47 50.443 1034.64 48.869 Q1036.82 47.2949 1036.82 44.3782 Q1036.82 41.832 1035.25 40.3968 Q1033.69 38.9616 1030.13 38.244 L1027.28 37.6885 Q1022.05 36.6468 1019.71 34.4246 Q1017.37 32.2024 1017.37 28.2441 Q1017.37 23.6608 1020.59 21.0219 Q1023.83 18.383 1029.5 18.383 Q1031.93 18.383 1034.46 18.8228 Q1036.98 19.2626 1039.62 20.1423 Z" fill="#000000" fill-rule="nonzero" fill-opacity="1" /><path clip-path="url(#clip910)" d="M1049 19.008 L1055.96 19.008 L1064.78 42.5264 L1073.65 19.008 L1080.62 19.008 L1080.62 53.568 L1076.06 53.568 L1076.06 23.2209 L1067.14 46.9245 L1062.44 46.9245 L1053.53 23.2209 L1053.53 53.568 L1049 53.568 L1049 19.008 Z" fill="#000000" fill-rule="nonzero" fill-opacity="1" /><path clip-path="url(#clip910)" d="M1122.12 23.8459 L1122.12 36.7394 L1135.01 36.7394 L1135.01 40.6746 L1122.12 40.6746 L1122.12 53.568 L1118.23 53.568 L1118.23 40.6746 L1105.34 40.6746 L1105.34 36.7394 L1118.23 36.7394 L1118.23 23.8459 L1122.12 23.8459 Z" fill="#000000" fill-rule="nonzero" fill-opacity="1" /><path clip-path="url(#clip910)" d="M1185.64 21.67 L1185.64 26.6006 Q1183.28 24.4015 1180.59 23.3135 Q1177.93 22.2256 1174.92 22.2256 Q1168.99 22.2256 1165.85 25.8598 Q1162.7 29.4709 1162.7 36.3227 Q1162.7 43.1514 1165.85 46.7856 Q1168.99 50.3967 1174.92 50.3967 Q1177.93 50.3967 1180.59 49.3088 Q1183.28 48.2208 1185.64 46.0217 L1185.64 50.906 Q1183.18 52.5726 1180.43 53.406 Q1177.7 54.2393 1174.64 54.2393 Q1166.8 54.2393 1162.28 49.4477 Q1157.77 44.6329 1157.77 36.3227 Q1157.77 27.9894 1162.28 23.1978 Q1166.8 18.383 1174.64 18.383 Q1177.74 18.383 1180.48 19.2163 Q1183.23 20.0265 1185.64 21.67 Z" fill="#000000" fill-rule="nonzero" fill-opacity="1" /><path clip-path="url(#clip910)" d="M1206.89 22.1793 Q1201.8 22.1793 1198.79 25.9756 Q1195.8 29.7718 1195.8 36.3227 Q1195.8 42.8505 1198.79 46.6467 Q1201.8 50.443 1206.89 50.443 Q1211.98 50.443 1214.94 46.6467 Q1217.93 42.8505 1217.93 36.3227 Q1217.93 29.7718 1214.94 25.9756 Q1211.98 22.1793 1206.89 22.1793 M1206.89 18.383 Q1214.16 18.383 1218.51 23.2672 Q1222.86 28.1283 1222.86 36.3227 Q1222.86 44.494 1218.51 49.3782 Q1214.16 54.2393 1206.89 54.2393 Q1199.6 54.2393 1195.22 49.3782 Q1190.87 44.5171 1190.87 36.3227 Q1190.87 28.1283 1195.22 23.2672 Q1199.6 18.383 1206.89 18.383 Z" fill="#000000" fill-rule="nonzero" fill-opacity="1" /><path clip-path="url(#clip910)" d="M1234.62 49.6328 L1250.94 49.6328 L1250.94 53.568 L1228.99 53.568 L1228.99 49.6328 Q1231.66 46.8782 1236.24 42.2486 Q1240.85 37.5959 1242.03 36.2533 Q1244.27 33.7301 1245.15 31.994 Q1246.05 30.2348 1246.05 28.545 Q1246.05 25.7904 1244.11 24.0543 Q1242.19 22.3182 1239.09 22.3182 Q1236.89 22.3182 1234.43 23.0821 Q1232 23.8459 1229.23 25.3969 L1229.23 20.6747 Q1232.05 19.5404 1234.5 18.9617 Q1236.96 18.383 1238.99 18.383 Q1244.36 18.383 1247.56 21.0682 Q1250.75 23.7533 1250.75 28.2441 Q1250.75 30.3737 1249.94 32.295 Q1249.16 34.1931 1247.05 36.7857 Q1246.47 37.457 1243.37 40.6746 Q1240.27 43.869 1234.62 49.6328 Z" fill="#000000" fill-rule="nonzero" fill-opacity="1" /><path clip-path="url(#clip910)" d="M1275.41 19.008 L1280.08 19.008 L1280.08 49.6328 L1296.91 49.6328 L1296.91 53.568 L1275.41 53.568 L1275.41 19.008 Z" fill="#000000" fill-rule="nonzero" fill-opacity="1" /><path clip-path="url(#clip910)" d="M1310.85 30.6283 Q1307.42 30.6283 1305.43 33.3135 Q1303.44 35.9755 1303.44 40.6283 Q1303.44 45.281 1305.41 47.9662 Q1307.4 50.6282 1310.85 50.6282 Q1314.25 50.6282 1316.24 47.943 Q1318.23 45.2579 1318.23 40.6283 Q1318.23 36.0218 1316.24 33.3366 Q1314.25 30.6283 1310.85 30.6283 M1310.85 27.0172 Q1316.4 27.0172 1319.57 30.6283 Q1322.74 34.2394 1322.74 40.6283 Q1322.74 46.994 1319.57 50.6282 Q1316.4 54.2393 1310.85 54.2393 Q1305.27 54.2393 1302.1 50.6282 Q1298.95 46.994 1298.95 40.6283 Q1298.95 34.2394 1302.1 30.6283 Q1305.27 27.0172 1310.85 27.0172 Z" fill="#000000" fill-rule="nonzero" fill-opacity="1" /><path clip-path="url(#clip910)" d="M1341.59 40.5357 Q1336.42 40.5357 1334.43 41.7162 Q1332.44 42.8968 1332.44 45.744 Q1332.44 48.0125 1333.92 49.3551 Q1335.43 50.6745 1338 50.6745 Q1341.54 50.6745 1343.67 48.1745 Q1345.82 45.6514 1345.82 41.4847 L1345.82 40.5357 L1341.59 40.5357 M1350.08 38.7764 L1350.08 53.568 L1345.82 53.568 L1345.82 49.6328 Q1344.36 51.9939 1342.19 53.1282 Q1340.01 54.2393 1336.86 54.2393 Q1332.88 54.2393 1330.52 52.0171 Q1328.18 49.7717 1328.18 46.0217 Q1328.18 41.6468 1331.1 39.4246 Q1334.04 37.2023 1339.85 37.2023 L1345.82 37.2023 L1345.82 36.7857 Q1345.82 33.8459 1343.88 32.2487 Q1341.96 30.6283 1338.46 30.6283 Q1336.24 30.6283 1334.13 31.1607 Q1332.03 31.6931 1330.08 32.7579 L1330.08 28.8228 Q1332.42 27.92 1334.62 27.4802 Q1336.82 27.0172 1338.9 27.0172 Q1344.53 27.0172 1347.3 29.9339 Q1350.08 32.8505 1350.08 38.7764 Z" fill="#000000" fill-rule="nonzero" fill-opacity="1" /><path clip-path="url(#clip910)" d="M1375.91 31.5774 L1375.91 17.5497 L1380.17 17.5497 L1380.17 53.568 L1375.91 53.568 L1375.91 49.6791 Q1374.57 51.9939 1372.51 53.1282 Q1370.47 54.2393 1367.6 54.2393 Q1362.91 54.2393 1359.94 50.4893 Q1357 46.7393 1357 40.6283 Q1357 34.5172 1359.94 30.7672 Q1362.91 27.0172 1367.6 27.0172 Q1370.47 27.0172 1372.51 28.1515 Q1374.57 29.2626 1375.91 31.5774 M1361.4 40.6283 Q1361.4 45.3273 1363.32 48.0125 Q1365.27 50.6745 1368.65 50.6745 Q1372.03 50.6745 1373.97 48.0125 Q1375.91 45.3273 1375.91 40.6283 Q1375.91 35.9292 1373.97 33.2672 Q1372.03 30.582 1368.65 30.582 Q1365.27 30.582 1363.32 33.2672 Q1361.4 35.9292 1361.4 40.6283 Z" fill="#000000" fill-rule="nonzero" fill-opacity="1" /><path clip-path="url(#clip910)" d="M1430.08 21.67 L1430.08 26.6006 Q1427.72 24.4015 1425.03 23.3135 Q1422.37 22.2256 1419.36 22.2256 Q1413.44 22.2256 1410.29 25.8598 Q1407.14 29.4709 1407.14 36.3227 Q1407.14 43.1514 1410.29 46.7856 Q1413.44 50.3967 1419.36 50.3967 Q1422.37 50.3967 1425.03 49.3088 Q1427.72 48.2208 1430.08 46.0217 L1430.08 50.906 Q1427.63 52.5726 1424.87 53.406 Q1422.14 54.2393 1419.09 54.2393 Q1411.24 54.2393 1406.72 49.4477 Q1402.21 44.6329 1402.21 36.3227 Q1402.21 27.9894 1406.72 23.1978 Q1411.24 18.383 1419.09 18.383 Q1422.19 18.383 1424.92 19.2163 Q1427.67 20.0265 1430.08 21.67 Z" fill="#000000" fill-rule="nonzero" fill-opacity="1" /><path clip-path="url(#clip910)" d="M1448.9 40.5357 Q1443.74 40.5357 1441.75 41.7162 Q1439.76 42.8968 1439.76 45.744 Q1439.76 48.0125 1441.24 49.3551 Q1442.74 50.6745 1445.31 50.6745 Q1448.85 50.6745 1450.98 48.1745 Q1453.14 45.6514 1453.14 41.4847 L1453.14 40.5357 L1448.9 40.5357 M1457.4 38.7764 L1457.4 53.568 L1453.14 53.568 L1453.14 49.6328 Q1451.68 51.9939 1449.5 53.1282 Q1447.33 54.2393 1444.18 54.2393 Q1440.2 54.2393 1437.84 52.0171 Q1435.5 49.7717 1435.5 46.0217 Q1435.5 41.6468 1438.41 39.4246 Q1441.35 37.2023 1447.16 37.2023 L1453.14 37.2023 L1453.14 36.7857 Q1453.14 33.8459 1451.19 32.2487 Q1449.27 30.6283 1445.78 30.6283 Q1443.55 30.6283 1441.45 31.1607 Q1439.34 31.6931 1437.4 32.7579 L1437.4 28.8228 Q1439.73 27.92 1441.93 27.4802 Q1444.13 27.0172 1446.22 27.0172 Q1451.84 27.0172 1454.62 29.9339 Q1457.4 32.8505 1457.4 38.7764 Z" fill="#000000" fill-rule="nonzero" fill-opacity="1" /><path clip-path="url(#clip910)" d="M1470.29 49.6791 L1470.29 63.4291 L1466.01 63.4291 L1466.01 27.6422 L1470.29 27.6422 L1470.29 31.5774 Q1471.63 29.2626 1473.67 28.1515 Q1475.73 27.0172 1478.58 27.0172 Q1483.3 27.0172 1486.24 30.7672 Q1489.2 34.5172 1489.2 40.6283 Q1489.2 46.7393 1486.24 50.4893 Q1483.3 54.2393 1478.58 54.2393 Q1475.73 54.2393 1473.67 53.1282 Q1471.63 51.9939 1470.29 49.6791 M1484.78 40.6283 Q1484.78 35.9292 1482.84 33.2672 Q1480.91 30.582 1477.53 30.582 Q1474.15 30.582 1472.21 33.2672 Q1470.29 35.9292 1470.29 40.6283 Q1470.29 45.3273 1472.21 48.0125 Q1474.15 50.6745 1477.53 50.6745 Q1480.91 50.6745 1482.84 48.0125 Q1484.78 45.3273 1484.78 40.6283 Z" fill="#000000" fill-rule="nonzero" fill-opacity="1" /><path clip-path="url(#clip910)" d="M847.572 74.0193 Q842.48 74.0193 839.471 77.8156 Q836.485 81.6118 836.485 88.1627 Q836.485 94.6905 839.471 98.4867 Q842.48 102.283 847.572 102.283 Q852.665 102.283 855.628 98.4867 Q858.614 94.6905 858.614 88.1627 Q858.614 81.6118 855.628 77.8156 Q852.665 74.0193 847.572 74.0193 M847.572 70.223 Q854.841 70.223 859.193 75.1072 Q863.545 79.9683 863.545 88.1627 Q863.545 96.334 859.193 101.218 Q854.841 106.079 847.572 106.079 Q840.281 106.079 835.906 101.218 Q831.554 96.3571 831.554 88.1627 Q831.554 79.9683 835.906 75.1072 Q840.281 70.223 847.572 70.223 Z" fill="#000000" fill-rule="nonzero" fill-opacity="1" /><path clip-path="url(#clip910)" d="M889.285 92.4683 Q889.285 87.7692 887.341 85.1072 Q885.42 82.422 882.04 82.422 Q878.66 82.422 876.716 85.1072 Q874.795 87.7692 874.795 92.4683 Q874.795 97.1673 876.716 99.8525 Q878.66 102.514 882.04 102.514 Q885.42 102.514 887.341 99.8525 Q889.285 97.1673 889.285 92.4683 M874.795 83.4174 Q876.137 81.1026 878.174 79.9915 Q880.234 78.8572 883.082 78.8572 Q887.804 78.8572 890.744 82.6072 Q893.706 86.3572 893.706 92.4683 Q893.706 98.5793 890.744 102.329 Q887.804 106.079 883.082 106.079 Q880.234 106.079 878.174 104.968 Q876.137 103.834 874.795 101.519 L874.795 105.408 L870.512 105.408 L870.512 69.3897 L874.795 69.3897 L874.795 83.4174 Z" fill="#000000" fill-rule="nonzero" fill-opacity="1" /><path clip-path="url(#clip910)" d="M900.767 79.4822 L905.026 79.4822 L905.026 105.871 Q905.026 110.825 903.128 113.047 Q901.253 115.269 897.063 115.269 L895.443 115.269 L895.443 111.658 L896.577 111.658 Q899.007 111.658 899.887 110.524 Q900.767 109.413 900.767 105.871 L900.767 79.4822 M900.767 69.3897 L905.026 69.3897 L905.026 74.7832 L900.767 74.7832 L900.767 69.3897 Z" fill="#000000" fill-rule="nonzero" fill-opacity="1" /><path clip-path="url(#clip910)" d="M938.104 105.408 L924.91 70.848 L929.794 70.848 L940.743 99.9451 L951.715 70.848 L956.577 70.848 L943.405 105.408 L938.104 105.408 Z" fill="#000000" fill-rule="nonzero" fill-opacity="1" /><path clip-path="url(#clip910)" d="M969.539 92.3757 Q964.377 92.3757 962.387 93.5562 Q960.396 94.7368 960.396 97.584 Q960.396 99.8525 961.877 101.195 Q963.382 102.514 965.951 102.514 Q969.493 102.514 971.623 100.015 Q973.776 97.4914 973.776 93.3247 L973.776 92.3757 L969.539 92.3757 M978.035 90.6164 L978.035 105.408 L973.776 105.408 L973.776 101.473 Q972.317 103.834 970.141 104.968 Q967.965 106.079 964.817 106.079 Q960.836 106.079 958.475 103.857 Q956.137 101.612 956.137 97.8617 Q956.137 93.4868 959.053 91.2646 Q961.993 89.0423 967.803 89.0423 L973.776 89.0423 L973.776 88.6257 Q973.776 85.6859 971.831 84.0887 Q969.91 82.4683 966.414 82.4683 Q964.192 82.4683 962.086 83.0007 Q959.979 83.5331 958.035 84.5979 L958.035 80.6628 Q960.373 79.76 962.572 79.3202 Q964.771 78.8572 966.854 78.8572 Q972.479 78.8572 975.257 81.7739 Q978.035 84.6905 978.035 90.6164 Z" fill="#000000" fill-rule="nonzero" fill-opacity="1" /><path clip-path="url(#clip910)" d="M986.808 69.3897 L991.067 69.3897 L991.067 105.408 L986.808 105.408 L986.808 69.3897 Z" fill="#000000" fill-rule="nonzero" fill-opacity="1" /><path clip-path="url(#clip910)" d="M1001.07 99.5284 L1005.95 99.5284 L1005.95 105.408 L1001.07 105.408 L1001.07 99.5284 M1001.07 80.8942 L1005.95 80.8942 L1005.95 86.7738 L1001.07 86.7738 L1001.07 80.8942 Z" fill="#000000" fill-rule="nonzero" fill-opacity="1" /><path clip-path="url(#clip910)" d="M1031.76 104.69 L1031.76 100.431 Q1033.52 101.265 1035.33 101.704 Q1037.13 102.144 1038.87 102.144 Q1043.5 102.144 1045.93 99.0423 Q1048.38 95.9173 1048.73 89.5748 Q1047.39 91.5655 1045.33 92.6303 Q1043.27 93.6951 1040.77 93.6951 Q1035.58 93.6951 1032.55 90.5701 Q1029.54 87.422 1029.54 81.9822 Q1029.54 76.6582 1032.69 73.4406 Q1035.84 70.223 1041.07 70.223 Q1047.06 70.223 1050.21 74.8295 Q1053.38 79.4128 1053.38 88.1627 Q1053.38 96.334 1049.49 101.218 Q1045.63 106.079 1039.08 106.079 Q1037.32 106.079 1035.51 105.732 Q1033.71 105.385 1031.76 104.69 M1041.07 90.0377 Q1044.21 90.0377 1046.04 87.8849 Q1047.9 85.7322 1047.9 81.9822 Q1047.9 78.2554 1046.04 76.1026 Q1044.21 73.9267 1041.07 73.9267 Q1037.92 73.9267 1036.07 76.1026 Q1034.24 78.2554 1034.24 81.9822 Q1034.24 85.7322 1036.07 87.8849 Q1037.92 90.0377 1041.07 90.0377 Z" fill="#000000" fill-rule="nonzero" fill-opacity="1" /><path clip-path="url(#clip910)" d="M1071.78 88.9961 Q1068.45 88.9961 1066.53 90.7784 Q1064.63 92.5608 1064.63 95.6858 Q1064.63 98.8108 1066.53 100.593 Q1068.45 102.376 1071.78 102.376 Q1075.12 102.376 1077.04 100.593 Q1078.96 98.7877 1078.96 95.6858 Q1078.96 92.5608 1077.04 90.7784 Q1075.14 88.9961 1071.78 88.9961 M1067.11 87.0053 Q1064.1 86.2646 1062.41 84.2044 Q1060.74 82.1442 1060.74 79.1813 Q1060.74 75.0378 1063.68 72.6304 Q1066.65 70.223 1071.78 70.223 Q1076.95 70.223 1079.89 72.6304 Q1082.83 75.0378 1082.83 79.1813 Q1082.83 82.1442 1081.14 84.2044 Q1079.47 86.2646 1076.48 87.0053 Q1079.86 87.7924 1081.74 90.084 Q1083.64 92.3757 1083.64 95.6858 Q1083.64 100.709 1080.56 103.394 Q1077.5 106.079 1071.78 106.079 Q1066.07 106.079 1062.99 103.394 Q1059.93 100.709 1059.93 95.6858 Q1059.93 92.3757 1061.83 90.084 Q1063.73 87.7924 1067.11 87.0053 M1065.4 79.6211 Q1065.4 82.3063 1067.06 83.8109 Q1068.75 85.3155 1071.78 85.3155 Q1074.79 85.3155 1076.48 83.8109 Q1078.2 82.3063 1078.2 79.6211 Q1078.2 76.9359 1076.48 75.4313 Q1074.79 73.9267 1071.78 73.9267 Q1068.75 73.9267 1067.06 75.4313 Q1065.4 76.9359 1065.4 79.6211 Z" fill="#000000" fill-rule="nonzero" fill-opacity="1" /><path clip-path="url(#clip910)" d="M1101.95 88.9961 Q1098.61 88.9961 1096.69 90.7784 Q1094.79 92.5608 1094.79 95.6858 Q1094.79 98.8108 1096.69 100.593 Q1098.61 102.376 1101.95 102.376 Q1105.28 102.376 1107.2 100.593 Q1109.12 98.7877 1109.12 95.6858 Q1109.12 92.5608 1107.2 90.7784 Q1105.3 88.9961 1101.95 88.9961 M1097.27 87.0053 Q1094.26 86.2646 1092.57 84.2044 Q1090.9 82.1442 1090.9 79.1813 Q1090.9 75.0378 1093.84 72.6304 Q1096.81 70.223 1101.95 70.223 Q1107.11 70.223 1110.05 72.6304 Q1112.99 75.0378 1112.99 79.1813 Q1112.99 82.1442 1111.3 84.2044 Q1109.63 86.2646 1106.65 87.0053 Q1110.02 87.7924 1111.9 90.084 Q1113.8 92.3757 1113.8 95.6858 Q1113.8 100.709 1110.72 103.394 Q1107.66 106.079 1101.95 106.079 Q1096.23 106.079 1093.15 103.394 Q1090.09 100.709 1090.09 95.6858 Q1090.09 92.3757 1091.99 90.084 Q1093.89 87.7924 1097.27 87.0053 M1095.56 79.6211 Q1095.56 82.3063 1097.22 83.8109 Q1098.91 85.3155 1101.95 85.3155 Q1104.96 85.3155 1106.65 83.8109 Q1108.36 82.3063 1108.36 79.6211 Q1108.36 76.9359 1106.65 75.4313 Q1104.96 73.9267 1101.95 73.9267 Q1098.91 73.9267 1097.22 75.4313 Q1095.56 76.9359 1095.56 79.6211 Z" fill="#000000" fill-rule="nonzero" fill-opacity="1" /><path clip-path="url(#clip910)" d="M1136.27 86.7738 Q1139.63 87.4914 1141.51 89.7599 Q1143.4 92.0284 1143.4 95.3618 Q1143.4 100.477 1139.89 103.278 Q1136.37 106.079 1129.89 106.079 Q1127.71 106.079 1125.4 105.639 Q1123.1 105.223 1120.65 104.366 L1120.65 99.8525 Q1122.59 100.987 1124.91 101.565 Q1127.22 102.144 1129.75 102.144 Q1134.15 102.144 1136.44 100.408 Q1138.75 98.6719 1138.75 95.3618 Q1138.75 92.3062 1136.6 90.5933 Q1134.47 88.8572 1130.65 88.8572 L1126.62 88.8572 L1126.62 85.0146 L1130.83 85.0146 Q1134.28 85.0146 1136.11 83.6489 Q1137.94 82.26 1137.94 79.6674 Q1137.94 77.0054 1136.04 75.5933 Q1134.17 74.1582 1130.65 74.1582 Q1128.73 74.1582 1126.53 74.5748 Q1124.33 74.9915 1121.69 75.8711 L1121.69 71.7045 Q1124.35 70.9637 1126.67 70.5934 Q1129.01 70.223 1131.07 70.223 Q1136.39 70.223 1139.49 72.6535 Q1142.59 75.0609 1142.59 79.1813 Q1142.59 82.0516 1140.95 84.0424 Q1139.31 86.01 1136.27 86.7738 Z" fill="#000000" fill-rule="nonzero" fill-opacity="1" /><path clip-path="url(#clip910)" d="M1152.27 99.5284 L1157.15 99.5284 L1157.15 105.408 L1152.27 105.408 L1152.27 99.5284 Z" fill="#000000" fill-rule="nonzero" fill-opacity="1" /><path clip-path="url(#clip910)" d="M1168.15 101.473 L1175.79 101.473 L1175.79 75.1072 L1167.48 76.7739 L1167.48 72.5147 L1175.74 70.848 L1180.42 70.848 L1180.42 101.473 L1188.06 101.473 L1188.06 105.408 L1168.15 105.408 L1168.15 101.473 Z" fill="#000000" fill-rule="nonzero" fill-opacity="1" /><path clip-path="url(#clip910)" d="M1196.32 70.848 L1218.54 70.848 L1218.54 72.8387 L1206 105.408 L1201.11 105.408 L1212.92 74.7832 L1196.32 74.7832 L1196.32 70.848 Z" fill="#000000" fill-rule="nonzero" fill-opacity="1" /><path clip-path="url(#clip910)" d="M1228.47 101.473 L1236.11 101.473 L1236.11 75.1072 L1227.8 76.7739 L1227.8 72.5147 L1236.07 70.848 L1240.74 70.848 L1240.74 101.473 L1248.38 101.473 L1248.38 105.408 L1228.47 105.408 L1228.47 101.473 Z" fill="#000000" fill-rule="nonzero" fill-opacity="1" /><path clip-path="url(#clip910)" d="M1256.64 70.848 L1278.87 70.848 L1278.87 72.8387 L1266.32 105.408 L1261.44 105.408 L1273.24 74.7832 L1256.64 74.7832 L1256.64 70.848 Z" fill="#000000" fill-rule="nonzero" fill-opacity="1" /><path clip-path="url(#clip910)" d="M1286.81 70.848 L1309.03 70.848 L1309.03 72.8387 L1296.48 105.408 L1291.6 105.408 L1303.4 74.7832 L1286.81 74.7832 L1286.81 70.848 Z" fill="#000000" fill-rule="nonzero" fill-opacity="1" /><path clip-path="url(#clip910)" d="M1316.97 70.848 L1339.19 70.848 L1339.19 72.8387 L1326.64 105.408 L1321.76 105.408 L1333.57 74.7832 L1316.97 74.7832 L1316.97 70.848 Z" fill="#000000" fill-rule="nonzero" fill-opacity="1" /><path clip-path="url(#clip912)" d="M296.648 156.304 L296.648 442.897 L1856.37 442.897 L1856.37 156.304 L296.648 156.304 L296.648 156.304  Z" fill="#c0c0c0" fill-rule="evenodd" fill-opacity="1"/>
<polyline clip-path="url(#clip912)" style="stroke:#000000; stroke-linecap:round; stroke-linejoin:round; stroke-width:4; stroke-opacity:1; fill:none" points="296.648,156.304 296.648,442.897 1856.37,442.897 1856.37,156.304 296.648,156.304 "/>
<circle clip-path="url(#clip912)" style="fill:#c0c0c0; stroke:none; fill-opacity:0" cx="1076.51" cy="156.304" r="2"/>
<path clip-path="url(#clip912)" d="M296.648 442.897 L296.648 1093.87 L1856.37 1093.87 L1856.37 442.897 L296.648 442.897 L296.648 442.897  Z" fill="#ffff00" fill-rule="evenodd" fill-opacity="1"/>
<polyline clip-path="url(#clip912)" style="stroke:#000000; stroke-linecap:round; stroke-linejoin:round; stroke-width:4; stroke-opacity:1; fill:none" points="296.648,442.897 296.648,1093.87 1856.37,1093.87 1856.37,442.897 296.648,442.897 "/>
<circle clip-path="url(#clip912)" style="fill:#ffff00; stroke:none; fill-opacity:0" cx="1076.51" cy="442.897" r="2"/>
<path clip-path="url(#clip912)" d="M296.648 1093.87 L296.648 1566.85 L1856.37 1566.85 L1856.37 1093.87 L296.648 1093.87 L296.648 1093.87  Z" fill="#00bfff" fill-rule="evenodd" fill-opacity="1"/>
<polyline clip-path="url(#clip912)" style="stroke:#000000; stroke-linecap:round; stroke-linejoin:round; stroke-width:4; stroke-opacity:1; fill:none" points="296.648,1093.87 296.648,1566.85 1856.37,1566.85 1856.37,1093.87 296.648,1093.87 "/>
<circle clip-path="url(#clip912)" style="fill:#00bfff; stroke:none; fill-opacity:0" cx="1076.51" cy="1093.87" r="2"/>
<path clip-path="url(#clip912)" d="M296.648 1566.85 L296.648 1752.76 L1856.37 1752.76 L1856.37 1566.85 L296.648 1566.85 L296.648 1566.85  Z" fill="#cd3278" fill-rule="evenodd" fill-opacity="1"/>
<polyline clip-path="url(#clip912)" style="stroke:#000000; stroke-linecap:round; stroke-linejoin:round; stroke-width:4; stroke-opacity:1; fill:none" points="296.648,1566.85 296.648,1752.76 1856.37,1752.76 1856.37,1566.85 296.648,1566.85 "/>
<circle clip-path="url(#clip912)" style="fill:#cd3278; stroke:none; fill-opacity:0" cx="1076.51" cy="1566.85" r="2"/>
<path clip-path="url(#clip910)" d="M1445.64 468.719 L1894.34 468.719 L1894.34 209.519 L1445.64 209.519  Z" fill="#ffffff" fill-rule="evenodd" fill-opacity="1"/>
<polyline clip-path="url(#clip910)" style="stroke:#000000; stroke-linecap:round; stroke-linejoin:round; stroke-width:4; stroke-opacity:1; fill:none" points="1445.64,468.719 1894.34,468.719 1894.34,209.519 1445.64,209.519 1445.64,468.719 "/>
<path clip-path="url(#clip910)" d="M1465.11 282.095 L1581.95 282.095 L1581.95 240.623 L1465.11 240.623 L1465.11 282.095  Z" fill="#c0c0c0" fill-rule="evenodd" fill-opacity="1"/>
<polyline clip-path="url(#clip910)" style="stroke:#000000; stroke-linecap:round; stroke-linejoin:round; stroke-width:4; stroke-opacity:1; fill:none" points="1465.11,282.095 1581.95,282.095 1581.95,240.623 1465.11,240.623 1465.11,282.095 "/>
<path clip-path="url(#clip910)" d="M1601.42 244.079 L1607.72 244.079 L1623.04 272.991 L1623.04 244.079 L1627.58 244.079 L1627.58 278.639 L1621.28 278.639 L1605.96 249.727 L1605.96 278.639 L1601.42 278.639 L1601.42 244.079 Z" fill="#000000" fill-rule="nonzero" fill-opacity="1" /><path clip-path="url(#clip910)" d="M1648.48 265.607 Q1643.32 265.607 1641.33 266.787 Q1639.34 267.968 1639.34 270.815 Q1639.34 273.084 1640.82 274.426 Q1642.32 275.746 1644.89 275.746 Q1648.43 275.746 1650.56 273.246 Q1652.72 270.723 1652.72 266.556 L1652.72 265.607 L1648.48 265.607 M1656.97 263.848 L1656.97 278.639 L1652.72 278.639 L1652.72 274.704 Q1651.26 277.065 1649.08 278.199 Q1646.91 279.31 1643.76 279.31 Q1639.78 279.31 1637.41 277.088 Q1635.08 274.843 1635.08 271.093 Q1635.08 266.718 1637.99 264.496 Q1640.93 262.274 1646.74 262.274 L1652.72 262.274 L1652.72 261.857 Q1652.72 258.917 1650.77 257.32 Q1648.85 255.699 1645.35 255.699 Q1643.13 255.699 1641.03 256.232 Q1638.92 256.764 1636.97 257.829 L1636.97 253.894 Q1639.31 252.991 1641.51 252.551 Q1643.71 252.088 1645.79 252.088 Q1651.42 252.088 1654.2 255.005 Q1656.97 257.922 1656.97 263.848 Z" fill="#000000" fill-rule="nonzero" fill-opacity="1" /><path clip-path="url(#clip910)" d="M1669.96 245.352 L1669.96 252.713 L1678.73 252.713 L1678.73 256.024 L1669.96 256.024 L1669.96 270.098 Q1669.96 273.269 1670.82 274.172 Q1671.7 275.074 1674.36 275.074 L1678.73 275.074 L1678.73 278.639 L1674.36 278.639 Q1669.43 278.639 1667.55 276.81 Q1665.68 274.959 1665.68 270.098 L1665.68 256.024 L1662.55 256.024 L1662.55 252.713 L1665.68 252.713 L1665.68 245.352 L1669.96 245.352 Z" fill="#000000" fill-rule="nonzero" fill-opacity="1" /><path clip-path="url(#clip910)" d="M1683.9 268.408 L1683.9 252.713 L1688.16 252.713 L1688.16 268.246 Q1688.16 271.926 1689.59 273.778 Q1691.03 275.607 1693.9 275.607 Q1697.34 275.607 1699.34 273.408 Q1701.35 271.209 1701.35 267.412 L1701.35 252.713 L1705.61 252.713 L1705.61 278.639 L1701.35 278.639 L1701.35 274.658 Q1699.8 277.019 1697.74 278.176 Q1695.7 279.31 1692.99 279.31 Q1688.53 279.31 1686.21 276.533 Q1683.9 273.755 1683.9 268.408 M1694.61 252.088 L1694.61 252.088 Z" fill="#000000" fill-rule="nonzero" fill-opacity="1" /><path clip-path="url(#clip910)" d="M1729.4 256.695 Q1728.69 256.278 1727.83 256.093 Q1727 255.885 1725.98 255.885 Q1722.37 255.885 1720.42 258.246 Q1718.5 260.584 1718.5 264.982 L1718.5 278.639 L1714.22 278.639 L1714.22 252.713 L1718.5 252.713 L1718.5 256.741 Q1719.84 254.38 1722 253.246 Q1724.15 252.088 1727.23 252.088 Q1727.67 252.088 1728.2 252.158 Q1728.73 252.204 1729.38 252.32 L1729.4 256.695 Z" fill="#000000" fill-rule="nonzero" fill-opacity="1" /><path clip-path="url(#clip910)" d="M1745.65 265.607 Q1740.49 265.607 1738.5 266.787 Q1736.51 267.968 1736.51 270.815 Q1736.51 273.084 1737.99 274.426 Q1739.5 275.746 1742.07 275.746 Q1745.61 275.746 1747.74 273.246 Q1749.89 270.723 1749.89 266.556 L1749.89 265.607 L1745.65 265.607 M1754.15 263.848 L1754.15 278.639 L1749.89 278.639 L1749.89 274.704 Q1748.43 277.065 1746.26 278.199 Q1744.08 279.31 1740.93 279.31 Q1736.95 279.31 1734.59 277.088 Q1732.25 274.843 1732.25 271.093 Q1732.25 266.718 1735.17 264.496 Q1738.11 262.274 1743.92 262.274 L1749.89 262.274 L1749.89 261.857 Q1749.89 258.917 1747.95 257.32 Q1746.03 255.699 1742.53 255.699 Q1740.31 255.699 1738.2 256.232 Q1736.09 256.764 1734.15 257.829 L1734.15 253.894 Q1736.49 252.991 1738.69 252.551 Q1740.89 252.088 1742.97 252.088 Q1748.59 252.088 1751.37 255.005 Q1754.15 257.922 1754.15 263.848 Z" fill="#000000" fill-rule="nonzero" fill-opacity="1" /><path clip-path="url(#clip910)" d="M1762.92 242.621 L1767.18 242.621 L1767.18 278.639 L1762.92 278.639 L1762.92 242.621 Z" fill="#000000" fill-rule="nonzero" fill-opacity="1" /><path clip-path="url(#clip910)" d="M1814.91 273.709 L1814.91 264.426 L1807.27 264.426 L1807.27 260.584 L1819.54 260.584 L1819.54 275.422 Q1816.83 277.343 1813.57 278.338 Q1810.31 279.31 1806.6 279.31 Q1798.5 279.31 1793.92 274.588 Q1789.36 269.843 1789.36 261.394 Q1789.36 252.922 1793.92 248.2 Q1798.5 243.454 1806.6 243.454 Q1809.98 243.454 1813.02 244.288 Q1816.07 245.121 1818.64 246.741 L1818.64 251.718 Q1816.05 249.519 1813.13 248.408 Q1810.21 247.297 1807 247.297 Q1800.65 247.297 1797.46 250.838 Q1794.29 254.38 1794.29 261.394 Q1794.29 268.385 1797.46 271.926 Q1800.65 275.468 1807 275.468 Q1809.47 275.468 1811.42 275.051 Q1813.36 274.611 1814.91 273.709 Z" fill="#000000" fill-rule="nonzero" fill-opacity="1" /><path clip-path="url(#clip910)" d="M1839.68 265.607 Q1834.52 265.607 1832.53 266.787 Q1830.54 267.968 1830.54 270.815 Q1830.54 273.084 1832.02 274.426 Q1833.52 275.746 1836.09 275.746 Q1839.64 275.746 1841.77 273.246 Q1843.92 270.723 1843.92 266.556 L1843.92 265.607 L1839.68 265.607 M1848.18 263.848 L1848.18 278.639 L1843.92 278.639 L1843.92 274.704 Q1842.46 277.065 1840.28 278.199 Q1838.11 279.31 1834.96 279.31 Q1830.98 279.31 1828.62 277.088 Q1826.28 274.843 1826.28 271.093 Q1826.28 266.718 1829.2 264.496 Q1832.14 262.274 1837.95 262.274 L1843.92 262.274 L1843.92 261.857 Q1843.92 258.917 1841.97 257.32 Q1840.05 255.699 1836.56 255.699 Q1834.33 255.699 1832.23 256.232 Q1830.12 256.764 1828.18 257.829 L1828.18 253.894 Q1830.52 252.991 1832.71 252.551 Q1834.91 252.088 1837 252.088 Q1842.62 252.088 1845.4 255.005 Q1848.18 257.922 1848.18 263.848 Z" fill="#000000" fill-rule="nonzero" fill-opacity="1" /><path clip-path="url(#clip910)" d="M1873.48 253.477 L1873.48 257.505 Q1871.67 256.579 1869.73 256.116 Q1867.78 255.653 1865.7 255.653 Q1862.53 255.653 1860.93 256.625 Q1859.36 257.598 1859.36 259.542 Q1859.36 261.024 1860.49 261.88 Q1861.63 262.713 1865.05 263.477 L1866.51 263.801 Q1871.05 264.774 1872.95 266.556 Q1874.87 268.315 1874.87 271.486 Q1874.87 275.098 1872 277.204 Q1869.15 279.31 1864.15 279.31 Q1862.07 279.31 1859.8 278.894 Q1857.55 278.5 1855.05 277.69 L1855.05 273.292 Q1857.41 274.519 1859.71 275.144 Q1862 275.746 1864.24 275.746 Q1867.25 275.746 1868.87 274.727 Q1870.49 273.686 1870.49 271.811 Q1870.49 270.074 1869.31 269.148 Q1868.15 268.223 1864.2 267.366 L1862.71 267.019 Q1858.76 266.186 1857 264.473 Q1855.24 262.736 1855.24 259.727 Q1855.24 256.07 1857.83 254.079 Q1860.42 252.088 1865.19 252.088 Q1867.55 252.088 1869.64 252.436 Q1871.72 252.783 1873.48 253.477 Z" fill="#000000" fill-rule="nonzero" fill-opacity="1" /><path clip-path="url(#clip910)" d="M1465.11 333.935 L1581.95 333.935 L1581.95 292.463 L1465.11 292.463 L1465.11 333.935  Z" fill="#ffff00" fill-rule="evenodd" fill-opacity="1"/>
<polyline clip-path="url(#clip910)" style="stroke:#000000; stroke-linecap:round; stroke-linejoin:round; stroke-width:4; stroke-opacity:1; fill:none" points="1465.11,333.935 1581.95,333.935 1581.95,292.463 1465.11,292.463 1465.11,333.935 "/>
<path clip-path="url(#clip910)" d="M1623.66 297.053 L1623.66 301.614 Q1621 300.34 1618.64 299.715 Q1616.28 299.09 1614.08 299.09 Q1610.26 299.09 1608.18 300.572 Q1606.12 302.053 1606.12 304.785 Q1606.12 307.077 1607.48 308.257 Q1608.87 309.414 1612.72 310.132 L1615.54 310.711 Q1620.77 311.706 1623.25 314.229 Q1625.75 316.729 1625.75 320.942 Q1625.75 325.965 1622.37 328.558 Q1619.01 331.15 1612.51 331.15 Q1610.05 331.15 1607.28 330.595 Q1604.52 330.039 1601.56 328.951 L1601.56 324.137 Q1604.41 325.734 1607.14 326.544 Q1609.87 327.354 1612.51 327.354 Q1616.51 327.354 1618.69 325.78 Q1620.86 324.206 1620.86 321.289 Q1620.86 318.743 1619.29 317.308 Q1617.74 315.873 1614.17 315.155 L1611.33 314.6 Q1606.1 313.558 1603.76 311.336 Q1601.42 309.114 1601.42 305.155 Q1601.42 300.572 1604.64 297.933 Q1607.88 295.294 1613.55 295.294 Q1615.98 295.294 1618.5 295.734 Q1621.03 296.174 1623.66 297.053 Z" fill="#000000" fill-rule="nonzero" fill-opacity="1" /><path clip-path="url(#clip910)" d="M1642.9 307.539 Q1639.47 307.539 1637.48 310.225 Q1635.49 312.887 1635.49 317.539 Q1635.49 322.192 1637.46 324.877 Q1639.45 327.539 1642.9 327.539 Q1646.3 327.539 1648.29 324.854 Q1650.28 322.169 1650.28 317.539 Q1650.28 312.933 1648.29 310.248 Q1646.3 307.539 1642.9 307.539 M1642.9 303.928 Q1648.46 303.928 1651.63 307.539 Q1654.8 311.151 1654.8 317.539 Q1654.8 323.905 1651.63 327.539 Q1648.46 331.15 1642.9 331.15 Q1637.32 331.15 1634.15 327.539 Q1631 323.905 1631 317.539 Q1631 311.151 1634.15 307.539 Q1637.32 303.928 1642.9 303.928 Z" fill="#000000" fill-rule="nonzero" fill-opacity="1" /><path clip-path="url(#clip910)" d="M1661.86 294.461 L1666.12 294.461 L1666.12 330.479 L1661.86 330.479 L1661.86 294.461 Z" fill="#000000" fill-rule="nonzero" fill-opacity="1" /><path clip-path="url(#clip910)" d="M1686.81 317.447 Q1681.65 317.447 1679.66 318.627 Q1677.67 319.808 1677.67 322.655 Q1677.67 324.924 1679.15 326.266 Q1680.66 327.586 1683.22 327.586 Q1686.77 327.586 1688.9 325.086 Q1691.05 322.563 1691.05 318.396 L1691.05 317.447 L1686.81 317.447 M1695.31 315.688 L1695.31 330.479 L1691.05 330.479 L1691.05 326.544 Q1689.59 328.905 1687.41 330.039 Q1685.24 331.15 1682.09 331.15 Q1678.11 331.15 1675.75 328.928 Q1673.41 326.683 1673.41 322.933 Q1673.41 318.558 1676.33 316.336 Q1679.27 314.114 1685.08 314.114 L1691.05 314.114 L1691.05 313.697 Q1691.05 310.757 1689.1 309.16 Q1687.18 307.539 1683.69 307.539 Q1681.47 307.539 1679.36 308.072 Q1677.25 308.604 1675.31 309.669 L1675.31 305.734 Q1677.65 304.831 1679.84 304.391 Q1682.04 303.928 1684.13 303.928 Q1689.75 303.928 1692.53 306.845 Q1695.31 309.762 1695.31 315.688 Z" fill="#000000" fill-rule="nonzero" fill-opacity="1" /><path clip-path="url(#clip910)" d="M1719.1 308.535 Q1718.39 308.118 1717.53 307.933 Q1716.7 307.725 1715.68 307.725 Q1712.07 307.725 1710.12 310.086 Q1708.2 312.424 1708.2 316.822 L1708.2 330.479 L1703.92 330.479 L1703.92 304.553 L1708.2 304.553 L1708.2 308.581 Q1709.54 306.22 1711.7 305.086 Q1713.85 303.928 1716.93 303.928 Q1717.37 303.928 1717.9 303.998 Q1718.43 304.044 1719.08 304.16 L1719.1 308.535 Z" fill="#000000" fill-rule="nonzero" fill-opacity="1" /><path clip-path="url(#clip910)" d="M1465.11 385.775 L1581.95 385.775 L1581.95 344.303 L1465.11 344.303 L1465.11 385.775  Z" fill="#00bfff" fill-rule="evenodd" fill-opacity="1"/>
<polyline clip-path="url(#clip910)" style="stroke:#000000; stroke-linecap:round; stroke-linejoin:round; stroke-width:4; stroke-opacity:1; fill:none" points="1465.11,385.775 1581.95,385.775 1581.95,344.303 1465.11,344.303 1465.11,385.775 "/>
<path clip-path="url(#clip910)" d="M1601.42 347.759 L1606.14 347.759 L1613.41 376.972 L1620.66 347.759 L1625.91 347.759 L1633.18 376.972 L1640.42 347.759 L1645.17 347.759 L1636.49 382.319 L1630.61 382.319 L1623.32 352.319 L1615.96 382.319 L1610.08 382.319 L1601.42 347.759 Z" fill="#000000" fill-rule="nonzero" fill-opacity="1" /><path clip-path="url(#clip910)" d="M1650.15 356.393 L1654.41 356.393 L1654.41 382.319 L1650.15 382.319 L1650.15 356.393 M1650.15 346.301 L1654.41 346.301 L1654.41 351.694 L1650.15 351.694 L1650.15 346.301 Z" fill="#000000" fill-rule="nonzero" fill-opacity="1" /><path clip-path="url(#clip910)" d="M1684.87 366.671 L1684.87 382.319 L1680.61 382.319 L1680.61 366.81 Q1680.61 363.129 1679.17 361.301 Q1677.74 359.472 1674.87 359.472 Q1671.42 359.472 1669.43 361.671 Q1667.44 363.87 1667.44 367.666 L1667.44 382.319 L1663.16 382.319 L1663.16 356.393 L1667.44 356.393 L1667.44 360.421 Q1668.97 358.083 1671.03 356.926 Q1673.11 355.768 1675.82 355.768 Q1680.28 355.768 1682.58 358.546 Q1684.87 361.301 1684.87 366.671 Z" fill="#000000" fill-rule="nonzero" fill-opacity="1" /><path clip-path="url(#clip910)" d="M1710.42 360.329 L1710.42 346.301 L1714.68 346.301 L1714.68 382.319 L1710.42 382.319 L1710.42 378.43 Q1709.08 380.745 1707.02 381.879 Q1704.98 382.99 1702.11 382.99 Q1697.41 382.99 1694.45 379.24 Q1691.51 375.491 1691.51 369.379 Q1691.51 363.268 1694.45 359.518 Q1697.41 355.768 1702.11 355.768 Q1704.98 355.768 1707.02 356.903 Q1709.08 358.014 1710.42 360.329 M1695.91 369.379 Q1695.91 374.078 1697.83 376.764 Q1699.78 379.426 1703.16 379.426 Q1706.53 379.426 1708.48 376.764 Q1710.42 374.078 1710.42 369.379 Q1710.42 364.68 1708.48 362.018 Q1706.53 359.333 1703.16 359.333 Q1699.78 359.333 1697.83 362.018 Q1695.91 364.68 1695.91 369.379 Z" fill="#000000" fill-rule="nonzero" fill-opacity="1" /><path clip-path="url(#clip910)" d="M1465.11 437.615 L1581.95 437.615 L1581.95 396.143 L1465.11 396.143 L1465.11 437.615  Z" fill="#cd3278" fill-rule="evenodd" fill-opacity="1"/>
<polyline clip-path="url(#clip910)" style="stroke:#000000; stroke-linecap:round; stroke-linejoin:round; stroke-width:4; stroke-opacity:1; fill:none" points="1465.11,437.615 1581.95,437.615 1581.95,396.143 1465.11,396.143 1465.11,437.615 "/>
<path clip-path="url(#clip910)" d="M1606.1 417.655 L1606.1 430.317 L1613.6 430.317 Q1617.37 430.317 1619.17 428.766 Q1621 427.192 1621 423.974 Q1621 420.733 1619.17 419.206 Q1617.37 417.655 1613.6 417.655 L1606.1 417.655 M1606.1 403.442 L1606.1 413.858 L1613.02 413.858 Q1616.44 413.858 1618.11 412.585 Q1619.8 411.289 1619.8 408.65 Q1619.8 406.034 1618.11 404.738 Q1616.44 403.442 1613.02 403.442 L1606.1 403.442 M1601.42 399.599 L1613.36 399.599 Q1618.71 399.599 1621.6 401.821 Q1624.5 404.044 1624.5 408.141 Q1624.5 411.312 1623.02 413.187 Q1621.54 415.062 1618.66 415.525 Q1622.11 416.266 1624.01 418.627 Q1625.93 420.965 1625.93 424.483 Q1625.93 429.113 1622.79 431.636 Q1619.64 434.159 1613.83 434.159 L1601.42 434.159 L1601.42 399.599 Z" fill="#000000" fill-rule="nonzero" fill-opacity="1" /><path clip-path="url(#clip910)" d="M1645.54 421.127 Q1640.38 421.127 1638.39 422.307 Q1636.4 423.488 1636.4 426.335 Q1636.4 428.604 1637.88 429.946 Q1639.38 431.266 1641.95 431.266 Q1645.49 431.266 1647.62 428.766 Q1649.78 426.243 1649.78 422.076 L1649.78 421.127 L1645.54 421.127 M1654.03 419.368 L1654.03 434.159 L1649.78 434.159 L1649.78 430.224 Q1648.32 432.585 1646.14 433.719 Q1643.97 434.83 1640.82 434.83 Q1636.84 434.83 1634.47 432.608 Q1632.14 430.363 1632.14 426.613 Q1632.14 422.238 1635.05 420.016 Q1637.99 417.794 1643.8 417.794 L1649.78 417.794 L1649.78 417.377 Q1649.78 414.437 1647.83 412.84 Q1645.91 411.219 1642.41 411.219 Q1640.19 411.219 1638.09 411.752 Q1635.98 412.284 1634.04 413.349 L1634.04 409.414 Q1636.37 408.511 1638.57 408.071 Q1640.77 407.608 1642.85 407.608 Q1648.48 407.608 1651.26 410.525 Q1654.03 413.442 1654.03 419.368 Z" fill="#000000" fill-rule="nonzero" fill-opacity="1" /><path clip-path="url(#clip910)" d="M1667.02 400.872 L1667.02 408.233 L1675.79 408.233 L1675.79 411.544 L1667.02 411.544 L1667.02 425.618 Q1667.02 428.789 1667.88 429.692 Q1668.76 430.594 1671.42 430.594 L1675.79 430.594 L1675.79 434.159 L1671.42 434.159 Q1666.49 434.159 1664.61 432.33 Q1662.74 430.479 1662.74 425.618 L1662.74 411.544 L1659.61 411.544 L1659.61 408.233 L1662.74 408.233 L1662.74 400.872 L1667.02 400.872 Z" fill="#000000" fill-rule="nonzero" fill-opacity="1" /><path clip-path="url(#clip910)" d="M1685.61 400.872 L1685.61 408.233 L1694.38 408.233 L1694.38 411.544 L1685.61 411.544 L1685.61 425.618 Q1685.61 428.789 1686.47 429.692 Q1687.34 430.594 1690.01 430.594 L1694.38 430.594 L1694.38 434.159 L1690.01 434.159 Q1685.08 434.159 1683.2 432.33 Q1681.33 430.479 1681.33 425.618 L1681.33 411.544 L1678.2 411.544 L1678.2 408.233 L1681.33 408.233 L1681.33 400.872 L1685.61 400.872 Z" fill="#000000" fill-rule="nonzero" fill-opacity="1" /><path clip-path="url(#clip910)" d="M1722.16 420.131 L1722.16 422.215 L1702.58 422.215 Q1702.85 426.613 1705.22 428.928 Q1707.6 431.219 1711.84 431.219 Q1714.29 431.219 1716.58 430.618 Q1718.9 430.016 1721.16 428.812 L1721.16 432.84 Q1718.87 433.812 1716.47 434.321 Q1714.06 434.83 1711.58 434.83 Q1705.38 434.83 1701.74 431.219 Q1698.13 427.608 1698.13 421.451 Q1698.13 415.085 1701.56 411.358 Q1705.01 407.608 1710.84 407.608 Q1716.07 407.608 1719.1 410.988 Q1722.16 414.344 1722.16 420.131 M1717.9 418.881 Q1717.85 415.386 1715.93 413.303 Q1714.03 411.219 1710.89 411.219 Q1707.32 411.219 1705.17 413.233 Q1703.04 415.247 1702.72 418.905 L1717.9 418.881 Z" fill="#000000" fill-rule="nonzero" fill-opacity="1" /><path clip-path="url(#clip910)" d="M1744.17 412.215 Q1743.46 411.798 1742.6 411.613 Q1741.77 411.405 1740.75 411.405 Q1737.14 411.405 1735.19 413.766 Q1733.27 416.104 1733.27 420.502 L1733.27 434.159 L1728.99 434.159 L1728.99 408.233 L1733.27 408.233 L1733.27 412.261 Q1734.61 409.9 1736.77 408.766 Q1738.92 407.608 1742 407.608 Q1742.44 407.608 1742.97 407.678 Q1743.5 407.724 1744.15 407.84 L1744.17 412.215 Z" fill="#000000" fill-rule="nonzero" fill-opacity="1" /><path clip-path="url(#clip910)" d="M1759.43 436.567 Q1757.62 441.196 1755.91 442.608 Q1754.2 444.02 1751.33 444.02 L1747.92 444.02 L1747.92 440.455 L1750.42 440.455 Q1752.18 440.455 1753.15 439.622 Q1754.13 438.789 1755.31 435.687 L1756.07 433.743 L1745.59 408.233 L1750.1 408.233 L1758.2 428.511 L1766.3 408.233 L1770.82 408.233 L1759.43 436.567 Z" fill="#000000" fill-rule="nonzero" fill-opacity="1" /></svg>
