<?xml version="1.0" encoding="utf-8"?>
<svg xmlns="http://www.w3.org/2000/svg" xmlns:xlink="http://www.w3.org/1999/xlink" width="600" height="400" viewBox="0 0 2400 1600">
<defs>
  <clipPath id="clip200">
    <rect x="0" y="0" width="2400" height="1600"/>
  </clipPath>
</defs>
<path clip-path="url(#clip200)" d="M0 1600 L2400 1600 L2400 0 L0 0  Z" fill="#ffffff" fill-rule="evenodd" fill-opacity="1"/>
<defs>
  <clipPath id="clip201">
    <rect x="480" y="0" width="1681" height="1600"/>
  </clipPath>
</defs>
<path clip-path="url(#clip200)" d="M262.551 1423.18 L2194.88 1423.18 L2194.88 123.472 L262.551 123.472  Z" fill="#ffffff" fill-rule="evenodd" fill-opacity="1"/>
<defs>
  <clipPath id="clip202">
    <rect x="262" y="123" width="1933" height="1301"/>
  </clipPath>
</defs>
<polyline clip-path="url(#clip202)" style="stroke:#000000; stroke-linecap:round; stroke-linejoin:round; stroke-width:2; stroke-opacity:0.1; fill:none" points="317.24,1423.18 317.24,123.472 "/>
<polyline clip-path="url(#clip202)" style="stroke:#000000; stroke-linecap:round; stroke-linejoin:round; stroke-width:2; stroke-opacity:0.1; fill:none" points="482.963,1423.18 482.963,123.472 "/>
<polyline clip-path="url(#clip202)" style="stroke:#000000; stroke-linecap:round; stroke-linejoin:round; stroke-width:2; stroke-opacity:0.1; fill:none" points="648.685,1423.18 648.685,123.472 "/>
<polyline clip-path="url(#clip202)" style="stroke:#000000; stroke-linecap:round; stroke-linejoin:round; stroke-width:2; stroke-opacity:0.1; fill:none" points="1145.85,1423.18 1145.85,123.472 "/>
<polyline clip-path="url(#clip202)" style="stroke:#000000; stroke-linecap:round; stroke-linejoin:round; stroke-width:2; stroke-opacity:0.1; fill:none" points="1643.02,1423.18 1643.02,123.472 "/>
<polyline clip-path="url(#clip202)" style="stroke:#000000; stroke-linecap:round; stroke-linejoin:round; stroke-width:2; stroke-opacity:0.1; fill:none" points="2140.19,1423.18 2140.19,123.472 "/>
<polyline clip-path="url(#clip200)" style="stroke:#000000; stroke-linecap:round; stroke-linejoin:round; stroke-width:4; stroke-opacity:1; fill:none" points="262.551,1423.18 2194.88,1423.18 "/>
<polyline clip-path="url(#clip200)" style="stroke:#000000; stroke-linecap:round; stroke-linejoin:round; stroke-width:4; stroke-opacity:1; fill:none" points="317.24,1423.18 317.24,1404.28 "/>
<polyline clip-path="url(#clip200)" style="stroke:#000000; stroke-linecap:round; stroke-linejoin:round; stroke-width:4; stroke-opacity:1; fill:none" points="482.963,1423.18 482.963,1404.28 "/>
<polyline clip-path="url(#clip200)" style="stroke:#000000; stroke-linecap:round; stroke-linejoin:round; stroke-width:4; stroke-opacity:1; fill:none" points="648.685,1423.18 648.685,1404.28 "/>
<polyline clip-path="url(#clip200)" style="stroke:#000000; stroke-linecap:round; stroke-linejoin:round; stroke-width:4; stroke-opacity:1; fill:none" points="1145.85,1423.18 1145.85,1404.28 "/>
<polyline clip-path="url(#clip200)" style="stroke:#000000; stroke-linecap:round; stroke-linejoin:round; stroke-width:4; stroke-opacity:1; fill:none" points="1643.02,1423.18 1643.02,1404.28 "/>
<polyline clip-path="url(#clip200)" style="stroke:#000000; stroke-linecap:round; stroke-linejoin:round; stroke-width:4; stroke-opacity:1; fill:none" points="2140.19,1423.18 2140.19,1404.28 "/>
<path clip-path="url(#clip200)" d="M320.249 1455.09 L308.443 1473.54 L320.249 1473.54 L320.249 1455.09 M319.022 1451.02 L324.902 1451.02 L324.902 1473.54 L329.832 1473.54 L329.832 1477.43 L324.902 1477.43 L324.902 1485.58 L320.249 1485.58 L320.249 1477.43 L304.647 1477.43 L304.647 1472.92 L319.022 1451.02 Z" fill="#000000" fill-rule="nonzero" fill-opacity="1" /><path clip-path="url(#clip200)" d="M482.963 1469.17 Q479.629 1469.17 477.708 1470.95 Q475.81 1472.73 475.81 1475.86 Q475.81 1478.98 477.708 1480.77 Q479.629 1482.55 482.963 1482.55 Q486.296 1482.55 488.217 1480.77 Q490.138 1478.96 490.138 1475.86 Q490.138 1472.73 488.217 1470.95 Q486.319 1469.17 482.963 1469.17 M478.287 1467.18 Q475.277 1466.44 473.588 1464.38 Q471.921 1462.32 471.921 1459.35 Q471.921 1455.21 474.861 1452.8 Q477.824 1450.39 482.963 1450.39 Q488.125 1450.39 491.064 1452.8 Q494.004 1455.21 494.004 1459.35 Q494.004 1462.32 492.314 1464.38 Q490.648 1466.44 487.662 1467.18 Q491.041 1467.96 492.916 1470.26 Q494.814 1472.55 494.814 1475.86 Q494.814 1480.88 491.736 1483.57 Q488.68 1486.25 482.963 1486.25 Q477.245 1486.25 474.166 1483.57 Q471.111 1480.88 471.111 1475.86 Q471.111 1472.55 473.009 1470.26 Q474.907 1467.96 478.287 1467.18 M476.574 1459.79 Q476.574 1462.48 478.24 1463.98 Q479.93 1465.49 482.963 1465.49 Q485.972 1465.49 487.662 1463.98 Q489.375 1462.48 489.375 1459.79 Q489.375 1457.11 487.662 1455.6 Q485.972 1454.1 482.963 1454.1 Q479.93 1454.1 478.24 1455.6 Q476.574 1457.11 476.574 1459.79 Z" fill="#000000" fill-rule="nonzero" fill-opacity="1" /><path clip-path="url(#clip200)" d="M624.172 1481.64 L631.81 1481.64 L631.81 1455.28 L623.5 1456.95 L623.5 1452.69 L631.764 1451.02 L636.44 1451.02 L636.44 1481.64 L644.079 1481.64 L644.079 1485.58 L624.172 1485.58 L624.172 1481.64 Z" fill="#000000" fill-rule="nonzero" fill-opacity="1" /><path clip-path="url(#clip200)" d="M657.551 1481.64 L673.87 1481.64 L673.87 1485.58 L651.926 1485.58 L651.926 1481.64 Q654.588 1478.89 659.171 1474.26 Q663.778 1469.61 664.958 1468.27 Q667.204 1465.74 668.083 1464.01 Q668.986 1462.25 668.986 1460.56 Q668.986 1457.8 667.042 1456.07 Q665.12 1454.33 662.019 1454.33 Q659.82 1454.33 657.366 1455.09 Q654.935 1455.86 652.158 1457.41 L652.158 1452.69 Q654.982 1451.55 657.435 1450.97 Q659.889 1450.39 661.926 1450.39 Q667.296 1450.39 670.491 1453.08 Q673.685 1455.77 673.685 1460.26 Q673.685 1462.39 672.875 1464.31 Q672.088 1466.2 669.982 1468.8 Q669.403 1469.47 666.301 1472.69 Q663.199 1475.88 657.551 1481.64 Z" fill="#000000" fill-rule="nonzero" fill-opacity="1" /><path clip-path="url(#clip200)" d="M1124.38 1481.64 L1140.7 1481.64 L1140.7 1485.58 L1118.76 1485.58 L1118.76 1481.64 Q1121.42 1478.89 1126 1474.26 Q1130.61 1469.61 1131.79 1468.27 Q1134.04 1465.74 1134.92 1464.01 Q1135.82 1462.25 1135.82 1460.56 Q1135.82 1457.8 1133.87 1456.07 Q1131.95 1454.33 1128.85 1454.33 Q1126.65 1454.33 1124.2 1455.09 Q1121.77 1455.86 1118.99 1457.41 L1118.99 1452.69 Q1121.81 1451.55 1124.27 1450.97 Q1126.72 1450.39 1128.76 1450.39 Q1134.13 1450.39 1137.32 1453.08 Q1140.52 1455.77 1140.52 1460.26 Q1140.52 1462.39 1139.71 1464.31 Q1138.92 1466.2 1136.81 1468.8 Q1136.24 1469.47 1133.13 1472.69 Q1130.03 1475.88 1124.38 1481.64 Z" fill="#000000" fill-rule="nonzero" fill-opacity="1" /><path clip-path="url(#clip200)" d="M1163.37 1455.09 L1151.56 1473.54 L1163.37 1473.54 L1163.37 1455.09 M1162.14 1451.02 L1168.02 1451.02 L1168.02 1473.54 L1172.95 1473.54 L1172.95 1477.43 L1168.02 1477.43 L1168.02 1485.58 L1163.37 1485.58 L1163.37 1477.43 L1147.76 1477.43 L1147.76 1472.92 L1162.14 1451.02 Z" fill="#000000" fill-rule="nonzero" fill-opacity="1" /><path clip-path="url(#clip200)" d="M1631.78 1466.95 Q1635.14 1467.66 1637.02 1469.93 Q1638.91 1472.2 1638.91 1475.53 Q1638.91 1480.65 1635.39 1483.45 Q1631.88 1486.25 1625.39 1486.25 Q1623.22 1486.25 1620.9 1485.81 Q1618.61 1485.39 1616.16 1484.54 L1616.16 1480.02 Q1618.1 1481.16 1620.42 1481.74 Q1622.73 1482.32 1625.26 1482.32 Q1629.65 1482.32 1631.95 1480.58 Q1634.26 1478.84 1634.26 1475.53 Q1634.26 1472.48 1632.11 1470.77 Q1629.98 1469.03 1626.16 1469.03 L1622.13 1469.03 L1622.13 1465.19 L1626.34 1465.19 Q1629.79 1465.19 1631.62 1463.82 Q1633.45 1462.43 1633.45 1459.84 Q1633.45 1457.18 1631.55 1455.77 Q1629.68 1454.33 1626.16 1454.33 Q1624.24 1454.33 1622.04 1454.75 Q1619.84 1455.16 1617.2 1456.04 L1617.2 1451.88 Q1619.86 1451.14 1622.18 1450.77 Q1624.52 1450.39 1626.58 1450.39 Q1631.9 1450.39 1635 1452.83 Q1638.1 1455.23 1638.1 1459.35 Q1638.1 1462.22 1636.46 1464.21 Q1634.82 1466.18 1631.78 1466.95 Z" fill="#000000" fill-rule="nonzero" fill-opacity="1" /><path clip-path="url(#clip200)" d="M1658.36 1466.44 Q1655.21 1466.44 1653.36 1468.59 Q1651.53 1470.74 1651.53 1474.49 Q1651.53 1478.22 1653.36 1480.39 Q1655.21 1482.55 1658.36 1482.55 Q1661.51 1482.55 1663.33 1480.39 Q1665.19 1478.22 1665.19 1474.49 Q1665.19 1470.74 1663.33 1468.59 Q1661.51 1466.44 1658.36 1466.44 M1667.64 1451.78 L1667.64 1456.04 Q1665.88 1455.21 1664.08 1454.77 Q1662.29 1454.33 1660.53 1454.33 Q1655.9 1454.33 1653.45 1457.45 Q1651.02 1460.58 1650.67 1466.9 Q1652.04 1464.89 1654.1 1463.82 Q1656.16 1462.73 1658.64 1462.73 Q1663.84 1462.73 1666.85 1465.9 Q1669.89 1469.05 1669.89 1474.49 Q1669.89 1479.82 1666.74 1483.03 Q1663.59 1486.25 1658.36 1486.25 Q1652.36 1486.25 1649.19 1481.67 Q1646.02 1477.06 1646.02 1468.33 Q1646.02 1460.14 1649.91 1455.28 Q1653.8 1450.39 1660.35 1450.39 Q1662.11 1450.39 1663.89 1450.74 Q1665.7 1451.09 1667.64 1451.78 Z" fill="#000000" fill-rule="nonzero" fill-opacity="1" /><path clip-path="url(#clip200)" d="M2128.41 1455.09 L2116.6 1473.54 L2128.41 1473.54 L2128.41 1455.09 M2127.18 1451.02 L2133.06 1451.02 L2133.06 1473.54 L2137.99 1473.54 L2137.99 1477.43 L2133.06 1477.43 L2133.06 1485.58 L2128.41 1485.58 L2128.41 1477.43 L2112.81 1477.43 L2112.81 1472.92 L2127.18 1451.02 Z" fill="#000000" fill-rule="nonzero" fill-opacity="1" /><path clip-path="url(#clip200)" d="M2155.72 1469.17 Q2152.39 1469.17 2150.47 1470.95 Q2148.57 1472.73 2148.57 1475.86 Q2148.57 1478.98 2150.47 1480.77 Q2152.39 1482.55 2155.72 1482.55 Q2159.06 1482.55 2160.98 1480.77 Q2162.9 1478.96 2162.9 1475.86 Q2162.9 1472.73 2160.98 1470.95 Q2159.08 1469.17 2155.72 1469.17 M2151.05 1467.18 Q2148.04 1466.44 2146.35 1464.38 Q2144.68 1462.32 2144.68 1459.35 Q2144.68 1455.21 2147.62 1452.8 Q2150.58 1450.39 2155.72 1450.39 Q2160.88 1450.39 2163.82 1452.8 Q2166.76 1455.21 2166.76 1459.35 Q2166.76 1462.32 2165.07 1464.38 Q2163.41 1466.44 2160.42 1467.18 Q2163.8 1467.96 2165.68 1470.26 Q2167.57 1472.55 2167.57 1475.86 Q2167.57 1480.88 2164.5 1483.57 Q2161.44 1486.25 2155.72 1486.25 Q2150.01 1486.25 2146.93 1483.57 Q2143.87 1480.88 2143.87 1475.86 Q2143.87 1472.55 2145.77 1470.26 Q2147.67 1467.96 2151.05 1467.18 M2149.33 1459.79 Q2149.33 1462.48 2151 1463.98 Q2152.69 1465.49 2155.72 1465.49 Q2158.73 1465.49 2160.42 1463.98 Q2162.13 1462.48 2162.13 1459.79 Q2162.13 1457.11 2160.42 1455.6 Q2158.73 1454.1 2155.72 1454.1 Q2152.69 1454.1 2151 1455.6 Q2149.33 1457.11 2149.33 1459.79 Z" fill="#000000" fill-rule="nonzero" fill-opacity="1" /><path clip-path="url(#clip200)" d="M924.291 1545.76 Q926.36 1546.46 928.302 1548.76 Q930.275 1551.05 932.248 1555.06 L938.773 1568.04 L931.866 1568.04 L925.787 1555.85 Q923.432 1551.08 921.204 1549.52 Q919.008 1547.96 915.188 1547.96 L908.186 1547.96 L908.186 1568.04 L901.757 1568.04 L901.757 1520.52 L916.27 1520.52 Q924.418 1520.52 928.429 1523.93 Q932.439 1527.34 932.439 1534.21 Q932.439 1538.7 930.339 1541.66 Q928.27 1544.62 924.291 1545.76 M908.186 1525.81 L908.186 1542.68 L916.27 1542.68 Q920.917 1542.68 923.273 1540.54 Q925.66 1538.38 925.66 1534.21 Q925.66 1530.04 923.273 1527.94 Q920.917 1525.81 916.27 1525.81 L908.186 1525.81 Z" fill="#000000" fill-rule="nonzero" fill-opacity="1" /><path clip-path="url(#clip200)" d="M974.357 1548.76 L974.357 1551.62 L947.43 1551.62 Q947.812 1557.67 951.059 1560.85 Q954.337 1564 960.162 1564 Q963.536 1564 966.687 1563.17 Q969.87 1562.35 972.989 1560.69 L972.989 1566.23 Q969.838 1567.57 966.528 1568.27 Q963.217 1568.97 959.812 1568.97 Q951.282 1568.97 946.285 1564 Q941.319 1559.04 941.319 1550.57 Q941.319 1541.82 946.03 1536.69 Q950.772 1531.54 958.793 1531.54 Q965.986 1531.54 970.156 1536.18 Q974.357 1540.8 974.357 1548.76 M968.501 1547.04 Q968.437 1542.23 965.796 1539.37 Q963.186 1536.5 958.857 1536.5 Q953.955 1536.5 950.995 1539.27 Q948.067 1542.04 947.621 1547.07 L968.501 1547.04 Z" fill="#000000" fill-rule="nonzero" fill-opacity="1" /><path clip-path="url(#clip200)" d="M989.635 1562.7 L989.635 1581.6 L983.747 1581.6 L983.747 1532.4 L989.635 1532.4 L989.635 1537.81 Q991.481 1534.62 994.282 1533.1 Q997.115 1531.54 1001.03 1531.54 Q1007.52 1531.54 1011.56 1536.69 Q1015.64 1541.85 1015.64 1550.25 Q1015.64 1558.65 1011.56 1563.81 Q1007.52 1568.97 1001.03 1568.97 Q997.115 1568.97 994.282 1567.44 Q991.481 1565.88 989.635 1562.7 M1009.56 1550.25 Q1009.56 1543.79 1006.89 1540.13 Q1004.24 1536.44 999.597 1536.44 Q994.95 1536.44 992.277 1540.13 Q989.635 1543.79 989.635 1550.25 Q989.635 1556.71 992.277 1560.4 Q994.95 1564.07 999.597 1564.07 Q1004.24 1564.07 1006.89 1560.4 Q1009.56 1556.71 1009.56 1550.25 Z" fill="#000000" fill-rule="nonzero" fill-opacity="1" /><path clip-path="url(#clip200)" d="M1052.75 1525.81 L1052.75 1543.66 L1060.84 1543.66 Q1065.32 1543.66 1067.77 1541.34 Q1070.22 1539.02 1070.22 1534.72 Q1070.22 1530.45 1067.77 1528.13 Q1065.32 1525.81 1060.84 1525.81 L1052.75 1525.81 M1046.32 1520.52 L1060.84 1520.52 Q1068.82 1520.52 1072.9 1524.15 Q1077 1527.75 1077 1534.72 Q1077 1541.75 1072.9 1545.35 Q1068.82 1548.95 1060.84 1548.95 L1052.75 1548.95 L1052.75 1568.04 L1046.32 1568.04 L1046.32 1520.52 Z" fill="#000000" fill-rule="nonzero" fill-opacity="1" /><path clip-path="url(#clip200)" d="M1113.54 1548.76 L1113.54 1551.62 L1086.62 1551.62 Q1087 1557.67 1090.25 1560.85 Q1093.52 1564 1099.35 1564 Q1102.72 1564 1105.87 1563.17 Q1109.06 1562.35 1112.17 1560.69 L1112.17 1566.23 Q1109.02 1567.57 1105.71 1568.27 Q1102.4 1568.97 1099 1568.97 Q1090.47 1568.97 1085.47 1564 Q1080.51 1559.04 1080.51 1550.57 Q1080.51 1541.82 1085.22 1536.69 Q1089.96 1531.54 1097.98 1531.54 Q1105.17 1531.54 1109.34 1536.18 Q1113.54 1540.8 1113.54 1548.76 M1107.69 1547.04 Q1107.62 1542.23 1104.98 1539.37 Q1102.37 1536.5 1098.04 1536.5 Q1093.14 1536.5 1090.18 1539.27 Q1087.25 1542.04 1086.81 1547.07 L1107.69 1547.04 Z" fill="#000000" fill-rule="nonzero" fill-opacity="1" /><path clip-path="url(#clip200)" d="M1143.81 1537.87 Q1142.83 1537.3 1141.65 1537.04 Q1140.5 1536.76 1139.1 1536.76 Q1134.14 1536.76 1131.46 1540 Q1128.82 1543.22 1128.82 1549.27 L1128.82 1568.04 L1122.93 1568.04 L1122.93 1532.4 L1128.82 1532.4 L1128.82 1537.93 Q1130.67 1534.69 1133.63 1533.13 Q1136.59 1531.54 1140.82 1531.54 Q1141.43 1531.54 1142.16 1531.63 Q1142.89 1531.7 1143.78 1531.85 L1143.81 1537.87 Z" fill="#000000" fill-rule="nonzero" fill-opacity="1" /><path clip-path="url(#clip200)" d="M1149.96 1532.4 L1155.81 1532.4 L1155.81 1568.04 L1149.96 1568.04 L1149.96 1532.4 M1149.96 1518.52 L1155.81 1518.52 L1155.81 1525.93 L1149.96 1525.93 L1149.96 1518.52 Z" fill="#000000" fill-rule="nonzero" fill-opacity="1" /><path clip-path="url(#clip200)" d="M1181.88 1536.5 Q1177.17 1536.5 1174.43 1540.19 Q1171.69 1543.85 1171.69 1550.25 Q1171.69 1556.65 1174.4 1560.34 Q1177.14 1564 1181.88 1564 Q1186.56 1564 1189.3 1560.31 Q1192.03 1556.62 1192.03 1550.25 Q1192.03 1543.92 1189.3 1540.23 Q1186.56 1536.5 1181.88 1536.5 M1181.88 1531.54 Q1189.52 1531.54 1193.88 1536.5 Q1198.24 1541.47 1198.24 1550.25 Q1198.24 1559 1193.88 1564 Q1189.52 1568.97 1181.88 1568.97 Q1174.21 1568.97 1169.85 1564 Q1165.52 1559 1165.52 1550.25 Q1165.52 1541.47 1169.85 1536.5 Q1174.21 1531.54 1181.88 1531.54 Z" fill="#000000" fill-rule="nonzero" fill-opacity="1" /><path clip-path="url(#clip200)" d="M1231.4 1537.81 L1231.4 1518.52 L1237.26 1518.52 L1237.26 1568.04 L1231.4 1568.04 L1231.4 1562.7 Q1229.56 1565.88 1226.73 1567.44 Q1223.92 1568.97 1219.98 1568.97 Q1213.52 1568.97 1209.44 1563.81 Q1205.4 1558.65 1205.4 1550.25 Q1205.4 1541.85 1209.44 1536.69 Q1213.52 1531.54 1219.98 1531.54 Q1223.92 1531.54 1226.73 1533.1 Q1229.56 1534.62 1231.4 1537.81 M1211.45 1550.25 Q1211.45 1556.71 1214.09 1560.4 Q1216.76 1564.07 1221.41 1564.07 Q1226.06 1564.07 1228.73 1560.4 Q1231.4 1556.71 1231.4 1550.25 Q1231.4 1543.79 1228.73 1540.13 Q1226.06 1536.44 1221.41 1536.44 Q1216.76 1536.44 1214.09 1540.13 Q1211.45 1543.79 1211.45 1550.25 Z" fill="#000000" fill-rule="nonzero" fill-opacity="1" /><path clip-path="url(#clip200)" d="M1272.05 1533.45 L1272.05 1538.98 Q1269.57 1537.71 1266.89 1537.07 Q1264.22 1536.44 1261.36 1536.44 Q1256.99 1536.44 1254.8 1537.77 Q1252.63 1539.11 1252.63 1541.79 Q1252.63 1543.82 1254.19 1545 Q1255.75 1546.15 1260.46 1547.2 L1262.47 1547.64 Q1268.71 1548.98 1271.32 1551.43 Q1273.96 1553.85 1273.96 1558.21 Q1273.96 1563.17 1270.01 1566.07 Q1266.1 1568.97 1259.22 1568.97 Q1256.36 1568.97 1253.24 1568.39 Q1250.15 1567.85 1246.71 1566.74 L1246.71 1560.69 Q1249.96 1562.38 1253.11 1563.24 Q1256.26 1564.07 1259.35 1564.07 Q1263.49 1564.07 1265.72 1562.66 Q1267.94 1561.23 1267.94 1558.65 Q1267.94 1556.27 1266.32 1554.99 Q1264.73 1553.72 1259.29 1552.54 L1257.25 1552.07 Q1251.81 1550.92 1249.39 1548.56 Q1246.97 1546.18 1246.97 1542.04 Q1246.97 1537.01 1250.53 1534.27 Q1254.1 1531.54 1260.66 1531.54 Q1263.9 1531.54 1266.77 1532.01 Q1269.63 1532.49 1272.05 1533.45 Z" fill="#000000" fill-rule="nonzero" fill-opacity="1" /><path clip-path="url(#clip200)" d="M1318.07 1518.58 Q1313.81 1525.9 1311.74 1533.06 Q1309.67 1540.23 1309.67 1547.58 Q1309.67 1554.93 1311.74 1562.16 Q1313.84 1569.35 1318.07 1576.64 L1312.98 1576.64 Q1308.21 1569.16 1305.82 1561.93 Q1303.46 1554.71 1303.46 1547.58 Q1303.46 1540.48 1305.82 1533.29 Q1308.18 1526.09 1312.98 1518.58 L1318.07 1518.58 Z" fill="#000000" fill-rule="nonzero" fill-opacity="1" /><path clip-path="url(#clip200)" d="M1325.46 1520.52 L1331.95 1520.52 L1341.95 1560.69 L1351.91 1520.52 L1359.13 1520.52 L1369.13 1560.69 L1379.09 1520.52 L1385.61 1520.52 L1373.68 1568.04 L1365.59 1568.04 L1355.57 1526.79 L1345.45 1568.04 L1337.36 1568.04 L1325.46 1520.52 Z" fill="#000000" fill-rule="nonzero" fill-opacity="1" /><path clip-path="url(#clip200)" d="M1420.56 1548.76 L1420.56 1551.62 L1393.63 1551.62 Q1394.02 1557.67 1397.26 1560.85 Q1400.54 1564 1406.37 1564 Q1409.74 1564 1412.89 1563.17 Q1416.07 1562.35 1419.19 1560.69 L1419.19 1566.23 Q1416.04 1567.57 1412.73 1568.27 Q1409.42 1568.97 1406.02 1568.97 Q1397.49 1568.97 1392.49 1564 Q1387.52 1559.04 1387.52 1550.57 Q1387.52 1541.82 1392.23 1536.69 Q1396.98 1531.54 1405 1531.54 Q1412.19 1531.54 1416.36 1536.18 Q1420.56 1540.8 1420.56 1548.76 M1414.71 1547.04 Q1414.64 1542.23 1412 1539.37 Q1409.39 1536.5 1405.06 1536.5 Q1400.16 1536.5 1397.2 1539.27 Q1394.27 1542.04 1393.83 1547.07 L1414.71 1547.04 Z" fill="#000000" fill-rule="nonzero" fill-opacity="1" /><path clip-path="url(#clip200)" d="M1460.67 1548.76 L1460.67 1551.62 L1433.74 1551.62 Q1434.12 1557.67 1437.37 1560.85 Q1440.65 1564 1446.47 1564 Q1449.84 1564 1452.99 1563.17 Q1456.18 1562.35 1459.3 1560.69 L1459.3 1566.23 Q1456.15 1567.57 1452.84 1568.27 Q1449.53 1568.97 1446.12 1568.97 Q1437.59 1568.97 1432.59 1564 Q1427.63 1559.04 1427.63 1550.57 Q1427.63 1541.82 1432.34 1536.69 Q1437.08 1531.54 1445.1 1531.54 Q1452.29 1531.54 1456.46 1536.18 Q1460.67 1540.8 1460.67 1548.76 M1454.81 1547.04 Q1454.75 1542.23 1452.1 1539.37 Q1449.49 1536.5 1445.17 1536.5 Q1440.26 1536.5 1437.3 1539.27 Q1434.38 1542.04 1433.93 1547.07 L1454.81 1547.04 Z" fill="#000000" fill-rule="nonzero" fill-opacity="1" /><path clip-path="url(#clip200)" d="M1470.05 1518.52 L1475.94 1518.52 L1475.94 1547.77 L1493.42 1532.4 L1500.9 1532.4 L1481.99 1549.07 L1501.69 1568.04 L1494.05 1568.04 L1475.94 1550.63 L1475.94 1568.04 L1470.05 1568.04 L1470.05 1518.52 Z" fill="#000000" fill-rule="nonzero" fill-opacity="1" /><path clip-path="url(#clip200)" d="M1530.75 1533.45 L1530.75 1538.98 Q1528.27 1537.71 1525.6 1537.07 Q1522.92 1536.44 1520.06 1536.44 Q1515.7 1536.44 1513.5 1537.77 Q1511.34 1539.11 1511.34 1541.79 Q1511.34 1543.82 1512.9 1545 Q1514.46 1546.15 1519.17 1547.2 L1521.17 1547.64 Q1527.41 1548.98 1530.02 1551.43 Q1532.66 1553.85 1532.66 1558.21 Q1532.66 1563.17 1528.71 1566.07 Q1524.8 1568.97 1517.93 1568.97 Q1515.06 1568.97 1511.94 1568.39 Q1508.85 1567.85 1505.42 1566.74 L1505.42 1560.69 Q1508.66 1562.38 1511.81 1563.24 Q1514.97 1564.07 1518.05 1564.07 Q1522.19 1564.07 1524.42 1562.66 Q1526.65 1561.23 1526.65 1558.65 Q1526.65 1556.27 1525.02 1554.99 Q1523.43 1553.72 1517.99 1552.54 L1515.95 1552.07 Q1510.51 1550.92 1508.09 1548.56 Q1505.67 1546.18 1505.67 1542.04 Q1505.67 1537.01 1509.24 1534.27 Q1512.8 1531.54 1519.36 1531.54 Q1522.6 1531.54 1525.47 1532.01 Q1528.33 1532.49 1530.75 1533.45 Z" fill="#000000" fill-rule="nonzero" fill-opacity="1" /><path clip-path="url(#clip200)" d="M1541.06 1518.58 L1546.16 1518.58 Q1550.93 1526.09 1553.29 1533.29 Q1555.67 1540.48 1555.67 1547.58 Q1555.67 1554.71 1553.29 1561.93 Q1550.93 1569.16 1546.16 1576.64 L1541.06 1576.64 Q1545.3 1569.35 1547.37 1562.16 Q1549.47 1554.93 1549.47 1547.58 Q1549.47 1540.23 1547.37 1533.06 Q1545.3 1525.9 1541.06 1518.58 Z" fill="#000000" fill-rule="nonzero" fill-opacity="1" /><polyline clip-path="url(#clip202)" style="stroke:#000000; stroke-linecap:round; stroke-linejoin:round; stroke-width:2; stroke-opacity:0.1; fill:none" stroke-dasharray="8, 4, 1, 4" points="262.551,1186.42 2194.88,1186.42 "/>
<polyline clip-path="url(#clip202)" style="stroke:#000000; stroke-linecap:round; stroke-linejoin:round; stroke-width:2; stroke-opacity:0.1; fill:none" stroke-dasharray="8, 4, 1, 4" points="262.551,919.674 2194.88,919.674 "/>
<polyline clip-path="url(#clip202)" style="stroke:#000000; stroke-linecap:round; stroke-linejoin:round; stroke-width:2; stroke-opacity:0.1; fill:none" stroke-dasharray="8, 4, 1, 4" points="262.551,652.927 2194.88,652.927 "/>
<polyline clip-path="url(#clip202)" style="stroke:#000000; stroke-linecap:round; stroke-linejoin:round; stroke-width:2; stroke-opacity:0.1; fill:none" stroke-dasharray="8, 4, 1, 4" points="262.551,386.18 2194.88,386.18 "/>
<polyline clip-path="url(#clip200)" style="stroke:#000000; stroke-linecap:round; stroke-linejoin:round; stroke-width:4; stroke-opacity:1; fill:none" points="262.551,1423.18 262.551,123.472 "/>
<polyline clip-path="url(#clip200)" style="stroke:#000000; stroke-linecap:round; stroke-linejoin:round; stroke-width:4; stroke-opacity:1; fill:none" points="262.551,1186.42 281.449,1186.42 "/>
<polyline clip-path="url(#clip200)" style="stroke:#000000; stroke-linecap:round; stroke-linejoin:round; stroke-width:4; stroke-opacity:1; fill:none" points="262.551,919.674 281.449,919.674 "/>
<polyline clip-path="url(#clip200)" style="stroke:#000000; stroke-linecap:round; stroke-linejoin:round; stroke-width:4; stroke-opacity:1; fill:none" points="262.551,652.927 281.449,652.927 "/>
<polyline clip-path="url(#clip200)" style="stroke:#000000; stroke-linecap:round; stroke-linejoin:round; stroke-width:4; stroke-opacity:1; fill:none" points="262.551,386.18 281.449,386.18 "/>
<path clip-path="url(#clip200)" d="M148.311 1199.77 L164.63 1199.77 L164.63 1203.7 L142.686 1203.7 L142.686 1199.77 Q145.348 1197.01 149.931 1192.38 Q154.538 1187.73 155.718 1186.39 Q157.964 1183.86 158.843 1182.13 Q159.746 1180.37 159.746 1178.68 Q159.746 1175.92 157.802 1174.19 Q155.88 1172.45 152.778 1172.45 Q150.579 1172.45 148.126 1173.22 Q145.695 1173.98 142.917 1175.53 L142.917 1170.81 Q145.741 1169.67 148.195 1169.1 Q150.649 1168.52 152.686 1168.52 Q158.056 1168.52 161.251 1171.2 Q164.445 1173.89 164.445 1178.38 Q164.445 1180.51 163.635 1182.43 Q162.848 1184.33 160.741 1186.92 Q160.163 1187.59 157.061 1190.81 Q153.959 1194 148.311 1199.77 Z" fill="#000000" fill-rule="nonzero" fill-opacity="1" /><path clip-path="url(#clip200)" d="M174.491 1169.14 L192.848 1169.14 L192.848 1173.08 L178.774 1173.08 L178.774 1181.55 Q179.792 1181.2 180.811 1181.04 Q181.829 1180.85 182.848 1180.85 Q188.635 1180.85 192.014 1184.03 Q195.394 1187.2 195.394 1192.61 Q195.394 1198.19 191.922 1201.29 Q188.45 1204.37 182.13 1204.37 Q179.954 1204.37 177.686 1204 Q175.44 1203.63 173.033 1202.89 L173.033 1198.19 Q175.116 1199.33 177.339 1199.88 Q179.561 1200.44 182.038 1200.44 Q186.042 1200.44 188.38 1198.33 Q190.718 1196.22 190.718 1192.61 Q190.718 1189 188.38 1186.9 Q186.042 1184.79 182.038 1184.79 Q180.163 1184.79 178.288 1185.21 Q176.436 1185.62 174.491 1186.5 L174.491 1169.14 Z" fill="#000000" fill-rule="nonzero" fill-opacity="1" /><path clip-path="url(#clip200)" d="M214.607 1172.22 Q210.996 1172.22 209.167 1175.79 Q207.362 1179.33 207.362 1186.46 Q207.362 1193.56 209.167 1197.13 Q210.996 1200.67 214.607 1200.67 Q218.241 1200.67 220.047 1197.13 Q221.875 1193.56 221.875 1186.46 Q221.875 1179.33 220.047 1175.79 Q218.241 1172.22 214.607 1172.22 M214.607 1168.52 Q220.417 1168.52 223.473 1173.12 Q226.551 1177.71 226.551 1186.46 Q226.551 1195.18 223.473 1199.79 Q220.417 1204.37 214.607 1204.37 Q208.797 1204.37 205.718 1199.79 Q202.662 1195.18 202.662 1186.46 Q202.662 1177.71 205.718 1173.12 Q208.797 1168.52 214.607 1168.52 Z" fill="#000000" fill-rule="nonzero" fill-opacity="1" /><path clip-path="url(#clip200)" d="M144.329 902.394 L162.686 902.394 L162.686 906.33 L148.612 906.33 L148.612 914.802 Q149.63 914.455 150.649 914.292 Q151.667 914.107 152.686 914.107 Q158.473 914.107 161.852 917.279 Q165.232 920.45 165.232 925.866 Q165.232 931.445 161.76 934.547 Q158.288 937.626 151.968 937.626 Q149.792 937.626 147.524 937.255 Q145.279 936.885 142.871 936.144 L142.871 931.445 Q144.954 932.579 147.177 933.135 Q149.399 933.691 151.876 933.691 Q155.88 933.691 158.218 931.584 Q160.556 929.478 160.556 925.866 Q160.556 922.255 158.218 920.149 Q155.88 918.042 151.876 918.042 Q150.001 918.042 148.126 918.459 Q146.274 918.876 144.329 919.755 L144.329 902.394 Z" fill="#000000" fill-rule="nonzero" fill-opacity="1" /><path clip-path="url(#clip200)" d="M184.445 905.473 Q180.834 905.473 179.005 909.038 Q177.2 912.58 177.2 919.709 Q177.2 926.816 179.005 930.38 Q180.834 933.922 184.445 933.922 Q188.079 933.922 189.885 930.38 Q191.713 926.816 191.713 919.709 Q191.713 912.58 189.885 909.038 Q188.079 905.473 184.445 905.473 M184.445 901.769 Q190.255 901.769 193.311 906.376 Q196.389 910.959 196.389 919.709 Q196.389 928.436 193.311 933.042 Q190.255 937.626 184.445 937.626 Q178.635 937.626 175.556 933.042 Q172.501 928.436 172.501 919.709 Q172.501 910.959 175.556 906.376 Q178.635 901.769 184.445 901.769 Z" fill="#000000" fill-rule="nonzero" fill-opacity="1" /><path clip-path="url(#clip200)" d="M214.607 905.473 Q210.996 905.473 209.167 909.038 Q207.362 912.58 207.362 919.709 Q207.362 926.816 209.167 930.38 Q210.996 933.922 214.607 933.922 Q218.241 933.922 220.047 930.38 Q221.875 926.816 221.875 919.709 Q221.875 912.58 220.047 909.038 Q218.241 905.473 214.607 905.473 M214.607 901.769 Q220.417 901.769 223.473 906.376 Q226.551 910.959 226.551 919.709 Q226.551 928.436 223.473 933.042 Q220.417 937.626 214.607 937.626 Q208.797 937.626 205.718 933.042 Q202.662 928.436 202.662 919.709 Q202.662 910.959 205.718 906.376 Q208.797 901.769 214.607 901.769 Z" fill="#000000" fill-rule="nonzero" fill-opacity="1" /><path clip-path="url(#clip200)" d="M143.103 635.647 L165.325 635.647 L165.325 637.638 L152.778 670.207 L147.894 670.207 L159.7 639.582 L143.103 639.582 L143.103 635.647 Z" fill="#000000" fill-rule="nonzero" fill-opacity="1" /><path clip-path="url(#clip200)" d="M174.491 635.647 L192.848 635.647 L192.848 639.582 L178.774 639.582 L178.774 648.054 Q179.792 647.707 180.811 647.545 Q181.829 647.36 182.848 647.36 Q188.635 647.36 192.014 650.531 Q195.394 653.703 195.394 659.119 Q195.394 664.698 191.922 667.8 Q188.45 670.878 182.13 670.878 Q179.954 670.878 177.686 670.508 Q175.44 670.138 173.033 669.397 L173.033 664.698 Q175.116 665.832 177.339 666.388 Q179.561 666.943 182.038 666.943 Q186.042 666.943 188.38 664.837 Q190.718 662.73 190.718 659.119 Q190.718 655.508 188.38 653.402 Q186.042 651.295 182.038 651.295 Q180.163 651.295 178.288 651.712 Q176.436 652.129 174.491 653.008 L174.491 635.647 Z" fill="#000000" fill-rule="nonzero" fill-opacity="1" /><path clip-path="url(#clip200)" d="M214.607 638.726 Q210.996 638.726 209.167 642.291 Q207.362 645.832 207.362 652.962 Q207.362 660.068 209.167 663.633 Q210.996 667.175 214.607 667.175 Q218.241 667.175 220.047 663.633 Q221.875 660.068 221.875 652.962 Q221.875 645.832 220.047 642.291 Q218.241 638.726 214.607 638.726 M214.607 635.022 Q220.417 635.022 223.473 639.629 Q226.551 644.212 226.551 652.962 Q226.551 661.689 223.473 666.295 Q220.417 670.878 214.607 670.878 Q208.797 670.878 205.718 666.295 Q202.662 661.689 202.662 652.962 Q202.662 644.212 205.718 639.629 Q208.797 635.022 214.607 635.022 Z" fill="#000000" fill-rule="nonzero" fill-opacity="1" /><path clip-path="url(#clip200)" d="M114.931 399.525 L122.57 399.525 L122.57 373.159 L114.26 374.826 L114.26 370.567 L122.524 368.9 L127.2 368.9 L127.2 399.525 L134.839 399.525 L134.839 403.46 L114.931 403.46 L114.931 399.525 Z" fill="#000000" fill-rule="nonzero" fill-opacity="1" /><path clip-path="url(#clip200)" d="M154.283 371.979 Q150.672 371.979 148.843 375.543 Q147.038 379.085 147.038 386.215 Q147.038 393.321 148.843 396.886 Q150.672 400.427 154.283 400.427 Q157.917 400.427 159.723 396.886 Q161.552 393.321 161.552 386.215 Q161.552 379.085 159.723 375.543 Q157.917 371.979 154.283 371.979 M154.283 368.275 Q160.093 368.275 163.149 372.881 Q166.227 377.465 166.227 386.215 Q166.227 394.941 163.149 399.548 Q160.093 404.131 154.283 404.131 Q148.473 404.131 145.394 399.548 Q142.339 394.941 142.339 386.215 Q142.339 377.465 145.394 372.881 Q148.473 368.275 154.283 368.275 Z" fill="#000000" fill-rule="nonzero" fill-opacity="1" /><path clip-path="url(#clip200)" d="M184.445 371.979 Q180.834 371.979 179.005 375.543 Q177.2 379.085 177.2 386.215 Q177.2 393.321 179.005 396.886 Q180.834 400.427 184.445 400.427 Q188.079 400.427 189.885 396.886 Q191.713 393.321 191.713 386.215 Q191.713 379.085 189.885 375.543 Q188.079 371.979 184.445 371.979 M184.445 368.275 Q190.255 368.275 193.311 372.881 Q196.389 377.465 196.389 386.215 Q196.389 394.941 193.311 399.548 Q190.255 404.131 184.445 404.131 Q178.635 404.131 175.556 399.548 Q172.501 394.941 172.501 386.215 Q172.501 377.465 175.556 372.881 Q178.635 368.275 184.445 368.275 Z" fill="#000000" fill-rule="nonzero" fill-opacity="1" /><path clip-path="url(#clip200)" d="M214.607 371.979 Q210.996 371.979 209.167 375.543 Q207.362 379.085 207.362 386.215 Q207.362 393.321 209.167 396.886 Q210.996 400.427 214.607 400.427 Q218.241 400.427 220.047 396.886 Q221.875 393.321 221.875 386.215 Q221.875 379.085 220.047 375.543 Q218.241 371.979 214.607 371.979 M214.607 368.275 Q220.417 368.275 223.473 372.881 Q226.551 377.465 226.551 386.215 Q226.551 394.941 223.473 399.548 Q220.417 404.131 214.607 404.131 Q208.797 404.131 205.718 399.548 Q202.662 394.941 202.662 386.215 Q202.662 377.465 205.718 372.881 Q208.797 368.275 214.607 368.275 Z" fill="#000000" fill-rule="nonzero" fill-opacity="1" /><path clip-path="url(#clip200)" d="M16.4842 849.571 L16.4842 819.525 L21.895 819.525 L21.895 843.142 L35.9632 843.142 L35.9632 820.512 L41.3741 820.512 L41.3741 843.142 L58.5933 843.142 L58.5933 818.952 L64.0042 818.952 L64.0042 849.571 L16.4842 849.571 Z" fill="#000000" fill-rule="nonzero" fill-opacity="1" /><path clip-path="url(#clip200)" d="M33.8307 787.983 Q33.2578 788.97 33.0032 790.147 Q32.7167 791.293 32.7167 792.694 Q32.7167 797.659 35.9632 800.332 Q39.1779 802.974 45.2253 802.974 L64.0042 802.974 L64.0042 808.863 L28.3562 808.863 L28.3562 802.974 L33.8944 802.974 Q30.6479 801.128 29.0883 798.168 Q27.4968 795.208 27.4968 790.975 Q27.4968 790.37 27.5923 789.638 Q27.656 788.906 27.8151 788.015 L33.8307 787.983 Z" fill="#000000" fill-rule="nonzero" fill-opacity="1" /><path clip-path="url(#clip200)" d="M33.8307 762.329 Q33.2578 763.316 33.0032 764.494 Q32.7167 765.639 32.7167 767.04 Q32.7167 772.005 35.9632 774.679 Q39.1779 777.32 45.2253 777.32 L64.0042 777.32 L64.0042 783.209 L28.3562 783.209 L28.3562 777.32 L33.8944 777.32 Q30.6479 775.474 29.0883 772.514 Q27.4968 769.554 27.4968 765.321 Q27.4968 764.716 27.5923 763.984 Q27.656 763.252 27.8151 762.361 L33.8307 762.329 Z" fill="#000000" fill-rule="nonzero" fill-opacity="1" /><path clip-path="url(#clip200)" d="M32.4621 743.805 Q32.4621 748.516 36.1542 751.253 Q39.8145 753.99 46.212 753.99 Q52.6095 753.99 56.3017 751.285 Q59.9619 748.547 59.9619 743.805 Q59.9619 739.126 56.2698 736.389 Q52.5777 733.652 46.212 733.652 Q39.8781 733.652 36.186 736.389 Q32.4621 739.126 32.4621 743.805 M27.4968 743.805 Q27.4968 736.166 32.4621 731.806 Q37.4273 727.445 46.212 727.445 Q54.9649 727.445 59.9619 731.806 Q64.9272 736.166 64.9272 743.805 Q64.9272 751.476 59.9619 755.836 Q54.9649 760.165 46.212 760.165 Q37.4273 760.165 32.4621 755.836 Q27.4968 751.476 27.4968 743.805 Z" fill="#000000" fill-rule="nonzero" fill-opacity="1" /><path clip-path="url(#clip200)" d="M33.8307 697.081 Q33.2578 698.067 33.0032 699.245 Q32.7167 700.391 32.7167 701.791 Q32.7167 706.757 35.9632 709.43 Q39.1779 712.072 45.2253 712.072 L64.0042 712.072 L64.0042 717.96 L28.3562 717.96 L28.3562 712.072 L33.8944 712.072 Q30.6479 710.226 29.0883 707.266 Q27.4968 704.306 27.4968 700.073 Q27.4968 699.468 27.5923 698.736 Q27.656 698.004 27.8151 697.113 L33.8307 697.081 Z" fill="#000000" fill-rule="nonzero" fill-opacity="1" /><path clip-path="url(#clip200)" d="M618.933 18.8205 L618.933 65.8515 L628.817 65.8515 Q641.334 65.8515 647.127 60.1802 Q652.96 54.509 652.96 42.2752 Q652.96 30.1225 647.127 24.4918 Q641.334 18.8205 628.817 18.8205 L618.933 18.8205 M610.75 12.096 L627.561 12.096 Q645.142 12.096 653.365 19.4281 Q661.589 26.7198 661.589 42.2752 Q661.589 57.9117 653.325 65.2439 Q645.061 72.576 627.561 72.576 L610.75 72.576 L610.75 12.096 Z" fill="#000000" fill-rule="nonzero" fill-opacity="1" /><path clip-path="url(#clip200)" d="M674.308 27.2059 L681.762 27.2059 L681.762 72.576 L674.308 72.576 L674.308 27.2059 M674.308 9.54393 L681.762 9.54393 L681.762 18.9825 L674.308 18.9825 L674.308 9.54393 Z" fill="#000000" fill-rule="nonzero" fill-opacity="1" /><path clip-path="url(#clip200)" d="M720.327 9.54393 L720.327 15.7418 L713.197 15.7418 Q709.187 15.7418 707.607 17.3622 Q706.067 18.9825 706.067 23.1955 L706.067 27.2059 L718.342 27.2059 L718.342 32.9987 L706.067 32.9987 L706.067 72.576 L698.573 72.576 L698.573 32.9987 L691.444 32.9987 L691.444 27.2059 L698.573 27.2059 L698.573 24.0462 Q698.573 16.471 702.098 13.0277 Q705.622 9.54393 713.278 9.54393 L720.327 9.54393 Z" fill="#000000" fill-rule="nonzero" fill-opacity="1" /><path clip-path="url(#clip200)" d="M749.534 9.54393 L749.534 15.7418 L742.404 15.7418 Q738.394 15.7418 736.814 17.3622 Q735.274 18.9825 735.274 23.1955 L735.274 27.2059 L747.549 27.2059 L747.549 32.9987 L735.274 32.9987 L735.274 72.576 L727.78 72.576 L727.78 32.9987 L720.651 32.9987 L720.651 27.2059 L727.78 27.2059 L727.78 24.0462 Q727.78 16.471 731.305 13.0277 Q734.829 9.54393 742.485 9.54393 L749.534 9.54393 Z" fill="#000000" fill-rule="nonzero" fill-opacity="1" /><path clip-path="url(#clip200)" d="M794.58 48.0275 L794.58 51.6733 L760.309 51.6733 Q760.795 59.3701 764.927 63.421 Q769.1 67.4314 776.513 67.4314 Q780.807 67.4314 784.817 66.3781 Q788.868 65.3249 792.838 63.2184 L792.838 70.267 Q788.827 71.9684 784.614 72.8596 Q780.402 73.7508 776.067 73.7508 Q765.211 73.7508 758.851 67.4314 Q752.531 61.1119 752.531 50.3365 Q752.531 39.1965 758.527 32.6746 Q764.563 26.1121 774.771 26.1121 Q783.926 26.1121 789.233 32.0264 Q794.58 37.9003 794.58 48.0275 M787.126 45.84 Q787.045 39.7232 783.683 36.0774 Q780.361 32.4315 774.852 32.4315 Q768.613 32.4315 764.846 35.9558 Q761.119 39.4801 760.552 45.8805 L787.126 45.84 Z" fill="#000000" fill-rule="nonzero" fill-opacity="1" /><path clip-path="url(#clip200)" d="M833.104 34.1734 Q831.848 33.4443 830.349 33.1202 Q828.891 32.7556 827.108 32.7556 Q820.789 32.7556 817.386 36.8875 Q814.024 40.9789 814.024 48.6757 L814.024 72.576 L806.53 72.576 L806.53 27.2059 L814.024 27.2059 L814.024 34.2544 Q816.374 30.1225 820.141 28.1376 Q823.908 26.1121 829.296 26.1121 Q830.066 26.1121 830.997 26.2337 Q831.929 26.3147 833.063 26.5172 L833.104 34.1734 Z" fill="#000000" fill-rule="nonzero" fill-opacity="1" /><path clip-path="url(#clip200)" d="M877.907 48.0275 L877.907 51.6733 L843.636 51.6733 Q844.122 59.3701 848.254 63.421 Q852.427 67.4314 859.84 67.4314 Q864.134 67.4314 868.144 66.3781 Q872.195 65.3249 876.165 63.2184 L876.165 70.267 Q872.155 71.9684 867.942 72.8596 Q863.729 73.7508 859.394 73.7508 Q848.538 73.7508 842.178 67.4314 Q835.858 61.1119 835.858 50.3365 Q835.858 39.1965 841.854 32.6746 Q847.89 26.1121 858.098 26.1121 Q867.253 26.1121 872.56 32.0264 Q877.907 37.9003 877.907 48.0275 M870.453 45.84 Q870.372 39.7232 867.01 36.0774 Q863.688 32.4315 858.179 32.4315 Q851.941 32.4315 848.173 35.9558 Q844.446 39.4801 843.879 45.8805 L870.453 45.84 Z" fill="#000000" fill-rule="nonzero" fill-opacity="1" /><path clip-path="url(#clip200)" d="M927.854 45.1919 L927.854 72.576 L920.401 72.576 L920.401 45.4349 Q920.401 38.994 917.889 35.7938 Q915.378 32.5936 910.355 32.5936 Q904.319 32.5936 900.835 36.4419 Q897.351 40.2903 897.351 46.9338 L897.351 72.576 L889.857 72.576 L889.857 27.2059 L897.351 27.2059 L897.351 34.2544 Q900.025 30.163 903.63 28.1376 Q907.276 26.1121 912.015 26.1121 Q919.834 26.1121 923.844 30.9732 Q927.854 35.7938 927.854 45.1919 Z" fill="#000000" fill-rule="nonzero" fill-opacity="1" /><path clip-path="url(#clip200)" d="M975.372 28.9478 L975.372 35.9153 Q972.212 34.1734 969.012 33.3227 Q965.852 32.4315 962.611 32.4315 Q955.36 32.4315 951.35 37.0496 Q947.339 41.6271 947.339 49.9314 Q947.339 58.2358 951.35 62.8538 Q955.36 67.4314 962.611 67.4314 Q965.852 67.4314 969.012 66.5807 Q972.212 65.6895 975.372 63.9476 L975.372 70.8341 Q972.252 72.2924 968.89 73.0216 Q965.568 73.7508 961.801 73.7508 Q951.552 73.7508 945.516 67.3098 Q939.481 60.8689 939.481 49.9314 Q939.481 38.832 945.557 32.472 Q951.674 26.1121 962.287 26.1121 Q965.73 26.1121 969.012 26.8413 Q972.293 27.5299 975.372 28.9478 Z" fill="#000000" fill-rule="nonzero" fill-opacity="1" /><path clip-path="url(#clip200)" d="M1027.14 48.0275 L1027.14 51.6733 L992.871 51.6733 Q993.358 59.3701 997.49 63.421 Q1001.66 67.4314 1009.08 67.4314 Q1013.37 67.4314 1017.38 66.3781 Q1021.43 65.3249 1025.4 63.2184 L1025.4 70.267 Q1021.39 71.9684 1017.18 72.8596 Q1012.96 73.7508 1008.63 73.7508 Q997.773 73.7508 991.413 67.4314 Q985.094 61.1119 985.094 50.3365 Q985.094 39.1965 991.089 32.6746 Q997.125 26.1121 1007.33 26.1121 Q1016.49 26.1121 1021.79 32.0264 Q1027.14 37.9003 1027.14 48.0275 M1019.69 45.84 Q1019.61 39.7232 1016.25 36.0774 Q1012.92 32.4315 1007.41 32.4315 Q1001.18 32.4315 997.408 35.9558 Q993.682 39.4801 993.115 45.8805 L1019.69 45.84 Z" fill="#000000" fill-rule="nonzero" fill-opacity="1" /><path clip-path="url(#clip200)" d="M1065.75 27.2059 L1073.2 27.2059 L1073.2 72.576 L1065.75 72.576 L1065.75 27.2059 M1065.75 9.54393 L1073.2 9.54393 L1073.2 18.9825 L1065.75 18.9825 L1065.75 9.54393 Z" fill="#000000" fill-rule="nonzero" fill-opacity="1" /><path clip-path="url(#clip200)" d="M1126.51 45.1919 L1126.51 72.576 L1119.06 72.576 L1119.06 45.4349 Q1119.06 38.994 1116.55 35.7938 Q1114.03 32.5936 1109.01 32.5936 Q1102.98 32.5936 1099.49 36.4419 Q1096.01 40.2903 1096.01 46.9338 L1096.01 72.576 L1088.51 72.576 L1088.51 27.2059 L1096.01 27.2059 L1096.01 34.2544 Q1098.68 30.163 1102.29 28.1376 Q1105.93 26.1121 1110.67 26.1121 Q1118.49 26.1121 1122.5 30.9732 Q1126.51 35.7938 1126.51 45.1919 Z" fill="#000000" fill-rule="nonzero" fill-opacity="1" /><path clip-path="url(#clip200)" d="M1192.62 17.6457 Q1183.71 17.6457 1178.44 24.2892 Q1173.22 30.9327 1173.22 42.3968 Q1173.22 53.8203 1178.44 60.4638 Q1183.71 67.1073 1192.62 67.1073 Q1201.53 67.1073 1206.72 60.4638 Q1211.94 53.8203 1211.94 42.3968 Q1211.94 30.9327 1206.72 24.2892 Q1201.53 17.6457 1192.62 17.6457 M1192.62 11.0023 Q1205.34 11.0023 1212.96 19.5497 Q1220.57 28.0566 1220.57 42.3968 Q1220.57 56.6965 1212.96 65.2439 Q1205.34 73.7508 1192.62 73.7508 Q1179.86 73.7508 1172.21 65.2439 Q1164.59 56.737 1164.59 42.3968 Q1164.59 28.0566 1172.21 19.5497 Q1179.86 11.0023 1192.62 11.0023 Z" fill="#000000" fill-rule="nonzero" fill-opacity="1" /><path clip-path="url(#clip200)" d="M1265.62 49.9314 Q1265.62 41.7081 1262.22 37.0496 Q1258.85 32.3505 1252.94 32.3505 Q1247.03 32.3505 1243.62 37.0496 Q1240.26 41.7081 1240.26 49.9314 Q1240.26 58.1548 1243.62 62.8538 Q1247.03 67.5124 1252.94 67.5124 Q1258.85 67.5124 1262.22 62.8538 Q1265.62 58.1548 1265.62 49.9314 M1240.26 34.0924 Q1242.61 30.0415 1246.17 28.0971 Q1249.78 26.1121 1254.76 26.1121 Q1263.03 26.1121 1268.17 32.6746 Q1273.36 39.2371 1273.36 49.9314 Q1273.36 60.6258 1268.17 67.1883 Q1263.03 73.7508 1254.76 73.7508 Q1249.78 73.7508 1246.17 71.8063 Q1242.61 69.8214 1240.26 65.7705 L1240.26 72.576 L1232.77 72.576 L1232.77 9.54393 L1240.26 9.54393 L1240.26 34.0924 Z" fill="#000000" fill-rule="nonzero" fill-opacity="1" /><path clip-path="url(#clip200)" d="M1285.71 27.2059 L1293.17 27.2059 L1293.17 73.3862 Q1293.17 82.0551 1289.84 85.944 Q1286.56 89.8329 1279.23 89.8329 L1276.39 89.8329 L1276.39 83.5134 L1278.38 83.5134 Q1282.63 83.5134 1284.17 81.5285 Q1285.71 79.5841 1285.71 73.3862 L1285.71 27.2059 M1285.71 9.54393 L1293.17 9.54393 L1293.17 18.9825 L1285.71 18.9825 L1285.71 9.54393 Z" fill="#000000" fill-rule="nonzero" fill-opacity="1" /><path clip-path="url(#clip200)" d="M1347.57 48.0275 L1347.57 51.6733 L1313.3 51.6733 Q1313.78 59.3701 1317.92 63.421 Q1322.09 67.4314 1329.5 67.4314 Q1333.8 67.4314 1337.81 66.3781 Q1341.86 65.3249 1345.83 63.2184 L1345.83 70.267 Q1341.82 71.9684 1337.6 72.8596 Q1333.39 73.7508 1329.06 73.7508 Q1318.2 73.7508 1311.84 67.4314 Q1305.52 61.1119 1305.52 50.3365 Q1305.52 39.1965 1311.52 32.6746 Q1317.55 26.1121 1327.76 26.1121 Q1336.91 26.1121 1342.22 32.0264 Q1347.57 37.9003 1347.57 48.0275 M1340.11 45.84 Q1340.03 39.7232 1336.67 36.0774 Q1333.35 32.4315 1327.84 32.4315 Q1321.6 32.4315 1317.84 35.9558 Q1314.11 39.4801 1313.54 45.8805 L1340.11 45.84 Z" fill="#000000" fill-rule="nonzero" fill-opacity="1" /><path clip-path="url(#clip200)" d="M1392.45 28.9478 L1392.45 35.9153 Q1389.29 34.1734 1386.09 33.3227 Q1382.93 32.4315 1379.69 32.4315 Q1372.44 32.4315 1368.43 37.0496 Q1364.42 41.6271 1364.42 49.9314 Q1364.42 58.2358 1368.43 62.8538 Q1372.44 67.4314 1379.69 67.4314 Q1382.93 67.4314 1386.09 66.5807 Q1389.29 65.6895 1392.45 63.9476 L1392.45 70.8341 Q1389.33 72.2924 1385.97 73.0216 Q1382.65 73.7508 1378.88 73.7508 Q1368.63 73.7508 1362.6 67.3098 Q1356.56 60.8689 1356.56 49.9314 Q1356.56 38.832 1362.64 32.472 Q1368.75 26.1121 1379.37 26.1121 Q1382.81 26.1121 1386.09 26.8413 Q1389.37 27.5299 1392.45 28.9478 Z" fill="#000000" fill-rule="nonzero" fill-opacity="1" /><path clip-path="url(#clip200)" d="M1412.79 14.324 L1412.79 27.2059 L1428.14 27.2059 L1428.14 32.9987 L1412.79 32.9987 L1412.79 57.6282 Q1412.79 63.1779 1414.29 64.7578 Q1415.83 66.3376 1420.48 66.3376 L1428.14 66.3376 L1428.14 72.576 L1420.48 72.576 Q1411.86 72.576 1408.58 69.3758 Q1405.29 66.1351 1405.29 57.6282 L1405.29 32.9987 L1399.83 32.9987 L1399.83 27.2059 L1405.29 27.2059 L1405.29 14.324 L1412.79 14.324 Z" fill="#000000" fill-rule="nonzero" fill-opacity="1" /><path clip-path="url(#clip200)" d="M1437.94 27.2059 L1445.4 27.2059 L1445.4 72.576 L1437.94 72.576 L1437.94 27.2059 M1437.94 9.54393 L1445.4 9.54393 L1445.4 18.9825 L1437.94 18.9825 L1437.94 9.54393 Z" fill="#000000" fill-rule="nonzero" fill-opacity="1" /><path clip-path="url(#clip200)" d="M1455.65 27.2059 L1463.55 27.2059 L1477.72 65.2844 L1491.9 27.2059 L1499.8 27.2059 L1482.79 72.576 L1472.66 72.576 L1455.65 27.2059 Z" fill="#000000" fill-rule="nonzero" fill-opacity="1" /><path clip-path="url(#clip200)" d="M1548.9 48.0275 L1548.9 51.6733 L1514.63 51.6733 Q1515.11 59.3701 1519.25 63.421 Q1523.42 67.4314 1530.83 67.4314 Q1535.13 67.4314 1539.14 66.3781 Q1543.19 65.3249 1547.16 63.2184 L1547.16 70.267 Q1543.15 71.9684 1538.93 72.8596 Q1534.72 73.7508 1530.39 73.7508 Q1519.53 73.7508 1513.17 67.4314 Q1506.85 61.1119 1506.85 50.3365 Q1506.85 39.1965 1512.85 32.6746 Q1518.88 26.1121 1529.09 26.1121 Q1538.24 26.1121 1543.55 32.0264 Q1548.9 37.9003 1548.9 48.0275 M1541.44 45.84 Q1541.36 39.7232 1538 36.0774 Q1534.68 32.4315 1529.17 32.4315 Q1522.93 32.4315 1519.16 35.9558 Q1515.44 39.4801 1514.87 45.8805 L1541.44 45.84 Z" fill="#000000" fill-rule="nonzero" fill-opacity="1" /><path clip-path="url(#clip200)" d="M1603.42 72.576 L1580.33 12.096 L1588.88 12.096 L1608.04 63.0159 L1627.24 12.096 L1635.75 12.096 L1612.7 72.576 L1603.42 72.576 Z" fill="#000000" fill-rule="nonzero" fill-opacity="1" /><path clip-path="url(#clip200)" d="M1658.44 49.7694 Q1649.4 49.7694 1645.92 51.8354 Q1642.43 53.9013 1642.43 58.8839 Q1642.43 62.8538 1645.03 65.2034 Q1647.66 67.5124 1652.16 67.5124 Q1658.35 67.5124 1662.08 63.1374 Q1665.85 58.7219 1665.85 51.4303 L1665.85 49.7694 L1658.44 49.7694 M1673.3 46.6907 L1673.3 72.576 L1665.85 72.576 L1665.85 65.6895 Q1663.3 69.8214 1659.49 71.8063 Q1655.68 73.7508 1650.17 73.7508 Q1643.2 73.7508 1639.07 69.8619 Q1634.98 65.9325 1634.98 59.3701 Q1634.98 51.7138 1640.08 47.825 Q1645.23 43.9361 1655.4 43.9361 L1665.85 43.9361 L1665.85 43.2069 Q1665.85 38.0623 1662.45 35.2672 Q1659.08 32.4315 1652.97 32.4315 Q1649.08 32.4315 1645.39 33.3632 Q1641.7 34.295 1638.3 36.1584 L1638.3 29.2718 Q1642.39 27.692 1646.24 26.9223 Q1650.09 26.1121 1653.74 26.1121 Q1663.58 26.1121 1668.44 31.2163 Q1673.3 36.3204 1673.3 46.6907 Z" fill="#000000" fill-rule="nonzero" fill-opacity="1" /><path clip-path="url(#clip200)" d="M1688.65 9.54393 L1696.11 9.54393 L1696.11 72.576 L1688.65 72.576 L1688.65 9.54393 Z" fill="#000000" fill-rule="nonzero" fill-opacity="1" /><path clip-path="url(#clip200)" d="M1710.93 54.671 L1710.93 27.2059 L1718.39 27.2059 L1718.39 54.3874 Q1718.39 60.8284 1720.9 64.0691 Q1723.41 67.2693 1728.43 67.2693 Q1734.47 67.2693 1737.95 63.421 Q1741.48 59.5726 1741.48 52.9291 L1741.48 27.2059 L1748.93 27.2059 L1748.93 72.576 L1741.48 72.576 L1741.48 65.6084 Q1738.76 69.7404 1735.16 71.7658 Q1731.59 73.7508 1726.85 73.7508 Q1719.04 73.7508 1714.99 68.8897 Q1710.93 64.0286 1710.93 54.671 M1729.69 26.1121 L1729.69 26.1121 Z" fill="#000000" fill-rule="nonzero" fill-opacity="1" /><path clip-path="url(#clip200)" d="M1803.09 48.0275 L1803.09 51.6733 L1768.82 51.6733 Q1769.31 59.3701 1773.44 63.421 Q1777.61 67.4314 1785.03 67.4314 Q1789.32 67.4314 1793.33 66.3781 Q1797.38 65.3249 1801.35 63.2184 L1801.35 70.267 Q1797.34 71.9684 1793.13 72.8596 Q1788.91 73.7508 1784.58 73.7508 Q1773.72 73.7508 1767.36 67.4314 Q1761.04 61.1119 1761.04 50.3365 Q1761.04 39.1965 1767.04 32.6746 Q1773.08 26.1121 1783.28 26.1121 Q1792.44 26.1121 1797.75 32.0264 Q1803.09 37.9003 1803.09 48.0275 M1795.64 45.84 Q1795.56 39.7232 1792.2 36.0774 Q1788.87 32.4315 1783.36 32.4315 Q1777.13 32.4315 1773.36 35.9558 Q1769.63 39.4801 1769.07 45.8805 L1795.64 45.84 Z" fill="#000000" fill-rule="nonzero" fill-opacity="1" /><path clip-path="url(#clip200)" d="M1844.25 28.5427 L1844.25 35.5912 Q1841.09 33.9709 1837.69 33.1607 Q1834.28 32.3505 1830.64 32.3505 Q1825.09 32.3505 1822.29 34.0519 Q1819.54 35.7533 1819.54 39.156 Q1819.54 41.7486 1821.52 43.2475 Q1823.51 44.7058 1829.5 46.0426 L1832.06 46.6097 Q1840 48.3111 1843.32 51.4303 Q1846.68 54.509 1846.68 60.0587 Q1846.68 66.3781 1841.66 70.0644 Q1836.67 73.7508 1827.92 73.7508 Q1824.28 73.7508 1820.31 73.0216 Q1816.38 72.3329 1812 70.9151 L1812 63.2184 Q1816.14 65.3654 1820.15 66.4591 Q1824.16 67.5124 1828.09 67.5124 Q1833.35 67.5124 1836.19 65.73 Q1839.02 63.9071 1839.02 60.6258 Q1839.02 57.5877 1836.96 55.9673 Q1834.93 54.3469 1828.01 52.8481 L1825.41 52.2405 Q1818.49 50.7821 1815.41 47.7845 Q1812.33 44.7463 1812.33 39.4801 Q1812.33 33.0797 1816.87 29.5959 Q1821.4 26.1121 1829.75 26.1121 Q1833.88 26.1121 1837.53 26.7198 Q1841.17 27.3274 1844.25 28.5427 Z" fill="#000000" fill-rule="nonzero" fill-opacity="1" /><circle clip-path="url(#clip202)" cx="317.24" cy="160.256" r="14.4" fill="#0000ff" fill-rule="evenodd" fill-opacity="1" stroke="#000000" stroke-opacity="1" stroke-width="3.2"/>
<circle clip-path="url(#clip202)" cx="482.963" cy="1018.37" r="14.4" fill="#0000ff" fill-rule="evenodd" fill-opacity="1" stroke="#000000" stroke-opacity="1" stroke-width="3.2"/>
<circle clip-path="url(#clip202)" cx="648.685" cy="834.651" r="14.4" fill="#0000ff" fill-rule="evenodd" fill-opacity="1" stroke="#000000" stroke-opacity="1" stroke-width="3.2"/>
<circle clip-path="url(#clip202)" cx="1145.85" cy="1303.38" r="14.4" fill="#0000ff" fill-rule="evenodd" fill-opacity="1" stroke="#000000" stroke-opacity="1" stroke-width="3.2"/>
<circle clip-path="url(#clip202)" cx="1643.02" cy="1269.66" r="14.4" fill="#0000ff" fill-rule="evenodd" fill-opacity="1" stroke="#000000" stroke-opacity="1" stroke-width="3.2"/>
<circle clip-path="url(#clip202)" cx="2140.19" cy="1386.4" r="14.4" fill="#0000ff" fill-rule="evenodd" fill-opacity="1" stroke="#000000" stroke-opacity="1" stroke-width="3.2"/>
<polyline clip-path="url(#clip202)" style="stroke:#0000ff; stroke-linecap:round; stroke-linejoin:round; stroke-width:4; stroke-opacity:1; fill:none" points="317.24,160.256 482.963,1018.37 648.685,834.651 1145.85,1303.38 1643.02,1269.66 2140.19,1386.4 "/>
<path clip-path="url(#clip200)" d="M1823.6 868.49 L2130.47 868.49 L2130.47 712.97 L1823.6 712.97  Z" fill="#ffffff" fill-rule="evenodd" fill-opacity="1"/>
<polyline clip-path="url(#clip200)" style="stroke:#000000; stroke-linecap:round; stroke-linejoin:round; stroke-width:4; stroke-opacity:1; fill:none" points="1823.6,868.49 2130.47,868.49 2130.47,712.97 1823.6,712.97 1823.6,868.49 "/>
<circle clip-path="url(#clip200)" cx="1909.48" cy="764.81" r="20.48" fill="#0000ff" fill-rule="evenodd" fill-opacity="1" stroke="#000000" stroke-opacity="1" stroke-width="4.55111"/>
<path clip-path="url(#clip200)" d="M1995.36 747.53 L2017.22 747.53 L2017.22 751.465 L2000.04 751.465 L2000.04 761.696 L2016.5 761.696 L2016.5 765.631 L2000.04 765.631 L2000.04 778.154 L2017.63 778.154 L2017.63 782.09 L1995.36 782.09 L1995.36 747.53 Z" fill="#000000" fill-rule="nonzero" fill-opacity="1" /><path clip-path="url(#clip200)" d="M2040.16 760.145 Q2039.44 759.729 2038.58 759.543 Q2037.75 759.335 2036.73 759.335 Q2033.12 759.335 2031.17 761.696 Q2029.25 764.034 2029.25 768.432 L2029.25 782.09 L2024.97 782.09 L2024.97 756.164 L2029.25 756.164 L2029.25 760.192 Q2030.6 757.83 2032.75 756.696 Q2034.9 755.539 2037.98 755.539 Q2038.42 755.539 2038.95 755.608 Q2039.48 755.655 2040.13 755.77 L2040.16 760.145 Z" fill="#000000" fill-rule="nonzero" fill-opacity="1" /><path clip-path="url(#clip200)" d="M2058.81 760.145 Q2058.1 759.729 2057.24 759.543 Q2056.41 759.335 2055.39 759.335 Q2051.78 759.335 2049.83 761.696 Q2047.91 764.034 2047.91 768.432 L2047.91 782.09 L2043.63 782.09 L2043.63 756.164 L2047.91 756.164 L2047.91 760.192 Q2049.25 757.83 2051.41 756.696 Q2053.56 755.539 2056.64 755.539 Q2057.08 755.539 2057.61 755.608 Q2058.14 755.655 2058.79 755.77 L2058.81 760.145 Z" fill="#000000" fill-rule="nonzero" fill-opacity="1" /><path clip-path="url(#clip200)" d="M2072.29 759.15 Q2068.86 759.15 2066.87 761.835 Q2064.88 764.497 2064.88 769.15 Q2064.88 773.803 2066.85 776.488 Q2068.84 779.15 2072.29 779.15 Q2075.69 779.15 2077.68 776.465 Q2079.67 773.779 2079.67 769.15 Q2079.67 764.543 2077.68 761.858 Q2075.69 759.15 2072.29 759.15 M2072.29 755.539 Q2077.84 755.539 2081.01 759.15 Q2084.18 762.761 2084.18 769.15 Q2084.18 775.516 2081.01 779.15 Q2077.84 782.761 2072.29 782.761 Q2066.71 782.761 2063.54 779.15 Q2060.39 775.516 2060.39 769.15 Q2060.39 762.761 2063.54 759.15 Q2066.71 755.539 2072.29 755.539 Z" fill="#000000" fill-rule="nonzero" fill-opacity="1" /><path clip-path="url(#clip200)" d="M2106.27 760.145 Q2105.55 759.729 2104.69 759.543 Q2103.86 759.335 2102.84 759.335 Q2099.23 759.335 2097.28 761.696 Q2095.36 764.034 2095.36 768.432 L2095.36 782.09 L2091.08 782.09 L2091.08 756.164 L2095.36 756.164 L2095.36 760.192 Q2096.71 757.83 2098.86 756.696 Q2101.01 755.539 2104.09 755.539 Q2104.53 755.539 2105.06 755.608 Q2105.6 755.655 2106.24 755.77 L2106.27 760.145 Z" fill="#000000" fill-rule="nonzero" fill-opacity="1" /><circle clip-path="url(#clip200)" cx="1909.48" cy="816.65" r="20.48" fill="#ff0000" fill-rule="evenodd" fill-opacity="1" stroke="#000000" stroke-opacity="1" stroke-width="4.55111"/>
<path clip-path="url(#clip200)" d="M1995.36 799.37 L2024.6 799.37 L2024.6 803.305 L2012.33 803.305 L2012.33 833.93 L2007.63 833.93 L2007.63 803.305 L1995.36 803.305 L1995.36 799.37 Z" fill="#000000" fill-rule="nonzero" fill-opacity="1" /><path clip-path="url(#clip200)" d="M2027.47 808.004 L2031.73 808.004 L2031.73 833.93 L2027.47 833.93 L2027.47 808.004 M2027.47 797.911 L2031.73 797.911 L2031.73 803.305 L2027.47 803.305 L2027.47 797.911 Z" fill="#000000" fill-rule="nonzero" fill-opacity="1" /><path clip-path="url(#clip200)" d="M2060.83 812.981 Q2062.42 810.11 2064.65 808.745 Q2066.87 807.379 2069.88 807.379 Q2073.93 807.379 2076.13 810.226 Q2078.33 813.05 2078.33 818.282 L2078.33 833.93 L2074.04 833.93 L2074.04 818.42 Q2074.04 814.694 2072.72 812.888 Q2071.41 811.082 2068.7 811.082 Q2065.39 811.082 2063.47 813.282 Q2061.54 815.481 2061.54 819.277 L2061.54 833.93 L2057.26 833.93 L2057.26 818.42 Q2057.26 814.67 2055.94 812.888 Q2054.62 811.082 2051.87 811.082 Q2048.6 811.082 2046.68 813.305 Q2044.76 815.504 2044.76 819.277 L2044.76 833.93 L2040.48 833.93 L2040.48 808.004 L2044.76 808.004 L2044.76 812.032 Q2046.22 809.647 2048.26 808.513 Q2050.29 807.379 2053.1 807.379 Q2055.92 807.379 2057.89 808.814 Q2059.88 810.249 2060.83 812.981 Z" fill="#000000" fill-rule="nonzero" fill-opacity="1" /><path clip-path="url(#clip200)" d="M2109 819.902 L2109 821.985 L2089.41 821.985 Q2089.69 826.383 2092.05 828.698 Q2094.44 830.99 2098.67 830.99 Q2101.13 830.99 2103.42 830.388 Q2105.73 829.786 2108 828.582 L2108 832.61 Q2105.71 833.582 2103.3 834.092 Q2100.9 834.601 2098.42 834.601 Q2092.22 834.601 2088.58 830.99 Q2084.97 827.379 2084.97 821.221 Q2084.97 814.856 2088.4 811.129 Q2091.85 807.379 2097.68 807.379 Q2102.91 807.379 2105.94 810.758 Q2109 814.115 2109 819.902 M2104.74 818.652 Q2104.69 815.157 2102.77 813.073 Q2100.87 810.99 2097.72 810.99 Q2094.16 810.99 2092.01 813.004 Q2089.88 815.018 2089.55 818.675 L2104.74 818.652 Z" fill="#000000" fill-rule="nonzero" fill-opacity="1" /><polyline clip-path="url(#clip202)" style="stroke:#000000; stroke-linecap:round; stroke-linejoin:round; stroke-width:2; stroke-opacity:0.1; fill:none" stroke-dasharray="8, 4, 1, 4" points="262.551,1214.23 2194.88,1214.23 "/>
<polyline clip-path="url(#clip202)" style="stroke:#000000; stroke-linecap:round; stroke-linejoin:round; stroke-width:2; stroke-opacity:0.1; fill:none" stroke-dasharray="8, 4, 1, 4" points="262.551,970.278 2194.88,970.278 "/>
<polyline clip-path="url(#clip202)" style="stroke:#000000; stroke-linecap:round; stroke-linejoin:round; stroke-width:2; stroke-opacity:0.1; fill:none" stroke-dasharray="8, 4, 1, 4" points="262.551,726.328 2194.88,726.328 "/>
<polyline clip-path="url(#clip202)" style="stroke:#000000; stroke-linecap:round; stroke-linejoin:round; stroke-width:2; stroke-opacity:0.1; fill:none" stroke-dasharray="8, 4, 1, 4" points="262.551,482.377 2194.88,482.377 "/>
<polyline clip-path="url(#clip202)" style="stroke:#000000; stroke-linecap:round; stroke-linejoin:round; stroke-width:2; stroke-opacity:0.1; fill:none" stroke-dasharray="8, 4, 1, 4" points="262.551,238.427 2194.88,238.427 "/>
<polyline clip-path="url(#clip200)" style="stroke:#000000; stroke-linecap:round; stroke-linejoin:round; stroke-width:4; stroke-opacity:1; fill:none" points="2194.88,1423.18 2194.88,123.472 "/>
<polyline clip-path="url(#clip200)" style="stroke:#000000; stroke-linecap:round; stroke-linejoin:round; stroke-width:4; stroke-opacity:1; fill:none" points="2194.88,1214.23 2175.98,1214.23 "/>
<polyline clip-path="url(#clip200)" style="stroke:#000000; stroke-linecap:round; stroke-linejoin:round; stroke-width:4; stroke-opacity:1; fill:none" points="2194.88,970.278 2175.98,970.278 "/>
<polyline clip-path="url(#clip200)" style="stroke:#000000; stroke-linecap:round; stroke-linejoin:round; stroke-width:4; stroke-opacity:1; fill:none" points="2194.88,726.328 2175.98,726.328 "/>
<polyline clip-path="url(#clip200)" style="stroke:#000000; stroke-linecap:round; stroke-linejoin:round; stroke-width:4; stroke-opacity:1; fill:none" points="2194.88,482.377 2175.98,482.377 "/>
<polyline clip-path="url(#clip200)" style="stroke:#000000; stroke-linecap:round; stroke-linejoin:round; stroke-width:4; stroke-opacity:1; fill:none" points="2194.88,238.427 2175.98,238.427 "/>
<path clip-path="url(#clip200)" d="M2231.55 1227.57 L2239.19 1227.57 L2239.19 1201.21 L2230.88 1202.87 L2230.88 1198.62 L2239.14 1196.95 L2243.82 1196.95 L2243.82 1227.57 L2251.46 1227.57 L2251.46 1231.51 L2231.55 1231.51 L2231.55 1227.57 Z" fill="#000000" fill-rule="nonzero" fill-opacity="1" /><path clip-path="url(#clip200)" d="M2270.9 1200.03 Q2267.29 1200.03 2265.46 1203.59 Q2263.66 1207.13 2263.66 1214.26 Q2263.66 1221.37 2265.46 1224.93 Q2267.29 1228.48 2270.9 1228.48 Q2274.54 1228.48 2276.34 1224.93 Q2278.17 1221.37 2278.17 1214.26 Q2278.17 1207.13 2276.34 1203.59 Q2274.54 1200.03 2270.9 1200.03 M2270.9 1196.32 Q2276.71 1196.32 2279.77 1200.93 Q2282.85 1205.51 2282.85 1214.26 Q2282.85 1222.99 2279.77 1227.6 Q2276.71 1232.18 2270.9 1232.18 Q2265.09 1232.18 2262.01 1227.6 Q2258.96 1222.99 2258.96 1214.26 Q2258.96 1205.51 2262.01 1200.93 Q2265.09 1196.32 2270.9 1196.32 Z" fill="#000000" fill-rule="nonzero" fill-opacity="1" /><path clip-path="url(#clip200)" d="M2236.5 983.623 L2252.82 983.623 L2252.82 987.558 L2230.88 987.558 L2230.88 983.623 Q2233.54 980.868 2238.12 976.239 Q2242.73 971.586 2243.91 970.243 Q2246.16 967.72 2247.04 965.984 Q2247.94 964.225 2247.94 962.535 Q2247.94 959.78 2245.99 958.044 Q2244.07 956.308 2240.97 956.308 Q2238.77 956.308 2236.32 957.072 Q2233.89 957.836 2231.11 959.387 L2231.11 954.665 Q2233.93 953.53 2236.39 952.952 Q2238.84 952.373 2240.88 952.373 Q2246.25 952.373 2249.44 955.058 Q2252.64 957.743 2252.64 962.234 Q2252.64 964.364 2251.83 966.285 Q2251.04 968.183 2248.93 970.776 Q2248.36 971.447 2245.25 974.665 Q2242.15 977.859 2236.5 983.623 Z" fill="#000000" fill-rule="nonzero" fill-opacity="1" /><path clip-path="url(#clip200)" d="M2272.64 956.077 Q2269.03 956.077 2267.2 959.642 Q2265.39 963.183 2265.39 970.313 Q2265.39 977.419 2267.2 980.984 Q2269.03 984.526 2272.64 984.526 Q2276.27 984.526 2278.08 980.984 Q2279.91 977.419 2279.91 970.313 Q2279.91 963.183 2278.08 959.642 Q2276.27 956.077 2272.64 956.077 M2272.64 952.373 Q2278.45 952.373 2281.5 956.979 Q2284.58 961.563 2284.58 970.313 Q2284.58 979.04 2281.5 983.646 Q2278.45 988.229 2272.64 988.229 Q2266.83 988.229 2263.75 983.646 Q2260.69 979.04 2260.69 970.313 Q2260.69 961.563 2263.75 956.979 Q2266.83 952.373 2272.64 952.373 Z" fill="#000000" fill-rule="nonzero" fill-opacity="1" /><path clip-path="url(#clip200)" d="M2246.5 724.973 Q2249.86 725.691 2251.74 727.96 Q2253.63 730.228 2253.63 733.561 Q2253.63 738.677 2250.12 741.478 Q2246.6 744.279 2240.12 744.279 Q2237.94 744.279 2235.62 743.839 Q2233.33 743.422 2230.88 742.566 L2230.88 738.052 Q2232.82 739.186 2235.14 739.765 Q2237.45 740.344 2239.98 740.344 Q2244.37 740.344 2246.67 738.608 Q2248.98 736.872 2248.98 733.561 Q2248.98 730.506 2246.83 728.793 Q2244.7 727.057 2240.88 727.057 L2236.85 727.057 L2236.85 723.214 L2241.06 723.214 Q2244.51 723.214 2246.34 721.848 Q2248.17 720.46 2248.17 717.867 Q2248.17 715.205 2246.27 713.793 Q2244.4 712.358 2240.88 712.358 Q2238.96 712.358 2236.76 712.774 Q2234.56 713.191 2231.92 714.071 L2231.92 709.904 Q2234.58 709.163 2236.9 708.793 Q2239.24 708.423 2241.3 708.423 Q2246.62 708.423 2249.72 710.853 Q2252.82 713.261 2252.82 717.381 Q2252.82 720.251 2251.18 722.242 Q2249.54 724.21 2246.5 724.973 Z" fill="#000000" fill-rule="nonzero" fill-opacity="1" /><path clip-path="url(#clip200)" d="M2272.5 712.126 Q2268.89 712.126 2267.06 715.691 Q2265.25 719.233 2265.25 726.362 Q2265.25 733.469 2267.06 737.034 Q2268.89 740.575 2272.5 740.575 Q2276.13 740.575 2277.94 737.034 Q2279.77 733.469 2279.77 726.362 Q2279.77 719.233 2277.94 715.691 Q2276.13 712.126 2272.5 712.126 M2272.5 708.423 Q2278.31 708.423 2281.36 713.029 Q2284.44 717.612 2284.44 726.362 Q2284.44 735.089 2281.36 739.696 Q2278.31 744.279 2272.5 744.279 Q2266.69 744.279 2263.61 739.696 Q2260.55 735.089 2260.55 726.362 Q2260.55 717.612 2263.61 713.029 Q2266.69 708.423 2272.5 708.423 Z" fill="#000000" fill-rule="nonzero" fill-opacity="1" /><path clip-path="url(#clip200)" d="M2246.48 469.171 L2234.68 487.62 L2246.48 487.62 L2246.48 469.171 M2245.25 465.097 L2251.13 465.097 L2251.13 487.62 L2256.06 487.62 L2256.06 491.509 L2251.13 491.509 L2251.13 499.657 L2246.48 499.657 L2246.48 491.509 L2230.88 491.509 L2230.88 486.995 L2245.25 465.097 Z" fill="#000000" fill-rule="nonzero" fill-opacity="1" /><path clip-path="url(#clip200)" d="M2273.8 468.176 Q2270.18 468.176 2268.36 471.741 Q2266.55 475.282 2266.55 482.412 Q2266.55 489.518 2268.36 493.083 Q2270.18 496.625 2273.8 496.625 Q2277.43 496.625 2279.24 493.083 Q2281.06 489.518 2281.06 482.412 Q2281.06 475.282 2279.24 471.741 Q2277.43 468.176 2273.8 468.176 M2273.8 464.472 Q2279.61 464.472 2282.66 469.079 Q2285.74 473.662 2285.74 482.412 Q2285.74 491.139 2282.66 495.745 Q2279.61 500.328 2273.8 500.328 Q2267.99 500.328 2264.91 495.745 Q2261.85 491.139 2261.85 482.412 Q2261.85 473.662 2264.91 469.079 Q2267.99 464.472 2273.8 464.472 Z" fill="#000000" fill-rule="nonzero" fill-opacity="1" /><path clip-path="url(#clip200)" d="M2232.34 221.147 L2250.69 221.147 L2250.69 225.082 L2236.62 225.082 L2236.62 233.554 Q2237.64 233.207 2238.66 233.045 Q2239.68 232.86 2240.69 232.86 Q2246.48 232.86 2249.86 236.031 Q2253.24 239.202 2253.24 244.619 Q2253.24 250.197 2249.77 253.299 Q2246.3 256.378 2239.98 256.378 Q2237.8 256.378 2235.53 256.008 Q2233.29 255.637 2230.88 254.897 L2230.88 250.197 Q2232.96 251.332 2235.18 251.887 Q2237.41 252.443 2239.88 252.443 Q2243.89 252.443 2246.23 250.336 Q2248.56 248.23 2248.56 244.619 Q2248.56 241.008 2246.23 238.901 Q2243.89 236.795 2239.88 236.795 Q2238.01 236.795 2236.13 237.211 Q2234.28 237.628 2232.34 238.508 L2232.34 221.147 Z" fill="#000000" fill-rule="nonzero" fill-opacity="1" /><path clip-path="url(#clip200)" d="M2272.45 224.225 Q2268.84 224.225 2267.01 227.79 Q2265.21 231.332 2265.21 238.461 Q2265.21 245.568 2267.01 249.133 Q2268.84 252.674 2272.45 252.674 Q2276.09 252.674 2277.89 249.133 Q2279.72 245.568 2279.72 238.461 Q2279.72 231.332 2277.89 227.79 Q2276.09 224.225 2272.45 224.225 M2272.45 220.522 Q2278.26 220.522 2281.32 225.128 Q2284.4 229.711 2284.4 238.461 Q2284.4 247.188 2281.32 251.795 Q2278.26 256.378 2272.45 256.378 Q2266.64 256.378 2263.56 251.795 Q2260.51 247.188 2260.51 238.461 Q2260.51 229.711 2263.56 225.128 Q2266.64 220.522 2272.45 220.522 Z" fill="#000000" fill-rule="nonzero" fill-opacity="1" /><path clip-path="url(#clip200)" d="M2331.24 851.449 L2331.24 811.25 L2336.65 811.25 L2336.65 828.119 L2378.76 828.119 L2378.76 834.58 L2336.65 834.58 L2336.65 851.449 L2331.24 851.449 Z" fill="#000000" fill-rule="nonzero" fill-opacity="1" /><path clip-path="url(#clip200)" d="M2343.12 807.303 L2343.12 801.446 L2378.76 801.446 L2378.76 807.303 L2343.12 807.303 M2329.24 807.303 L2329.24 801.446 L2336.65 801.446 L2336.65 807.303 L2329.24 807.303 Z" fill="#000000" fill-rule="nonzero" fill-opacity="1" /><path clip-path="url(#clip200)" d="M2349.96 761.438 Q2346.01 759.242 2344.13 756.186 Q2342.26 753.131 2342.26 748.993 Q2342.26 743.423 2346.17 740.399 Q2350.05 737.376 2357.25 737.376 L2378.76 737.376 L2378.76 743.264 L2357.44 743.264 Q2352.31 743.264 2349.83 745.078 Q2347.35 746.892 2347.35 750.616 Q2347.35 755.168 2350.37 757.81 Q2353.4 760.451 2358.62 760.451 L2378.76 760.451 L2378.76 766.34 L2357.44 766.34 Q2352.28 766.34 2349.83 768.154 Q2347.35 769.968 2347.35 773.756 Q2347.35 778.243 2350.4 780.885 Q2353.43 783.527 2358.62 783.527 L2378.76 783.527 L2378.76 789.415 L2343.12 789.415 L2343.12 783.527 L2348.65 783.527 Q2345.38 781.522 2343.82 778.721 Q2342.26 775.92 2342.26 772.069 Q2342.26 768.186 2344.23 765.48 Q2346.2 762.743 2349.96 761.438 Z" fill="#000000" fill-rule="nonzero" fill-opacity="1" /><path clip-path="url(#clip200)" d="M2359.48 695.203 L2362.34 695.203 L2362.34 722.13 Q2368.39 721.748 2371.57 718.501 Q2374.72 715.223 2374.72 709.398 Q2374.72 706.025 2373.89 702.874 Q2373.07 699.691 2371.41 696.571 L2376.95 696.571 Q2378.29 699.723 2378.99 703.033 Q2379.69 706.343 2379.69 709.748 Q2379.69 718.279 2374.72 723.276 Q2369.76 728.241 2361.29 728.241 Q2352.54 728.241 2347.41 723.53 Q2342.26 718.788 2342.26 710.767 Q2342.26 703.574 2346.9 699.404 Q2351.52 695.203 2359.48 695.203 M2357.76 701.059 Q2352.95 701.123 2350.09 703.765 Q2347.22 706.375 2347.22 710.703 Q2347.22 715.605 2349.99 718.565 Q2352.76 721.493 2357.79 721.939 L2357.76 701.059 Z" fill="#000000" fill-rule="nonzero" fill-opacity="1" /><circle clip-path="url(#clip202)" cx="317.24" cy="1386.4" r="14.4" fill="#ff0000" fill-rule="evenodd" fill-opacity="1" stroke="#000000" stroke-opacity="1" stroke-width="3.2"/>
<circle clip-path="url(#clip202)" cx="482.963" cy="1339.92" r="14.4" fill="#ff0000" fill-rule="evenodd" fill-opacity="1" stroke="#000000" stroke-opacity="1" stroke-width="3.2"/>
<circle clip-path="url(#clip202)" cx="648.685" cy="1267.18" r="14.4" fill="#ff0000" fill-rule="evenodd" fill-opacity="1" stroke="#000000" stroke-opacity="1" stroke-width="3.2"/>
<circle clip-path="url(#clip202)" cx="1145.85" cy="907.746" r="14.4" fill="#ff0000" fill-rule="evenodd" fill-opacity="1" stroke="#000000" stroke-opacity="1" stroke-width="3.2"/>
<circle clip-path="url(#clip202)" cx="1643.02" cy="440.236" r="14.4" fill="#ff0000" fill-rule="evenodd" fill-opacity="1" stroke="#000000" stroke-opacity="1" stroke-width="3.2"/>
<circle clip-path="url(#clip202)" cx="2140.19" cy="160.256" r="14.4" fill="#ff0000" fill-rule="evenodd" fill-opacity="1" stroke="#000000" stroke-opacity="1" stroke-width="3.2"/>
<polyline clip-path="url(#clip202)" style="stroke:#000000; stroke-linecap:round; stroke-linejoin:round; stroke-width:2; stroke-opacity:0.1; fill:none" stroke-dasharray="8, 4, 1, 4" points="262.551,1214.23 2194.88,1214.23 "/>
<polyline clip-path="url(#clip202)" style="stroke:#000000; stroke-linecap:round; stroke-linejoin:round; stroke-width:2; stroke-opacity:0.1; fill:none" stroke-dasharray="8, 4, 1, 4" points="262.551,970.278 2194.88,970.278 "/>
<polyline clip-path="url(#clip202)" style="stroke:#000000; stroke-linecap:round; stroke-linejoin:round; stroke-width:2; stroke-opacity:0.1; fill:none" stroke-dasharray="8, 4, 1, 4" points="262.551,726.328 2194.88,726.328 "/>
<polyline clip-path="url(#clip202)" style="stroke:#000000; stroke-linecap:round; stroke-linejoin:round; stroke-width:2; stroke-opacity:0.1; fill:none" stroke-dasharray="8, 4, 1, 4" points="262.551,482.377 2194.88,482.377 "/>
<polyline clip-path="url(#clip202)" style="stroke:#000000; stroke-linecap:round; stroke-linejoin:round; stroke-width:2; stroke-opacity:0.1; fill:none" stroke-dasharray="8, 4, 1, 4" points="262.551,238.427 2194.88,238.427 "/>
<polyline clip-path="url(#clip200)" style="stroke:#000000; stroke-linecap:round; stroke-linejoin:round; stroke-width:4; stroke-opacity:1; fill:none" points="2194.88,1423.18 2194.88,123.472 "/>
<polyline clip-path="url(#clip200)" style="stroke:#000000; stroke-linecap:round; stroke-linejoin:round; stroke-width:4; stroke-opacity:1; fill:none" points="2194.88,1214.23 2175.98,1214.23 "/>
<polyline clip-path="url(#clip200)" style="stroke:#000000; stroke-linecap:round; stroke-linejoin:round; stroke-width:4; stroke-opacity:1; fill:none" points="2194.88,970.278 2175.98,970.278 "/>
<polyline clip-path="url(#clip200)" style="stroke:#000000; stroke-linecap:round; stroke-linejoin:round; stroke-width:4; stroke-opacity:1; fill:none" points="2194.88,726.328 2175.98,726.328 "/>
<polyline clip-path="url(#clip200)" style="stroke:#000000; stroke-linecap:round; stroke-linejoin:round; stroke-width:4; stroke-opacity:1; fill:none" points="2194.88,482.377 2175.98,482.377 "/>
<polyline clip-path="url(#clip200)" style="stroke:#000000; stroke-linecap:round; stroke-linejoin:round; stroke-width:4; stroke-opacity:1; fill:none" points="2194.88,238.427 2175.98,238.427 "/>
<path clip-path="url(#clip200)" d="M2231.55 1227.57 L2239.19 1227.57 L2239.19 1201.21 L2230.88 1202.87 L2230.88 1198.62 L2239.14 1196.95 L2243.82 1196.95 L2243.82 1227.57 L2251.46 1227.57 L2251.46 1231.51 L2231.55 1231.51 L2231.55 1227.57 Z" fill="#000000" fill-rule="nonzero" fill-opacity="1" /><path clip-path="url(#clip200)" d="M2270.9 1200.03 Q2267.29 1200.03 2265.46 1203.59 Q2263.66 1207.13 2263.66 1214.26 Q2263.66 1221.37 2265.46 1224.93 Q2267.29 1228.48 2270.9 1228.48 Q2274.54 1228.48 2276.34 1224.93 Q2278.17 1221.37 2278.17 1214.26 Q2278.17 1207.13 2276.34 1203.59 Q2274.54 1200.03 2270.9 1200.03 M2270.9 1196.32 Q2276.71 1196.32 2279.77 1200.93 Q2282.85 1205.51 2282.85 1214.26 Q2282.85 1222.99 2279.77 1227.6 Q2276.71 1232.18 2270.9 1232.18 Q2265.09 1232.18 2262.01 1227.6 Q2258.96 1222.99 2258.96 1214.26 Q2258.96 1205.51 2262.01 1200.93 Q2265.09 1196.32 2270.9 1196.32 Z" fill="#000000" fill-rule="nonzero" fill-opacity="1" /><path clip-path="url(#clip200)" d="M2236.5 983.623 L2252.82 983.623 L2252.82 987.558 L2230.88 987.558 L2230.88 983.623 Q2233.54 980.868 2238.12 976.239 Q2242.73 971.586 2243.91 970.243 Q2246.16 967.72 2247.04 965.984 Q2247.94 964.225 2247.94 962.535 Q2247.94 959.78 2245.99 958.044 Q2244.07 956.308 2240.97 956.308 Q2238.77 956.308 2236.32 957.072 Q2233.89 957.836 2231.11 959.387 L2231.11 954.665 Q2233.93 953.53 2236.39 952.952 Q2238.84 952.373 2240.88 952.373 Q2246.25 952.373 2249.44 955.058 Q2252.64 957.743 2252.64 962.234 Q2252.64 964.364 2251.83 966.285 Q2251.04 968.183 2248.93 970.776 Q2248.36 971.447 2245.25 974.665 Q2242.15 977.859 2236.5 983.623 Z" fill="#000000" fill-rule="nonzero" fill-opacity="1" /><path clip-path="url(#clip200)" d="M2272.64 956.077 Q2269.03 956.077 2267.2 959.642 Q2265.39 963.183 2265.39 970.313 Q2265.39 977.419 2267.2 980.984 Q2269.03 984.526 2272.64 984.526 Q2276.27 984.526 2278.08 980.984 Q2279.91 977.419 2279.91 970.313 Q2279.91 963.183 2278.08 959.642 Q2276.27 956.077 2272.64 956.077 M2272.64 952.373 Q2278.45 952.373 2281.5 956.979 Q2284.58 961.563 2284.58 970.313 Q2284.58 979.04 2281.5 983.646 Q2278.45 988.229 2272.64 988.229 Q2266.83 988.229 2263.75 983.646 Q2260.69 979.04 2260.69 970.313 Q2260.69 961.563 2263.75 956.979 Q2266.83 952.373 2272.64 952.373 Z" fill="#000000" fill-rule="nonzero" fill-opacity="1" /><path clip-path="url(#clip200)" d="M2246.5 724.973 Q2249.86 725.691 2251.74 727.96 Q2253.63 730.228 2253.63 733.561 Q2253.63 738.677 2250.12 741.478 Q2246.6 744.279 2240.12 744.279 Q2237.94 744.279 2235.62 743.839 Q2233.33 743.422 2230.88 742.566 L2230.88 738.052 Q2232.82 739.186 2235.14 739.765 Q2237.45 740.344 2239.98 740.344 Q2244.37 740.344 2246.67 738.608 Q2248.98 736.872 2248.98 733.561 Q2248.98 730.506 2246.83 728.793 Q2244.7 727.057 2240.88 727.057 L2236.85 727.057 L2236.85 723.214 L2241.06 723.214 Q2244.51 723.214 2246.34 721.848 Q2248.17 720.46 2248.17 717.867 Q2248.17 715.205 2246.27 713.793 Q2244.4 712.358 2240.88 712.358 Q2238.96 712.358 2236.76 712.774 Q2234.56 713.191 2231.92 714.071 L2231.92 709.904 Q2234.58 709.163 2236.9 708.793 Q2239.24 708.423 2241.3 708.423 Q2246.62 708.423 2249.72 710.853 Q2252.82 713.261 2252.82 717.381 Q2252.82 720.251 2251.18 722.242 Q2249.54 724.21 2246.5 724.973 Z" fill="#000000" fill-rule="nonzero" fill-opacity="1" /><path clip-path="url(#clip200)" d="M2272.5 712.126 Q2268.89 712.126 2267.06 715.691 Q2265.25 719.233 2265.25 726.362 Q2265.25 733.469 2267.06 737.034 Q2268.89 740.575 2272.5 740.575 Q2276.13 740.575 2277.94 737.034 Q2279.77 733.469 2279.77 726.362 Q2279.77 719.233 2277.94 715.691 Q2276.13 712.126 2272.5 712.126 M2272.5 708.423 Q2278.31 708.423 2281.36 713.029 Q2284.44 717.612 2284.44 726.362 Q2284.44 735.089 2281.36 739.696 Q2278.31 744.279 2272.5 744.279 Q2266.69 744.279 2263.61 739.696 Q2260.55 735.089 2260.55 726.362 Q2260.55 717.612 2263.61 713.029 Q2266.69 708.423 2272.5 708.423 Z" fill="#000000" fill-rule="nonzero" fill-opacity="1" /><path clip-path="url(#clip200)" d="M2246.48 469.171 L2234.68 487.62 L2246.48 487.62 L2246.48 469.171 M2245.25 465.097 L2251.13 465.097 L2251.13 487.62 L2256.06 487.62 L2256.06 491.509 L2251.13 491.509 L2251.13 499.657 L2246.48 499.657 L2246.48 491.509 L2230.88 491.509 L2230.88 486.995 L2245.25 465.097 Z" fill="#000000" fill-rule="nonzero" fill-opacity="1" /><path clip-path="url(#clip200)" d="M2273.8 468.176 Q2270.18 468.176 2268.36 471.741 Q2266.55 475.282 2266.55 482.412 Q2266.55 489.518 2268.36 493.083 Q2270.18 496.625 2273.8 496.625 Q2277.43 496.625 2279.24 493.083 Q2281.06 489.518 2281.06 482.412 Q2281.06 475.282 2279.24 471.741 Q2277.43 468.176 2273.8 468.176 M2273.8 464.472 Q2279.61 464.472 2282.66 469.079 Q2285.74 473.662 2285.74 482.412 Q2285.74 491.139 2282.66 495.745 Q2279.61 500.328 2273.8 500.328 Q2267.99 500.328 2264.91 495.745 Q2261.85 491.139 2261.85 482.412 Q2261.85 473.662 2264.91 469.079 Q2267.99 464.472 2273.8 464.472 Z" fill="#000000" fill-rule="nonzero" fill-opacity="1" /><path clip-path="url(#clip200)" d="M2232.34 221.147 L2250.69 221.147 L2250.69 225.082 L2236.62 225.082 L2236.62 233.554 Q2237.64 233.207 2238.66 233.045 Q2239.68 232.86 2240.69 232.86 Q2246.48 232.86 2249.86 236.031 Q2253.24 239.202 2253.24 244.619 Q2253.24 250.197 2249.77 253.299 Q2246.3 256.378 2239.98 256.378 Q2237.8 256.378 2235.53 256.008 Q2233.29 255.637 2230.88 254.897 L2230.88 250.197 Q2232.96 251.332 2235.18 251.887 Q2237.41 252.443 2239.88 252.443 Q2243.89 252.443 2246.23 250.336 Q2248.56 248.23 2248.56 244.619 Q2248.56 241.008 2246.23 238.901 Q2243.89 236.795 2239.88 236.795 Q2238.01 236.795 2236.13 237.211 Q2234.28 237.628 2232.34 238.508 L2232.34 221.147 Z" fill="#000000" fill-rule="nonzero" fill-opacity="1" /><path clip-path="url(#clip200)" d="M2272.45 224.225 Q2268.84 224.225 2267.01 227.79 Q2265.21 231.332 2265.21 238.461 Q2265.21 245.568 2267.01 249.133 Q2268.84 252.674 2272.45 252.674 Q2276.09 252.674 2277.89 249.133 Q2279.72 245.568 2279.72 238.461 Q2279.72 231.332 2277.89 227.79 Q2276.09 224.225 2272.45 224.225 M2272.45 220.522 Q2278.26 220.522 2281.32 225.128 Q2284.4 229.711 2284.4 238.461 Q2284.4 247.188 2281.32 251.795 Q2278.26 256.378 2272.45 256.378 Q2266.64 256.378 2263.56 251.795 Q2260.51 247.188 2260.51 238.461 Q2260.51 229.711 2263.56 225.128 Q2266.64 220.522 2272.45 220.522 Z" fill="#000000" fill-rule="nonzero" fill-opacity="1" /><polyline clip-path="url(#clip202)" style="stroke:#ff0000; stroke-linecap:round; stroke-linejoin:round; stroke-width:4; stroke-opacity:1; fill:none" points="317.24,1386.4 482.963,1339.92 648.685,1267.18 1145.85,907.746 1643.02,440.236 2140.19,160.256 "/>
</svg>
