<?xml version="1.0" encoding="UTF-8" standalone="no"?>
<!-- Generator: Adobe Illustrator 16.0.0, SVG Export Plug-In . SVG Version: 6.00 Build 0)  -->

<svg
   version="1.1"
   id="Layer_1"
   x="0px"
   y="0px"
   width="400"
   height="120"
   viewBox="0 0 400 120"
   enable-background="new 0 0 612 216.393"
   xml:space="preserve"
   sodipodi:docname="genx-logo-light.svg"
   inkscape:version="1.3.2 (1:1.3.2+202311252150+091e20ef0f)"
   xmlns:inkscape="http://www.inkscape.org/namespaces/inkscape"
   xmlns:sodipodi="http://sodipodi.sourceforge.net/DTD/sodipodi-0.dtd"
   xmlns="http://www.w3.org/2000/svg"
   xmlns:svg="http://www.w3.org/2000/svg"><defs
   id="defs16" /><sodipodi:namedview
   id="namedview16"
   pagecolor="#ffffff"
   bordercolor="#666666"
   borderopacity="1.0"
   inkscape:showpageshadow="2"
   inkscape:pageopacity="0.0"
   inkscape:pagecheckerboard="true"
   inkscape:deskcolor="#d1d1d1"
   inkscape:zoom="1.6993464"
   inkscape:cx="165.94615"
   inkscape:cy="-5.0019231"
   inkscape:window-width="1920"
   inkscape:window-height="1011"
   inkscape:window-x="0"
   inkscape:window-y="32"
   inkscape:window-maximized="1"
   inkscape:current-layer="Layer_1" />

<g
   id="group_6"
   transform="translate(-118.29589,-97.305499)">
	<g
   id="g12">
		<path
   d="m 208.43,127.796 -9.428,9.324 c -5.967,-6.312 -12.922,-9.468 -20.866,-9.468 -6.924,0 -12.723,2.295 -17.397,6.886 -4.674,4.591 -7.011,10.169 -7.011,16.735 0,6.79 2.425,12.545 7.275,17.262 4.85,4.718 10.834,7.076 17.95,7.076 4.627,0 8.528,-0.972 11.704,-2.916 3.176,-1.944 5.736,-4.988 7.683,-9.133 h -20.369 v -12.576 h 35.383 l 0.096,2.965 c 0,6.152 -1.594,11.986 -4.781,17.5 -3.188,5.516 -7.316,9.724 -12.384,12.624 -5.069,2.9 -11.014,4.351 -17.835,4.351 -7.3,0 -13.812,-1.586 -19.533,-4.757 -5.722,-3.172 -10.249,-7.69 -13.58,-13.556 -3.332,-5.865 -4.997,-12.193 -4.997,-18.982 0,-9.309 3.076,-17.406 9.228,-24.291 7.299,-8.192 16.799,-12.289 28.499,-12.289 6.12,0 11.842,1.133 17.166,3.396 4.494,1.913 8.893,5.196 13.197,9.849 z"
   id="path7" />
		<path
   d="m 276.424,164.423 h -41.935 c 0.605,3.698 2.224,6.64 4.854,8.822 2.63,2.184 5.984,3.275 10.065,3.275 4.877,0 9.069,-1.705 12.576,-5.116 l 10.998,5.164 c -2.742,3.889 -6.025,6.766 -9.85,8.631 -3.825,1.864 -8.368,2.797 -13.627,2.797 -8.161,0 -14.807,-2.574 -19.939,-7.723 -5.133,-5.147 -7.698,-11.595 -7.698,-19.341 0,-7.938 2.558,-14.528 7.674,-19.772 5.116,-5.242 11.531,-7.865 19.246,-7.865 8.192,0 14.854,2.623 19.987,7.865 5.132,5.244 7.698,12.17 7.698,20.776 z m -13.054,-10.28 c -0.862,-2.9 -2.563,-5.26 -5.102,-7.076 -2.539,-1.817 -5.484,-2.727 -8.837,-2.727 -3.64,0 -6.833,1.021 -9.579,3.061 -1.725,1.275 -3.321,3.523 -4.79,6.742 z"
   id="path8" />
		<path
   d="m 286.991,134.634 h 13.054 v 5.331 c 2.96,-2.495 5.642,-4.23 8.045,-5.207 2.402,-0.975 4.862,-1.463 7.377,-1.463 5.156,0 9.533,1.801 13.131,5.403 3.023,3.06 4.535,7.587 4.535,13.579 v 34.38 h -12.91 v -22.782 c 0,-6.209 -0.278,-10.331 -0.835,-12.369 -0.557,-2.038 -1.526,-3.59 -2.91,-4.656 -1.384,-1.067 -3.093,-1.601 -5.128,-1.601 -2.639,0 -4.905,0.884 -6.797,2.65 -1.892,1.769 -3.204,4.212 -3.936,7.331 -0.382,1.625 -0.572,5.143 -0.572,10.555 v 20.872 h -13.054 z"
   id="path9" />
		<path
   d="m 424.206,173.03 c 2.072,0 3.842,0.727 5.308,2.176 1.466,1.451 2.2,3.213 2.2,5.283 0,2.073 -0.734,3.842 -2.2,5.309 -1.466,1.465 -3.235,2.199 -5.308,2.199 -2.073,0 -3.841,-0.734 -5.307,-2.199 -1.467,-1.467 -2.2,-3.235 -2.2,-5.309 0,-2.07 0.733,-3.832 2.2,-5.283 1.466,-1.45 3.235,-2.176 5.307,-2.176 z"
   id="path10" />
		<path
   d="m 444.098,134.634 h 13.054 v 53.745 c 0,4.94 -0.486,8.631 -1.458,11.068 -0.973,2.439 -2.511,4.312 -4.614,5.619 -2.104,1.307 -4.639,1.961 -7.603,1.961 -2.614,0 -5.865,-0.654 -9.755,-1.961 v -10.28 c 2.041,0.987 3.842,1.481 5.403,1.481 1.657,0 2.9,-0.494 3.729,-1.481 0.829,-0.989 1.243,-2.806 1.243,-5.451 v -54.701 z m 6.503,-21.421 c 2.327,0 4.312,0.826 5.953,2.479 1.642,1.653 2.463,3.656 2.463,6.008 0,2.32 -0.813,4.309 -2.438,5.961 -1.626,1.652 -3.571,2.479 -5.834,2.479 -2.327,0 -4.312,-0.842 -5.953,-2.526 -1.641,-1.684 -2.462,-3.72 -2.462,-6.103 0,-2.289 0.805,-4.244 2.414,-5.865 1.609,-1.621 3.562,-2.433 5.857,-2.433 z"
   id="path11" />
		<path
   d="m 468.483,114.551 h 13.054 v 72.106 h -13.054 z"
   id="path12" />
	</g>
	
		<line
   fill="#ffffff"
   stroke="#000000"
   stroke-width="6"
   stroke-miterlimit="10"
   x1="401.01599"
   y1="124.198"
   x2="350.96701"
   y2="178.96899"
   id="line12" />
	<g
   id="g13">
		<path
   fill="none"
   stroke="#000000"
   stroke-width="6"
   stroke-miterlimit="10"
   d="m 354.967,122.635 c 0,0 6.984,33.334 42.051,55.008"
   id="path13" />
	</g>
	<circle
   fill="#ca3d32"
   cx="397.017"
   cy="177.64101"
   r="9.0170002"
   id="circle13" />
	<circle
   fill="#4d64af"
   cx="350.96701"
   cy="177.64101"
   r="9.0159998"
   id="circle14" />
	<circle
   fill="#9359a3"
   cx="401.01599"
   cy="124.198"
   r="9.0159998"
   id="circle15" />
	<circle
   fill="#389746"
   cx="354.96701"
   cy="124.198"
   r="9.0159998"
   id="circle16" />
</g>
</svg>
