<svg xmlns="http://www.w3.org/2000/svg" xmlns:xlink="http://www.w3.org/1999/xlink" width="1080" zoomAndPan="magnify" viewBox="0 0 810 809.999993" height="1080" preserveAspectRatio="xMidYMid meet" version="1.0"><defs><clipPath id="220c2d1549"><path d="M 367 312.171875 L 546 312.171875 L 546 409.671875 L 367 409.671875 Z M 367 312.171875 " clip-rule="nonzero"/></clipPath><clipPath id="520e294a5b"><path d="M 370 312.171875 L 543 312.171875 L 543 409.671875 L 370 409.671875 Z M 370 312.171875 " clip-rule="nonzero"/></clipPath></defs><rect x="-81" width="972" fill="#ffffff" y="-80.999999" height="971.999992" fill-opacity="1"/><rect x="-81" width="972" fill="#ffffff" y="-80.999999" height="971.999992" fill-opacity="1"/><path fill="#000000" d="M 320.550781 336.945312 L 312.914062 344.523438 C 308.082031 339.394531 302.449219 336.832031 296.015625 336.832031 C 290.40625 336.832031 285.707031 338.695312 281.921875 342.425781 C 278.136719 346.15625 276.246094 350.6875 276.246094 356.023438 C 276.246094 361.539062 278.207031 366.214844 282.136719 370.046875 C 286.066406 373.882812 290.914062 375.796875 296.675781 375.796875 C 300.421875 375.796875 303.582031 375.007812 306.15625 373.425781 C 308.726562 371.847656 310.800781 369.375 312.378906 366.007812 L 295.878906 366.007812 L 295.878906 355.789062 L 324.539062 355.789062 L 324.617188 358.199219 C 324.617188 363.195312 323.324219 367.9375 320.746094 372.417969 C 318.164062 376.898438 314.820312 380.316406 310.714844 382.671875 C 306.609375 385.03125 301.792969 386.207031 296.269531 386.207031 C 290.355469 386.207031 285.082031 384.921875 280.449219 382.34375 C 275.8125 379.765625 272.144531 376.097656 269.449219 371.328125 C 266.75 366.5625 265.402344 361.421875 265.402344 355.90625 C 265.402344 348.34375 267.890625 341.765625 272.875 336.171875 C 278.785156 329.515625 286.480469 326.183594 295.957031 326.183594 C 300.914062 326.183594 305.550781 327.105469 309.863281 328.945312 C 313.5 330.5 317.066406 333.167969 320.550781 336.945312 Z M 320.550781 336.945312 " fill-opacity="1" fill-rule="nonzero"/><path fill="#000000" d="M 375.625 366.707031 L 341.65625 366.707031 C 342.148438 369.710938 343.460938 372.101562 345.589844 373.875 C 347.71875 375.648438 350.4375 376.535156 353.742188 376.535156 C 357.691406 376.535156 361.085938 375.148438 363.925781 372.378906 L 372.835938 376.574219 C 370.613281 379.734375 367.957031 382.070312 364.859375 383.585938 C 361.757812 385.101562 358.078125 385.859375 353.820312 385.859375 C 347.210938 385.859375 341.828125 383.769531 337.671875 379.585938 C 333.511719 375.402344 331.433594 370.164062 331.433594 363.871094 C 331.433594 357.421875 333.507812 352.066406 337.652344 347.804688 C 341.792969 343.546875 346.992188 341.414062 353.238281 341.414062 C 359.875 341.414062 365.269531 343.546875 369.429688 347.804688 C 373.585938 352.066406 375.664062 357.695312 375.664062 364.6875 Z M 365.050781 358.355469 C 364.351562 355.996094 362.972656 354.082031 360.917969 352.605469 C 358.863281 351.128906 356.476562 350.390625 353.761719 350.390625 C 350.8125 350.390625 348.226562 351.21875 346 352.875 C 344.605469 353.914062 343.3125 355.738281 342.121094 358.355469 Z M 365.050781 358.355469 " fill-opacity="1" fill-rule="nonzero"/><path fill="#000000" d="M 384.183594 342.503906 L 394.753906 342.503906 L 394.753906 346.835938 C 397.152344 344.808594 399.324219 343.398438 401.273438 342.605469 C 403.21875 341.8125 405.210938 341.414062 407.246094 341.414062 C 411.421875 341.414062 414.96875 342.878906 417.882812 345.804688 C 420.332031 348.292969 421.554688 351.96875 421.554688 356.839844 L 421.554688 384.773438 L 411.097656 384.773438 L 411.097656 366.261719 C 411.097656 361.214844 410.875 357.867188 410.421875 356.210938 C 409.972656 354.554688 409.1875 353.292969 408.066406 352.429688 C 406.945312 351.5625 405.558594 351.128906 403.914062 351.128906 C 401.773438 351.128906 399.9375 351.847656 398.40625 353.28125 C 396.875 354.71875 395.8125 356.703125 395.21875 359.238281 C 394.910156 360.558594 394.753906 363.414062 394.753906 367.8125 L 394.753906 384.773438 L 384.183594 384.773438 Z M 384.183594 342.503906 " fill-opacity="1" fill-rule="nonzero"/><path fill="#000000" d="M 495.320312 373.699219 C 497 373.699219 498.433594 374.289062 499.621094 375.46875 C 500.808594 376.648438 501.402344 378.078125 501.402344 379.761719 C 501.402344 381.445312 500.808594 382.882812 499.621094 384.074219 C 498.433594 385.265625 497 385.859375 495.320312 385.859375 C 493.640625 385.859375 492.210938 385.265625 491.023438 384.074219 C 489.835938 382.882812 489.242188 381.445312 489.242188 379.761719 C 489.242188 378.078125 489.835938 376.648438 491.023438 375.46875 C 492.210938 374.289062 493.644531 373.699219 495.320312 373.699219 Z M 495.320312 373.699219 " fill-opacity="1" fill-rule="nonzero"/><path fill="#000000" d="M 511.433594 342.503906 L 522.007812 342.503906 L 522.007812 386.171875 C 522.007812 390.183594 521.613281 393.183594 520.824219 395.164062 C 520.035156 397.144531 518.792969 398.667969 517.089844 399.730469 C 515.382812 400.789062 513.332031 401.324219 510.929688 401.324219 C 508.8125 401.324219 506.179688 400.789062 503.027344 399.730469 L 503.027344 391.375 C 504.683594 392.179688 506.140625 392.578125 507.40625 392.578125 C 508.746094 392.578125 509.753906 392.179688 510.425781 391.375 C 511.097656 390.574219 511.433594 389.097656 511.433594 386.949219 Z M 516.699219 325.097656 C 518.585938 325.097656 520.191406 325.769531 521.523438 327.113281 C 522.851562 328.457031 523.515625 330.082031 523.515625 331.992188 C 523.515625 333.878906 522.859375 335.496094 521.542969 336.835938 C 520.226562 338.179688 518.648438 338.851562 516.816406 338.851562 C 514.933594 338.851562 513.324219 338.167969 511.996094 336.800781 C 510.664062 335.429688 510 333.777344 510 331.839844 C 510 329.980469 510.652344 328.390625 511.957031 327.074219 C 513.257812 325.757812 514.839844 325.097656 516.699219 325.097656 Z M 516.699219 325.097656 " fill-opacity="1" fill-rule="nonzero"/><path fill="#000000" d="M 531.183594 326.1875 L 541.757812 326.1875 L 541.757812 384.773438 L 531.183594 384.773438 Z M 531.183594 326.1875 " fill-opacity="1" fill-rule="nonzero"/><path fill="#ffffff" d="M 476.539062 334.023438 L 436 378.523438 " fill-opacity="1" fill-rule="nonzero"/><g clip-path="url(#220c2d1549)"><path stroke-linecap="butt" transform="matrix(0.809961, 0, 0, 0.8125, 151.730871, 233.11287)" fill="none" stroke-linejoin="miter" d="M 401.017107 124.197627 L 350.966468 178.96686 " stroke="#000000" stroke-width="6" stroke-opacity="1" stroke-miterlimit="10"/></g><g clip-path="url(#520e294a5b)"><path stroke-linecap="butt" transform="matrix(0.809961, 0, 0, 0.8125, 151.730871, 233.11287)" fill="none" stroke-linejoin="miter" d="M 354.969362 122.635127 C 354.969362 122.635127 361.952723 155.966859 397.019037 177.644744 " stroke="#000000" stroke-width="6" stroke-opacity="1" stroke-miterlimit="10"/></g><path fill="#ca3d32" d="M 480.601562 377.445312 C 480.601562 377.925781 480.554688 378.402344 480.460938 378.875 C 480.367188 379.347656 480.230469 379.804688 480.046875 380.25 C 479.863281 380.695312 479.636719 381.117188 479.371094 381.515625 C 479.105469 381.917969 478.800781 382.285156 478.464844 382.625 C 478.125 382.96875 477.753906 383.269531 477.355469 383.539062 C 476.957031 383.804688 476.535156 384.03125 476.09375 384.214844 C 475.652344 384.398438 475.195312 384.539062 474.722656 384.632812 C 474.253906 384.726562 473.777344 384.773438 473.300781 384.773438 C 472.820312 384.773438 472.34375 384.726562 471.875 384.632812 C 471.402344 384.539062 470.945312 384.398438 470.503906 384.214844 C 470.0625 384.03125 469.640625 383.804688 469.242188 383.539062 C 468.84375 383.269531 468.472656 382.96875 468.136719 382.625 C 467.796875 382.285156 467.492188 381.917969 467.226562 381.515625 C 466.960938 381.117188 466.734375 380.695312 466.550781 380.25 C 466.367188 379.804688 466.230469 379.347656 466.136719 378.875 C 466.042969 378.402344 465.996094 377.925781 465.996094 377.445312 C 465.996094 376.964844 466.042969 376.488281 466.136719 376.015625 C 466.230469 375.546875 466.367188 375.085938 466.550781 374.640625 C 466.734375 374.199219 466.960938 373.777344 467.226562 373.375 C 467.492188 372.976562 467.796875 372.605469 468.136719 372.265625 C 468.472656 371.925781 468.84375 371.621094 469.242188 371.355469 C 469.640625 371.085938 470.0625 370.863281 470.503906 370.675781 C 470.945312 370.492188 471.402344 370.355469 471.875 370.261719 C 472.34375 370.167969 472.820312 370.121094 473.300781 370.121094 C 473.777344 370.121094 474.253906 370.167969 474.722656 370.261719 C 475.195312 370.355469 475.652344 370.492188 476.09375 370.675781 C 476.535156 370.863281 476.957031 371.085938 477.355469 371.355469 C 477.753906 371.621094 478.125 371.925781 478.464844 372.265625 C 478.800781 372.605469 479.105469 372.976562 479.371094 373.375 C 479.636719 373.777344 479.863281 374.199219 480.046875 374.640625 C 480.230469 375.085938 480.367188 375.546875 480.460938 376.015625 C 480.554688 376.488281 480.601562 376.964844 480.601562 377.445312 Z M 480.601562 377.445312 " fill-opacity="1" fill-rule="nonzero"/><path fill="#4d64af" d="M 443.304688 377.445312 C 443.304688 377.925781 443.257812 378.402344 443.164062 378.875 C 443.070312 379.347656 442.929688 379.804688 442.746094 380.25 C 442.5625 380.695312 442.339844 381.117188 442.074219 381.515625 C 441.804688 381.914062 441.503906 382.285156 441.164062 382.625 C 440.824219 382.964844 440.457031 383.269531 440.058594 383.535156 C 439.660156 383.804688 439.238281 384.03125 438.796875 384.214844 C 438.351562 384.398438 437.894531 384.535156 437.425781 384.632812 C 436.953125 384.726562 436.480469 384.773438 436 384.773438 C 435.519531 384.773438 435.046875 384.726562 434.574219 384.632812 C 434.105469 384.535156 433.648438 384.398438 433.207031 384.214844 C 432.761719 384.03125 432.34375 383.804688 431.941406 383.535156 C 431.542969 383.269531 431.175781 382.964844 430.835938 382.625 C 430.496094 382.285156 430.195312 381.914062 429.929688 381.515625 C 429.664062 381.117188 429.4375 380.695312 429.253906 380.25 C 429.070312 379.804688 428.933594 379.347656 428.839844 378.875 C 428.746094 378.402344 428.699219 377.925781 428.699219 377.445312 C 428.699219 376.964844 428.746094 376.488281 428.839844 376.015625 C 428.933594 375.546875 429.070312 375.085938 429.253906 374.644531 C 429.4375 374.199219 429.664062 373.777344 429.929688 373.375 C 430.195312 372.976562 430.496094 372.605469 430.835938 372.265625 C 431.175781 371.925781 431.542969 371.621094 431.941406 371.355469 C 432.34375 371.089844 432.761719 370.863281 433.207031 370.679688 C 433.648438 370.496094 434.105469 370.355469 434.574219 370.261719 C 435.046875 370.167969 435.519531 370.121094 436 370.121094 C 436.480469 370.121094 436.953125 370.167969 437.425781 370.261719 C 437.894531 370.355469 438.351562 370.496094 438.796875 370.679688 C 439.238281 370.863281 439.660156 371.089844 440.058594 371.355469 C 440.457031 371.621094 440.824219 371.925781 441.164062 372.265625 C 441.503906 372.605469 441.804688 372.976562 442.074219 373.375 C 442.339844 373.777344 442.5625 374.199219 442.746094 374.644531 C 442.929688 375.085938 443.070312 375.546875 443.164062 376.015625 C 443.257812 376.488281 443.304688 376.964844 443.304688 377.445312 Z M 443.304688 377.445312 " fill-opacity="1" fill-rule="nonzero"/><path fill="#9359a3" d="M 483.839844 334.023438 C 483.839844 334.503906 483.792969 334.980469 483.699219 335.453125 C 483.605469 335.925781 483.46875 336.382812 483.285156 336.828125 C 483.101562 337.269531 482.875 337.695312 482.609375 338.09375 C 482.34375 338.492188 482.039062 338.863281 481.703125 339.203125 C 481.363281 339.542969 480.992188 339.847656 480.59375 340.113281 C 480.195312 340.382812 479.777344 340.609375 479.332031 340.792969 C 478.890625 340.976562 478.433594 341.113281 477.960938 341.207031 C 477.492188 341.300781 477.019531 341.347656 476.539062 341.347656 C 476.058594 341.347656 475.582031 341.300781 475.113281 341.207031 C 474.644531 341.113281 474.1875 340.976562 473.742188 340.792969 C 473.300781 340.609375 472.878906 340.382812 472.480469 340.113281 C 472.082031 339.847656 471.714844 339.542969 471.375 339.203125 C 471.035156 338.863281 470.734375 338.492188 470.464844 338.09375 C 470.199219 337.695312 469.976562 337.269531 469.792969 336.828125 C 469.609375 336.382812 469.46875 335.925781 469.375 335.453125 C 469.28125 334.980469 469.234375 334.503906 469.234375 334.023438 C 469.234375 333.542969 469.28125 333.066406 469.375 332.59375 C 469.46875 332.121094 469.609375 331.664062 469.792969 331.21875 C 469.976562 330.777344 470.199219 330.355469 470.464844 329.953125 C 470.734375 329.554688 471.035156 329.183594 471.375 328.84375 C 471.714844 328.503906 472.082031 328.199219 472.480469 327.933594 C 472.878906 327.664062 473.300781 327.441406 473.742188 327.253906 C 474.1875 327.070312 474.644531 326.933594 475.113281 326.839844 C 475.582031 326.746094 476.058594 326.699219 476.539062 326.699219 C 477.019531 326.699219 477.492188 326.746094 477.960938 326.839844 C 478.433594 326.933594 478.890625 327.070312 479.332031 327.253906 C 479.777344 327.441406 480.195312 327.664062 480.59375 327.933594 C 480.992188 328.199219 481.363281 328.503906 481.703125 328.84375 C 482.039062 329.183594 482.34375 329.554688 482.609375 329.953125 C 482.875 330.355469 483.101562 330.777344 483.285156 331.21875 C 483.46875 331.664062 483.605469 332.121094 483.699219 332.59375 C 483.792969 333.066406 483.839844 333.542969 483.839844 334.023438 Z M 483.839844 334.023438 " fill-opacity="1" fill-rule="nonzero"/><path fill="#389746" d="M 446.542969 334.023438 C 446.542969 334.503906 446.496094 334.980469 446.402344 335.453125 C 446.308594 335.925781 446.171875 336.382812 445.988281 336.828125 C 445.804688 337.269531 445.578125 337.695312 445.3125 338.09375 C 445.046875 338.492188 444.742188 338.863281 444.402344 339.203125 C 444.066406 339.542969 443.695312 339.847656 443.296875 340.113281 C 442.898438 340.382812 442.476562 340.609375 442.035156 340.792969 C 441.59375 340.976562 441.136719 341.113281 440.664062 341.207031 C 440.195312 341.300781 439.71875 341.347656 439.242188 341.347656 C 438.761719 341.347656 438.285156 341.300781 437.816406 341.207031 C 437.34375 341.113281 436.886719 340.976562 436.445312 340.792969 C 436.003906 340.609375 435.582031 340.382812 435.183594 340.113281 C 434.785156 339.847656 434.414062 339.542969 434.078125 339.203125 C 433.738281 338.863281 433.433594 338.492188 433.167969 338.09375 C 432.902344 337.695312 432.675781 337.269531 432.492188 336.828125 C 432.308594 336.382812 432.171875 335.925781 432.078125 335.453125 C 431.984375 334.980469 431.9375 334.503906 431.9375 334.023438 C 431.9375 333.542969 431.984375 333.066406 432.078125 332.59375 C 432.171875 332.121094 432.308594 331.664062 432.492188 331.21875 C 432.675781 330.777344 432.902344 330.355469 433.167969 329.953125 C 433.433594 329.554688 433.738281 329.183594 434.078125 328.84375 C 434.414062 328.503906 434.785156 328.199219 435.183594 327.933594 C 435.582031 327.664062 436.003906 327.441406 436.445312 327.253906 C 436.886719 327.070312 437.34375 326.933594 437.816406 326.839844 C 438.285156 326.746094 438.761719 326.699219 439.242188 326.699219 C 439.71875 326.699219 440.195312 326.746094 440.664062 326.839844 C 441.136719 326.933594 441.59375 327.070312 442.035156 327.253906 C 442.476562 327.441406 442.898438 327.664062 443.296875 327.933594 C 443.695312 328.199219 444.066406 328.503906 444.402344 328.84375 C 444.742188 329.183594 445.046875 329.554688 445.3125 329.953125 C 445.578125 330.355469 445.804688 330.777344 445.988281 331.21875 C 446.171875 331.664062 446.308594 332.121094 446.402344 332.59375 C 446.496094 333.066406 446.542969 333.542969 446.542969 334.023438 Z M 446.542969 334.023438 " fill-opacity="1" fill-rule="nonzero"/></svg>