<?xml version="1.0" encoding="UTF-8" standalone="no"?>
<svg
   version="1.1"
   id="Layer_1"
   x="0px"
   y="0px"
   width="100%"
   viewBox="0 0 1168 328"
   enable-background="new 0 0 1168 328"
   xml:space="preserve"
   sodipodi:docname="title_white_text.svg"
   inkscape:version="1.3.2 (1:1.3.2+202311252150+091e20ef0f)"
   xmlns:inkscape="http://www.inkscape.org/namespaces/inkscape"
   xmlns:sodipodi="http://sodipodi.sourceforge.net/DTD/sodipodi-0.dtd"
   xmlns="http://www.w3.org/2000/svg"
   xmlns:svg="http://www.w3.org/2000/svg"><defs
   id="defs14" /><sodipodi:namedview
   id="namedview14"
   pagecolor="#ffffff"
   bordercolor="#666666"
   borderopacity="1.0"
   inkscape:showpageshadow="2"
   inkscape:pageopacity="0.0"
   inkscape:pagecheckerboard="0"
   inkscape:deskcolor="#d1d1d1"
   inkscape:zoom="1.4383562"
   inkscape:cx="583.99999"
   inkscape:cy="164.42381"
   inkscape:window-width="2560"
   inkscape:window-height="1371"
   inkscape:window-x="0"
   inkscape:window-y="32"
   inkscape:window-maximized="1"
   inkscape:current-layer="Layer_1" />

<path
   fill="#1A1819"
   opacity="1.000000"
   stroke="none"
   d=" M73.098557,246.910873   C34.198689,225.251205 13.574567,191.981155 8.809347,148.540802   C2.764343,93.433769 35.493210,39.100090 88.126976,21.966497   C142.937439,4.124338 192.976273,13.515477 234.430374,56.175800   C234.996674,56.758579 235.504272,57.398380 235.478516,57.368851   C225.123291,68.032471 214.963425,78.494919 205.710312,88.023598   C195.109634,80.826492 185.359818,72.510765 174.230240,66.963112   C138.202682,49.004826 89.418365,55.862244 64.441383,96.091644   C43.214291,130.281265 52.060524,176.547195 84.982269,201.070511   C111.229652,220.622131 140.210678,223.729950 170.450897,211.858917   C185.753021,205.851944 195.166245,193.360870 202.399017,178.248032   C179.488922,178.248032 157.133209,178.248032 134.474854,178.248032   C134.474854,164.052139 134.474854,150.317276 134.474854,136.271271   C173.742172,136.271271 212.992615,136.271271 252.754272,136.271271   C253.502228,146.676010 253.414825,157.250122 251.034500,167.655365   C241.941360,207.404739 220.669479,238.095932 181.863312,253.052856   C145.342972,267.128754 108.751831,264.127716 73.098557,246.910873  z"
   id="path2"
   style="fill:#ffffff" />
<path
   fill="#1A1819"
   opacity="1.000000"
   stroke="none"
   d=" M409.707458,209.707993   C414.021027,204.322800 418.313660,204.996887 423.683716,207.854370   C433.005005,212.814407 442.754730,216.969284 452.744049,221.658569   C443.963989,234.344269 433.497314,244.637177 419.784851,250.490814   C387.564545,264.245117 355.157440,264.723724 324.300751,246.989319   C298.475952,232.146942 284.673828,208.665695 282.039093,179.034119   C280.010223,156.215988 283.863892,134.478058 297.249603,115.326447   C314.863831,90.124924 339.177216,77.203995 370.031219,76.790031   C402.663605,76.352211 429.521393,87.803162 448.520935,115.134903   C458.160858,129.002411 462.737610,144.718887 463.970642,161.406281   C464.434540,167.684570 464.045837,174.025833 464.045837,180.995850   C440.902344,180.995850 417.668823,180.995850 394.435303,180.995850   C371.121033,180.995850 347.806732,180.995850 324.495758,180.995850   C324.323395,195.359375 336.725250,212.200729 352.526672,217.724197   C372.628540,224.750900 391.825775,222.529816 409.707458,209.707993  M418.844421,141.832840   C409.169342,121.665489 391.412933,112.079132 367.319855,114.015656   C348.428864,115.534042 331.526672,128.843552 326.482635,146.226410   C357.623199,146.226410 388.742249,146.226410 420.231018,146.226410   C419.760712,144.725433 419.423981,143.650757 418.844421,141.832840  z"
   id="path3"
   style="fill:#ffffff" />
<path
   fill="#1B191A"
   opacity="1.000000"
   stroke="none"
   d=" M611.141174,237.997528   C611.075684,212.010056 611.115112,186.521133 610.870239,161.034927   C610.809692,154.735107 610.063171,148.411957 609.214478,142.156174   C607.679321,130.840286 602.646118,121.634544 591.104614,118.136337   C578.726013,114.384392 567.298706,116.899529 557.934814,126.169724   C548.301636,135.706497 544.314758,147.807358 544.096252,160.996674   C543.607971,190.474854 543.567749,219.960495 543.347900,249.443100   C543.334412,251.255569 543.346130,253.068237 543.346130,255.214355   C528.769348,255.214355 514.551331,255.214355 500.099915,255.214355   C500.099915,197.320557 500.099915,139.558914 500.099915,81.431717   C514.233704,81.431717 528.447510,81.431717 543.130798,81.431717   C543.130798,86.744186 543.130798,92.141640 543.130798,98.903275   C545.773987,96.884712 547.515198,95.576233 549.234070,94.239044   C563.836670,82.878830 579.826965,75.875954 598.888855,76.787872   C629.097290,78.233032 651.964233,99.902702 653.890137,130.100372   C654.652405,142.052887 654.481140,154.072617 654.515015,166.062363   C654.593506,193.882858 654.538086,221.703735 654.536865,249.524460   C654.536804,251.320862 654.536804,253.117249 654.536804,255.227448   C639.887207,255.227448 625.673950,255.227448 611.141174,255.227448   C611.141174,249.446289 611.141174,243.971680 611.141174,237.997528  z"
   id="path4"
   style="fill:#ffffff" />
<path
   fill="#1A1819"
   opacity="1.000000"
   stroke="none"
   d=" M1026.528442,174.999756   C1026.528442,143.535812 1026.528442,112.571884 1026.528442,81.340126   C1041.088989,81.340126 1055.337524,81.340126 1069.850708,81.340126   C1069.962158,81.968353 1070.166016,82.580315 1070.165527,83.192139   C1070.121826,145.987686 1070.128784,208.783447 1069.904785,271.578400   C1069.881836,278.017120 1069.015137,284.572571 1067.606934,290.865051   C1062.626709,313.117218 1044.504761,325.965240 1020.907043,323.586273   C1012.211853,322.709686 1003.666443,320.196045 995.121033,318.144501   C993.823914,317.833099 991.974609,315.991638 991.946777,314.820740   C991.698608,304.366180 991.802307,293.903259 991.802307,283.530670   C996.883179,284.913544 1001.587585,286.581482 1006.435364,287.435364   C1017.641724,289.409210 1024.841431,283.775818 1025.974365,272.420990   C1026.354004,268.616577 1026.499512,264.774475 1026.505249,260.949249   C1026.547852,232.466141 1026.528442,203.982941 1026.528442,174.999756  z"
   id="path5"
   style="fill:#ffffff" />
<path
   fill="#191818"
   opacity="1.000000"
   stroke="none"
   d=" M1108.528076,136.999756   C1108.528076,95.847328 1108.528076,55.194916 1108.528076,14.242256   C1122.979004,14.242256 1137.238892,14.242256 1151.844482,14.242256   C1151.844482,94.348282 1151.844482,174.558563 1151.844482,255.533447   C1144.880737,255.533447 1137.806152,255.533447 1130.731567,255.533447   C1123.589478,255.533447 1116.447510,255.533447 1108.528076,255.533447   C1108.528076,215.964417 1108.528076,176.732086 1108.528076,136.999756  z"
   id="path6"
   style="fill:#ffffff" />
<path
   fill="#1C1A1B"
   opacity="1.000000"
   stroke="none"
   d=" M729.883789,197.953278   C743.853027,182.577652 757.822266,167.201996 772.047302,151.544830   C754.413269,128.539093 740.113953,103.596588 729.275024,76.482574   C735.710754,74.052948 741.806091,72.012291 747.901367,69.971649   C757.845459,93.471085 770.232971,115.563728 785.951660,136.416809   C808.896118,111.199585 831.607422,86.238541 854.906006,61.270912   C860.143127,65.638878 864.793030,70.013420 869.442932,74.387955   C851.533875,94.057449 833.608276,113.711929 815.725464,133.405273   C810.044800,139.661041 804.478027,146.020218 798.817322,152.379074   C812.654114,168.987579 827.983582,183.664703 844.864563,196.739120   C846.292419,197.845001 847.599609,199.106567 849.050659,200.962128   C845.682678,206.785645 842.226990,211.942856 838.771240,217.100067   C818.790039,203.079407 801.708679,185.898468 784.930420,167.422379   C771.046631,182.599899 757.295898,197.632019 742.936096,212.787781   C739.807373,209.678070 737.342773,206.399536 734.746765,203.228577   C733.234436,201.381180 731.511780,199.705948 729.883789,197.953278  z"
   id="path7"
   style="fill:#ffffff" />
<path
   fill="#33833E"
   opacity="1.000000"
   stroke="none"
   d=" M747.964233,69.626190   C741.806091,72.012291 735.710754,74.052948 729.184387,76.127701   C715.372498,76.431328 705.822815,70.302010 700.167480,58.385658   C695.075012,47.655098 697.415833,34.188477 705.859619,25.572922   C714.821960,16.428291 725.697021,13.838768 737.863708,17.912275   C757.340942,24.433418 764.241699,49.655327 750.992859,65.409393   C749.947632,66.652214 749.013062,67.988106 747.964233,69.626190  z"
   id="path8" />
<path
   fill="#7B4B86"
   opacity="1.000000"
   stroke="none"
   d=" M869.805908,74.346863   C864.793030,70.013420 860.143127,65.638878 855.192078,61.102989   C852.008301,53.181255 850.486816,45.335503 853.066711,37.136429   C857.920227,21.711746 874.467651,12.767769 890.000488,17.229696   C906.033813,21.835398 915.210938,38.237312 910.840210,54.475616   C906.691650,69.888535 890.224915,79.358322 874.492432,75.380333   C873.052734,75.016304 871.610107,74.663681 869.805908,74.346863  z"
   id="path9" />
<path
   fill="#43528E"
   opacity="1.000000"
   stroke="none"
   d=" M729.577148,198.036377   C731.511780,199.705948 733.234436,201.381180 734.746765,203.228577   C737.342773,206.399536 739.807373,209.678070 742.664062,212.983734   C743.390442,217.979233 744.352173,222.936279 744.063538,227.819397   C743.145142,243.358200 730.381348,255.129272 714.712036,255.404800   C698.894043,255.682953 685.823181,243.792740 684.207764,227.655991   C682.728455,212.879089 693.573364,198.130432 708.544495,196.002380   C714.208252,195.197327 720.237244,196.939011 726.096436,197.551239   C727.162598,197.662643 728.212952,197.926178 729.577148,198.036377  z"
   id="path10" />
<path
   fill="#AE3631"
   opacity="1.000000"
   stroke="none"
   d=" M838.830017,217.516693   C842.226990,211.942856 845.682678,206.785645 849.188171,201.277771   C852.884949,199.388229 856.424805,197.486237 860.197510,196.373291   C876.510986,191.560776 893.594666,201.558167 897.693970,218.111572   C901.753296,234.503296 890.953857,251.649246 874.533630,254.882401   C857.655518,258.205719 841.389404,247.156631 838.844788,230.312744   C838.235596,226.280502 838.841675,222.064697 838.830017,217.516693  z"
   id="path11" />
<path
   fill="#1B191A"
   opacity="1.000000"
   stroke="none"
   d=" M1025.005371,22.144642   C1033.440918,11.187455 1044.177002,6.967731 1055.784424,10.427933   C1066.912842,13.745313 1074.026978,21.299179 1075.980469,32.836681   C1078.265869,46.334293 1071.890869,58.300701 1060.172729,63.775581   C1049.429688,68.794891 1036.710693,66.118011 1028.262085,57.059479   C1019.468201,47.630810 1018.139465,34.225700 1025.005371,22.144642  z"
   id="path12"
   style="fill:#ffffff" />
<path
   fill="#1B191A"
   opacity="1.000000"
   stroke="none"
   d=" M983.871521,227.444000   C986.990295,241.805130 980.721619,254.101608 968.299744,258.572205   C956.437195,262.841583 943.100281,257.563538 937.248901,246.283981   C930.999939,234.238022 935.718811,219.350555 947.872437,212.768173   C959.932617,206.236404 975.319397,210.831955 981.930542,222.969589   C982.642517,224.276794 983.164734,225.687347 983.871521,227.444000  z"
   id="path13"
   style="fill:#ffffff" />

</svg>
